<svg width="584" height="530" viewBox="0 0 584 530" fill="none" xmlns="http://www.w3.org/2000/svg">
<path d="M3.82342 358.774C10.5402 363.073 17.1227 364.954 23.5709 364.416C29.7503 363.61 35.5268 361.192 40.9002 357.162C52.9905 348.565 64.2747 338.893 74.753 328.146C79.8577 323.041 84.6938 317.533 89.2613 311.622C94.0974 305.712 98.5305 299.935 102.561 294.293C106.591 288.382 110.083 282.74 113.039 277.367C115.994 271.724 118.278 266.62 119.89 262.052C114.516 263.396 109.815 265.142 105.785 267.291C102.023 269.172 98.2618 271.456 94.5004 274.143C90.739 276.292 86.9776 278.71 83.2161 281.397C79.7234 283.815 76.2307 286.501 72.7379 289.457C67.9018 288.113 64.1404 286.098 61.4537 283.412C59.0356 280.456 57.0206 277.098 55.4085 273.337C54.8712 272.262 54.7369 270.918 55.0055 269.306C55.5429 267.694 56.0802 266.217 56.6176 264.873C60.379 259.769 63.8717 254.529 67.0958 249.156C70.3199 243.514 74.0813 238.275 78.38 233.439C87.2462 222.692 96.1124 212.214 104.979 202.004C114.113 191.526 123.248 181.047 132.383 170.569C133.727 169.226 134.936 167.883 136.01 166.539C137.085 164.927 138.294 163.046 139.637 160.897C136.682 161.434 135.07 161.703 134.801 161.703C122.711 168.42 111.158 175.674 100.143 183.466C89.3956 190.988 79.0517 199.183 69.1108 208.049C66.9615 210.198 64.9464 212.348 63.0657 214.497C61.185 216.647 61.185 219.602 63.0657 223.363C54.7369 220.408 49.7664 217.184 48.1544 213.691C46.5423 210.198 48.02 205.631 52.5875 199.989C53.1248 198.646 53.7965 197.571 54.6025 196.765C55.4085 195.69 56.0802 194.75 56.6176 193.944C67.6331 182.66 78.9174 172.181 90.4703 162.509C102.292 152.837 115.457 144.374 129.965 137.12C133.189 135.239 136.413 133.895 139.637 133.089C143.13 132.015 146.489 130.94 149.713 129.865C155.086 128.253 159.519 129.328 163.012 133.089L164.624 134.701C177.789 144.911 179.401 157.001 169.46 170.972C162.743 181.182 155.758 191.123 148.504 200.795C141.249 210.467 134.13 220.274 127.144 230.215C125.801 231.558 124.726 232.767 123.92 233.842C123.114 234.916 122.442 235.991 121.905 237.066C125.666 239.484 129.159 242.036 132.383 244.723C135.876 247.141 139.234 249.559 142.458 251.977C147.026 256.813 148.772 262.187 147.698 268.097C146.623 270.784 145.817 273.336 145.279 275.755C145.011 278.173 144.205 280.456 142.861 282.606C135.876 298.189 127.278 312.966 117.069 326.937C107.128 340.639 95.3064 353.535 81.6041 365.625C78.9174 368.044 76.0963 370.193 73.1409 372.074C70.4542 373.954 67.6331 375.969 64.6777 378.119C49.3634 387.254 33.7804 387.522 17.9287 378.925C14.9733 377.581 12.2866 375.835 9.86856 373.686C7.4505 371.536 5.03245 369.521 2.6144 367.641C1.27104 366.297 0.599354 365.222 0.599354 364.416C0.599354 363.61 1.67404 361.73 3.82342 358.774ZM242.527 230.618C255.155 234.379 265.633 239.752 273.962 246.738C282.56 253.455 290.351 261.112 297.337 269.709C312.651 287.979 314.263 307.189 302.173 327.34C294.381 339.699 285.112 350.714 274.365 360.386C263.887 369.79 251.797 377.716 238.094 384.164C232.452 387.119 226.676 389.269 220.765 390.612C214.854 391.955 208.54 391.821 201.823 390.209C201.017 389.94 200.211 389.806 199.405 389.806C198.599 389.806 197.928 389.537 197.39 389C191.748 385.776 186.106 382.149 180.464 378.119C175.091 373.82 170.389 368.984 166.359 363.61C162.06 357.968 158.836 351.923 156.687 345.475C154.537 339.027 154 331.907 155.074 324.116C157.493 308.264 162.329 292.815 169.583 277.77C181.673 253.052 196.181 230.215 213.108 209.258C230.034 188.033 248.976 168.151 269.932 149.613C270.469 149.075 271.41 148.269 272.753 147.195C279.201 142.09 284.306 140.075 288.067 141.15C292.097 142.224 295.59 146.657 298.546 154.449C299.352 156.598 299.352 158.613 298.546 160.494C297.74 162.106 296.665 163.718 295.322 165.33C290.485 170.972 285.649 176.614 280.813 182.257C276.246 187.63 271.678 193.138 267.111 198.78C263.349 203.885 259.454 208.989 255.424 214.094C251.394 219.199 247.095 224.707 242.527 230.618ZM233.258 245.529C223.317 260.843 214.317 276.292 206.257 291.875C198.196 307.189 192.286 323.444 188.524 340.639C187.987 343.863 187.718 347.221 187.718 350.714C187.718 354.207 187.584 357.968 187.315 361.998C190.271 361.998 192.957 362.133 195.375 362.401C197.793 362.67 200.077 362.536 202.227 361.998C220.496 357.431 235.811 349.774 248.169 339.027C260.797 328.011 271.007 314.578 278.798 298.726C279.873 297.383 280.545 295.905 280.813 294.293C281.082 292.412 281.351 290.666 281.619 289.054C282.157 283.68 281.619 278.844 280.007 274.546C278.395 270.247 274.768 266.62 269.126 263.664C262.946 260.978 256.901 258.157 250.991 255.201C245.348 251.977 239.438 248.753 233.258 245.529ZM468.511 203.213C467.168 209.93 465.959 216.512 464.884 222.96C464.078 229.409 462.735 235.722 460.854 241.902C455.481 261.515 448.361 280.456 439.495 298.726C430.897 316.996 420.956 334.594 409.672 351.52C406.717 355.282 403.627 358.909 400.403 362.401C397.179 365.894 393.686 369.387 389.925 372.88C386.163 376.641 381.73 378.79 376.625 379.328C371.789 379.865 366.685 379.193 361.311 377.313C346.803 372.477 336.459 366.297 330.279 358.774C324.369 350.983 321.682 339.699 322.219 324.922C322.219 318.473 322.622 312.025 323.428 305.577C323.966 299.129 325.04 292.815 326.652 286.636C331.22 268.366 337.265 250.768 344.788 233.842C352.311 216.915 360.908 200.392 370.58 184.272C374.073 178.092 378.237 172.719 383.074 168.151C388.178 163.315 393.686 159.016 399.597 155.255C405.239 151.494 411.015 149.478 416.926 149.21C422.837 148.672 428.882 150.285 435.062 154.046C435.868 154.583 436.674 155.121 437.48 155.658C438.554 155.927 439.36 156.33 439.898 156.867C450.376 161.434 457.899 167.748 462.466 175.808C467.034 183.6 469.049 192.735 468.511 203.213ZM360.908 357.162C365.475 355.013 369.103 352.461 371.789 349.505C374.745 346.281 377.297 343.057 379.446 339.833C392.343 321.295 403.358 301.95 412.493 281.8C421.628 261.649 428.345 240.558 432.644 218.527C433.987 211.273 434.659 203.885 434.659 196.362C434.659 188.57 433.181 181.182 430.226 174.196C421.359 179.57 413.031 186.958 405.239 196.362C397.716 205.765 390.999 216.378 385.089 228.2C379.178 239.752 374.073 251.843 369.774 264.47C365.475 277.098 362.251 289.323 360.102 301.144C357.953 312.966 356.878 323.847 356.878 333.788C356.878 343.729 358.221 351.52 360.908 357.162ZM559.069 181.451C561.084 185.481 562.293 190.317 562.293 195.556C562.293 204.825 558.263 214.9 551.009 221.348C542.545 228.603 528.843 233.439 518.365 233.439C514.335 233.439 510.708 232.633 508.29 231.021C506.275 229.812 503.856 226.99 503.05 225.781C502.647 224.169 500.229 221.751 497.811 220.139C494.587 218.124 493.378 216.109 490.557 207.243C488.542 201.601 487.736 197.974 487.736 195.153C487.736 193.944 487.736 192.735 488.139 191.526C489.348 182.66 499.826 167.748 511.917 156.061C514.335 153.643 515.947 152.434 515.947 152.434C515.947 152.837 515.544 153.24 515.141 153.643C513.126 155.658 512.32 156.867 512.32 157.673C512.32 158.076 512.723 158.076 513.126 158.076C513.932 158.076 515.947 156.867 518.768 154.852C521.589 153.24 523.604 152.434 524.41 152.434C524.813 152.434 525.216 152.434 525.216 152.837C525.216 153.24 524.007 154.449 521.992 156.061L518.365 159.285L524.41 156.464C527.634 154.852 529.246 154.449 530.455 154.449C531.261 154.449 531.664 154.449 532.47 154.852C533.276 156.061 536.5 157.673 538.918 158.882C544.157 162.106 554.233 173.39 559.069 181.451ZM535.694 167.748H535.291C534.485 167.748 533.679 168.151 533.276 168.554L532.47 169.36C532.47 169.36 532.47 169.763 532.873 169.763C532.873 169.763 533.679 169.36 534.082 169.36C534.888 168.957 535.694 168.554 535.694 168.151V167.748ZM530.858 166.539C530.858 166.539 530.455 166.942 530.455 167.345C530.455 167.345 530.858 167.748 531.261 167.748C531.664 167.748 532.873 166.942 533.276 166.539V166.136C533.276 165.733 532.873 165.33 532.47 165.33C532.067 165.33 531.261 165.733 530.858 166.539ZM529.649 199.586H530.052C531.664 199.586 538.112 193.541 538.112 191.123C538.112 191.123 538.112 190.72 537.709 190.72C537.306 190.72 535.694 191.929 533.679 193.944C531.664 195.959 529.649 198.377 529.649 199.183V199.586ZM540.53 182.66C541.739 180.241 542.142 178.629 542.142 177.017C542.142 175.808 541.739 174.599 540.53 173.793C540.127 173.39 539.724 172.987 539.321 172.987C538.515 172.987 537.709 173.793 536.5 175.002C535.694 175.808 535.291 176.614 535.291 177.017C535.694 177.017 535.694 177.017 536.097 176.614H536.5C536.5 177.017 533.679 179.838 530.455 183.466C523.201 191.526 516.753 199.586 516.753 200.795C516.753 201.198 516.753 201.601 517.559 201.601C518.365 201.601 520.783 200.392 525.619 197.571C529.246 195.556 533.679 192.332 535.291 190.317C536.097 189.108 537.709 187.496 538.515 187.496L538.918 187.899H539.724C539.724 187.496 539.321 187.496 539.321 187.093V186.287C539.321 185.481 539.724 183.869 540.53 182.66Z" fill="#FAFAFA"/>
</svg>
