<svg width="96" height="48" viewBox="0 0 96 48" fill="none" xmlns="http://www.w3.org/2000/svg">
<g clipPath="url(#clip0_327_13)">
<path d="M78.9608 25.3277L79.3415 24.2575C79.2519 24.2485 79.1668 24.2351 79.0773 24.2261C78.5892 24.0022 78.0518 23.8858 77.5144 23.8948C77.3711 23.8948 77.1472 23.8724 76.9278 23.8589C76.8248 23.841 76.7173 23.8231 76.6143 23.8052C76.5919 23.8052 76.5651 23.7963 76.5427 23.7918C76.5337 23.7918 76.5293 23.7918 76.5248 23.7918C76.5158 23.7918 76.5069 23.7918 76.4979 23.7873C76.4576 23.7828 76.4128 23.7739 76.3725 23.7649C76.3501 23.7649 76.3277 23.756 76.3009 23.7515C76.283 23.7515 76.2606 23.7425 76.2427 23.7425C76.2024 23.738 76.1621 23.7291 76.1218 23.7246C75.7411 23.6664 75.3605 23.6082 74.9754 23.5544L74.8187 24.9605C74.7112 25.4487 74.653 25.9726 74.653 26.4473V26.4696L74.6261 26.7249C74.6261 26.7249 74.6037 26.7115 74.5858 26.7115C74.4649 27.6026 74.344 28.5474 74.3216 29.4968L74.2723 29.9267C74.232 30.2267 74.2052 30.5581 74.1828 30.8939V30.8671C74.1201 30.8671 74.1156 31.0417 74.1738 31.0641C74.138 31.7895 74.138 32.5463 74.138 33.1956V34.7316C74.2052 35.1301 74.2768 36.9348 75.1008 36.9348C75.2396 36.9348 75.8576 36.6706 75.8576 36.4691C75.8576 36.178 75.8217 35.878 75.768 35.5735C75.8262 35.7616 75.8934 35.9317 75.9964 36.0661V35.9989C75.9964 35.5332 75.7904 35.1302 75.7904 34.5973V34.2659L75.9964 35.2645H76.0635L76.1307 35.1301C76.1307 35.1301 76.1307 35.2645 76.1979 35.3317C76.1979 34.8659 76.0591 33.8629 76.3367 33.4643L76.4755 34.7988C76.5293 34.2301 76.592 33.6524 76.6591 33.0747C76.6949 33.1195 76.7353 33.1643 76.78 33.1956C76.8785 32.8061 76.9771 32.4209 77.0756 32.0314C77.1651 31.8075 77.2547 31.4179 77.286 31.194C77.3129 31.0865 77.3398 30.979 77.3667 30.8715C77.3667 30.8715 77.3756 30.8805 77.3801 30.885V30.8268C77.6264 29.8595 77.8727 28.8878 78.119 27.9205C78.1593 27.7683 78.1996 27.6115 78.2533 27.4593C78.2981 27.3876 78.3473 27.316 78.4056 27.2578L78.4235 27.0787C78.4727 26.9936 78.5354 26.913 78.6026 26.8368C78.6295 26.81 78.6563 26.7786 78.6832 26.7518C78.6832 26.7652 78.6832 26.7741 78.6787 26.7876L78.7145 26.7159C78.7414 26.6846 78.7683 26.6488 78.7862 26.6085C78.831 26.5144 78.8265 26.4069 78.822 26.2995C78.822 26.2368 78.822 26.1786 78.822 26.1159C78.8802 25.7935 78.9474 25.4352 78.9474 25.3188L78.9608 25.3277ZM76.48 23.8589V23.8724C76.48 23.8724 76.4576 23.8724 76.4442 23.8769C76.4531 23.8545 76.4621 23.841 76.48 23.8545V23.8589Z" fill="#171717"/>
<path d="M86.2869 28.7939V28.9058L86.3451 28.7356L86.4302 28.1669C86.5153 27.7997 86.5556 27.4236 86.6004 27.0474L86.6227 26.8862L87.178 24.7323C87.2049 24.6651 87.2318 24.6024 87.2586 24.5353C87.2497 24.5353 87.2407 24.5353 87.2273 24.5308L87.2407 24.4815C87.1422 24.4815 87.0437 24.4726 86.9452 24.4726V24.4905C86.8914 24.486 86.8467 24.4815 86.7974 24.4726V24.4636C86.7616 24.4636 86.7257 24.4636 86.6899 24.4636C86.4033 24.4367 86.1123 24.4233 85.8257 24.4323C85.7809 24.4323 85.7361 24.4323 85.6958 24.4278C85.6331 24.4188 85.5749 24.4278 85.5167 24.4367C85.2256 24.4591 84.9301 24.4726 84.6345 24.4815C84.5808 24.4815 84.527 24.486 84.4688 24.486C84.1509 24.495 83.8329 24.4994 83.5105 24.4994C83.4837 24.4994 83.4613 24.4994 83.4389 24.4994C83.4299 24.4994 83.421 24.4994 83.4075 24.4994L82.485 29.5686L81.9253 35.0497V35.999C81.9253 37.4544 81.979 38.35 82.1492 39.971C82.1492 40.1949 82.2611 40.3606 82.4268 40.3606C82.5388 40.3606 82.8746 40.3606 82.8746 40.1367V39.1292H82.9284C82.9821 39.1292 83.0403 40.0248 83.0403 40.1367H83.0941C83.206 40.0248 83.1523 39.6352 83.1523 39.577L83.206 39.5232V38.238C83.318 38.4619 83.2597 39.6352 83.4836 39.6934V39.5277C83.4836 39.0262 83.4299 38.5784 83.4299 38.0723C83.4299 37.6245 83.4836 37.2887 83.4836 36.8409L83.5956 37.9022V36.617H83.6493C83.6493 36.8409 83.7613 38.1261 83.7613 38.4082C83.7613 38.4082 83.8195 38.6321 83.8195 38.6858V36.1602C83.9001 35.9766 83.9762 35.793 84.0479 35.6049C84.0747 35.8826 83.9673 36.1692 84.1016 36.3886L84.1509 35.3228C84.1688 35.278 84.1822 35.2333 84.2001 35.1885C84.2942 35.1258 84.3748 35.0228 84.3255 34.875L84.339 34.7899C84.3703 34.7004 84.3972 34.6153 84.4285 34.5257C84.6345 33.9122 84.8405 33.2988 85.042 32.6853C85.1181 32.4569 85.1943 32.2285 85.2704 31.9957C85.2704 32.0046 85.2749 32.018 85.2749 32.0225C85.2928 31.9643 85.3062 31.9061 85.3196 31.8479L85.5122 31.2747C85.5838 31.0597 85.6555 30.8403 85.7227 30.6254V30.6836L85.7451 30.5582C85.8301 30.2895 85.9063 30.0164 85.9645 29.7387C86.0137 29.5059 86.054 29.273 86.1302 29.0491C86.1794 28.9058 86.2376 28.7715 86.2914 28.6282C86.2914 28.6774 86.2869 28.7133 86.2869 28.7222V28.7804V28.7939ZM82.8209 38.5828C82.7672 38.5828 82.7672 38.4709 82.8209 38.4709C82.8746 38.4709 82.8791 38.5828 82.8209 38.5828ZM82.8746 38.9724C82.8164 38.9724 82.8164 38.7485 82.8746 38.7485V38.9724ZM84.2449 24.6651C84.2449 24.6651 84.227 24.6741 84.218 24.6786V24.6562C84.218 24.6562 84.2404 24.6562 84.2449 24.6651ZM83.2642 38.1888C83.2105 38.1888 83.2105 38.135 83.2642 38.135V38.1888Z" fill="#171717"/>
<path d="M90.6127 12.14L92.4576 8.39186C92.5696 8.2799 92.6815 8.056 92.7352 7.89032L94.6921 4.64822C95.028 4.08847 95.1399 3.52872 95.1399 2.91523C95.1399 1.34792 93.7965 0.00898471 92.1755 0.00898471C91.8978 0.00898471 90.6082 -0.0492297 90.4962 0.286623L86.9183 9.56958C86.9183 9.62331 86.8645 9.73526 86.8063 9.84721L85.2972 14.4909L85.1853 14.7686L83.9404 18.9242C83.9404 18.9242 83.9852 18.9242 84.0031 18.9287C83.918 18.9376 83.8284 18.9421 83.7434 18.951C83.6404 18.9824 83.5329 18.9914 83.4165 18.9734C82.9866 19.0048 82.5388 19.0361 82.0775 19.063C81.6566 19.2914 80.555 19.26 79.8027 19.2779L83.0134 12.0683L83.2911 11.0025C83.3448 11.0025 83.3448 10.9354 83.3448 10.9354C83.3448 8.86653 81.9477 7.33504 80.2684 7.33504C79.6549 7.33504 78.4772 7.40221 78.4235 8.40081L76.9681 13.2013L75.5709 19.2421C74.1156 19.2287 72.6423 19.1749 71.1959 19.063C71.0929 18.651 71.0123 18.351 71.0123 18.351C70.5108 18.0151 70.2287 17.6793 69.6152 17.6793C69.2793 17.6793 68.9435 17.6793 68.6658 17.7912C68.6658 17.9614 68.6121 18.0689 68.5539 18.1808L68.5001 18.2346L68.3882 18.2435C68.3882 18.4137 68.3748 18.5883 68.3524 18.754C67.9673 18.7003 67.5821 18.6421 67.2105 18.5749C67.1388 18.651 67.0582 18.7182 66.9597 18.7406C66.8746 18.7271 66.7 18.6958 66.7 18.6958C66.185 18.6062 65.8447 18.3868 65.4237 18.2122C65.2894 18.1808 65.1551 18.1495 65.0252 18.1181C65.0924 18.2435 65.3118 18.5077 65.3118 18.5077L66.1268 18.9376C65.2625 18.7854 64.7744 18.0196 63.9146 17.8674C63.7445 17.836 63.637 17.9301 63.628 17.9883C63.5027 18.6958 65.3297 19.3451 66.0238 19.775C66.597 19.9407 67.2105 20.1109 67.8553 20.2855C67.7254 21.0109 67.3582 21.6871 66.7224 22.0991H66.8836C66.8836 22.2096 66.8283 22.2648 66.7179 22.2648L66.1044 22.8783H66.0462L66.2119 22.6544H66.1581L61.183 27.016C60.5696 27.5757 59.056 28.9729 58.0529 28.9729C57.7753 28.9729 57.7753 27.7996 57.7753 27.6877C57.7753 25.8427 58.6127 23.7739 59.4545 22.0946C61.2995 18.5704 63.4803 15.3821 66.8925 13.2595C68.012 12.534 69.3554 12.0862 70.4705 11.3026C70.7481 11.0787 70.8063 10.6309 70.8063 10.2413C70.8063 9.79348 70.6944 9.34568 70.4705 8.95609C69.5749 8.06048 68.5673 7.38878 67.2821 7.38878C66.2746 7.38878 64.9311 7.44699 64.152 8.17243L61.7473 10.2995L58.841 13.4296C58.7828 13.5416 58.3395 14.0431 58.2813 14.1551L58.2231 14.2133C58.0574 14.4909 57.2155 15.7224 57.0498 16.0045C57.0498 16.0627 56.9379 16.1747 56.8841 16.1747L55.4288 18.9152C54.7033 20.3706 53.7495 22.7753 53.7495 24.5083V26.5234C53.7495 29.5416 56.9379 31.3328 59.5665 31.3328C60.7397 31.3328 62.5847 30.2133 63.3146 29.264H63.2608C63.2608 29.3222 63.0952 29.3759 63.0952 29.3759H63.0369C63.4265 28.9863 64.0445 28.3683 64.546 28.0325V28.1982C64.0624 29.5864 63.534 31.0731 63.1444 32.5777C63.122 32.5777 63.1041 32.5777 63.0817 32.5687C63.1131 32.618 63.1175 32.6628 63.1086 32.712C63.1086 32.7299 63.0996 32.7479 63.0952 32.7613C63.0101 32.9986 62.6429 33.2584 62.8668 33.6255C62.7996 33.7106 62.7907 33.536 62.7235 33.5763C62.8265 33.6972 62.822 33.8226 62.7504 34.051L62.7235 34.0196C62.7011 34.6824 62.5668 34.96 62.5265 35.7168L62.6115 35.6765C62.6071 35.7481 62.6026 35.8153 62.5981 35.887C62.5936 35.9004 62.5847 35.9138 62.5802 35.9317C62.5847 35.9362 62.5936 35.9407 62.5981 35.9452C62.5936 36.1019 62.5891 36.2586 62.5891 36.4154C62.5891 36.6258 62.6071 36.9438 62.6563 37.311C62.6563 37.3154 62.6563 37.3244 62.6563 37.3423C62.6563 37.3423 62.6563 37.3378 62.6563 37.3334C62.6563 37.3423 62.6563 37.3468 62.6563 37.3558C62.6563 37.3558 62.6563 37.3468 62.6518 37.3468C62.6205 37.4677 62.6653 37.6155 62.7145 37.7453C62.8892 38.7842 63.2653 40.0112 63.9773 40.3874C64.0042 40.4366 64.0355 40.4859 64.0803 40.5486L64.0579 40.5396C64.1654 40.6068 64.2639 40.7188 64.3311 40.8531C64.1923 40.7725 64.349 41.1442 64.1833 41.0322C64.5908 41.4308 64.4162 41.2113 64.8058 41.386L64.7699 41.5069C64.9222 41.5517 64.967 41.5338 65.1506 41.7308C64.9446 41.6054 65.1282 41.9636 64.8819 41.8293C65.0521 42.4338 65.6118 42.3488 65.5357 42.7607C65.9253 42.7697 65.3163 42.2861 65.464 42.3532C65.4596 42.201 65.7641 42.3846 65.8671 42.5279C65.9924 42.6533 65.8133 42.9981 66.1671 43.316C66.1313 43.2847 66.1178 43.2981 66.082 43.2668C66.1626 43.4369 66.4089 43.4235 66.4895 43.6519C66.691 43.6071 66.7 43.8355 66.8701 43.6922C66.7448 43.6205 66.6283 43.5399 66.5119 43.4593C66.7313 43.5847 67.0717 43.5175 67.3045 43.8534C67.2553 43.8668 67.1254 43.8399 67.0403 43.8175C67.0896 43.9385 67.2418 43.9205 67.2956 44.0459C67.1343 44.1937 66.8567 43.7683 66.5432 43.728C66.5791 43.8802 67.0358 43.9116 66.7806 44.0146C67.1209 43.8982 67.1209 44.337 67.5284 44.328L67.4344 44.4221C67.4881 44.4355 67.609 44.4445 67.6851 44.4982L67.4478 44.5385C67.7434 44.5699 67.7926 44.9236 68.0523 44.9863C67.6001 44.7176 68.0389 44.7938 67.9046 44.6012C68.5315 44.7758 68.0479 45.0759 68.6569 45.3669C68.5584 45.3043 68.433 45.1475 68.5763 45.1654C68.6837 45.255 68.8181 45.3804 68.8629 45.4789C69.3017 45.6804 68.8629 45.3266 69.0823 45.3535C69.1495 45.5729 69.3241 45.4028 69.5301 45.4431L69.4719 45.5595C69.9286 45.8595 69.7182 45.3804 70.1167 45.6625C70.0272 45.6938 69.9376 45.7252 69.8525 45.7476C69.9331 45.77 70.0227 45.7834 70.1078 45.8013L70.0003 45.9177C70.3048 45.9177 70.372 45.976 70.6093 46.1148C70.5824 46.0073 70.7302 45.9088 70.9541 45.976C71.084 46.1013 70.8242 46.0655 71.1556 46.1551C71.0571 46.2088 70.9407 46.2805 70.8377 46.1193C70.8063 46.1551 70.7347 46.173 70.7078 46.2088C70.8466 46.3476 71.1287 46.37 71.2497 46.4058C71.2049 46.3879 71.1511 46.3611 71.1287 46.3342C71.3034 46.3342 71.4825 46.3208 71.6616 46.3029C71.7243 46.37 71.6527 46.3924 71.581 46.4148C71.684 46.4282 71.7691 46.3879 71.9124 46.4148C71.8452 46.5088 71.8273 46.6163 71.6079 46.6074L72.105 46.6163C72.1229 46.6701 72.3199 46.791 72.2483 46.8178C72.5035 46.9298 72.9334 46.7551 73.2737 46.8716C73.2961 46.8536 73.3364 46.8402 73.4125 46.8357C73.735 46.9119 74.035 47.0417 74.438 46.9253C74.4783 46.9656 74.5231 47.0014 74.5679 47.0328C74.5679 47.0731 74.5768 47.1179 74.5813 47.1537C74.5813 47.1134 74.5813 47.0776 74.5813 47.0417C74.5992 47.0552 74.6171 47.0731 74.635 47.0865C74.644 47.1626 74.653 47.2388 74.6574 47.3238C74.6753 47.4179 74.6306 47.5746 74.7604 47.5701C75.0022 47.597 75.3291 47.6328 75.5306 47.6821L75.5709 47.7448C75.6695 47.7493 75.8128 47.7896 75.9426 47.8209C76.077 47.8433 76.1934 47.8612 76.2382 47.8388C76.3367 47.9239 76.574 47.9597 76.8293 47.9821C77.0845 48 77.3622 47.9821 77.5368 48.0045L77.5547 47.9329C77.7921 47.9552 78.0249 47.9329 78.3205 47.897L78.3025 47.8343C78.4279 47.8075 78.5936 47.8164 78.7772 47.8299C78.9608 47.8299 79.1623 47.8388 79.3638 47.8209C79.337 47.8478 79.234 47.8478 79.1623 47.8388C79.6639 47.9552 80.1654 47.6239 80.6087 47.6507C80.7117 47.606 80.7879 47.597 80.8685 47.597C80.8595 47.597 80.8505 47.6015 80.8416 47.606C80.8505 47.606 80.8685 47.6015 80.8864 47.597C80.9356 47.597 80.9894 47.597 81.0431 47.597C80.9938 47.5925 80.9491 47.588 80.9088 47.5925C80.9894 47.5746 81.1147 47.5388 81.2312 47.4985L81.2984 47.5522C81.2984 47.5522 81.3163 47.5477 81.3252 47.5433C81.4506 47.5343 81.4103 47.4851 81.3342 47.4537C81.3924 47.4268 81.4461 47.3955 81.482 47.3686C81.6073 47.4492 81.7865 47.2432 81.9521 47.3194C82.0104 47.2477 82.4582 47.091 82.5388 46.9656C82.6731 46.9343 82.803 46.885 82.906 46.8089L82.9955 46.8671L83.2239 46.6387C83.412 46.6118 83.4926 46.5984 83.3582 46.7462C83.7075 46.4506 83.6628 46.5491 83.9493 46.2849L83.9628 46.3432C84.0792 46.2715 84.2225 46.1013 84.3165 46.1013C84.4777 46.0789 84.7912 45.873 85.145 45.6311C85.4943 45.3804 85.8794 45.0759 86.2018 44.8564C85.9824 44.8341 86.5153 44.6684 86.4526 44.5519C86.5108 44.5519 86.6093 44.4937 86.5376 44.6012C86.7929 44.2967 87.0078 44.2295 87.1108 43.9519C87.169 43.9429 87.0974 44.0549 87.1422 44.0414C87.1556 44.0101 87.2004 43.925 87.2452 43.9116C87.29 43.8982 87.2317 43.9788 87.2004 44.037C87.4691 43.7325 87.4019 43.6205 87.3347 43.522C87.5049 43.4011 87.5676 43.316 87.6034 43.1593C87.6751 43.1279 87.7781 43.0608 87.6348 43.2623C87.7288 43.1593 88.2035 42.6174 88.1318 42.5503C88.1766 42.5279 88.2527 42.398 88.2617 42.3577C88.4408 42.098 88.4677 42.0845 88.6199 41.8159L88.5617 41.8786C88.5304 41.7174 88.6781 41.6502 88.7901 41.4308V41.4442C89.1483 40.9874 88.8886 41.2158 89.2289 40.7635H89.1528C89.2289 40.6964 89.3095 40.6202 89.4215 40.5441C89.3812 40.5575 89.2469 40.6381 89.1439 40.6784C89.1752 40.5844 89.3051 40.4456 89.4125 40.2799C89.4573 40.2351 89.5066 40.1769 89.5648 40.1097L89.623 40.1814C89.7305 40.0336 89.7081 39.9978 89.7394 39.9127L89.6364 39.8545C89.6633 39.8276 89.6902 39.8008 89.717 39.7739L90.344 39.129L89.3051 39.5321C89.2603 39.55 89.2155 39.5679 89.1797 39.5858H89.1752C89.1304 39.6082 89.0901 39.6261 89.0633 39.653C89.0274 39.6709 89.0901 39.5948 89.117 39.55C88.7901 39.7918 89.0543 39.6888 88.9827 39.8366C88.9647 39.8411 88.9513 39.8455 88.9334 39.8545C88.92 39.8814 88.911 39.8993 88.9065 39.9172C88.8573 39.8993 88.8752 39.7963 88.7319 39.9396C88.6244 39.9933 88.3916 40.5307 88.1139 40.6964C88.1856 40.674 88.2617 40.6471 88.1721 40.7859C88.002 40.9606 87.5945 41.1307 87.5183 41.3636C87.487 41.377 87.4736 41.377 87.4646 41.3725C87.3482 41.5203 87.0616 41.8248 87.0123 41.9413C86.7302 41.8651 86.1839 42.7518 86.0495 42.5771C85.9062 42.7025 85.7495 42.81 85.5973 42.9175V42.8906C85.2883 43.0787 85.2121 43.1951 85.1315 43.307C85.0554 43.3429 85.0957 43.2891 85.0957 43.2757C84.8673 43.4056 84.7375 43.4772 84.621 43.5444C84.5091 43.616 84.4151 43.7011 84.2449 43.8534L84.1732 43.8131C84.1285 43.8578 83.9493 43.925 83.7299 44.0191C83.4971 44.0907 83.2284 44.1847 83.0045 44.3236C83.0045 44.3146 83.009 44.2967 83.0448 44.2743C82.9194 44.346 82.7761 44.4176 82.6194 44.4534C82.4626 44.4893 82.3014 44.5161 82.1581 44.5475C81.8626 44.6057 81.6252 44.6773 81.5446 44.8117L81.1819 44.9415C81.6745 44.8744 81.1282 45.0624 81.3387 45.0714C81.1461 45.1207 80.8237 45.0848 81.0565 45.0311H81.0968C81.1282 44.9639 80.9759 44.9774 80.8147 44.9997C80.6535 45.0221 80.4789 45.0177 80.4833 44.9774C80.2415 44.9953 79.9997 45.0087 79.7624 45.0177C79.525 44.9997 79.2877 44.9818 79.0504 44.9639C78.813 44.9594 78.5891 44.8878 78.3608 44.8564C78.2488 44.8341 78.1324 44.8161 78.0204 44.7982C77.9085 44.7803 77.801 44.74 77.6891 44.7132L77.7652 44.8385L77.4562 44.7535C77.3801 44.7087 77.3711 44.646 77.5861 44.7087C77.4875 44.6236 77.2054 44.6639 77.192 44.6818C76.8517 44.5519 77.2054 44.5878 77.2726 44.5833C75.5575 44.4758 73.8962 43.7817 72.4722 42.7697C72.4542 42.9488 72.405 43.119 72.3109 43.2981C72.2841 43.2354 72.2527 43.1682 72.2348 43.1011V43.0921C72.2124 43.0115 72.199 42.9309 72.19 42.8503C72.19 42.8369 72.19 42.8234 72.1856 42.81C72.1766 42.7339 72.1766 42.6533 72.1811 42.5771C72.1811 42.5682 72.1811 42.5637 72.1811 42.5547C71.9572 42.3846 71.7378 42.2055 71.5273 42.0174C71.4959 41.9995 71.4601 41.9816 71.4288 41.9592C69.8794 40.965 68.7151 39.4873 68.1061 37.7498C67.6627 36.4825 67.6135 35.2332 67.712 33.9704C67.712 33.2897 68.2136 31.1134 68.3972 30.9656L71.0437 24.6471C71.4915 23.5858 71.6572 22.4081 71.7691 21.2931C72.611 21.4856 73.4797 21.6737 74.3708 21.8528C75.5486 22.0275 76.7173 22.2066 77.913 22.417C77.998 22.4305 78.6877 22.5559 78.7772 22.5693C78.8041 22.5827 78.8175 22.5962 78.8399 22.6096C79.6907 22.726 80.5416 22.829 81.3924 22.9096C81.4058 22.8828 81.4282 22.8648 81.4775 22.8738C81.4775 22.8872 81.4685 22.9007 81.4596 22.9141C81.6297 22.932 81.7954 22.9454 81.9611 22.9589C82.0462 22.9096 82.1626 22.8783 82.3596 22.9141L82.3462 22.9902C82.4761 22.9992 82.6059 23.0126 82.7403 23.0216C82.7582 23.0126 82.7716 22.9947 82.794 22.9902L82.8925 22.9499L82.8791 23.0305C83.094 23.044 83.3045 23.0529 83.5195 23.0664C83.5195 23.035 83.5463 23.0081 83.5911 23.0171C83.6314 23.0261 83.6448 23.0484 83.6448 23.0753C83.9941 23.0932 84.3389 23.1067 84.6837 23.1156C84.7106 23.1156 84.7375 23.1156 84.7688 23.1156C85.557 23.138 86.3361 23.138 87.1019 23.1111C87.169 23.1022 87.2407 23.0977 87.3123 23.1067C88.7229 23.1873 91.2754 23.353 92.8741 23.353L93.5637 23.4739L93.6711 23.3798C94.2399 23.1962 94.5265 22.0543 94.5981 21.6692C94.813 20.4557 93.6846 18.7809 91.6157 18.4182L89.7574 18.3734C89.7574 18.3734 89.2021 18.454 88.2393 18.5659L88.5214 17.6076L90.6485 12.1847L90.6127 12.14ZM82.5209 46.9432C82.5209 46.9432 82.5298 46.9208 82.5343 46.9119C82.5432 46.9253 82.5791 46.9208 82.5209 46.9432Z" fill="#171717"/>
<path d="M52.3435 9.11744C51.7837 9.11744 50.4403 9.34134 50.2164 9.84288C50.1627 10.2325 49.6566 12.1356 49.5447 12.5252C49.4909 12.5834 49.4909 12.7491 49.379 12.8029C49.1014 13.9224 48.6536 16.551 47.8117 17.6705L43.3919 25.4981C42.7202 26.6713 41.8828 27.7908 40.8752 28.7402H40.7633C40.4856 28.7402 40.5976 28.2386 40.5976 28.0685C40.5976 25.9996 41.0991 24.0964 41.6051 22.0858C42.0529 21.0783 43.2262 19.1214 43.2262 17.9481C43.2262 17.8899 43.1142 17.778 43.0605 17.7242L43.1724 17.8362H43.2262C43.3919 17.5003 43.7859 17.0525 43.8397 16.6047L45.407 12.9685C45.5189 12.7446 45.5189 12.579 45.5189 12.3551C45.5189 10.6758 43.0023 9.6145 41.6051 9.6145C40.3199 9.6145 39.8721 9.95035 39.3661 11.0699C38.5287 12.973 37.5212 15.9912 37.0734 17.9481L36.7375 19.7931V19.8513L36.1778 23.5412C36.1778 23.5994 36.124 24.9965 36.124 25.61C36.124 28.5163 36.5136 31.8748 39.9841 31.8748H40.5976C41.2693 31.7628 43.8979 30.9792 44.0098 30.1418C44.5696 29.6402 45.6891 28.4088 45.6891 27.6789C45.2995 27.9565 45.0756 28.6282 44.7398 28.9641L44.686 28.9059L44.7398 28.8476C44.7398 28.7894 44.8517 28.5118 44.9054 28.4581L46.025 26.837C46.0787 26.7251 46.2489 26.5594 46.1906 26.3892L46.6922 25.5518L46.7504 25.4936V25.6638C46.7504 25.8877 46.6922 26.1116 46.6922 26.3355L46.4683 28.7939C46.522 29.7432 46.3563 30.809 46.3563 31.7584C46.3563 32.7659 46.1324 36.9574 48.1475 36.9574H48.3714C48.4252 36.9036 48.4834 36.7335 48.4834 36.6797C47.7579 35.5065 47.8117 33.3794 47.8117 32.0942C47.8117 31.4583 47.8968 30.7239 47.9774 29.9761V33.2137C47.9774 34.0511 48.2013 34.4452 48.367 35.1706C48.4028 35.1318 48.4207 35.0751 48.4207 35.0005C48.4207 33.9929 48.1431 32.9316 48.1431 31.8703V31.1986H48.1968V31.4762C48.1968 31.7001 48.255 32.9316 48.255 33.2092H48.3087C48.3087 33.2092 48.367 33.1555 48.367 33.0973C48.367 32.9316 48.367 32.2017 48.5326 31.924H48.5864C48.5864 31.924 48.6446 31.9823 48.6983 32.036C48.864 31.924 48.6983 31.1986 48.864 31.0284L49.0342 31.1404C49.0342 31.0284 49.0342 30.6926 49.0879 30.6926L49.1999 30.6389C49.2536 29.8552 49.5357 29.1298 49.6477 28.3998C50.4851 27.6744 50.709 24.7099 50.9329 23.7561L52.2763 19.5602C52.7778 16.8197 55.7423 14.303 55.7423 11.6207C55.7423 9.82945 53.8391 9.104 52.33 9.104L52.3435 9.11744Z" fill="#171717"/>
<path d="M31.4266 8.27979C31.037 8.27979 29.9712 8.27979 29.8593 8.78132L28.0143 11.9697C27.9024 12.1354 27.7367 12.3055 27.6248 12.4712L22.3675 22.2602L20.8002 25.6142C20.5763 26.174 19.4031 25.8919 19.2329 26.5098V26.9576C19.2329 27.5711 19.6225 28.1309 19.6225 28.6369L19.5688 28.6951L18.1716 33.0567C18.0597 33.3926 18.0015 33.8404 18.0015 34.23C18.0015 34.9554 18.615 35.6853 19.3449 35.6853C19.9584 35.6853 20.4644 34.7897 20.5763 34.2882L20.6883 34.3464C21.4719 32.7253 22.4795 29.0354 24.2125 28.6996L26.953 27.7503C27.065 27.5801 27.9024 27.5264 27.9024 27.3607V27.3069H27.7904V27.2487L28.798 26.9129L28.5204 30.2132V30.8267C28.5204 31.9462 28.8562 34.9644 30.4773 34.9644H30.7549C30.8086 34.9061 31.2564 34.6285 31.2564 34.5748V34.5166L31.1445 34.2927V34.2344C31.2564 34.2927 31.3684 34.3464 31.4803 34.4001C31.4266 34.2344 31.5386 34.2344 31.7042 34.2344C31.7042 33.8001 31.5475 33.3612 31.3594 32.9045C31.3818 32.9224 31.3997 32.9358 31.4266 32.9492V32.8955C31.2027 32.2238 31.0907 31.4984 31.0907 30.7684V30.5445L31.4803 25.5112L31.6505 25.3456V25.4575C31.6505 25.959 31.4803 26.4651 31.4803 26.9666V27.0786L31.5923 26.8009V27.1905C31.5386 27.6383 31.3684 29.7609 31.3684 30.2087C31.3102 30.4326 31.3684 31.5521 31.3684 31.776C31.2564 31.776 31.3102 31.8342 31.1982 31.7223L31.3102 32.2238C31.3684 32.1119 31.3684 31.9999 31.4221 31.888C31.4221 32.1119 31.4759 32.3895 31.5878 32.6134V32.5014C31.5878 31.8297 31.4221 31.2162 31.4221 30.5445V29.8728L31.9237 25.2873C31.9237 25.1217 31.9774 24.9515 32.0356 24.7858C32.0938 24.844 32.1476 24.7858 32.1476 24.7276V24.8395C32.1476 25.565 31.9819 26.3486 31.9819 27.0786V27.3562L32.9312 20.4779V20.6481C32.9312 21.1496 32.7655 21.6557 32.8193 22.1572L32.7073 22.099V22.6005C32.985 22.3229 32.9312 21.7049 32.9312 21.3691H32.985L33.2626 20.0839V20.366H33.3208L32.7073 24.2798L32.6536 24.7276L32.2058 27.9697L32.3177 27.804C32.4879 26.6307 32.7655 25.5112 33.0432 24.3917L35.7837 12.6459C35.7837 12.5921 35.8375 12.1443 35.8957 11.9742V11.9159C35.8957 9.56498 33.379 8.27979 31.4221 8.27979H31.4266ZM29.9757 18.4001L29.1383 23.935L25.95 24.3246V24.1589L29.6399 17.8941C29.6936 17.7822 29.7518 17.7822 29.8056 17.7822C29.8593 17.7822 29.9712 17.7822 29.9712 17.8941V18.3957L29.9757 18.4001Z" fill="#171717"/>
<path d="M17.6164 29.967L18.1762 29.864C18.1403 29.8417 18.1 29.8237 18.0597 29.8148C18.3284 29.7342 18.5792 29.6088 18.7449 29.4118C18.7628 29.4118 18.7807 29.4118 18.7941 29.4118C18.7807 29.4118 18.7673 29.4028 18.7538 29.3983C18.8076 29.3356 18.8523 29.264 18.8837 29.1789C18.8926 29.152 18.9016 29.1207 18.9061 29.0938C18.9688 29.0759 19.027 29.0535 19.0762 29.0177C19.0762 28.9684 18.9912 28.9192 18.9285 28.9102H19.13C19.13 28.7983 19.1837 28.7401 19.1837 28.6326C19.1837 28.5744 19.13 28.5206 19.0718 28.4669C18.4583 28.3549 18.0105 28.3549 17.3388 28.3549C16.1073 28.3549 14.7639 28.3549 13.5369 28.6908L9.78881 29.5864L5.2033 31.0955H5.14509C5.14509 30.9298 5.09135 30.9298 5.2033 30.7596L14.9923 10.7384C15.158 10.4025 15.2162 10.1249 15.2162 9.73081C15.2162 7.99782 13.4832 6.93652 11.8621 6.93652C10.9665 6.93652 10.8546 6.99026 10.6889 7.83213L6.21534 18.7943C6.21534 18.9063 6.1616 18.96 6.10339 19.072L2.74934 26.2324L1.91195 28.5251C1.68805 29.1386 1.63431 29.6984 1.63431 30.3163C1.63431 31.1 1.85822 31.6597 2.35976 32.2732C2.13585 32.3852 1.74627 32.6091 1.46415 32.6091C1.24025 32.6091 1.07456 32.4434 0.904395 32.4434C0.344641 32.4434 0.00878906 32.9449 0.00878906 33.4509C0.00878906 34.8481 1.01635 36.7512 2.63739 36.7512C2.86129 36.7512 3.0852 36.6975 3.3091 36.5856L5.0421 35.7482L11.0247 33.2315C11.4725 32.9539 12.086 32.8419 12.5338 32.618C12.5338 32.5643 12.4756 32.5643 12.4756 32.5643C12.8966 32.4434 13.2862 32.2598 13.6847 32.0807C14.2937 31.8702 14.9027 31.6642 15.5162 31.4717C15.7177 31.409 15.9237 31.3418 16.0849 31.203C16.1431 31.1537 16.1924 31.0955 16.2551 31.0552C16.3312 31.0015 16.4208 30.9791 16.5103 30.9477C16.6357 30.9074 16.7566 30.8537 16.8775 30.7955L17.0656 30.7731C17.0656 30.7149 17.1776 30.7149 17.1776 30.7149H17.0164C17.2537 30.5805 17.4731 30.4148 17.6567 30.2178C17.6567 30.2044 17.6567 30.1909 17.6522 30.1775C17.6612 30.173 17.6701 30.1641 17.6791 30.1551H17.6478C17.6478 30.1551 17.6478 30.1372 17.6478 30.1282L17.7373 30.0969V30.0387C17.7373 30.0387 17.6836 30.0118 17.6298 29.9939C17.6298 29.9849 17.6298 29.9805 17.6298 29.9715L17.6164 29.967Z" fill="#171717"/>
</g>
<defs>
<clipPath id="clip0_327_13">
<rect width="95.1447" height="48" fill="white"/>
</clipPath>
</defs>
</svg>
