<svg width="920" height="316" viewBox="0 0 920 316" fill="none" xmlns="http://www.w3.org/2000/svg">
<g clip-path="url(#clip0_2290_4)">
<path d="M54.02 155.15C39.4 155.36 24.77 155.57 10.36 155.79C8.24 155.79 5.48 156.42 3.58 153.88C0.189999 148.79 -1.72 146.04 5.91 144.34C12.69 142.64 19.69 141.37 27.1 140.53C37.7 139.26 48.72 138.62 59.52 137.56C67.15 136.92 67.79 136.92 72.87 132.9C76.47 136.29 80.71 135.23 84.53 135.02C98.94 133.54 112.93 131.63 127.34 130.57C134.33 130.15 141.54 130.36 148.53 131.42C154.04 132.06 160.61 141.8 159.76 147.1C159.76 148.16 158.49 149.64 157.43 150.07C154.89 151.13 152.13 151.77 149.38 151.98C132.85 152.4 115.9 152.83 98.94 153.25C93.43 153.46 88.13 154.1 82.41 154.31C78.38 165.75 74.57 176.77 70.54 188.01C59.94 217.47 49.77 247.14 38.96 276.81C34.72 288.04 29.85 298.85 24.76 309.66C22 315.38 20.73 315.6 15.01 311.36C4.2 303.31 3.78 305 6.75 292.92C16.5 253.71 43.41 204.12 59.31 155.17C56.98 155.17 55.5 154.96 54.01 155.17L54.02 155.15Z" fill="#A11038"/>
<path d="M123.96 203.89C127.77 202.83 132.01 202.2 136.04 201.56C139.22 201.14 141.13 202.41 142.61 205.37C148.33 215.97 147.91 217.66 136.25 220.84C124.59 224.23 112.94 226.99 101.07 229.95C97.47 230.8 94.71 232.49 93.02 236.31C86.66 250.3 79.88 264.07 72.67 278.69C74.79 278.27 76.06 278.06 77.33 277.63C90.68 272.97 103.82 268.09 116.96 263.64C124.17 261.1 125.65 261.94 129.46 268.51C130.52 270.21 131.58 271.9 132.21 273.6C133.91 277.2 133.27 279.11 129.46 280.81C127.55 281.87 125.43 282.29 123.31 282.72C101.69 286.96 80.71 293.53 60.37 301.79C54.7167 304.05 49.9133 302.423 45.96 296.91C56.98 257.28 78.81 222.73 98.73 187.34C100.85 183.31 104.88 179.71 102.33 174.41C102.12 173.99 102.33 172.93 102.75 172.5C106.78 169.74 110.59 166.78 114.83 164.23C116.95 162.96 119.7 162.96 122.04 161.9C137.51 155.75 153.19 150.24 169.51 146.64C169.93 146.64 170.36 146.43 170.78 146.22C181.38 144.1 184.98 146.64 186.89 157.45C187.31 160.42 186.47 162.33 183.92 163.17C180.11 164.23 176.5 165.5 172.69 166.35C157.64 169.74 142.38 173.34 127.34 176.52C123.31 177.37 120.98 179.06 119.5 183.09C116.32 191.14 112.29 199.2 108.06 208.31C113.99 206.62 118.87 204.92 123.95 203.86L123.96 203.89Z" fill="#A11038"/>
<path d="M222.29 173.58C232.89 178.67 233.1 179.3 229.28 190.32C223.13 208.12 216.78 225.71 210.63 243.52C209.99 245.43 209.36 247.55 208.72 249.67C215.08 249.88 220.8 254.55 222.5 260.48C223.14 262.81 222.08 264.29 219.96 264.93C217.84 265.57 215.51 265.99 212.97 265.99C206.33 266.557 202.02 270.09 200.04 276.59C197.71 285.07 195.59 293.76 193.26 302.87C190.29 301.81 187.54 300.96 184.78 299.69C181.6 298.42 181.6 295.24 181.81 292.48C182.45 286.76 183.29 281.04 184.14 275.1C184.35 274.25 184.56 273.19 184.77 271.07C177.56 272.76 171.21 274.04 164.85 275.73C163.37 276.15 162.31 278.06 161.46 279.33C157.65 284.42 154.25 289.71 150.23 294.59C145.99 299.68 144.29 299.68 138.15 295.65C141.54 290.56 144.93 285.27 148.53 279.76C136.87 281.03 136.24 280.61 132.42 272.98C134.54 271.92 136.23 270.44 138.35 269.59C143.86 267.68 149.37 265.78 155.09 264.08C157.84 263.44 159.75 261.96 161.45 259.42C175.01 239.5 188.58 219.79 202.14 200.08C206.17 194.14 209.56 188 213.58 182.07C215.7 178.89 218.03 175.92 220.15 173.17C221.42 173.59 222.06 173.59 222.27 173.59L222.29 173.58ZM178 257.51C180.97 256.66 183.94 256.24 186.69 255.39C187.75 254.97 189.02 253.91 189.44 252.85C191.13 247.13 192.62 240.98 194.31 235.05C193.89 234.84 193.46 234.63 193.04 234.41C187.74 241.83 182.44 249.03 177.15 256.24C177.57 256.66 177.78 257.09 178 257.51Z" fill="#A11038"/>
<path d="M343.94 188.42C347.12 190.11 350.3 191.81 353.48 193.72C355.6 194.99 356.02 197.11 354.96 199.44C354.32 200.5 354.11 201.35 353.48 202.19C333.98 237.37 320.63 274.67 311.1 313.45C310.89 313.87 310.46 314.51 310.25 314.93C300.08 315.57 297.32 312.39 297.32 302.42C297.74 284.41 303.68 267.66 310.25 251.13C311.1 248.8 311.95 246.68 311.95 243.71C305.17 251.97 298.6 260.66 292.03 268.93C290.76 270.84 289.27 272.53 288 274.23C282.91 280.59 278.25 281.65 271.05 277.62C269.78 276.77 268.29 274.65 268.08 272.96C267.23 266.39 265.96 259.82 266.38 253.04C267.44 236.51 269.13 219.98 270.62 203.45C270.83 202.6 270.83 201.75 269.56 200.48C268.92 202.18 267.87 203.87 267.02 205.78C253.24 236.09 240.11 267.03 228.66 298.6C227.81 301.14 226.75 303.9 225.69 306.44C222.72 313.65 222.72 313.86 214.03 310.68C214.45 308.35 214.67 305.8 215.51 303.47C222.5 276.34 232.68 250.06 243.49 224C251.12 205.99 258.75 188.18 266.38 170.17C268.5 165.08 270.19 159.79 272.31 154.7C274.22 149.82 275.7 149.4 280.15 150.89C290.32 154.28 291.17 155.55 290.75 166.36C289.48 194.33 288.21 222.52 286.94 250.5C286.94 251.35 287.15 252.19 287.36 253.47C306.22 231.64 324.87 210.45 343.94 188.41V188.42Z" fill="#A11038"/>
<path d="M424.69 187.15C404.34 193.51 387.39 204.53 373.83 221.48C375.74 222.75 377.01 223.81 378.28 224.45C390.15 231.23 397.99 241.62 404.14 253.7C409.23 264.08 407.53 273.41 400.54 282.1C395.03 289.09 387.82 294.18 379.56 297.78C369.39 302.23 359 305.83 347.77 305.62C341.84 305.62 337.18 303.5 333.57 299.05C330.81 295.66 328.27 292.06 325.94 288.67C324.67 286.98 323.4 285.28 325.09 283.37C326.79 281.46 328.48 281.46 330.81 282.31C334.2 283.37 338.02 283.79 341.62 283.37C354.55 282.1 366.63 278.49 377.44 271.29C382.95 267.69 387.61 263.24 390.16 256.88C392.7 250.95 391.85 247.98 386.56 244.16C384.44 242.68 382.32 240.98 380.2 239.92C371.72 235.47 366.21 228.48 361.34 220.64C358.16 215.13 357.95 209.62 361.34 204.74C364.73 200.08 368.55 195.42 373 191.81C384.66 182.06 397.58 174.86 412.42 171.46C414.96 170.82 417.51 170.61 420.05 170.61C424.08 170.4 427.26 172.31 429.37 175.49C430.85 177.82 432.13 179.94 433.4 182.27C436.15 187.57 435.52 188.84 429.16 190.75C427.89 189.69 426.41 188.42 424.71 187.15H424.69Z" fill="#A11038"/>
<path d="M40.72 129.63V3.18994H115.34C123.3 3.18994 130.32 4.99992 136.38 8.60992C142.44 12.2299 147.19 17.2199 150.62 23.5899C154.05 29.9599 155.77 37.3699 155.77 45.8299C155.77 54.2899 154.02 62.0899 150.53 68.5299C147.04 74.9699 142.26 79.9599 136.19 83.5099C130.13 87.0599 123.17 88.8399 115.33 88.8399H81.33V129.64H40.71L40.72 129.63ZM81.33 59.2399H101.73C106.02 59.2399 109.23 58.1399 111.38 55.9299C113.52 53.7199 114.6 50.4799 114.6 46.1899C114.6 43.2499 114.14 40.8299 113.22 38.9299C112.3 37.0299 110.89 35.5899 108.99 34.6099C107.09 33.6299 104.67 33.14 101.73 33.14H81.33V59.2399Z" fill="#A11038"/>
<path d="M152.46 129.63L198.59 3.18994H245.82L291.95 129.63H248.94L243.61 111.8H199.32L193.99 129.63H152.45H152.46ZM207.78 83.4999H235.35L229.29 63.2799C228.8 61.8099 228.25 60.03 227.64 57.95C227.03 55.87 226.41 53.6599 225.8 51.3299C225.19 48.9999 224.57 46.7099 223.96 44.4399C223.35 42.1699 222.79 40.1799 222.31 38.4699H220.84C220.35 40.6799 219.71 43.1899 218.91 46.0099C218.11 48.8299 217.29 51.7399 216.43 54.7399C215.57 57.7399 214.71 60.5899 213.86 63.2899L207.8 83.5099L207.78 83.4999Z" fill="#A11038"/>
<path d="M363.99 131.83C355.29 131.83 347.17 131.19 339.64 129.9C332.1 128.61 325.49 126.41 319.79 123.28C314.09 120.16 309.62 115.81 306.37 110.23C303.12 104.66 301.5 97.6402 301.5 89.1902V88.1802C301.5 87.7502 301.56 87.2902 301.68 86.8002H340.09C339.97 87.2902 339.91 87.7502 339.91 88.1802V89.3702C339.91 93.0502 340.77 95.8702 342.48 97.8202C344.19 99.7802 346.62 101.1 349.74 101.77C352.86 102.44 356.39 102.78 360.31 102.78C361.78 102.78 363.34 102.75 365 102.69C366.65 102.63 368.25 102.45 369.78 102.14C371.31 101.84 372.72 101.38 374.01 100.76C375.3 100.15 376.31 99.3202 377.04 98.2802C377.77 97.2402 378.14 95.9202 378.14 94.3302C378.14 92.0002 377.1 90.1702 375.02 88.8202C372.94 87.4702 370.12 86.3102 366.57 85.3302C363.02 84.3502 359.03 83.4302 354.62 82.5702C350.21 81.7102 345.61 80.7002 340.84 79.5402C336.06 78.3802 331.47 76.8702 327.06 75.0402C322.65 73.2002 318.67 70.8402 315.11 67.9602C311.55 65.0802 308.74 61.4702 306.66 57.1202C304.58 52.7702 303.54 47.5302 303.54 41.4102C303.54 34.0602 305.07 27.8102 308.13 22.6602C311.19 17.5102 315.39 13.3502 320.72 10.1602C326.05 6.98022 332.11 4.65021 338.91 3.18021C345.71 1.71021 352.85 0.970215 360.32 0.970215C367.79 0.970215 375.05 1.7402 381.73 3.2702C388.41 4.8002 394.32 7.16022 399.47 10.3502C404.62 13.5402 408.66 17.5802 411.6 22.4802C414.54 27.3802 416.07 33.2002 416.19 39.9402V42.1502H378.15V41.4102C378.15 39.2002 377.6 37.1202 376.5 35.1602C375.4 33.2002 373.65 31.6102 371.26 30.3802C368.87 29.1602 365.72 28.5402 361.8 28.5402C358.12 28.5402 355.03 28.9102 352.52 29.6402C350.01 30.3802 348.14 31.3902 346.91 32.6702C345.68 33.9602 345.07 35.3402 345.07 36.8102C345.07 39.1402 346.11 41.0402 348.19 42.5102C350.27 43.9802 353.09 45.2102 356.64 46.1902C360.19 47.1702 364.18 48.0902 368.59 48.9502C373 49.8102 377.6 50.7602 382.37 51.8002C387.15 52.8402 391.74 54.2202 396.15 55.9302C400.56 57.6502 404.54 59.8802 408.1 62.6402C411.65 65.4002 414.47 68.8002 416.55 72.8402C418.63 76.8802 419.67 81.8502 419.67 87.7302C419.67 98.1502 417.25 106.6 412.41 113.09C407.57 119.59 400.95 124.33 392.56 127.33C384.17 130.33 374.64 131.83 363.98 131.83H363.99Z" fill="#A11038"/>
<path d="M496.68 131.83C487.98 131.83 479.86 131.19 472.33 129.9C464.79 128.61 458.18 126.41 452.48 123.28C446.78 120.16 442.31 115.81 439.06 110.23C435.81 104.66 434.19 97.6402 434.19 89.1902V88.1802C434.19 87.7502 434.25 87.2902 434.37 86.8002H472.78C472.66 87.2902 472.6 87.7502 472.6 88.1802V89.3702C472.6 93.0502 473.46 95.8702 475.17 97.8202C476.88 99.7802 479.31 101.1 482.43 101.77C485.55 102.44 489.07 102.78 493 102.78C494.47 102.78 496.03 102.75 497.69 102.69C499.34 102.63 500.94 102.45 502.47 102.14C504 101.84 505.41 101.38 506.7 100.76C507.99 100.15 509 99.3202 509.73 98.2802C510.47 97.2402 510.83 95.9202 510.83 94.3302C510.83 92.0002 509.79 90.1702 507.71 88.8202C505.63 87.4702 502.81 86.3102 499.26 85.3302C495.7 84.3502 491.72 83.4302 487.31 82.5702C482.9 81.7102 478.3 80.7002 473.53 79.5402C468.75 78.3802 464.16 76.8702 459.75 75.0402C455.34 73.2002 451.36 70.8402 447.8 67.9602C444.24 65.0802 441.43 61.4702 439.35 57.1202C437.27 52.7702 436.23 47.5302 436.23 41.4102C436.23 34.0602 437.76 27.8102 440.82 22.6602C443.88 17.5102 448.08 13.3502 453.41 10.1602C458.74 6.98022 464.8 4.65021 471.6 3.18021C478.4 1.71021 485.54 0.970215 493.01 0.970215C500.48 0.970215 507.74 1.7402 514.42 3.2702C521.1 4.8002 527.01 7.16022 532.16 10.3502C537.31 13.5402 541.35 17.5802 544.29 22.4802C547.23 27.3802 548.76 33.2002 548.88 39.9402V42.1502H510.84V41.4102C510.84 39.2002 510.29 37.1202 509.19 35.1602C508.09 33.2002 506.34 31.6102 503.95 30.3802C501.56 29.1602 498.41 28.5402 494.49 28.5402C490.81 28.5402 487.72 28.9102 485.21 29.6402C482.7 30.3802 480.83 31.3902 479.6 32.6702C478.37 33.9602 477.76 35.3402 477.76 36.8102C477.76 39.1402 478.8 41.0402 480.88 42.5102C482.96 43.9802 485.78 45.2102 489.33 46.1902C492.88 47.1702 496.87 48.0902 501.28 48.9502C505.69 49.8102 510.28 50.7602 515.06 51.8002C519.84 52.8402 524.43 54.2202 528.84 55.9302C533.25 57.6502 537.23 59.8802 540.79 62.6402C544.34 65.4002 547.16 68.8002 549.24 72.8402C551.32 76.8802 552.36 81.8502 552.36 87.7302C552.36 98.1502 549.94 106.6 545.1 113.09C540.26 119.59 533.64 124.33 525.25 127.33C516.86 130.33 507.33 131.83 496.67 131.83H496.68Z" fill="#A11038"/>
<path d="M572.58 129.63V3.18994H613.2V129.63H572.58Z" fill="#A11038"/>
<path d="M703.25 131.83C688.92 131.83 676.66 129.38 666.49 124.48C656.32 119.58 648.54 112.26 643.15 102.52C637.76 92.78 635.06 80.74 635.06 66.41C635.06 52.08 637.75 39.88 643.15 30.2C648.54 20.52 656.32 13.23 666.49 8.32996C676.66 3.42996 688.91 0.97998 703.25 0.97998C717.59 0.97998 730.02 3.42996 740.19 8.32996C750.36 13.23 758.14 20.52 763.53 30.2C768.92 39.88 771.62 51.95 771.62 66.41C771.62 80.87 768.92 92.78 763.53 102.52C758.14 112.26 750.36 119.58 740.19 124.48C730.02 129.38 717.7 131.83 703.25 131.83ZM703.25 101.51C707.66 101.51 711.55 100.81 714.92 99.4C718.29 97.99 721.11 96 723.37 93.43C725.64 90.86 727.32 87.76 728.42 84.15C729.52 80.54 730.07 76.59 730.07 72.3V60.54C730.07 56.25 729.52 52.3 728.42 48.69C727.32 45.08 725.63 41.98 723.37 39.41C721.1 36.84 718.28 34.85 714.92 33.44C711.55 32.03 707.66 31.33 703.25 31.33C698.84 31.33 694.95 32.04 691.58 33.44C688.21 34.85 685.42 36.84 683.22 39.41C681.01 41.98 679.36 45.08 678.26 48.69C677.16 52.31 676.61 56.26 676.61 60.54V72.3C676.61 76.59 677.16 80.54 678.26 84.15C679.36 87.77 681.02 90.86 683.22 93.43C685.43 96 688.21 98 691.58 99.4C694.95 100.81 698.84 101.51 703.25 101.51Z" fill="#A11038"/>
<path d="M793.49 129.63V3.18994H828.04L867.37 48.5899C868.47 49.8199 869.94 51.59 871.78 53.92C873.62 56.25 875.48 58.6099 877.39 60.9999C879.29 63.3899 880.73 65.3199 881.71 66.7899L882.63 66.42C882.51 62.99 882.45 59.5899 882.45 56.2199V3.19995H919.39V129.64H885.02L840.73 79.0999C838.65 76.6499 836.87 74.41 835.4 72.39C833.93 70.37 832.52 68.4399 831.17 66.5999L830.25 66.9699C830.37 69.2999 830.43 71.63 830.43 73.95V129.64H793.49V129.63Z" fill="#A11038"/>
</g>
<defs>
<clipPath id="clip0_2290_4">
<rect width="920" height="316" fill="white"/>
</clipPath>
</defs>
</svg>
