<?xml version="1.0" encoding="UTF-8"?>
<svg id="Capa_1" data-name="Capa 1" xmlns="http://www.w3.org/2000/svg" viewBox="0 0 3005.25 493.05">
  <defs>
    <style>
      .cls-1 {
        fill: #a11038;
      }
    </style>
  </defs>
  <g>
    <path class="cls-1" d="M41,426.96V153.93h161.12c17.19,0,32.34,3.91,45.44,11.71,13.1,7.81,23.35,18.59,30.76,32.34,7.4,13.76,11.11,29.76,11.11,48.02s-3.77,35.12-11.31,49.01-17.86,24.67-30.95,32.34c-13.1,7.68-28.11,11.51-45.04,11.51h-73.42v88.1H41ZM128.7,274.97h44.05c9.26,0,16.2-2.38,20.83-7.14,4.63-4.76,6.94-11.77,6.94-21.03,0-6.35-.99-11.57-2.98-15.68-1.98-4.1-5.03-7.2-9.13-9.33-4.11-2.11-9.33-3.17-15.68-3.17h-44.05v56.35Z"/>
    <path class="cls-1" d="M282.28,426.96l99.61-273.03h101.99l99.61,273.03h-92.86l-11.51-38.49h-95.64l-11.51,38.49h-89.69ZM401.73,327.35h59.53l-13.1-43.65c-1.06-3.18-2.25-7.01-3.57-11.51-1.33-4.5-2.65-9.26-3.97-14.29-1.33-5.02-2.65-9.98-3.97-14.88-1.33-4.89-2.52-9.19-3.57-12.9h-3.17c-1.06,4.76-2.45,10.19-4.17,16.27-1.72,6.09-3.51,12.37-5.36,18.85-1.85,6.49-3.71,12.64-5.56,18.45l-13.1,43.65Z"/>
    <path class="cls-1" d="M739.05,431.72c-18.79,0-36.31-1.39-52.58-4.17-16.27-2.78-30.56-7.54-42.86-14.29-12.3-6.75-21.96-16.13-28.97-28.18-7.01-12.04-10.52-27.18-10.52-45.44v-2.18c0-.92.13-1.92.4-2.98h82.94c-.27,1.06-.4,2.05-.4,2.98v2.58c0,7.94,1.85,14.03,5.56,18.26,3.7,4.24,8.93,7.08,15.68,8.53,6.75,1.46,14.35,2.18,22.82,2.18,3.17,0,6.55-.06,10.12-.2,3.57-.13,7.01-.53,10.32-1.19,3.3-.66,6.35-1.65,9.13-2.98,2.78-1.32,4.96-3.11,6.55-5.36,1.59-2.24,2.38-5.09,2.38-8.53,0-5.02-2.25-8.99-6.75-11.91-4.5-2.91-10.58-5.42-18.26-7.54-7.68-2.11-16.27-4.1-25.79-5.95-9.52-1.85-19.45-4.03-29.76-6.55-10.32-2.51-20.24-5.75-29.76-9.72s-18.12-9.06-25.8-15.28c-7.68-6.21-13.76-14.02-18.25-23.41-4.5-9.39-6.75-20.7-6.75-33.93,0-15.87,3.3-29.37,9.92-40.48,6.61-11.11,15.68-20.1,27.18-26.99,11.51-6.88,24.6-11.91,39.29-15.08,14.68-3.17,30.09-4.76,46.23-4.76s31.81,1.66,46.23,4.96c14.42,3.31,27.18,8.4,38.3,15.28,11.11,6.88,19.84,15.61,26.19,26.19,6.35,10.58,9.65,23.15,9.92,37.7v4.76h-82.15v-1.59c0-4.76-1.19-9.26-3.57-13.49-2.38-4.23-6.15-7.67-11.31-10.32-5.16-2.64-11.97-3.97-20.44-3.97-7.94,0-14.62.79-20.04,2.38-5.43,1.59-9.46,3.77-12.1,6.55-2.65,2.78-3.97,5.75-3.97,8.93,0,5.03,2.24,9.13,6.75,12.3,4.5,3.17,10.58,5.82,18.25,7.94,7.67,2.12,16.27,4.11,25.8,5.95,9.52,1.85,19.45,3.91,29.76,6.15,10.32,2.25,20.24,5.23,29.76,8.93,9.52,3.71,18.12,8.53,25.8,14.49,7.67,5.95,13.75,13.29,18.25,22.02,4.5,8.73,6.75,19.45,6.75,32.14,0,22.49-5.23,40.75-15.68,54.76-10.45,14.03-24.74,24.28-42.86,30.76-18.12,6.48-38.69,9.72-61.71,9.72Z"/>
    <path class="cls-1" d="M1025.57,431.72c-18.79,0-36.31-1.39-52.58-4.17-16.27-2.78-30.56-7.54-42.86-14.29-12.3-6.75-21.96-16.13-28.97-28.18-7.01-12.04-10.52-27.18-10.52-45.44v-2.18c0-.92.13-1.92.4-2.98h82.94c-.27,1.06-.4,2.05-.4,2.98v2.58c0,7.94,1.85,14.03,5.56,18.26,3.7,4.24,8.93,7.08,15.67,8.53,6.75,1.46,14.35,2.18,22.82,2.18,3.18,0,6.55-.06,10.12-.2,3.57-.13,7.01-.53,10.32-1.19,3.3-.66,6.35-1.65,9.13-2.98,2.78-1.32,4.96-3.11,6.55-5.36,1.59-2.24,2.38-5.09,2.38-8.53,0-5.02-2.25-8.99-6.75-11.91-4.5-2.91-10.58-5.42-18.26-7.54-7.68-2.11-16.27-4.1-25.8-5.95-9.52-1.85-19.44-4.03-29.76-6.55-10.32-2.51-20.24-5.75-29.76-9.72s-18.12-9.06-25.8-15.28c-7.68-6.21-13.76-14.02-18.25-23.41-4.5-9.39-6.75-20.7-6.75-33.93,0-15.87,3.3-29.37,9.92-40.48,6.61-11.11,15.68-20.1,27.18-26.99,11.51-6.88,24.6-11.91,39.29-15.08,14.68-3.17,30.09-4.76,46.23-4.76s31.81,1.66,46.23,4.96c14.42,3.31,27.18,8.4,38.29,15.28,11.11,6.88,19.84,15.61,26.19,26.19,6.35,10.58,9.65,23.15,9.92,37.7v4.76h-82.15v-1.59c0-4.76-1.19-9.26-3.57-13.49-2.38-4.23-6.15-7.67-11.31-10.32-5.16-2.64-11.97-3.97-20.44-3.97-7.94,0-14.62.79-20.04,2.38-5.43,1.59-9.46,3.77-12.1,6.55-2.65,2.78-3.97,5.75-3.97,8.93,0,5.03,2.25,9.13,6.75,12.3,4.5,3.17,10.58,5.82,18.26,7.94,7.67,2.12,16.27,4.11,25.8,5.95,9.52,1.85,19.44,3.91,29.76,6.15,10.32,2.25,20.24,5.23,29.76,8.93,9.52,3.71,18.12,8.53,25.8,14.49,7.67,5.95,13.75,13.29,18.26,22.02,4.5,8.73,6.75,19.45,6.75,32.14,0,22.49-5.23,40.75-15.67,54.76-10.45,14.03-24.74,24.28-42.86,30.76-18.12,6.48-38.69,9.72-61.71,9.72Z"/>
    <path class="cls-1" d="M1189.46,426.96V153.93h87.7v273.03h-87.7Z"/>
    <path class="cls-1" d="M1471.61,431.72c-30.95,0-57.41-5.29-79.37-15.87-21.96-10.58-38.76-26.39-50.4-47.42-11.65-21.03-17.46-47.03-17.46-77.98s5.82-57.28,17.46-78.18c11.64-20.9,28.44-36.64,50.4-47.22,21.96-10.58,48.42-15.87,79.37-15.87s57.8,5.3,79.77,15.87c21.96,10.58,38.75,26.33,50.4,47.22,11.64,20.9,17.46,46.96,17.46,78.18s-5.82,56.95-17.46,77.98c-11.65,21.03-28.44,36.84-50.4,47.42-21.96,10.58-48.55,15.87-79.77,15.87ZM1471.61,366.24c9.52,0,17.92-1.52,25.2-4.56,7.27-3.04,13.36-7.34,18.25-12.9,4.89-5.56,8.53-12.23,10.91-20.04,2.38-7.8,3.57-16.33,3.57-25.6v-25.4c0-9.26-1.19-17.79-3.57-25.6-2.38-7.8-6.02-14.49-10.91-20.04-4.9-5.56-10.98-9.85-18.25-12.9-7.28-3.04-15.68-4.56-25.2-4.56s-17.93,1.53-25.2,4.56c-7.28,3.04-13.29,7.34-18.06,12.9-4.76,5.56-8.33,12.24-10.72,20.04-2.38,7.81-3.57,16.34-3.57,25.6v25.4c0,9.26,1.19,17.8,3.57,25.6,2.38,7.81,5.95,14.48,10.72,20.04,4.76,5.56,10.78,9.86,18.06,12.9,7.27,3.04,15.67,4.56,25.2,4.56Z"/>
    <path class="cls-1" d="M1666.46,426.96V153.93h74.61l84.92,98.02c2.38,2.65,5.56,6.49,9.52,11.51,3.97,5.03,8,10.12,12.1,15.28,4.1,5.16,7.21,9.33,9.33,12.5l1.98-.79c-.27-7.4-.4-14.74-.4-22.02v-114.49h79.77v273.03h-74.21l-95.64-109.13c-4.5-5.29-8.33-10.12-11.51-14.49s-6.22-8.53-9.13-12.5l-1.98.79c.26,5.03.4,10.06.4,15.08v120.24h-79.77Z"/>
  </g>
  <g>
    <path class="cls-1" d="M2162.19,102.44c-31.25.45-62.5.91-93.3,1.36-4.53,0-10.42,1.36-14.49-4.08-7.25-10.87-11.32-16.76,4.98-20.38,14.49-3.62,29.44-6.34,45.29-8.15,22.65-2.72,46.2-4.08,69.3-6.34,16.31-1.36,17.66-1.36,28.53-9.96,7.7,7.25,16.76,4.98,24.91,4.53,30.8-3.17,60.69-7.25,91.49-9.51,14.95-.91,30.35-.45,45.29,1.81,11.78,1.36,25.82,22.19,24.01,33.52,0,2.26-2.72,5.43-4.98,6.34-5.43,2.26-11.32,3.62-17.21,4.08-35.33.91-71.56,1.81-107.8,2.72-11.78.45-23.1,1.81-35.33,2.26-8.61,24.46-16.76,48.01-25.36,72.02-22.65,62.96-44.39,126.37-67.49,189.78-9.06,24.01-19.48,47.1-30.35,70.2-5.89,12.23-8.61,12.68-20.83,3.62-23.1-17.21-24.01-13.59-17.66-39.41,20.83-83.79,78.36-189.78,112.33-294.41-4.98,0-8.15-.45-11.32,0Z"/>
    <path class="cls-1" d="M2311.65,206.62c8.15-2.26,17.21-3.62,25.82-4.98,6.79-.91,10.87,1.81,14.04,8.15,12.23,22.65,11.32,26.27-13.59,33.06-24.91,7.25-49.82,13.13-75.19,19.48-7.7,1.81-13.59,5.43-17.21,13.59-13.59,29.89-28.08,59.33-43.48,90.59,4.53-.91,7.25-1.36,9.96-2.26,28.53-9.96,56.62-20.38,84.7-29.89,15.4-5.43,18.57-3.62,26.72,10.42,2.26,3.62,4.53,7.25,5.89,10.87,3.62,7.7,2.26,11.78-5.89,15.4-4.08,2.26-8.61,3.17-13.14,4.08-46.2,9.06-91.04,23.1-134.52,40.76q-18.12,7.25-30.8-10.42c23.55-84.7,70.2-158.53,112.78-234.17,4.53-8.61,13.13-16.31,7.7-27.63-.45-.91,0-3.17.91-4.08,8.61-5.89,16.76-12.23,25.82-17.66,4.53-2.72,10.42-2.72,15.4-4.98,33.06-13.13,66.58-24.91,101.46-32.61.91,0,1.81-.45,2.72-.91,22.65-4.53,30.35.91,34.42,24.01.91,6.34-.91,10.42-6.34,12.23-8.15,2.26-15.85,4.98-24.01,6.79-32.16,7.25-64.77,14.95-96.93,21.74-8.61,1.81-13.59,5.43-16.76,14.04-6.79,17.21-15.4,34.42-24.46,53.9,12.68-3.62,23.1-7.25,33.97-9.51Z"/>
    <path class="cls-1" d="M2521.81,141.85c22.65,10.87,23.1,12.23,14.95,35.78-13.13,38.05-26.72,75.64-39.86,113.69-1.36,4.08-2.72,8.61-4.08,13.13,13.59.45,25.82,10.42,29.44,23.1,1.36,4.98-.91,8.15-5.43,9.51s-9.51,2.26-14.95,2.26q-21.29,1.81-27.63,22.65c-4.98,18.12-9.51,36.69-14.49,56.16-6.34-2.26-12.23-4.08-18.12-6.79-6.79-2.72-6.79-9.51-6.34-15.4,1.36-12.23,3.17-24.46,4.98-37.14.45-1.81.91-4.08,1.36-8.61-15.4,3.62-28.99,6.34-42.58,9.96-3.17.91-5.44,4.98-7.25,7.7-8.15,10.87-15.4,22.19-24.01,32.61-9.06,10.87-12.68,10.87-25.82,2.26,7.25-10.87,14.49-22.19,22.19-33.97-24.91,2.72-26.27,1.81-34.42-14.49,4.53-2.26,8.15-5.44,12.68-7.25,11.78-4.08,23.55-8.15,35.78-11.78,5.89-1.36,9.96-4.53,13.59-9.96,28.99-42.58,57.98-84.7,86.96-126.82,8.61-12.68,15.85-25.82,24.46-38.5,4.53-6.79,9.51-13.13,14.04-19.02,2.72.91,4.08.91,4.53.91ZM2427.15,321.21c6.34-1.81,12.68-2.72,18.57-4.53,2.26-.91,4.98-3.17,5.89-5.43,3.62-12.23,6.79-25.36,10.42-38.05-.91-.45-1.81-.91-2.72-1.36-11.32,15.85-22.65,31.25-33.97,46.65.91.91,1.36,1.81,1.81,2.72Z"/>
    <path class="cls-1" d="M2781.79,173.56c6.79,3.62,13.59,7.25,20.38,11.32,4.53,2.72,5.43,7.25,3.17,12.23-1.36,2.26-1.81,4.08-3.17,5.89-41.67,75.19-70.2,154.9-90.59,237.79-.45.91-1.36,2.26-1.81,3.17-21.74,1.36-27.63-5.43-27.63-26.72.91-38.5,13.59-74.28,27.63-109.61,1.81-4.98,3.62-9.51,3.62-15.85-14.49,17.66-28.53,36.23-42.58,53.9-2.72,4.08-5.89,7.7-8.61,11.32-10.87,13.59-20.83,15.85-36.23,7.25-2.72-1.81-5.89-6.34-6.34-9.96-1.81-14.04-4.53-28.08-3.62-42.58,2.26-35.33,5.89-70.66,9.06-105.99.45-1.81.45-3.62-2.26-6.34-1.36,3.62-3.62,7.25-5.43,11.32-29.44,64.77-57.52,130.9-81.98,198.38-1.81,5.43-4.08,11.32-6.34,16.76-6.34,15.4-6.34,15.85-24.91,9.06.91-4.98,1.36-10.42,3.17-15.4,14.95-57.98,36.69-114.14,59.79-169.85,16.31-38.5,32.61-76.55,48.92-115.04,4.53-10.87,8.15-22.19,12.68-33.06,4.08-10.42,7.25-11.32,16.76-8.15,21.74,7.25,23.55,9.96,22.65,33.06-2.72,59.79-5.44,120.03-8.15,179.81,0,1.81.45,3.62.91,6.34,40.31-46.65,80.17-91.95,120.93-139.05Z"/>
    <path class="cls-1" d="M2954.36,170.84c-43.48,13.59-79.72,37.14-108.7,73.37,4.08,2.72,6.79,4.98,9.51,6.34,25.36,14.49,42.12,36.69,55.26,62.5,10.87,22.19,7.25,42.12-7.7,60.69-11.78,14.95-27.18,25.82-44.84,33.52-21.74,9.51-43.93,17.21-67.94,16.76-12.68,0-22.65-4.53-30.35-14.04-5.89-7.25-11.32-14.95-16.31-22.19-2.72-3.62-5.43-7.25-1.81-11.32,3.62-4.08,7.25-4.08,12.23-2.26,7.25,2.26,15.4,3.17,23.1,2.26,27.63-2.72,53.45-10.42,76.55-25.82,11.78-7.7,21.74-17.21,27.18-30.8,5.44-12.68,3.62-19.02-7.7-27.18-4.53-3.17-9.06-6.79-13.59-9.06-18.12-9.51-29.89-24.46-40.31-41.22-6.79-11.78-7.25-23.55,0-33.97,7.25-9.96,15.4-19.93,24.91-27.63,24.91-20.83,52.54-36.23,84.25-43.48,5.43-1.36,10.87-1.81,16.31-1.81,8.61-.45,15.4,3.62,19.93,10.42,3.17,4.98,5.89,9.51,8.61,14.49,5.89,11.32,4.53,14.04-9.06,18.12-2.72-2.26-5.89-4.98-9.51-7.7Z"/>
  </g>
</svg>