<svg width="1135" height="422" viewBox="0 0 1135 422" fill="none" xmlns="http://www.w3.org/2000/svg">
<path d="M41.3666 179V24.3722H132.615C142.354 24.3722 150.895 26.6197 158.236 31.1147C165.728 35.4598 171.572 41.5281 175.767 49.3194C179.962 57.1107 182.06 66.1756 182.06 76.5141C182.06 87.1523 179.887 96.4419 175.542 104.383C171.347 112.174 165.503 118.243 158.012 122.588C150.67 126.933 142.204 129.106 132.615 129.106H91.0363V179H41.3666ZM91.0363 92.9209H115.983C121.228 92.9209 125.123 91.5724 127.67 88.8754C130.367 86.1784 131.716 82.2078 131.716 76.9636C131.716 73.3676 131.117 70.4459 129.918 68.1984C128.869 65.8011 127.146 64.0031 124.749 62.8044C122.501 61.6057 119.579 61.0064 115.983 61.0064H91.0363V92.9209ZM177.986 179L234.399 24.3722H292.159L348.571 179H295.98L289.462 157.199H235.298L228.78 179H177.986ZM245.636 122.588H279.348L271.932 97.8653C271.332 96.0673 270.658 93.8948 269.909 91.3476C269.16 88.8004 268.411 86.1034 267.661 83.2566C266.912 80.4098 266.163 77.6379 265.414 74.9409C264.665 72.094 263.991 69.6218 263.391 67.5241H261.593C260.994 70.2211 260.17 73.2927 259.121 76.7389C258.222 80.185 257.248 83.781 256.199 87.5269C255.15 91.1229 254.102 94.569 253.053 97.8653L245.636 122.588ZM436.745 181.697C426.107 181.697 416.143 180.873 406.854 179.225C397.714 177.726 389.623 175.104 382.581 171.359C375.688 167.463 370.219 162.144 366.174 155.401C362.278 148.509 360.33 139.894 360.33 129.555C360.33 129.255 360.33 128.881 360.33 128.431C360.33 127.832 360.405 127.233 360.555 126.633H407.528C407.378 127.233 407.303 127.832 407.303 128.431C407.303 128.881 407.303 129.33 407.303 129.78C407.303 134.275 408.352 137.721 410.45 140.118C412.547 142.516 415.469 144.164 419.215 145.063C423.11 145.812 427.456 146.187 432.25 146.187C434.048 146.187 435.921 146.187 437.869 146.187C439.967 146.037 441.914 145.812 443.713 145.512C445.66 145.063 447.383 144.463 448.882 143.714C450.53 142.965 451.803 141.991 452.702 140.793C453.601 139.444 454.051 137.796 454.051 135.848C454.051 133.001 452.777 130.754 450.23 129.106C447.683 127.457 444.237 126.034 439.892 124.835C435.547 123.637 430.677 122.513 425.283 121.464C419.889 120.415 414.27 119.217 408.427 117.868C402.583 116.37 396.965 114.497 391.571 112.249C386.177 110.002 381.307 107.155 376.962 103.709C372.617 100.113 369.171 95.6928 366.623 90.4486C364.076 85.0546 362.803 78.6118 362.803 71.1201C362.803 62.1301 364.676 54.4886 368.421 48.1957C372.167 41.9027 377.261 36.8083 383.704 32.9127C390.297 29.017 397.714 26.1702 405.955 24.3722C414.345 22.5742 423.11 21.6752 432.25 21.6752C441.54 21.6752 450.23 22.6491 458.321 24.5969C466.562 26.3949 473.829 29.2418 480.122 33.1374C486.415 37.0331 491.359 41.9776 494.955 47.9709C498.551 53.9642 500.424 61.0813 500.574 69.3221V72.0191H454.051V71.1201C454.051 68.4231 453.377 65.876 452.028 63.4786C450.68 61.0813 448.507 59.1335 445.51 57.6351C442.664 56.1368 438.843 55.3876 434.048 55.3876C429.553 55.3876 425.733 55.8371 422.586 56.7361C419.589 57.6351 417.342 58.9087 415.844 60.5569C414.345 62.0552 413.596 63.7034 413.596 65.5014C413.596 68.3482 414.87 70.6706 417.417 72.4686C419.964 74.2666 423.41 75.765 427.755 76.9636C432.1 78.1623 436.97 79.286 442.364 80.3349C447.758 81.3837 453.377 82.5824 459.22 83.9309C465.064 85.1295 470.682 86.7777 476.076 88.8754C481.47 90.973 486.34 93.7449 490.685 97.1911C495.03 100.487 498.477 104.608 501.024 109.552C503.571 114.497 504.844 120.565 504.844 127.757C504.844 140.493 501.848 150.831 495.854 158.773C490.011 166.714 481.92 172.557 471.581 176.303C461.393 179.899 449.781 181.697 436.745 181.697ZM598.943 181.697C588.304 181.697 578.34 180.873 569.051 179.225C559.911 177.726 551.82 175.104 544.778 171.359C537.886 167.463 532.417 162.144 528.371 155.401C524.475 148.509 522.528 139.894 522.528 129.555C522.528 129.255 522.528 128.881 522.528 128.431C522.528 127.832 522.603 127.233 522.752 126.633H569.725C569.575 127.233 569.5 127.832 569.5 128.431C569.5 128.881 569.5 129.33 569.5 129.78C569.5 134.275 570.549 137.721 572.647 140.118C574.744 142.516 577.666 144.164 581.412 145.063C585.308 145.812 589.653 146.187 594.448 146.187C596.246 146.187 598.118 146.187 600.066 146.187C602.164 146.037 604.112 145.812 605.91 145.512C607.858 145.063 609.581 144.463 611.079 143.714C612.727 142.965 614.001 141.991 614.9 140.793C615.799 139.444 616.248 137.796 616.248 135.848C616.248 133.001 614.975 130.754 612.428 129.106C609.88 127.457 606.434 126.034 602.089 124.835C597.744 123.637 592.874 122.513 587.48 121.464C582.086 120.415 576.468 119.217 570.624 117.868C564.781 116.37 559.162 114.497 553.768 112.249C548.374 110.002 543.504 107.155 539.159 103.709C534.814 100.113 531.368 95.6928 528.821 90.4486C526.273 85.0546 525 78.6118 525 71.1201C525 62.1301 526.873 54.4886 530.619 48.1957C534.364 41.9027 539.459 36.8083 545.902 32.9127C552.494 29.017 559.911 26.1702 568.152 24.3722C576.542 22.5742 585.308 21.6752 594.448 21.6752C603.737 21.6752 612.428 22.6491 620.519 24.5969C628.759 26.3949 636.026 29.2418 642.319 33.1374C648.612 37.0331 653.557 41.9776 657.153 47.9709C660.749 53.9642 662.622 61.0813 662.771 69.3221V72.0191H616.248V71.1201C616.248 68.4231 615.574 65.876 614.226 63.4786C612.877 61.0813 610.704 59.1335 607.708 57.6351C604.861 56.1368 601.04 55.3876 596.246 55.3876C591.751 55.3876 587.93 55.8371 584.783 56.7361C581.787 57.6351 579.539 58.9087 578.041 60.5569C576.542 62.0552 575.793 63.7034 575.793 65.5014C575.793 68.3482 577.067 70.6706 579.614 72.4686C582.161 74.2666 585.607 75.765 589.953 76.9636C594.298 78.1623 599.167 79.286 604.561 80.3349C609.955 81.3837 615.574 82.5824 621.418 83.9309C627.261 85.1295 632.88 86.7777 638.274 88.8754C643.668 90.973 648.537 93.7449 652.882 97.1911C657.228 100.487 660.674 104.608 663.221 109.552C665.768 114.497 667.042 120.565 667.042 127.757C667.042 140.493 664.045 150.831 658.052 158.773C652.208 166.714 644.117 172.557 633.779 176.303C623.59 179.899 611.978 181.697 598.943 181.697ZM691.692 179V24.3722H741.362V179H691.692ZM851.521 181.697C833.99 181.697 819.007 178.7 806.571 172.707C794.135 166.714 784.62 157.799 778.028 145.962C771.435 133.975 768.139 119.217 768.139 101.686C768.139 84.0058 771.435 69.2472 778.028 57.4104C784.62 45.5736 794.135 36.6585 806.571 30.6652C819.007 24.6718 833.99 21.6752 851.521 21.6752C869.201 21.6752 884.259 24.6718 896.696 30.6652C909.132 36.6585 918.646 45.5736 925.239 57.4104C931.831 69.2472 935.128 84.0058 935.128 101.686C935.128 119.217 931.831 133.975 925.239 145.962C918.646 157.799 909.132 166.714 896.696 172.707C884.259 178.7 869.201 181.697 851.521 181.697ZM851.521 144.613C856.915 144.613 861.635 143.789 865.68 142.141C869.875 140.343 873.322 137.871 876.019 134.724C878.865 131.578 880.963 127.832 882.312 123.487C883.66 118.992 884.334 114.122 884.334 108.878V94.4941C884.334 89.2499 883.66 84.4553 882.312 80.1101C880.963 75.6151 878.865 71.7944 876.019 68.6479C873.322 65.5014 869.875 63.1041 865.68 61.4559C861.635 59.6579 856.915 58.7589 851.521 58.7589C846.127 58.7589 841.332 59.6579 837.137 61.4559C833.091 63.1041 829.72 65.5014 827.023 68.6479C824.326 71.7944 822.303 75.6151 820.955 80.1101C819.606 84.4553 818.932 89.2499 818.932 94.4941V108.878C818.932 114.122 819.606 118.992 820.955 123.487C822.303 127.832 824.326 131.578 827.023 134.724C829.72 137.871 833.091 140.343 837.137 142.141C841.332 143.789 846.127 144.613 851.521 144.613ZM961.875 179V24.3722H1004.13L1052.22 79.8854C1053.57 81.3837 1055.37 83.5563 1057.62 86.4031C1059.87 89.2499 1062.11 92.1717 1064.36 95.1683C1066.76 98.0152 1068.56 100.338 1069.75 102.136L1070.88 101.686C1070.73 97.4908 1070.65 93.3704 1070.65 89.3249C1070.65 85.1295 1070.65 81.983 1070.65 79.8854V24.3722H1115.83V179H1073.8L1019.64 117.194C1017.09 114.197 1014.92 111.5 1013.12 109.103C1011.32 106.556 1009.6 104.158 1007.95 101.911L1006.82 102.36C1006.97 105.207 1007.05 108.054 1007.05 110.901C1007.05 113.748 1007.05 115.845 1007.05 117.194V179H961.875Z" fill="#A21038"/>
<path d="M27.4491 384.5C32.3844 382.526 36.9084 380.716 41.0212 379.071C45.2984 377.426 49.4112 375.699 53.3594 373.889C55.3335 373.067 56.9786 372.491 58.2947 372.162C59.7753 371.833 61.0913 371.833 62.2429 372.162C63.559 372.326 64.7928 372.902 65.9444 373.889C67.2605 374.712 68.741 375.863 70.3861 377.344C71.7022 378.66 72.936 379.976 74.0876 381.292C75.4037 382.444 76.6375 383.677 77.7891 384.993C81.4083 389.435 80.9147 392.643 76.3085 394.617C75.6504 395.111 74.9101 395.44 74.0876 395.604C73.2651 395.769 72.4425 396.016 71.62 396.345C62.2429 397.825 53.1126 399.964 44.2291 402.76C35.5101 405.557 26.9556 408.765 18.5656 412.384C15.6045 413.7 12.9723 414.112 10.6692 413.618C8.36604 413.125 5.98066 411.726 3.51301 409.423C2.36145 408.272 1.5389 407.202 1.04537 406.215C0.387332 405.228 0.222822 404.077 0.55184 402.76C0.88086 400.786 1.04537 398.812 1.04537 396.838C1.04537 394.864 1.20988 392.89 1.5389 390.916C3.84203 379.071 7.13222 367.802 11.4095 357.109C15.6867 346.251 20.2107 335.476 24.9815 324.783C33.536 305.371 42.6663 286.452 52.3723 268.027C62.2429 249.602 72.278 231.177 82.4776 212.752C82.8066 212.094 83.0534 211.518 83.2179 211.025C83.5469 210.531 83.8759 210.038 84.2049 209.544C85.85 207.076 87.9887 206.994 90.6208 209.297C92.4304 211.107 93.8287 212.999 94.8158 214.973C95.9674 216.782 96.1319 219.003 95.3093 221.636C94.1578 224.268 93.1707 226.9 92.3482 229.532C91.6901 232.164 90.8676 234.714 89.8805 237.182C84.6162 249.52 79.1874 261.858 73.5941 274.196C68.1653 286.37 62.8187 298.708 57.5544 311.211C52.7836 321.904 48.1773 332.597 43.7356 343.29C39.4583 353.819 35.1811 364.43 30.9038 375.123C30.2458 376.439 29.67 377.755 29.1765 379.071C28.8475 380.387 28.2717 382.197 27.4491 384.5ZM189.215 279.132C188.228 283.573 187.323 288.097 186.5 292.704C185.842 297.145 184.773 301.505 183.292 305.782C174.08 334.078 159.109 358.096 138.381 377.837C135.256 380.798 131.965 383.513 128.511 385.981C125.056 388.448 121.272 390.34 117.16 391.656C114.856 392.479 112.636 392.89 110.497 392.89C108.358 392.89 106.302 392.232 104.328 390.916C102.025 389.6 99.7215 388.366 97.4184 387.214C95.2798 385.898 93.2234 384.335 91.2493 382.526C87.4656 379.236 85.0802 375.287 84.0931 370.681C83.1061 365.91 82.777 360.975 83.1061 355.875C83.4351 349.953 84.3399 344.195 85.8205 338.602C87.3011 333.008 89.1929 327.58 91.4961 322.315C96.7604 309.977 102.765 298.379 109.51 287.522C116.419 276.499 124.809 266.547 134.68 257.663C135.831 256.512 136.818 255.278 137.641 253.962C138.628 252.646 139.615 251.329 140.602 250.013C142.412 248.204 144.221 246.312 146.031 244.338C147.841 242.364 149.732 240.554 151.707 238.909C156.477 234.961 161.413 234.714 166.512 238.169C173.257 242.939 178.686 248.533 182.799 254.949C187.076 261.365 189.215 269.426 189.215 279.132ZM168.487 253.221C159.768 260.624 152.94 267.863 148.005 274.937C143.07 281.846 139.286 288.673 136.654 295.418C134.186 302.163 132.541 308.826 131.719 315.406C131.061 321.822 130.649 328.238 130.485 334.654C130.485 337.45 129.498 339.013 127.524 339.342C125.55 339.671 123.411 339.095 121.108 337.615C119.627 336.628 118.147 335.641 116.666 334.654C115.35 333.502 113.952 332.35 112.471 331.199C108.194 340.082 105.315 348.637 103.834 356.862C102.354 364.923 102.271 372.162 103.588 378.578C105.397 377.755 107.207 377.097 109.016 376.603C110.826 375.945 112.553 375.041 114.198 373.889C116.666 372.244 119.051 370.599 121.355 368.954C123.658 367.144 125.796 365.252 127.77 363.278C138.628 352.421 147.841 340.576 155.408 327.744C162.975 314.912 168.404 300.518 171.694 284.56C172.682 279.625 173.093 274.608 172.928 269.508C172.764 264.408 171.283 258.979 168.487 253.221ZM218.435 239.156C221.067 239.978 223.206 240.719 224.851 241.377C226.661 242.035 227.977 242.939 228.799 244.091C229.786 245.078 230.362 246.394 230.527 248.039C230.856 249.52 230.938 251.576 230.773 254.208C230.444 261.94 230.033 269.59 229.539 277.157C229.046 284.56 228.552 292.046 228.059 299.613C227.73 305.371 227.319 311.293 226.825 317.38C226.496 323.302 226.085 329.636 225.591 336.381C227.401 334.571 228.552 333.337 229.046 332.679C239.41 315.077 250.432 298.132 262.112 281.846C273.793 265.395 286.048 249.191 298.88 233.233C301.841 229.45 304.638 225.501 307.27 221.389C309.902 217.111 312.617 212.916 315.413 208.804C316.071 207.817 316.73 206.83 317.388 205.843C318.046 204.691 318.786 203.704 319.608 202.881C321.418 200.907 323.145 199.838 324.79 199.673C326.6 199.509 328.656 200.085 330.96 201.401C332.769 202.552 334.497 203.622 336.142 204.609C337.787 205.596 339.514 206.747 341.324 208.063C345.601 211.189 346.506 215.055 344.038 219.661C343.216 221.306 342.228 222.787 341.077 224.103C340.09 225.419 338.938 226.653 337.622 227.805C314.92 250.342 294.027 274.032 274.944 298.873C255.861 323.714 238.999 350.364 224.357 378.824C223.535 380.469 222.795 381.786 222.137 382.773C221.643 383.595 221.067 384.171 220.409 384.5C219.751 384.664 218.929 384.664 217.942 384.5C216.954 384.171 215.638 383.76 213.993 383.266C211.197 382.279 208.976 381.539 207.331 381.045C205.686 380.387 204.452 379.565 203.629 378.578C202.971 377.591 202.56 376.274 202.395 374.629C202.231 372.984 202.149 370.681 202.149 367.72C202.478 359.165 202.889 350.693 203.382 342.303C203.711 333.749 204.37 325.194 205.357 316.64C206.673 305.124 208.153 293.691 209.798 282.34C211.608 270.824 213.418 259.308 215.227 247.793C215.556 245.654 216.05 243.762 216.708 242.117C216.872 241.294 217.448 240.307 218.435 239.156ZM340.944 277.898C344.399 276.911 347.607 276.006 350.568 275.183C353.529 274.196 356.49 273.374 359.451 272.716C361.754 272.058 364.057 271.564 366.361 271.235C368.828 270.742 371.214 270.33 373.517 270.001C376.971 269.508 379.521 270.988 381.166 274.443C382.812 277.569 383.963 280.119 384.621 282.093C385.444 283.902 385.608 285.465 385.115 286.781C384.621 287.933 383.47 288.92 381.66 289.742C379.85 290.565 377.218 291.47 373.764 292.457C366.854 294.431 360.027 296.241 353.282 297.886C346.537 299.531 339.71 301.258 332.801 303.068C330.662 303.561 328.77 304.384 327.125 305.535C325.645 306.522 324.411 308.168 323.424 310.471C319.64 318.696 315.774 326.839 311.826 334.9C308.042 342.961 304.012 351.269 299.734 359.824C301.05 359.494 302.037 359.33 302.695 359.33C303.518 359.165 304.341 358.919 305.163 358.59C313.06 355.793 320.791 353.079 328.359 350.446C335.926 347.65 343.576 344.935 351.308 342.303C353.447 341.645 355.174 341.234 356.49 341.069C357.806 340.74 358.958 340.823 359.945 341.316C361.096 341.645 362.083 342.385 362.906 343.537C363.728 344.524 364.716 346.005 365.867 347.979C366.525 348.966 367.101 349.953 367.594 350.94C368.252 351.927 368.746 352.914 369.075 353.901C370.062 356.04 370.309 357.767 369.815 359.083C369.486 360.235 368.17 361.304 365.867 362.291C364.716 362.949 363.564 363.443 362.412 363.772C361.261 363.936 360.027 364.183 358.711 364.512C346.044 366.98 333.623 370.105 321.45 373.889C309.276 377.673 297.267 381.95 285.422 386.721C282.954 387.708 281.062 388.448 279.746 388.942C278.266 389.271 277.032 389.271 276.045 388.942C274.893 388.613 273.824 387.872 272.837 386.721C271.685 385.405 270.287 383.513 268.642 381.045C271.768 369.53 275.716 358.343 280.487 347.485C285.093 336.628 290.11 325.935 295.539 315.406C300.968 304.877 306.644 294.513 312.566 284.314C318.488 274.114 324.328 263.832 330.086 253.468C330.744 252.317 331.402 251.165 332.06 250.013C332.883 248.862 333.541 247.71 334.035 246.559C334.693 245.243 335.022 243.927 335.022 242.61C335.186 241.294 334.939 239.896 334.281 238.415C333.952 237.593 334.117 236.853 334.775 236.195C337.078 234.549 339.381 232.904 341.684 231.259C343.987 229.614 346.373 228.051 348.84 226.571C350.156 225.748 351.555 225.255 353.035 225.09C354.516 224.926 355.914 224.514 357.23 223.856C366.278 220.237 375.326 216.947 384.374 213.986C393.587 210.86 402.964 208.228 412.506 206.089C412.835 206.089 413.328 205.925 413.986 205.596C420.238 204.28 424.597 204.609 427.065 206.583C429.697 208.392 431.589 212.423 432.74 218.674C433.234 222.129 432.082 224.35 429.286 225.337C426.982 225.995 424.762 226.653 422.623 227.311C420.649 227.969 418.51 228.545 416.207 229.038C407.324 231.013 398.522 233.069 389.803 235.208C381.084 237.182 372.283 239.074 363.399 240.883C361.096 241.377 359.204 242.199 357.724 243.351C356.243 244.502 355.092 246.23 354.269 248.533C352.46 253.304 350.403 258.074 348.1 262.845C345.797 267.616 343.412 272.633 340.944 277.898Z" fill="#A21038"/>
</svg>
