<svg width="1135" height="422" viewBox="0 0 1135 422" fill="none" xmlns="http://www.w3.org/2000/svg">
<path d="M41.5203 179V24.3722H132.769C142.508 24.3722 151.048 26.6197 158.39 31.1147C165.882 35.4598 171.725 41.5281 175.921 49.3194C180.116 57.1107 182.214 66.1756 182.214 76.5141C182.214 87.1523 180.041 96.4419 175.696 104.383C171.501 112.174 165.657 118.243 158.165 122.588C150.824 126.933 142.358 129.106 132.769 129.106H91.19V179H41.5203ZM91.19 92.9209H116.137C121.381 92.9209 125.277 91.5724 127.824 88.8754C130.521 86.1784 131.87 82.2078 131.87 76.9636C131.87 73.3676 131.27 70.4459 130.072 68.1984C129.023 65.8011 127.3 64.0031 124.902 62.8044C122.655 61.6057 119.733 61.0064 116.137 61.0064H91.19V92.9209ZM178.14 179L234.552 24.3722H292.313L348.725 179H296.134L289.616 157.199H235.451L228.933 179H178.14ZM245.79 122.588H279.502L272.085 97.8653C271.486 96.0673 270.812 93.8948 270.063 91.3476C269.313 88.8004 268.564 86.1034 267.815 83.2566C267.066 80.4098 266.317 77.6379 265.568 74.9409C264.818 72.094 264.144 69.6218 263.545 67.5241H261.747C261.148 70.2211 260.324 73.2927 259.275 76.7389C258.376 80.185 257.402 83.781 256.353 87.5269C255.304 91.1229 254.255 94.569 253.206 97.8653L245.79 122.588ZM436.899 181.697C426.261 181.697 416.297 180.873 407.007 179.225C397.867 177.726 389.776 175.104 382.734 171.359C375.842 167.463 370.373 162.144 366.328 155.401C362.432 148.509 360.484 139.894 360.484 129.555C360.484 129.255 360.484 128.881 360.484 128.431C360.484 127.832 360.559 127.233 360.709 126.633H407.681C407.532 127.233 407.457 127.832 407.457 128.431C407.457 128.881 407.457 129.33 407.457 129.78C407.457 134.275 408.506 137.721 410.603 140.118C412.701 142.516 415.623 144.164 419.368 145.063C423.264 145.812 427.609 146.187 432.404 146.187C434.202 146.187 436.075 146.187 438.023 146.187C440.12 146.037 442.068 145.812 443.866 145.512C445.814 145.063 447.537 144.463 449.035 143.714C450.684 142.965 451.957 141.991 452.856 140.793C453.755 139.444 454.205 137.796 454.205 135.848C454.205 133.001 452.931 130.754 450.384 129.106C447.837 127.457 444.391 126.034 440.045 124.835C435.7 123.637 430.831 122.513 425.437 121.464C420.043 120.415 414.424 119.217 408.58 117.868C402.737 116.37 397.118 114.497 391.724 112.249C386.33 110.002 381.461 107.155 377.116 103.709C372.77 100.113 369.324 95.6928 366.777 90.4486C364.23 85.0546 362.956 78.6118 362.956 71.1201C362.956 62.1301 364.829 54.4886 368.575 48.1957C372.321 41.9027 377.415 36.8083 383.858 32.9127C390.451 29.017 397.867 26.1702 406.108 24.3722C414.499 22.5742 423.264 21.6752 432.404 21.6752C441.694 21.6752 450.384 22.6491 458.475 24.5969C466.716 26.3949 473.983 29.2418 480.276 33.1374C486.569 37.0331 491.513 41.9776 495.109 47.9709C498.705 53.9642 500.578 61.0813 500.728 69.3221V72.0191H454.205V71.1201C454.205 68.4231 453.53 65.876 452.182 63.4786C450.833 61.0813 448.661 59.1335 445.664 57.6351C442.817 56.1368 438.997 55.3876 434.202 55.3876C429.707 55.3876 425.886 55.8371 422.74 56.7361C419.743 57.6351 417.496 58.9087 415.997 60.5569C414.499 62.0552 413.75 63.7034 413.75 65.5014C413.75 68.3482 415.023 70.6706 417.57 72.4686C420.118 74.2666 423.564 75.765 427.909 76.9636C432.254 78.1623 437.124 79.286 442.518 80.3349C447.912 81.3837 453.53 82.5824 459.374 83.9309C465.217 85.1295 470.836 86.7777 476.23 88.8754C481.624 90.973 486.494 93.7449 490.839 97.1911C495.184 100.487 498.63 104.608 501.177 109.552C503.725 114.497 504.998 120.565 504.998 127.757C504.998 140.493 502.001 150.831 496.008 158.773C490.165 166.714 482.074 172.557 471.735 176.303C461.546 179.899 449.934 181.697 436.899 181.697ZM599.096 181.697C588.458 181.697 578.494 180.873 569.205 179.225C560.065 177.726 551.974 175.104 544.932 171.359C538.039 167.463 532.57 162.144 528.525 155.401C524.629 148.509 522.681 139.894 522.681 129.555C522.681 129.255 522.681 128.881 522.681 128.431C522.681 127.832 522.756 127.233 522.906 126.633H569.879C569.729 127.233 569.654 127.832 569.654 128.431C569.654 128.881 569.654 129.33 569.654 129.78C569.654 134.275 570.703 137.721 572.801 140.118C574.898 142.516 577.82 144.164 581.566 145.063C585.461 145.812 589.807 146.187 594.601 146.187C596.399 146.187 598.272 146.187 600.22 146.187C602.318 146.037 604.265 145.812 606.063 145.512C608.011 145.063 609.734 144.463 611.233 143.714C612.881 142.965 614.154 141.991 615.053 140.793C615.952 139.444 616.402 137.796 616.402 135.848C616.402 133.001 615.128 130.754 612.581 129.106C610.034 127.457 606.588 126.034 602.243 124.835C597.898 123.637 593.028 122.513 587.634 121.464C582.24 120.415 576.621 119.217 570.778 117.868C564.934 116.37 559.316 114.497 553.922 112.249C548.528 110.002 543.658 107.155 539.313 103.709C534.968 100.113 531.521 95.6928 528.974 90.4486C526.427 85.0546 525.154 78.6118 525.154 71.1201C525.154 62.1301 527.026 54.4886 530.772 48.1957C534.518 41.9027 539.612 36.8083 546.055 32.9127C552.648 29.017 560.065 26.1702 568.306 24.3722C576.696 22.5742 585.461 21.6752 594.601 21.6752C603.891 21.6752 612.581 22.6491 620.672 24.5969C628.913 26.3949 636.18 29.2418 642.473 33.1374C648.766 37.0331 653.71 41.9776 657.306 47.9709C660.902 53.9642 662.775 61.0813 662.925 69.3221V72.0191H616.402V71.1201C616.402 68.4231 615.728 65.876 614.379 63.4786C613.031 61.0813 610.858 59.1335 607.861 57.6351C605.015 56.1368 601.194 55.3876 596.399 55.3876C591.904 55.3876 588.084 55.8371 584.937 56.7361C581.94 57.6351 579.693 58.9087 578.195 60.5569C576.696 62.0552 575.947 63.7034 575.947 65.5014C575.947 68.3482 577.221 70.6706 579.768 72.4686C582.315 74.2666 585.761 75.765 590.106 76.9636C594.451 78.1623 599.321 79.286 604.715 80.3349C610.109 81.3837 615.728 82.5824 621.571 83.9309C627.415 85.1295 633.033 86.7777 638.427 88.8754C643.821 90.973 648.691 93.7449 653.036 97.1911C657.381 100.487 660.827 104.608 663.375 109.552C665.922 114.497 667.195 120.565 667.195 127.757C667.195 140.493 664.199 150.831 658.205 158.773C652.362 166.714 644.271 172.557 633.932 176.303C623.744 179.899 612.132 181.697 599.096 181.697ZM691.846 179V24.3722H741.516V179H691.846ZM851.675 181.697C834.144 181.697 819.161 178.7 806.725 172.707C794.288 166.714 784.774 157.799 778.181 145.962C771.589 133.975 768.292 119.217 768.292 101.686C768.292 84.0058 771.589 69.2472 778.181 57.4104C784.774 45.5736 794.288 36.6585 806.725 30.6652C819.161 24.6718 834.144 21.6752 851.675 21.6752C869.355 21.6752 884.413 24.6718 896.849 30.6652C909.285 36.6585 918.8 45.5736 925.392 57.4104C931.985 69.2472 935.281 84.0058 935.281 101.686C935.281 119.217 931.985 133.975 925.392 145.962C918.8 157.799 909.285 166.714 896.849 172.707C884.413 178.7 869.355 181.697 851.675 181.697ZM851.675 144.613C857.069 144.613 861.788 143.789 865.834 142.141C870.029 140.343 873.475 137.871 876.172 134.724C879.019 131.578 881.117 127.832 882.465 123.487C883.814 118.992 884.488 114.122 884.488 108.878V94.4941C884.488 89.2499 883.814 84.4553 882.465 80.1101C881.117 75.6151 879.019 71.7944 876.172 68.6479C873.475 65.5014 870.029 63.1041 865.834 61.4559C861.788 59.6579 857.069 58.7589 851.675 58.7589C846.281 58.7589 841.486 59.6579 837.291 61.4559C833.245 63.1041 829.874 65.5014 827.177 68.6479C824.48 71.7944 822.457 75.6151 821.109 80.1101C819.76 84.4553 819.086 89.2499 819.086 94.4941V108.878C819.086 114.122 819.76 118.992 821.109 123.487C822.457 127.832 824.48 131.578 827.177 134.724C829.874 137.871 833.245 140.343 837.291 142.141C841.486 143.789 846.281 144.613 851.675 144.613ZM962.028 179V24.3722H1004.28L1052.38 79.8854C1053.73 81.3837 1055.52 83.5563 1057.77 86.4031C1060.02 89.2499 1062.27 92.1717 1064.51 95.1683C1066.91 98.0152 1068.71 100.338 1069.91 102.136L1071.03 101.686C1070.88 97.4908 1070.81 93.3704 1070.81 89.3249C1070.81 85.1295 1070.81 81.983 1070.81 79.8854V24.3722H1115.98V179H1073.95L1019.79 117.194C1017.24 114.197 1015.07 111.5 1013.27 109.103C1011.47 106.556 1009.75 104.158 1008.1 101.911L1006.98 102.36C1007.13 105.207 1007.2 108.054 1007.2 110.901C1007.2 113.748 1007.2 115.845 1007.2 117.194V179H962.028Z" fill="#FAFAFA"/>
<path d="M27.6033 384.5C32.5386 382.526 37.0626 380.716 41.1754 379.071C45.4526 377.426 49.5653 375.699 53.5136 373.889C55.4877 373.067 57.1328 372.491 58.4489 372.162C59.9294 371.833 61.2455 371.833 62.3971 372.162C63.7132 372.326 64.947 372.902 66.0986 373.889C67.4146 374.712 68.8952 375.863 70.5403 377.344C71.8564 378.66 73.0902 379.976 74.2418 381.292C75.5578 382.444 76.7917 383.677 77.9432 384.993C81.5624 389.435 81.0689 392.643 76.4627 394.617C75.8046 395.111 75.0643 395.44 74.2418 395.604C73.4192 395.769 72.5967 396.016 71.7741 396.345C62.3971 397.825 53.2668 399.964 44.3833 402.76C35.6643 405.557 27.1098 408.765 18.7198 412.384C15.7586 413.7 13.1265 414.112 10.8234 413.618C8.52022 413.125 6.13483 411.726 3.66719 409.423C2.51562 408.272 1.69307 407.202 1.19954 406.215C0.541507 405.228 0.376997 404.077 0.706015 402.76C1.03503 400.786 1.19954 398.812 1.19954 396.838C1.19954 394.864 1.36405 392.89 1.69307 390.916C3.99621 379.071 7.2864 367.802 11.5636 357.109C15.8409 346.251 20.3649 335.476 25.1357 324.783C33.6902 305.371 42.8205 286.452 52.5265 268.027C62.3971 249.602 72.4322 231.177 82.6318 212.752C82.9608 212.094 83.2075 211.518 83.3721 211.025C83.7011 210.531 84.0301 210.038 84.3591 209.544C86.0042 207.076 88.1428 206.994 90.775 209.297C92.5846 211.107 93.9829 212.999 94.97 214.973C96.1215 216.782 96.2861 219.003 95.4635 221.636C94.3119 224.268 93.3249 226.9 92.5023 229.532C91.8443 232.164 91.0217 234.714 90.0347 237.182C84.7704 249.52 79.3416 261.858 73.7482 274.196C68.3194 286.37 62.9729 298.708 57.7086 311.211C52.9378 321.904 48.3315 332.597 43.8898 343.29C39.6125 353.819 35.3353 364.43 31.058 375.123C30.4 376.439 29.8242 377.755 29.3307 379.071C29.0017 380.387 28.4259 382.197 27.6033 384.5ZM189.369 279.132C188.382 283.573 187.477 288.097 186.654 292.704C185.996 297.145 184.927 301.505 183.447 305.782C174.234 334.078 159.264 358.096 138.535 377.837C135.41 380.798 132.12 383.513 128.665 385.981C125.21 388.448 121.426 390.34 117.314 391.656C115.011 392.479 112.79 392.89 110.651 392.89C108.512 392.89 106.456 392.232 104.482 390.916C102.179 389.6 99.8757 388.366 97.5726 387.214C95.4339 385.898 93.3776 384.335 91.4035 382.526C87.6197 379.236 85.2344 375.287 84.2473 370.681C83.2602 365.91 82.9312 360.975 83.2602 355.875C83.5893 349.953 84.4941 344.195 85.9746 338.602C87.4552 333.008 89.3471 327.58 91.6502 322.315C96.9145 309.977 102.919 298.379 109.664 287.522C116.573 276.499 124.963 266.547 134.834 257.663C135.986 256.512 136.973 255.278 137.795 253.962C138.782 252.646 139.769 251.329 140.756 250.013C142.566 248.204 144.376 246.312 146.185 244.338C147.995 242.364 149.887 240.554 151.861 238.909C156.631 234.961 161.567 234.714 166.667 238.169C173.411 242.939 178.84 248.533 182.953 254.949C187.23 261.365 189.369 269.426 189.369 279.132ZM168.641 253.221C159.922 260.624 153.095 267.863 148.159 274.937C143.224 281.846 139.44 288.673 136.808 295.418C134.34 302.163 132.695 308.826 131.873 315.406C131.215 321.822 130.803 328.238 130.639 334.654C130.639 337.45 129.652 339.013 127.678 339.342C125.704 339.671 123.565 339.095 121.262 337.615C119.781 336.628 118.301 335.641 116.82 334.654C115.504 333.502 114.106 332.35 112.625 331.199C108.348 340.082 105.469 348.637 103.988 356.862C102.508 364.923 102.426 372.162 103.742 378.578C105.551 377.755 107.361 377.097 109.17 376.603C110.98 375.945 112.707 375.041 114.353 373.889C116.82 372.244 119.206 370.599 121.509 368.954C123.812 367.144 125.95 365.252 127.925 363.278C138.782 352.421 147.995 340.576 155.562 327.744C163.13 314.912 168.558 300.518 171.849 284.56C172.836 279.625 173.247 274.608 173.082 269.508C172.918 264.408 171.437 258.979 168.641 253.221ZM218.589 239.156C221.221 239.978 223.36 240.719 225.005 241.377C226.815 242.035 228.131 242.939 228.953 244.091C229.94 245.078 230.516 246.394 230.681 248.039C231.01 249.52 231.092 251.576 230.927 254.208C230.598 261.94 230.187 269.59 229.694 277.157C229.2 284.56 228.707 292.046 228.213 299.613C227.884 305.371 227.473 311.293 226.979 317.38C226.65 323.302 226.239 329.636 225.745 336.381C227.555 334.571 228.707 333.337 229.2 332.679C239.564 315.077 250.586 298.132 262.267 281.846C273.947 265.395 286.203 249.191 299.034 233.233C301.996 229.45 304.792 225.501 307.424 221.389C310.057 217.111 312.771 212.916 315.568 208.804C316.226 207.817 316.884 206.83 317.542 205.843C318.2 204.691 318.94 203.704 319.763 202.881C321.572 200.907 323.3 199.838 324.945 199.673C326.754 199.509 328.811 200.085 331.114 201.401C332.923 202.552 334.651 203.622 336.296 204.609C337.941 205.596 339.668 206.747 341.478 208.063C345.755 211.189 346.66 215.055 344.192 219.661C343.37 221.306 342.383 222.787 341.231 224.103C340.244 225.419 339.092 226.653 337.776 227.805C315.074 250.342 294.181 274.032 275.098 298.873C256.015 323.714 239.153 350.364 224.512 378.824C223.689 380.469 222.949 381.786 222.291 382.773C221.797 383.595 221.221 384.171 220.563 384.5C219.905 384.664 219.083 384.664 218.096 384.5C217.109 384.171 215.793 383.76 214.147 383.266C211.351 382.279 209.13 381.539 207.485 381.045C205.84 380.387 204.606 379.565 203.783 378.578C203.125 377.591 202.714 376.274 202.55 374.629C202.385 372.984 202.303 370.681 202.303 367.72C202.632 359.165 203.043 350.693 203.537 342.303C203.866 333.749 204.524 325.194 205.511 316.64C206.827 305.124 208.307 293.691 209.952 282.34C211.762 270.824 213.572 259.308 215.381 247.793C215.71 245.654 216.204 243.762 216.862 242.117C217.026 241.294 217.602 240.307 218.589 239.156ZM341.098 277.898C344.553 276.911 347.761 276.006 350.722 275.183C353.683 274.196 356.644 273.374 359.605 272.716C361.909 272.058 364.212 271.564 366.515 271.235C368.982 270.742 371.368 270.33 373.671 270.001C377.126 269.508 379.676 270.988 381.321 274.443C382.966 277.569 384.117 280.119 384.775 282.093C385.598 283.902 385.762 285.465 385.269 286.781C384.775 287.933 383.624 288.92 381.814 289.742C380.005 290.565 377.372 291.47 373.918 292.457C367.008 294.431 360.181 296.241 353.436 297.886C346.691 299.531 339.864 301.258 332.955 303.068C330.816 303.561 328.924 304.384 327.279 305.535C325.799 306.522 324.565 308.168 323.578 310.471C319.794 318.696 315.928 326.839 311.98 334.9C308.196 342.961 304.166 351.269 299.888 359.824C301.205 359.494 302.192 359.33 302.85 359.33C303.672 359.165 304.495 358.919 305.317 358.59C313.214 355.793 320.946 353.079 328.513 350.446C336.081 347.65 343.73 344.935 351.462 342.303C353.601 341.645 355.328 341.234 356.644 341.069C357.96 340.74 359.112 340.823 360.099 341.316C361.251 341.645 362.238 342.385 363.06 343.537C363.883 344.524 364.87 346.005 366.021 347.979C366.679 348.966 367.255 349.953 367.749 350.94C368.407 351.927 368.9 352.914 369.229 353.901C370.216 356.04 370.463 357.767 369.97 359.083C369.64 360.235 368.324 361.304 366.021 362.291C364.87 362.949 363.718 363.443 362.567 363.772C361.415 363.936 360.181 364.183 358.865 364.512C346.198 366.98 333.777 370.105 321.604 373.889C309.43 377.673 297.421 381.95 285.576 386.721C283.108 387.708 281.217 388.448 279.901 388.942C278.42 389.271 277.186 389.271 276.199 388.942C275.048 388.613 273.978 387.872 272.991 386.721C271.84 385.405 270.441 383.513 268.796 381.045C271.922 369.53 275.87 358.343 280.641 347.485C285.247 336.628 290.265 325.935 295.693 315.406C301.122 304.877 306.798 294.513 312.72 284.314C318.643 274.114 324.483 263.832 330.24 253.468C330.898 252.317 331.557 251.165 332.215 250.013C333.037 248.862 333.695 247.71 334.189 246.559C334.847 245.243 335.176 243.927 335.176 242.61C335.34 241.294 335.093 239.896 334.435 238.415C334.106 237.593 334.271 236.853 334.929 236.195C337.232 234.549 339.535 232.904 341.838 231.259C344.142 229.614 346.527 228.051 348.995 226.571C350.311 225.748 351.709 225.255 353.19 225.09C354.67 224.926 356.068 224.514 357.385 223.856C366.433 220.237 375.481 216.947 384.529 213.986C393.741 210.86 403.118 208.228 412.66 206.089C412.989 206.089 413.482 205.925 414.14 205.596C420.392 204.28 424.751 204.609 427.219 206.583C429.851 208.392 431.743 212.423 432.894 218.674C433.388 222.129 432.236 224.35 429.44 225.337C427.137 225.995 424.916 226.653 422.777 227.311C420.803 227.969 418.664 228.545 416.361 229.038C407.478 231.013 398.676 233.069 389.957 235.208C381.238 237.182 372.437 239.074 363.554 240.883C361.251 241.377 359.359 242.199 357.878 243.351C356.397 244.502 355.246 246.23 354.423 248.533C352.614 253.304 350.557 258.074 348.254 262.845C345.951 267.616 343.566 272.633 341.098 277.898Z" fill="#FAFAFA"/>
</svg>
