<svg width="1111" height="372" viewBox="0 0 1111 372" fill="none" xmlns="http://www.w3.org/2000/svg">
<path d="M91.5664 280.268C80.3641 280.268 69.8717 279.4 60.0893 277.665C50.4648 276.087 41.9447 273.326 34.529 269.381C27.2711 265.279 21.5122 259.678 17.2521 252.578C13.1498 245.32 11.0987 236.248 11.0987 225.361C11.0987 225.045 11.0987 224.651 11.0987 224.177C11.0987 223.546 11.1776 222.915 11.3353 222.284H60.7994C60.6416 222.915 60.5627 223.546 60.5627 224.177C60.5627 224.651 60.5627 225.124 60.5627 225.597C60.5627 230.331 61.6671 233.96 63.8761 236.484C66.085 239.009 69.1617 240.744 73.1062 241.691C77.2085 242.48 81.7841 242.874 86.833 242.874C88.7264 242.874 90.6986 242.874 92.7498 242.874C94.9587 242.717 97.0098 242.48 98.9032 242.164C100.954 241.691 102.769 241.06 104.347 240.271C106.082 239.482 107.423 238.456 108.37 237.194C109.317 235.774 109.79 234.039 109.79 231.987C109.79 228.99 108.449 226.623 105.767 224.887C103.084 223.152 99.4554 221.653 94.8798 220.391C90.3042 219.128 85.1763 217.945 79.4963 216.841C73.8162 215.736 67.8994 214.474 61.746 213.054C55.5926 211.476 49.6759 209.504 43.9958 207.137C38.3157 204.77 33.1879 201.773 28.6122 198.144C24.0366 194.357 20.4077 189.702 17.7254 184.18C15.0432 178.5 13.702 171.716 13.702 163.827C13.702 154.36 15.6743 146.313 19.6188 139.686C23.5633 133.059 28.9278 127.695 35.7123 123.593C42.6547 119.49 50.4648 116.493 59.1427 114.599C67.9783 112.706 77.2085 111.759 86.833 111.759C96.6154 111.759 105.767 112.785 114.287 114.836C122.965 116.729 130.617 119.727 137.244 123.829C143.87 127.932 149.077 133.138 152.864 139.45C156.651 145.761 158.623 153.255 158.781 161.933V164.773H109.79V163.827C109.79 160.987 109.08 158.304 107.66 155.78C106.24 153.255 103.952 151.204 100.797 149.626C97.7987 148.049 93.7754 147.26 88.7264 147.26C83.993 147.26 79.9696 147.733 76.6562 148.68C73.5006 149.626 71.1339 150.968 69.5561 152.703C67.9783 154.281 67.1894 156.016 67.1894 157.91C67.1894 160.908 68.5306 163.353 71.2128 165.247C73.8951 167.14 77.524 168.718 82.0996 169.98C86.6753 171.242 91.8031 172.426 97.4832 173.53C103.163 174.634 109.08 175.897 115.233 177.317C121.387 178.579 127.304 180.315 132.984 182.523C138.664 184.732 143.792 187.651 148.367 191.28C152.943 194.751 156.572 199.09 159.254 204.297C161.936 209.504 163.277 215.894 163.277 223.467C163.277 236.879 160.122 247.765 153.811 256.128C147.657 264.49 139.137 270.644 128.25 274.588C117.521 278.375 105.293 280.268 91.5664 280.268ZM230.652 277.428V156.253H177.165V114.599H336.207V156.253H282.957V277.428H230.652ZM441.213 280.268C424.173 280.268 409.578 277.744 397.429 272.695C385.438 267.488 376.208 259.836 369.739 249.738C363.27 239.482 360.035 226.86 360.035 211.871V114.599H412.339V211.161C412.339 219.838 414.706 227.017 419.439 232.697C424.173 238.378 431.352 241.218 440.976 241.218C450.601 241.218 457.78 238.378 462.513 232.697C467.404 227.017 469.85 219.838 469.85 211.161V114.599H522.154V211.871C522.154 226.86 518.919 239.482 512.45 249.738C506.139 259.836 496.909 267.488 484.76 272.695C472.769 277.744 458.253 280.268 441.213 280.268ZM557.183 277.428V114.599H627.71C646.329 114.599 661.949 117.518 674.571 123.356C687.194 129.194 696.739 138.108 703.208 150.1C709.835 162.091 713.148 177.396 713.148 196.014C713.148 214.474 709.835 229.779 703.208 241.928C696.739 253.919 687.194 262.833 674.571 268.671C661.949 274.509 646.329 277.428 627.71 277.428H557.183ZM609.487 238.378H626.764C632.444 238.378 637.335 237.589 641.437 236.011C645.697 234.433 649.169 232.145 651.851 229.147C654.533 226.15 656.505 222.442 657.768 218.024C659.03 213.606 659.661 208.636 659.661 203.114V188.914C659.661 183.391 659.03 178.421 657.768 174.003C656.505 169.586 654.533 165.878 651.851 162.88C649.169 159.882 645.697 157.594 641.437 156.016C637.335 154.439 632.444 153.65 626.764 153.65H609.487V238.378ZM1027.3 280.268C1016.1 280.268 1005.61 279.4 995.823 277.665C986.198 276.087 977.678 273.326 970.262 269.381C963.005 265.279 957.246 259.678 952.985 252.578C948.883 245.32 946.832 236.248 946.832 225.361C946.832 225.045 946.832 224.651 946.832 224.177C946.832 223.546 946.911 222.915 947.069 222.284H996.533C996.375 222.915 996.296 223.546 996.296 224.177C996.296 224.651 996.296 225.124 996.296 225.597C996.296 230.331 997.401 233.96 999.609 236.484C1001.82 239.009 1004.9 240.744 1008.84 241.691C1012.94 242.48 1017.52 242.874 1022.57 242.874C1024.46 242.874 1026.43 242.874 1028.48 242.874C1030.69 242.717 1032.74 242.48 1034.64 242.164C1036.69 241.691 1038.5 241.06 1040.08 240.271C1041.82 239.482 1043.16 238.456 1044.1 237.194C1045.05 235.774 1045.52 234.039 1045.52 231.987C1045.52 228.99 1044.18 226.623 1041.5 224.887C1038.82 223.152 1035.19 221.653 1030.61 220.391C1026.04 219.128 1020.91 217.945 1015.23 216.841C1009.55 215.736 1003.63 214.474 997.479 213.054C991.326 211.476 985.409 209.504 979.729 207.137C974.049 204.77 968.921 201.773 964.346 198.144C959.77 194.357 956.141 189.702 953.459 184.18C950.777 178.5 949.435 171.716 949.435 163.827C949.435 154.36 951.408 146.313 955.352 139.686C959.297 133.059 964.661 127.695 971.446 123.593C978.388 119.49 986.198 116.493 994.876 114.599C1003.71 112.706 1012.94 111.759 1022.57 111.759C1032.35 111.759 1041.5 112.785 1050.02 114.836C1058.7 116.729 1066.35 119.727 1072.98 123.829C1079.6 127.932 1084.81 133.138 1088.6 139.45C1092.38 145.761 1094.36 153.255 1094.51 161.933V164.773H1045.52V163.827C1045.52 160.987 1044.81 158.304 1043.39 155.78C1041.97 153.255 1039.69 151.204 1036.53 149.626C1033.53 148.049 1029.51 147.26 1024.46 147.26C1019.73 147.26 1015.7 147.733 1012.39 148.68C1009.23 149.626 1006.87 150.968 1005.29 152.703C1003.71 154.281 1002.92 156.016 1002.92 157.91C1002.92 160.908 1004.26 163.353 1006.95 165.247C1009.63 167.14 1013.26 168.718 1017.83 169.98C1022.41 171.242 1027.54 172.426 1033.22 173.53C1038.9 174.634 1044.81 175.897 1050.97 177.317C1057.12 178.579 1063.04 180.315 1068.72 182.523C1074.4 184.732 1079.52 187.651 1084.1 191.28C1088.68 194.751 1092.31 199.09 1094.99 204.297C1097.67 209.504 1099.01 215.894 1099.01 223.467C1099.01 236.879 1095.86 247.765 1089.54 256.128C1083.39 264.49 1074.87 270.644 1063.98 274.588C1053.25 278.375 1041.03 280.268 1027.3 280.268Z" fill="#171717"/>
<path d="M738.217 285.616C736.891 285.616 736.229 285.616 736.229 285.616C732.82 284.291 730.17 283.06 728.276 281.924C726.383 280.788 725.058 279.462 724.3 277.948C723.543 276.433 723.259 274.634 723.448 272.552C723.448 270.469 723.827 267.818 724.584 264.6C726.667 253.997 729.507 243.678 733.104 233.643C736.702 223.608 741.057 213.763 746.169 204.107C750.523 196.155 754.783 188.297 758.949 180.534C763.304 172.772 767.564 164.914 771.729 156.962C773.433 154.311 774.569 151.471 775.137 148.442C774.19 149.01 773.149 149.673 772.013 150.43C770.877 150.998 769.836 151.566 768.889 152.134C766.996 153.649 765.102 155.163 763.209 156.678C761.316 158.193 759.328 159.708 757.245 161.222C755.73 162.169 754.499 162.926 753.553 163.494C752.795 164.062 751.943 164.346 750.997 164.346C750.239 164.346 749.387 164.062 748.441 163.494C747.683 162.926 746.547 162.169 745.033 161.222C744.086 160.465 743.139 159.802 742.193 159.234C741.246 158.477 740.11 157.625 738.785 156.678C740.299 154.785 741.719 152.986 743.045 151.282C744.37 149.578 745.79 148.063 747.305 146.738C755.067 139.922 762.736 133.106 770.309 126.29C777.882 119.474 785.551 112.752 793.313 106.125C795.396 104.421 797.384 102.623 799.277 100.729C801.171 98.836 803.064 96.9427 804.957 95.0493C807.987 92.3986 810.259 90.9786 811.774 90.7893C813.478 90.5999 815.939 91.9253 819.158 94.7653C819.726 95.3333 820.578 95.9013 821.714 96.4693C824.364 98.9307 826.352 100.919 827.678 102.433C829.192 103.759 830.044 105.179 830.234 106.693C830.612 108.019 830.328 109.628 829.382 111.522C828.624 113.415 827.394 115.971 825.69 119.19C813.762 141.153 801.928 163.021 790.189 184.795C778.64 206.568 766.901 228.531 754.973 250.683C752.322 255.606 749.861 260.624 747.589 265.736C745.317 270.658 742.95 275.676 740.489 280.788C740.11 281.735 739.731 282.587 739.353 283.344C738.974 284.101 738.595 284.859 738.217 285.616ZM790.072 243.299C789.882 237.998 790.45 232.886 791.776 227.963C792.912 223.04 794.426 218.212 796.32 213.479C801.432 200.604 807.585 188.581 814.78 177.41C821.975 166.05 830.779 155.826 841.192 146.738C842.328 145.791 843.37 144.655 844.316 143.33C845.263 142.005 846.21 140.774 847.156 139.638C850.375 135.473 853.783 131.591 857.381 127.994C861.167 124.396 865.427 121.272 870.161 118.622C876.598 114.835 882.562 113.226 888.053 113.794C893.544 114.172 899.224 116.728 905.093 121.462C910.016 125.438 914.371 129.603 918.157 133.958C923.648 140.017 927.151 146.738 928.666 154.122C930.37 161.317 930.559 168.89 929.234 176.842C927.719 187.067 924.974 197.291 920.997 207.515C915.128 220.958 907.744 233.265 898.845 244.435C890.136 255.606 880.101 265.736 868.741 274.824C864.575 278.042 860.315 280.788 855.961 283.06C851.606 285.332 846.967 287.131 842.044 288.456C837.879 289.592 833.903 289.876 830.116 289.308C826.519 288.74 822.921 287.509 819.324 285.616C817.62 284.669 815.916 283.628 814.212 282.492C812.697 281.356 811.088 280.22 809.384 279.084C802.568 274.918 797.645 269.806 794.616 263.748C791.397 257.689 789.882 250.873 790.072 243.299ZM903.105 136.798C899.886 135.851 897.141 135.946 894.869 137.082C892.597 138.218 890.42 139.638 888.337 141.342C885.118 144.182 881.994 147.117 878.965 150.146C875.936 152.986 873.19 156.11 870.729 159.518C866.753 165.009 863.155 170.5 859.937 175.99C856.718 181.481 853.499 186.972 850.28 192.463C848.387 195.492 846.588 198.521 844.884 201.551C843.18 204.58 840.719 207.231 837.5 209.503C835.796 208.556 834.092 207.704 832.388 206.947C830.874 206 829.264 205.053 827.56 204.107C823.773 211.87 820.555 219.727 817.904 227.679C815.443 235.442 813.928 243.583 813.36 252.103C812.981 255.322 812.981 258.636 813.36 262.044C813.928 265.452 815.253 268.86 817.336 272.268C819.797 271.889 822.259 271.605 824.72 271.416C827.182 271.226 829.454 270.658 831.536 269.712C835.134 268.197 838.636 266.493 842.044 264.6C845.452 262.706 848.766 260.624 851.985 258.352C862.209 250.589 871.107 241.879 878.681 232.223C886.444 222.567 893.07 212.059 898.561 200.699C901.591 194.64 903.957 188.392 905.661 181.954C907.365 175.517 908.312 168.89 908.501 162.074C908.501 157.719 908.217 153.365 907.649 149.01C907.271 144.655 905.756 140.585 903.105 136.798Z" fill="#171717"/>
</svg>
