<svg width="1111" height="372" viewBox="0 0 1111 372" fill="none" xmlns="http://www.w3.org/2000/svg">
<path d="M91.4141 280.268C80.2117 280.268 69.7193 279.4 59.937 277.665C50.3124 276.087 41.7923 273.326 34.3767 269.381C27.1188 265.279 21.3598 259.678 17.0998 252.578C12.9975 245.32 10.9463 236.248 10.9463 225.361C10.9463 225.045 10.9463 224.651 10.9463 224.177C10.9463 223.546 11.0252 222.915 11.183 222.284H60.647C60.4892 222.915 60.4103 223.546 60.4103 224.177C60.4103 224.651 60.4103 225.124 60.4103 225.597C60.4103 230.331 61.5148 233.96 63.7237 236.484C65.9326 239.009 69.0093 240.744 72.9538 241.691C77.0561 242.48 81.6317 242.874 86.6807 242.874C88.574 242.874 90.5463 242.874 92.5974 242.874C94.8064 242.717 96.8575 242.48 98.7509 242.164C100.802 241.691 102.616 241.06 104.194 240.271C105.93 239.482 107.271 238.456 108.218 237.194C109.164 235.774 109.638 234.039 109.638 231.987C109.638 228.99 108.297 226.623 105.614 224.887C102.932 223.152 99.3031 221.653 94.7275 220.391C90.1518 219.128 85.024 217.945 79.3439 216.841C73.6638 215.736 67.7471 214.474 61.5937 213.054C55.4403 211.476 49.5235 209.504 43.8434 207.137C38.1634 204.77 33.0355 201.773 28.4599 198.144C23.8843 194.357 20.2553 189.702 17.5731 184.18C14.8908 178.5 13.5497 171.716 13.5497 163.827C13.5497 154.36 15.522 146.313 19.4664 139.686C23.4109 133.059 28.7755 127.695 35.56 123.593C42.5023 119.49 50.3124 116.493 58.9903 114.599C67.826 112.706 77.0561 111.759 86.6807 111.759C96.463 111.759 105.614 112.785 114.134 114.836C122.812 116.729 130.465 119.727 137.091 123.829C143.718 127.932 148.925 133.138 152.712 139.45C156.498 145.761 158.471 153.255 158.628 161.933V164.773H109.638V163.827C109.638 160.987 108.928 158.304 107.508 155.78C106.088 153.255 103.8 151.204 100.644 149.626C97.6464 148.049 93.623 147.26 88.574 147.26C83.8407 147.26 79.8173 147.733 76.5039 148.68C73.3483 149.626 70.9816 150.968 69.4038 152.703C67.826 154.281 67.0371 156.016 67.0371 157.91C67.0371 160.908 68.3782 163.353 71.0605 165.247C73.7427 167.14 77.3717 168.718 81.9473 169.98C86.5229 171.242 91.6508 172.426 97.3308 173.53C103.011 174.634 108.928 175.897 115.081 177.317C121.234 178.579 127.151 180.315 132.831 182.523C138.511 184.732 143.639 187.651 148.215 191.28C152.79 194.751 156.419 199.09 159.102 204.297C161.784 209.504 163.125 215.894 163.125 223.467C163.125 236.879 159.969 247.765 153.658 256.128C147.505 264.49 138.985 270.644 128.098 274.588C117.369 278.375 105.141 280.268 91.4141 280.268ZM230.5 277.428V156.253H177.013V114.599H336.055V156.253H282.804V277.428H230.5ZM441.061 280.268C424.02 280.268 409.426 277.744 397.277 272.695C385.285 267.488 376.055 259.836 369.586 249.738C363.117 239.482 359.883 226.86 359.883 211.871V114.599H412.187V211.161C412.187 219.838 414.553 227.017 419.287 232.697C424.02 238.378 431.199 241.218 440.824 241.218C450.448 241.218 457.627 238.378 462.361 232.697C467.252 227.017 469.698 219.838 469.698 211.161V114.599H522.002V211.871C522.002 226.86 518.767 239.482 512.298 249.738C505.987 259.836 496.757 267.488 484.608 272.695C472.616 277.744 458.101 280.268 441.061 280.268ZM557.031 277.428V114.599H627.558C646.176 114.599 661.796 117.518 674.419 123.356C687.041 129.194 696.587 138.108 703.056 150.1C709.683 162.091 712.996 177.396 712.996 196.014C712.996 214.474 709.683 229.779 703.056 241.928C696.587 253.919 687.041 262.833 674.419 268.671C661.796 274.509 646.176 277.428 627.558 277.428H557.031ZM609.335 238.378H626.611C632.292 238.378 637.183 237.589 641.285 236.011C645.545 234.433 649.016 232.145 651.698 229.147C654.381 226.15 656.353 222.442 657.615 218.024C658.877 213.606 659.509 208.636 659.509 203.114V188.914C659.509 183.391 658.877 178.421 657.615 174.003C656.353 169.586 654.381 165.878 651.698 162.88C649.016 159.882 645.545 157.594 641.285 156.016C637.183 154.439 632.292 153.65 626.611 153.65H609.335V238.378ZM1027.15 280.268C1015.95 280.268 1005.45 279.4 995.67 277.665C986.046 276.087 977.526 273.326 970.11 269.381C962.852 265.279 957.093 259.678 952.833 252.578C948.731 245.32 946.68 236.248 946.68 225.361C946.68 225.045 946.68 224.651 946.68 224.177C946.68 223.546 946.759 222.915 946.916 222.284H996.38C996.223 222.915 996.144 223.546 996.144 224.177C996.144 224.651 996.144 225.124 996.144 225.597C996.144 230.331 997.248 233.96 999.457 236.484C1001.67 239.009 1004.74 240.744 1008.69 241.691C1012.79 242.48 1017.37 242.874 1022.41 242.874C1024.31 242.874 1026.28 242.874 1028.33 242.874C1030.54 242.717 1032.59 242.48 1034.48 242.164C1036.54 241.691 1038.35 241.06 1039.93 240.271C1041.66 239.482 1043 238.456 1043.95 237.194C1044.9 235.774 1045.37 234.039 1045.37 231.987C1045.37 228.99 1044.03 226.623 1041.35 224.887C1038.67 223.152 1035.04 221.653 1030.46 220.391C1025.89 219.128 1020.76 217.945 1015.08 216.841C1009.4 215.736 1003.48 214.474 997.327 213.054C991.174 211.476 985.257 209.504 979.577 207.137C973.897 204.77 968.769 201.773 964.193 198.144C959.618 194.357 955.989 189.702 953.306 184.18C950.624 178.5 949.283 171.716 949.283 163.827C949.283 154.36 951.255 146.313 955.2 139.686C959.144 133.059 964.509 127.695 971.293 123.593C978.236 119.49 986.046 116.493 994.724 114.599C1003.56 112.706 1012.79 111.759 1022.41 111.759C1032.2 111.759 1041.35 112.785 1049.87 114.836C1058.55 116.729 1066.2 119.727 1072.82 123.829C1079.45 127.932 1084.66 133.138 1088.44 139.45C1092.23 145.761 1094.2 153.255 1094.36 161.933V164.773H1045.37V163.827C1045.37 160.987 1044.66 158.304 1043.24 155.78C1041.82 153.255 1039.53 151.204 1036.38 149.626C1033.38 148.049 1029.36 147.26 1024.31 147.26C1019.57 147.26 1015.55 147.733 1012.24 148.68C1009.08 149.626 1006.71 150.968 1005.14 152.703C1003.56 154.281 1002.77 156.016 1002.77 157.91C1002.77 160.908 1004.11 163.353 1006.79 165.247C1009.48 167.14 1013.11 168.718 1017.68 169.98C1022.26 171.242 1027.38 172.426 1033.06 173.53C1038.74 174.634 1044.66 175.897 1050.81 177.317C1056.97 178.579 1062.88 180.315 1068.56 182.523C1074.24 184.732 1079.37 187.651 1083.95 191.28C1088.52 194.751 1092.15 199.09 1094.84 204.297C1097.52 209.504 1098.86 215.894 1098.86 223.467C1098.86 236.879 1095.7 247.765 1089.39 256.128C1083.24 264.49 1074.72 270.644 1063.83 274.588C1053.1 278.375 1040.87 280.268 1027.15 280.268Z" fill="url(#paint0_linear_1_15798)"/>
<path d="M738.064 285.616C736.739 285.616 736.076 285.616 736.076 285.616C732.668 284.291 730.017 283.06 728.124 281.924C726.231 280.788 724.905 279.462 724.148 277.948C723.391 276.433 723.107 274.634 723.296 272.552C723.296 270.469 723.675 267.818 724.432 264.6C726.515 253.997 729.355 243.678 732.952 233.643C736.55 223.608 740.904 213.763 746.016 204.107C750.371 196.155 754.631 188.297 758.796 180.534C763.151 172.772 767.411 164.914 771.577 156.962C773.281 154.311 774.417 151.471 774.985 148.442C774.038 149.01 772.997 149.673 771.861 150.43C770.725 150.998 769.683 151.566 768.737 152.134C766.843 153.649 764.95 155.163 763.057 156.678C761.163 158.193 759.175 159.708 757.092 161.222C755.578 162.169 754.347 162.926 753.4 163.494C752.643 164.062 751.791 164.346 750.844 164.346C750.087 164.346 749.235 164.062 748.288 163.494C747.531 162.926 746.395 162.169 744.88 161.222C743.934 160.465 742.987 159.802 742.04 159.234C741.094 158.477 739.958 157.625 738.632 156.678C740.147 154.785 741.567 152.986 742.892 151.282C744.218 149.578 745.638 148.063 747.152 146.738C754.915 139.922 762.583 133.106 770.157 126.29C777.73 119.474 785.398 112.752 793.161 106.125C795.244 104.421 797.232 102.623 799.125 100.729C801.018 98.836 802.912 96.9427 804.805 95.0493C807.835 92.3986 810.107 90.9786 811.621 90.7893C813.325 90.5999 815.787 91.9253 819.005 94.7653C819.573 95.3333 820.425 95.9013 821.561 96.4693C824.212 98.9307 826.2 100.919 827.525 102.433C829.04 103.759 829.892 105.179 830.081 106.693C830.46 108.019 830.176 109.628 829.229 111.522C828.472 113.415 827.241 115.971 825.537 119.19C813.609 141.153 801.776 163.021 790.037 184.795C778.487 206.568 766.749 228.531 754.82 250.683C752.17 255.606 749.708 260.624 747.436 265.736C745.164 270.658 742.798 275.676 740.336 280.788C739.958 281.735 739.579 282.587 739.2 283.344C738.822 284.101 738.443 284.859 738.064 285.616ZM789.919 243.299C789.73 237.998 790.298 232.886 791.623 227.963C792.759 223.04 794.274 218.212 796.167 213.479C801.279 200.604 807.433 188.581 814.628 177.41C821.822 166.05 830.627 155.826 841.04 146.738C842.176 145.791 843.217 144.655 844.164 143.33C845.111 142.005 846.057 140.774 847.004 139.638C850.223 135.473 853.631 131.591 857.228 127.994C861.015 124.396 865.275 121.272 870.008 118.622C876.446 114.835 882.41 113.226 887.901 113.794C893.391 114.172 899.071 116.728 904.941 121.462C909.864 125.438 914.218 129.603 918.005 133.958C923.496 140.017 926.999 146.738 928.513 154.122C930.217 161.317 930.407 168.89 929.081 176.842C927.567 187.067 924.821 197.291 920.845 207.515C914.976 220.958 907.592 233.265 898.693 244.435C889.983 255.606 879.949 265.736 868.588 274.824C864.423 278.042 860.163 280.788 855.808 283.06C851.454 285.332 846.815 287.131 841.892 288.456C837.727 289.592 833.751 289.876 829.964 289.308C826.366 288.74 822.769 287.509 819.172 285.616C817.468 284.669 815.764 283.628 814.06 282.492C812.545 281.356 810.936 280.22 809.232 279.084C802.416 274.918 797.493 269.806 794.463 263.748C791.245 257.689 789.73 250.873 789.919 243.299ZM902.953 136.798C899.734 135.851 896.989 135.946 894.717 137.082C892.445 138.218 890.267 139.638 888.185 141.342C884.966 144.182 881.842 147.117 878.813 150.146C875.783 152.986 873.038 156.11 870.576 159.518C866.6 165.009 863.003 170.5 859.784 175.99C856.566 181.481 853.347 186.972 850.128 192.463C848.235 195.492 846.436 198.521 844.732 201.551C843.028 204.58 840.567 207.231 837.348 209.503C835.644 208.556 833.94 207.704 832.236 206.947C830.721 206 829.112 205.053 827.408 204.107C823.621 211.87 820.402 219.727 817.752 227.679C815.29 235.442 813.776 243.583 813.208 252.103C812.829 255.322 812.829 258.636 813.208 262.044C813.776 265.452 815.101 268.86 817.184 272.268C819.645 271.889 822.106 271.605 824.568 271.416C827.029 271.226 829.301 270.658 831.384 269.712C834.981 268.197 838.484 266.493 841.892 264.6C845.3 262.706 848.613 260.624 851.832 258.352C862.056 250.589 870.955 241.879 878.529 232.223C886.291 222.567 892.918 212.059 898.409 200.699C901.438 194.64 903.805 188.392 905.509 181.954C907.213 175.517 908.16 168.89 908.349 162.074C908.349 157.719 908.065 153.365 907.497 149.01C907.118 144.655 905.604 140.585 902.953 136.798Z" fill="url(#paint1_linear_1_15798)"/>
<defs>
<linearGradient id="paint0_linear_1_15798" x1="0.769529" y1="31.5692" x2="18.0475" y2="403.985" gradientUnits="userSpaceOnUse">
<stop offset="0.0778503" stop-color="#AB8757"/>
<stop offset="0.369009" stop-color="#C7A16D"/>
<stop offset="0.591702" stop-color="#DAB27E"/>
<stop offset="0.930539" stop-color="#B99768"/>
</linearGradient>
<linearGradient id="paint1_linear_1_15798" x1="732.952" y1="-13.0237" x2="857.836" y2="396.516" gradientUnits="userSpaceOnUse">
<stop offset="0.0778503" stop-color="#AB8757"/>
<stop offset="0.369009" stop-color="#C7A16D"/>
<stop offset="0.591702" stop-color="#DAB27E"/>
<stop offset="0.930539" stop-color="#B99768"/>
</linearGradient>
</defs>
</svg>
