<?xml version="1.0" encoding="UTF-8"?><svg id="Layer_1" xmlns="http://www.w3.org/2000/svg" xmlns:xlink="http://www.w3.org/1999/xlink" viewBox="0 0 16 16"><defs><style>.cls-1{fill:url(#linear-gradient-3);}.cls-2{fill:url(#linear-gradient-2);}.cls-3{fill:url(#linear-gradient);}</style><linearGradient id="linear-gradient" x1="9.85" y1="16.85" x2="14.73" y2="7.43" gradientTransform="translate(0 18) scale(1 -1)" gradientUnits="userSpaceOnUse"><stop offset=".08" stop-color="#ab8757"/><stop offset=".37" stop-color="#c7a16d"/><stop offset=".59" stop-color="#dab27e"/><stop offset=".93" stop-color="#b99768"/></linearGradient><linearGradient id="linear-gradient-2" x1="5.74" y1="17.61" x2="9.51" y2="9.2" xlink:href="#linear-gradient"/><linearGradient id="linear-gradient-3" x1="6.58" y1="18.31" x2="9.14" y2="1.49" xlink:href="#linear-gradient"/></defs><path class="cls-3" d="M11.09,10.96c.07,0,.27,0,.27-.13v-.6h.03s.07.53.07.6h.03c.07-.07.03-.3.03-.33l.03-.03v-.77c.07.13.03.83.17.86v-.1c0-.3-.03-.57-.03-.87,0-.27.03-.47.03-.73l.07.63v-.76h.03c0,.13.07.9.07,1.06,0,0,.03.13.03.17v-1.5c.05-.11.09-.22.14-.33.02.16-.05.34.03.47l.03-.63s.02-.05.03-.08c.06-.04.1-.1.07-.19v-.05c.02-.05.04-.1.06-.16.12-.37.24-.73.37-1.09.05-.14.09-.27.14-.41,0,0,0,.01,0,.02.01-.03.02-.07.03-.1l.11-.34c.04-.13.09-.26.13-.39v.03-.08c.06-.16.11-.32.14-.49.03-.14.05-.28.1-.41.03-.08.06-.17.1-.25,0,.03,0,.05,0,.06v.1l.03-.1.05-.34c.05-.22.07-.44.1-.67v-.1s.35-1.28.35-1.28c.02-.04.03-.08.05-.12,0,0,0,0-.01-.02v-.02h-.02c-1.12-1.16-2.26.01-2.26.01l-.55,3.02-.33,3.26v.57c0,.87.03,1.4.13,2.36,0,.13.07.23.17.23h0ZM11.58,9.64s0,0,.01,0v.03s0,0-.01,0v-.03h0ZM11.36,10.13s0,0-.01,0v-.12s0,0,.01,0v.13ZM11.32,9.84s0,0,0,0c.03,0,.03.07,0,.07,0,0,0,0,0,0,.02,0,.02-.05,0-.06h0Z"/><path class="cls-2" d="M6.18,5.43c-.02.43-.02.88-.02,1.27v.91c.04.24.08,1.31.57,1.31.08,0,.45-.16.45-.28,0-.17-.02-.35-.05-.53.03.11.07.21.13.29v-.04c0-.28-.12-.52-.12-.83v-.2l.12.59h.04l.04-.08s0,.08.04.12c0-.28-.08-.87.08-1.11l.08.79c.03-.34.07-.68.11-1.03.02.03.04.05.07.07.06-.23.12-.46.18-.69.05-.13.11-.36.13-.5.02-.06.03-.13.05-.19,0,0,0,0,0,0v-.03c.15-.58.29-1.15.44-1.73.02-.09.05-.18.08-.27.03-.04.05-.08.09-.12v-.11c.04-.05.08-.1.12-.14.02-.02.03-.03.05-.05,0,0,0,.01,0,.02l.02-.04s.03-.04.04-.06c.03-.06.02-.12.02-.18,0-.04,0-.07,0-.11.03-.19.08-.41.08-.47l.23-.64s-1.12-1.66-2.59-.42l-.09.84c-.06.29-.1.6-.1.88h0s-.02.17-.02.17c0,0-.01,0-.02,0-.07.53-.14,1.09-.16,1.66l-.03.26c-.02.18-.04.38-.05.57v-.02s-.04.1,0,.12h0Z"/><path class="cls-1" d="M15.41,10.59l.37-.38-.62.24s-.05.02-.08.03h0s0,0,0,0c-.03.01-.05.03-.07.04-.02.01.02-.03.03-.06-.2.14-.04.08-.08.17-.01,0-.02,0-.03,0,0,.02-.01.03-.02.04-.03,0-.02-.07-.1.01-.06.03-.2.35-.37.45.04-.01.09-.03.03.05-.1.1-.34.2-.39.34-.02,0-.03,0-.03,0-.07.09-.24.27-.27.34-.17-.04-.49.48-.57.38-.08.08-.18.14-.27.2v-.02c-.18.11-.23.18-.28.25-.05.02-.02-.01-.02-.02-.14.08-.21.12-.28.16-.07.04-.12.09-.22.18l-.04-.02s-.13.07-.26.12c-.14.04-.3.1-.43.18,0,0,0-.02.02-.03-.08.04-.16.08-.25.11-.09.02-.19.04-.28.06-.17.04-.32.08-.36.16l-.22.08c.29-.04-.03.07.09.08-.12.03-.31,0-.17-.02h.02s-.07-.03-.17-.02c-.1.01-.2.01-.2-.01-.14.01-.29.02-.43.02-.14-.01-.28-.02-.42-.03-.14,0-.28-.04-.41-.06-.07-.01-.13-.02-.2-.04-.07-.01-.13-.03-.2-.05l.05.08-.18-.05s-.05-.06.08-.03c-.06-.05-.23-.03-.23-.02-.2-.08,0-.06.05-.06-.39-.02-.77-.1-1.14-.21v-.02c-.58-.18-1.13-.47-1.61-.85-.02-.01-.03-.03-.05-.05-.14-.08-.29-.17-.43-.27,0,0,0,0-.01,0,0,0,0,0-.01,0-.05-.04-.11-.09-.16-.13,0,0,0,0,0,0-.84-.61-1.55-1.41-1.93-2.36,0,.04.1.23-.04.06,0-.01-.02-.18-.09-.22.08.11.04.12,0,.08l-.11-.16.09.02c-.04-.06-.08-.11-.11-.17-.03-.06-.07-.12-.1-.18-.06-.12-.14-.24-.19-.37-.06-.13-.11-.26-.17-.39-.04-.14-.08-.28-.11-.42-.02,0-.06-.09-.08-.18-.02-.1-.04-.19-.07-.15v.02c.02.14-.06-.03-.07-.15.04.12.05-.23.1.06v-.23c.07-.07.06-.22.04-.4-.01-.09-.03-.18-.04-.28,0-.1,0-.19.02-.28,0,.02-.02.03-.02.03.04-.15.04-.32.03-.47.01-.14.01-.26.03-.29l-.04-.03c.05-.12.08-.19.1-.27.02-.08.03-.16.06-.32,0,0-.03.03-.02-.02.05-.07.1-.13.15-.34h-.02c.03-.1.06-.21.1-.32-.12-.04.27-.52.18-.66.06-.05.17-.27.24-.36,0,0,0-.01,0-.03.12-.09.13-.35.2-.48.06-.08.06-.03.06.02.04-.19.3-.42.31-.49.05-.11,0-.08-.02-.1,0,0,.02-.02.03-.03v-.03c.07-.07.06.1.14-.13-.02.02-.05.07-.05.05,0-.02.01-.05.02-.08h0,0s0-.06,0-.08l.03-.66-.24.48s-.02.04-.03.06l-.05-.05s-.07.03-.13.12l.05.02s-.05.09-.07.12c-.07.09-.13.19-.17.23,0-.06.02-.16.02-.18-.02.08-.05.14-.07.19l-.02-.04c-.19.28-.11.09-.3.37h0c-.1.11-.11.2-.21.22l.03-.04c-.12.14-.12.16-.24.31-.02.01-.08.08-.08.11-.05-.03-.27.34-.31.42.09-.12.07-.05.06,0-.08.05-.12.1-.15.22-.07-.02-.14-.04-.26.17.03-.03.06-.08.06-.05s-.04.07-.05.08c0,.03.05-.04.06,0-.14.11-.13.25-.26.45.05-.06.03,0,.04.04-.08-.01-.07.32-.12.2-.06.22-.16.5-.24.74-.07.25-.12.46-.11.56.02.05-.05.17-.07.25h.04c-.1.21-.05.16-.15.42.06-.1.06-.06.09.06l-.08.17.05.04c-.02.07-.03.15-.02.24-.06.07-.06.35-.09.4.07.08,0,.22.06.27,0,.03-.02.06-.02.1-.03-.04-.07-.05-.05.02v.02l.04.03c0,.08,0,.15,0,.2,0-.02-.02-.05-.03-.07.01.03.02.06.03.09,0,.01,0,.02,0,.03v-.02s.02.09.02.16c.1.25,0,.59.17.85-.02-.04-.04-.1-.03-.12.03.12.07.23.11.33.04.1.08.19.09.27h-.04c.04.18.07.31.12.44l-.04.02c.05.09,0,.13.05.27.06.14.02.23.09.27,0,.03,0,.18.04.25.04.07.09.17.11.22l.05.15s.19,1.28.4,1.47c-.02-.02-.03-.01-.05-.03.05.1.19.09.24.23.12-.03.12.11.23.02-.07-.04-.14-.09-.21-.14.13.07.33.04.47.24-.03,0-.11,0-.16-.02.03.07.12.06.15.14-.1.09-.26-.17-.45-.19.02.09.29.11.14.17.2-.07.2.19.44.19l-.06.06s.1.01.15.05l-.14.02c.18.02.2.23.36.27-.27-.16,0-.11-.09-.23.37.1.09.28.45.45-.06-.04-.13-.13-.05-.12.06.05.14.13.17.19.26.12,0-.09.13-.07.04.13.14.03.27.05l-.03.07c.27.18.15-.11.38.06-.05.02-.11.04-.16.05.05.01.1.02.15.03l-.06.07c.18,0,.22.04.36.12-.02-.06.07-.12.21-.08.08.07-.08.05.12.11-.06.03-.13.07-.19-.02-.02.02-.06.03-.08.05.08.08.25.1.32.12-.03-.01-.06-.03-.07-.04.1,0,.21,0,.32-.02.04.04,0,.05-.05.07.06,0,.11-.02.2,0-.04.06-.05.12-.18.12h.3s.13.11.08.12c.15.07.41-.04.61.03.01-.01.04-.02.08-.02.19.05.37.12.61.05.02.02.05.04.08.06,0,.02,0,.05,0,.07,0-.02,0-.05,0-.07.01,0,.02.02.03.03,0,.05,0,.09.01.14.01.06-.02.15.06.15.14.02.34.04.46.07l.02.04c.06,0,.14.03.22.05.08.01.15.02.18.01.06.05.2.07.35.08.15,0,.32,0,.42.01v-.04c.15.01.29,0,.46-.02v-.04c.06-.02.16-.01.27,0,.11,0,.23,0,.35,0-.02.02-.08.02-.12.01.3.07.59-.13.86-.11.06-.03.11-.03.15-.03,0,0-.01,0-.02,0,0,0,.02,0,.03,0h.09s-.06,0-.08,0c.05-.01.12-.03.19-.06l.04.03s.01,0,.02,0c.07,0,.05-.04,0-.05.03-.02.07-.03.09-.05.08.05.18-.08.28-.03.04-.04.3-.14.35-.21,0,0,0,0,.01,0,0,0,0,0,0,0,.01,0,.02,0,.02,0,.07-.02.14-.04.19-.08l.05.03.14-.14c.11-.02.16-.02.08.06.21-.18.18-.12.35-.27v.04c.08-.04.16-.14.22-.14.1-.01.28-.13.49-.28.21-.15.44-.33.63-.46-.13-.01.19-.11.15-.18.04,0,.09-.04.05.03.15-.18.28-.22.34-.39.04,0,0,.06.02.05,0-.02.04-.07.06-.08.03,0,0,.04-.03.07.16-.18.12-.25.08-.3.1-.07.14-.12.16-.22.04-.02.1-.06.02.06.06-.06.34-.38.3-.42.03-.01.07-.09.08-.11.11-.15.12-.16.21-.32l-.03.04c-.02-.1.07-.14.14-.27h0c.21-.26.06-.13.26-.4h-.04s.09-.09.16-.13c-.02,0-.1.06-.16.08.02-.06.1-.14.16-.24.03-.03.06-.06.09-.1l.04.04c.06-.09.05-.11.07-.16l-.06-.04s.03-.03.05-.05h0Z"/></svg>