<svg width="160" height="160" viewBox="0 0 160 160" fill="none" xmlns="http://www.w3.org/2000/svg">
<g clip-path="url(#clip0_318_1890)">
<path d="M23.994 56.0059C10.7428 56.0059 0 66.7483 0 79.9996C0 93.2522 10.7428 103.994 23.994 103.994C37.2458 103.994 47.988 93.2523 47.988 79.9996C47.988 66.7492 37.2464 56.007 23.9937 56.007L23.994 56.0059ZM34.9975 90.6117C34.5666 91.3185 33.6457 91.54 32.9411 91.1094C27.3067 87.6657 20.2148 86.8878 11.8628 88.7957C11.0579 88.9803 10.2557 88.4757 10.0723 87.6711C9.88807 86.8663 10.3903 86.064 11.1972 85.8807C20.3371 83.7911 28.1772 84.6905 34.5015 88.555C35.2064 88.9877 35.4298 89.9074 34.9972 90.6123L34.9975 90.6117ZM37.9343 84.0793C37.3917 84.9598 36.2404 85.236 35.3611 84.6953C28.913 80.7316 19.0805 79.5835 11.4519 81.8992C10.4625 82.198 9.4176 81.6405 9.11733 80.6529C8.81935 79.6635 9.37721 78.6206 10.3648 78.3197C19.0788 75.6757 29.9115 76.9564 37.318 81.5078C38.1976 82.0494 38.4756 83.2012 37.934 84.0796L37.9343 84.0793ZM38.1865 77.2762C30.4521 72.683 17.6946 72.2607 10.3112 74.5015C9.12563 74.8611 7.87182 74.1918 7.51252 73.0062C7.15323 71.82 7.82197 70.5671 9.00844 70.2066C17.484 67.6337 31.5736 68.1308 40.4769 73.4162C41.5433 74.0491 41.8932 75.4264 41.2611 76.4914C40.6307 77.5578 39.2497 77.9094 38.1867 77.2762H38.1865ZM65.2798 78.1564C61.137 77.1685 60.3995 76.4751 60.3995 75.0181C60.3995 73.6417 61.6954 72.7154 63.6225 72.7154C65.4906 72.7154 67.343 73.4188 69.285 74.8669C69.3438 74.9107 69.4174 74.9282 69.4899 74.9167C69.5624 74.9058 69.6265 74.866 69.669 74.8061L71.6918 71.9547C71.7749 71.8372 71.7522 71.6753 71.6402 71.5856C69.3289 69.731 66.7261 68.8293 63.6839 68.8293C59.2107 68.8293 56.0862 71.5137 56.0862 75.3545C56.0862 79.4732 58.7815 80.9316 63.4392 82.0574C67.4035 82.9705 68.0725 83.7355 68.0725 85.1031C68.0725 86.6185 66.7195 87.5605 64.5423 87.5605C62.1241 87.5605 60.1517 86.746 57.9452 84.8352C57.8904 84.7879 57.8154 84.7664 57.746 84.7704C57.673 84.7764 57.6062 84.8102 57.5598 84.8661L55.2917 87.5654C55.1966 87.6774 55.2086 87.8448 55.3187 87.9416C57.8859 90.2335 61.0433 91.444 64.4506 91.444C69.2707 91.444 72.3855 88.8104 72.3855 84.734C72.3941 81.2929 70.334 79.3876 65.2884 78.1601L65.2798 78.1564ZM83.2904 74.0706C81.2011 74.0706 79.4874 74.8935 78.0743 76.5797V74.6818C78.0743 74.5319 77.9528 74.4099 77.8032 74.4099H74.0937C73.9438 74.4099 73.8226 74.5319 73.8226 74.6818V95.7702C73.8226 95.92 73.9438 96.0421 74.0937 96.0421H77.8032C77.9528 96.0421 78.0743 95.92 78.0743 95.7702V89.1135C79.4877 90.6996 81.2017 91.4747 83.2904 91.4747C87.1724 91.4747 91.1024 88.4863 91.1024 82.7737C91.1081 77.0596 87.177 74.0703 83.2947 74.0703L83.2904 74.0706ZM86.7888 82.7737C86.7888 85.6827 84.9969 87.7127 82.4311 87.7127C79.8946 87.7127 77.9812 85.5904 77.9812 82.7737C77.9812 79.9572 79.8946 77.8346 82.4311 77.8346C84.9554 77.8343 86.7891 79.911 86.7891 82.7734L86.7888 82.7737ZM101.175 74.0706C96.1755 74.0706 92.2587 77.9203 92.2587 82.8358C92.2587 87.6978 96.1485 91.507 101.114 91.507C106.131 91.507 110.06 87.6703 110.06 82.7736C110.06 77.8939 106.157 74.0712 101.175 74.0712L101.175 74.0706ZM101.175 87.7416C98.5157 87.7416 96.511 85.605 96.511 82.7722C96.511 79.9274 98.4464 77.863 101.114 77.863C103.79 77.863 105.808 79.9996 105.808 82.8344C105.808 85.6787 103.86 87.7416 101.175 87.7416H101.175ZM120.736 74.4099H116.654V70.2364C116.654 70.0869 116.533 69.9648 116.383 69.9648H112.674C112.524 69.9648 112.402 70.0869 112.402 70.2364V74.4099H110.618C110.469 74.4099 110.348 74.5319 110.348 74.6818V77.8699C110.348 78.0194 110.469 78.1418 110.618 78.1418H112.402V86.391C112.402 89.7246 114.061 91.4148 117.333 91.4148C118.664 91.4148 119.768 91.14 120.808 90.5501C120.893 90.5028 120.945 90.4117 120.945 90.3149V87.2789C120.945 87.1852 120.897 87.0967 120.816 87.0477C120.736 86.997 120.635 86.9944 120.552 87.0354C119.838 87.3949 119.147 87.5608 118.375 87.5608C117.185 87.5608 116.654 87.0205 116.654 85.8093V78.1432H120.736C120.885 78.1432 121.006 78.0212 121.006 77.8713V74.6835C121.012 74.5337 120.891 74.4116 120.74 74.4116L120.736 74.4099ZM134.958 74.4262V73.9136C134.958 72.4056 135.537 71.7332 136.833 71.7332C137.607 71.7332 138.228 71.8868 138.924 72.1188C139.009 72.1458 139.099 72.1323 139.168 72.081C139.24 72.0297 139.28 71.9475 139.28 71.8604V68.7345C139.28 68.615 139.204 68.5093 139.088 68.474C138.353 68.2554 137.413 68.0311 136.005 68.0311C132.579 68.0311 130.768 69.9605 130.768 73.6087V74.3938H128.986C128.836 74.3938 128.713 74.5159 128.713 74.6654V77.8699C128.713 78.0194 128.836 78.1418 128.986 78.1418H130.768V90.8658C130.768 91.0156 130.889 91.1377 131.038 91.1377H134.748C134.898 91.1377 135.02 91.0156 135.02 90.8658V78.1426H138.483L143.789 90.8635C143.186 92.2001 142.594 92.466 141.786 92.466C141.132 92.466 140.444 92.2709 139.74 91.8858C139.674 91.8494 139.596 91.8434 139.524 91.8655C139.453 91.8904 139.394 91.9431 139.364 92.0119L138.106 94.7702C138.047 94.9006 138.098 95.0536 138.223 95.1212C139.536 95.8321 140.721 96.1355 142.185 96.1355C144.924 96.1355 146.438 94.8596 147.773 91.4271L154.208 74.7975C154.241 74.7138 154.231 74.6193 154.18 74.5451C154.129 74.4715 154.046 74.427 153.956 74.427H150.095C149.979 74.427 149.876 74.5007 149.838 74.6093L145.882 85.909L141.549 74.6018C141.509 74.4967 141.408 74.427 141.295 74.427H134.958L134.958 74.4262ZM126.712 74.4099H123.003C122.853 74.4099 122.731 74.5319 122.731 74.6818V90.8658C122.731 91.0157 122.853 91.1377 123.003 91.1377H126.712C126.862 91.1377 126.984 91.0157 126.984 90.8658V74.6829C126.984 74.6471 126.977 74.6117 126.964 74.5787C126.95 74.5456 126.93 74.5156 126.905 74.4904C126.879 74.4651 126.849 74.4451 126.816 74.4315C126.783 74.4178 126.748 74.4109 126.712 74.411L126.712 74.4099ZM124.879 67.0409C123.409 67.0409 122.217 68.2305 122.217 69.7001C122.217 71.1705 123.409 72.3616 124.879 72.3616C126.348 72.3616 127.539 71.1705 127.539 69.7001C127.539 68.2308 126.347 67.0409 124.88 67.0409H124.879ZM157.376 79.6133C155.908 79.6133 154.765 78.4343 154.765 77.0026C154.765 75.5708 155.923 74.3783 157.39 74.3783C158.858 74.3783 160 75.5571 160 76.9877C160 78.4194 158.842 79.6133 157.376 79.6133H157.376ZM157.39 74.6379C156.053 74.6379 155.041 75.7009 155.041 77.0026C155.041 78.3037 156.046 79.3523 157.377 79.3523C158.714 79.3523 159.726 78.2902 159.726 76.9877C159.726 75.6866 158.721 74.6379 157.391 74.6379H157.39ZM157.969 77.2561L158.707 78.2899H158.085L157.42 77.3415H156.848V78.2899H156.327V75.5496H157.549C158.186 75.5496 158.604 75.8754 158.604 76.4238C158.607 76.8731 158.347 77.1476 157.971 77.2561L157.969 77.2561ZM157.528 76.0198H156.848V76.8866H157.528C157.867 76.8866 158.069 76.7207 158.069 76.4528C158.069 76.1708 157.866 76.0198 157.528 76.0198L157.528 76.0198Z" fill="#171717"/>
</g>
<defs>
<clipPath id="clip0_318_1890">
<rect width="160" height="160" fill="white"/>
</clipPath>
</defs>
</svg>
