<svg width="160" height="160" viewBox="0 0 160 160" fill="none" xmlns="http://www.w3.org/2000/svg">
<g clip-path="url(#clip0_318_1892)">
<path fill-rule="evenodd" clip-rule="evenodd" d="M28.3674 89.1157C27.1323 89.1157 26.1653 89.9798 26.1653 91.2407C26.1653 92.5024 27.1373 93.3615 28.3674 93.3615C29.5968 93.3615 30.5696 92.4966 30.5696 91.2407C30.5696 89.9798 29.6017 89.1157 28.3674 89.1157ZM28.3674 92.7539C27.4867 92.7539 26.8335 92.1106 26.8335 91.2407C26.8335 90.3716 27.4817 89.7233 28.3674 89.7233C29.2423 89.7233 29.9006 90.3816 29.9006 91.2407C29.9006 92.0948 29.2365 92.7539 28.3674 92.7539ZM49.7956 81.6833H39.0753L40.2938 63.05L33.332 81.6833H23.3771L39.1724 39.5667H49.7648L48.5422 58.4556L55.6359 39.5667H65.5917L49.7956 81.6833ZM51.0888 81.6833L66.8833 39.5667H76.8382L61.0438 81.6833H51.0888Z" fill="#171717"/>
<path fill-rule="evenodd" clip-rule="evenodd" d="M22.2291 67.1664C8.31806 83.5029 -4.80444 105.24 6.78659 115.25C18.0182 124.95 32.0571 119.207 41.6294 115.377C51.2017 111.548 157.004 65.6026 157.004 65.6026C158.025 65.0921 157.834 64.4538 156.558 64.7725C156.043 64.9012 41.3746 95.9772 41.3746 95.9772C26.8235 100.062 10.2322 91.1595 22.2291 67.1664Z" fill="#171717"/>
<path fill-rule="evenodd" clip-rule="evenodd" d="M28.7427 91.3901C29.0515 91.3751 29.293 91.2158 29.293 90.7883C29.293 90.2371 28.9328 90.0985 28.331 90.0985H27.4661V92.3837H28.043V91.4108H28.1401L28.6655 92.3837H29.3287L28.7427 91.3901ZM28.3725 91.0199H28.0438V90.4895H28.321C28.4912 90.4895 28.6863 90.5094 28.6863 90.731C28.6863 90.9684 28.5734 91.0199 28.3725 91.0199ZM128.438 39.438C127.203 39.438 126.236 40.3029 126.236 41.563C126.236 42.8238 127.209 43.6829 128.438 43.6829C129.668 43.6829 130.641 42.818 130.641 41.563C130.641 40.3029 129.674 39.438 128.438 39.438ZM128.438 43.077C127.558 43.077 126.905 42.4337 126.905 41.5638C126.905 40.6947 127.553 40.0464 128.438 40.0464C129.313 40.0464 129.972 40.7047 129.972 41.5638C129.972 42.4179 129.308 43.077 128.438 43.077Z" fill="#171717"/>
<path fill-rule="evenodd" clip-rule="evenodd" d="M128.814 41.7124C129.123 41.6974 129.366 41.5381 129.366 41.1106C129.366 40.5594 129.005 40.4208 128.404 40.4208H127.539V42.7051H128.115V41.7331H128.213L128.737 42.7051H129.401L128.814 41.7124ZM128.443 41.3422H128.115V40.8117H128.393C128.562 40.8117 128.758 40.8325 128.758 41.0541C128.758 41.2907 128.644 41.3422 128.443 41.3422ZM121.879 46.5865L124.555 39.5667H94.1791L83.7494 52.2019L88.5646 39.5667H78.4818L62.8135 81.6833H72.7684L79.4579 64.071L79.9161 81.6833L110.462 81.6169L113.369 73.5155H101.756L105.572 63.3057H115.143L118.088 55.4566H108.517L111.798 46.5865H121.879ZM89.7923 78.8752L89.1539 56.9241L104.206 40.3984L89.7923 78.8752Z" fill="#171717"/>
</g>
<defs>
<clipPath id="clip0_318_1892">
<rect width="160" height="160" fill="white"/>
</clipPath>
</defs>
</svg>
