<svg width="160" height="160" viewBox="0 0 160 160" fill="none" xmlns="http://www.w3.org/2000/svg">
<g clip-path="url(#clip0_318_1909)">
<path d="M1.81203 75.9545C1.47817 75.9545 1.21319 76.2127 1.17003 76.5808L0 85.4683L1.17003 94.2026C1.21319 94.5708 1.47801 94.8272 1.81203 94.8272C2.13537 94.8272 2.39874 94.5726 2.45031 94.2059L3.83714 85.4681L2.45031 76.579C2.40035 76.2125 2.13376 75.9545 1.81203 75.9545ZM8.39194 71.0986C8.33681 70.7168 8.06326 70.4534 7.72601 70.4534C7.38699 70.4534 7.10648 70.7253 7.06008 71.0986C7.06008 71.102 5.48733 85.4683 5.48733 85.4683L7.06008 99.5196C7.10487 99.8964 7.38537 100.168 7.72601 100.168C8.06149 100.168 8.3352 99.9034 8.39017 99.5231L10.1796 85.4683L8.39194 71.0986ZM33.177 57.8441C32.5318 57.8441 31.9983 58.3723 31.9674 59.0434L30.7147 85.4802L31.9674 102.565C32 103.233 32.5318 103.759 33.177 103.759C33.8189 103.759 34.3506 103.231 34.3884 102.562V102.567L35.8045 85.4802L34.3884 59.0434C34.3504 58.3723 33.8187 57.8441 33.177 57.8441ZM20.3491 67.0326C19.8536 67.0326 19.4492 67.4284 19.4095 67.9565L17.9985 85.4733L19.4095 102.42C19.4473 102.945 19.8534 103.341 20.3491 103.341C20.8394 103.341 21.2438 102.945 21.287 102.42L22.8906 85.4733L21.287 67.953C21.2438 67.4284 20.8394 67.0326 20.3491 67.0326ZM46.2132 103.758C47.0133 103.758 47.6637 103.112 47.6964 102.286L48.9251 85.4888L47.6981 50.2917C47.6655 49.4657 47.0149 48.8205 46.2149 48.8205C45.4079 48.8205 44.7559 49.4675 44.7298 50.2935L43.6406 85.487L44.7298 102.291C44.7557 103.111 45.4077 103.758 46.2132 103.758ZM72.9013 103.837C74.0026 103.837 74.9112 102.93 74.9317 101.815L75.7888 85.4992L74.9316 44.8491C74.9127 43.7359 74.0024 42.8274 72.9011 42.8274C71.7982 42.8274 70.888 43.7343 70.8707 44.8509L70.105 85.4854C70.105 85.5113 70.8707 101.825 70.8707 101.825C70.8881 102.93 71.8 103.837 72.9013 103.837ZM59.4556 103.773C60.4142 103.773 61.1866 103.004 61.2125 102.023V102.035L62.2551 85.4924L61.2107 50.0406C61.1849 49.0597 60.4124 48.2925 59.4538 48.2925C58.4885 48.2925 57.716 49.0599 57.6953 50.0406L56.768 85.4941L57.6971 102.034C57.7178 103.004 58.4903 103.773 59.4556 103.773ZM26.7381 103.618C27.3077 103.618 27.7689 103.162 27.8119 102.562L29.3227 85.4735L27.8119 69.2179C27.7707 68.6175 27.3096 68.1648 26.7381 68.1648C26.1601 68.1648 25.6988 68.6207 25.6628 69.2249L24.3326 85.4735L25.6628 102.56C25.7006 103.162 26.1599 103.618 26.7381 103.618ZM14.0118 102.682C14.4282 102.682 14.7654 102.354 14.8136 101.899L16.5102 85.4699L14.8152 68.4212C14.7652 67.9653 14.428 67.6364 14.0117 67.6364C13.59 67.6364 13.2528 67.9669 13.2098 68.4212L11.7163 85.4699L13.2098 101.896C13.2512 102.352 13.5884 102.682 14.0118 102.682ZM66.1527 49.4503C65.1117 49.4503 64.277 50.2781 64.2565 51.338L63.41 85.4958L64.2565 101.932C64.2772 102.978 65.11 103.806 66.1527 103.806C67.192 103.806 68.0215 102.98 68.0454 101.92V101.934L68.9953 85.4975L68.0454 51.3345C68.0214 50.2781 67.1918 49.4503 66.1527 49.4503ZM39.6709 103.792C40.3902 103.792 40.9839 103.205 41.0183 102.457L42.3398 85.4853L41.0183 53.0018C40.9821 52.2515 40.3902 51.6666 39.6709 51.6666C38.9449 51.6666 38.353 52.2533 38.3219 53.0018L37.1519 85.4853L38.3237 102.464C38.3528 103.205 38.9447 103.792 39.6709 103.792ZM54.4278 102.19V102.181L55.5633 85.4906L54.4278 49.1079C54.4001 48.2047 53.6878 47.4957 52.8084 47.4957C51.9239 47.4957 51.2116 48.2029 51.1877 49.1079L50.1793 85.4888L51.1893 102.188C51.2134 103.083 51.9259 103.79 52.8086 103.79C53.6896 103.79 54.3985 103.083 54.4279 102.183V102.19H54.4278ZM140.322 64.5186C137.626 64.5186 135.053 65.0641 132.71 66.0465C131.144 48.3096 116.27 34.3959 98.1268 34.3959C93.6874 34.3959 89.3597 35.27 85.5381 36.748C84.0531 37.3228 83.6574 37.9147 83.6436 39.0624V101.524C83.6592 102.728 84.5935 103.732 85.7688 103.85C85.8188 103.856 139.969 103.883 140.32 103.883C151.188 103.883 160 95.0713 160 84.2017C160 73.332 151.19 64.5186 140.322 64.5186ZM79.6206 39.0074C78.4384 39.0074 77.4681 39.9779 77.4508 41.1703L76.5629 85.5043L77.4525 101.595C77.4681 102.77 78.4386 103.739 79.6206 103.739C80.7992 103.739 81.7697 102.77 81.7868 101.578V101.596L82.7522 85.5043L81.7868 41.1669C81.7697 39.9779 80.7992 39.0074 79.6206 39.0074ZM15.8926 116.394C13.5645 115.847 12.9346 115.555 12.9346 114.632C12.9346 113.982 13.4594 113.309 15.0322 113.309C16.376 113.309 17.4257 113.855 18.3688 114.82L20.487 112.766C19.102 111.318 17.4241 110.458 15.139 110.458C12.2414 110.458 9.89259 112.094 9.89259 114.76C9.89259 117.654 11.7821 118.515 14.487 119.142C17.2555 119.771 17.7597 120.192 17.7597 121.137C17.7597 122.248 16.9389 122.732 15.201 122.732C13.7952 122.732 12.4737 122.25 11.4448 121.051L9.32625 122.94C10.4378 124.577 12.5801 125.604 15.032 125.604C19.0413 125.604 20.8032 123.716 20.8032 120.927C20.8034 117.737 18.2223 116.94 15.8926 116.394ZM29.4068 110.458C25.401 110.458 23.0316 113.562 23.0316 118.031C23.0316 122.5 25.4009 125.602 29.4068 125.602C33.4127 125.602 35.7854 122.5 35.7854 118.031C35.7854 113.562 33.4127 110.458 29.4068 110.458ZM29.4068 122.689C27.0375 122.689 26.0497 120.653 26.0497 118.033C26.0497 115.41 27.0373 113.375 29.4068 113.375C31.7797 113.375 32.7639 115.41 32.7639 118.033C32.7639 120.653 31.7797 122.689 29.4068 122.689ZM47.6396 118.934C47.6396 121.283 46.4833 122.732 44.6181 122.732C42.7511 122.732 41.6188 121.242 41.6188 118.893V110.687H38.6799V118.934C38.6799 123.212 41.0734 125.604 44.6179 125.604C48.3519 125.604 50.5767 123.148 50.5767 118.893V110.687H47.6396V118.934ZM63.2464 116.899C63.2464 117.718 63.2876 119.562 63.2876 120.108C63.0984 119.729 62.6166 118.996 62.2603 118.449L57.0553 110.685H54.2452V125.373H57.1413V118.91C57.1413 118.091 57.0999 116.247 57.0999 115.701C57.2874 116.078 57.7726 116.813 58.1272 117.36L63.5197 125.373H66.1421V110.685H63.2462L63.2464 116.899ZM74.5119 110.687H69.9176V125.375H74.3001C78.0771 125.375 81.8129 123.191 81.8129 118.031C81.8129 112.659 78.707 110.687 74.5119 110.687ZM74.3001 122.522H72.8549V113.542H74.4069C77.5128 113.542 78.7931 115.03 78.7931 118.031C78.793 120.717 77.3854 122.522 74.3001 122.522ZM90.8964 113.373C92.2179 113.373 93.0575 113.961 93.5823 114.968L96.3096 113.71C95.3856 111.802 93.7061 110.458 90.9375 110.458C87.102 110.458 84.4142 113.562 84.4142 118.031C84.4142 122.667 86.9935 125.602 90.8324 125.602C93.4977 125.602 95.2598 124.365 96.2664 122.288L93.792 120.819C93.0158 122.121 92.2382 122.687 90.9166 122.687C88.7142 122.687 87.4341 120.672 87.4341 118.031C87.4326 115.305 88.6956 113.373 90.8964 113.373ZM101.79 110.687H98.8528V125.375H107.68V122.477H101.79V110.687ZM115.418 110.458C111.409 110.458 109.039 113.562 109.039 118.031C109.039 122.5 111.409 125.602 115.418 125.602C119.424 125.602 121.795 122.5 121.795 118.031C121.795 113.562 119.424 110.458 115.418 110.458ZM115.418 122.689C113.045 122.689 112.061 120.653 112.061 118.033C112.061 115.41 113.045 113.375 115.418 113.375C117.786 113.375 118.772 115.41 118.772 118.033C118.772 120.653 117.786 122.689 115.418 122.689ZM133.647 118.934C133.647 121.283 132.496 122.732 130.629 122.732C128.759 122.732 127.628 121.242 127.628 118.893V110.687H124.691V118.934C124.691 123.212 127.083 125.604 130.629 125.604C134.363 125.604 136.586 123.148 136.586 118.893V110.687H133.647V118.934ZM144.851 110.687H140.258V125.375H144.641C148.42 125.375 152.152 123.191 152.152 118.031C152.152 112.659 149.048 110.687 144.851 110.687ZM144.641 122.522H143.194V113.542H144.748C147.85 113.542 149.13 115.03 149.13 118.031C149.13 120.717 147.724 122.522 144.641 122.522Z" fill="#171717"/>
</g>
<defs>
<clipPath id="clip0_318_1909">
<rect width="160" height="160" fill="white"/>
</clipPath>
</defs>
</svg>
