<svg width="160" height="160" viewBox="0 0 160 160" fill="none" xmlns="http://www.w3.org/2000/svg">
<path d="M61.4418 99.506C55.4882 95.6708 47.4084 94.9978 34.378 98.613C20.4866 101.877 15.855 103.97 9.7724 99.7692C7.4356 97.7056 6.5978 94.383 7.2234 89.597C8.6744 81.795 12.5956 74.2868 19.5608 65.9584C23.4484 61.626 27.0548 57.908 31.8166 56.415C35.4662 55.4784 35.125 58.3466 34.6834 58.7568C34.2174 58.7568 33.4346 58.8302 32.8296 59.225C32.3386 59.6058 30.9908 60.8354 30.9184 62.4894C30.814 65.0214 33.4342 64.4944 34.5644 63.1042C35.7826 61.5376 37.583 58.5376 36.1668 55.7416C35.5732 54.7464 34.5476 54.0586 33.2742 53.8244C28.9138 53.5752 24.853 55.6538 21.105 57.9518C12.9086 63.6456 6.352 71.5352 2.642 80.1712C0.503198 85.3818 -1.4312 92.8458 1.4682 98.9208C3.7114 103.136 8.368 105.375 13.9238 104.907C17.8204 104.497 22.5322 103.238 25.7012 102.478C28.8704 101.716 45.092 96.1398 50.422 105.845C50.422 105.845 52.1944 102.404 56.6238 102.331C60.2654 101.995 65.519 103.385 69.3446 106.195C68.07 104.278 64.4564 101.453 61.4418 99.506Z" fill="#171717"/>
<path d="M36.032 66.939C32.998 64.9484 26.9 68.754 22.0158 75.2818C17.5494 81.1372 15.6208 87.9426 17.7198 91.0896C20.8418 94.7926 26.638 89.4064 29.1028 86.5234L29.4208 86.1864C31.097 84.386 32.3918 82.2196 33.6454 80.1408C33.6454 80.1408 34.7974 78.238 34.8524 78.15C35.5644 78.0188 36.422 77.8138 37.3884 77.5356C37.3746 77.5792 33.691 83.7708 34.0668 86.844C34.1838 87.7816 34.0946 91.2066 37.4384 92.2456C41.8952 92.9926 45.454 89.5378 48.5936 86.464C48.5936 86.464 49.1286 85.9522 49.4312 85.66C49.3546 85.9664 49.2548 86.3754 49.2548 86.3754C47.95 90.913 49.7088 91.8652 50.809 92.2164C54.134 93.1832 58.1062 88.3526 58.1192 88.3526C58.016 89.8742 57.715 91.1328 59.319 92.143C60.8328 92.685 62.365 91.8586 63.5298 91.0828C67.7248 88.1264 71.1044 83.4988 73.834 79.499H72.0928C72.0722 79.499 67.7964 85.6966 65.0198 87.0436C65.0154 87.0436 64.51 87.303 64.219 87.0978C63.8584 86.7904 64.0006 86.151 64.2232 85.6982C64.2372 85.6688 74.944 67.099 74.944 67.099H69.8888C69.8888 67.099 69.3366 67.9924 69.2916 68.051C69.2576 68.0218 69.1766 67.8682 69.1206 67.7946C65.9886 63.4622 58.896 70.1262 53.5562 77.8542C51.5004 80.8258 48.883 84.1716 46.169 86.5866C46.169 86.5866 42.1482 90.2722 40.4304 87.6242C39.8024 86.5116 39.9956 84.885 40.3498 83.8168C42.35 78.1228 45.7966 72.9554 49.7188 69.8376C50.8258 68.9746 52.0294 68.725 52.6264 69.091C53.1956 69.4282 53.2874 70.2618 52.9274 70.8328C52.014 70.8036 51.282 71.0812 50.6872 71.696C49.5152 72.9256 49.108 74.1114 49.4806 75.224C51.2908 77.8 54.901 72.7062 54.7264 69.6032C54.664 68.4906 54.0706 67.437 53.1846 66.9242C51.8644 66.1342 49.8504 66.3388 48.547 66.9686C46.802 67.627 44.0402 69.9248 42.428 71.7108C40.3984 73.9506 36.9174 76.4386 35.829 76.16C36.1848 75.2084 39.125 69.1928 36.032 66.939ZM60.4042 75.8382C61.3876 74.4772 64.2498 70.8324 64.9476 70.2178C67.2944 68.1532 68.2324 69.0616 68.3136 69.7052C66.1234 73.6278 63.5384 78.1216 61.108 82.1616C61.113 82.1472 60.3474 83.3178 60.3474 83.3178C59.274 84.9566 58.1932 86.362 56.4302 87.3424C56.1788 87.4162 55.7644 87.4456 55.4886 87.2398C55.1566 87.0202 55.0256 86.6542 55.063 86.2736C55.1688 85.0152 56.45 81.1664 60.4042 75.8382ZM32.9032 78.1946C32.9032 78.1946 32.859 78.3268 32.8374 78.37C32.8318 78.37 30.6332 81.9556 30.6332 81.9556C29.3064 83.727 27.6498 85.9524 25.579 87.0204C24.9652 87.2252 24.1166 87.3574 23.6842 86.8162C22.7676 85.7182 23.24 84.1958 23.6238 82.9666L23.7598 82.5274C24.8602 79.5418 26.606 76.9066 28.3056 74.4622C28.3268 74.4478 28.3744 74.4332 28.3916 74.4332C28.3958 74.4478 28.4026 74.4478 28.4054 74.4772C29.4718 76.526 31.4714 77.477 32.9668 77.9168C32.9758 77.9168 32.9856 77.9314 32.9856 77.9608C32.9858 78.0044 32.9614 78.0634 32.9032 78.1946ZM34.986 73.965C34.9762 73.9942 34.0068 76.219 34.0068 76.219C33.8666 76.336 33.645 76.2776 33.391 76.219L32.9558 76.1454C31.5892 75.7212 30.5584 74.8136 30.2406 73.7306C29.8024 71.6228 31.603 69.9688 32.3962 69.369C33.1574 68.8416 34.3408 68.5636 35.028 69.1054C35.4518 69.6032 35.6124 70.247 35.6124 70.95C35.6126 71.901 35.319 72.9694 34.986 73.965ZM98.894 80.756C98.4064 79.7024 97.2494 79.029 96.0162 79.102C92.0116 79.4682 88.0946 82.7614 86.0378 87.4888C84.9586 89.9188 84.3696 91.9238 83.9834 95.1146C85.2288 93.6806 87.7688 91.3242 90.6512 90.036C90.6512 90.036 91.0434 86.977 93.0434 84.2544C93.8002 83.127 95.3146 81.3122 97.0152 81.795C98.5012 82.2928 97.9788 86.406 96.004 90.3864C94.5428 93.3142 92.3068 96.2424 90.0444 98.2618C88.0442 99.9596 85.0848 102.009 82.4956 100.428C80.8648 99.4626 80.033 97.442 80.2086 94.8368C80.9878 87.4454 84.3526 81.1514 89.1676 73.9794C94.1324 67.3196 99.6052 60.4842 106.978 56.839C108.482 56.078 109.874 55.9024 111.078 56.3708C111.078 56.3708 104.157 60.1764 100.858 67.217C100.019 69.003 98.8518 71.4174 100.027 73.5546C100.641 74.6668 101.732 74.7548 102.61 74.6962C106.654 73.7592 109.266 69.983 111.401 66.529C112.639 63.909 113.739 61.3036 113.739 58.4054C113.739 58.0542 113.72 57.586 113.691 57.2344C115.623 56.2102 119.584 58.0248 119.584 58.0248C122.68 59.0498 129.272 64.0998 131.496 65.0654C132.58 63.8068 134.363 61.9042 135.366 60.9526L133.913 60.0596C131.587 58.6398 129.129 57.293 126.709 55.9612C121.213 52.961 116.74 54.0146 114.463 54.8344C113.568 55.1562 112.751 55.4344 112.751 55.4344C111.061 53.5902 108.29 53.7654 106.248 54.2634C98.9052 56.371 92.0878 61.5084 84.7788 70.4226C79.4052 77.4046 76.072 83.4352 74.2954 89.3922C72.926 93.4026 72.5098 99.3012 75.8522 102.8C78.694 105.77 82.4622 105.127 85.123 104.059C90.8884 101.219 96.0702 95.1004 98.6522 88.0598C99.2754 85.967 99.9668 83.0104 98.894 80.756ZM112.151 58.6984C111.388 67.4514 104.584 72.5894 102.901 72.9986C101.881 73.2032 100.14 72.7498 101.694 69.0764C103.982 64.1286 107.89 59.9282 112.082 57.7764C112.184 58.1424 112.181 58.376 112.151 58.6984ZM152.511 59.8104C148.851 61.8892 145.057 63.2354 140.465 62.7672C139.192 64.202 137.953 65.6802 136.811 67.2022C143.256 68.8416 150.09 65.197 153.901 61.7284C157.933 58.23 160 53.8246 160 53.8246C160 53.8246 156.978 57.2786 152.511 59.8104ZM83.3458 67.0994H78.545L75.837 71.4994H80.6368L83.3458 67.0994Z" fill="#171717"/>
<path d="M140.446 99.9134C139.929 100.265 139.204 99.9946 139.475 99.1898C140.151 97.1406 142.836 92.9646 142.836 92.9646L150.315 79.6994H145.192C144.949 80.0994 144.428 81.0178 144.428 81.0178C144.191 80.623 143.482 79.7452 143.19 79.5554C141.939 78.7644 140.103 79.1384 138.836 79.8554C133.328 83.076 129.309 89.439 126.14 94.4012C126.14 94.4012 122.804 99.9172 120.952 100.327C119.506 100.445 119.655 98.497 119.718 98.0432C120.277 94.764 121.575 91.6466 122.883 88.8216C125.543 86.9774 128.579 84.5624 131.338 81.9132C137.326 76.1896 142.374 69.7054 143.111 68.2564C143.111 68.2564 142.313 68.4176 141.37 68.4466C136.763 74.8722 127.337 84.211 124.479 85.6012C125.745 82.556 133.925 68.022 140.885 61.0696L141.981 60.0154C143.674 58.3614 145.429 56.6636 146.797 56.3854C146.941 56.3708 147.127 56.3854 147.288 56.7226C147.349 58.0104 146.869 58.962 146.319 60.045L145.549 61.626C145.549 61.626 146.64 61.421 147.358 61.1862C148.189 59.6208 149.111 57.8638 148.771 55.7712C148.658 55.0978 148.17 54.5856 147.533 54.4684C145.457 54.0732 143.194 55.6096 141.373 56.8542L141.3 56.8978C131.939 64.231 124.036 74.799 117.125 89.2312C116.624 89.6112 114.689 90.0654 114.361 89.8456C115.043 88.4408 115.902 86.5522 116.332 84.503C116.406 83.9172 116.476 83.3176 116.476 82.7322C116.476 81.4724 116.173 80.2872 115.045 79.468C113.722 78.8092 112.086 79.1168 110.983 79.614C106.044 81.6632 102.352 86.728 99.688 90.899C98.2552 93.549 96.8266 96.3872 96.431 99.6372C96.1524 102.184 96.7196 103.823 98.1676 104.643C99.6564 105.404 101.53 104.613 102.267 104.233C107.271 101.598 110.767 96.3144 113.523 91.484C113.633 91.4696 115.138 91.426 116.276 91.1328C116.291 91.1328 116.298 91.1328 116.323 91.148C116.258 91.3668 115.669 93.1238 115.669 93.1238C113.923 98.2462 113.115 101.73 114.765 103.794C117.123 106.707 121.026 103.692 124.202 99.7098C123.52 104.481 125.993 105.228 127.878 104.863C130.043 104.277 132.456 101.964 133.576 100.779C133.217 102.169 133.314 104.658 135.284 104.906C136.634 105.156 137.645 104.422 138.814 103.792C143.008 101.508 148.028 93.899 149.331 91.699H147.622C145.769 94.4996 143.411 98.1708 140.446 99.9134ZM102.802 99.4038C102.536 99.0084 102.448 98.5764 102.439 98.1092C102.388 95.239 105.476 90.0994 107.655 87.2994H107.66C108.573 89.2994 110.642 90.585 111.89 91.1268C110.34 94.5814 105.021 101.98 102.802 99.4038ZM112.766 89.5824C112.618 89.6856 110.01 88.8068 109.506 86.3918C109.078 84.3126 110.51 82.688 111.895 81.8692C112.49 81.4004 113.385 81.24 114.042 81.4732C114.652 81.8838 114.817 82.6162 114.817 83.4052C114.817 83.8892 114.753 84.3864 114.696 84.84L114.684 84.9428C114.247 86.5656 113.602 88.125 112.766 89.5824ZM133.685 98.4818C133.683 98.4818 133.19 98.9208 133.19 98.9208C132.486 99.55 131.762 100.223 130.888 99.8864C130.647 99.7988 130.477 99.477 130.436 99.2274C130.397 97.427 131.207 95.7588 131.994 94.1342L132.195 93.7096C134.457 89.9334 137.086 85.4838 140.946 82.3958C141.597 81.9264 142.303 81.532 143.048 81.8396C143.22 82.0004 143.419 82.2786 143.419 82.5564C143.419 82.6446 143.341 82.8786 143.296 82.9516C142.217 84.6942 141.191 86.5234 140.192 88.2798C138.24 91.7488 136.216 95.3342 133.685 98.4818Z" fill="#171717"/>
</svg>
