<svg width="273" height="342" viewBox="0 0 273 342" fill="none" xmlns="http://www.w3.org/2000/svg">
<path fill-rule="evenodd" clip-rule="evenodd" d="M272.372 265.114C271.02 261.676 268.934 258.35 266.623 255.476C259.521 246.682 256.082 235.465 247.853 227.404C242.216 213.2 232.859 201.475 222.938 190.089C219.894 186.651 217.47 182.705 214.483 178.646C227.053 162.187 239.341 146.179 251.46 130.057C257.04 122.561 261.719 114.556 264.819 105.763C261.775 101.479 259.126 97.7025 256.589 94.1513C249.262 95.3351 242.328 96.2368 235.452 97.5332C222.036 100.013 208.339 101.705 195.318 105.594C186.975 108.074 178.52 107.905 170.291 109.878C166.063 110.892 162.117 108.807 159.243 104.974C147.011 88.6836 137.146 70.9841 129.029 52.3264C121.42 34.6834 115.614 16.1947 104.34 0.299028C94.5324 0.129925 94.0251 0.299041 93.2923 8.41599C92.5596 16.4766 91.714 24.3681 88.5011 31.9214C87.5992 34.007 87.7683 36.5436 87.5992 38.8547C86.4718 54.2994 85.7954 69.7441 83.5971 85.1325C82.7516 91.1074 80.2714 96.9696 82.7516 103.226C83.3717 104.748 82.5825 106.947 82.0752 108.751C79.8205 117.037 79.144 125.435 79.6513 134.06C79.8204 137.273 78.9187 140.542 78.4114 144.488C73.0001 144.431 68.1524 143.417 63.3611 146.686C53.2713 153.619 42.5051 159.312 30.7806 163.314C24.1856 165.569 17.4779 168.106 11.6157 171.713C-2.64536 180.506 -2.92733 189.469 10.6009 200.743C2.99128 203.11 -0.616185 207.507 3.27318 216.131C9.8682 217.709 16.6887 219.569 23.5656 220.922C35.0646 223.177 46.6199 225.037 58.1752 227.179C61.2754 227.743 63.1356 229.772 63.6429 232.872C63.9811 234.732 64.3195 236.649 64.3195 238.509C64.2631 259.872 67.7014 280.841 70.5198 301.866C70.7452 303.67 70.9144 305.868 71.9854 307.165C75.4802 311.449 76.6638 316.183 76.3256 321.595C76.2129 323.229 77.3403 325.541 78.6931 326.442C83.428 329.599 84.5554 334.841 87.1483 339.294C87.5992 340.027 88.5574 340.478 89.9102 341.549C92.5595 341.098 95.7725 340.478 100 339.745C102.818 333.827 105.242 328.697 107.666 323.624C109.075 320.637 110.034 317.198 112.176 314.831C119.109 307.165 126.437 299.837 133.708 292.453C141.261 284.73 148.927 277.064 156.48 269.286C162.681 262.916 168.318 255.87 175.589 252.77C189.568 256.434 202.307 259.703 214.99 263.254C218.541 264.213 221.98 265.791 225.362 267.369C229.589 269.342 248.754 274.471 252.531 273.457C256.477 272.442 259.69 273.231 263.466 274.415C270.118 276.444 274.796 271.315 272.316 264.889L272.372 265.114ZM217.076 206.774C218.147 207.112 219.105 207.563 220.514 208.183C219.5 209.085 218.598 210.1 218.485 209.987C217.639 209.31 216.907 208.409 216.174 207.563C216.174 207.563 216.85 206.661 217.076 206.718V206.774ZM234.944 255.081C232.802 254.686 230.717 254.404 228.631 253.954C226.32 253.446 223.953 253.052 221.754 252.263C211.101 248.486 200.165 245.668 189.005 243.864C185.904 243.357 182.917 241.553 180.042 240.087C170.122 235.127 159.919 231.97 148.645 233.943C146.334 234.338 143.967 233.943 141.261 233.943C132.75 243.131 127.733 254.743 121.927 265.904C115.219 278.812 107.328 290.987 100.113 303.557C99.4927 304.628 98.0836 305.192 96.7871 306.206C93.856 302.768 91.7704 299.386 91.4885 294.82C90.9812 286.872 90.1358 278.924 89.2903 270.977C88.8957 267.256 88.1066 263.592 87.5429 259.872C87.2047 257.561 86.3592 255.137 86.8101 252.995C89.3466 239.862 86.3591 226.559 88.5011 213.482C89.9102 204.914 85.0063 198.995 79.595 193.809C76.0439 190.427 70.6326 190.371 66.0104 191.386C55.5824 193.697 45.3235 192.626 35.0082 190.765C31.1188 190.089 27.3423 188.736 20.6345 186.876C43.0125 178.026 60.9373 166.02 83.2025 166.415C84.8371 164.554 86.1899 162.582 87.9373 161.116C93.4614 156.437 94.7579 150.406 95.0397 143.417C95.4343 133.101 96.9562 122.786 97.8581 112.471C98.4781 105.425 98.7599 98.3225 99.38 91.2765C100.507 78.1429 104.34 65.6292 107.102 51.4245C109.808 53.6229 112.063 54.6375 113.021 56.3849C117.361 64.22 121.363 72.2805 125.535 80.2848C127.057 83.2159 128.353 86.3161 130.326 88.9654C134.159 94.0385 135.85 99.7317 136.808 105.932C139.514 123.575 150.336 134.116 166.739 139.696C168.487 140.316 170.347 140.824 172.714 141.557C177.9 139.189 182.973 136.089 188.103 132.65C202.646 122.899 218.203 115.346 236.41 114.782C238.721 118.84 236.974 121.997 234.775 125.097C223.445 141.275 212.285 157.734 198.136 171.6C192.556 177.068 190.583 182.93 189.963 190.315C189.625 194.486 190.921 197.924 192.669 201.024C195.149 205.534 198.136 210.156 202.026 213.312C213.13 222.331 221.529 233.605 230.209 244.709C232.521 247.697 235.734 249.67 235.001 254.968L234.944 255.081ZM211.27 201.024C208.846 198.431 206.479 195.839 203.209 192.287C206.629 193.227 209.316 196.139 211.27 201.024Z" fill="url(#paint0_linear_1_26655)"/>
<defs>
<linearGradient id="paint0_linear_1_26655" x1="0.68164" y1="-11.6507" x2="81.9658" y2="381.085" gradientUnits="userSpaceOnUse">
<stop offset="0.0778503" stop-color="#AB8757"/>
<stop offset="0.369009" stop-color="#C7A16D"/>
<stop offset="0.591702" stop-color="#DAB27E"/>
<stop offset="0.930539" stop-color="#B99768"/>
</linearGradient>
</defs>
</svg>
