<svg width="504" height="636" viewBox="0 0 504 636" fill="none" xmlns="http://www.w3.org/2000/svg">
<g clip-path="url(#clip0_2315_4)">
<path d="M288.538 212.873C288.248 213.744 287.957 214.906 287.957 216.068L288.538 212.873Z" fill="url(#paint0_linear_2315_4)"/>
<path d="M297.832 205.61C298.122 205.61 298.413 205.611 298.703 205.32C298.413 205.32 298.122 205.61 297.832 205.61Z" fill="url(#paint1_linear_2315_4)"/>
<path d="M300.735 331.939L301.025 331.068C301.025 331.649 300.735 331.939 300.735 331.939Z" fill="url(#paint2_linear_2315_4)"/>
<path d="M284.472 218.971C284.762 218.39 284.762 218.39 284.472 218.971Z" fill="url(#paint3_linear_2315_4)"/>
<path d="M287.378 219.842C287.958 219.842 288.249 219.552 289.12 218.681C288.249 219.261 287.668 219.552 287.378 219.842Z" fill="url(#paint4_linear_2315_4)"/>
<path d="M270.824 256.433C271.114 256.723 271.404 256.723 271.404 257.014C271.404 256.723 271.114 256.433 270.824 256.433Z" fill="url(#paint5_linear_2315_4)"/>
<path d="M272.856 259.336C271.985 259.626 272.276 258.174 271.404 257.013C271.695 258.465 270.533 261.95 272.856 259.336Z" fill="url(#paint6_linear_2315_4)"/>
<path d="M380.018 285.185L381.761 281.409L380.309 281.99C380.309 282.861 379.147 285.475 380.018 285.185Z" fill="url(#paint7_linear_2315_4)"/>
<path d="M389.601 273.567L388.729 269.792C386.406 273.277 389.02 272.696 386.696 276.472L389.601 273.567Z" fill="url(#paint8_linear_2315_4)"/>
<path d="M393.957 267.758V268.919C394.247 268.048 394.247 267.758 393.957 267.758Z" fill="url(#paint9_linear_2315_4)"/>
<path d="M393.957 267.759L393.667 265.436C393.667 266.017 393.376 266.888 393.086 267.178L392.215 264.855L391.053 270.082L392.505 268.63C392.795 268.63 393.667 267.759 393.957 267.759Z" fill="url(#paint10_linear_2315_4)"/>
<path d="M415.158 209.386L414.287 212L415.158 212.871V209.386Z" fill="url(#paint11_linear_2315_4)"/>
<path d="M417.19 163.793C416.9 163.503 416.9 162.922 416.61 162.341C416.61 162.922 416.61 163.503 417.19 163.793Z" fill="url(#paint12_linear_2315_4)"/>
<path d="M416.61 194.286L416.029 192.544L415.449 193.706L416.61 194.286Z" fill="url(#paint13_linear_2315_4)"/>
<path d="M416.028 160.887C415.738 160.596 415.157 160.016 414.867 159.725L415.157 160.596C415.157 161.468 416.028 161.758 416.028 160.887Z" fill="url(#paint14_linear_2315_4)"/>
<path d="M417.481 154.789L416.32 154.208V156.822C416.32 156.822 416.61 156.241 416.901 155.951C417.191 155.37 417.481 154.789 417.481 154.789Z" fill="url(#paint15_linear_2315_4)"/>
<path d="M304.801 194.865C307.415 193.123 307.995 189.928 310.028 187.605C307.705 189.347 305.672 192.251 304.801 194.865Z" fill="url(#paint16_linear_2315_4)"/>
<path d="M295.798 215.775L294.926 211.709C291.732 214.904 295.507 216.065 296.669 216.646C296.379 215.775 296.669 214.613 295.798 215.775Z" fill="url(#paint17_linear_2315_4)"/>
<path d="M283.311 232.039C282.44 234.943 282.149 238.138 284.472 238.719L285.344 234.653L284.182 236.395C283.601 234.943 283.311 234.072 283.311 232.039C282.44 235.234 283.311 234.072 283.311 232.039Z" fill="url(#paint18_linear_2315_4)"/>
<path d="M284.472 228.554C284.182 228.845 284.182 229.425 283.892 230.006C284.472 229.716 285.053 229.716 284.472 228.554Z" fill="url(#paint19_linear_2315_4)"/>
<path d="M283.311 231.458C283.311 231.749 283.311 231.749 283.311 232.039C283.601 231.168 283.601 230.587 283.892 230.006C283.601 230.006 283.02 230.297 283.311 231.458C283.02 230.297 283.311 231.749 283.311 231.458Z" fill="url(#paint20_linear_2315_4)"/>
<path d="M280.407 243.944C279.827 245.686 279.246 247.138 279.246 247.138L280.988 244.815C279.536 243.653 283.311 242.201 281.859 240.459C281.859 240.749 281.279 242.492 280.407 243.944C279.827 245.686 281.279 242.492 280.407 243.944Z" fill="url(#paint21_linear_2315_4)"/>
<path d="M269.081 274.731L267.048 275.312C266.177 278.797 269.952 284.895 267.048 287.799C268.21 286.057 269.372 291.284 269.662 286.347C267.92 284.314 268.21 277.925 269.081 274.731Z" fill="url(#paint22_linear_2315_4)"/>
<path d="M265.886 290.702C265.306 290.121 265.015 290.992 264.434 291.863C264.434 293.606 265.596 295.058 266.177 294.187C263.563 293.315 267.629 292.154 265.886 290.702C265.306 290.121 267.629 292.154 265.886 290.702Z" fill="url(#paint23_linear_2315_4)"/>
<path d="M271.404 310.158C270.823 308.996 269.952 307.544 270.242 309.286C271.985 312.771 273.437 310.739 275.47 311.61C274.889 308.706 271.113 307.544 271.404 310.158C270.823 308.996 271.113 307.544 271.404 310.158Z" fill="url(#paint24_linear_2315_4)"/>
<path d="M289.991 331.65C289.41 331.94 288.829 332.521 288.829 332.521C289.991 332.23 290.862 331.94 291.733 331.65L290.862 330.778C291.153 330.778 290.572 331.069 289.991 331.65C289.701 331.94 290.572 331.069 289.991 331.65Z" fill="url(#paint25_linear_2315_4)"/>
<path d="M312.352 331.069L313.804 332.231C314.675 331.65 315.546 330.779 316.127 330.198C316.127 330.198 315.256 330.488 314.094 330.779C313.223 331.069 312.352 331.069 312.352 331.069Z" fill="url(#paint26_linear_2315_4)"/>
<path d="M318.16 331.649L321.936 330.488L320.483 330.197C318.451 330.488 319.322 331.359 318.16 331.649Z" fill="url(#paint27_linear_2315_4)"/>
<path d="M327.744 327.583C326.872 328.454 326.001 329.035 324.84 329.906C326.292 329.325 327.453 328.454 328.905 327.583C328.615 327.873 328.034 327.873 327.744 327.583Z" fill="url(#paint28_linear_2315_4)"/>
<path d="M238.008 550.329C233.361 555.556 229.005 560.783 225.23 565.72L238.008 550.329Z" fill="url(#paint29_linear_2315_4)"/>
<path d="M287.958 485.859C288.249 486.73 288.539 487.892 288.83 488.763C288.83 489.925 288.539 491.087 287.958 491.958C288.539 491.377 288.83 490.796 288.83 489.925C289.12 489.054 288.83 487.602 287.958 485.859C288.539 486.73 288.83 487.602 287.958 485.859Z" fill="url(#paint30_linear_2315_4)"/>
<path d="M230.166 306.092C230.746 307.544 231.327 307.835 231.327 307.544C231.327 307.544 231.037 307.254 230.746 306.673C230.456 306.673 230.166 306.092 230.166 306.092Z" fill="url(#paint31_linear_2315_4)"/>
<path d="M203.739 585.467L204.319 584.886C207.514 581.692 206.352 582.853 203.739 585.467Z" fill="url(#paint32_linear_2315_4)"/>
<path d="M238.878 549.167C238.588 549.457 238.297 549.748 238.007 550.329C238.007 550.329 238.297 550.038 238.878 549.167Z" fill="url(#paint33_linear_2315_4)"/>
<path d="M212.741 581.402C214.193 580.24 215.936 578.788 218.259 576.465C215.355 578.788 212.451 581.112 209.837 583.725C210.708 583.145 211.579 582.273 212.741 581.402C211.87 581.983 214.193 580.24 212.741 581.402Z" fill="url(#paint34_linear_2315_4)"/>
<path d="M156.111 67.3749C155.531 67.9559 154.95 68.5369 154.369 69.1179C155.821 67.9559 156.111 67.3749 156.111 67.3749Z" fill="url(#paint35_linear_2315_4)"/>
<path d="M382.051 482.372C382.342 481.501 382.632 480.92 383.213 479.759C381.761 482.082 381.18 482.953 382.051 482.372Z" fill="url(#paint36_linear_2315_4)"/>
<path d="M393.668 466.11C396.282 462.625 396.282 461.753 389.021 469.885C391.926 467.852 386.408 474.822 383.213 480.049C386.698 475.403 390.183 470.756 393.668 466.11C392.216 467.852 396.282 462.625 393.668 466.11Z" fill="url(#paint37_linear_2315_4)"/>
<path d="M114.583 116.455C114.873 115.584 114.293 116.455 114.002 116.746C110.808 121.683 104.419 124.006 99.1911 125.168C93.6731 126.329 86.4131 126.62 81.4761 123.135C81.1861 122.844 80.6051 122.554 80.3141 122.263C80.3141 122.263 80.3151 122.264 80.6051 122.554C82.9281 125.458 87.2841 126.62 91.0601 126.91C94.8351 126.91 98.6101 126.039 102.095 125.168C106.451 123.716 111.679 121.392 114.293 117.327C114.293 116.746 114.583 116.455 114.583 116.455Z" fill="url(#paint38_linear_2315_4)"/>
<path d="M123.877 63.601C120.392 66.795 117.197 70.28 114.003 73.184C111.97 74.927 109.937 76.96 107.323 79.573C111.098 76.088 114.874 72.894 118.649 69.699C120.973 67.666 123.296 65.924 125.619 64.181C125.91 63.891 128.814 62.439 128.814 61.858C128.814 61.858 132.008 58.373 135.493 55.179C138.978 51.984 142.463 48.79 142.463 48.79C139.268 50.822 136.945 52.565 134.912 54.017C130.556 57.211 127.071 60.406 123.877 63.601C122.134 65.053 125.329 62.149 123.877 63.601Z" fill="url(#paint39_linear_2315_4)"/>
<path d="M170.922 35.7191L165.694 39.4941C170.631 36.3001 171.502 35.4281 170.922 35.7191Z" fill="url(#paint40_linear_2315_4)"/>
<path d="M181.957 27.88C179.053 29.623 173.245 33.108 171.212 33.979C174.116 31.656 177.02 29.333 179.924 27.009C169.469 33.108 159.305 39.497 149.431 46.177L161.338 39.207C161.919 39.787 169.76 35.722 170.921 35.141C170.921 34.27 175.858 31.656 176.439 31.365C178.182 30.494 180.215 29.042 181.957 27.88Z" fill="url(#paint41_linear_2315_4)"/>
<path d="M198.511 20.0401C197.64 20.3311 196.768 20.6211 195.897 20.6211C195.897 20.9111 197.059 20.6211 198.511 20.0401Z" fill="url(#paint42_linear_2315_4)"/>
<path d="M416.482 224.778C411.545 208.806 405.737 191.962 396.444 177.732C389.764 166.115 381.633 155.66 371.759 146.948L373.792 148.4C370.597 145.205 366.531 142.592 363.047 139.688C362.466 135.331 362.466 130.975 361.595 126.619C361.014 123.715 359.562 119.649 357.529 113.26C358.4 117.616 358.981 121.682 359.852 126.038C359.852 126.329 359.852 126.91 360.142 127.491C356.658 112.099 350.559 97.288 343.008 83.348C341.556 80.154 341.266 78.992 343.299 81.315C341.847 78.701 340.395 76.378 338.942 74.055C336.329 70.57 333.715 66.795 330.811 63.6C329.359 62.148 328.197 60.986 326.745 59.534C321.518 53.145 315.419 47.047 309.321 41.529C317.452 46.756 333.715 64.181 317.742 45.595C318.033 45.304 300.027 31.945 299.737 32.526C296.252 28.46 291.025 25.556 286.378 22.652C280.86 19.167 274.471 16.263 269.244 12.197C268.663 11.617 268.373 11.326 268.663 11.326C262.855 9.29299 259.37 8.13201 255.885 7.26001C252.69 6.68001 249.496 6.09901 244.559 4.93701C235.266 1.45201 225.973 0 216.099 0C229.458 1.452 238.17 3.77501 244.559 5.51801C248.334 6.68001 252.11 7.84103 255.885 9.29303C259.951 11.036 264.016 12.778 267.792 14.521C271.858 16.844 276.214 18.877 280.279 21.2C283.764 23.523 287.83 25.847 292.477 29.041C292.186 29.041 291.605 28.46 290.734 28.17C258.499 6.96998 219.584 -1.16202 181.249 4.06598C180.378 3.77498 182.121 3.19397 182.121 3.19397C183.573 2.61397 185.025 2.323 186.477 1.742C188.219 1.452 190.542 1.16198 192.285 0.289978C183.573 0.289978 174.86 2.03297 166.438 4.64697C157.726 7.25997 149.304 9.87402 140.592 12.778C143.205 11.617 145.819 10.745 148.433 9.87402C149.304 9.58402 152.789 7.841 153.37 7.841C151.918 7.26 147.271 9.29298 145.819 9.58398C135.655 12.778 126.071 16.554 116.197 20.038C119.973 19.458 124.91 18.006 132.46 15.682C136.236 14.521 140.592 13.359 145.529 11.907C149.014 11.036 152.499 10.164 155.693 9.29303C122.005 18.586 90.06 35.43 61.31 54.888C47.951 63.891 35.173 74.345 23.556 85.962C17.748 91.77 12.521 97.869 7.58401 104.548C5.26002 107.452 2.937 110.647 1.194 113.841C0.323 115.293 -0.257986 116.745 0.614014 118.197C2.64701 121.973 9.907 121.392 13.392 120.811C18.038 120.23 24.718 118.778 27.622 114.422C39.529 96.126 55.501 80.734 72.926 67.666C73.216 67.666 73.507 67.375 73.507 67.666C73.797 67.375 74.088 67.085 74.669 66.504C84.833 59.244 95.288 52.564 106.323 46.756C105.452 47.627 104 48.499 102.548 49.37C100.225 51.112 97.321 52.855 93.545 55.178C111.551 45.885 129.847 37.173 149.014 30.203C166.148 23.814 184.444 20.619 202.74 19.748C203.611 19.748 204.773 20.038 205.644 20.038C210.581 20.91 212.323 21.49 211.742 21.49C209.71 22.071 207.096 21.49 205.063 21.49C201.288 21.49 197.512 21.49 194.027 21.781C187.058 22.071 179.507 22.942 172.827 24.975C237.299 14.521 303.222 55.469 323.26 117.616L323.841 119.649L324.132 120.521L324.422 121.101C324.422 121.101 324.712 121.682 324.422 121.392C322.389 121.101 320.356 120.521 318.033 120.521L314.838 120.23C313.386 120.23 311.934 119.94 310.482 119.94C302.931 119.94 295.381 120.811 287.83 121.973C287.249 123.425 284.926 124.586 281.151 125.748C279.408 126.329 277.085 127.2 274.471 128.071C272.148 129.233 269.244 130.395 266.34 132.137C264.016 132.718 261.984 133.299 259.66 133.879C258.789 134.17 258.499 134.17 258.499 134.17C258.789 133.88 259.079 133.88 259.37 134.17C259.66 134.751 257.337 136.493 259.079 136.203C221.616 153.627 188.51 188.477 169.633 226.521C171.666 219.551 174.57 212.581 178.055 206.192C159.178 239.589 139.14 284.022 157.436 321.485C151.047 312.773 149.014 299.704 148.723 289.249C148.433 277.923 149.885 266.307 153.079 255.562C150.175 264.855 148.723 274.729 148.142 284.312C147.852 289.249 148.142 294.477 148.433 299.414C148.723 301.156 150.175 305.803 149.014 307.545L151.918 310.74C153.079 314.515 153.951 317.419 154.822 319.452C155.112 320.614 156.564 322.647 156.274 323.808C156.274 323.808 154.531 321.775 154.241 321.485C153.37 320.323 152.789 319.162 151.918 317.71C150.756 315.677 149.885 315.096 150.466 318C153.951 327.293 158.307 333.973 162.082 338.329C164.115 340.652 165.858 342.395 167.6 343.556C169.342 345.008 170.504 346.17 171.956 346.751C174.57 348.203 176.022 349.074 177.184 349.074C178.636 349.364 179.216 348.493 180.669 348.203C182.701 348.203 185.025 349.074 187.057 349.655C196.351 353.721 206.515 355.173 216.679 354.882C226.844 355.173 237.299 352.559 246.592 349.364C245.721 349.945 245.14 350.236 244.849 350.526C244.269 351.397 246.301 351.397 247.463 351.397C255.885 346.751 264.597 342.395 273.019 338.038C282.312 333.392 291.025 327.583 299.156 321.194C302.641 318 306.416 315.096 310.482 310.74C311.353 310.74 307.868 314.805 303.803 318.871C299.737 323.227 295.09 327.003 294.51 328.455C307.868 317.419 319.485 304.641 329.649 290.411C332.553 285.764 336.91 280.247 338.071 274.729C340.975 270.373 343.299 265.726 345.622 261.37C348.526 254.981 351.43 248.592 354.334 242.203C360.723 224.488 365.37 206.482 366.822 187.896C366.822 187.896 366.822 188.186 367.112 188.186C367.112 191.09 365.37 198.06 367.984 199.803C368.564 200.384 368.564 201.545 368.564 202.126C368.855 205.03 368.564 207.934 368.274 210.838C368.855 204.449 369.436 198.06 369.436 191.671C379.019 207.353 385.118 224.488 388.893 242.493C391.507 259.047 392.088 276.181 390.636 292.734C390.055 292.734 389.474 291.573 388.603 289.249C388.312 299.704 384.537 310.159 384.827 320.614C385.118 330.778 381.633 340.943 378.438 350.526C380.762 343.556 382.795 336.296 384.537 329.326C384.247 331.069 383.956 332.521 383.666 333.973C378.438 355.173 370.597 376.082 361.014 396.121C361.014 394.669 361.885 391.474 358.69 398.153C358.11 400.186 357.238 402.8 356.077 405.414C345.912 427.485 330.23 446.943 315.419 465.819C315.419 465.819 316.581 464.367 317.452 462.915C318.323 461.463 319.485 460.011 319.485 460.011C313.096 467.852 306.416 475.112 299.447 482.373C299.156 482.663 299.447 482.373 299.156 482.373C298.866 482.953 298.866 483.244 298.575 483.825C289.573 491.956 273.6 507.638 254.723 523.901C252.69 526.515 249.786 528.838 247.173 530.871C242.526 534.937 237.589 538.712 232.362 542.488C220.455 551.2 207.967 558.751 195.479 566.301C188.219 570.077 182.701 573.562 180.088 575.014C189.381 570.077 197.222 565.72 208.548 559.331L207.967 562.235C197.803 568.044 197.222 568.044 196.641 567.753C196.351 567.753 196.06 567.463 186.477 573.271C189.671 573.562 193.737 570.948 196.06 569.786C201.288 567.173 205.934 563.978 210.871 560.784C216.97 556.718 222.778 552.652 228.877 548.296C222.778 553.814 215.808 558.751 208.838 563.107C214.937 559.332 221.036 555.556 227.134 551.491C220.164 556.428 212.904 560.784 205.353 565.14C206.515 564.559 207.677 563.688 208.838 563.107C197.512 569.786 186.186 576.175 174.279 581.693C175.441 580.531 175.151 580.241 170.795 581.693C164.406 584.597 157.726 586.921 151.337 589.534C144.658 592.148 138.268 595.342 131.879 597.956C124.91 600.279 117.649 602.312 110.679 604.055C110.099 604.055 109.808 603.764 109.518 603.764C109.518 603.474 109.518 603.184 109.227 602.893C108.937 602.603 108.066 602.603 106.614 602.603C109.518 599.989 112.712 596.504 117.649 591.857L114.164 596.214C113.293 597.666 112.422 598.827 110.389 600.57C111.841 599.989 113.293 599.408 114.745 598.827C114.455 598.537 113.874 598.537 113.874 598.537C115.907 596.794 118.811 594.762 120.263 592.438C122.005 589.244 123.748 586.921 126.362 584.307C123.167 586.63 122.006 586.63 111.26 597.666C111.26 597.666 110.389 598.247 110.099 597.956C109.518 597.085 113.584 593.309 114.164 592.729C116.197 590.405 118.23 588.082 120.553 586.049L117.359 589.244C117.649 588.954 117.649 588.663 117.94 588.373C131.589 574.723 145.529 560.784 158.597 546.263L158.888 545.973C158.016 547.425 156.855 548.586 155.984 549.748C161.211 543.359 166.438 536.97 171.666 530.871C176.022 525.353 180.088 520.126 184.444 514.608V514.899C185.025 514.027 185.605 513.156 186.186 512.285C190.833 506.186 195.189 500.088 199.545 493.989C199.545 494.279 199.255 494.57 199.545 494.57C200.126 494.86 201.868 491.666 202.159 491.375C203.321 490.214 202.449 488.181 200.997 486.438C204.482 488.471 203.03 491.375 201.288 493.989C194.027 504.734 186.477 514.899 178.345 524.773C182.411 519.836 186.186 514.608 191.123 510.833C192.575 509.671 191.123 512.866 183.863 522.159C187.638 518.964 190.542 514.318 193.447 510.252C196.932 505.025 200.416 499.797 204.192 494.57C204.773 493.699 205.063 492.827 205.644 491.956C203.901 494.57 205.644 489.923 204.482 490.795C205.934 490.504 205.063 487.6 204.773 486.729C203.901 484.696 202.449 483.244 200.997 481.792C196.932 478.307 192.285 475.693 187.348 473.66C182.411 471.627 177.184 470.175 171.956 469.304C170.795 469.304 162.663 468.143 162.082 470.175C169.923 468.723 178.636 471.047 185.896 473.951C186.186 474.532 180.959 473.37 180.669 473.37C177.184 472.499 173.699 471.918 170.214 471.918C167.31 471.337 164.115 471.337 161.211 471.918C158.016 472.789 156.564 474.822 154.822 477.436C150.466 483.825 146.11 489.923 141.463 496.022C132.17 508.51 122.005 520.416 111.841 532.033C101.386 543.649 90.351 554.975 79.025 566.011C73.216 571.819 67.408 577.627 61.6 583.436C56.373 588.663 50.274 593.019 44.756 597.666C44.466 597.085 45.337 596.214 45.337 595.342C45.337 594.181 41.852 596.794 41.562 596.794C36.915 600.86 31.107 606.088 29.945 612.767C29.364 615.09 29.945 617.704 31.978 619.156C32.849 619.737 33.43 619.447 34.011 619.447C38.367 624.093 45.337 626.997 51.436 629.321C53.178 631.353 56.953 632.515 61.019 632.515C72.636 635.419 84.542 636 96.159 636C108.356 636 120.844 635.71 133.041 634.838C158.016 633.386 182.992 630.192 207.677 626.707C207.677 626.997 206.806 627.578 204.192 628.449C221.326 626.417 213.485 626.707 211.452 626.416C219.874 625.255 228.296 624.093 236.718 622.641C237.879 622.932 238.46 623.222 230.329 624.964C244.559 623.512 246.592 622.351 248.044 620.899C263.726 618.285 279.699 615.671 295.381 612.477C298.285 612.186 300.899 612.186 302.641 612.186C311.063 610.444 319.485 608.411 327.616 605.507C335.748 603.474 343.589 601.441 351.43 599.118C348.236 600.279 346.203 601.441 347.074 602.022C356.658 598.537 365.951 594.762 375.534 591.277C381.342 588.953 371.469 582.274 369.436 580.822C364.789 577.627 359.852 575.304 354.334 573.562C350.559 572.4 346.493 571.238 342.427 570.948C337.781 570.657 334.005 571.819 329.649 573.271C320.937 576.175 312.225 578.789 303.512 581.112C267.792 590.405 231.2 595.633 194.899 601.731C179.216 604.345 163.534 606.668 147.852 608.701C213.775 586.049 273.89 546.844 320.937 495.151C322.97 493.118 324.712 491.375 326.164 489.923C328.488 487.31 330.811 484.696 332.844 481.501C336.619 476.855 340.395 472.208 343.879 467.562C341.266 472.208 339.523 475.984 336.91 480.63C341.847 473.951 344.46 469.304 346.784 466.11C348.236 463.786 349.107 461.753 350.269 459.721C353.463 455.074 356.658 450.718 359.852 446.071C360.433 445.49 360.433 446.362 361.014 446.071C363.627 441.715 365.37 438.23 366.822 435.036C374.663 422.548 381.633 409.48 387.731 396.121C390.926 390.312 393.249 383.923 395.863 377.825C399.058 370.274 401.671 362.723 404.285 354.882C409.222 339.49 413.288 323.518 416.192 307.545C416.773 305.512 417.353 302.899 418.225 301.156C417.934 299.995 417.644 298.543 417.644 297.381C419.386 283.151 419.967 267.759 418.805 252.367C418.515 246.849 417.934 241.041 417.354 235.523C416.482 230.586 415.901 225.649 414.74 221.003C414.74 221.003 414.74 219.26 415.03 219.26C415.901 219.26 416.773 223.907 417.063 224.488C419.096 235.233 420.258 246.268 422 257.014C421.419 246.849 420.548 240.17 419.967 235.523C417.934 230.586 417.353 227.682 416.482 224.778C415.03 219.551 417.353 227.682 416.482 224.778ZM318.614 258.175L317.742 257.304C318.614 255.562 318.904 256.433 319.775 255.852C319.485 256.433 319.195 257.304 318.614 258.175ZM187.638 251.206C186.767 252.077 185.896 251.496 185.896 250.625C186.477 249.173 187.058 247.721 187.638 246.268C187.058 248.011 187.058 249.463 187.638 251.206C186.767 252.077 187.058 249.463 187.638 251.206ZM182.992 308.126C182.992 307.836 182.992 307.545 183.282 307.255C183.282 307.255 183.863 309.288 184.734 311.321C185.025 311.901 185.315 312.482 185.315 313.063C184.444 311.321 183.863 309.578 182.992 308.126C183.282 307.836 183.863 309.578 182.992 308.126ZM185.896 250.915C185.896 252.077 185.606 252.367 185.315 252.948C185.315 252.077 185.605 251.496 185.896 250.915ZM294.51 295.638C294.219 295.638 294.219 295.348 294.219 295.057C294.219 295.348 294.219 295.638 294.219 295.929C293.058 297.381 291.896 298.542 290.444 299.995C290.444 299.123 290.444 298.542 291.315 297.671C286.378 299.704 280.57 306.093 279.699 310.74L279.408 311.03C275.923 312.192 279.989 307.255 280.57 304.932C270.986 312.482 261.112 320.033 250.367 325.551C251.529 328.164 250.077 327.874 248.915 330.197L247.463 329.907C248.044 330.197 247.753 331.359 248.334 331.94C242.236 334.844 235.847 336.586 229.748 337.458C230.329 336.296 231.2 335.134 232.362 334.263C227.134 337.167 221.036 335.134 215.518 335.134C216.099 334.553 218.132 334.263 219.874 333.682C221.907 333.392 223.649 332.811 224.521 332.811C223.359 332.811 217.841 333.682 217.841 331.94L216.97 333.973C212.904 333.392 217.841 332.23 216.679 330.778C215.227 330.488 212.904 330.197 211.742 331.359C210.581 332.52 210.581 334.553 208.838 335.134C207.386 334.553 205.934 333.973 204.773 333.101C204.482 332.811 204.192 332.521 203.901 332.521C203.03 331.94 201.869 331.359 200.997 330.778C201.869 330.488 202.159 329.326 202.449 328.745C199.836 329.326 198.964 328.455 198.384 327.003C197.512 325.551 197.222 323.518 194.608 321.485C195.479 320.614 197.803 322.647 198.964 321.775C195.77 320.323 192.285 316.257 189.962 316.838C186.477 311.611 185.605 307.255 184.153 304.06C185.896 306.964 187.348 304.641 189.381 306.093C188.219 305.222 187.058 304.06 185.896 303.189C184.734 301.737 183.573 300.285 182.411 298.542C181.54 297.09 180.668 295.638 179.797 294.186C179.507 291.573 179.216 288.959 179.216 286.636C179.797 286.636 180.378 286.636 181.249 286.926C181.83 283.151 181.54 282.86 180.959 282.28C180.378 281.699 179.507 281.408 180.088 277.633L179.507 280.827V280.537C179.797 277.052 180.088 273.567 180.669 270.373C181.249 270.663 181.83 271.244 181.83 270.082C181.249 269.211 180.959 268.34 181.249 267.468C181.249 267.178 181.54 266.888 181.54 266.597C182.411 263.693 185.025 261.66 185.605 258.756V259.918C185.896 259.337 187.638 256.143 188.219 256.143C188.219 256.143 188.219 256.143 188.51 256.143C188.51 256.143 188.219 255.852 187.929 255.852C189.962 254.69 191.995 252.077 193.156 248.301C191.995 246.268 197.222 237.266 196.641 235.233C196.351 236.685 195.77 238.137 194.608 239.589L192.866 238.427C194.318 235.233 194.608 239.008 194.899 235.523C191.995 234.652 192.866 239.88 191.414 242.203C191.123 241.041 191.123 239.589 191.414 238.137C191.123 239.008 190.542 239.589 190.252 240.46C190.833 239.299 191.123 238.427 191.704 237.266C191.704 237.556 191.414 237.847 191.414 238.137C191.994 236.975 192.285 236.104 192.866 234.943C193.156 234.362 193.447 233.49 194.027 232.91C194.318 233.2 194.899 233.49 195.479 232.91C198.093 230.006 197.512 228.553 197.222 226.811C197.803 225.94 198.384 224.778 198.964 223.907C200.126 223.907 201.288 224.778 203.321 221.293L202.74 224.778C206.806 223.326 203.321 221.583 205.063 219.551C203.901 219.841 203.321 219.551 201.868 221.874C200.707 221.584 201.578 219.551 201.868 218.679L201.578 219.26V218.97C203.03 216.356 204.482 214.033 206.225 211.419L205.934 212.29C206.515 210.838 207.386 209.386 207.967 208.225C208.548 207.644 208.838 206.773 209.419 206.192V206.482C209.419 206.192 209.419 206.192 209.419 205.901C210 205.03 210.581 203.869 211.452 202.997C211.743 203.578 212.033 203.578 212.614 202.417C213.775 204.159 210.29 207.644 209.419 208.515C210.871 206.773 214.066 206.192 212.033 209.386C213.775 209.386 213.195 206.192 214.937 205.03C214.356 205.03 214.356 204.159 213.775 204.159C215.518 205.321 217.841 198.641 216.679 197.77L215.518 201.255C214.647 200.674 214.937 198.931 214.647 197.77C219.874 190.51 225.682 183.54 232.071 176.86C232.652 177.441 232.942 178.893 234.104 178.603C237.589 176.279 235.847 175.408 234.975 173.956C241.364 167.858 248.334 162.049 255.594 157.112C255.885 157.403 255.885 157.693 255.885 158.274C258.208 157.112 256.756 157.112 256.175 156.822C257.337 156.241 258.208 155.37 259.37 154.789C259.66 155.079 260.241 155.37 259.079 156.241C261.403 155.66 261.112 154.789 260.822 153.627C262.855 152.466 264.888 151.304 266.921 150.143C267.501 150.143 268.082 150.433 268.663 150.723C270.405 149.852 271.277 148.69 271.858 148.11C273.019 147.529 274.181 147.238 275.342 146.658C274.762 147.238 274.762 147.819 275.052 148.69C276.795 146.367 278.247 145.786 279.989 144.915C283.764 143.754 287.83 142.592 291.605 142.011C306.997 140.269 321.518 142.592 335.167 150.143C335.458 153.337 336.038 156.241 336.038 159.436C335.167 161.469 335.748 162.049 336.329 162.34C336.329 163.211 336.329 164.082 336.619 164.953C335.748 164.082 334.586 163.501 334.005 162.921C334.877 164.953 335.748 165.825 336.619 166.405C336.619 167.277 336.619 168.148 336.619 168.729C336.329 169.019 335.748 168.729 335.458 169.019C335.748 169.89 336.038 170.471 336.619 170.762C336.619 173.085 336.619 175.118 336.619 177.441C336.619 177.441 336.619 177.732 336.619 178.603C336.619 182.959 336.329 187.025 336.038 191.381C335.748 191.962 335.167 192.252 334.877 192.252C335.167 192.252 335.748 192.543 336.038 192.833C335.748 194.866 335.458 197.189 335.458 199.222L334.005 204.159C331.392 205.03 333.715 200.674 332.844 198.351C331.682 204.159 332.844 202.416 333.425 207.063C333.134 208.225 333.425 209.677 333.715 211.129C333.425 213.162 332.844 214.904 332.553 216.937C332.553 216.647 332.553 216.647 332.263 216.356C331.682 220.422 329.359 217.808 329.649 222.164C330.23 221.584 331.101 221.003 331.682 220.422C331.101 222.745 330.521 224.778 329.94 227.101C329.649 227.682 329.068 227.973 328.488 227.101C327.907 229.134 328.197 230.586 328.778 231.458C328.488 232.619 327.907 233.781 327.616 234.943C326.745 233.2 327.616 230.006 325.293 232.91L326.164 236.685C325.293 236.975 323.26 241.912 321.518 241.041C321.227 242.784 321.808 243.364 321.808 245.107C320.356 245.978 319.485 246.849 319.775 248.882C323.841 242.203 323.551 244.526 326.455 238.427C326.455 238.427 326.455 238.718 326.455 239.008C324.712 244.236 322.389 249.753 320.066 254.69C319.195 254.981 318.904 252.948 318.323 252.367C316 255.852 318.614 257.304 316 259.918C317.162 254.4 313.967 261.079 312.225 262.241C314.258 262.241 316 261.08 318.323 258.175C311.934 272.115 304.093 284.603 294.51 295.638C294.219 295.638 296.833 293.025 294.51 295.638ZM165.567 5.51801C167.89 4.93701 170.214 4.35598 172.537 4.06598C174.86 3.77498 176.893 4.06598 179.216 4.06598C173.989 4.93698 168.762 5.80797 163.534 6.96997L165.567 5.51801ZM363.918 200.093C363.337 203.578 362.756 207.063 361.885 210.838C359.562 219.841 357.238 228.844 354.044 237.556C358.11 226.521 361.014 214.904 362.756 203.288C363.047 201.836 363.627 200.093 363.918 197.77C364.208 197.77 363.918 198.641 363.918 200.093C363.627 201.836 363.918 198.641 363.918 200.093ZM291.025 497.184C287.54 500.959 284.055 504.444 280.57 507.929C283.764 504.154 287.249 500.669 291.025 497.184C289.573 498.636 289.863 498.345 291.025 497.184ZM277.956 507.638C283.764 502.411 283.184 504.444 280.279 507.929C272.729 515.48 264.597 522.74 256.466 529.419C264.307 523.03 271.567 515.77 277.956 507.638C272.438 514.899 284.055 502.701 277.956 507.638Z" fill="url(#paint43_linear_2315_4)"/>
<path d="M486.889 189.057C488.05 190.8 488.341 192.252 488.341 192.252C488.341 192.252 488.341 191.961 488.05 191.671C487.179 188.767 485.437 186.153 484.275 183.54C483.694 182.087 482.823 180.635 481.952 179.183C481.661 178.603 480.5 177.441 480.5 176.86L477.015 172.794C480.79 177.731 483.985 183.249 486.889 189.057C486.018 187.024 488.05 190.8 486.889 189.057Z" fill="url(#paint44_linear_2315_4)"/>
<path d="M500.829 301.739C500.829 300.577 500.539 300.577 500.248 301.158C500.539 301.448 500.539 301.739 500.829 301.739Z" fill="url(#paint45_linear_2315_4)"/>
<path d="M418.933 480.921C417.19 483.244 415.738 485.277 413.415 488.472C415.738 485.568 417.481 483.244 418.933 480.921Z" fill="url(#paint46_linear_2315_4)"/>
<path d="M501.7 304.932L503.442 297.962L502.571 294.768L501.7 304.932Z" fill="url(#paint47_linear_2315_4)"/>
<path d="M407.026 496.313L402.089 503.573L406.445 498.346C410.221 494.28 411.092 492.247 407.026 496.313Z" fill="url(#paint48_linear_2315_4)"/>
<path d="M370.435 530.871C376.243 525.934 381.761 520.997 387.569 515.769L376.243 524.191C376.243 525.063 373.92 527.095 373.339 527.386C372.178 528.547 371.306 529.709 370.435 530.871Z" fill="url(#paint49_linear_2315_4)"/>
<path d="M199.092 521.869C206.061 514.028 211.87 505.606 216.807 498.927C203.738 513.738 192.122 529.71 178.472 544.231C185.733 537.261 192.412 529.71 199.092 521.869C195.607 525.935 206.061 514.028 199.092 521.869Z" fill="url(#paint50_linear_2315_4)"/>
<path d="M258.627 534.357C259.498 532.615 260.079 531.743 260.079 531.743C240.041 554.105 247.882 550.329 249.624 550.62C252.528 546.264 256.885 540.746 249.624 549.168C252.528 543.94 255.723 539.294 258.627 534.357C257.756 535.809 259.498 532.615 258.627 534.357Z" fill="url(#paint51_linear_2315_4)"/>
<path d="M231.618 586.049C237.716 583.435 243.525 580.821 249.333 577.917C253.979 575.594 258.916 573.271 262.692 569.786C263.853 568.624 264.144 568.043 262.982 568.043C254.851 572.399 246.719 576.465 238.297 580.24C242.653 578.498 247.01 576.755 251.366 574.723C245.267 579.369 238.297 582.854 231.618 586.049C236.264 583.725 241.201 581.983 231.618 586.049Z" fill="url(#paint52_linear_2315_4)"/>
<path d="M216.227 591.567C214.775 591.567 213.613 592.438 212.451 593.309C214.194 592.729 215.936 592.148 217.679 591.567C217.388 591.567 216.808 591.857 216.808 591.857L216.227 591.567Z" fill="url(#paint53_linear_2315_4)"/>
<path d="M228.132 587.792C229.584 587.212 230.456 586.631 231.617 586.34C226.971 588.083 222.324 589.825 217.677 591.568C220.001 590.987 222.905 590.116 228.132 587.792C222.905 590.116 229.584 587.212 228.132 587.792Z" fill="url(#paint54_linear_2315_4)"/>
<path d="M288.248 555.847C297.831 550.33 306.544 543.94 315.546 537.551C319.031 534.938 321.354 532.905 321.354 532.905C316.418 536.39 311.48 539.875 306.253 543.069C304.22 547.135 287.086 554.395 281.568 559.623C281.859 559.623 284.472 558.171 288.248 555.847C284.472 558.171 292.313 553.524 288.248 555.847Z" fill="url(#paint55_linear_2315_4)"/>
<path d="M467.722 288.67C467.722 288.38 468.012 287.508 468.303 286.056C468.012 286.928 468.012 287.799 467.722 288.67Z" fill="url(#paint56_linear_2315_4)"/>
<path d="M466.851 282.86C466.851 282.57 466.851 281.118 466.561 280.827C466.851 280.827 465.98 286.635 465.69 287.216C465.399 290.411 465.109 293.605 464.818 296.509C464.818 300.285 464.528 303.77 464.528 307.545C463.366 315.677 462.205 323.518 460.462 331.649C458.429 340.071 456.106 348.203 453.492 356.334C450.879 363.304 448.556 369.693 446.232 374.63C447.394 373.468 448.555 372.016 449.717 370.855C455.235 357.496 458.72 343.556 461.624 329.616C464.238 315.967 465.399 302.318 467.723 288.668C467.142 290.12 467.142 285.764 466.851 282.86C466.561 281.118 467.142 285.764 466.851 282.86Z" fill="url(#paint57_linear_2315_4)"/>
<path d="M469.174 258.175C469.174 259.917 469.174 261.66 469.464 263.402C469.464 263.693 470.335 267.178 470.335 267.178C470.916 266.597 470.626 264.854 470.626 263.983C470.626 262.241 470.916 260.498 470.916 259.046C470.335 248.011 467.141 236.394 467.431 242.493C469.754 247.43 468.883 252.657 469.174 258.175C469.174 256.142 469.174 260.208 469.174 258.175Z" fill="url(#paint58_linear_2315_4)"/>
<path d="M444.78 223.326C443.038 229.134 441.295 234.942 439.843 240.751C438.682 246.268 438.101 251.786 436.068 257.014C440.134 249.463 443.328 241.041 445.071 232.619C445.361 230.876 446.523 227.682 445.942 225.94C445.651 225.359 443.038 231.457 443.038 231.748C445.942 223.035 448.556 210.548 444.78 223.326C443.909 226.811 448.556 210.548 444.78 223.326Z" fill="url(#paint59_linear_2315_4)"/>
<path d="M286.216 356.625C283.312 356.334 280.408 356.334 277.504 356.044C277.504 356.044 279.537 356.625 281.279 357.205C283.312 357.496 285.345 358.077 285.345 358.077C288.54 357.786 291.734 357.496 294.929 356.625C292.025 356.625 289.12 356.915 286.216 356.625C284.184 356.625 288.249 356.915 286.216 356.625Z" fill="url(#paint60_linear_2315_4)"/>
<path d="M254.851 211.418C258.045 205.029 261.53 198.931 265.306 192.832C264.725 192.832 262.982 196.027 262.692 196.608C260.659 199.802 258.336 202.997 256.593 206.191C256.013 207.062 248.171 219.26 248.752 220.131C250.495 217.807 252.237 215.484 253.98 212.87C254.56 211.709 254.851 211.418 254.851 211.418Z" fill="url(#paint61_linear_2315_4)"/>
<path d="M274.6 183.829C273.728 184.7 273.438 185.281 273.438 185.281C274.019 184.991 274.309 184.41 274.6 183.829Z" fill="url(#paint62_linear_2315_4)"/>
<path d="M289.119 167.857C290.861 166.114 292.313 164.953 292.313 164.953C292.313 164.953 290.571 166.405 288.538 168.147C286.796 169.89 284.763 171.342 284.763 171.342C282.439 173.665 279.826 176.279 277.793 178.892C276.631 180.635 275.76 182.377 274.308 183.829C279.245 178.312 284.182 173.084 289.119 167.857C287.376 169.89 291.152 166.114 289.119 167.857Z" fill="url(#paint63_linear_2315_4)"/>
<path d="M336.746 133.299C337.037 133.009 337.618 133.009 337.908 132.719C337.908 132.719 337.327 133.009 336.746 133.299Z" fill="url(#paint64_linear_2315_4)"/>
<path d="M333.262 135.041C334.424 134.46 335.585 133.879 336.747 133.299C334.714 134.17 332.972 135.041 330.939 135.912C327.164 138.235 323.679 140.559 320.194 142.882C316.709 145.496 313.514 147.819 310.029 150.433C310.029 150.433 311.772 149.271 314.095 147.238C316.709 145.496 319.903 142.882 323.388 140.849C326.873 138.816 330.648 136.783 333.262 135.041C330.648 136.783 334.714 134.46 333.262 135.041Z" fill="url(#paint65_linear_2315_4)"/>
</g>
<defs>
<linearGradient id="paint0_linear_2315_4" x1="288.538" y1="216.179" x2="286.63" y2="214.078" gradientUnits="userSpaceOnUse">
<stop offset="0.0778503" stop-color="#AB8757"/>
<stop offset="0.369009" stop-color="#C7A16D"/>
<stop offset="0.591702" stop-color="#DAB27E"/>
<stop offset="0.930539" stop-color="#B99768"/>
</linearGradient>
<linearGradient id="paint1_linear_2315_4" x1="298.703" y1="205.621" x2="298.684" y2="205.273" gradientUnits="userSpaceOnUse">
<stop offset="0.0778503" stop-color="#AB8757"/>
<stop offset="0.369009" stop-color="#C7A16D"/>
<stop offset="0.591702" stop-color="#DAB27E"/>
<stop offset="0.930539" stop-color="#B99768"/>
</linearGradient>
<linearGradient id="paint2_linear_2315_4" x1="301.025" y1="331.97" x2="300.61" y2="331.13" gradientUnits="userSpaceOnUse">
<stop offset="0.0778503" stop-color="#AB8757"/>
<stop offset="0.369009" stop-color="#C7A16D"/>
<stop offset="0.591702" stop-color="#DAB27E"/>
<stop offset="0.930539" stop-color="#B99768"/>
</linearGradient>
<linearGradient id="paint3_linear_2315_4" x1="284.689" y1="218.986" x2="284.534" y2="218.515" gradientUnits="userSpaceOnUse">
<stop offset="0.0778503" stop-color="#AB8757"/>
<stop offset="0.369009" stop-color="#C7A16D"/>
<stop offset="0.591702" stop-color="#DAB27E"/>
<stop offset="0.930539" stop-color="#B99768"/>
</linearGradient>
<linearGradient id="paint4_linear_2315_4" x1="289.12" y1="219.883" x2="288.968" y2="218.505" gradientUnits="userSpaceOnUse">
<stop offset="0.0778503" stop-color="#AB8757"/>
<stop offset="0.369009" stop-color="#C7A16D"/>
<stop offset="0.591702" stop-color="#DAB27E"/>
<stop offset="0.930539" stop-color="#B99768"/>
</linearGradient>
<linearGradient id="paint5_linear_2315_4" x1="271.404" y1="257.034" x2="271.292" y2="256.355" gradientUnits="userSpaceOnUse">
<stop offset="0.0778503" stop-color="#AB8757"/>
<stop offset="0.369009" stop-color="#C7A16D"/>
<stop offset="0.591702" stop-color="#DAB27E"/>
<stop offset="0.930539" stop-color="#B99768"/>
</linearGradient>
<linearGradient id="paint6_linear_2315_4" x1="272.856" y1="260.395" x2="271.602" y2="256.927" gradientUnits="userSpaceOnUse">
<stop offset="0.0778503" stop-color="#AB8757"/>
<stop offset="0.369009" stop-color="#C7A16D"/>
<stop offset="0.591702" stop-color="#DAB27E"/>
<stop offset="0.930539" stop-color="#B99768"/>
</linearGradient>
<linearGradient id="paint7_linear_2315_4" x1="381.761" y1="285.34" x2="380.494" y2="281.167" gradientUnits="userSpaceOnUse">
<stop offset="0.0778503" stop-color="#AB8757"/>
<stop offset="0.369009" stop-color="#C7A16D"/>
<stop offset="0.591702" stop-color="#DAB27E"/>
<stop offset="0.930539" stop-color="#B99768"/>
</linearGradient>
<linearGradient id="paint8_linear_2315_4" x1="389.601" y1="276.705" x2="386.94" y2="269.7" gradientUnits="userSpaceOnUse">
<stop offset="0.0778503" stop-color="#AB8757"/>
<stop offset="0.369009" stop-color="#C7A16D"/>
<stop offset="0.591702" stop-color="#DAB27E"/>
<stop offset="0.930539" stop-color="#B99768"/>
</linearGradient>
<linearGradient id="paint9_linear_2315_4" x1="394.175" y1="268.96" x2="393.483" y2="268.175" gradientUnits="userSpaceOnUse">
<stop offset="0.0778503" stop-color="#AB8757"/>
<stop offset="0.369009" stop-color="#C7A16D"/>
<stop offset="0.591702" stop-color="#DAB27E"/>
<stop offset="0.930539" stop-color="#B99768"/>
</linearGradient>
<linearGradient id="paint10_linear_2315_4" x1="393.957" y1="270.265" x2="392.244" y2="264.501" gradientUnits="userSpaceOnUse">
<stop offset="0.0778503" stop-color="#AB8757"/>
<stop offset="0.369009" stop-color="#C7A16D"/>
<stop offset="0.591702" stop-color="#DAB27E"/>
<stop offset="0.930539" stop-color="#B99768"/>
</linearGradient>
<linearGradient id="paint11_linear_2315_4" x1="415.158" y1="212.993" x2="413.235" y2="210.081" gradientUnits="userSpaceOnUse">
<stop offset="0.0778503" stop-color="#AB8757"/>
<stop offset="0.369009" stop-color="#C7A16D"/>
<stop offset="0.591702" stop-color="#DAB27E"/>
<stop offset="0.930539" stop-color="#B99768"/>
</linearGradient>
<linearGradient id="paint12_linear_2315_4" x1="417.19" y1="163.844" x2="416.576" y2="162.355" gradientUnits="userSpaceOnUse">
<stop offset="0.0778503" stop-color="#AB8757"/>
<stop offset="0.369009" stop-color="#C7A16D"/>
<stop offset="0.591702" stop-color="#DAB27E"/>
<stop offset="0.930539" stop-color="#B99768"/>
</linearGradient>
<linearGradient id="paint13_linear_2315_4" x1="416.61" y1="194.347" x2="416.122" y2="192.377" gradientUnits="userSpaceOnUse">
<stop offset="0.0778503" stop-color="#AB8757"/>
<stop offset="0.369009" stop-color="#C7A16D"/>
<stop offset="0.591702" stop-color="#DAB27E"/>
<stop offset="0.930539" stop-color="#B99768"/>
</linearGradient>
<linearGradient id="paint14_linear_2315_4" x1="416.028" y1="161.472" x2="415.569" y2="159.557" gradientUnits="userSpaceOnUse">
<stop offset="0.0778503" stop-color="#AB8757"/>
<stop offset="0.369009" stop-color="#C7A16D"/>
<stop offset="0.591702" stop-color="#DAB27E"/>
<stop offset="0.930539" stop-color="#B99768"/>
</linearGradient>
<linearGradient id="paint15_linear_2315_4" x1="417.481" y1="156.913" x2="416.457" y2="154.157" gradientUnits="userSpaceOnUse">
<stop offset="0.0778503" stop-color="#AB8757"/>
<stop offset="0.369009" stop-color="#C7A16D"/>
<stop offset="0.591702" stop-color="#DAB27E"/>
<stop offset="0.930539" stop-color="#B99768"/>
</linearGradient>
<linearGradient id="paint16_linear_2315_4" x1="310.028" y1="195.118" x2="308.13" y2="186.841" gradientUnits="userSpaceOnUse">
<stop offset="0.0778503" stop-color="#AB8757"/>
<stop offset="0.369009" stop-color="#C7A16D"/>
<stop offset="0.591702" stop-color="#DAB27E"/>
<stop offset="0.930539" stop-color="#B99768"/>
</linearGradient>
<linearGradient id="paint17_linear_2315_4" x1="296.669" y1="216.818" x2="295.168" y2="211.302" gradientUnits="userSpaceOnUse">
<stop offset="0.0778503" stop-color="#AB8757"/>
<stop offset="0.369009" stop-color="#C7A16D"/>
<stop offset="0.591702" stop-color="#DAB27E"/>
<stop offset="0.930539" stop-color="#B99768"/>
</linearGradient>
<linearGradient id="paint18_linear_2315_4" x1="285.344" y1="238.952" x2="282.517" y2="232.103" gradientUnits="userSpaceOnUse">
<stop offset="0.0778503" stop-color="#AB8757"/>
<stop offset="0.369009" stop-color="#C7A16D"/>
<stop offset="0.591702" stop-color="#DAB27E"/>
<stop offset="0.930539" stop-color="#B99768"/>
</linearGradient>
<linearGradient id="paint19_linear_2315_4" x1="284.713" y1="230.057" x2="284.244" y2="228.451" gradientUnits="userSpaceOnUse">
<stop offset="0.0778503" stop-color="#AB8757"/>
<stop offset="0.369009" stop-color="#C7A16D"/>
<stop offset="0.591702" stop-color="#DAB27E"/>
<stop offset="0.930539" stop-color="#B99768"/>
</linearGradient>
<linearGradient id="paint20_linear_2315_4" x1="283.892" y1="232.11" x2="282.949" y2="230.117" gradientUnits="userSpaceOnUse">
<stop offset="0.0778503" stop-color="#AB8757"/>
<stop offset="0.369009" stop-color="#C7A16D"/>
<stop offset="0.591702" stop-color="#DAB27E"/>
<stop offset="0.930539" stop-color="#B99768"/>
</linearGradient>
<linearGradient id="paint21_linear_2315_4" x1="282.198" y1="247.371" x2="279.57" y2="240.337" gradientUnits="userSpaceOnUse">
<stop offset="0.0778503" stop-color="#AB8757"/>
<stop offset="0.369009" stop-color="#C7A16D"/>
<stop offset="0.591702" stop-color="#DAB27E"/>
<stop offset="0.930539" stop-color="#B99768"/>
</linearGradient>
<linearGradient id="paint22_linear_2315_4" x1="269.662" y1="289.013" x2="261.524" y2="279.202" gradientUnits="userSpaceOnUse">
<stop offset="0.0778503" stop-color="#AB8757"/>
<stop offset="0.369009" stop-color="#C7A16D"/>
<stop offset="0.591702" stop-color="#DAB27E"/>
<stop offset="0.930539" stop-color="#B99768"/>
</linearGradient>
<linearGradient id="paint23_linear_2315_4" x1="266.547" y1="294.584" x2="265.221" y2="290.272" gradientUnits="userSpaceOnUse">
<stop offset="0.0778503" stop-color="#AB8757"/>
<stop offset="0.369009" stop-color="#C7A16D"/>
<stop offset="0.591702" stop-color="#DAB27E"/>
<stop offset="0.930539" stop-color="#B99768"/>
</linearGradient>
<linearGradient id="paint24_linear_2315_4" x1="275.47" y1="311.719" x2="275.106" y2="307.998" gradientUnits="userSpaceOnUse">
<stop offset="0.0778503" stop-color="#AB8757"/>
<stop offset="0.369009" stop-color="#C7A16D"/>
<stop offset="0.591702" stop-color="#DAB27E"/>
<stop offset="0.930539" stop-color="#B99768"/>
</linearGradient>
<linearGradient id="paint25_linear_2315_4" x1="291.733" y1="332.582" x2="291.528" y2="330.511" gradientUnits="userSpaceOnUse">
<stop offset="0.0778503" stop-color="#AB8757"/>
<stop offset="0.369009" stop-color="#C7A16D"/>
<stop offset="0.591702" stop-color="#DAB27E"/>
<stop offset="0.930539" stop-color="#B99768"/>
</linearGradient>
<linearGradient id="paint26_linear_2315_4" x1="316.127" y1="332.302" x2="315.912" y2="329.881" gradientUnits="userSpaceOnUse">
<stop offset="0.0778503" stop-color="#AB8757"/>
<stop offset="0.369009" stop-color="#C7A16D"/>
<stop offset="0.591702" stop-color="#DAB27E"/>
<stop offset="0.930539" stop-color="#B99768"/>
</linearGradient>
<linearGradient id="paint27_linear_2315_4" x1="321.936" y1="331.7" x2="321.825" y2="329.964" gradientUnits="userSpaceOnUse">
<stop offset="0.0778503" stop-color="#AB8757"/>
<stop offset="0.369009" stop-color="#C7A16D"/>
<stop offset="0.591702" stop-color="#DAB27E"/>
<stop offset="0.930539" stop-color="#B99768"/>
</linearGradient>
<linearGradient id="paint28_linear_2315_4" x1="328.905" y1="329.987" x2="328.645" y2="327.224" gradientUnits="userSpaceOnUse">
<stop offset="0.0778503" stop-color="#AB8757"/>
<stop offset="0.369009" stop-color="#C7A16D"/>
<stop offset="0.591702" stop-color="#DAB27E"/>
<stop offset="0.930539" stop-color="#B99768"/>
</linearGradient>
<linearGradient id="paint29_linear_2315_4" x1="238.008" y1="566.258" x2="234.473" y2="548.49" gradientUnits="userSpaceOnUse">
<stop offset="0.0778503" stop-color="#AB8757"/>
<stop offset="0.369009" stop-color="#C7A16D"/>
<stop offset="0.591702" stop-color="#DAB27E"/>
<stop offset="0.930539" stop-color="#B99768"/>
</linearGradient>
<linearGradient id="paint30_linear_2315_4" x1="288.938" y1="492.171" x2="285.28" y2="488.611" gradientUnits="userSpaceOnUse">
<stop offset="0.0778503" stop-color="#AB8757"/>
<stop offset="0.369009" stop-color="#C7A16D"/>
<stop offset="0.591702" stop-color="#DAB27E"/>
<stop offset="0.930539" stop-color="#B99768"/>
</linearGradient>
<linearGradient id="paint31_linear_2315_4" x1="231.327" y1="307.7" x2="230.935" y2="305.922" gradientUnits="userSpaceOnUse">
<stop offset="0.0778503" stop-color="#AB8757"/>
<stop offset="0.369009" stop-color="#C7A16D"/>
<stop offset="0.591702" stop-color="#DAB27E"/>
<stop offset="0.930539" stop-color="#B99768"/>
</linearGradient>
<linearGradient id="paint32_linear_2315_4" x1="206.255" y1="585.555" x2="205.769" y2="582.615" gradientUnits="userSpaceOnUse">
<stop offset="0.0778503" stop-color="#AB8757"/>
<stop offset="0.369009" stop-color="#C7A16D"/>
<stop offset="0.591702" stop-color="#DAB27E"/>
<stop offset="0.930539" stop-color="#B99768"/>
</linearGradient>
<linearGradient id="paint33_linear_2315_4" x1="238.878" y1="550.369" x2="238.585" y2="549.04" gradientUnits="userSpaceOnUse">
<stop offset="0.0778503" stop-color="#AB8757"/>
<stop offset="0.369009" stop-color="#C7A16D"/>
<stop offset="0.591702" stop-color="#DAB27E"/>
<stop offset="0.930539" stop-color="#B99768"/>
</linearGradient>
<linearGradient id="paint34_linear_2315_4" x1="218.259" y1="583.979" x2="217.043" y2="575.439" gradientUnits="userSpaceOnUse">
<stop offset="0.0778503" stop-color="#AB8757"/>
<stop offset="0.369009" stop-color="#C7A16D"/>
<stop offset="0.591702" stop-color="#DAB27E"/>
<stop offset="0.930539" stop-color="#B99768"/>
</linearGradient>
<linearGradient id="paint35_linear_2315_4" x1="156.111" y1="69.1789" x2="155.775" y2="67.1429" gradientUnits="userSpaceOnUse">
<stop offset="0.0778503" stop-color="#AB8757"/>
<stop offset="0.369009" stop-color="#C7A16D"/>
<stop offset="0.591702" stop-color="#DAB27E"/>
<stop offset="0.930539" stop-color="#B99768"/>
</linearGradient>
<linearGradient id="paint36_linear_2315_4" x1="383.213" y1="482.644" x2="382.31" y2="479.563" gradientUnits="userSpaceOnUse">
<stop offset="0.0778503" stop-color="#AB8757"/>
<stop offset="0.369009" stop-color="#C7A16D"/>
<stop offset="0.591702" stop-color="#DAB27E"/>
<stop offset="0.930539" stop-color="#B99768"/>
</linearGradient>
<linearGradient id="paint37_linear_2315_4" x1="395.261" y1="480.625" x2="391.011" y2="461.81" gradientUnits="userSpaceOnUse">
<stop offset="0.0778503" stop-color="#AB8757"/>
<stop offset="0.369009" stop-color="#C7A16D"/>
<stop offset="0.591702" stop-color="#DAB27E"/>
<stop offset="0.930539" stop-color="#B99768"/>
</linearGradient>
<linearGradient id="paint38_linear_2315_4" x1="114.662" y1="127.288" x2="113.987" y2="114.324" gradientUnits="userSpaceOnUse">
<stop offset="0.0778503" stop-color="#AB8757"/>
<stop offset="0.369009" stop-color="#C7A16D"/>
<stop offset="0.591702" stop-color="#DAB27E"/>
<stop offset="0.930539" stop-color="#B99768"/>
</linearGradient>
<linearGradient id="paint39_linear_2315_4" x1="142.463" y1="80.648" x2="137.228" y2="44.463" gradientUnits="userSpaceOnUse">
<stop offset="0.0778503" stop-color="#AB8757"/>
<stop offset="0.369009" stop-color="#C7A16D"/>
<stop offset="0.591702" stop-color="#DAB27E"/>
<stop offset="0.930539" stop-color="#B99768"/>
</linearGradient>
<linearGradient id="paint40_linear_2315_4" x1="171.079" y1="39.6281" x2="170.547" y2="35.0971" gradientUnits="userSpaceOnUse">
<stop offset="0.0778503" stop-color="#AB8757"/>
<stop offset="0.369009" stop-color="#C7A16D"/>
<stop offset="0.591702" stop-color="#DAB27E"/>
<stop offset="0.930539" stop-color="#B99768"/>
</linearGradient>
<linearGradient id="paint41_linear_2315_4" x1="181.957" y1="46.846" x2="179.74" y2="24.06" gradientUnits="userSpaceOnUse">
<stop offset="0.0778503" stop-color="#AB8757"/>
<stop offset="0.369009" stop-color="#C7A16D"/>
<stop offset="0.591702" stop-color="#DAB27E"/>
<stop offset="0.930539" stop-color="#B99768"/>
</linearGradient>
<linearGradient id="paint42_linear_2315_4" x1="198.511" y1="20.7591" x2="198.474" y2="19.9271" gradientUnits="userSpaceOnUse">
<stop offset="0.0778503" stop-color="#AB8757"/>
<stop offset="0.369009" stop-color="#C7A16D"/>
<stop offset="0.591702" stop-color="#DAB27E"/>
<stop offset="0.930539" stop-color="#B99768"/>
</linearGradient>
<linearGradient id="paint43_linear_2315_4" x1="422" y1="658.207" x2="243.055" y2="-60.473" gradientUnits="userSpaceOnUse">
<stop offset="0.0778503" stop-color="#AB8757"/>
<stop offset="0.369009" stop-color="#C7A16D"/>
<stop offset="0.591702" stop-color="#DAB27E"/>
<stop offset="0.930539" stop-color="#B99768"/>
</linearGradient>
<linearGradient id="paint44_linear_2315_4" x1="488.341" y1="192.931" x2="482.21" y2="171.32" gradientUnits="userSpaceOnUse">
<stop offset="0.0778503" stop-color="#AB8757"/>
<stop offset="0.369009" stop-color="#C7A16D"/>
<stop offset="0.591702" stop-color="#DAB27E"/>
<stop offset="0.930539" stop-color="#B99768"/>
</linearGradient>
<linearGradient id="paint45_linear_2315_4" x1="500.829" y1="301.772" x2="500.535" y2="300.698" gradientUnits="userSpaceOnUse">
<stop offset="0.0778503" stop-color="#AB8757"/>
<stop offset="0.369009" stop-color="#C7A16D"/>
<stop offset="0.591702" stop-color="#DAB27E"/>
<stop offset="0.930539" stop-color="#B99768"/>
</linearGradient>
<linearGradient id="paint46_linear_2315_4" x1="418.933" y1="488.735" x2="416.984" y2="480.114" gradientUnits="userSpaceOnUse">
<stop offset="0.0778503" stop-color="#AB8757"/>
<stop offset="0.369009" stop-color="#C7A16D"/>
<stop offset="0.591702" stop-color="#DAB27E"/>
<stop offset="0.930539" stop-color="#B99768"/>
</linearGradient>
<linearGradient id="paint47_linear_2315_4" x1="503.442" y1="305.287" x2="497.348" y2="298.96" gradientUnits="userSpaceOnUse">
<stop offset="0.0778503" stop-color="#AB8757"/>
<stop offset="0.369009" stop-color="#C7A16D"/>
<stop offset="0.591702" stop-color="#DAB27E"/>
<stop offset="0.930539" stop-color="#B99768"/>
</linearGradient>
<linearGradient id="paint48_linear_2315_4" x1="409.701" y1="503.904" x2="407.458" y2="492.993" gradientUnits="userSpaceOnUse">
<stop offset="0.0778503" stop-color="#AB8757"/>
<stop offset="0.369009" stop-color="#C7A16D"/>
<stop offset="0.591702" stop-color="#DAB27E"/>
<stop offset="0.930539" stop-color="#B99768"/>
</linearGradient>
<linearGradient id="paint49_linear_2315_4" x1="387.569" y1="531.398" x2="384.986" y2="513.651" gradientUnits="userSpaceOnUse">
<stop offset="0.0778503" stop-color="#AB8757"/>
<stop offset="0.369009" stop-color="#C7A16D"/>
<stop offset="0.591702" stop-color="#DAB27E"/>
<stop offset="0.930539" stop-color="#B99768"/>
</linearGradient>
<linearGradient id="paint50_linear_2315_4" x1="216.807" y1="545.813" x2="206.585" y2="493.44" gradientUnits="userSpaceOnUse">
<stop offset="0.0778503" stop-color="#AB8757"/>
<stop offset="0.369009" stop-color="#C7A16D"/>
<stop offset="0.591702" stop-color="#DAB27E"/>
<stop offset="0.930539" stop-color="#B99768"/>
</linearGradient>
<linearGradient id="paint51_linear_2315_4" x1="260.079" y1="551.359" x2="255.049" y2="529.786" gradientUnits="userSpaceOnUse">
<stop offset="0.0778503" stop-color="#AB8757"/>
<stop offset="0.369009" stop-color="#C7A16D"/>
<stop offset="0.591702" stop-color="#DAB27E"/>
<stop offset="0.930539" stop-color="#B99768"/>
</linearGradient>
<linearGradient id="paint52_linear_2315_4" x1="263.722" y1="586.677" x2="261.737" y2="565.253" gradientUnits="userSpaceOnUse">
<stop offset="0.0778503" stop-color="#AB8757"/>
<stop offset="0.369009" stop-color="#C7A16D"/>
<stop offset="0.591702" stop-color="#DAB27E"/>
<stop offset="0.930539" stop-color="#B99768"/>
</linearGradient>
<linearGradient id="paint53_linear_2315_4" x1="217.679" y1="593.37" x2="217.564" y2="591.286" gradientUnits="userSpaceOnUse">
<stop offset="0.0778503" stop-color="#AB8757"/>
<stop offset="0.369009" stop-color="#C7A16D"/>
<stop offset="0.591702" stop-color="#DAB27E"/>
<stop offset="0.930539" stop-color="#B99768"/>
</linearGradient>
<linearGradient id="paint54_linear_2315_4" x1="231.617" y1="591.75" x2="231.23" y2="585.501" gradientUnits="userSpaceOnUse">
<stop offset="0.0778503" stop-color="#AB8757"/>
<stop offset="0.369009" stop-color="#C7A16D"/>
<stop offset="0.591702" stop-color="#DAB27E"/>
<stop offset="0.930539" stop-color="#B99768"/>
</linearGradient>
<linearGradient id="paint55_linear_2315_4" x1="321.354" y1="560.556" x2="317.842" y2="528.882" gradientUnits="userSpaceOnUse">
<stop offset="0.0778503" stop-color="#AB8757"/>
<stop offset="0.369009" stop-color="#C7A16D"/>
<stop offset="0.591702" stop-color="#DAB27E"/>
<stop offset="0.930539" stop-color="#B99768"/>
</linearGradient>
<linearGradient id="paint56_linear_2315_4" x1="468.303" y1="288.761" x2="466.801" y2="286.741" gradientUnits="userSpaceOnUse">
<stop offset="0.0778503" stop-color="#AB8757"/>
<stop offset="0.369009" stop-color="#C7A16D"/>
<stop offset="0.591702" stop-color="#DAB27E"/>
<stop offset="0.930539" stop-color="#B99768"/>
</linearGradient>
<linearGradient id="paint57_linear_2315_4" x1="467.723" y1="377.905" x2="414.325" y2="303.826" gradientUnits="userSpaceOnUse">
<stop offset="0.0778503" stop-color="#AB8757"/>
<stop offset="0.369009" stop-color="#C7A16D"/>
<stop offset="0.591702" stop-color="#DAB27E"/>
<stop offset="0.930539" stop-color="#B99768"/>
</linearGradient>
<linearGradient id="paint58_linear_2315_4" x1="470.916" y1="268.098" x2="455.461" y2="255.663" gradientUnits="userSpaceOnUse">
<stop offset="0.0778503" stop-color="#AB8757"/>
<stop offset="0.369009" stop-color="#C7A16D"/>
<stop offset="0.591702" stop-color="#DAB27E"/>
<stop offset="0.930539" stop-color="#B99768"/>
</linearGradient>
<linearGradient id="paint59_linear_2315_4" x1="446.658" y1="258.381" x2="425.761" y2="224.153" gradientUnits="userSpaceOnUse">
<stop offset="0.0778503" stop-color="#AB8757"/>
<stop offset="0.369009" stop-color="#C7A16D"/>
<stop offset="0.591702" stop-color="#DAB27E"/>
<stop offset="0.930539" stop-color="#B99768"/>
</linearGradient>
<linearGradient id="paint60_linear_2315_4" x1="294.929" y1="358.148" x2="294.882" y2="355.709" gradientUnits="userSpaceOnUse">
<stop offset="0.0778503" stop-color="#AB8757"/>
<stop offset="0.369009" stop-color="#C7A16D"/>
<stop offset="0.591702" stop-color="#DAB27E"/>
<stop offset="0.930539" stop-color="#B99768"/>
</linearGradient>
<linearGradient id="paint61_linear_2315_4" x1="265.306" y1="221.084" x2="257.013" y2="190.578" gradientUnits="userSpaceOnUse">
<stop offset="0.0778503" stop-color="#AB8757"/>
<stop offset="0.369009" stop-color="#C7A16D"/>
<stop offset="0.591702" stop-color="#DAB27E"/>
<stop offset="0.930539" stop-color="#B99768"/>
</linearGradient>
<linearGradient id="paint62_linear_2315_4" x1="274.6" y1="185.332" x2="274.255" y2="183.66" gradientUnits="userSpaceOnUse">
<stop offset="0.0778503" stop-color="#AB8757"/>
<stop offset="0.369009" stop-color="#C7A16D"/>
<stop offset="0.591702" stop-color="#DAB27E"/>
<stop offset="0.930539" stop-color="#B99768"/>
</linearGradient>
<linearGradient id="paint63_linear_2315_4" x1="292.313" y1="184.488" x2="288.506" y2="162.495" gradientUnits="userSpaceOnUse">
<stop offset="0.0778503" stop-color="#AB8757"/>
<stop offset="0.369009" stop-color="#C7A16D"/>
<stop offset="0.591702" stop-color="#DAB27E"/>
<stop offset="0.930539" stop-color="#B99768"/>
</linearGradient>
<linearGradient id="paint64_linear_2315_4" x1="337.908" y1="133.32" x2="337.851" y2="132.627" gradientUnits="userSpaceOnUse">
<stop offset="0.0778503" stop-color="#AB8757"/>
<stop offset="0.369009" stop-color="#C7A16D"/>
<stop offset="0.591702" stop-color="#DAB27E"/>
<stop offset="0.930539" stop-color="#B99768"/>
</linearGradient>
<linearGradient id="paint65_linear_2315_4" x1="336.747" y1="151.031" x2="334.594" y2="130.697" gradientUnits="userSpaceOnUse">
<stop offset="0.0778503" stop-color="#AB8757"/>
<stop offset="0.369009" stop-color="#C7A16D"/>
<stop offset="0.591702" stop-color="#DAB27E"/>
<stop offset="0.930539" stop-color="#B99768"/>
</linearGradient>
<clipPath id="clip0_2315_4">
<rect width="504" height="636" fill="white" transform="matrix(-1 0 0 -1 504 636)"/>
</clipPath>
</defs>
</svg>
