<svg width="504" height="636" viewBox="0 0 504 636" fill="none" xmlns="http://www.w3.org/2000/svg">
<path d="M215.462 423.127C215.752 422.256 216.043 421.094 216.043 419.932L215.462 423.127Z" fill="url(#paint0_linear_1_37433)"/>
<path d="M206.168 430.39C205.878 430.39 205.587 430.389 205.297 430.68C205.587 430.68 205.878 430.39 206.168 430.39Z" fill="url(#paint1_linear_1_37433)"/>
<path d="M203.265 304.061L202.975 304.932C202.975 304.351 203.265 304.061 203.265 304.061Z" fill="url(#paint2_linear_1_37433)"/>
<path d="M219.528 417.029C219.238 417.61 219.238 417.61 219.528 417.029V417.029Z" fill="url(#paint3_linear_1_37433)"/>
<path d="M216.622 416.158C216.042 416.158 215.751 416.448 214.88 417.319C215.751 416.739 216.332 416.448 216.622 416.158Z" fill="url(#paint4_linear_1_37433)"/>
<path d="M233.176 379.567C232.886 379.277 232.596 379.277 232.596 378.986C232.596 379.277 232.886 379.567 233.176 379.567Z" fill="url(#paint5_linear_1_37433)"/>
<path d="M231.144 376.664C232.015 376.374 231.724 377.826 232.596 378.987C232.305 377.535 233.467 374.05 231.144 376.664Z" fill="url(#paint6_linear_1_37433)"/>
<path d="M123.982 350.815L122.239 354.591L123.691 354.01C123.691 353.139 124.853 350.525 123.982 350.815Z" fill="url(#paint7_linear_1_37433)"/>
<path d="M114.399 362.433L115.271 366.208C117.594 362.723 114.98 363.304 117.304 359.528L114.399 362.433Z" fill="url(#paint8_linear_1_37433)"/>
<path d="M110.043 368.242V367.081C109.753 367.952 109.753 368.242 110.043 368.242Z" fill="url(#paint9_linear_1_37433)"/>
<path d="M110.043 368.241L110.333 370.564C110.333 369.983 110.624 369.112 110.914 368.822L111.785 371.145L112.947 365.918L111.495 367.37C111.205 367.37 110.333 368.241 110.043 368.241Z" fill="url(#paint10_linear_1_37433)"/>
<path d="M88.8418 426.614L89.713 424L88.8418 423.129V426.614Z" fill="url(#paint11_linear_1_37433)"/>
<path d="M86.8096 472.207C87.1 472.497 87.1 473.078 87.3904 473.659C87.3904 473.078 87.3904 472.497 86.8096 472.207Z" fill="url(#paint12_linear_1_37433)"/>
<path d="M87.3896 441.714L87.9705 443.456L88.5513 442.294L87.3896 441.714Z" fill="url(#paint13_linear_1_37433)"/>
<path d="M87.9717 475.113C88.2621 475.404 88.8429 475.984 89.1334 476.275L88.8429 475.404C88.8429 474.532 87.9717 474.242 87.9717 475.113Z" fill="url(#paint14_linear_1_37433)"/>
<path d="M86.5186 481.211L87.6802 481.792V479.178C87.6802 479.178 87.3898 479.759 87.0994 480.049C86.809 480.63 86.5186 481.211 86.5186 481.211Z" fill="url(#paint15_linear_1_37433)"/>
<path d="M199.199 441.135C196.585 442.877 196.005 446.072 193.972 448.395C196.295 446.653 198.328 443.749 199.199 441.135Z" fill="url(#paint16_linear_1_37433)"/>
<path d="M208.202 420.225L209.074 424.291C212.268 421.096 208.493 419.935 207.331 419.354C207.621 420.225 207.331 421.387 208.202 420.225Z" fill="url(#paint17_linear_1_37433)"/>
<path d="M220.689 403.961C221.56 401.057 221.851 397.862 219.528 397.281L218.656 401.347L219.818 399.605C220.399 401.057 220.689 401.928 220.689 403.961C221.56 400.766 220.689 401.928 220.689 403.961Z" fill="url(#paint18_linear_1_37433)"/>
<path d="M219.528 407.446C219.818 407.155 219.818 406.575 220.108 405.994C219.528 406.284 218.947 406.284 219.528 407.446Z" fill="url(#paint19_linear_1_37433)"/>
<path d="M220.689 404.542C220.689 404.251 220.689 404.251 220.689 403.961C220.399 404.832 220.399 405.413 220.108 405.994C220.399 405.994 220.98 405.703 220.689 404.542C220.98 405.703 220.689 404.251 220.689 404.542Z" fill="url(#paint20_linear_1_37433)"/>
<path d="M223.593 392.056C224.173 390.314 224.754 388.862 224.754 388.862L223.012 391.185C224.464 392.347 220.689 393.799 222.141 395.541C222.141 395.251 222.721 393.508 223.593 392.056C224.173 390.314 222.721 393.508 223.593 392.056Z" fill="url(#paint21_linear_1_37433)"/>
<path d="M234.919 361.269L236.952 360.688C237.823 357.203 234.048 351.105 236.952 348.201C235.79 349.943 234.628 344.716 234.338 349.653C236.08 351.686 235.79 358.075 234.919 361.269Z" fill="url(#paint22_linear_1_37433)"/>
<path d="M238.114 345.298C238.694 345.879 238.985 345.008 239.566 344.137C239.566 342.394 238.404 340.942 237.823 341.813C240.437 342.685 236.371 343.846 238.114 345.298C238.694 345.879 236.371 343.846 238.114 345.298Z" fill="url(#paint23_linear_1_37433)"/>
<path d="M232.596 325.842C233.177 327.004 234.048 328.456 233.758 326.714C232.015 323.229 230.563 325.261 228.53 324.39C229.111 327.294 232.887 328.456 232.596 325.842C233.177 327.004 232.887 328.456 232.596 325.842Z" fill="url(#paint24_linear_1_37433)"/>
<path d="M214.009 304.35C214.59 304.06 215.171 303.479 215.171 303.479C214.009 303.77 213.138 304.06 212.267 304.35L213.138 305.222C212.847 305.222 213.428 304.931 214.009 304.35C214.299 304.06 213.428 304.931 214.009 304.35Z" fill="url(#paint25_linear_1_37433)"/>
<path d="M191.648 304.931L190.196 303.769C189.325 304.35 188.454 305.221 187.873 305.802C187.873 305.802 188.744 305.512 189.906 305.221C190.777 304.931 191.648 304.931 191.648 304.931Z" fill="url(#paint26_linear_1_37433)"/>
<path d="M185.84 304.351L182.064 305.512L183.517 305.803C185.549 305.512 184.678 304.641 185.84 304.351Z" fill="url(#paint27_linear_1_37433)"/>
<path d="M176.256 308.417C177.128 307.546 177.999 306.965 179.16 306.094C177.708 306.675 176.547 307.546 175.095 308.417C175.385 308.127 175.966 308.127 176.256 308.417Z" fill="url(#paint28_linear_1_37433)"/>
<path d="M265.992 85.6713C270.639 80.4439 274.995 75.2165 278.77 70.2795L265.992 85.6713Z" fill="url(#paint29_linear_1_37433)"/>
<path d="M216.042 150.141C215.751 149.27 215.461 148.108 215.17 147.237C215.17 146.075 215.461 144.913 216.042 144.042C215.461 144.623 215.17 145.204 215.17 146.075C214.88 146.946 215.17 148.398 216.042 150.141C215.461 149.27 215.17 148.398 216.042 150.141Z" fill="url(#paint30_linear_1_37433)"/>
<path d="M273.834 329.908C273.254 328.456 272.673 328.165 272.673 328.456C272.673 328.456 272.963 328.746 273.254 329.327C273.544 329.327 273.834 329.908 273.834 329.908Z" fill="url(#paint31_linear_1_37433)"/>
<path d="M300.261 50.5331L299.681 51.1138C296.486 54.3083 297.648 53.1468 300.261 50.5331Z" fill="url(#paint32_linear_1_37433)"/>
<path d="M265.122 86.833C265.412 86.5426 265.703 86.2521 265.993 85.6713C265.993 85.6713 265.703 85.9617 265.122 86.833Z" fill="url(#paint33_linear_1_37433)"/>
<path d="M291.259 54.5979C289.807 55.7596 288.064 57.2116 285.741 59.5349C288.645 57.2116 291.549 54.8884 294.163 52.2747C293.292 52.8555 292.421 53.7267 291.259 54.5979C292.13 54.0171 289.807 55.7596 291.259 54.5979Z" fill="url(#paint34_linear_1_37433)"/>
<path d="M347.889 568.625C348.469 568.044 349.05 567.463 349.631 566.882C348.179 568.044 347.889 568.625 347.889 568.625Z" fill="url(#paint35_linear_1_37433)"/>
<path d="M121.949 153.628C121.658 154.499 121.368 155.08 120.787 156.241C122.239 153.918 122.82 153.047 121.949 153.628Z" fill="url(#paint36_linear_1_37433)"/>
<path d="M110.332 169.89C107.718 173.375 107.718 174.247 114.979 166.115C112.074 168.148 117.592 161.178 120.787 155.951C117.302 160.597 113.817 165.244 110.332 169.89C111.784 168.148 107.718 173.375 110.332 169.89Z" fill="url(#paint37_linear_1_37433)"/>
<path d="M389.417 519.545C389.127 520.416 389.707 519.545 389.998 519.254C393.192 514.317 399.581 511.994 404.809 510.832C410.327 509.671 417.587 509.38 422.524 512.865C422.814 513.156 423.395 513.446 423.686 513.737C423.686 513.737 423.685 513.736 423.395 513.446C421.072 510.542 416.716 509.38 412.94 509.09C409.165 509.09 405.39 509.961 401.905 510.832C397.549 512.284 392.321 514.608 389.707 518.673C389.707 519.254 389.417 519.545 389.417 519.545Z" fill="url(#paint38_linear_1_37433)"/>
<path d="M380.123 572.399C383.608 569.205 386.803 565.72 389.997 562.816C392.03 561.073 394.063 559.04 396.677 556.427C392.902 559.912 389.126 563.106 385.351 566.301C383.027 568.334 380.704 570.076 378.381 571.819C378.09 572.109 375.186 573.561 375.186 574.142C375.186 574.142 371.992 577.627 368.507 580.821C365.022 584.016 361.537 587.21 361.537 587.21C364.732 585.178 367.055 583.435 369.088 581.983C373.444 578.789 376.929 575.594 380.123 572.399C381.866 570.947 378.671 573.851 380.123 572.399Z" fill="url(#paint39_linear_1_37433)"/>
<path d="M333.078 600.281L338.306 596.506C333.369 599.7 332.498 600.572 333.078 600.281Z" fill="url(#paint40_linear_1_37433)"/>
<path d="M322.043 608.12C324.947 606.377 330.755 602.892 332.788 602.021C329.884 604.344 326.98 606.667 324.076 608.991C334.531 602.892 344.695 596.503 354.569 589.823L342.662 596.793C342.081 596.213 334.24 600.278 333.079 600.859C333.079 601.73 328.142 604.344 327.561 604.635C325.818 605.506 323.785 606.958 322.043 608.12Z" fill="url(#paint41_linear_1_37433)"/>
<path d="M305.489 615.96C306.36 615.669 307.232 615.379 308.103 615.379C308.103 615.089 306.941 615.379 305.489 615.96Z" fill="url(#paint42_linear_1_37433)"/>
<path d="M87.5178 411.222C92.4548 427.194 98.263 444.038 107.556 458.268C114.236 469.885 122.367 480.34 132.241 489.052L130.208 487.6C133.403 490.795 137.469 493.408 140.953 496.312C141.534 500.669 141.534 505.025 142.405 509.381C142.986 512.285 144.438 516.351 146.471 522.74C145.6 518.384 145.019 514.318 144.148 509.962C144.148 509.671 144.148 509.09 143.858 508.509C147.342 523.901 153.441 538.712 160.992 552.652C162.444 555.846 162.734 557.008 160.701 554.685C162.153 557.299 163.605 559.622 165.058 561.945C167.671 565.43 170.285 569.205 173.189 572.4C174.641 573.852 175.803 575.014 177.255 576.466C182.482 582.855 188.581 588.953 194.679 594.471C186.548 589.244 170.285 571.819 186.258 590.405C185.967 590.696 203.973 604.055 204.263 603.474C207.748 607.54 212.975 610.444 217.622 613.348C223.14 616.833 229.529 619.737 234.756 623.803C235.337 624.383 235.627 624.674 235.337 624.674C241.145 626.707 244.63 627.868 248.115 628.74C251.31 629.32 254.504 629.901 259.441 631.063C268.734 634.548 278.027 636 287.901 636C274.542 634.548 265.83 632.225 259.441 630.482C255.666 629.32 251.89 628.159 248.115 626.707C244.049 624.964 239.984 623.222 236.208 621.479C232.142 619.156 227.786 617.123 223.721 614.8C220.236 612.477 216.17 610.153 211.523 606.959C211.814 606.959 212.395 607.54 213.266 607.83C245.501 629.03 284.416 637.162 322.751 631.934C323.622 632.225 321.879 632.806 321.879 632.806C320.427 633.386 318.975 633.677 317.523 634.258C315.781 634.548 313.458 634.838 311.715 635.71C320.427 635.71 329.14 633.967 337.562 631.353C346.274 628.74 354.696 626.126 363.408 623.222C360.795 624.383 358.181 625.255 355.567 626.126C354.696 626.416 351.211 628.159 350.63 628.159C352.082 628.74 356.729 626.707 358.181 626.416C368.345 623.222 377.929 619.446 387.803 615.962C384.027 616.542 379.09 617.994 371.54 620.318C367.764 621.479 363.408 622.641 358.471 624.093C354.986 624.964 351.501 625.836 348.307 626.707C381.995 617.414 413.94 600.57 442.69 581.112C456.049 572.109 468.827 561.655 480.444 550.038C486.252 544.23 491.479 538.131 496.416 531.452C498.74 528.548 501.063 525.353 502.806 522.159C503.677 520.707 504.258 519.255 503.386 517.803C501.353 514.027 494.093 514.608 490.608 515.189C485.962 515.77 479.282 517.222 476.378 521.578C464.471 539.874 448.499 555.266 431.074 568.334C430.784 568.334 430.493 568.625 430.493 568.334C430.203 568.625 429.912 568.915 429.331 569.496C419.167 576.756 408.712 583.436 397.677 589.244C398.548 588.373 400 587.501 401.452 586.63C403.775 584.888 406.679 583.145 410.455 580.822C392.449 590.115 374.153 598.827 354.986 605.797C337.852 612.186 319.556 615.381 301.26 616.252C300.389 616.252 299.227 615.962 298.356 615.962C293.419 615.09 291.677 614.51 292.258 614.51C294.29 613.929 296.904 614.51 298.937 614.51C302.712 614.51 306.488 614.51 309.973 614.219C316.942 613.929 324.493 613.058 331.173 611.025C266.701 621.479 200.778 580.531 180.74 518.384L180.159 516.351L179.868 515.479L179.578 514.899C179.578 514.899 179.288 514.318 179.578 514.608C181.611 514.899 183.644 515.479 185.967 515.479L189.162 515.77C190.614 515.77 192.066 516.06 193.518 516.06C201.069 516.06 208.619 515.189 216.17 514.027C216.751 512.575 219.074 511.414 222.849 510.252C224.592 509.671 226.915 508.8 229.529 507.929C231.852 506.767 234.756 505.605 237.66 503.863C239.984 503.282 242.016 502.701 244.34 502.121C245.211 501.83 245.501 501.83 245.501 501.83C245.211 502.12 244.921 502.12 244.63 501.83C244.34 501.249 246.663 499.507 244.921 499.797C282.384 482.373 315.49 447.523 334.367 409.479C332.334 416.449 329.43 423.419 325.945 429.808C344.822 396.411 364.86 351.978 346.564 314.515C352.953 323.227 354.986 336.296 355.277 346.751C355.567 358.077 354.115 369.693 350.921 380.438C353.825 371.145 355.277 361.271 355.858 351.688C356.148 346.751 355.858 341.523 355.567 336.586C355.277 334.844 353.825 330.197 354.986 328.455L352.082 325.26C350.921 321.485 350.049 318.581 349.178 316.548C348.888 315.386 347.436 313.353 347.726 312.192C347.726 312.192 349.469 314.225 349.759 314.515C350.63 315.677 351.211 316.838 352.082 318.29C353.244 320.323 354.115 320.904 353.534 318C350.049 308.707 345.693 302.027 341.918 297.671C339.885 295.348 338.142 293.605 336.4 292.444C334.658 290.992 333.496 289.83 332.044 289.249C329.43 287.797 327.978 286.926 326.816 286.926C325.364 286.636 324.784 287.507 323.331 287.797C321.299 287.797 318.975 286.926 316.943 286.345C307.649 282.279 297.485 280.827 287.321 281.118C277.156 280.827 266.701 283.441 257.408 286.636C258.279 286.055 258.86 285.764 259.151 285.474C259.731 284.603 257.699 284.603 256.537 284.603C248.115 289.249 239.403 293.605 230.981 297.962C221.688 302.608 212.975 308.417 204.844 314.806C201.359 318 197.584 320.904 193.518 325.26C192.647 325.26 196.132 321.195 200.197 317.129C204.263 312.773 208.91 308.997 209.49 307.545C196.132 318.581 184.515 331.359 174.351 345.589C171.447 350.236 167.09 355.753 165.929 361.271C163.025 365.627 160.701 370.274 158.378 374.63C155.474 381.019 152.57 387.408 149.666 393.797C143.277 411.512 138.63 429.518 137.178 448.104C137.178 448.104 137.178 447.814 136.888 447.814C136.888 444.91 138.63 437.94 136.016 436.197C135.436 435.616 135.436 434.455 135.436 433.874C135.145 430.97 135.436 428.066 135.726 425.162C135.145 431.551 134.564 437.94 134.564 444.329C124.981 428.647 118.882 411.512 115.107 393.507C112.493 376.953 111.912 359.819 113.364 343.266C113.945 343.266 114.526 344.427 115.397 346.751C115.688 336.296 119.463 325.841 119.173 315.386C118.882 305.222 122.367 295.057 125.562 285.474C123.238 292.444 121.205 299.704 119.463 306.674C119.753 304.931 120.044 303.479 120.334 302.027C125.562 280.827 133.403 259.918 142.986 239.879C142.986 241.331 142.115 244.526 145.31 237.847C145.89 235.814 146.762 233.2 147.923 230.586C158.088 208.515 173.77 189.057 188.581 170.181C188.581 170.181 187.419 171.633 186.548 173.085C185.677 174.537 184.515 175.989 184.515 175.989C190.904 168.148 197.584 160.888 204.553 153.627C204.844 153.337 204.553 153.627 204.844 153.627C205.134 153.047 205.134 152.756 205.425 152.175C214.427 144.044 230.4 128.362 249.277 112.099C251.31 109.485 254.214 107.162 256.827 105.129C261.474 101.063 266.411 97.2877 271.638 93.5124C283.545 84.8 296.033 77.2493 308.521 69.6986C315.781 65.9233 321.299 62.4384 323.912 60.9863C314.619 65.9233 306.778 70.2795 295.452 76.6686L296.033 73.7645C306.197 67.9562 306.778 67.9562 307.359 68.2466C307.649 68.2466 307.94 68.5369 317.523 62.7287C314.329 62.4383 310.263 65.052 307.94 66.2137C302.712 68.8274 298.066 72.022 293.129 75.2165C287.03 79.2823 281.222 83.348 275.123 87.7041C281.222 82.1863 288.192 77.2492 295.162 72.8931C289.063 76.6684 282.964 80.4438 276.866 84.5095C283.836 79.5725 291.096 75.2165 298.647 70.8603C297.485 71.4412 296.323 72.3123 295.162 72.8931C306.488 66.2136 317.814 59.8247 329.721 54.3069C328.559 55.4685 328.849 55.7589 333.205 54.3069C339.594 51.4028 346.274 49.0794 352.663 46.4658C359.342 43.8521 365.732 40.6575 372.121 38.0438C379.09 35.7205 386.351 33.6877 393.321 31.9452C393.901 31.9452 394.192 32.2355 394.482 32.2355C394.482 32.526 394.482 32.8165 394.773 33.1069C395.063 33.3973 395.934 33.3973 397.386 33.3973C394.482 36.011 391.288 39.4959 386.351 44.1425L389.836 39.7863C390.707 38.3343 391.578 37.1726 393.611 35.4302C392.159 36.011 390.707 36.5917 389.255 37.1726C389.545 37.463 390.126 37.4631 390.126 37.4631C388.093 39.2055 385.189 41.2384 383.737 43.5616C381.995 46.7562 380.252 49.0794 377.638 51.6931C380.833 49.3698 381.994 49.3699 392.74 38.3343C392.74 38.3343 393.611 37.7534 393.901 38.0438C394.482 38.915 390.416 42.6905 389.836 43.2713C387.803 45.5946 385.77 47.9178 383.447 49.9507L386.641 46.7561C386.351 47.0465 386.351 47.3371 386.06 47.6275C372.411 61.2768 358.471 75.2165 345.403 89.7371L345.112 90.0274C345.984 88.5753 347.145 87.4137 348.016 86.2521C342.789 92.6411 337.562 99.0302 332.334 105.129C327.978 110.647 323.912 115.874 319.556 121.392V121.101C318.975 121.973 318.395 122.844 317.814 123.715C313.167 129.814 308.811 135.912 304.455 142.011C304.455 141.721 304.745 141.43 304.455 141.43C303.874 141.14 302.132 144.334 301.841 144.625C300.679 145.786 301.551 147.819 303.003 149.562C299.518 147.529 300.97 144.625 302.712 142.011C309.973 131.266 317.523 121.101 325.655 111.227C321.589 116.164 317.814 121.392 312.877 125.167C311.425 126.329 312.877 123.134 320.137 113.841C316.362 117.036 313.458 121.682 310.553 125.748C307.068 130.975 303.584 136.203 299.808 141.43C299.227 142.301 298.937 143.173 298.356 144.044C300.099 141.43 298.356 146.077 299.518 145.205C298.066 145.496 298.937 148.4 299.227 149.271C300.099 151.304 301.551 152.756 303.003 154.208C307.068 157.693 311.715 160.307 316.652 162.34C321.589 164.373 326.816 165.825 332.044 166.696C333.205 166.696 341.337 167.857 341.918 165.825C334.077 167.277 325.364 164.953 318.104 162.049C317.814 161.468 323.041 162.63 323.331 162.63C326.816 163.501 330.301 164.082 333.786 164.082C336.69 164.663 339.885 164.663 342.789 164.082C345.984 163.211 347.436 161.178 349.178 158.564C353.534 152.175 357.89 146.077 362.537 139.978C371.83 127.49 381.995 115.584 392.159 103.967C402.614 92.3506 413.649 81.0246 424.975 69.989C430.784 64.1807 436.592 58.3725 442.4 52.5643C447.627 47.3369 453.726 42.9809 459.244 38.3343C459.534 38.9151 458.663 39.7863 458.663 40.6575C458.663 41.8192 462.148 39.2055 462.438 39.2055C467.085 35.1397 472.893 29.9123 474.055 23.2329C474.636 20.9096 474.055 18.2959 472.022 16.8438C471.151 16.263 470.57 16.5535 469.989 16.5535C465.633 11.9069 458.663 9.0027 452.564 6.67942C450.822 4.64654 447.047 3.48497 442.981 3.48497C431.364 0.580857 419.458 0 407.841 0C395.644 0 383.156 0.290482 370.959 1.16171C345.984 2.61377 321.008 5.80825 296.323 9.29319C296.323 9.00278 297.194 8.42185 299.808 7.55061C282.674 9.58349 290.515 9.29311 292.548 9.58353C284.126 10.7452 275.704 11.9068 267.282 13.3588C266.121 13.0684 265.54 12.778 273.671 11.0356C259.441 12.4876 257.408 13.6494 255.956 15.1014C240.274 17.7151 224.301 20.3287 208.619 23.5232C205.715 23.8136 203.101 23.8137 201.359 23.8137C192.937 25.5562 184.515 27.589 176.384 30.4931C168.252 32.526 160.411 34.5589 152.57 36.8822C155.764 35.7206 157.797 34.5589 156.926 33.9781C147.342 37.463 138.049 41.2384 128.466 44.7234C122.658 47.0466 132.531 53.726 134.564 55.1781C139.211 58.3726 144.148 60.6959 149.666 62.4384C153.441 63.6 157.507 64.7617 161.573 65.0521C166.219 65.3425 169.995 64.1807 174.351 62.7287C183.063 59.8246 191.775 57.211 200.488 54.8877C236.208 45.5946 272.8 40.3671 309.101 34.2685C324.784 31.6548 340.466 29.3316 356.148 27.2987C290.225 49.9508 230.11 89.1562 183.063 140.849C181.03 142.882 179.288 144.625 177.836 146.077C175.512 148.69 173.189 151.304 171.156 154.499C167.381 159.145 163.605 163.792 160.121 168.438C162.734 163.792 164.477 160.016 167.09 155.37C162.153 162.049 159.54 166.696 157.216 169.89C155.764 172.214 154.893 174.247 153.731 176.279C150.537 180.926 147.342 185.282 144.148 189.929C143.567 190.51 143.567 189.638 142.986 189.929C140.373 194.285 138.63 197.77 137.178 200.964C129.337 213.452 122.367 226.52 116.269 239.879C113.074 245.688 110.751 252.077 108.137 258.175C104.942 265.726 102.329 273.277 99.715 281.118C94.7781 296.51 90.7123 312.482 87.8082 328.455C87.2274 330.488 86.6466 333.101 85.7754 334.844C86.0658 336.005 86.3562 337.457 86.3562 338.619C84.6137 352.849 84.0329 368.241 85.1945 383.633C85.4849 389.151 86.0657 394.959 86.6465 400.477C87.5178 405.414 88.0986 410.351 89.2603 414.997C89.2603 414.997 89.2603 416.74 88.9698 416.74C88.0986 416.74 87.2274 412.093 86.937 411.512C84.9041 400.767 83.7425 389.732 82 378.986C82.5808 389.151 83.452 395.83 84.0329 400.477C86.0657 405.414 86.6466 408.318 87.5178 411.222C88.9698 416.449 86.6466 408.318 87.5178 411.222ZM185.386 377.825L186.258 378.696C185.386 380.438 185.096 379.567 184.225 380.148C184.515 379.567 184.805 378.696 185.386 377.825ZM316.362 384.794C317.233 383.923 318.104 384.504 318.104 385.375C317.523 386.827 316.942 388.279 316.362 389.732C316.942 387.989 316.942 386.537 316.362 384.794C317.233 383.923 316.942 386.537 316.362 384.794ZM321.008 327.874C321.008 328.164 321.008 328.455 320.718 328.745C320.718 328.745 320.137 326.712 319.266 324.679C318.975 324.099 318.685 323.518 318.685 322.937C319.556 324.679 320.137 326.422 321.008 327.874C320.718 328.164 320.137 326.422 321.008 327.874ZM318.104 385.085C318.104 383.923 318.394 383.633 318.685 383.052C318.685 383.923 318.395 384.504 318.104 385.085ZM209.49 340.362C209.781 340.362 209.781 340.652 209.781 340.943C209.781 340.652 209.781 340.362 209.781 340.071C210.942 338.619 212.104 337.458 213.556 336.005C213.556 336.877 213.556 337.458 212.685 338.329C217.622 336.296 223.43 329.907 224.301 325.26L224.592 324.97C228.077 323.808 224.011 328.745 223.43 331.068C233.014 323.518 242.888 315.967 253.633 310.449C252.471 307.836 253.923 308.126 255.085 305.803L256.537 306.093C255.956 305.803 256.247 304.641 255.666 304.06C261.764 301.156 268.153 299.414 274.252 298.542C273.671 299.704 272.8 300.866 271.638 301.737C276.866 298.833 282.964 300.866 288.482 300.866C287.901 301.447 285.868 301.737 284.126 302.318C282.093 302.608 280.351 303.189 279.479 303.189C280.641 303.189 286.159 302.318 286.159 304.06L287.03 302.027C291.096 302.608 286.159 303.77 287.321 305.222C288.773 305.512 291.096 305.803 292.258 304.641C293.419 303.48 293.419 301.447 295.162 300.866C296.614 301.447 298.066 302.027 299.227 302.899C299.518 303.189 299.808 303.479 300.099 303.479C300.97 304.06 302.131 304.641 303.003 305.222C302.131 305.512 301.841 306.674 301.551 307.255C304.164 306.674 305.036 307.545 305.616 308.997C306.488 310.449 306.778 312.482 309.392 314.515C308.521 315.386 306.197 313.353 305.036 314.225C308.23 315.677 311.715 319.743 314.038 319.162C317.523 324.389 318.395 328.745 319.847 331.94C318.104 329.036 316.652 331.359 314.619 329.907C315.781 330.778 316.942 331.94 318.104 332.811C319.266 334.263 320.427 335.715 321.589 337.458C322.46 338.91 323.332 340.362 324.203 341.814C324.493 344.427 324.784 347.041 324.784 349.364C324.203 349.364 323.622 349.364 322.751 349.074C322.17 352.849 322.46 353.14 323.041 353.72C323.622 354.301 324.493 354.592 323.912 358.367L324.493 355.173V355.463C324.203 358.948 323.912 362.433 323.331 365.627C322.751 365.337 322.17 364.756 322.17 365.918C322.751 366.789 323.041 367.66 322.751 368.532C322.751 368.822 322.46 369.112 322.46 369.403C321.589 372.307 318.975 374.34 318.395 377.244V376.082C318.104 376.663 316.362 379.857 315.781 379.857C315.781 379.857 315.781 379.857 315.49 379.857C315.49 379.857 315.781 380.148 316.071 380.148C314.038 381.31 312.005 383.923 310.844 387.699C312.005 389.732 306.778 398.734 307.359 400.767C307.649 399.315 308.23 397.863 309.392 396.411L311.134 397.573C309.682 400.767 309.392 396.992 309.101 400.477C312.005 401.348 311.134 396.12 312.586 393.797C312.877 394.959 312.877 396.411 312.586 397.863C312.877 396.992 313.458 396.411 313.748 395.54C313.167 396.701 312.877 397.573 312.296 398.734C312.296 398.444 312.586 398.153 312.586 397.863C312.006 399.025 311.715 399.896 311.134 401.057C310.844 401.638 310.553 402.51 309.973 403.09C309.682 402.8 309.101 402.51 308.521 403.09C305.907 405.994 306.488 407.447 306.778 409.189C306.197 410.06 305.616 411.222 305.036 412.093C303.874 412.093 302.712 411.222 300.679 414.707L301.26 411.222C297.194 412.674 300.679 414.417 298.937 416.449C300.099 416.159 300.679 416.449 302.132 414.126C303.293 414.416 302.422 416.449 302.132 417.321L302.422 416.74V417.03C300.97 419.644 299.518 421.967 297.775 424.581L298.066 423.71C297.485 425.162 296.614 426.614 296.033 427.775C295.452 428.356 295.162 429.227 294.581 429.808V429.518C294.581 429.808 294.581 429.808 294.581 430.099C294 430.97 293.419 432.131 292.548 433.003C292.257 432.422 291.967 432.422 291.386 433.583C290.225 431.841 293.71 428.356 294.581 427.485C293.129 429.227 289.934 429.808 291.967 426.614C290.225 426.614 290.805 429.808 289.063 430.97C289.644 430.97 289.644 431.841 290.225 431.841C288.482 430.679 286.159 437.359 287.321 438.23L288.482 434.745C289.353 435.326 289.063 437.069 289.353 438.23C284.126 445.49 278.318 452.46 271.929 459.14C271.348 458.559 271.058 457.107 269.896 457.397C266.411 459.721 268.153 460.592 269.025 462.044C262.636 468.142 255.666 473.951 248.406 478.888C248.115 478.597 248.115 478.307 248.115 477.726C245.792 478.888 247.244 478.888 247.825 479.178C246.663 479.759 245.792 480.63 244.63 481.211C244.34 480.921 243.759 480.63 244.921 479.759C242.597 480.34 242.888 481.211 243.178 482.373C241.145 483.534 239.112 484.696 237.079 485.857C236.499 485.857 235.918 485.567 235.337 485.277C233.595 486.148 232.723 487.31 232.142 487.89C230.981 488.471 229.819 488.762 228.658 489.342C229.238 488.762 229.238 488.181 228.948 487.31C227.205 489.633 225.753 490.214 224.011 491.085C220.236 492.246 216.17 493.408 212.395 493.989C197.003 495.731 182.482 493.408 168.833 485.857C168.542 482.663 167.962 479.759 167.962 476.564C168.833 474.531 168.252 473.951 167.671 473.66C167.671 472.789 167.671 471.918 167.381 471.047C168.252 471.918 169.414 472.499 169.995 473.079C169.123 471.047 168.252 470.175 167.381 469.595C167.381 468.723 167.381 467.852 167.381 467.271C167.671 466.981 168.252 467.271 168.542 466.981C168.252 466.11 167.962 465.529 167.381 465.238C167.381 462.915 167.381 460.882 167.381 458.559C167.381 458.559 167.381 458.268 167.381 457.397C167.381 453.041 167.671 448.975 167.962 444.619C168.252 444.038 168.833 443.748 169.123 443.748C168.833 443.748 168.252 443.457 167.962 443.167C168.252 441.134 168.542 438.811 168.542 436.778L169.995 431.841C172.608 430.97 170.285 435.326 171.156 437.649C172.318 431.841 171.156 433.584 170.575 428.937C170.866 427.775 170.575 426.323 170.285 424.871C170.575 422.838 171.156 421.096 171.447 419.063C171.447 419.353 171.447 419.353 171.737 419.644C172.318 415.578 174.641 418.192 174.351 413.836C173.77 414.416 172.899 414.997 172.318 415.578C172.899 413.255 173.479 411.222 174.06 408.899C174.351 408.318 174.932 408.027 175.512 408.899C176.093 406.866 175.803 405.414 175.222 404.542C175.512 403.381 176.093 402.219 176.384 401.057C177.255 402.8 176.384 405.994 178.707 403.09L177.836 399.315C178.707 399.025 180.74 394.088 182.482 394.959C182.773 393.216 182.192 392.636 182.192 390.893C183.644 390.022 184.515 389.151 184.225 387.118C180.159 393.797 180.449 391.474 177.545 397.573C177.545 397.573 177.545 397.282 177.545 396.992C179.288 391.764 181.611 386.247 183.934 381.31C184.805 381.019 185.096 383.052 185.677 383.633C188 380.148 185.386 378.696 188 376.082C186.838 381.6 190.033 374.921 191.775 373.759C189.742 373.759 188 374.92 185.677 377.825C192.066 363.885 199.907 351.397 209.49 340.362C209.781 340.362 207.167 342.975 209.49 340.362ZM338.433 630.482C336.11 631.063 333.786 631.644 331.463 631.934C329.14 632.225 327.107 631.934 324.784 631.934C330.011 631.063 335.238 630.192 340.466 629.03L338.433 630.482ZM140.082 435.907C140.663 432.422 141.244 428.937 142.115 425.162C144.438 416.159 146.762 407.156 149.956 398.444C145.89 409.479 142.986 421.096 141.244 432.712C140.953 434.164 140.373 435.907 140.082 438.23C139.792 438.23 140.082 437.359 140.082 435.907C140.373 434.164 140.082 437.359 140.082 435.907ZM212.975 138.816C216.46 135.041 219.945 131.556 223.43 128.071C220.236 131.846 216.751 135.331 212.975 138.816C214.427 137.364 214.137 137.655 212.975 138.816ZM226.044 128.362C220.236 133.589 220.816 131.556 223.721 128.071C231.271 120.52 239.403 113.26 247.534 106.581C239.693 112.97 232.433 120.23 226.044 128.362C231.562 121.101 219.945 133.299 226.044 128.362Z" fill="url(#paint43_linear_1_37433)"/>
<path d="M17.1112 446.943C15.9496 445.2 15.6592 443.748 15.6592 443.748C15.6592 443.748 15.6592 444.039 15.9496 444.329C16.8208 447.233 18.5633 449.847 19.7249 452.46C20.3057 453.913 21.177 455.365 22.0482 456.817C22.3386 457.397 23.5003 458.559 23.5003 459.14L26.9852 463.206C23.2098 458.269 20.0153 452.751 17.1112 446.943C17.9825 448.976 15.9496 445.2 17.1112 446.943Z" fill="url(#paint44_linear_1_37433)"/>
<path d="M3.1709 334.261C3.1709 335.423 3.4613 335.423 3.75171 334.842C3.4613 334.552 3.46131 334.261 3.1709 334.261Z" fill="url(#paint45_linear_1_37433)"/>
<path d="M85.0674 155.079C86.8098 152.756 88.2619 150.723 90.5852 147.528C88.2619 150.432 86.5194 152.756 85.0674 155.079Z" fill="url(#paint46_linear_1_37433)"/>
<path d="M2.30006 331.068L0.557617 338.038L1.42886 341.232L2.30006 331.068Z" fill="url(#paint47_linear_1_37433)"/>
<path d="M96.9738 139.687L101.911 132.427L97.5547 137.654C93.7793 141.72 92.9081 143.753 96.9738 139.687Z" fill="url(#paint48_linear_1_37433)"/>
<path d="M133.565 105.129C127.757 110.066 122.239 115.003 116.431 120.231L127.757 111.809C127.757 110.937 130.08 108.905 130.661 108.614C131.822 107.453 132.694 106.291 133.565 105.129Z" fill="url(#paint49_linear_1_37433)"/>
<path d="M304.908 114.131C297.939 121.972 292.13 130.394 287.193 137.073C300.262 122.262 311.878 106.29 325.528 91.769C318.267 98.7389 311.588 106.29 304.908 114.131C308.393 110.065 297.939 121.972 304.908 114.131Z" fill="url(#paint50_linear_1_37433)"/>
<path d="M245.373 101.643C244.502 103.385 243.921 104.257 243.921 104.257C263.959 81.8951 256.118 85.6705 254.376 85.3801C251.472 89.7362 247.115 95.254 254.376 86.8321C251.472 92.0595 248.277 96.706 245.373 101.643C246.244 100.191 244.502 103.385 245.373 101.643Z" fill="url(#paint51_linear_1_37433)"/>
<path d="M272.382 49.9515C266.284 52.5652 260.475 55.1789 254.667 58.083C250.021 60.4063 245.084 62.7295 241.308 66.2145C240.147 67.3761 239.856 67.9571 241.018 67.9571C249.149 63.6009 257.281 59.5351 265.703 55.7598C261.347 57.5022 256.99 59.2446 252.634 61.2775C258.733 56.6309 265.703 53.1461 272.382 49.9515C267.736 52.2748 262.799 54.0173 272.382 49.9515Z" fill="url(#paint52_linear_1_37433)"/>
<path d="M287.773 44.4331C289.225 44.4331 290.387 43.5619 291.549 42.6907C289.806 43.2715 288.064 43.8522 286.321 44.4331C286.612 44.4331 287.192 44.1427 287.192 44.1427L287.773 44.4331Z" fill="url(#paint53_linear_1_37433)"/>
<path d="M275.868 48.2076C274.416 48.7884 273.544 49.3692 272.383 49.6596C277.029 47.9171 281.676 46.1747 286.323 44.4323C283.999 45.0131 281.095 45.8843 275.868 48.2076C281.095 45.8843 274.416 48.7884 275.868 48.2076Z" fill="url(#paint54_linear_1_37433)"/>
<path d="M215.752 80.1526C206.169 85.6704 197.456 92.0596 188.454 98.4487C184.969 101.062 182.646 103.095 182.646 103.095C187.582 99.6102 192.52 96.1253 197.747 92.9308C199.78 88.865 216.914 81.6047 222.432 76.3773C222.141 76.3773 219.528 77.8293 215.752 80.1526C219.528 77.8293 211.687 82.4759 215.752 80.1526Z" fill="url(#paint55_linear_1_37433)"/>
<path d="M36.2781 347.33C36.2781 347.62 35.9877 348.492 35.6973 349.944C35.9877 349.072 35.9877 348.201 36.2781 347.33Z" fill="url(#paint56_linear_1_37433)"/>
<path d="M37.1485 353.14C37.1485 353.43 37.1486 354.882 37.439 355.173C37.1486 355.173 38.0198 349.365 38.3102 348.784C38.6006 345.589 38.891 342.395 39.1815 339.491C39.1815 335.715 39.4718 332.23 39.4718 328.455C40.6335 320.323 41.7952 312.482 43.5376 304.351C45.5705 295.929 47.8938 287.797 50.5075 279.666C53.1212 272.696 55.4444 266.307 57.7677 261.37C56.6061 262.532 55.4445 263.984 54.2828 265.145C48.765 278.504 45.2801 292.444 42.3759 306.384C39.7622 320.033 38.6006 333.682 36.2773 347.332C36.8582 345.88 36.8581 350.236 37.1485 353.14C37.439 354.882 36.8581 350.236 37.1485 353.14Z" fill="url(#paint57_linear_1_37433)"/>
<path d="M34.8265 377.825C34.8265 376.083 34.8265 374.34 34.536 372.598C34.536 372.307 33.6648 368.822 33.6648 368.822C33.084 369.403 33.3744 371.146 33.3744 372.017C33.3744 373.759 33.084 375.502 33.084 376.954C33.6648 387.989 36.8593 399.606 36.5689 393.507C34.2456 388.57 35.1169 383.343 34.8265 377.825C34.8265 379.858 34.8265 375.792 34.8265 377.825Z" fill="url(#paint58_linear_1_37433)"/>
<path d="M59.2199 412.674C60.9623 406.866 62.7048 401.058 64.1568 395.249C65.3185 389.732 65.8993 384.214 67.9322 378.986C63.8664 386.537 60.6719 394.959 58.9294 403.381C58.639 405.124 57.4774 408.318 58.0582 410.06C58.3486 410.641 60.9623 404.543 60.9623 404.252C58.0582 412.965 55.4445 425.452 59.2199 412.674C60.0911 409.189 55.4445 425.452 59.2199 412.674Z" fill="url(#paint59_linear_1_37433)"/>
<path d="M217.784 279.375C220.688 279.666 223.592 279.666 226.496 279.956C226.496 279.956 224.463 279.375 222.721 278.795C220.688 278.504 218.655 277.923 218.655 277.923C215.46 278.214 212.266 278.504 209.071 279.375C211.975 279.375 214.88 279.085 217.784 279.375C219.816 279.375 215.751 279.085 217.784 279.375Z" fill="url(#paint60_linear_1_37433)"/>
<path d="M249.149 424.582C245.955 430.971 242.47 437.069 238.694 443.168C239.275 443.168 241.018 439.973 241.308 439.392C243.341 436.198 245.664 433.003 247.407 429.809C247.987 428.938 255.829 416.74 255.248 415.869C253.505 418.193 251.763 420.516 250.02 423.13C249.44 424.291 249.149 424.582 249.149 424.582Z" fill="url(#paint61_linear_1_37433)"/>
<path d="M229.4 452.171C230.272 451.3 230.562 450.719 230.562 450.719C229.981 451.009 229.691 451.59 229.4 452.171Z" fill="url(#paint62_linear_1_37433)"/>
<path d="M214.881 468.143C213.139 469.886 211.687 471.047 211.687 471.047C211.687 471.047 213.429 469.595 215.462 467.853C217.204 466.11 219.237 464.658 219.237 464.658C221.561 462.335 224.174 459.721 226.207 457.108C227.369 455.365 228.24 453.623 229.692 452.171C224.755 457.688 219.818 462.916 214.881 468.143C216.624 466.11 212.848 469.886 214.881 468.143Z" fill="url(#paint63_linear_1_37433)"/>
<path d="M167.254 502.701C166.963 502.991 166.382 502.991 166.092 503.281C166.092 503.281 166.673 502.991 167.254 502.701Z" fill="url(#paint64_linear_1_37433)"/>
<path d="M170.738 500.959C169.576 501.54 168.415 502.121 167.253 502.701C169.286 501.83 171.028 500.959 173.061 500.088C176.836 497.765 180.321 495.441 183.806 493.118C187.291 490.504 190.486 488.181 193.971 485.567C193.971 485.567 192.228 486.729 189.905 488.762C187.291 490.504 184.097 493.118 180.612 495.151C177.127 497.184 173.352 499.217 170.738 500.959C173.352 499.217 169.286 501.54 170.738 500.959Z" fill="url(#paint65_linear_1_37433)"/>
<defs>
<linearGradient id="paint0_linear_1_37433" x1="215.462" y1="419.821" x2="217.37" y2="421.922" gradientUnits="userSpaceOnUse">
<stop offset="0.0778503" stop-color="#AB8757"/>
<stop offset="0.369009" stop-color="#C7A16D"/>
<stop offset="0.591702" stop-color="#DAB27E"/>
<stop offset="0.930539" stop-color="#B99768"/>
</linearGradient>
<linearGradient id="paint1_linear_1_37433" x1="205.297" y1="430.379" x2="205.316" y2="430.727" gradientUnits="userSpaceOnUse">
<stop offset="0.0778503" stop-color="#AB8757"/>
<stop offset="0.369009" stop-color="#C7A16D"/>
<stop offset="0.591702" stop-color="#DAB27E"/>
<stop offset="0.930539" stop-color="#B99768"/>
</linearGradient>
<linearGradient id="paint2_linear_1_37433" x1="202.975" y1="304.03" x2="203.39" y2="304.87" gradientUnits="userSpaceOnUse">
<stop offset="0.0778503" stop-color="#AB8757"/>
<stop offset="0.369009" stop-color="#C7A16D"/>
<stop offset="0.591702" stop-color="#DAB27E"/>
<stop offset="0.930539" stop-color="#B99768"/>
</linearGradient>
<linearGradient id="paint3_linear_1_37433" x1="219.311" y1="417.014" x2="219.466" y2="417.485" gradientUnits="userSpaceOnUse">
<stop offset="0.0778503" stop-color="#AB8757"/>
<stop offset="0.369009" stop-color="#C7A16D"/>
<stop offset="0.591702" stop-color="#DAB27E"/>
<stop offset="0.930539" stop-color="#B99768"/>
</linearGradient>
<linearGradient id="paint4_linear_1_37433" x1="214.88" y1="416.117" x2="215.032" y2="417.495" gradientUnits="userSpaceOnUse">
<stop offset="0.0778503" stop-color="#AB8757"/>
<stop offset="0.369009" stop-color="#C7A16D"/>
<stop offset="0.591702" stop-color="#DAB27E"/>
<stop offset="0.930539" stop-color="#B99768"/>
</linearGradient>
<linearGradient id="paint5_linear_1_37433" x1="232.596" y1="378.966" x2="232.708" y2="379.645" gradientUnits="userSpaceOnUse">
<stop offset="0.0778503" stop-color="#AB8757"/>
<stop offset="0.369009" stop-color="#C7A16D"/>
<stop offset="0.591702" stop-color="#DAB27E"/>
<stop offset="0.930539" stop-color="#B99768"/>
</linearGradient>
<linearGradient id="paint6_linear_1_37433" x1="231.144" y1="375.605" x2="232.398" y2="379.073" gradientUnits="userSpaceOnUse">
<stop offset="0.0778503" stop-color="#AB8757"/>
<stop offset="0.369009" stop-color="#C7A16D"/>
<stop offset="0.591702" stop-color="#DAB27E"/>
<stop offset="0.930539" stop-color="#B99768"/>
</linearGradient>
<linearGradient id="paint7_linear_1_37433" x1="122.239" y1="350.66" x2="123.506" y2="354.833" gradientUnits="userSpaceOnUse">
<stop offset="0.0778503" stop-color="#AB8757"/>
<stop offset="0.369009" stop-color="#C7A16D"/>
<stop offset="0.591702" stop-color="#DAB27E"/>
<stop offset="0.930539" stop-color="#B99768"/>
</linearGradient>
<linearGradient id="paint8_linear_1_37433" x1="114.399" y1="359.295" x2="117.06" y2="366.3" gradientUnits="userSpaceOnUse">
<stop offset="0.0778503" stop-color="#AB8757"/>
<stop offset="0.369009" stop-color="#C7A16D"/>
<stop offset="0.591702" stop-color="#DAB27E"/>
<stop offset="0.930539" stop-color="#B99768"/>
</linearGradient>
<linearGradient id="paint9_linear_1_37433" x1="109.825" y1="367.04" x2="110.517" y2="367.825" gradientUnits="userSpaceOnUse">
<stop offset="0.0778503" stop-color="#AB8757"/>
<stop offset="0.369009" stop-color="#C7A16D"/>
<stop offset="0.591702" stop-color="#DAB27E"/>
<stop offset="0.930539" stop-color="#B99768"/>
</linearGradient>
<linearGradient id="paint10_linear_1_37433" x1="110.043" y1="365.735" x2="111.756" y2="371.499" gradientUnits="userSpaceOnUse">
<stop offset="0.0778503" stop-color="#AB8757"/>
<stop offset="0.369009" stop-color="#C7A16D"/>
<stop offset="0.591702" stop-color="#DAB27E"/>
<stop offset="0.930539" stop-color="#B99768"/>
</linearGradient>
<linearGradient id="paint11_linear_1_37433" x1="88.8418" y1="423.007" x2="90.7651" y2="425.919" gradientUnits="userSpaceOnUse">
<stop offset="0.0778503" stop-color="#AB8757"/>
<stop offset="0.369009" stop-color="#C7A16D"/>
<stop offset="0.591702" stop-color="#DAB27E"/>
<stop offset="0.930539" stop-color="#B99768"/>
</linearGradient>
<linearGradient id="paint12_linear_1_37433" x1="86.8096" y1="472.156" x2="87.4242" y2="473.645" gradientUnits="userSpaceOnUse">
<stop offset="0.0778503" stop-color="#AB8757"/>
<stop offset="0.369009" stop-color="#C7A16D"/>
<stop offset="0.591702" stop-color="#DAB27E"/>
<stop offset="0.930539" stop-color="#B99768"/>
</linearGradient>
<linearGradient id="paint13_linear_1_37433" x1="87.3896" y1="441.653" x2="87.8777" y2="443.623" gradientUnits="userSpaceOnUse">
<stop offset="0.0778503" stop-color="#AB8757"/>
<stop offset="0.369009" stop-color="#C7A16D"/>
<stop offset="0.591702" stop-color="#DAB27E"/>
<stop offset="0.930539" stop-color="#B99768"/>
</linearGradient>
<linearGradient id="paint14_linear_1_37433" x1="87.9717" y1="474.528" x2="88.4312" y2="476.443" gradientUnits="userSpaceOnUse">
<stop offset="0.0778503" stop-color="#AB8757"/>
<stop offset="0.369009" stop-color="#C7A16D"/>
<stop offset="0.591702" stop-color="#DAB27E"/>
<stop offset="0.930539" stop-color="#B99768"/>
</linearGradient>
<linearGradient id="paint15_linear_1_37433" x1="86.5186" y1="479.087" x2="87.5426" y2="481.843" gradientUnits="userSpaceOnUse">
<stop offset="0.0778503" stop-color="#AB8757"/>
<stop offset="0.369009" stop-color="#C7A16D"/>
<stop offset="0.591702" stop-color="#DAB27E"/>
<stop offset="0.930539" stop-color="#B99768"/>
</linearGradient>
<linearGradient id="paint16_linear_1_37433" x1="193.972" y1="440.882" x2="195.87" y2="449.159" gradientUnits="userSpaceOnUse">
<stop offset="0.0778503" stop-color="#AB8757"/>
<stop offset="0.369009" stop-color="#C7A16D"/>
<stop offset="0.591702" stop-color="#DAB27E"/>
<stop offset="0.930539" stop-color="#B99768"/>
</linearGradient>
<linearGradient id="paint17_linear_1_37433" x1="207.331" y1="419.182" x2="208.832" y2="424.698" gradientUnits="userSpaceOnUse">
<stop offset="0.0778503" stop-color="#AB8757"/>
<stop offset="0.369009" stop-color="#C7A16D"/>
<stop offset="0.591702" stop-color="#DAB27E"/>
<stop offset="0.930539" stop-color="#B99768"/>
</linearGradient>
<linearGradient id="paint18_linear_1_37433" x1="218.656" y1="397.048" x2="221.483" y2="403.897" gradientUnits="userSpaceOnUse">
<stop offset="0.0778503" stop-color="#AB8757"/>
<stop offset="0.369009" stop-color="#C7A16D"/>
<stop offset="0.591702" stop-color="#DAB27E"/>
<stop offset="0.930539" stop-color="#B99768"/>
</linearGradient>
<linearGradient id="paint19_linear_1_37433" x1="219.287" y1="405.943" x2="219.756" y2="407.549" gradientUnits="userSpaceOnUse">
<stop offset="0.0778503" stop-color="#AB8757"/>
<stop offset="0.369009" stop-color="#C7A16D"/>
<stop offset="0.591702" stop-color="#DAB27E"/>
<stop offset="0.930539" stop-color="#B99768"/>
</linearGradient>
<linearGradient id="paint20_linear_1_37433" x1="220.108" y1="403.89" x2="221.051" y2="405.883" gradientUnits="userSpaceOnUse">
<stop offset="0.0778503" stop-color="#AB8757"/>
<stop offset="0.369009" stop-color="#C7A16D"/>
<stop offset="0.591702" stop-color="#DAB27E"/>
<stop offset="0.930539" stop-color="#B99768"/>
</linearGradient>
<linearGradient id="paint21_linear_1_37433" x1="221.802" y1="388.629" x2="224.43" y2="395.663" gradientUnits="userSpaceOnUse">
<stop offset="0.0778503" stop-color="#AB8757"/>
<stop offset="0.369009" stop-color="#C7A16D"/>
<stop offset="0.591702" stop-color="#DAB27E"/>
<stop offset="0.930539" stop-color="#B99768"/>
</linearGradient>
<linearGradient id="paint22_linear_1_37433" x1="234.338" y1="346.987" x2="242.476" y2="356.798" gradientUnits="userSpaceOnUse">
<stop offset="0.0778503" stop-color="#AB8757"/>
<stop offset="0.369009" stop-color="#C7A16D"/>
<stop offset="0.591702" stop-color="#DAB27E"/>
<stop offset="0.930539" stop-color="#B99768"/>
</linearGradient>
<linearGradient id="paint23_linear_1_37433" x1="237.453" y1="341.416" x2="238.779" y2="345.728" gradientUnits="userSpaceOnUse">
<stop offset="0.0778503" stop-color="#AB8757"/>
<stop offset="0.369009" stop-color="#C7A16D"/>
<stop offset="0.591702" stop-color="#DAB27E"/>
<stop offset="0.930539" stop-color="#B99768"/>
</linearGradient>
<linearGradient id="paint24_linear_1_37433" x1="228.53" y1="324.281" x2="228.894" y2="328.002" gradientUnits="userSpaceOnUse">
<stop offset="0.0778503" stop-color="#AB8757"/>
<stop offset="0.369009" stop-color="#C7A16D"/>
<stop offset="0.591702" stop-color="#DAB27E"/>
<stop offset="0.930539" stop-color="#B99768"/>
</linearGradient>
<linearGradient id="paint25_linear_1_37433" x1="212.267" y1="303.418" x2="212.472" y2="305.489" gradientUnits="userSpaceOnUse">
<stop offset="0.0778503" stop-color="#AB8757"/>
<stop offset="0.369009" stop-color="#C7A16D"/>
<stop offset="0.591702" stop-color="#DAB27E"/>
<stop offset="0.930539" stop-color="#B99768"/>
</linearGradient>
<linearGradient id="paint26_linear_1_37433" x1="187.873" y1="303.698" x2="188.088" y2="306.119" gradientUnits="userSpaceOnUse">
<stop offset="0.0778503" stop-color="#AB8757"/>
<stop offset="0.369009" stop-color="#C7A16D"/>
<stop offset="0.591702" stop-color="#DAB27E"/>
<stop offset="0.930539" stop-color="#B99768"/>
</linearGradient>
<linearGradient id="paint27_linear_1_37433" x1="182.064" y1="304.3" x2="182.175" y2="306.036" gradientUnits="userSpaceOnUse">
<stop offset="0.0778503" stop-color="#AB8757"/>
<stop offset="0.369009" stop-color="#C7A16D"/>
<stop offset="0.591702" stop-color="#DAB27E"/>
<stop offset="0.930539" stop-color="#B99768"/>
</linearGradient>
<linearGradient id="paint28_linear_1_37433" x1="175.095" y1="306.013" x2="175.355" y2="308.776" gradientUnits="userSpaceOnUse">
<stop offset="0.0778503" stop-color="#AB8757"/>
<stop offset="0.369009" stop-color="#C7A16D"/>
<stop offset="0.591702" stop-color="#DAB27E"/>
<stop offset="0.930539" stop-color="#B99768"/>
</linearGradient>
<linearGradient id="paint29_linear_1_37433" x1="265.992" y1="69.7421" x2="269.527" y2="87.51" gradientUnits="userSpaceOnUse">
<stop offset="0.0778503" stop-color="#AB8757"/>
<stop offset="0.369009" stop-color="#C7A16D"/>
<stop offset="0.591702" stop-color="#DAB27E"/>
<stop offset="0.930539" stop-color="#B99768"/>
</linearGradient>
<linearGradient id="paint30_linear_1_37433" x1="215.062" y1="143.829" x2="218.72" y2="147.389" gradientUnits="userSpaceOnUse">
<stop offset="0.0778503" stop-color="#AB8757"/>
<stop offset="0.369009" stop-color="#C7A16D"/>
<stop offset="0.591702" stop-color="#DAB27E"/>
<stop offset="0.930539" stop-color="#B99768"/>
</linearGradient>
<linearGradient id="paint31_linear_1_37433" x1="272.673" y1="328.3" x2="273.065" y2="330.078" gradientUnits="userSpaceOnUse">
<stop offset="0.0778503" stop-color="#AB8757"/>
<stop offset="0.369009" stop-color="#C7A16D"/>
<stop offset="0.591702" stop-color="#DAB27E"/>
<stop offset="0.930539" stop-color="#B99768"/>
</linearGradient>
<linearGradient id="paint32_linear_1_37433" x1="297.745" y1="50.4452" x2="298.231" y2="53.3847" gradientUnits="userSpaceOnUse">
<stop offset="0.0778503" stop-color="#AB8757"/>
<stop offset="0.369009" stop-color="#C7A16D"/>
<stop offset="0.591702" stop-color="#DAB27E"/>
<stop offset="0.930539" stop-color="#B99768"/>
</linearGradient>
<linearGradient id="paint33_linear_1_37433" x1="265.122" y1="85.6307" x2="265.415" y2="86.9604" gradientUnits="userSpaceOnUse">
<stop offset="0.0778503" stop-color="#AB8757"/>
<stop offset="0.369009" stop-color="#C7A16D"/>
<stop offset="0.591702" stop-color="#DAB27E"/>
<stop offset="0.930539" stop-color="#B99768"/>
</linearGradient>
<linearGradient id="paint34_linear_1_37433" x1="285.741" y1="52.0212" x2="286.957" y2="60.5608" gradientUnits="userSpaceOnUse">
<stop offset="0.0778503" stop-color="#AB8757"/>
<stop offset="0.369009" stop-color="#C7A16D"/>
<stop offset="0.591702" stop-color="#DAB27E"/>
<stop offset="0.930539" stop-color="#B99768"/>
</linearGradient>
<linearGradient id="paint35_linear_1_37433" x1="347.889" y1="566.821" x2="348.225" y2="568.857" gradientUnits="userSpaceOnUse">
<stop offset="0.0778503" stop-color="#AB8757"/>
<stop offset="0.369009" stop-color="#C7A16D"/>
<stop offset="0.591702" stop-color="#DAB27E"/>
<stop offset="0.930539" stop-color="#B99768"/>
</linearGradient>
<linearGradient id="paint36_linear_1_37433" x1="120.787" y1="153.356" x2="121.69" y2="156.437" gradientUnits="userSpaceOnUse">
<stop offset="0.0778503" stop-color="#AB8757"/>
<stop offset="0.369009" stop-color="#C7A16D"/>
<stop offset="0.591702" stop-color="#DAB27E"/>
<stop offset="0.930539" stop-color="#B99768"/>
</linearGradient>
<linearGradient id="paint37_linear_1_37433" x1="108.739" y1="155.375" x2="112.989" y2="174.19" gradientUnits="userSpaceOnUse">
<stop offset="0.0778503" stop-color="#AB8757"/>
<stop offset="0.369009" stop-color="#C7A16D"/>
<stop offset="0.591702" stop-color="#DAB27E"/>
<stop offset="0.930539" stop-color="#B99768"/>
</linearGradient>
<linearGradient id="paint38_linear_1_37433" x1="389.338" y1="508.712" x2="390.013" y2="521.676" gradientUnits="userSpaceOnUse">
<stop offset="0.0778503" stop-color="#AB8757"/>
<stop offset="0.369009" stop-color="#C7A16D"/>
<stop offset="0.591702" stop-color="#DAB27E"/>
<stop offset="0.930539" stop-color="#B99768"/>
</linearGradient>
<linearGradient id="paint39_linear_1_37433" x1="361.537" y1="555.352" x2="366.772" y2="591.537" gradientUnits="userSpaceOnUse">
<stop offset="0.0778503" stop-color="#AB8757"/>
<stop offset="0.369009" stop-color="#C7A16D"/>
<stop offset="0.591702" stop-color="#DAB27E"/>
<stop offset="0.930539" stop-color="#B99768"/>
</linearGradient>
<linearGradient id="paint40_linear_1_37433" x1="332.921" y1="596.372" x2="333.453" y2="600.903" gradientUnits="userSpaceOnUse">
<stop offset="0.0778503" stop-color="#AB8757"/>
<stop offset="0.369009" stop-color="#C7A16D"/>
<stop offset="0.591702" stop-color="#DAB27E"/>
<stop offset="0.930539" stop-color="#B99768"/>
</linearGradient>
<linearGradient id="paint41_linear_1_37433" x1="322.043" y1="589.154" x2="324.26" y2="611.94" gradientUnits="userSpaceOnUse">
<stop offset="0.0778503" stop-color="#AB8757"/>
<stop offset="0.369009" stop-color="#C7A16D"/>
<stop offset="0.591702" stop-color="#DAB27E"/>
<stop offset="0.930539" stop-color="#B99768"/>
</linearGradient>
<linearGradient id="paint42_linear_1_37433" x1="305.489" y1="615.241" x2="305.526" y2="616.073" gradientUnits="userSpaceOnUse">
<stop offset="0.0778503" stop-color="#AB8757"/>
<stop offset="0.369009" stop-color="#C7A16D"/>
<stop offset="0.591702" stop-color="#DAB27E"/>
<stop offset="0.930539" stop-color="#B99768"/>
</linearGradient>
<linearGradient id="paint43_linear_1_37433" x1="82" y1="-22.2067" x2="260.945" y2="696.473" gradientUnits="userSpaceOnUse">
<stop offset="0.0778503" stop-color="#AB8757"/>
<stop offset="0.369009" stop-color="#C7A16D"/>
<stop offset="0.591702" stop-color="#DAB27E"/>
<stop offset="0.930539" stop-color="#B99768"/>
</linearGradient>
<linearGradient id="paint44_linear_1_37433" x1="15.6592" y1="443.069" x2="21.7902" y2="464.68" gradientUnits="userSpaceOnUse">
<stop offset="0.0778503" stop-color="#AB8757"/>
<stop offset="0.369009" stop-color="#C7A16D"/>
<stop offset="0.591702" stop-color="#DAB27E"/>
<stop offset="0.930539" stop-color="#B99768"/>
</linearGradient>
<linearGradient id="paint45_linear_1_37433" x1="3.1709" y1="334.228" x2="3.46489" y2="335.302" gradientUnits="userSpaceOnUse">
<stop offset="0.0778503" stop-color="#AB8757"/>
<stop offset="0.369009" stop-color="#C7A16D"/>
<stop offset="0.591702" stop-color="#DAB27E"/>
<stop offset="0.930539" stop-color="#B99768"/>
</linearGradient>
<linearGradient id="paint46_linear_1_37433" x1="85.0674" y1="147.265" x2="87.0156" y2="155.886" gradientUnits="userSpaceOnUse">
<stop offset="0.0778503" stop-color="#AB8757"/>
<stop offset="0.369009" stop-color="#C7A16D"/>
<stop offset="0.591702" stop-color="#DAB27E"/>
<stop offset="0.930539" stop-color="#B99768"/>
</linearGradient>
<linearGradient id="paint47_linear_1_37433" x1="0.557617" y1="330.713" x2="6.65228" y2="337.04" gradientUnits="userSpaceOnUse">
<stop offset="0.0778503" stop-color="#AB8757"/>
<stop offset="0.369009" stop-color="#C7A16D"/>
<stop offset="0.591702" stop-color="#DAB27E"/>
<stop offset="0.930539" stop-color="#B99768"/>
</linearGradient>
<linearGradient id="paint48_linear_1_37433" x1="94.2988" y1="132.096" x2="96.542" y2="143.007" gradientUnits="userSpaceOnUse">
<stop offset="0.0778503" stop-color="#AB8757"/>
<stop offset="0.369009" stop-color="#C7A16D"/>
<stop offset="0.591702" stop-color="#DAB27E"/>
<stop offset="0.930539" stop-color="#B99768"/>
</linearGradient>
<linearGradient id="paint49_linear_1_37433" x1="116.431" y1="104.602" x2="119.014" y2="122.349" gradientUnits="userSpaceOnUse">
<stop offset="0.0778503" stop-color="#AB8757"/>
<stop offset="0.369009" stop-color="#C7A16D"/>
<stop offset="0.591702" stop-color="#DAB27E"/>
<stop offset="0.930539" stop-color="#B99768"/>
</linearGradient>
<linearGradient id="paint50_linear_1_37433" x1="287.193" y1="90.1872" x2="297.415" y2="142.56" gradientUnits="userSpaceOnUse">
<stop offset="0.0778503" stop-color="#AB8757"/>
<stop offset="0.369009" stop-color="#C7A16D"/>
<stop offset="0.591702" stop-color="#DAB27E"/>
<stop offset="0.930539" stop-color="#B99768"/>
</linearGradient>
<linearGradient id="paint51_linear_1_37433" x1="243.921" y1="84.6408" x2="248.951" y2="106.214" gradientUnits="userSpaceOnUse">
<stop offset="0.0778503" stop-color="#AB8757"/>
<stop offset="0.369009" stop-color="#C7A16D"/>
<stop offset="0.591702" stop-color="#DAB27E"/>
<stop offset="0.930539" stop-color="#B99768"/>
</linearGradient>
<linearGradient id="paint52_linear_1_37433" x1="240.278" y1="49.3229" x2="242.263" y2="70.7467" gradientUnits="userSpaceOnUse">
<stop offset="0.0778503" stop-color="#AB8757"/>
<stop offset="0.369009" stop-color="#C7A16D"/>
<stop offset="0.591702" stop-color="#DAB27E"/>
<stop offset="0.930539" stop-color="#B99768"/>
</linearGradient>
<linearGradient id="paint53_linear_1_37433" x1="286.321" y1="42.6298" x2="286.436" y2="44.7145" gradientUnits="userSpaceOnUse">
<stop offset="0.0778503" stop-color="#AB8757"/>
<stop offset="0.369009" stop-color="#C7A16D"/>
<stop offset="0.591702" stop-color="#DAB27E"/>
<stop offset="0.930539" stop-color="#B99768"/>
</linearGradient>
<linearGradient id="paint54_linear_1_37433" x1="272.383" y1="44.2497" x2="272.77" y2="50.4989" gradientUnits="userSpaceOnUse">
<stop offset="0.0778503" stop-color="#AB8757"/>
<stop offset="0.369009" stop-color="#C7A16D"/>
<stop offset="0.591702" stop-color="#DAB27E"/>
<stop offset="0.930539" stop-color="#B99768"/>
</linearGradient>
<linearGradient id="paint55_linear_1_37433" x1="182.646" y1="75.4444" x2="186.158" y2="107.118" gradientUnits="userSpaceOnUse">
<stop offset="0.0778503" stop-color="#AB8757"/>
<stop offset="0.369009" stop-color="#C7A16D"/>
<stop offset="0.591702" stop-color="#DAB27E"/>
<stop offset="0.930539" stop-color="#B99768"/>
</linearGradient>
<linearGradient id="paint56_linear_1_37433" x1="35.6973" y1="347.239" x2="37.1989" y2="349.259" gradientUnits="userSpaceOnUse">
<stop offset="0.0778503" stop-color="#AB8757"/>
<stop offset="0.369009" stop-color="#C7A16D"/>
<stop offset="0.591702" stop-color="#DAB27E"/>
<stop offset="0.930539" stop-color="#B99768"/>
</linearGradient>
<linearGradient id="paint57_linear_1_37433" x1="36.2773" y1="258.095" x2="89.6746" y2="332.174" gradientUnits="userSpaceOnUse">
<stop offset="0.0778503" stop-color="#AB8757"/>
<stop offset="0.369009" stop-color="#C7A16D"/>
<stop offset="0.591702" stop-color="#DAB27E"/>
<stop offset="0.930539" stop-color="#B99768"/>
</linearGradient>
<linearGradient id="paint58_linear_1_37433" x1="33.084" y1="367.902" x2="48.5389" y2="380.337" gradientUnits="userSpaceOnUse">
<stop offset="0.0778503" stop-color="#AB8757"/>
<stop offset="0.369009" stop-color="#C7A16D"/>
<stop offset="0.591702" stop-color="#DAB27E"/>
<stop offset="0.930539" stop-color="#B99768"/>
</linearGradient>
<linearGradient id="paint59_linear_1_37433" x1="57.3418" y1="377.619" x2="78.2385" y2="411.847" gradientUnits="userSpaceOnUse">
<stop offset="0.0778503" stop-color="#AB8757"/>
<stop offset="0.369009" stop-color="#C7A16D"/>
<stop offset="0.591702" stop-color="#DAB27E"/>
<stop offset="0.930539" stop-color="#B99768"/>
</linearGradient>
<linearGradient id="paint60_linear_1_37433" x1="209.071" y1="277.852" x2="209.118" y2="280.291" gradientUnits="userSpaceOnUse">
<stop offset="0.0778503" stop-color="#AB8757"/>
<stop offset="0.369009" stop-color="#C7A16D"/>
<stop offset="0.591702" stop-color="#DAB27E"/>
<stop offset="0.930539" stop-color="#B99768"/>
</linearGradient>
<linearGradient id="paint61_linear_1_37433" x1="238.694" y1="414.916" x2="246.987" y2="445.422" gradientUnits="userSpaceOnUse">
<stop offset="0.0778503" stop-color="#AB8757"/>
<stop offset="0.369009" stop-color="#C7A16D"/>
<stop offset="0.591702" stop-color="#DAB27E"/>
<stop offset="0.930539" stop-color="#B99768"/>
</linearGradient>
<linearGradient id="paint62_linear_1_37433" x1="229.4" y1="450.668" x2="229.745" y2="452.34" gradientUnits="userSpaceOnUse">
<stop offset="0.0778503" stop-color="#AB8757"/>
<stop offset="0.369009" stop-color="#C7A16D"/>
<stop offset="0.591702" stop-color="#DAB27E"/>
<stop offset="0.930539" stop-color="#B99768"/>
</linearGradient>
<linearGradient id="paint63_linear_1_37433" x1="211.687" y1="451.512" x2="215.494" y2="473.505" gradientUnits="userSpaceOnUse">
<stop offset="0.0778503" stop-color="#AB8757"/>
<stop offset="0.369009" stop-color="#C7A16D"/>
<stop offset="0.591702" stop-color="#DAB27E"/>
<stop offset="0.930539" stop-color="#B99768"/>
</linearGradient>
<linearGradient id="paint64_linear_1_37433" x1="166.092" y1="502.68" x2="166.149" y2="503.373" gradientUnits="userSpaceOnUse">
<stop offset="0.0778503" stop-color="#AB8757"/>
<stop offset="0.369009" stop-color="#C7A16D"/>
<stop offset="0.591702" stop-color="#DAB27E"/>
<stop offset="0.930539" stop-color="#B99768"/>
</linearGradient>
<linearGradient id="paint65_linear_1_37433" x1="167.253" y1="484.969" x2="169.406" y2="505.303" gradientUnits="userSpaceOnUse">
<stop offset="0.0778503" stop-color="#AB8757"/>
<stop offset="0.369009" stop-color="#C7A16D"/>
<stop offset="0.591702" stop-color="#DAB27E"/>
<stop offset="0.930539" stop-color="#B99768"/>
</linearGradient>
</defs>
</svg>
