<svg width="224" height="537" viewBox="0 0 224 537" fill="none" xmlns="http://www.w3.org/2000/svg">
<path d="M142.477 183.857C142.555 183.567 142.555 183.567 142.555 183.567C142.249 180.064 142.01 185.598 142.477 183.857Z" fill="url(#paint0_linear_1_26155)"/>
<path d="M60.095 523.816C60.7323 524.92 62.354 528.154 63.8466 526.065C64.8935 524.48 65.4377 522.448 66.5624 520.573C68.9103 515.292 71.6262 509.8 73.9741 504.519C73.9741 504.519 74.0519 504.229 74.2643 504.597C74.342 504.307 74.342 504.307 74.4198 504.017C76.011 500.4 78.0479 496.28 79.7946 492.083C79.7737 493.321 79.3072 495.063 78.1048 497.229C84.464 487.425 92.8087 467.889 94.1931 459.24C94.2708 458.95 94.4264 458.37 94.7943 458.157C99.0597 451.525 93.4308 465.568 92.1867 470.211C97.8517 458.355 103.226 446.421 108.679 434.197C114.287 421.393 120.263 408.376 124.42 395.183L124.498 394.893L124.576 394.602C124.752 392.784 124.192 391.39 123.555 390.286C122.125 388.659 119.881 387.746 117.751 388.731C117.383 388.943 117.016 389.156 116.938 389.446C116.57 389.658 116.492 389.948 116.124 390.161C116.046 390.451 115.678 390.663 115.678 390.663L115.233 391.166L114.709 391.959C114.264 392.461 113.818 392.964 113.662 393.544C115.093 395.172 112.729 397.027 111.195 401.592L108.832 403.447C109.646 402.732 109.101 404.763 110.127 404.416C102.296 415.07 91.6357 429.319 86.7122 436.087C88.2465 431.521 89.3351 427.459 90.2834 427.402L89.1435 425.852C91.2998 418.966 91.1026 422.023 91.2165 423.919C91.0609 424.5 90.9054 425.08 90.014 426.086L91.4289 424.287C91.5636 424.946 91.8537 425.023 92.3772 424.231C92.5327 423.65 92.766 422.78 92.9215 422.199L95.9067 418.023L93.388 420.458C93.388 420.458 93.388 420.458 93.3102 420.748C94.0878 417.846 95.679 414.23 94.9279 411.229C94.7155 410.861 94.503 410.493 94.2906 410.125C92.9952 409.156 92.8605 408.498 92.6689 406.892C93.6019 403.409 94.8252 400.005 95.6805 396.813C95.9138 395.942 96.147 395.072 96.4581 393.911C97.1579 391.299 97.7799 388.978 98.4797 386.366C98.6713 387.972 99.4849 387.257 100.221 386.833C99.5738 377.64 103.523 376.831 106.773 361.218C107.721 361.161 106.068 368.494 106.995 369.675C108.38 361.027 111.298 347.813 110.024 345.605C112.688 334.5 116.223 323.629 118.307 312.368C118.074 313.239 116.83 317.882 118.203 318.561C119.576 319.24 119.244 321.639 118.933 322.8C119.567 311.151 121.148 299.445 122.44 287.661C123.704 281.779 124.969 275.898 126.234 270.016C126.524 270.094 127.027 270.54 127.374 271.566C132.039 254.155 126.665 266.088 130.439 249.682L128.707 257.305C128.785 257.015 128.863 256.725 128.94 256.435C130.459 248.444 131.901 240.744 133.42 232.753C133.922 233.199 133.902 234.437 134.311 231.748C133.255 225.244 138.749 210.543 139.376 203.558L139.335 206.035L141.844 195.51C141.922 195.22 141.631 195.143 141.341 195.065C143.088 190.867 144.897 182.955 145.701 174.15C144.815 170.492 148.289 145.919 147.559 141.68C147.496 145.396 147.222 148.743 146.636 153.251L145.05 152.205C145.776 143.691 146.444 151.645 146.434 143.556C144.227 144.83 145.221 155.05 144.536 161.087C144.21 158.822 144.039 155.977 144.392 152.339C144.138 154.448 143.806 156.848 143.552 158.957C143.749 155.899 144.236 152.92 144.356 150.152C144.2 150.733 144.257 151.681 144.392 152.339C144.801 149.65 144.921 146.883 145.04 144.115C145.217 142.297 145.393 140.478 145.569 138.659C145.782 139.027 146.072 139.104 146.461 137.654C148.001 128.424 147.306 126.372 146.711 122.792C146.83 120.024 147.162 117.625 147.281 114.858C148.038 113.195 149.256 114.454 149.713 104.624L150.303 112.868C152.692 105.111 149.847 105.282 150.454 99.5349C149.91 101.566 149.329 101.411 149.07 108.184C148.256 108.899 148.417 103.654 148.169 101.1L148.07 102.628L147.858 102.26C148.117 95.4875 148.377 88.7147 148.559 82.2319C148.637 81.9418 148.715 81.6515 148.715 81.6515L149.041 83.9162C148.989 78.304 148.86 72.9821 149.099 67.4477L149.312 67.8156C149.177 67.1575 149.255 66.8673 149.042 66.4993C149.084 64.0223 149.203 61.2551 149.245 58.7781C149.67 59.514 149.748 59.2238 149.732 55.7985C150.66 56.9801 150.463 60.0375 150.364 61.5662C150.535 64.4112 150.338 67.4685 150.141 70.5259C150.317 68.707 150.493 66.8881 151.172 65.5149C151.618 65.0123 151.753 65.6705 151.675 65.9607C151.944 67.2769 151.846 68.8056 152.037 70.412C153.24 68.2461 151.66 62.5353 152.246 58.027C152.012 58.8976 151.453 57.5035 151.085 57.716C152.691 57.5244 151.143 41.2475 150.273 41.0143L151.153 49.3367C150.417 49.7616 149.899 45.8905 149.205 43.8384C149.315 32.982 149.424 22.1257 149.534 11.2694C149.534 11.2694 149.534 11.2694 149.824 11.3471L149.534 11.2694C149.399 10.6112 149.555 10.0309 149.711 9.45049C149.788 9.1603 149.576 8.79237 149.731 8.212C149.441 8.13424 149.073 8.3467 148.493 8.19119C147.835 8.32586 147.254 8.17029 146.596 8.30497C146.596 8.30497 146.596 8.30496 146.306 8.22721C146.306 8.22721 146.306 8.22723 146.228 8.51741C145.28 8.57433 144.332 8.63122 143.383 8.68814C142.989 14.8029 142.304 20.8399 141.832 27.2449C141.811 28.4834 141.423 29.9344 141.402 31.1729C140.821 31.0174 140.34 29.3331 139.427 31.5769C137.888 40.8059 139.359 39.9562 140.442 40.5574C138.269 61.4356 136.386 82.3916 134.213 103.27C133.923 103.192 133.711 102.824 133.654 101.876C132.679 107.835 133.669 105.301 134.193 104.508C133.995 107.566 133.508 110.545 133.311 113.603C132.943 113.815 132.575 114.028 132.694 111.26C131.663 116.271 132.088 117.007 132.803 117.821C132.196 123.568 131.377 128.946 130.77 134.693C130.459 135.854 129.935 136.647 129.49 137.149C128.826 141.948 128.997 144.793 129.188 146.399C128.701 149.379 128.291 152.068 127.804 155.048C127.825 153.81 127.4 153.074 126.742 153.208C127.218 159.556 126.243 165.516 125.191 171.765C123.905 178.885 122.987 185.793 121.701 192.913C119.208 206.862 116.636 221.102 113.484 235.187C107.548 263.143 101.245 291.312 94.3606 319.326C94.2828 319.616 94.205 319.906 94.1273 320.196C92.3806 324.394 92.282 325.922 92.3389 326.871C91.7946 328.902 91.2503 330.933 90.7061 332.965C90.5922 331.068 90.1104 329.384 90.2868 327.565C89.5453 332.653 89.6592 334.55 89.6952 336.737C89.2287 338.478 88.6844 340.509 88.2179 342.251C87.85 342.463 87.6375 342.095 87.2696 342.307C87.0932 344.126 86.9946 345.655 86.9738 346.894C85.652 351.827 84.2524 357.05 82.9305 361.983C82.1738 363.647 81.842 366.046 81.3754 367.787C80.5979 370.689 79.8981 373.301 79.1205 376.202C77.5654 382.006 76.0103 387.81 74.3774 393.904C73.7762 394.987 73.2528 395.78 72.8848 395.992C73.0973 396.36 73.3097 396.728 73.3666 397.676C72.0448 402.609 70.7229 407.543 69.4789 412.186L65.7883 423.637C63.2696 426.073 67.2295 415.937 67.6808 410.771C63.7361 424.332 65.4828 420.134 63.9222 430.602C63.0668 433.794 62.5017 437.064 62.2268 440.411C61.0605 444.764 60.1843 449.195 59.018 453.548C59.1735 452.967 58.9611 452.599 59.1166 452.019C58.8056 453.18 58.707 454.708 58.1058 455.791C58.028 456.082 57.9502 456.372 57.8156 455.714C56.852 452.345 56.6812 449.5 54.6916 446.479C55.308 448.821 55.6343 451.086 56.2508 453.428C54.4375 448.588 52.4118 443.38 50.0181 438.384C49.5363 436.7 49.4016 436.042 50.4846 436.643C48.5936 432.093 46.3138 428.994 45.3085 428.103C44.1117 425.605 42.6247 423.029 41.4278 420.531C44.1533 423.128 47.8993 430.041 44.7545 422.045C43.112 420.05 41.1793 417.977 39.5368 415.981C39.0758 413.059 33.8525 411.659 31.2977 411.908C29.6912 412.099 28.2972 412.659 27.6183 414.032C27.5405 414.322 26.4728 417.146 26.1826 417.069C26.2395 418.017 26.452 418.385 26.6644 418.753C27.2809 421.095 28.2652 423.225 29.1719 425.645C29.1871 429.07 29.1455 431.547 30.9019 435.439C30.2493 430.91 29.3843 426.013 29.022 421.562C28.618 419.587 27.9445 416.297 29.0692 414.421C31.0075 411.83 35.0702 412.918 37.1584 414.411C37.1584 414.411 36.578 414.256 36.2878 414.178C35.2048 413.577 34.0441 413.266 33.0957 413.322C30.9867 413.068 28.7013 414.633 29.24 417.266C29.7009 420.188 30.452 423.189 31.2032 426.189C32.7624 433.139 34.0314 440.01 35.6684 446.669C35.2796 448.12 33.601 443.938 33.0983 443.492C34.6159 452.918 37.0929 452.96 38.2633 461.36C34.098 449.047 38.5479 466.102 38.9103 470.553C39.61 467.942 39.2477 463.49 37.7871 455.012C45.7858 482.037 54.7273 513.669 60.095 523.816ZM142.685 171.476C142.255 175.404 142.037 179.7 142.555 183.571C142.477 183.861 142.477 183.861 142.477 183.861C141.855 186.183 141.14 185.369 141.316 183.55C141.747 179.622 142.255 175.404 142.685 171.476ZM141.238 183.84C141.119 186.608 141.02 188.136 140.419 189.219C140.886 187.478 141.062 185.659 141.238 183.84ZM115.493 319.39C115.648 318.809 116.094 318.307 116.327 317.436L112.751 330.785C113.471 326.935 114.482 323.162 115.493 319.39ZM83.5923 439.605C83.9811 438.154 84.5823 437.071 84.9711 435.62C85.1266 435.04 85.4946 434.827 85.6501 434.247C85.5723 434.537 85.2044 434.749 85.1266 435.04C86.4276 431.345 87.8842 427.07 88.9936 421.769C89.2629 423.085 87.8425 429.547 86.2873 435.351C86.2096 435.641 85.9763 436.511 85.7431 437.382C84.6961 438.968 83.727 440.263 82.6801 441.849C83.2813 440.766 83.4368 440.185 83.5923 439.605ZM37.29 449.903C36.3473 445.296 37.1193 447.058 36.8708 444.503C37.2748 446.477 37.6788 448.452 38.3731 450.504L37.29 449.903Z" fill="url(#paint1_linear_1_26155)"/>
<path d="M150.953 69.8076C150.797 70.388 151.01 70.7559 150.854 71.3363C150.72 70.6782 150.875 70.0978 150.953 69.8076Z" fill="url(#paint2_linear_1_26155)"/>
<path d="M149.854 83.1999C149.813 85.6769 150.139 87.9414 150.465 90.206L149.854 83.1999Z" fill="url(#paint3_linear_1_26155)"/>
<path d="M90.288 427.4L90.7084 428.128C90.4982 427.764 90.5751 427.477 90.288 427.4Z" fill="url(#paint4_linear_1_26155)"/>
<path d="M148.902 100.674L148.979 100.384C148.788 98.7771 148.922 99.4353 148.902 100.674Z" fill="url(#paint5_linear_1_26155)"/>
<path d="M151.188 99.1101C151.421 98.2396 151.732 97.0787 151.986 94.9697C151.597 96.4206 151.209 97.8716 151.188 99.1101Z" fill="url(#paint6_linear_1_26155)"/>
<path d="M74.2609 504.596C74.1834 504.885 74.106 505.174 74.3176 505.54C74.1835 504.885 74.1834 504.885 74.2609 504.596Z" fill="url(#paint7_linear_1_26155)"/>
<path d="M142.505 195.37C142.717 195.736 142.928 196.103 142.851 196.392C142.794 195.448 142.872 195.159 142.505 195.37Z" fill="url(#paint8_linear_1_26155)"/>
<path d="M143.872 200.716C142.981 201.722 143.468 198.742 142.852 196.4C142.867 199.825 141.56 208.184 143.872 200.716Z" fill="url(#paint9_linear_1_26155)"/>
<path d="M66.1219 529.162C67.0133 528.157 67.1687 527.576 67.2465 527.286C67.402 526.706 67.402 526.706 67.0341 526.918C66.1427 527.923 65.9094 528.794 64.5154 529.354C62.7534 530.125 60.7999 529.291 59.292 527.954C58.7894 527.508 59.0018 527.876 59.292 527.954C57.2816 526.171 56.0847 523.673 55.1781 521.253C55.4474 522.57 55.7945 523.596 56.0639 524.912C56.9914 526.093 57.6287 527.197 58.6339 528.089C60.5666 530.162 63.6809 531.307 66.1219 529.162Z" fill="url(#paint10_linear_1_26155)"/>
<path d="M44.1828 490.316C47.0735 500.421 47.1568 495.467 50.0475 505.572C49.2964 502.571 48.623 499.281 47.6594 495.912L44.1828 490.316Z" fill="url(#paint11_linear_1_26155)"/>
<path d="M43.7953 479.014L44.7797 481.144C44.0854 479.092 43.5828 478.646 43.7953 479.014Z" fill="url(#paint12_linear_1_26155)"/>
<path d="M43.793 479.012L41.534 474.674C41.8811 475.7 42.7877 478.12 42.9224 478.778L40.4302 475.311L44.6732 487.334L43.7305 482.727C44.1762 482.225 43.7152 479.302 43.793 479.012Z" fill="url(#paint13_linear_1_26155)"/>
<path d="M39.8224 468.309C39.7449 468.598 39.6675 468.887 39.5901 469.176C39.879 469.254 39.9565 468.965 39.8224 468.309Z" fill="url(#paint14_linear_1_26155)"/>
<path d="M62.2657 437.931L63.5515 430.811L62.2296 435.744L62.2657 437.931Z" fill="url(#paint15_linear_1_26155)"/>
<path d="M74.1623 393.532C73.9521 393.168 73.9521 393.168 73.6649 393.091C73.8751 393.455 73.8751 393.455 74.1623 393.532Z" fill="url(#paint16_linear_1_26155)"/>
<path d="M91.1916 325.32C91.4248 324.45 91.3679 323.501 91.7567 322.051C91.1555 323.133 91.2124 324.082 91.1916 325.32Z" fill="url(#paint17_linear_1_26155)"/>
<path d="M72.1134 394.228L72.4605 395.254L73.1034 391.694L72.1134 394.228Z" fill="url(#paint18_linear_1_26155)"/>
<path d="M92.115 318.41L92.022 315.274L91.6902 317.674C91.2236 319.415 91.5707 320.441 92.115 318.41Z" fill="url(#paint19_linear_1_26155)"/>
<path d="M96.9956 301.37L94.8962 309.205L97.0887 304.505L96.9956 301.37Z" fill="url(#paint20_linear_1_26155)"/>
<path d="M152.416 26.038C152.592 24.2191 152.536 23.2708 152.769 22.4002C152.93 17.156 152.433 12.0465 152.304 6.72455L152.268 4.53779L150.081 4.57383C149.423 4.7085 148.842 4.55302 148.184 4.6877C148.765 4.84321 149.423 4.70852 150.003 4.86403L152.19 4.82791L152.014 6.64681C151.542 13.0518 151.919 20.9285 152.416 26.038Z" fill="url(#paint21_linear_1_26155)"/>
<path d="M156.161 80.5351C155.757 78.5607 155.799 76.0837 155.369 80.0117L153.229 72.9069C152.539 83.6077 155.135 80.8822 156.161 80.5351Z" fill="url(#paint22_linear_1_26155)"/>
<path d="M152.856 142.786L152.732 132.8L152.281 137.966C151.742 135.334 151.338 133.359 150.821 129.488C150.986 136.997 151.229 144.216 152.856 142.786Z" fill="url(#paint23_linear_1_26155)"/>
<path d="M151.335 120.606C151.314 121.844 151.293 123.083 151.272 124.321C151.293 123.083 151.739 122.58 151.335 120.606Z" fill="url(#paint24_linear_1_26155)"/>
<path d="M150.845 128.249C150.52 125.994 150.979 128.904 150.845 128.249V128.249Z" fill="url(#paint25_linear_1_26155)"/>
<path d="M151.114 129.564C151.29 127.746 151.176 125.849 151.275 124.32C151.042 125.191 150.808 126.061 151.135 128.326C150.979 128.906 150.901 129.196 151.114 129.564Z" fill="url(#paint26_linear_1_26155)"/>
<path d="M150.724 161.186C149.584 159.636 152.243 153.195 151.124 150.407C150.517 156.154 150.2 161.978 149.593 167.725L150.724 161.186Z" fill="url(#paint27_linear_1_26155)"/>
<path d="M130.348 272.052C131.318 270.757 129.835 280.934 132.577 269.539C132.526 263.927 135.486 248.236 137.217 240.613L135.59 242.043C133.449 252.356 133.298 265.689 130.348 272.052Z" fill="url(#paint28_linear_1_26155)"/>
<path d="M130.351 272.052C130.273 272.341 130.196 272.63 129.829 272.841C129.907 272.553 130.273 272.341 130.351 272.052Z" fill="url(#paint29_linear_1_26155)"/>
<path d="M125.417 288.145C124.453 284.776 127.376 284.315 127.304 279.942C127.19 278.045 126.49 280.657 125.811 282.03C124.8 285.802 124.214 290.311 125.417 288.145Z" fill="url(#paint30_linear_1_26155)"/>
<path d="M127.302 279.941C127.188 278.044 127.374 284.314 127.302 279.941V279.941Z" fill="url(#paint31_linear_1_26155)"/>
<path d="M116.103 326.395L116.025 326.685C115.248 329.587 115.382 330.245 115.46 329.955C114.563 335.624 116.035 334.774 115.817 339.07C118.497 331.391 118.254 324.172 116.118 329.82C116.606 326.841 117.482 322.41 116.103 326.395Z" fill="url(#paint32_linear_1_26155)"/>
<path d="M95.974 404.978L96.964 402.444L96.0782 398.785L95.974 404.978Z" fill="url(#paint33_linear_1_26155)"/>
<path d="M107.088 402.976C106.487 404.059 105.751 404.483 105.305 404.986L100.806 412.489L107.088 402.976Z" fill="url(#paint34_linear_1_26155)"/>
<defs>
<linearGradient id="paint0_linear_1_26155" x1="142.856" y1="182.515" x2="142.23" y2="182.38" gradientUnits="userSpaceOnUse">
<stop offset="0.0778503" stop-color="#AB8757"/>
<stop offset="0.369009" stop-color="#C7A16D"/>
<stop offset="0.591702" stop-color="#DAB27E"/>
<stop offset="0.930539" stop-color="#B99768"/>
</linearGradient>
<linearGradient id="paint1_linear_1_26155" x1="225.868" y1="28.6127" x2="121.743" y2="3.83066" gradientUnits="userSpaceOnUse">
<stop offset="0.0778503" stop-color="#AB8757"/>
<stop offset="0.369009" stop-color="#C7A16D"/>
<stop offset="0.591702" stop-color="#DAB27E"/>
<stop offset="0.930539" stop-color="#B99768"/>
</linearGradient>
<linearGradient id="paint2_linear_1_26155" x1="151.253" y1="69.8881" x2="150.902" y2="69.8064" gradientUnits="userSpaceOnUse">
<stop offset="0.0778503" stop-color="#AB8757"/>
<stop offset="0.369009" stop-color="#C7A16D"/>
<stop offset="0.591702" stop-color="#DAB27E"/>
<stop offset="0.930539" stop-color="#B99768"/>
</linearGradient>
<linearGradient id="paint3_linear_1_26155" x1="152.257" y1="83.8436" x2="149.436" y2="83.2665" gradientUnits="userSpaceOnUse">
<stop offset="0.0778503" stop-color="#AB8757"/>
<stop offset="0.369009" stop-color="#C7A16D"/>
<stop offset="0.591702" stop-color="#DAB27E"/>
<stop offset="0.930539" stop-color="#B99768"/>
</linearGradient>
<linearGradient id="paint4_linear_1_26155" x1="90.8824" y1="427.559" x2="90.1817" y2="427.49" gradientUnits="userSpaceOnUse">
<stop offset="0.0778503" stop-color="#AB8757"/>
<stop offset="0.369009" stop-color="#C7A16D"/>
<stop offset="0.591702" stop-color="#DAB27E"/>
<stop offset="0.930539" stop-color="#B99768"/>
</linearGradient>
<linearGradient id="paint5_linear_1_26155" x1="149.222" y1="99.526" x2="148.815" y2="99.4378" gradientUnits="userSpaceOnUse">
<stop offset="0.0778503" stop-color="#AB8757"/>
<stop offset="0.369009" stop-color="#C7A16D"/>
<stop offset="0.591702" stop-color="#DAB27E"/>
<stop offset="0.930539" stop-color="#B99768"/>
</linearGradient>
<linearGradient id="paint6_linear_1_26155" x1="152.287" y1="95.0501" x2="151.937" y2="94.9609" gradientUnits="userSpaceOnUse">
<stop offset="0.0778503" stop-color="#AB8757"/>
<stop offset="0.369009" stop-color="#C7A16D"/>
<stop offset="0.591702" stop-color="#DAB27E"/>
<stop offset="0.930539" stop-color="#B99768"/>
</linearGradient>
<linearGradient id="paint7_linear_1_26155" x1="74.5599" y1="504.676" x2="74.2091" y2="504.603" gradientUnits="userSpaceOnUse">
<stop offset="0.0778503" stop-color="#AB8757"/>
<stop offset="0.369009" stop-color="#C7A16D"/>
<stop offset="0.591702" stop-color="#DAB27E"/>
<stop offset="0.930539" stop-color="#B99768"/>
</linearGradient>
<linearGradient id="paint8_linear_1_26155" x1="143.132" y1="195.422" x2="142.428" y2="195.305" gradientUnits="userSpaceOnUse">
<stop offset="0.0778503" stop-color="#AB8757"/>
<stop offset="0.369009" stop-color="#C7A16D"/>
<stop offset="0.591702" stop-color="#DAB27E"/>
<stop offset="0.930539" stop-color="#B99768"/>
</linearGradient>
<linearGradient id="paint9_linear_1_26155" x1="144.954" y1="196.963" x2="142.49" y2="196.43" gradientUnits="userSpaceOnUse">
<stop offset="0.0778503" stop-color="#AB8757"/>
<stop offset="0.369009" stop-color="#C7A16D"/>
<stop offset="0.591702" stop-color="#DAB27E"/>
<stop offset="0.930539" stop-color="#B99768"/>
</linearGradient>
<linearGradient id="paint10_linear_1_26155" x1="68.3921" y1="524.794" x2="53.2961" y2="525.504" gradientUnits="userSpaceOnUse">
<stop offset="0.0778503" stop-color="#AB8757"/>
<stop offset="0.369009" stop-color="#C7A16D"/>
<stop offset="0.591702" stop-color="#DAB27E"/>
<stop offset="0.930539" stop-color="#B99768"/>
</linearGradient>
<linearGradient id="paint11_linear_1_26155" x1="53.793" y1="492.891" x2="42.4542" y2="491.266" gradientUnits="userSpaceOnUse">
<stop offset="0.0778503" stop-color="#AB8757"/>
<stop offset="0.369009" stop-color="#C7A16D"/>
<stop offset="0.591702" stop-color="#DAB27E"/>
<stop offset="0.930539" stop-color="#B99768"/>
</linearGradient>
<linearGradient id="paint12_linear_1_26155" x1="45.3257" y1="479.319" x2="43.4635" y2="479.084" gradientUnits="userSpaceOnUse">
<stop offset="0.0778503" stop-color="#AB8757"/>
<stop offset="0.369009" stop-color="#C7A16D"/>
<stop offset="0.591702" stop-color="#DAB27E"/>
<stop offset="0.930539" stop-color="#B99768"/>
</linearGradient>
<linearGradient id="paint13_linear_1_26155" x1="47.8711" y1="476.372" x2="39.3722" y2="475.019" gradientUnits="userSpaceOnUse">
<stop offset="0.0778503" stop-color="#AB8757"/>
<stop offset="0.369009" stop-color="#C7A16D"/>
<stop offset="0.591702" stop-color="#DAB27E"/>
<stop offset="0.930539" stop-color="#B99768"/>
</linearGradient>
<linearGradient id="paint14_linear_1_26155" x1="40.0466" y1="468.37" x2="39.7841" y2="468.311" gradientUnits="userSpaceOnUse">
<stop offset="0.0778503" stop-color="#AB8757"/>
<stop offset="0.369009" stop-color="#C7A16D"/>
<stop offset="0.591702" stop-color="#DAB27E"/>
<stop offset="0.930539" stop-color="#B99768"/>
</linearGradient>
<linearGradient id="paint15_linear_1_26155" x1="64.1521" y1="430.972" x2="63.4532" y2="430.795" gradientUnits="userSpaceOnUse">
<stop offset="0.0778503" stop-color="#AB8757"/>
<stop offset="0.369009" stop-color="#C7A16D"/>
<stop offset="0.591702" stop-color="#DAB27E"/>
<stop offset="0.930539" stop-color="#B99768"/>
</linearGradient>
<linearGradient id="paint16_linear_1_26155" x1="74.2593" y1="393.25" x2="73.5829" y2="393.289" gradientUnits="userSpaceOnUse">
<stop offset="0.0778503" stop-color="#AB8757"/>
<stop offset="0.369009" stop-color="#C7A16D"/>
<stop offset="0.591702" stop-color="#DAB27E"/>
<stop offset="0.930539" stop-color="#B99768"/>
</linearGradient>
<linearGradient id="paint17_linear_1_26155" x1="92.0612" y1="322.132" x2="91.5661" y2="322.011" gradientUnits="userSpaceOnUse">
<stop offset="0.0778503" stop-color="#AB8757"/>
<stop offset="0.369009" stop-color="#C7A16D"/>
<stop offset="0.591702" stop-color="#DAB27E"/>
<stop offset="0.930539" stop-color="#B99768"/>
</linearGradient>
<linearGradient id="paint18_linear_1_26155" x1="73.4138" y1="391.777" x2="72.7127" y2="391.61" gradientUnits="userSpaceOnUse">
<stop offset="0.0778503" stop-color="#AB8757"/>
<stop offset="0.369009" stop-color="#C7A16D"/>
<stop offset="0.591702" stop-color="#DAB27E"/>
<stop offset="0.930539" stop-color="#B99768"/>
</linearGradient>
<linearGradient id="paint19_linear_1_26155" x1="92.923" y1="315.516" x2="91.8697" y2="315.273" gradientUnits="userSpaceOnUse">
<stop offset="0.0778503" stop-color="#AB8757"/>
<stop offset="0.369009" stop-color="#C7A16D"/>
<stop offset="0.591702" stop-color="#DAB27E"/>
<stop offset="0.930539" stop-color="#B99768"/>
</linearGradient>
<linearGradient id="paint20_linear_1_26155" x1="97.8966" y1="301.612" x2="96.8471" y2="301.351" gradientUnits="userSpaceOnUse">
<stop offset="0.0778503" stop-color="#AB8757"/>
<stop offset="0.369009" stop-color="#C7A16D"/>
<stop offset="0.591702" stop-color="#DAB27E"/>
<stop offset="0.930539" stop-color="#B99768"/>
</linearGradient>
<linearGradient id="paint21_linear_1_26155" x1="158.105" y1="6.10201" x2="146.799" y2="3.98197" gradientUnits="userSpaceOnUse">
<stop offset="0.0778503" stop-color="#AB8757"/>
<stop offset="0.369009" stop-color="#C7A16D"/>
<stop offset="0.591702" stop-color="#DAB27E"/>
<stop offset="0.930539" stop-color="#B99768"/>
</linearGradient>
<linearGradient id="paint22_linear_1_26155" x1="158.034" y1="74.1944" x2="152.368" y2="73.2953" gradientUnits="userSpaceOnUse">
<stop offset="0.0778503" stop-color="#AB8757"/>
<stop offset="0.369009" stop-color="#C7A16D"/>
<stop offset="0.591702" stop-color="#DAB27E"/>
<stop offset="0.930539" stop-color="#B99768"/>
</linearGradient>
<linearGradient id="paint23_linear_1_26155" x1="156.226" y1="130.937" x2="149.871" y2="129.707" gradientUnits="userSpaceOnUse">
<stop offset="0.0778503" stop-color="#AB8757"/>
<stop offset="0.369009" stop-color="#C7A16D"/>
<stop offset="0.591702" stop-color="#DAB27E"/>
<stop offset="0.930539" stop-color="#B99768"/>
</linearGradient>
<linearGradient id="paint24_linear_1_26155" x1="152.235" y1="120.847" x2="151.181" y2="120.611" gradientUnits="userSpaceOnUse">
<stop offset="0.0778503" stop-color="#AB8757"/>
<stop offset="0.369009" stop-color="#C7A16D"/>
<stop offset="0.591702" stop-color="#DAB27E"/>
<stop offset="0.930539" stop-color="#B99768"/>
</linearGradient>
<linearGradient id="paint25_linear_1_26155" x1="151.116" y1="127.482" x2="150.658" y2="127.393" gradientUnits="userSpaceOnUse">
<stop offset="0.0778503" stop-color="#AB8757"/>
<stop offset="0.369009" stop-color="#C7A16D"/>
<stop offset="0.591702" stop-color="#DAB27E"/>
<stop offset="0.930539" stop-color="#B99768"/>
</linearGradient>
<linearGradient id="paint26_linear_1_26155" x1="152.476" y1="124.642" x2="151.071" y2="124.323" gradientUnits="userSpaceOnUse">
<stop offset="0.0778503" stop-color="#AB8757"/>
<stop offset="0.369009" stop-color="#C7A16D"/>
<stop offset="0.591702" stop-color="#DAB27E"/>
<stop offset="0.930539" stop-color="#B99768"/>
</linearGradient>
<linearGradient id="paint27_linear_1_26155" x1="154.127" y1="151.212" x2="150.62" y2="150.38" gradientUnits="userSpaceOnUse">
<stop offset="0.0778503" stop-color="#AB8757"/>
<stop offset="0.369009" stop-color="#C7A16D"/>
<stop offset="0.591702" stop-color="#DAB27E"/>
<stop offset="0.930539" stop-color="#B99768"/>
</linearGradient>
<linearGradient id="paint28_linear_1_26155" x1="140.308" y1="241.442" x2="135.354" y2="240.22" gradientUnits="userSpaceOnUse">
<stop offset="0.0778503" stop-color="#AB8757"/>
<stop offset="0.369009" stop-color="#C7A16D"/>
<stop offset="0.591702" stop-color="#DAB27E"/>
<stop offset="0.930539" stop-color="#B99768"/>
</linearGradient>
<linearGradient id="paint29_linear_1_26155" x1="130.361" y1="272.055" x2="130.01" y2="271.981" gradientUnits="userSpaceOnUse">
<stop offset="0.0778503" stop-color="#AB8757"/>
<stop offset="0.369009" stop-color="#C7A16D"/>
<stop offset="0.591702" stop-color="#DAB27E"/>
<stop offset="0.930539" stop-color="#B99768"/>
</linearGradient>
<linearGradient id="paint30_linear_1_26155" x1="127.809" y1="279.457" x2="126.386" y2="279.108" gradientUnits="userSpaceOnUse">
<stop offset="0.0778503" stop-color="#AB8757"/>
<stop offset="0.369009" stop-color="#C7A16D"/>
<stop offset="0.591702" stop-color="#DAB27E"/>
<stop offset="0.930539" stop-color="#B99768"/>
</linearGradient>
<linearGradient id="paint31_linear_1_26155" x1="127.819" y1="279.719" x2="127.176" y2="279.58" gradientUnits="userSpaceOnUse">
<stop offset="0.0778503" stop-color="#AB8757"/>
<stop offset="0.369009" stop-color="#C7A16D"/>
<stop offset="0.591702" stop-color="#DAB27E"/>
<stop offset="0.930539" stop-color="#B99768"/>
</linearGradient>
<linearGradient id="paint32_linear_1_26155" x1="119.656" y1="325.576" x2="116.019" y2="324.743" gradientUnits="userSpaceOnUse">
<stop offset="0.0778503" stop-color="#AB8757"/>
<stop offset="0.369009" stop-color="#C7A16D"/>
<stop offset="0.591702" stop-color="#DAB27E"/>
<stop offset="0.930539" stop-color="#B99768"/>
</linearGradient>
<linearGradient id="paint33_linear_1_26155" x1="97.8801" y1="399.268" x2="95.7681" y2="398.813" gradientUnits="userSpaceOnUse">
<stop offset="0.0778503" stop-color="#AB8757"/>
<stop offset="0.369009" stop-color="#C7A16D"/>
<stop offset="0.591702" stop-color="#DAB27E"/>
<stop offset="0.930539" stop-color="#B99768"/>
</linearGradient>
<linearGradient id="paint34_linear_1_26155" x1="107.209" y1="403.008" x2="102.982" y2="402.121" gradientUnits="userSpaceOnUse">
<stop offset="0.0778503" stop-color="#AB8757"/>
<stop offset="0.369009" stop-color="#C7A16D"/>
<stop offset="0.591702" stop-color="#DAB27E"/>
<stop offset="0.930539" stop-color="#B99768"/>
</linearGradient>
</defs>
</svg>
