<svg width="536" height="519" viewBox="0 0 536 519" fill="none" xmlns="http://www.w3.org/2000/svg">
<g clip-path="url(#clip0_663_6)">
<path d="M332.729 141.1C332.729 140.637 332.498 140.175 332.036 139.712L332.729 141.1Z" fill="url(#paint0_linear_663_6)"/>
<path d="M330.879 138.324C330.648 138.324 330.416 138.555 329.954 138.786C330.416 138.555 330.879 138.324 330.879 138.324Z" fill="url(#paint1_linear_663_6)"/>
<path d="M328.103 123.057C328.797 122.826 329.028 123.288 329.953 123.288C329.259 123.057 329.028 121.9 328.103 123.057Z" fill="url(#paint2_linear_663_6)"/>
<path d="M299.652 111.955C299.19 111.492 298.958 110.335 298.496 110.567L298.727 112.186L299.652 111.955Z" fill="url(#paint3_linear_663_6)"/>
<path d="M297.108 114.5L296.182 115.887L298.264 117.275C298.727 115.887 296.876 116.119 297.108 114.5Z" fill="url(#paint4_linear_663_6)"/>
<path d="M295.026 118.662L294.564 118.2C294.795 118.431 294.795 118.662 295.026 118.662Z" fill="url(#paint5_linear_663_6)"/>
<path d="M295.951 118.893L297.57 119.819L296.876 117.505L296.414 118.199C295.72 118.199 295.489 118.431 295.257 118.431L296.182 119.356C295.951 119.356 295.72 118.893 295.951 118.893Z" fill="url(#paint6_linear_663_6)"/>
<path d="M292.25 142.024L292.481 141.099L291.556 140.636L292.25 142.024Z" fill="url(#paint7_linear_663_6)"/>
<path d="M295.489 158.91C295.72 159.141 295.72 159.141 295.951 159.372C295.951 159.141 295.72 159.141 295.489 158.91Z" fill="url(#paint8_linear_663_6)"/>
<path d="M293.638 148.269L294.332 147.807H293.175L293.638 148.269Z" fill="url(#paint9_linear_663_6)"/>
<path d="M296.414 159.837L297.57 160.068L297.108 159.837C297.108 159.374 296.414 159.374 296.414 159.837Z" fill="url(#paint10_linear_663_6)"/>
<path d="M295.488 162.611H296.413V161.455L295.488 162.611Z" fill="url(#paint11_linear_663_6)"/>
<path d="M326.715 151.972C327.871 151.51 328.103 149.891 327.64 148.965C326.483 149.428 327.177 151.047 326.715 151.972Z" fill="url(#paint12_linear_663_6)"/>
<path d="M325.327 139.943C325.79 140.174 326.021 140.636 326.253 140.174C326.947 140.636 327.872 141.33 328.566 141.793C329.722 140.405 326.484 140.174 325.327 139.943C325.79 140.174 326.484 140.174 325.327 139.943Z" fill="url(#paint13_linear_663_6)"/>
<path d="M326.947 132.773C326.947 132.773 327.178 132.079 326.947 132.079C328.103 132.541 328.335 132.772 329.26 133.466C328.797 132.31 327.641 131.385 325.79 131.385C326.021 131.385 326.947 132.773 326.947 132.773Z" fill="url(#paint14_linear_663_6)"/>
<path d="M329.724 134.854C329.724 134.622 329.724 134.391 329.724 134.391C329.261 134.391 329.03 134.391 329.724 134.854Z" fill="url(#paint15_linear_663_6)"/>
<path d="M329.723 133.696L329.492 133.465C329.492 133.696 329.723 133.928 329.723 134.39C329.954 134.159 330.186 133.928 329.723 133.696C329.492 133.465 330.186 133.928 329.723 133.696Z" fill="url(#paint16_linear_663_6)"/>
<path d="M327.409 130.459L327.178 128.146L326.715 129.071C328.103 129.071 325.559 129.996 327.409 130.459Z" fill="url(#paint17_linear_663_6)"/>
<path d="M326.716 117.506L328.104 116.812C328.104 114.962 323.94 114.499 326.022 112.649C325.328 113.574 323.94 112.186 324.171 114.037C325.79 114.037 326.947 116.35 326.716 117.506Z" fill="url(#paint18_linear_663_6)"/>
<path d="M326.947 111.029C327.409 111.029 327.641 110.566 327.872 110.103C327.641 109.41 326.715 109.178 326.253 109.872C328.335 109.41 325.328 111.029 326.947 111.029C325.328 111.029 327.409 111.029 326.947 111.029Z" fill="url(#paint19_linear_663_6)"/>
<path d="M322.784 104.553C323.015 105.015 323.478 105.478 323.478 104.553C322.552 103.396 321.396 104.784 320.008 104.784C320.008 106.172 322.784 105.709 322.784 104.553C322.784 105.709 323.246 104.784 322.784 104.553Z" fill="url(#paint20_linear_663_6)"/>
<path d="M317.001 95.0681L315.151 95.7621V96.2251L317.001 95.0681Z" fill="url(#paint21_linear_663_6)"/>
<path d="M308.21 92.9861C308.21 92.7551 308.21 92.2921 308.21 92.2921L307.516 93.4491H308.21C308.21 93.6801 308.21 93.2171 308.21 92.9861C308.21 92.7551 308.21 93.2171 308.21 92.9861Z" fill="url(#paint22_linear_663_6)"/>
<path d="M307.518 91.5991L306.824 91.3671L307.055 92.0611C307.286 92.7551 307.286 91.3671 307.518 91.5991Z" fill="url(#paint23_linear_663_6)"/>
<path d="M305.666 91.3679C305.666 91.3679 305.898 90.4429 306.129 90.4429C305.898 90.4429 305.666 90.9049 305.435 90.6739C305.435 90.6739 305.435 91.1369 305.666 91.3679Z" fill="url(#paint24_linear_663_6)"/>
<path d="M404.205 433.476C403.742 438.565 403.511 443.654 403.28 448.28L404.205 433.476Z" fill="url(#paint25_linear_663_6)"/>
<path d="M361.874 136.242L362.568 137.63C362.337 136.242 362.106 136.011 361.874 136.242Z" fill="url(#paint26_linear_663_6)"/>
<path d="M51.918 103.859C51.224 103.859 50.53 104.091 50.068 104.091C51.224 104.091 51.687 103.859 51.918 103.859Z" fill="url(#paint27_linear_663_6)"/>
<path d="M462.032 299.779C461.801 299.317 461.801 298.623 461.801 297.697C461.57 299.548 461.801 300.242 462.032 299.779Z" fill="url(#paint28_linear_663_6)"/>
<path d="M461.57 288.907C462.727 286.363 461.57 293.071 461.802 297.466C462.727 290.758 464.577 273.409 461.57 288.907Z" fill="url(#paint29_linear_663_6)"/>
<path d="M6.58105 77.0271C9.81905 74.7141 13.751 73.0951 17.915 72.4011C15.139 72.6321 12.364 73.0951 9.81903 73.7891C5.19303 76.5651 -1.97793 82.347 1.49207 88.593C1.72307 89.287 3.11107 91.8311 4.03607 91.8311C4.03607 91.6001 4.03605 91.369 3.80505 91.369C3.80505 91.369 3.57407 90.9061 2.88007 90.2121C-0.358934 85.3541 2.18605 80.2651 6.58105 77.0271C5.19305 77.9521 9.12505 75.1771 6.58105 77.0271Z" fill="url(#paint30_linear_663_6)"/>
<path d="M60.7079 86.0479C63.9459 86.2789 67.4159 86.5109 70.6539 86.7419C75.0489 86.0479 79.4439 85.1229 83.8389 84.1979C78.2869 84.6599 72.7359 84.6599 67.4159 85.3539C61.8639 86.0479 56.3129 85.5849 50.7609 84.8909C50.7609 84.6599 55.6189 85.5849 60.7079 86.0479C55.6189 85.5849 63.2519 86.0479 60.7079 86.0479Z" fill="url(#paint31_linear_663_6)"/>
<path d="M106.97 84.8911L102.344 86.0481C106.739 85.1231 107.664 84.8911 106.97 84.8911Z" fill="url(#paint32_linear_663_6)"/>
<path d="M116.916 82.347C114.603 82.81 109.514 83.735 107.895 83.735C110.439 82.81 112.984 82.1161 115.528 81.1901C106.97 82.8101 98.18 84.197 89.39 85.123C92.628 85.123 96.098 84.66 99.336 84.429C99.568 85.123 106.044 84.6601 106.97 84.6601C108.126 84.6601 116.916 82.81 116.916 82.347Z" fill="url(#paint33_linear_663_6)"/>
<path d="M130.101 80.7271C129.407 80.7271 128.713 80.4951 128.25 80.4951C128.019 80.7261 128.944 80.7271 130.101 80.7271Z" fill="url(#paint34_linear_663_6)"/>
<path d="M377.835 1.84998C368.12 1.84998 358.637 3.93201 349.616 7.40201C350.309 7.17001 350.772 6.70801 351.466 6.47601C348.228 7.63301 344.989 9.021 341.751 10.409C338.744 11.565 335.506 12.49 332.73 14.11C330.648 15.266 328.104 17.117 324.403 20.355C326.947 18.967 330.185 17.117 333.886 15.266C323.94 21.28 315.15 29.145 307.748 37.935C305.666 40.017 304.741 40.71 305.666 38.397C304.279 40.248 303.122 41.867 301.965 43.486C299.421 47.418 296.414 51.582 295.026 56.208C293.638 58.753 292.019 61.066 290.631 63.61C287.624 63.379 284.848 63.147 281.841 63.147C283.923 62.916 285.774 62.916 287.855 62.916C289.012 62.685 290.4 63.379 290.631 61.76C290.631 61.528 291.788 58.521 291.788 58.753C291.094 58.984 290.169 60.603 289.706 61.297C289.706 61.76 289.012 61.528 288.781 61.528C288.318 61.528 287.855 61.297 287.393 61.297C287.393 61.297 286.699 61.297 285.542 61.528C283.923 61.528 281.841 61.76 279.76 61.76C275.596 62.222 271.664 62.685 271.664 62.685C270.276 62.222 268.194 62.454 266.806 62.454C263.568 62.454 260.561 62.454 257.322 62.685C254.084 62.685 251.077 62.916 247.839 62.916C247.607 62.916 243.675 62.916 243.906 62.454C234.885 63.842 233.497 64.767 226.095 66.386C219.156 66.617 213.836 66.849 205.277 69.393C225.401 66.617 245.526 64.535 265.881 63.61C265.65 63.61 265.418 63.842 264.956 63.842C236.736 65.229 208.516 70.781 180.758 75.87C177.983 75.87 186.772 73.325 188.16 72.4C168.036 75.407 167.574 78.183 149.763 80.496C152.076 80.033 154.62 79.339 156.933 78.877C157.165 78.877 159.246 78.414 159.478 78.183C159.478 78.183 157.165 78.414 156.933 78.414C154.389 78.646 151.844 79.108 149.3 79.571C143.286 80.496 137.041 81.884 131.026 81.652C134.727 82.346 138.428 82.115 142.129 81.884C149.3 81.421 156.471 80.496 163.641 79.339C147.45 82.346 131.258 85.122 115.066 86.741C99.105 88.361 82.914 90.674 66.722 89.98C55.85 89.517 43.359 89.055 33.644 83.272C29.943 80.959 27.862 77.72 23.004 77.489C18.841 77.258 14.677 78.414 10.976 80.265C8.66301 81.421 5.42401 83.734 5.42401 86.741C5.42401 88.361 6.34998 89.517 7.50598 90.442C9.81898 92.755 12.364 94.606 14.908 96.225C26.011 102.47 39.658 103.627 52.149 104.783C52.381 104.783 52.381 105.015 52.381 105.015C52.612 105.015 53.075 105.015 53.306 105.015C62.558 105.709 71.579 105.94 80.832 105.709C77.131 106.634 73.43 106.865 69.729 106.634C80.138 108.022 91.241 106.865 101.65 105.94C112.522 105.015 123.162 103.396 133.802 101.545C140.973 99.926 148.375 98.538 155.314 96.225C156.239 95.994 156.933 95.994 157.859 95.763C158.09 95.763 162.485 95.3 162.485 95.763C162.485 96.457 158.784 97.15 158.321 97.15C155.545 97.844 152.538 98.538 149.763 99.232C144.442 100.389 138.891 101.545 133.571 102.933C156.702 99.695 179.602 95.3 202.502 91.136C214.53 89.055 226.558 86.973 238.817 85.816C244.6 85.122 250.614 84.66 256.628 84.428C262.643 84.197 268.888 83.734 274.671 84.428H275.827H276.521H276.752C276.984 84.428 276.752 84.66 276.752 84.66C272.358 93.912 269.813 104.09 267.731 114.036C269.813 115.655 267.5 121.438 267.731 131.384C267.269 133.466 266.575 135.317 266.112 137.399C266.112 137.167 266.112 136.936 266.575 136.705C267.037 136.936 267.269 138.786 267.963 137.63C266.806 151.74 266.575 169.551 276.29 181.116C287.624 194.995 309.136 191.294 323.477 184.123C319.082 187.593 313.994 190.137 308.673 191.525C338.513 184.123 362.106 156.135 360.256 124.908C361.181 127.915 360.95 131.616 360.718 134.854C360.487 139.48 359.562 144.338 358.174 148.733C355.63 157.291 351.235 165.156 345.683 171.864C350.772 166.312 354.473 159.604 357.48 152.665C358.868 149.195 360.024 145.494 360.95 142.025C361.181 140.868 361.644 137.63 362.569 136.936L361.181 133.929C361.412 130.922 361.644 128.84 361.644 127.221C361.644 126.527 361.412 124.676 361.875 123.982C362.106 123.751 362.569 125.602 362.569 125.602C362.8 126.989 363.032 128.609 363.494 129.996C363.725 131.616 364.188 130.228 364.419 129.303C364.651 121.901 363.725 114.499 361.181 107.559C360.256 105.015 358.868 101.545 356.555 99.926C356.092 99.463 355.63 99.464 354.936 99.464C353.548 99.464 352.623 98.538 351.697 97.382C351.235 96.919 350.772 96.457 350.309 95.763C346.377 89.517 341.288 84.197 335.274 79.802C333.886 78.645 332.036 77.258 329.723 76.101C325.097 73.325 320.008 71.012 314.919 69.393C316.307 69.624 316.769 69.393 317.232 69.393C317.695 69.162 317.232 68.468 317.001 68.005C316.075 68.005 314.919 67.774 313.994 67.542C313.762 67.542 313.762 67.542 313.994 67.311V67.08L314.225 66.617C316.769 60.14 320.933 55.052 325.097 49.732C331.805 42.792 338.05 35.622 345.683 29.839C345.915 30.07 345.452 30.533 344.527 31.689C343.601 32.846 342.214 34.002 340.826 35.622C338.281 38.629 335.274 42.098 335.274 43.023C339.9 38.166 344.295 33.308 349.847 29.376C355.63 25.212 361.875 22.437 369.046 20.818C372.284 20.124 374.597 19.892 375.754 19.43C399.579 21.049 418.315 41.636 431.037 59.909C428.955 57.134 426.873 54.358 424.56 52.045C424.098 51.582 423.404 50.888 422.479 50.888C420.397 51.351 417.158 47.65 415.771 46.493C423.866 53.201 430.343 61.76 436.126 70.318C443.759 81.653 449.773 93.912 454.862 106.403C458.794 118.431 462.264 130.69 465.04 142.95C464.577 143.181 463.883 142.487 462.727 141.1C464.114 149.195 464.808 157.754 468.047 165.387C470.591 171.864 470.823 179.728 471.285 186.668C471.285 186.668 471.285 185.743 471.054 184.123C470.591 179.497 470.129 174.871 469.666 170.245C469.897 170.939 469.897 171.633 470.129 172.558C472.211 189.212 473.367 206.098 473.367 222.752C472.673 221.827 472.21 219.283 472.442 224.834C474.292 234.318 472.904 244.727 471.979 254.211C470.823 264.388 468.509 274.335 467.815 284.281L468.047 278.961C468.047 278.961 467.122 284.512 466.196 290.064C465.04 295.615 463.652 300.936 463.652 300.936C463.652 301.167 463.652 300.936 463.421 300.936C463.421 301.398 463.652 301.629 463.652 302.092C461.57 308.569 460.182 315.046 458.332 321.522C456.25 329.156 454.168 337.02 452.549 344.885C452.549 348.586 450.93 352.518 450.005 355.988C448.617 360.845 447.229 365.703 445.841 370.792C442.834 380.969 438.67 390.916 435.201 400.862C434.044 403.638 432.888 406.182 432.194 409.189C434.969 401.556 437.976 394.154 440.983 386.752L442.14 388.834C441.215 391.147 440.521 393.229 439.596 395.31C439.364 395.773 439.133 396.698 438.439 397.161C436.589 398.549 435.895 403.175 435.201 405.257C437.282 404.1 438.208 400.862 439.133 398.78C440.29 395.773 441.215 392.535 442.371 389.528C444.453 383.514 446.304 377.268 448.385 371.254C448.154 372.411 447.923 373.567 447.691 374.955C446.304 379.581 444.916 384.439 443.528 389.065C445.61 383.514 447.923 377.962 449.773 372.179C446.998 380.738 443.99 389.065 440.752 397.392C441.677 394.617 442.834 391.841 443.759 388.834C441.677 394.154 440.058 399.705 437.745 405.026C437.976 404.563 438.208 404.1 438.208 403.869C436.589 408.033 434.738 412.196 432.888 416.36C433.119 414.741 432.656 414.509 430.806 417.748C426.18 427.463 421.553 436.947 417.852 447.124C415.539 451.75 412.995 456.145 410.45 460.771C408.369 463.316 408.137 461.928 403.742 468.174C403.742 468.174 403.742 468.174 403.742 467.942V468.174C402.817 469.561 401.892 471.181 400.504 473.262C400.504 472.8 400.504 472.337 400.735 471.875L404.668 464.241C404.436 465.629 403.974 467.017 403.742 468.174C404.205 466.554 404.899 464.241 405.824 459.846C405.362 461.466 405.13 462.853 404.668 464.01C403.048 465.86 401.892 467.711 400.967 469.099C402.817 456.377 404.899 443.655 405.824 430.933V430.701C405.824 432.089 405.824 433.708 405.824 435.096C406.287 423.762 406.981 412.196 406.981 400.862L407.212 401.093C407.212 400.399 406.981 399.705 406.981 399.243C406.981 395.773 406.981 392.303 406.749 388.834C406.749 385.827 405.593 385.133 402.355 384.901C402.586 384.901 402.817 384.902 403.048 384.67C403.28 384.208 396.34 384.67 396.109 384.67C397.728 383.514 400.504 383.514 402.355 383.514C403.742 383.514 404.899 383.745 406.055 384.208C407.675 384.902 407.443 386.058 407.675 387.446C407.675 389.296 407.906 391.147 408.137 393.229C408.137 398.78 408.137 404.332 407.906 409.883C408.137 406.876 408.369 403.869 408.6 400.631C408.831 399.011 408.831 397.392 409.294 395.773C409.756 394.385 410.45 396.93 410.219 405.951C411.144 402.944 410.682 399.474 410.682 396.467C410.45 392.766 409.988 389.065 409.525 385.364C409.756 382.126 403.742 381.432 401.661 381.432C401.892 381.432 402.123 381.432 402.355 381.663C402.123 381.895 400.273 382.357 400.504 382.588C400.273 380.738 389.17 383.745 388.245 383.976C383.85 385.364 378.529 387.677 375.985 391.841C374.828 393.46 374.597 395.311 374.828 396.93C374.828 397.855 374.828 403.406 375.985 403.869C375.754 401.556 375.754 399.243 375.754 396.93C375.522 394.617 376.216 392.766 377.604 391.147C379.223 389.528 380.843 388.371 382.462 387.446C382.924 387.677 380.842 389.528 380.611 389.528C379.455 390.684 378.298 391.841 377.604 393.229C376.91 394.385 376.91 395.773 377.142 396.93C377.142 397.392 377.142 397.624 377.373 398.086C378.067 423.762 375.754 448.743 371.821 474.188C370.896 479.97 370.434 485.753 369.277 491.536C368.352 495.931 366.964 500.326 366.039 504.721C365.345 508.19 364.188 513.742 366.733 516.98C369.277 520.45 377.604 518.137 380.843 517.212C380.611 517.905 377.373 519.525 382.693 518.831C383.618 518.599 384.312 518.368 385.006 518.368C386.857 517.674 388.707 516.98 390.789 516.286C393.333 515.13 397.497 513.511 398.885 510.735C399.116 510.041 398.885 509.81 399.116 509.116C408.369 503.333 416.927 496.393 425.254 489.685C433.813 482.515 442.14 475.113 450.236 467.48C466.196 452.213 481.925 436.715 496.961 420.523C497.192 420.755 496.729 421.449 495.804 423.299C504.594 414.278 500.43 417.979 498.811 418.673C502.975 414.047 507.37 409.42 511.302 404.563C511.996 404.332 512.69 404.332 508.758 408.958C516.16 401.325 516.622 399.474 516.622 398.086C520.786 393.229 524.718 388.14 528.419 383.051C530.27 380.507 532.12 377.962 533.971 375.418C535.358 373.567 537.44 371.254 534.202 370.329C533.508 370.098 532.814 369.866 532.351 369.635C531.195 369.404 530.27 369.172 529.576 368.941C523.33 368.941 516.16 370.792 511.302 374.724C511.071 374.955 510.839 375.186 510.608 375.418C505.751 378.887 502.743 384.901 499.043 389.528C500.662 387.215 501.356 385.595 500.43 385.364C492.797 398.549 482.388 409.883 471.979 420.986C460.182 433.477 448.385 445.736 436.357 457.764C478.456 382.357 501.124 294.69 498.349 208.18C498.58 200.084 498.117 196.845 497.655 194.764C497.423 190.369 496.961 185.742 496.498 181.348C496.961 182.967 497.423 184.586 498.117 186.205C498.58 188.056 499.043 189.906 499.505 191.988C498.811 185.974 497.423 179.96 495.804 174.177C495.342 170.013 494.648 165.85 494.185 161.686C494.416 161.224 494.648 161.686 494.879 161.223C494.185 157.754 493.26 154.978 492.797 152.665C490.947 141.562 488.633 130.691 485.858 120.05C485.164 115.424 483.313 110.798 481.925 106.172C480.075 100.389 477.993 94.606 475.911 89.055C471.516 77.72 466.196 66.617 459.951 56.44C458.794 54.127 458.101 52.276 457.869 51.582C457.407 51.351 456.481 50.657 455.556 49.732C447.46 37.935 437.514 27.526 426.18 18.967C423.635 17.348 421.322 15.729 418.778 14.11C417.39 13.184 416.233 12.722 415.308 12.259C414.383 11.796 413.92 11.565 413.92 11.565C413.92 11.565 412.995 10.871 413.226 10.64C413.92 9.71501 420.397 13.647 421.091 14.11C426.642 17.348 433.581 22.437 437.745 25.906C437.051 25.212 436.357 24.519 435.895 24.056C433.119 21.974 430.343 19.661 427.567 17.579C421.091 13.647 414.383 9.94601 406.749 8.09601C405.824 7.86401 404.668 7.63301 403.742 7.17001C402.586 6.93901 401.429 6.708 400.041 6.245C391.252 1.85 384.544 1.38698 377.835 1.84998C368.352 1.84998 379.455 1.61898 377.835 1.84998ZM326.484 103.858C326.484 104.09 326.253 104.09 326.253 104.321L325.328 102.239C325.79 102.702 326.253 103.396 326.484 103.858C326.253 103.396 326.484 104.09 326.484 103.858ZM333.886 124.908C333.655 124.445 333.655 124.214 333.886 124.214C333.886 124.214 333.886 124.445 333.886 124.908ZM333.886 124.908C333.886 125.602 334.118 126.064 334.118 126.758C333.886 126.064 333.424 125.602 332.267 125.139C332.73 124.676 333.424 124.676 333.886 124.908C333.424 124.676 334.118 125.602 333.886 124.908ZM292.25 122.826L293.176 123.057C292.944 123.751 292.482 123.52 292.019 123.751C292.25 123.289 292.25 123.057 292.25 122.826ZM292.019 123.751C292.713 123.751 293.407 124.445 294.101 124.676C295.026 123.289 292.482 122.826 293.638 121.438C294.563 123.751 294.795 120.975 295.72 120.282C294.101 120.282 292.944 120.975 292.25 122.132C293.176 116.58 294.563 111.029 295.951 105.709C296.183 105.709 296.414 105.709 296.645 105.94C296.414 105.709 296.183 105.709 295.951 105.478C296.183 104.784 296.183 104.09 296.414 103.396C296.877 103.627 297.108 104.09 297.108 104.552C299.652 103.396 300.115 99.926 298.033 97.844C298.033 97.844 298.033 97.844 298.033 97.613C299.652 96.688 299.652 99.232 300.578 100.389C301.272 99.232 301.734 98.076 302.197 96.919C302.428 96.457 302.659 95.762 302.891 95.3L303.353 94.143C303.816 92.987 304.279 92.061 304.741 90.674C303.353 87.667 303.816 88.361 303.353 85.816L304.047 87.204C303.816 86.741 303.585 85.816 303.122 84.891C305.435 85.816 307.748 86.973 309.83 88.129C309.367 88.823 308.673 89.517 308.211 89.98C310.755 89.055 310.293 92.293 313.531 92.524C312.374 93.449 309.599 92.987 309.136 92.755C309.599 93.218 311.681 93.449 310.987 94.374L312.143 92.987C313.762 93.681 310.987 94.143 310.755 95.3C313.3 96.919 314.225 93.218 316.075 92.524C316.538 92.987 317.001 93.218 317.463 93.681C317.463 93.912 317.695 93.912 317.926 93.912C318.157 94.143 318.62 94.606 318.851 94.837C318.157 95.069 317.695 95.994 317.463 96.225C320.702 94.606 318.157 97.844 320.47 99.232C319.776 99.926 318.851 99.232 317.695 100.157C319.314 100.389 320.933 101.777 322.552 100.851C324.171 102.702 324.403 104.552 325.328 105.478C323.94 104.552 322.783 106.172 321.396 106.172C323.94 106.172 326.253 107.328 328.566 108.253C329.029 109.178 329.491 110.104 329.723 111.029C329.26 111.26 328.798 111.26 328.104 111.492C327.872 114.499 330.185 111.492 330.648 114.267V112.879C331.111 114.036 331.573 115.424 331.805 116.581C331.111 116.581 330.648 116.58 330.879 117.043C331.573 117.043 331.805 117.275 332.036 117.737C332.267 118.894 330.648 120.744 331.342 121.669L331.111 121.438L330.185 123.288C330.185 123.288 330.185 123.288 329.954 123.288C330.185 123.288 330.185 123.288 330.417 123.288C329.26 124.214 328.335 125.37 328.798 126.758C330.417 127.221 329.491 130.922 330.648 131.616C330.185 131.153 330.185 130.459 330.648 129.765H332.498C332.498 131.153 330.879 129.765 331.805 131.153C334.349 130.922 331.805 129.303 332.036 128.377C332.498 128.609 333.192 129.071 333.424 129.765C333.424 129.534 333.424 129.071 333.424 128.84C333.424 129.303 333.424 129.765 333.424 129.996V129.765C333.424 130.228 333.424 130.69 333.424 131.153C333.424 131.384 333.424 131.847 333.424 132.078C332.961 132.078 332.73 132.078 332.267 132.31C331.342 133.697 332.267 134.16 333.192 134.854C333.192 135.317 333.192 135.779 332.961 136.242C332.036 136.473 330.879 136.011 330.648 137.63L329.723 136.242C327.178 137.167 330.417 137.398 329.954 138.324C330.648 138.092 331.342 138.324 331.342 137.167C332.267 137.167 332.498 138.093 332.498 138.555V138.324C332.498 138.324 332.499 138.324 332.73 138.324C332.499 139.48 332.267 140.405 332.036 141.562L331.805 141.1C332.036 141.793 331.805 142.256 331.805 142.95C331.805 143.181 331.573 143.644 331.573 143.875H331.342C331.342 143.875 331.342 144.106 331.573 144.106C331.573 144.569 331.342 145.032 331.111 145.263C330.648 145.032 330.417 145.032 330.417 145.494C329.26 145.032 329.954 143.413 330.417 142.719C329.954 143.413 327.872 143.875 328.104 142.487C326.716 142.487 328.335 143.875 327.641 144.338C328.104 144.338 328.335 144.8 328.798 144.8C327.872 144.569 327.641 145.032 327.872 145.726C327.872 146.42 328.335 147.345 329.029 147.576L328.566 145.957C329.491 146.188 329.954 146.882 330.417 147.576C329.26 150.814 327.641 154.053 325.79 156.829C325.097 156.366 324.634 155.672 323.94 155.672C322.552 156.597 324.171 157.291 325.097 157.985C323.246 160.761 320.933 163.305 318.388 165.618C318.157 165.387 317.926 165.156 317.926 164.693C317.001 165.156 317.695 165.387 318.157 165.618C317.695 165.85 317.463 166.312 317.001 166.544C316.769 166.312 316.307 166.081 316.538 165.618C315.613 165.618 315.844 166.312 316.538 167.006C315.844 167.469 315.15 168.163 314.456 168.625C314.225 168.394 313.762 168.394 313.531 168.163C312.837 168.625 312.837 169.088 312.837 169.782C312.374 170.013 312.143 170.245 311.68 170.476C311.68 170.013 311.68 169.782 311.218 169.088C311.218 170.707 310.755 170.939 310.293 171.401C306.823 173.483 302.891 175.334 299.421 172.327C295.951 169.319 294.332 164.462 292.944 160.298C293.407 159.373 292.944 159.373 292.713 159.142C292.713 158.91 292.482 158.448 292.482 158.216C293.176 158.448 294.101 158.217 294.795 158.448C293.87 157.754 293.176 157.754 292.482 157.523C292.482 157.291 292.25 156.829 292.25 156.597C292.482 156.366 292.944 156.366 293.176 156.366C292.944 156.135 292.482 155.903 292.25 155.903C292.019 154.978 291.788 154.284 291.788 153.359C291.788 153.359 291.788 153.128 291.788 152.896C291.325 151.046 291.094 149.195 290.862 148.039C291.325 147.576 291.788 147.345 292.25 147.576C291.788 147.576 291.094 147.576 290.631 147.576C290.4 146.882 290.4 145.957 290.4 145.263L291.094 143.181C293.176 142.487 291.788 144.338 292.944 145.032C293.176 142.719 292.482 143.644 291.094 142.025C291.094 141.562 290.631 141.099 290.169 140.405C290.169 139.712 290.169 138.786 290.169 138.092C290.169 138.092 290.4 138.092 290.4 138.324C290.169 136.704 292.482 137.63 291.556 136.01C291.094 136.242 290.631 136.473 290.4 136.705C290.4 135.779 290.4 134.854 290.631 134.16C290.862 133.929 291.094 133.698 291.788 133.929C291.788 133.235 291.325 132.541 290.631 132.31C290.631 131.847 290.631 131.384 290.862 130.922C292.019 131.616 292.019 132.772 293.176 131.616L291.788 130.228C292.482 129.996 292.713 128.146 294.332 128.377C294.101 127.683 293.407 127.452 293.176 126.758C294.101 126.295 294.795 126.064 293.638 125.139C292.019 127.915 291.788 126.99 291.094 129.534C291.094 129.534 290.862 129.534 290.862 129.303C291.556 128.146 291.788 126.064 292.019 123.751C291.788 126.064 292.713 123.751 292.019 123.751ZM168.036 76.564C177.751 74.713 174.282 75.87 179.139 75.407C174.976 76.101 170.581 77.026 166.417 77.72L168.036 76.564ZM424.098 48.806C424.098 48.806 423.635 48.344 422.941 47.418C420.397 44.411 418.084 41.636 415.308 38.86C413.457 37.241 411.607 35.159 409.756 33.54C406.749 30.764 403.511 28.451 400.041 26.138C408.137 31.227 415.308 37.935 421.785 45.337C422.247 46.262 422.941 47.418 424.098 48.806ZM463.189 312.038C462.495 316.202 461.57 320.366 460.645 324.529C461.801 317.59 462.495 314.352 463.189 312.038ZM457.175 337.945C458.101 333.088 458.794 328.462 459.257 324.067C461.108 318.053 461.57 320.134 460.876 324.529C459.026 332.856 456.944 340.952 454.862 349.048C455.093 347.892 455.556 346.735 455.787 345.579C456.019 343.034 456.713 340.49 457.175 337.945C456.713 340.49 457.869 333.088 457.175 337.945ZM453.243 353.443C453.474 352.518 453.706 351.824 453.937 350.899C452.086 357.144 450.236 363.39 448.154 369.635C450.005 364.315 451.855 358.995 453.243 353.443C451.855 358.763 453.706 352.518 453.243 353.443ZM399.81 470.949C400.504 470.487 399.81 472.337 398.654 474.882C398.654 474.188 398.885 473.494 398.885 472.8C399.116 472.106 399.579 471.643 399.81 470.949C399.579 471.643 400.504 470.487 399.81 470.949ZM399.116 470.255L398.885 471.643C398.885 471.874 398.654 471.875 398.654 472.106C398.654 471.643 398.885 471.181 398.885 470.949L399.116 470.255Z" fill="url(#paint35_linear_663_6)"/>
<path d="M376.216 0.463013C375.291 0.694013 374.135 0.924988 374.135 0.924988C374.135 0.924988 375.291 0.92497 376.679 0.69397C380.611 0.69397 384.544 0.462988 388.245 0.924988C389.864 1.15699 390.789 1.15698 390.789 1.15698C387.319 0.693982 383.618 0 379.917 0C378.761 0 377.836 0 377.836 0C377.836 0 377.142 0.231013 376.216 0.463013C375.06 0.694013 377.142 0.231013 376.216 0.463013Z" fill="url(#paint36_linear_663_6)"/>
<path d="M456.481 49.037C455.788 48.343 455.556 48.574 455.788 49.037C456.019 49.268 456.25 49.268 456.481 49.037Z" fill="url(#paint37_linear_663_6)"/>
<path d="M497.423 189.675C497.655 191.757 497.886 193.838 498.349 196.614C498.117 193.838 497.886 191.525 497.423 189.675Z" fill="url(#paint38_linear_663_6)"/>
<path d="M453.936 44.411C455.555 46.262 456.943 48.575 458.331 50.426L456.018 45.568C455.555 45.105 454.861 44.643 453.936 44.411Z" fill="url(#paint39_linear_663_6)"/>
<path d="M499.042 204.016L500.198 210.493L499.736 205.404C499.736 201.241 498.81 199.853 499.042 204.016Z" fill="url(#paint40_linear_663_6)"/>
<path d="M498.117 241.257L498.811 224.372L497.191 234.781L498.117 241.257Z" fill="url(#paint41_linear_663_6)"/>
<path d="M370.896 441.804C369.74 452.675 368.814 463.547 367.195 474.418C369.971 461.002 372.053 442.96 372.053 430.701C371.59 434.402 371.127 438.103 370.896 441.804C370.434 445.273 371.127 438.103 370.896 441.804Z" fill="url(#paint42_linear_663_6)"/>
<path d="M411.374 427.463C410.912 422.374 410.449 417.516 409.524 412.427C409.293 416.128 409.061 419.829 408.83 423.53C408.83 425.149 408.83 427 409.293 428.388C409.987 430.238 410.912 429.082 412.068 428.388C411.837 424.455 412.068 419.135 411.374 427.463Z" fill="url(#paint43_linear_663_6)"/>
<path d="M420.628 424.918C420.165 426.306 419.471 427.925 418.777 429.775C419.471 427.925 420.396 426.306 421.09 424.687C422.71 420.292 424.329 415.897 425.948 411.502C426.642 409.651 427.104 407.569 427.567 405.719C427.567 405.256 427.798 403.174 426.873 404.1L419.471 423.53L423.866 413.815C422.941 417.284 421.784 421.217 420.628 424.918C420.165 426.306 421.09 423.53 420.628 424.918Z" fill="url(#paint44_linear_663_6)"/>
<path d="M414.151 439.721C412.763 441.572 411.838 442.728 410.682 446.661C411.838 444.579 412.763 442.266 414.151 439.721Z" fill="url(#paint45_linear_663_6)"/>
<path d="M417.852 432.319C418.315 431.394 418.546 430.7 418.777 429.775C417.158 433.244 415.539 436.483 414.151 439.721C415.076 438.333 416.233 436.483 417.852 432.319C416.233 436.483 418.315 431.394 417.852 432.319Z" fill="url(#paint46_linear_663_6)"/>
<path d="M439.826 373.105C441.908 367.553 443.296 361.77 444.915 355.988L440.52 368.941C441.214 372.411 434.043 384.208 433.812 389.99C433.812 389.99 436.819 381.663 439.826 373.105C436.819 381.663 441.214 368.941 439.826 373.105Z" fill="url(#paint47_linear_663_6)"/>
<path d="M458.331 138.092C458.331 138.786 458.331 139.48 458.562 140.174C458.562 139.711 458.562 139.248 458.331 138.092Z" fill="url(#paint48_linear_663_6)"/>
<path d="M457.868 146.652C462.032 158.218 463.188 170.94 464.807 182.968C465.501 190.833 465.964 198.466 466.195 206.33L467.583 202.629C467.583 201.242 467.583 199.854 467.352 198.234C466.426 187.594 464.807 177.185 463.188 166.776C461.338 157.986 459.256 148.965 458.562 140.175C458.099 142.72 453.01 123.058 457.868 146.652C453.01 123.058 458.793 149.197 457.868 146.652Z" fill="url(#paint49_linear_663_6)"/>
<path d="M450.699 106.171C452.549 108.715 453.243 111.491 453.474 114.498C453.706 115.654 455.094 124.213 456.25 123.981C456.713 123.981 455.556 118.43 455.556 117.967C453.474 109.872 449.773 101.776 450.699 106.171C449.773 101.776 454.862 111.722 450.699 106.171Z" fill="url(#paint50_linear_663_6)"/>
<path d="M396.339 28.4511C394.72 27.9881 392.87 27.7571 391.019 27.0631C390.325 26.8321 389.4 26.6011 388.243 26.3691C393.332 28.9141 398.19 32.1521 403.047 35.1591C403.973 35.6221 406.054 37.4721 407.211 37.2411C407.905 37.0091 404.435 33.7711 404.435 33.5401C405.592 34.4651 406.98 35.6221 408.367 36.7781C408.83 37.0101 412.3 39.7851 412.3 40.0161C412.3 39.3221 409.987 37.4721 409.524 37.0091C402.122 30.5331 398.652 29.3761 396.339 28.4511C395.183 28.2191 398.652 29.3761 396.339 28.4511Z" fill="url(#paint51_linear_663_6)"/>
<path d="M344.064 83.2719C344.064 83.2719 342.445 82.3459 340.825 81.6519C339.206 80.9579 337.587 80.2639 337.587 80.2639C337.587 80.2639 338.281 80.7269 339.206 81.4209C340.131 82.1149 341.519 83.0399 342.907 83.9649C344.758 85.3529 346.377 86.7409 347.996 88.1289C347.071 86.7409 345.914 85.3529 344.758 84.1969C344.295 83.5029 344.064 83.2719 344.064 83.2719Z" fill="url(#paint52_linear_663_6)"/>
<path d="M301.503 194.995C302.659 194.763 304.047 194.763 305.435 194.532C310.987 193.607 316.538 191.987 321.627 189.674C319.083 190.368 316.307 191.062 313.762 191.293C313.762 191.293 309.83 192.681 305.898 193.838C303.816 194.301 301.734 194.532 300.115 194.995C298.496 195.226 297.339 195.226 297.339 195.226C298.727 194.994 300.115 194.995 301.503 194.995C300.346 194.995 302.659 194.763 301.503 194.995Z" fill="url(#paint53_linear_663_6)"/>
<path d="M274.439 185.281C274.901 185.975 275.364 186.206 275.364 186.206C276.521 187.131 277.215 188.057 278.14 188.519C279.065 188.982 279.759 189.444 280.222 189.907C282.535 191.295 286.004 191.758 288.549 192.451C287.392 192.22 286.467 191.989 285.31 191.526C284.385 191.064 283.229 190.601 281.841 190.138C280.684 189.444 279.296 188.751 278.14 188.057C276.983 187.131 275.827 186.206 274.901 185.281C273.976 184.356 273.051 183.43 272.357 182.505C270.969 180.886 270.275 179.498 270.275 179.498C270.275 179.498 270.507 179.961 270.969 180.655C271.432 181.349 271.894 182.274 272.588 182.968C273.282 183.662 273.976 184.587 274.439 185.281C273.976 184.587 274.901 185.744 274.439 185.281Z" fill="url(#paint54_linear_663_6)"/>
<path d="M262.643 143.644C262.643 146.882 262.874 150.12 263.105 153.127C263.105 153.821 264.031 162.611 264.493 162.611C263.105 154.515 262.643 146.419 263.105 138.323C263.337 140.174 263.105 141.793 262.643 143.644Z" fill="url(#paint55_linear_663_6)"/>
</g>
<defs>
<linearGradient id="paint0_linear_663_6" x1="332.729" y1="141.148" x2="332.234" y2="139.647" gradientUnits="userSpaceOnUse">
<stop offset="0.0778503" stop-color="#AB8757"/>
<stop offset="0.369009" stop-color="#C7A16D"/>
<stop offset="0.591702" stop-color="#DAB27E"/>
<stop offset="0.930539" stop-color="#B99768"/>
</linearGradient>
<linearGradient id="paint1_linear_663_6" x1="330.879" y1="138.803" x2="330.833" y2="138.251" gradientUnits="userSpaceOnUse">
<stop offset="0.0778503" stop-color="#AB8757"/>
<stop offset="0.369009" stop-color="#C7A16D"/>
<stop offset="0.591702" stop-color="#DAB27E"/>
<stop offset="0.930539" stop-color="#B99768"/>
</linearGradient>
<linearGradient id="paint2_linear_663_6" x1="329.953" y1="123.314" x2="329.895" y2="122.433" gradientUnits="userSpaceOnUse">
<stop offset="0.0778503" stop-color="#AB8757"/>
<stop offset="0.369009" stop-color="#C7A16D"/>
<stop offset="0.591702" stop-color="#DAB27E"/>
<stop offset="0.930539" stop-color="#B99768"/>
</linearGradient>
<linearGradient id="paint3_linear_663_6" x1="299.652" y1="112.244" x2="299.211" y2="110.368" gradientUnits="userSpaceOnUse">
<stop offset="0.0778503" stop-color="#AB8757"/>
<stop offset="0.369009" stop-color="#C7A16D"/>
<stop offset="0.591702" stop-color="#DAB27E"/>
<stop offset="0.930539" stop-color="#B99768"/>
</linearGradient>
<linearGradient id="paint4_linear_663_6" x1="298.339" y1="117.372" x2="297.661" y2="114.185" gradientUnits="userSpaceOnUse">
<stop offset="0.0778503" stop-color="#AB8757"/>
<stop offset="0.369009" stop-color="#C7A16D"/>
<stop offset="0.591702" stop-color="#DAB27E"/>
<stop offset="0.930539" stop-color="#B99768"/>
</linearGradient>
<linearGradient id="paint5_linear_663_6" x1="295.026" y1="118.679" x2="294.937" y2="118.138" gradientUnits="userSpaceOnUse">
<stop offset="0.0778503" stop-color="#AB8757"/>
<stop offset="0.369009" stop-color="#C7A16D"/>
<stop offset="0.591702" stop-color="#DAB27E"/>
<stop offset="0.930539" stop-color="#B99768"/>
</linearGradient>
<linearGradient id="paint6_linear_663_6" x1="297.57" y1="119.899" x2="297.124" y2="117.197" gradientUnits="userSpaceOnUse">
<stop offset="0.0778503" stop-color="#AB8757"/>
<stop offset="0.369009" stop-color="#C7A16D"/>
<stop offset="0.591702" stop-color="#DAB27E"/>
<stop offset="0.930539" stop-color="#B99768"/>
</linearGradient>
<linearGradient id="paint7_linear_663_6" x1="292.481" y1="142.072" x2="292.093" y2="140.503" gradientUnits="userSpaceOnUse">
<stop offset="0.0778503" stop-color="#AB8757"/>
<stop offset="0.369009" stop-color="#C7A16D"/>
<stop offset="0.591702" stop-color="#DAB27E"/>
<stop offset="0.930539" stop-color="#B99768"/>
</linearGradient>
<linearGradient id="paint8_linear_663_6" x1="295.951" y1="159.389" x2="295.862" y2="158.848" gradientUnits="userSpaceOnUse">
<stop offset="0.0778503" stop-color="#AB8757"/>
<stop offset="0.369009" stop-color="#C7A16D"/>
<stop offset="0.591702" stop-color="#DAB27E"/>
<stop offset="0.930539" stop-color="#B99768"/>
</linearGradient>
<linearGradient id="paint9_linear_663_6" x1="294.332" y1="148.285" x2="294.296" y2="147.733" gradientUnits="userSpaceOnUse">
<stop offset="0.0778503" stop-color="#AB8757"/>
<stop offset="0.369009" stop-color="#C7A16D"/>
<stop offset="0.591702" stop-color="#DAB27E"/>
<stop offset="0.930539" stop-color="#B99768"/>
</linearGradient>
<linearGradient id="paint10_linear_663_6" x1="297.57" y1="160.088" x2="297.513" y2="159.399" gradientUnits="userSpaceOnUse">
<stop offset="0.0778503" stop-color="#AB8757"/>
<stop offset="0.369009" stop-color="#C7A16D"/>
<stop offset="0.591702" stop-color="#DAB27E"/>
<stop offset="0.930539" stop-color="#B99768"/>
</linearGradient>
<linearGradient id="paint11_linear_663_6" x1="296.413" y1="162.652" x2="296.138" y2="161.32" gradientUnits="userSpaceOnUse">
<stop offset="0.0778503" stop-color="#AB8757"/>
<stop offset="0.369009" stop-color="#C7A16D"/>
<stop offset="0.591702" stop-color="#DAB27E"/>
<stop offset="0.930539" stop-color="#B99768"/>
</linearGradient>
<linearGradient id="paint12_linear_663_6" x1="327.863" y1="152.077" x2="326.549" y2="149.037" gradientUnits="userSpaceOnUse">
<stop offset="0.0778503" stop-color="#AB8757"/>
<stop offset="0.369009" stop-color="#C7A16D"/>
<stop offset="0.591702" stop-color="#DAB27E"/>
<stop offset="0.930539" stop-color="#B99768"/>
</linearGradient>
<linearGradient id="paint13_linear_663_6" x1="328.812" y1="141.858" x2="328.618" y2="139.654" gradientUnits="userSpaceOnUse">
<stop offset="0.0778503" stop-color="#AB8757"/>
<stop offset="0.369009" stop-color="#C7A16D"/>
<stop offset="0.591702" stop-color="#DAB27E"/>
<stop offset="0.930539" stop-color="#B99768"/>
</linearGradient>
<linearGradient id="paint14_linear_663_6" x1="329.26" y1="133.539" x2="329.015" y2="131.065" gradientUnits="userSpaceOnUse">
<stop offset="0.0778503" stop-color="#AB8757"/>
<stop offset="0.369009" stop-color="#C7A16D"/>
<stop offset="0.591702" stop-color="#DAB27E"/>
<stop offset="0.930539" stop-color="#B99768"/>
</linearGradient>
<linearGradient id="paint15_linear_663_6" x1="329.724" y1="134.87" x2="329.63" y2="134.331" gradientUnits="userSpaceOnUse">
<stop offset="0.0778503" stop-color="#AB8757"/>
<stop offset="0.369009" stop-color="#C7A16D"/>
<stop offset="0.591702" stop-color="#DAB27E"/>
<stop offset="0.930539" stop-color="#B99768"/>
</linearGradient>
<linearGradient id="paint16_linear_663_6" x1="329.99" y1="134.423" x2="329.679" y2="133.408" gradientUnits="userSpaceOnUse">
<stop offset="0.0778503" stop-color="#AB8757"/>
<stop offset="0.369009" stop-color="#C7A16D"/>
<stop offset="0.591702" stop-color="#DAB27E"/>
<stop offset="0.930539" stop-color="#B99768"/>
</linearGradient>
<linearGradient id="paint17_linear_663_6" x1="327.409" y1="130.539" x2="326.246" y2="128.395" gradientUnits="userSpaceOnUse">
<stop offset="0.0778503" stop-color="#AB8757"/>
<stop offset="0.369009" stop-color="#C7A16D"/>
<stop offset="0.591702" stop-color="#DAB27E"/>
<stop offset="0.930539" stop-color="#B99768"/>
</linearGradient>
<linearGradient id="paint18_linear_663_6" x1="328.104" y1="117.676" x2="326.969" y2="112.077" gradientUnits="userSpaceOnUse">
<stop offset="0.0778503" stop-color="#AB8757"/>
<stop offset="0.369009" stop-color="#C7A16D"/>
<stop offset="0.591702" stop-color="#DAB27E"/>
<stop offset="0.930539" stop-color="#B99768"/>
</linearGradient>
<linearGradient id="paint19_linear_663_6" x1="327.872" y1="111.084" x2="327.576" y2="109.241" gradientUnits="userSpaceOnUse">
<stop offset="0.0778503" stop-color="#AB8757"/>
<stop offset="0.369009" stop-color="#C7A16D"/>
<stop offset="0.591702" stop-color="#DAB27E"/>
<stop offset="0.930539" stop-color="#B99768"/>
</linearGradient>
<linearGradient id="paint20_linear_663_6" x1="323.478" y1="105.694" x2="323.342" y2="103.847" gradientUnits="userSpaceOnUse">
<stop offset="0.0778503" stop-color="#AB8757"/>
<stop offset="0.369009" stop-color="#C7A16D"/>
<stop offset="0.591702" stop-color="#DAB27E"/>
<stop offset="0.930539" stop-color="#B99768"/>
</linearGradient>
<linearGradient id="paint21_linear_663_6" x1="317.001" y1="96.2651" x2="316.859" y2="94.8921" gradientUnits="userSpaceOnUse">
<stop offset="0.0778503" stop-color="#AB8757"/>
<stop offset="0.369009" stop-color="#C7A16D"/>
<stop offset="0.591702" stop-color="#DAB27E"/>
<stop offset="0.930539" stop-color="#B99768"/>
</linearGradient>
<linearGradient id="paint22_linear_663_6" x1="308.21" y1="93.5541" x2="307.818" y2="92.2051" gradientUnits="userSpaceOnUse">
<stop offset="0.0778503" stop-color="#AB8757"/>
<stop offset="0.369009" stop-color="#C7A16D"/>
<stop offset="0.591702" stop-color="#DAB27E"/>
<stop offset="0.930539" stop-color="#B99768"/>
</linearGradient>
<linearGradient id="paint23_linear_663_6" x1="307.518" y1="92.2881" x2="307.301" y2="91.2661" gradientUnits="userSpaceOnUse">
<stop offset="0.0778503" stop-color="#AB8757"/>
<stop offset="0.369009" stop-color="#C7A16D"/>
<stop offset="0.591702" stop-color="#DAB27E"/>
<stop offset="0.930539" stop-color="#B99768"/>
</linearGradient>
<linearGradient id="paint24_linear_663_6" x1="306.129" y1="91.3999" x2="305.896" y2="90.3409" gradientUnits="userSpaceOnUse">
<stop offset="0.0778503" stop-color="#AB8757"/>
<stop offset="0.369009" stop-color="#C7A16D"/>
<stop offset="0.591702" stop-color="#DAB27E"/>
<stop offset="0.930539" stop-color="#B99768"/>
</linearGradient>
<linearGradient id="paint25_linear_663_6" x1="404.205" y1="448.797" x2="398.324" y2="446.571" gradientUnits="userSpaceOnUse">
<stop offset="0.0778503" stop-color="#AB8757"/>
<stop offset="0.369009" stop-color="#C7A16D"/>
<stop offset="0.591702" stop-color="#DAB27E"/>
<stop offset="0.930539" stop-color="#B99768"/>
</linearGradient>
<linearGradient id="paint26_linear_663_6" x1="362.568" y1="137.681" x2="362.021" y2="136.113" gradientUnits="userSpaceOnUse">
<stop offset="0.0778503" stop-color="#AB8757"/>
<stop offset="0.369009" stop-color="#C7A16D"/>
<stop offset="0.591702" stop-color="#DAB27E"/>
<stop offset="0.930539" stop-color="#B99768"/>
</linearGradient>
<linearGradient id="paint27_linear_663_6" x1="51.918" y1="104.099" x2="51.912" y2="103.821" gradientUnits="userSpaceOnUse">
<stop offset="0.0778503" stop-color="#AB8757"/>
<stop offset="0.369009" stop-color="#C7A16D"/>
<stop offset="0.591702" stop-color="#DAB27E"/>
<stop offset="0.930539" stop-color="#B99768"/>
</linearGradient>
<linearGradient id="paint28_linear_663_6" x1="462.032" y1="299.995" x2="460.708" y2="298.815" gradientUnits="userSpaceOnUse">
<stop offset="0.0778503" stop-color="#AB8757"/>
<stop offset="0.369009" stop-color="#C7A16D"/>
<stop offset="0.591702" stop-color="#DAB27E"/>
<stop offset="0.930539" stop-color="#B99768"/>
</linearGradient>
<linearGradient id="paint29_linear_663_6" x1="463.218" y1="297.983" x2="454.98" y2="292.436" gradientUnits="userSpaceOnUse">
<stop offset="0.0778503" stop-color="#AB8757"/>
<stop offset="0.369009" stop-color="#C7A16D"/>
<stop offset="0.591702" stop-color="#DAB27E"/>
<stop offset="0.930539" stop-color="#B99768"/>
</linearGradient>
<linearGradient id="paint30_linear_663_6" x1="17.915" y1="92.5091" x2="13.743" y2="69.9641" gradientUnits="userSpaceOnUse">
<stop offset="0.0778503" stop-color="#AB8757"/>
<stop offset="0.369009" stop-color="#C7A16D"/>
<stop offset="0.591702" stop-color="#DAB27E"/>
<stop offset="0.930539" stop-color="#B99768"/>
</linearGradient>
<linearGradient id="paint31_linear_663_6" x1="83.8389" y1="86.8309" x2="83.7999" y2="83.7779" gradientUnits="userSpaceOnUse">
<stop offset="0.0778503" stop-color="#AB8757"/>
<stop offset="0.369009" stop-color="#C7A16D"/>
<stop offset="0.591702" stop-color="#DAB27E"/>
<stop offset="0.930539" stop-color="#B99768"/>
</linearGradient>
<linearGradient id="paint32_linear_663_6" x1="107.178" y1="86.0881" x2="107.123" y2="84.7021" gradientUnits="userSpaceOnUse">
<stop offset="0.0778503" stop-color="#AB8757"/>
<stop offset="0.369009" stop-color="#C7A16D"/>
<stop offset="0.591702" stop-color="#DAB27E"/>
<stop offset="0.930539" stop-color="#B99768"/>
</linearGradient>
<linearGradient id="paint33_linear_663_6" x1="116.916" y1="85.26" x2="116.805" y2="80.5441" gradientUnits="userSpaceOnUse">
<stop offset="0.0778503" stop-color="#AB8757"/>
<stop offset="0.369009" stop-color="#C7A16D"/>
<stop offset="0.591702" stop-color="#DAB27E"/>
<stop offset="0.930539" stop-color="#B99768"/>
</linearGradient>
<linearGradient id="paint34_linear_663_6" x1="130.101" y1="80.7351" x2="130.095" y2="80.4571" gradientUnits="userSpaceOnUse">
<stop offset="0.0778503" stop-color="#AB8757"/>
<stop offset="0.369009" stop-color="#C7A16D"/>
<stop offset="0.591702" stop-color="#DAB27E"/>
<stop offset="0.930539" stop-color="#B99768"/>
</linearGradient>
<linearGradient id="paint35_linear_663_6" x1="535.92" y1="537.062" x2="438.482" y2="-68.028" gradientUnits="userSpaceOnUse">
<stop offset="0.0778503" stop-color="#AB8757"/>
<stop offset="0.369009" stop-color="#C7A16D"/>
<stop offset="0.591702" stop-color="#DAB27E"/>
<stop offset="0.930539" stop-color="#B99768"/>
</linearGradient>
<linearGradient id="paint36_linear_663_6" x1="390.789" y1="1.19698" x2="390.773" y2="-0.190997" gradientUnits="userSpaceOnUse">
<stop offset="0.0778503" stop-color="#AB8757"/>
<stop offset="0.369009" stop-color="#C7A16D"/>
<stop offset="0.591702" stop-color="#DAB27E"/>
<stop offset="0.930539" stop-color="#B99768"/>
</linearGradient>
<linearGradient id="paint37_linear_663_6" x1="456.481" y1="49.232" x2="456.388" y2="48.51" gradientUnits="userSpaceOnUse">
<stop offset="0.0778503" stop-color="#AB8757"/>
<stop offset="0.369009" stop-color="#C7A16D"/>
<stop offset="0.591702" stop-color="#DAB27E"/>
<stop offset="0.930539" stop-color="#B99768"/>
</linearGradient>
<linearGradient id="paint38_linear_663_6" x1="498.349" y1="196.856" x2="494.278" y2="193.57" gradientUnits="userSpaceOnUse">
<stop offset="0.0778503" stop-color="#AB8757"/>
<stop offset="0.369009" stop-color="#C7A16D"/>
<stop offset="0.591702" stop-color="#DAB27E"/>
<stop offset="0.930539" stop-color="#B99768"/>
</linearGradient>
<linearGradient id="paint39_linear_663_6" x1="458.331" y1="50.635" x2="456.779" y2="43.769" gradientUnits="userSpaceOnUse">
<stop offset="0.0778503" stop-color="#AB8757"/>
<stop offset="0.369009" stop-color="#C7A16D"/>
<stop offset="0.591702" stop-color="#DAB27E"/>
<stop offset="0.930539" stop-color="#B99768"/>
</linearGradient>
<linearGradient id="paint40_linear_663_6" x1="500.198" y1="210.807" x2="494.93" y2="206.571" gradientUnits="userSpaceOnUse">
<stop offset="0.0778503" stop-color="#AB8757"/>
<stop offset="0.369009" stop-color="#C7A16D"/>
<stop offset="0.591702" stop-color="#DAB27E"/>
<stop offset="0.930539" stop-color="#B99768"/>
</linearGradient>
<linearGradient id="paint41_linear_663_6" x1="498.811" y1="241.847" x2="490.011" y2="236.737" gradientUnits="userSpaceOnUse">
<stop offset="0.0778503" stop-color="#AB8757"/>
<stop offset="0.369009" stop-color="#C7A16D"/>
<stop offset="0.591702" stop-color="#DAB27E"/>
<stop offset="0.930539" stop-color="#B99768"/>
</linearGradient>
<linearGradient id="paint42_linear_663_6" x1="372.053" y1="475.945" x2="347.754" y2="459.596" gradientUnits="userSpaceOnUse">
<stop offset="0.0778503" stop-color="#AB8757"/>
<stop offset="0.369009" stop-color="#C7A16D"/>
<stop offset="0.591702" stop-color="#DAB27E"/>
<stop offset="0.930539" stop-color="#B99768"/>
</linearGradient>
<linearGradient id="paint43_linear_663_6" x1="412.068" y1="429.979" x2="401.998" y2="418.336" gradientUnits="userSpaceOnUse">
<stop offset="0.0778503" stop-color="#AB8757"/>
<stop offset="0.369009" stop-color="#C7A16D"/>
<stop offset="0.591702" stop-color="#DAB27E"/>
<stop offset="0.930539" stop-color="#B99768"/>
</linearGradient>
<linearGradient id="paint44_linear_663_6" x1="427.593" y1="430.68" x2="415.379" y2="405.515" gradientUnits="userSpaceOnUse">
<stop offset="0.0778503" stop-color="#AB8757"/>
<stop offset="0.369009" stop-color="#C7A16D"/>
<stop offset="0.591702" stop-color="#DAB27E"/>
<stop offset="0.930539" stop-color="#B99768"/>
</linearGradient>
<linearGradient id="paint45_linear_663_6" x1="414.151" y1="446.903" x2="411.671" y2="439.394" gradientUnits="userSpaceOnUse">
<stop offset="0.0778503" stop-color="#AB8757"/>
<stop offset="0.369009" stop-color="#C7A16D"/>
<stop offset="0.591702" stop-color="#DAB27E"/>
<stop offset="0.930539" stop-color="#B99768"/>
</linearGradient>
<linearGradient id="paint46_linear_663_6" x1="418.777" y1="440.068" x2="415.014" y2="429.468" gradientUnits="userSpaceOnUse">
<stop offset="0.0778503" stop-color="#AB8757"/>
<stop offset="0.369009" stop-color="#C7A16D"/>
<stop offset="0.591702" stop-color="#DAB27E"/>
<stop offset="0.930539" stop-color="#B99768"/>
</linearGradient>
<linearGradient id="paint47_linear_663_6" x1="444.915" y1="391.178" x2="428.481" y2="358.683" gradientUnits="userSpaceOnUse">
<stop offset="0.0778503" stop-color="#AB8757"/>
<stop offset="0.369009" stop-color="#C7A16D"/>
<stop offset="0.591702" stop-color="#DAB27E"/>
<stop offset="0.930539" stop-color="#B99768"/>
</linearGradient>
<linearGradient id="paint48_linear_663_6" x1="458.563" y1="140.246" x2="457.405" y2="139.468" gradientUnits="userSpaceOnUse">
<stop offset="0.0778503" stop-color="#AB8757"/>
<stop offset="0.369009" stop-color="#C7A16D"/>
<stop offset="0.591702" stop-color="#DAB27E"/>
<stop offset="0.930539" stop-color="#B99768"/>
</linearGradient>
<linearGradient id="paint49_linear_663_6" x1="467.583" y1="208.824" x2="424.723" y2="165.949" gradientUnits="userSpaceOnUse">
<stop offset="0.0778503" stop-color="#AB8757"/>
<stop offset="0.369009" stop-color="#C7A16D"/>
<stop offset="0.591702" stop-color="#DAB27E"/>
<stop offset="0.930539" stop-color="#B99768"/>
</linearGradient>
<linearGradient id="paint50_linear_663_6" x1="456.359" y1="124.651" x2="446.781" y2="106.976" gradientUnits="userSpaceOnUse">
<stop offset="0.0778503" stop-color="#AB8757"/>
<stop offset="0.369009" stop-color="#C7A16D"/>
<stop offset="0.591702" stop-color="#DAB27E"/>
<stop offset="0.930539" stop-color="#B99768"/>
</linearGradient>
<linearGradient id="paint51_linear_663_6" x1="412.3" y1="40.4931" x2="410.779" y2="24.2581" gradientUnits="userSpaceOnUse">
<stop offset="0.0778503" stop-color="#AB8757"/>
<stop offset="0.369009" stop-color="#C7A16D"/>
<stop offset="0.591702" stop-color="#DAB27E"/>
<stop offset="0.930539" stop-color="#B99768"/>
</linearGradient>
<linearGradient id="paint52_linear_663_6" x1="347.996" y1="88.4039" x2="346.837" y2="79.1099" gradientUnits="userSpaceOnUse">
<stop offset="0.0778503" stop-color="#AB8757"/>
<stop offset="0.369009" stop-color="#C7A16D"/>
<stop offset="0.591702" stop-color="#DAB27E"/>
<stop offset="0.930539" stop-color="#B99768"/>
</linearGradient>
<linearGradient id="paint53_linear_663_6" x1="321.627" y1="195.42" x2="321.376" y2="188.767" gradientUnits="userSpaceOnUse">
<stop offset="0.0778503" stop-color="#AB8757"/>
<stop offset="0.369009" stop-color="#C7A16D"/>
<stop offset="0.591702" stop-color="#DAB27E"/>
<stop offset="0.930539" stop-color="#B99768"/>
</linearGradient>
<linearGradient id="paint54_linear_663_6" x1="288.549" y1="192.904" x2="286.754" y2="177.569" gradientUnits="userSpaceOnUse">
<stop offset="0.0778503" stop-color="#AB8757"/>
<stop offset="0.369009" stop-color="#C7A16D"/>
<stop offset="0.591702" stop-color="#DAB27E"/>
<stop offset="0.930539" stop-color="#B99768"/>
</linearGradient>
<linearGradient id="paint55_linear_663_6" x1="264.493" y1="163.459" x2="253.406" y2="158.344" gradientUnits="userSpaceOnUse">
<stop offset="0.0778503" stop-color="#AB8757"/>
<stop offset="0.369009" stop-color="#C7A16D"/>
<stop offset="0.591702" stop-color="#DAB27E"/>
<stop offset="0.930539" stop-color="#B99768"/>
</linearGradient>
<clipPath id="clip0_663_6">
<rect width="536" height="519" fill="white" transform="matrix(-1 0 0 -1 536 519)"/>
</clipPath>
</defs>
</svg>
