<svg width="240" height="75" viewBox="0 0 240 75" fill="none" xmlns="http://www.w3.org/2000/svg">
<path d="M148.635 68.6688C171.276 69.0609 188.589 68.7995 205.792 65.794C212.007 64.7485 218.111 62.7884 224.104 60.8283C226.768 59.9135 229.321 58.084 231.54 56.1239C235.314 52.857 235.536 49.3287 232.206 45.5391C230.097 43.0563 227.545 40.8348 224.992 38.8746C218.222 33.9089 210.786 30.5114 203.35 27.3751C184.927 19.6652 165.838 14.6995 146.527 11.1713C124.552 7.25099 102.577 5.5522 80.3801 6.33626C64.0655 6.85896 47.7508 8.55775 31.6582 11.5633C22.5575 13.2621 13.4568 15.0916 4.35611 16.7904C4.24513 16.7904 4.13416 16.7903 4.02317 16.921C1.69251 17.3131 0.249714 16.529 0.027746 14.8302C-0.194222 13.1314 0.915617 11.9553 3.35726 11.4326C18.895 7.90437 34.5437 4.3761 50.3035 2.54664C67.284 0.586492 84.2645 -0.458922 101.356 0.194459C130.323 1.23987 158.846 5.94423 186.925 14.8302C198.023 18.3585 208.899 22.5401 219.332 28.4205C224.104 31.1647 228.655 34.5623 233.094 37.9599C234.981 39.3973 236.646 41.7495 237.977 43.971C240.974 48.9367 240.641 54.5558 236.978 58.7374C234.87 61.2203 232.206 63.3111 229.432 64.8792C222.994 68.6688 216.002 70.2369 209.01 71.5437C186.37 75.3333 163.729 75.5947 140.977 74.2879C131.766 73.7652 122.554 73.2425 113.342 72.4584C101.467 71.413 89.4808 70.2369 77.6055 68.6688C66.3961 67.2314 55.2977 65.4019 44.1993 63.0497C37.9842 61.743 31.7692 59.5215 25.776 57.3C22.8904 56.2546 20.1158 54.2944 17.6742 52.2036C12.347 47.3686 12.014 40.7041 16.5643 34.8237C19.228 31.2954 22.6685 29.2046 26.331 27.3751C34.4328 23.3242 42.9785 20.972 51.6353 19.1425C63.5106 16.6597 75.6078 15.7449 87.7051 16.529C90.7016 16.6597 92.0334 17.7051 91.9224 19.6652C91.8114 21.364 90.4797 22.1481 87.7051 22.2788C80.4911 22.5401 73.2771 22.5401 66.0632 23.1935C53.744 24.3696 41.6467 27.1138 30.1044 32.3408C27.4408 33.5169 24.8881 35.085 22.5575 36.9145C17.2302 41.3575 17.4522 45.6698 23.1124 49.1981C25.776 50.8968 28.6616 52.2036 31.6582 53.249C40.8698 56.6466 50.3035 58.6068 59.8481 59.9135C77.9385 62.2657 96.1398 64.6179 114.23 66.3167C127.215 67.7541 140.644 68.2768 148.635 68.6688Z" fill="#C7A16D"/>
</svg>
