<svg width="99" height="17" viewBox="0 0 99 17" fill="none" xmlns="http://www.w3.org/2000/svg">
<path d="M63.144 0.29663C56.0905 0.562495 49.0486 1.01027 42.0066 1.62596C35.6227 1.76589 29.2388 1.90581 22.8549 2.03175C15.8476 2.18567 8.84025 2.3396 1.84449 2.47953C1.16338 2.49352 0.11286 3.09521 0.00896245 4.00475C-0.106479 5.01224 0.920954 5.18016 1.49816 5.16616C6.04656 5.06821 10.6065 4.97027 15.1549 4.87232C13.2617 5.16617 11.3684 5.47401 9.47517 5.78186C8.81716 5.8938 7.90517 6.25761 7.69737 7.13917C7.51266 7.90878 8.08988 8.4685 8.71326 8.48249C19.23 8.70638 29.7352 8.91627 40.2519 9.14016C42.4915 9.18214 44.731 9.23811 46.9591 9.28009C43.7383 9.69987 40.529 10.2036 37.3197 10.7493C32.298 11.6169 27.2878 12.6524 22.3123 13.8418C21.7697 13.9677 21.0078 14.5414 20.927 15.2691C20.8462 15.9687 21.4811 16.4305 21.989 16.4305C33.9488 16.5564 45.897 16.6823 57.8567 16.8083C61.2276 16.8503 64.5985 16.8782 67.9694 16.9202C68.7429 16.9342 69.7357 16.6544 70.1167 15.7448C70.463 14.9192 69.8165 14.2336 69.1469 14.2336C57.6374 14.1076 46.1279 13.9957 34.6184 13.8698C34.9416 13.8138 35.2648 13.7578 35.5765 13.6879C39.9287 12.9043 44.2924 12.2466 48.6676 11.7009C57.4181 10.6234 66.2032 10.0217 74.9998 9.89577C75.3923 9.89577 75.7848 9.88178 76.1773 9.88178C80.6334 9.97973 85.0894 10.0637 89.5455 10.1616C90.3189 10.1756 91.3117 9.89577 91.6927 8.98623C92.0506 8.14666 91.381 7.50298 90.723 7.475C86.1746 7.25111 81.6146 7.15316 77.0662 7.19514C71.1095 7.0692 65.1411 6.94327 59.1843 6.81733C48.6676 6.59344 38.1624 6.38355 27.6457 6.15966C26.803 6.14567 25.9487 6.11768 25.106 6.10369C30.6125 5.39005 36.1191 4.78836 41.6488 4.3126C53.1583 4.06073 64.6678 3.82284 76.1773 3.57097C83.1846 3.41705 90.1919 3.26313 97.1877 3.1232C97.8342 3.10921 98.7693 2.57748 98.9655 1.76589C99.1502 0.982283 98.5615 0.450551 97.9496 0.422565C86.3708 -0.0951729 74.7459 -0.137151 63.144 0.29663Z" fill="#A21038"/>
</svg>
