<svg width="210" height="7" viewBox="0 0 210 7" fill="none" xmlns="http://www.w3.org/2000/svg">
<g clipPath="url(#clip0_674_13)">
<path d="M3.10986 1.56967C28.657 1.63153 54.2042 1.69339 79.7273 1.75525C99.9814 1.80164 120.26 1.85577 140.514 1.90216C137.154 1.97949 133.77 2.06454 130.411 2.14187C107.353 2.69087 84.3195 3.23987 61.2617 3.78887C48.331 4.09817 35.3763 4.40747 22.4455 4.71673C21.0678 4.74767 19.1826 5.01057 18.7959 5.48227C18.4334 5.91527 19.5935 6.24777 20.947 6.26323C45.2132 6.61117 69.4795 6.81997 93.7698 6.88953C117.77 6.95913 141.746 6.88953 165.723 6.6885C179.185 6.57253 192.672 6.41013 206.134 6.2091C207.584 6.1859 209.687 5.86887 209.88 5.34307C210.074 4.79407 208.043 4.63943 206.762 4.6549C182.81 5.0183 158.81 5.2348 134.834 5.31987C112.018 5.3972 89.4917 5.35853 66.7965 5.18843C74.8693 4.9951 82.9176 4.8018 90.9904 4.6085C114.048 4.0595 137.082 3.5105 160.139 2.9615C173.07 2.6522 186.025 2.34291 198.956 2.03361C200.406 2.00268 202.509 1.70112 202.702 1.16759C202.919 0.603123 200.865 0.48714 199.584 0.479407C174.037 0.41755 148.49 0.35569 122.967 0.29383C97.5645 0.231971 72.1622 0.170112 46.7358 0.108253C32.4034 0.0695913 18.095 0.038662 3.76243 0C2.31225 0 0.185332 0.35569 0.0161452 0.866027C-0.201381 1.44595 1.82887 1.56967 3.10986 1.56967Z" fill="#FFCE5B"/>
</g>
<defs>
<clipPath id="clip0_674_13">
<rect width="210" height="7" fill="white"/>
</clipPath>
</defs>
</svg>
