<svg width="170" height="189" viewBox="0 0 170 189" fill="none" xmlns="http://www.w3.org/2000/svg">
<path d="M90.2587 181.646C91.7557 182.278 93.2527 182.909 94.7871 183.541C99.3529 185.393 103.993 187.119 108.821 188.087C114.061 189.14 119.45 189.392 124.689 188.256C129.554 187.203 134.158 185.183 138.461 182.362C145.535 177.647 151.148 170.49 155.677 162.828C160.168 155.167 163.611 146.747 166.006 137.991C170.721 120.562 171.283 101.66 167.578 83.9365C165.781 75.3485 162.974 67.0552 159.157 59.3512C158.483 58.0041 155.939 58.6776 154.928 59.0144C154.03 59.3091 153.057 59.6459 152.271 60.2773C151.972 60.5299 151.148 61.1614 151.373 61.6666C159.082 77.285 162.638 95.2188 162.151 113.026C161.665 130.75 157.024 148.389 148.529 163.334C146.47 166.954 144.15 170.364 141.493 173.563C140.145 175.163 138.723 176.679 137.226 178.11C137.189 178.152 136.927 178.363 136.852 178.447C136.702 178.573 136.553 178.699 136.44 178.826C136.104 179.12 135.729 179.415 135.393 179.71C134.569 180.383 133.746 181.015 132.885 181.604C132.698 181.731 132.473 181.899 132.286 182.025C132.249 182.067 132.212 182.067 132.174 182.109C131.837 182.32 131.463 182.53 131.126 182.741C130.715 182.993 130.265 183.204 129.816 183.457C129.816 183.457 129.816 183.457 129.779 183.457C129.48 183.583 129.218 183.709 128.918 183.835C128.469 184.046 127.983 184.172 127.571 184.383C128.768 183.793 127.571 184.383 127.197 184.467C126.972 184.551 126.748 184.593 126.523 184.677C125.924 184.677 125.213 184.972 124.614 185.056C124.577 185.056 124.502 185.056 124.465 185.098C124.427 185.098 124.427 185.098 124.39 185.098C124.09 185.141 123.791 185.141 123.529 185.183C123.043 185.225 122.556 185.267 122.069 185.267C122.032 185.267 121.62 185.267 121.508 185.267C121.284 185.267 121.096 185.267 120.872 185.267C120.198 185.267 119.525 185.225 118.814 185.14C116.381 184.93 114.585 184.551 112.227 183.92C108.372 182.909 104.667 181.52 100.962 180.005C111.029 177.479 120.572 172.427 128.319 164.512C134.232 158.492 139.023 150.999 142.466 142.874C146.246 133.949 148.267 124.182 148.94 114.331C150.25 94.6716 146.096 74.5065 138.461 56.8674C131.65 41.2069 121.733 26.9777 109.008 16.8321C103.32 12.2855 97.07 8.5387 90.4458 5.92862C93.0281 6.64429 95.6104 7.48625 98.1179 8.45451C101.411 9.75955 104.143 11.1067 107.175 12.9169C110.169 14.685 113.05 16.7057 115.782 18.979C121.096 23.3573 125.849 28.6195 129.629 34.6395C130.453 35.9446 132.735 35.3552 133.858 34.9763C134.756 34.6817 135.729 34.3449 136.515 33.7134C136.777 33.5029 137.713 32.7872 137.414 32.3241C129.105 19.1474 117.017 9.71747 103.432 4.5815C90.5207 -0.343988 76.5988 -1.22809 63.2383 1.59249C48.493 2.26606 33.4484 7.48627 21.8094 17.8424C15.8589 23.1468 10.8815 29.6299 7.2513 37.1233C3.73341 44.3642 1.56281 52.3629 0.627196 60.5299C-0.196142 67.4761 -0.196146 74.5486 0.552342 81.4948C-0.458117 95.303 1.45052 109.195 6.31569 122.077C12.1165 137.443 21.6597 150.999 33.3361 161.229C45.7611 172.09 60.6934 179.205 76.3368 181.31C80.94 181.857 85.6181 182.025 90.2587 181.646ZM101.074 176.763C101.187 176.721 101.336 176.679 101.449 176.679C101.336 176.721 101.112 176.763 101.074 176.763ZM118.851 38.1337C128.506 51.6051 135.168 67.7708 138.686 84.6101C142.765 104.186 142.616 125.361 134.981 143.8C131.725 151.63 127.421 158.534 121.77 164.428C121.134 165.102 120.46 165.733 119.824 166.365C119.712 166.491 119.562 166.617 119.45 166.744C119.412 166.786 119.113 167.038 119.076 167.08C118.626 167.459 118.215 167.838 117.766 168.217C117.055 168.806 116.344 169.354 115.632 169.901C115.221 170.196 114.847 170.49 114.435 170.785C114.248 170.911 114.023 171.08 113.836 171.206C113.686 171.29 112.788 171.964 113.537 171.417C112.788 171.964 111.927 172.385 111.142 172.848C110.655 173.1 110.169 173.395 109.682 173.648C109.457 173.774 109.195 173.942 108.934 174.027C109.907 173.648 108.784 174.111 108.597 174.195C107.699 174.616 106.763 174.995 105.827 175.374C105.752 175.416 105.116 175.71 105.079 175.668C104.48 175.879 103.881 176.047 103.282 176.258C102.758 176.426 102.235 176.552 101.711 176.679C101.711 176.679 101.673 176.679 101.598 176.721C101.449 176.763 101.336 176.805 101.187 176.805C100.026 177.058 98.9038 177.31 97.7436 177.479C97.4816 177.521 97.2197 177.563 96.9577 177.605C96.8828 177.605 96.7331 177.605 96.5834 177.605C96.6583 177.605 96.7331 177.605 96.8454 177.605C96.4712 177.605 96.0969 177.689 95.7227 177.731C92.9533 176.552 90.2213 175.332 87.4893 174.027C80.0418 170.532 72.7066 166.659 65.596 162.281C51.5618 153.609 38.3884 142.748 27.9845 128.939C18.2541 116.015 11.5925 100.439 9.01026 83.6839C8.78571 82.1684 8.56117 80.6529 8.41147 79.1373C9.23481 68.6128 11.8171 58.2566 15.8215 48.7003C17.3559 45.0799 19.0774 41.5437 21.0235 38.1758C22.9322 34.8079 24.8782 31.9032 27.236 28.83C29.5563 25.799 32.0637 22.9784 34.7583 20.3683C35.0951 20.0315 35.4319 19.7368 35.7687 19.4C35.9184 19.2737 36.0681 19.1474 36.1804 19.0211C36.2178 18.979 36.2927 18.937 36.3301 18.8949C37.0412 18.2634 37.7897 17.5898 38.5381 17.0005C39.9603 15.8217 41.4198 14.6851 42.9542 13.6326C43.5904 13.1695 44.2267 12.7064 44.9003 12.3275C44.9752 12.2854 45.0874 12.2434 45.1248 12.2013C45.312 12.075 45.4991 11.9487 45.7236 11.8224C46.1727 11.5277 46.6592 11.2751 47.1083 10.9804C47.8194 10.5594 48.5679 10.1805 49.279 9.75954C49.6532 9.54905 50.0649 9.33855 50.4391 9.17016C50.6262 9.08596 50.8508 9.00178 51.0379 8.87549C49.9526 9.46486 50.8882 8.9597 51.1502 8.8334C52.6846 8.11773 54.2938 7.48627 55.8657 6.8969C56.0154 6.8548 56.1651 6.81269 56.3148 6.72849C56.689 6.6022 57.0632 6.47589 57.4375 6.3496C58.3357 6.05491 59.2339 5.80231 60.132 5.54972C60.3192 5.50763 60.5437 5.42342 60.7308 5.38132C60.8057 5.33922 60.9179 5.33923 60.9554 5.33923C60.9554 5.33923 60.9554 5.33923 60.9928 5.33923C61.3671 5.33923 61.7039 5.33924 62.0781 5.29715C62.1155 5.29715 62.1155 5.29715 62.153 5.29715C62.4524 5.29715 62.7517 5.29715 63.0137 5.29715C64.8101 5.33924 66.6065 5.42346 68.3654 5.63395C69.1888 5.71815 70.0121 5.80232 70.798 5.92862C71.2471 5.97072 71.6962 6.05491 72.1453 6.13911C72.295 6.18121 72.4447 6.18119 72.5944 6.22328C72.6318 6.22328 73.1558 6.3075 73.2306 6.3496C76.7485 7.02317 80.229 8.03353 83.5972 9.29647C97.4068 14.5166 109.645 25.2517 118.851 38.1337ZM54.7429 5.76022C54.7803 5.76022 54.8178 5.76022 54.8178 5.76022C54.8926 5.76022 55.0049 5.71813 55.0798 5.71813C55.3043 5.67603 55.4166 5.67602 54.7429 5.76022ZM49.2041 6.81267C49.4661 6.72847 50.2146 6.60218 49.1667 6.81267C49.2041 6.81267 49.2041 6.81267 49.2041 6.81267ZM20.4621 26.3883C21.5849 24.8728 22.7825 23.3993 24.0549 22.0101C24.6537 21.3365 25.2899 20.7051 25.8887 20.0736C26.1881 19.7789 26.4875 19.4842 26.7869 19.1895C26.9366 19.0211 27.1237 18.8528 27.2734 18.7265C27.3482 18.6423 27.4605 18.5581 27.5354 18.4739C27.5354 18.4739 27.5728 18.4739 27.5728 18.4318C28.9575 17.2109 30.3422 16.0743 31.8392 14.9797C32.5128 14.4745 33.1864 14.0115 33.8975 13.5484C34.0472 13.4221 34.2343 13.2958 34.4215 13.2116C34.4589 13.2116 34.4963 13.1695 34.4963 13.1695C34.9454 12.8748 35.3945 12.6222 35.8436 12.3697C36.5546 11.9487 37.2657 11.5277 38.0142 11.1488C38.4259 10.9383 38.8001 10.7278 39.2118 10.5173C39.3989 10.4331 39.6234 10.3489 39.8106 10.2226C39.6983 10.3068 39.586 10.3489 39.5112 10.391C39.6609 10.3068 39.8106 10.2226 39.9229 10.1805C40.6713 9.84374 41.4198 9.50694 42.1683 9.17016C42.58 9.00176 42.9917 8.83339 43.4033 8.665C43.6279 8.5808 43.815 8.49662 44.0395 8.41242C44.1518 8.37032 44.3389 8.32821 44.4886 8.24402C44.7506 8.15982 44.9751 8.07563 45.2371 7.99144C35.7687 12.9169 27.2734 20.0736 20.3873 28.9142C17.6553 32.4084 15.1853 36.113 12.9773 40.0281C13.5012 38.7652 14.0251 37.4601 14.6239 36.2393C16.3454 32.6189 18.2167 29.4615 20.4621 26.3883ZM67.9537 174.237C66.2322 173.648 64.5107 172.974 62.7892 172.258C61.1799 171.585 59.3835 170.743 58.0363 170.027C44.9003 163.249 33.2987 152.767 24.5414 139.885C21.9591 136.096 19.6388 132.055 17.5805 127.803C23.6432 136.686 30.941 144.516 38.875 151.294C51.5993 162.197 65.9328 170.448 80.6781 177.394C80.2664 177.352 79.8547 177.268 79.4431 177.226C79.2185 177.184 78.9939 177.142 78.732 177.1C78.6571 177.1 78.4326 177.058 78.3577 177.016C77.8712 176.931 77.3847 176.805 76.8982 176.721C75.738 176.468 74.5779 176.216 73.4551 175.921C71.5839 175.416 69.7501 174.869 67.9537 174.237Z" fill="#FFCE5B"/>
<path d="M39.5473 10.3484C39.2119 10.5171 39.3609 10.4328 39.5473 10.3484V10.3484Z" fill="#FFCE5B"/>
</svg>
