<svg width="518" height="382" viewBox="0 0 518 382" fill="none" xmlns="http://www.w3.org/2000/svg">
<path d="M378.599 330.31C387.424 329.942 396.433 329.023 405.441 329.023C399.926 328.288 394.41 328.655 388.895 328.655C382.46 328.655 376.025 328.839 369.59 329.207C390.917 327.92 412.244 326.449 433.387 323.508C431.548 324.427 429.894 325.346 428.423 326.081L421.069 327.736C422.724 327.368 425.114 327.001 427.32 326.633C426.217 327.184 425.297 327.736 424.378 328.288L422.54 328.839C422.907 328.839 423.275 328.655 423.643 328.655C420.15 330.678 416.84 332.884 413.347 335.09C408.935 337.848 404.338 340.238 399.742 342.812C406.728 339.135 413.715 335.642 420.701 332.148C420.701 332.148 423.459 330.126 426.584 328.104C429.894 327.552 433.387 327.001 436.696 326.449C417.208 336.377 397.352 346.121 379.151 358.072C377.128 359.359 376.209 360.278 377.312 362.668C378.415 365.426 380.438 367.816 382.276 369.838C386.321 374.434 392.204 380.134 398.639 381.053C401.581 381.421 403.603 379.582 405.993 377.928C410.589 374.802 415.369 371.677 420.15 368.735C429.894 362.668 440.006 357.152 450.301 352.005C450.853 351.821 451.221 351.821 451.037 352.005C451.588 351.637 452.14 351.269 452.875 350.718C462.252 346.121 471.628 342.076 481.005 337.664C478.798 339.135 475.121 341.157 469.238 343.731C475.857 341.341 483.762 337.848 492.22 334.539C499.757 331.781 508.031 330.31 514.282 324.978C515.753 323.324 517.591 321.669 517.223 319.279C517.039 317.073 515.753 315.234 514.466 313.396L513.362 311.925C512.627 311.005 511.892 310.086 510.972 309.167C509.318 307.512 507.479 306.042 505.825 304.387C503.986 303.1 502.147 301.813 500.309 300.526C493.69 296.849 486.888 293.907 479.534 291.885C478.614 291.517 477.511 291.15 476.592 290.782C476.408 290.598 471.996 288.576 471.996 288.392C472.547 287.84 475.673 289.127 476.408 289.311C479.718 290.23 483.027 291.333 486.152 292.62C492.587 294.827 498.838 297.952 504.354 301.813C494.426 294.091 482.291 289.495 470.525 285.45C457.471 280.854 444.234 276.993 430.813 273.316C417.392 269.823 403.787 266.697 390.182 263.756C376.577 260.814 363.156 257.872 349.367 255.666C330.981 252.725 312.596 250.518 294.027 249.599C293.108 249.783 292.189 249.967 291.086 250.151C291.086 250.702 290.718 251.07 289.799 251.254C282.996 253.092 294.027 265.043 296.417 266.881C296.417 266.881 296.785 267.249 297.153 267.8C298.44 269.271 299.727 270.926 301.381 272.029C300.094 270.742 301.933 271.661 302.484 271.477C302.668 271.477 302.668 271.294 302.484 270.926C306.345 273.684 310.206 275.154 314.986 275.338C318.296 275.522 321.421 275.706 324.73 276.074C333.371 276.993 342.196 278.28 350.837 279.567C371.061 282.692 391.285 286.553 411.325 290.782C405.074 290.414 398.823 290.046 392.572 289.127C409.854 291.701 426.768 295.194 443.683 299.423C441.844 299.791 440.189 300.158 438.535 300.342C438.351 300.342 437.983 300.342 437.799 300.158C437.983 300.158 438.167 300.342 438.535 300.342C434.122 301.078 430.997 301.445 430.629 301.078L427.871 302.916C401.948 306.409 431.181 301.078 422.54 301.261C413.531 302.548 404.338 303.284 395.513 304.938C393.675 305.306 390.182 305.49 389.079 307.512C387.975 309.535 384.666 309.719 382.828 310.086C374.37 310.638 365.729 311.189 357.272 311.741C348.631 311.925 339.806 312.844 330.981 313.396C334.658 312.66 332.268 311.925 330.798 311.557C320.318 313.763 309.839 313.763 299.175 313.579C288.328 313.396 277.664 313.212 266.817 313.579C266.082 312.66 284.467 312.293 286.673 311.189C276.01 311.741 265.162 312.109 254.499 312.109C248.983 312.109 243.652 312.109 238.32 312.292C235.195 312.292 231.518 312.109 228.576 313.028C200.998 311.741 173.604 308.064 146.394 302.548C150.255 303.284 154.116 304.019 158.161 304.387C158.896 304.387 160.367 304.755 160.918 304.203C161.286 303.835 161.654 303.651 162.205 303.651C164.963 303.284 167.721 303.835 170.479 304.019C142.349 301.629 114.772 295.378 88.297 285.45C75.0596 279.567 62.3739 272.397 51.5266 262.836C51.7104 262.469 52.6297 262.653 54.6521 263.388C46.7465 256.218 43.2533 251.254 40.8632 248.312C38.8408 245.187 37.5539 244.267 36.8185 242.98C32.7737 238.016 30.3836 231.949 29.0967 225.698C28.5451 223.676 28.3613 221.47 27.9936 218.896C27.9936 218.896 28.1773 219.999 28.3612 221.837C28.545 223.676 29.0966 225.882 29.6482 228.272C30.1997 230.478 30.9351 232.869 31.4867 234.523C32.2221 236.178 32.5899 237.281 32.5899 237.281C32.2222 236.546 31.8544 235.81 31.4867 235.075C27.6258 225.514 26.3389 214.851 27.6259 204.555C28.729 195.547 32.5898 187.089 37.9215 179.735C37.9215 179.919 37.9216 180.103 37.7377 180.287C37.37 181.574 36.8185 182.677 39.944 178.264C44.1725 170.543 51.3427 164.476 58.1452 159.328C58.5129 158.96 58.8807 159.328 59.2484 159.512L60.3515 160.063C72.118 166.13 85.1714 171.094 98.2249 173.668L92.1578 172.565C100.615 174.771 109.072 176.978 117.529 178.632C117.713 178.632 117.529 178.632 117.713 178.816C118.081 178.816 118.633 178.632 119 178.632C135.547 183.045 153.197 184.332 170.295 185.251C174.707 184.699 179.488 185.067 183.9 185.067C190.519 185.251 197.137 185.251 203.94 185.251C216.993 185.067 230.047 184.515 243.284 183.596C245.858 183.228 247.88 183.045 249.167 182.677C239.791 183.78 230.414 184.148 220.854 184.332L222.509 182.677C242.916 181.758 223.796 184.148 243.284 182.125C241.446 181.206 238.688 181.574 236.849 181.574C232.988 181.574 229.128 181.942 225.267 182.309C217.177 183.045 208.904 183.412 200.814 183.229C206.698 182.677 212.765 182.309 218.832 182.125C219.935 182.125 221.038 181.942 222.141 181.942C221.406 181.942 220.486 181.942 219.567 181.942C220.854 181.942 222.141 181.942 223.244 181.758C222.876 181.758 222.509 181.758 221.957 181.758C232.988 181.206 244.203 180.838 255.234 179.551C254.315 180.103 254.683 180.287 258.36 180.103C264.243 179.551 270.126 178.632 276.01 177.529C282.077 176.426 287.776 174.404 293.476 172.565C300.094 171.094 306.529 169.623 312.596 167.233C313.699 167.05 314.435 167.05 315.17 166.866C316.273 166.682 317.744 166.314 320.686 164.843C322.156 163.924 323.995 163.189 326.201 161.35C328.407 159.695 331.165 157.489 333.555 153.812C333.555 153.812 333.371 154.18 333.004 154.548C332.636 155.099 332.268 155.835 331.717 156.57C330.614 158.225 328.775 160.063 326.753 161.718C324.363 164.108 321.421 165.946 318.296 167.601C326.937 164.476 333.188 158.592 336.313 149.951C337.048 147.561 337.784 144.62 337.968 140.759C337.049 148.297 333.188 155.099 327.304 160.063C326.753 160.247 327.856 158.776 328.04 158.776C329.143 157.489 330.246 156.202 331.165 154.915C333.188 152.158 334.842 148.664 335.394 145.355C335.394 145.539 335.394 145.539 335.394 145.723C335.026 146.826 334.842 147.745 334.475 148.848C334.475 148.48 334.658 148.297 334.658 147.929C339.99 132.669 326.385 116.123 313.148 106.562C312.964 106.378 312.596 106.195 312.412 106.011C313.332 106.562 314.251 107.298 315.354 108.033C305.242 100.311 293.292 95.1635 281.158 91.6703C281.341 91.6703 281.525 91.6703 281.525 91.6703C280.79 91.4864 280.054 91.3026 279.319 91.3026C272.884 89.6479 266.449 88.5448 259.831 87.8094C261.485 87.6256 260.566 87.2579 252.844 86.7063C256.338 85.787 260.934 86.7063 264.243 87.2578C269.391 87.9932 274.355 88.9125 279.319 90.1995C283.364 90.9349 287.776 92.5896 291.637 94.2442C288.328 92.9573 284.835 91.8542 281.525 90.5672C280.606 90.1995 276.194 89.4641 275.826 88.361C275.826 88.1771 281.158 88.9125 281.525 89.0964C283.18 89.4641 285.202 90.1995 287.776 90.9349C282.812 87.6255 268.656 86.3386 257.992 84.6839C259.831 85.2355 256.338 85.2355 257.073 85.787C256.889 85.4193 254.499 84.8678 250.638 84.5001C247.329 84.3162 243.836 84.3162 240.526 84.3162C235.746 84.5 231.15 84.6839 226.37 85.2355C224.163 85.4193 222.141 85.787 219.935 85.9709C219.383 85.9709 216.809 86.1547 216.626 86.7063C223.244 85.9709 229.863 85.4193 236.665 85.0516C237.033 85.4193 233.172 85.9709 232.804 86.1547C229.679 86.5224 226.554 87.074 223.428 87.4417C170.846 90.1995 119.919 99.3921 74.1404 125.131C74.3242 124.396 77.2659 121.822 71.7503 124.396C68.0733 126.234 64.3962 128.441 60.903 130.831C58.3291 132.485 55.0197 134.324 54.4682 137.449C52.6297 138.736 50.7911 140.023 48.9526 141.494C39.5762 137.082 29.0967 132.669 21.5588 125.131C13.837 117.593 10.7114 106.562 14.0208 96.0828C17.3301 85.6032 25.2358 76.4106 33.6929 69.7919C38.8408 65.7472 44.3563 62.254 49.8719 58.7608C55.5713 55.0838 61.0868 51.2229 66.9701 47.9135C69.544 46.4427 72.3018 44.9719 75.0596 43.685C75.4273 43.685 74.6919 44.4203 72.6696 45.8912C86.0908 39.4563 79.4721 42.0303 77.8174 42.398C84.4361 39.2725 91.0548 36.5147 97.8573 33.9408C98.7766 33.9408 100.063 33.9408 92.8933 36.8824C96.0187 35.7793 99.1442 34.8601 102.27 33.5731C104.108 32.8377 105.947 32.1023 107.234 30.8153C120.103 26.5868 133.157 23.2774 146.578 21.0712C149.336 20.8873 151.542 20.7034 153.38 20.8873C165.331 19.2326 171.766 18.3134 175.627 17.578C182.613 17.0264 189.783 16.8426 196.953 16.6587C193.644 16.8426 191.438 17.3942 191.989 17.9457C201.366 16.6587 210.926 17.0264 220.486 17.3941C233.54 18.4972 246.593 20.1519 259.647 22.7258C266.082 24.0128 272.517 25.4836 278.951 27.3221C282.077 28.0575 285.018 28.9768 288.144 29.8961C289.431 30.2638 291.821 31.7346 293.292 30.8153C295.13 29.5284 293.476 25.4836 292.924 24.0128C291.637 21.0712 289.982 17.9457 287.592 15.7395C286.305 14.6364 285.018 14.2686 283.364 13.7171C280.238 12.7978 277.113 11.8786 273.987 10.9593C267.92 9.30464 261.853 7.83384 255.786 6.54687C206.881 -3.56498 155.771 -1.91031 107.601 11.1432C89.9516 15.9233 72.8534 22.7258 56.6744 31.5507C48.5849 35.9632 40.6793 40.9272 33.1414 46.2589C25.9712 51.4067 18.8009 56.7384 13.1015 63.541C9.42448 67.5857 5.74742 72.3658 4.46045 77.8814C2.62194 82.4777 1.51885 87.4417 1.15114 92.4057C0.78344 87.8094 0.599566 84.1323 1.70268 79.7199C-0.319693 86.8901 -0.135819 91.4865 0.231885 94.9796C0.415737 96.8182 0.783485 98.289 0.967337 99.5759C1.15119 100.311 1.33502 100.863 1.51887 101.414C2.07043 106.011 3.35739 110.607 5.19591 115.019C5.19591 115.571 4.64437 115.019 4.64437 115.571C5.19593 116.49 5.56366 117.41 5.93136 118.329C7.21832 120.351 8.50526 122.557 10.1599 124.396L10.3437 124.58C17.3301 135.059 27.442 142.965 38.657 149.584C38.8408 149.767 39.0246 149.951 39.3923 149.951L39.2085 150.135C30.5675 159.144 22.8456 168.704 18.2493 180.471C13.1015 193.524 12.9176 207.497 16.4108 220.918C16.9624 224.044 17.3301 226.066 17.3301 226.985C17.6978 227.353 18.0655 228.088 18.6171 229.008C18.8009 229.375 18.9848 229.743 19.1686 230.111C21.7425 237.281 25.2357 244.083 29.2805 250.518C33.3252 256.953 38.1054 262.652 42.7017 268.536C45.6434 271.845 48.9527 275.522 52.4459 278.28C55.3875 280.67 57.226 282.325 57.226 282.325C59.616 285.45 55.7552 282.509 50.0558 277.728C47.4819 275.154 44.3564 272.213 41.4147 269.271C38.657 266.146 35.8991 263.204 33.8768 260.814C40.4954 269.455 48.0334 277.361 57.0422 283.428C66.6024 290.046 76.8981 295.378 87.1938 300.158C88.4808 300.71 89.9516 301.261 91.2386 301.629C101.534 306.225 112.382 310.086 123.413 313.212C122.677 313.028 122.126 312.844 121.39 312.844C127.274 314.499 133.157 316.153 138.856 318.36C144.188 320.382 149.887 321.117 155.403 322.037C152.094 321.117 148.049 319.83 143.453 318.543C156.69 321.485 169.743 323.875 182.429 325.714C186.29 326.449 187.945 327.001 185.003 327.185C192.725 328.288 200.814 329.575 208.72 329.207C215.522 329.942 222.325 330.678 229.127 331.045C228.024 331.045 212.949 331.045 212.949 331.045C212.949 331.781 221.406 332.516 221.957 332.516C228.208 332.7 234.643 332.516 240.894 332.516C246.41 333.803 252.844 333.619 258.544 333.987C261.853 334.171 265.162 334.355 268.472 334.722C268.84 334.722 272.884 335.274 272.7 335.642C283.364 335.642 285.018 334.906 293.66 334.355C301.749 335.09 309.838 335.09 317.928 333.987C294.395 334.355 271.046 333.619 247.513 332.332C247.697 332.332 248.248 332.148 248.983 332.148C281.709 333.619 314.251 332.332 346.977 330.31C350.286 330.678 339.622 331.965 338.152 332.7C361.685 331.965 362.604 329.758 383.195 329.023C367.568 330.678 370.51 330.678 378.599 330.31C382.644 330.126 370.51 330.678 378.599 330.31ZM446.257 321.485C446.44 321.301 446.44 321.301 446.624 321.301C446.44 321.485 446.257 321.485 446.257 321.485ZM429.158 326.265C430.078 326.081 430.813 326.081 431.365 326.081L428.055 327.185C428.423 326.817 428.791 326.449 429.158 326.265C430.078 326.081 428.791 326.449 429.158 326.265ZM432.284 324.978L430.261 325.346C431.732 324.427 432.835 323.508 433.387 323.14C437.616 322.588 441.844 321.853 446.073 321.301V321.485C444.234 322.404 442.212 323.508 440.006 324.427C437.983 324.611 433.203 325.162 432.284 324.978ZM445.153 299.974C446.073 300.158 446.992 300.342 447.911 300.71C446.44 301.078 444.786 301.261 443.131 301.629C442.212 301.445 441.293 301.261 440.557 301.078C442.028 300.526 443.499 300.342 445.153 299.974C446.073 300.158 443.499 300.342 445.153 299.974ZM432.651 302.548C435.042 301.997 437.616 301.445 440.373 300.894C441.109 301.078 442.028 301.261 442.763 301.445C439.822 301.997 436.88 302.548 433.938 303.1C428.791 303.835 423.459 304.571 418.311 305.49C420.15 304.938 425.665 303.835 432.651 302.548C435.042 301.997 425.665 303.835 432.651 302.548ZM265.898 105.827C264.795 105.275 265.162 104.54 265.898 104.356C267.736 104.54 269.391 104.724 271.23 105.091C269.207 104.908 267.369 105.091 265.898 105.827C267.369 105.091 264.795 105.275 265.898 105.827ZM265.898 104.356C264.795 104.54 264.059 104.356 263.692 104.172C264.427 104.172 265.162 104.356 265.898 104.356ZM210.375 105.459C208.352 105.459 206.33 105.459 204.124 105.643C205.962 105.459 207.617 105.275 209.455 105.091C209.639 105.275 210.007 105.275 210.375 105.459ZM82.9652 142.413C83.1491 142.413 83.1491 142.413 83.1491 142.597C83.1491 142.413 83.3329 142.413 83.3329 142.23C84.8038 141.31 86.4584 140.391 87.9292 139.656C87.7454 140.207 87.3776 140.943 86.2745 141.494C89.2162 141.126 92.1579 139.656 94.7318 138.185C96.938 136.898 99.6957 135.243 100.983 133.037C100.983 133.037 100.983 133.037 101.167 133.037C105.027 132.485 99.5119 135.795 98.0411 137.449C101.167 136.162 104.108 135.059 106.682 133.772C114.955 130.647 123.045 126.97 131.686 124.396C131.318 122.374 132.605 122.741 133.892 120.719L135.179 121.087C134.811 120.903 135.179 119.983 134.628 119.616C140.511 117.777 146.578 115.939 152.645 114.468C152.094 115.387 151.174 116.49 150.071 117.226C156.322 113.916 159.631 115.387 166.618 112.813C166.066 114.1 159.631 116.306 157.977 117.042C160.367 116.49 164.596 114.836 164.963 115.755L165.147 114.284C169.376 113.181 164.779 115.755 166.434 116.306C174.523 114.468 169.927 112.262 172.133 110.239C173.604 110.055 174.891 109.688 176.362 109.504C176.73 109.504 177.281 109.504 177.833 109.32C178.752 109.136 179.855 108.952 180.774 108.769C180.223 109.504 180.774 110.055 181.142 110.423C184.084 106.93 185.555 110.423 191.806 108.769C191.989 109.688 189.048 110.239 188.864 111.342C190.702 110.607 192.725 110.055 194.563 109.504C195.666 109.136 197.689 108.585 198.24 107.298C202.837 106.746 207.617 106.93 212.213 106.195C211.478 106.378 210.007 106.562 209.823 107.482C209.823 108.585 209.455 108.952 208.352 109.504C212.765 107.114 217.545 105.643 222.325 103.988C224.715 103.805 227.289 103.804 229.679 103.621C229.679 103.988 229.495 104.54 229.311 105.091C236.665 106.195 231.334 103.253 238.32 103.804L235.195 103.621C235.378 103.621 235.378 103.621 235.562 103.437C238.872 103.437 242.181 103.253 245.49 103.253C245.306 103.805 244.939 104.172 245.858 104.172C248.984 101.414 253.948 105.275 257.441 104.908L256.338 105.091L260.566 106.378C260.566 106.378 260.566 106.378 260.566 106.562C260.566 106.378 260.75 106.378 260.75 106.195C262.405 107.298 265.53 108.585 269.023 108.769C269.759 108.217 272.7 108.401 275.458 108.952C278.216 109.504 281.158 110.055 282.077 109.504C280.606 109.504 279.319 109.32 277.48 108.585L278.032 107.114C281.341 107.849 278.032 108.585 281.341 108.401C281.158 106.195 276.745 107.482 274.355 106.746C275.274 106.378 276.561 106.195 278.032 106.378C277.113 106.195 276.01 105.827 275.09 105.643C277.848 106.195 280.79 106.746 283.548 107.482C283.364 107.849 283.18 108.033 283.731 108.401C287.225 110.239 288.328 109.504 289.982 109.136C290.902 109.504 292.005 109.688 292.924 110.055C293.292 110.607 293.108 111.159 293.66 111.71C294.395 112.446 295.498 112.813 296.233 113.181C295.314 113.181 294.395 112.997 293.476 112.997C293.108 112.997 292.924 112.997 292.924 112.997C295.13 115.939 295.866 113.181 298.072 114.468C297.52 113.733 297.704 113.181 295.13 112.262C295.13 111.526 297.153 111.894 298.256 112.078L297.704 111.71H297.888C300.462 112.813 303.036 113.916 305.61 115.203C305.61 115.203 305.61 115.203 305.61 115.387L304.691 115.203C306.345 115.755 308 116.49 309.287 117.226C309.839 117.593 310.206 117.777 310.758 118.145L310.574 118.329C310.758 118.329 310.942 118.329 311.125 118.513C312.045 119.064 312.964 119.616 313.883 120.167C313.516 120.351 313.515 120.535 314.619 121.27C313.148 122.19 309.655 119.248 308.735 118.329C310.39 119.616 311.309 122.006 308.368 120.351C308.552 121.822 311.309 121.454 312.596 122.925C312.596 122.557 313.148 122.374 313.332 122.006C312.596 123.109 317.744 126.051 318.663 125.499C318.663 125.499 317.928 124.947 317.376 124.58C316.825 124.396 316.457 124.028 315.906 123.844C316.457 122.925 318.112 123.844 318.847 124.028C325.65 131.566 318.479 141.126 311.861 145.907C311.493 145.355 311.493 144.436 310.574 144.436C307.264 145.907 308.368 147.01 308.735 147.929C301.381 152.158 292.556 153.812 284.283 155.651C284.283 155.467 284.283 155.099 284.651 154.731C282.077 154.915 283.364 155.283 283.731 155.835C282.445 156.018 281.341 156.386 280.054 156.57C279.871 156.202 279.687 156.018 280.79 155.467C278.584 155.467 278.584 156.202 278.4 156.938C276.194 157.489 273.987 158.041 271.781 158.409C271.23 158.225 270.678 158.041 270.31 157.857C268.288 158.408 267.369 158.96 266.817 159.512C265.714 159.695 264.427 159.879 263.324 160.247C263.876 159.879 264.243 159.512 263.876 158.776C261.485 160.615 260.015 160.615 257.625 160.982C247.88 162.453 237.952 163.373 228.208 164.108C223.428 164.476 218.832 164.659 214.052 164.843C209.271 165.027 204.491 164.659 199.711 165.211C198.056 165.211 196.402 165.211 194.747 165.211H194.931C192.909 164.476 192.357 164.843 191.989 165.211C191.07 165.211 190.335 165.211 189.415 165.211C190.335 164.659 190.886 163.74 191.622 163.372C189.416 163.924 188.68 164.659 187.761 165.211C187.025 165.211 186.29 165.211 185.555 165.211C185.371 165.027 185.555 164.659 185.371 164.292C184.635 164.476 183.9 164.843 183.532 165.027C181.51 165.027 179.304 164.843 177.281 164.843C177.281 164.843 176.914 164.659 175.81 164.843C171.95 164.659 167.905 164.476 164.044 164.292C163.309 163.924 162.941 163.556 162.941 163.372C162.757 163.74 162.573 163.924 162.205 164.292C160.183 164.108 158.161 164.108 156.138 163.924C154.484 163.556 152.829 163.189 151.358 162.821C150.255 160.982 154.668 162.453 156.69 161.902C150.99 161.166 152.829 161.902 148.417 162.637C147.313 162.453 145.659 162.821 144.188 163.005C142.349 162.821 140.511 162.637 138.672 162.637C138.856 162.637 139.04 162.453 139.224 162.453C135.363 162.453 137.385 160.431 133.341 161.166C133.892 161.534 134.628 162.086 135.363 162.453C133.157 162.269 131.134 162.086 128.928 161.902C128.009 161.718 127.641 161.35 128.193 160.799C126.17 160.615 124.516 160.982 123.964 161.534C122.861 161.35 121.758 161.35 120.655 161.166C122.126 160.247 125.435 160.431 122.126 159.144L118.816 160.063C118.265 159.328 113.301 158.592 113.852 157.305C112.014 157.305 111.646 157.857 110.175 157.857C108.888 156.938 108.153 156.202 106.131 156.938C113.485 159.144 111.095 159.144 117.529 160.431C117.529 160.615 117.346 160.615 117.162 160.615C116.794 160.615 116.426 160.431 116.059 160.431H115.875C110.911 159.695 105.947 158.96 100.983 158.041C100.615 157.489 102.453 156.938 102.821 156.57C99.1442 155.283 98.4088 157.305 95.2833 155.835C100.799 155.835 93.6287 154.548 91.974 153.445C92.7094 154.915 94.3641 156.202 97.8573 157.489C90.1355 156.018 82.5975 153.996 75.0596 151.79C75.6112 151.054 76.1628 150.319 75.7951 150.503L74.5081 151.606C73.0373 151.238 71.7503 150.687 70.2795 150.319C74.8758 147.194 78.9205 144.803 82.9652 142.413C83.1491 142.413 80.3913 143.884 82.9652 142.413ZM98.9604 157.122L99.5119 156.386C101.35 156.754 100.615 157.122 101.534 157.673C100.615 157.489 99.8796 157.305 98.9604 157.122ZM159.264 306.593C171.398 308.799 183.532 310.822 195.666 312.109C185.371 311.006 175.075 309.719 164.779 308.064C163.308 307.512 161.654 306.961 159.264 306.593ZM132.605 178.081C136.466 178.448 140.327 178.816 144.004 179.184C138.305 179 135.179 178.448 132.605 178.081ZM146.026 180.838C139.408 179.919 140.879 179.368 144.74 179.368C152.645 180.103 160.367 180.655 168.273 181.022C160.918 180.838 153.564 180.655 146.026 180.838C152.645 180.655 139.408 179.735 146.026 180.838ZM216.074 181.942C216.258 181.942 216.442 181.942 216.809 181.942C216.626 181.942 216.442 181.942 216.074 181.942ZM348.263 330.31C353.227 329.942 358.375 329.758 363.339 329.391L361.133 330.31C349.734 331.045 353.963 330.31 348.263 330.31C353.963 330.31 353.411 329.942 348.263 330.31Z" fill="#FAFAFA"/>
</svg>
