<svg width="824" height="524" viewBox="0 0 824 524" fill="none" xmlns="http://www.w3.org/2000/svg">
<path d="M803.001 171.91C791.58 177.985 778.702 180.172 766.309 183.574C752.215 187.219 738.121 191.35 724.027 194.995C723.784 194.995 723.784 195.238 724.027 195.238C723.541 195.238 723.055 195.481 722.569 195.481C707.503 199.369 692.195 202.771 676.886 205.687C680.774 205.444 686.605 204.472 695.596 202.528C671.783 209.089 647.726 213.706 623.426 217.594C600.099 221.482 576.528 225.37 552.714 227.557C550.041 228.043 547.611 228.529 544.695 229.015C523.797 233.632 573.855 226.099 589.893 224.398C529.143 235.09 468.151 245.539 407.402 255.745C403.514 256.473 399.869 256.96 395.981 257.445H395.252L395.981 257.689L397.439 258.174C423.926 266.193 450.169 275.184 476.17 284.418C477.142 287.334 487.105 289.764 501.928 297.054L511.648 299.97C508.246 298.998 513.835 301.914 511.405 301.671C536.919 311.391 562.434 321.111 587.463 332.046C599.855 337.392 612.248 343.224 624.398 349.541C636.305 355.616 647.483 362.663 658.904 369.467C651.614 363.878 644.081 358.532 636.305 353.672C647.483 360.719 658.661 367.523 670.082 374.57C675.914 378.215 681.503 382.103 686.606 386.72C691.223 390.851 695.84 395.954 697.297 402.029C700.214 415.637 684.905 422.927 674.213 425.843C661.577 429.245 648.455 429.974 635.576 430.46C641.165 430.946 646.997 430.46 652.586 430.217C660.119 429.731 667.409 428.759 674.699 427.058C686.606 424.142 704.587 415.151 698.998 399.842C698.026 396.926 696.568 394.253 694.868 391.823C699.727 398.384 701.914 406.16 697.783 413.693C690.979 425.114 674.699 428.516 662.549 430.46C664.007 430.946 664.736 431.675 665.951 432.404C672.026 438.235 678.101 443.824 684.176 449.413C695.839 458.89 707.989 467.638 720.382 476.143C723.298 478.573 726.7 480.274 730.102 482.218C733.261 483.919 736.906 485.62 739.336 488.536C742.009 492.181 738.607 494.854 735.934 497.284L738.364 497.527L739.822 496.069C741.28 494.854 742.738 492.667 742.495 490.723L742.252 489.994L742.009 489.265C741.037 486.349 737.878 484.162 735.448 482.461C734.962 481.975 734.233 481.732 733.747 481.489C729.616 479.059 728.158 478.087 731.56 479.302C733.261 480.517 734.962 481.732 736.663 482.947C739.336 484.891 742.252 487.078 743.224 490.48C743.467 491.695 742.981 493.153 742.495 494.368C742.009 495.583 741.037 496.555 739.822 497.527L744.925 498.256L738.121 499.228C737.878 499.471 737.635 499.714 737.392 499.957C735.691 501.658 733.018 503.359 730.588 504.088C730.345 504.088 728.644 505.06 728.401 504.817C728.401 504.817 731.56 502.63 731.803 502.387C733.018 501.415 734.476 500.443 735.691 499.228L731.317 499.714C720.868 506.275 707.989 508.219 695.84 510.163C696.083 510.649 697.54 510.892 700.213 511.135C692.437 512.593 686.12 513.565 681.26 514.294C672.512 515.266 664.007 515.509 655.016 515.509C645.296 515.509 635.333 516.481 625.613 516.967C633.389 516.238 641.408 515.752 649.427 515.266C623.426 516.481 597.668 518.425 571.668 515.995C571.668 515.995 571.668 515.995 571.425 515.995C569.967 515.752 566.808 516.238 565.836 515.266C564.621 514.294 566.808 511.864 567.537 511.135C567.537 510.892 567.537 510.892 567.537 510.649C567.537 510.649 567.537 510.649 567.294 510.649C567.294 510.892 567.294 510.892 567.294 511.135C567.051 511.378 565.35 512.35 565.35 512.35C565.35 512.107 565.836 511.135 567.294 509.677C567.294 508.705 567.294 508.219 567.294 509.434H567.537C568.023 508.948 568.509 508.462 568.995 507.733C569.481 507.247 570.21 506.761 570.939 506.275C571.668 505.789 572.154 505.546 572.883 505.06C574.341 504.331 575.799 503.359 577.5 502.63C579.201 501.901 581.145 501.415 583.089 501.172C583.818 501.172 584.79 501.172 585.519 501.172C588.921 501.415 592.566 501.658 595.968 501.901C620.267 502.387 644.567 499.471 668.867 498.256L659.876 498.499C659.876 498.499 666.68 497.77 674.456 497.041C657.689 494.611 640.922 490.966 624.398 487.078C617.837 484.648 610.79 483.433 603.987 481.732C592.08 478.816 580.416 475.9 568.509 472.984C557.088 470.311 545.91 466.909 534.732 463.507C527.685 461.32 520.152 459.133 513.591 455.731C526.713 460.591 539.592 464.722 553.2 468.124L551.256 465.694C536.919 461.563 536.433 461.806 535.947 462.049C535.461 462.292 535.218 462.292 521.853 457.432C525.741 457.189 530.602 459.133 534.246 460.348C539.592 462.049 544.938 463.75 550.284 465.208C560.733 468.367 571.182 471.526 581.874 473.956C571.911 470.797 561.948 467.881 551.985 464.965C558.546 466.666 564.864 468.367 571.425 470.068C563.406 468.124 555.387 465.937 547.368 463.75C548.826 464.236 550.284 464.722 551.742 464.965C536.19 460.591 520.638 455.731 505.573 449.656C506.545 450.385 505.33 450.142 504.844 450.142C502.171 449.413 499.741 448.441 497.311 447.469C489.778 444.31 478.843 441.637 475.927 432.89C473.011 423.899 481.759 417.581 489.292 415.88C498.769 412.964 509.218 412.964 518.938 412.478C530.601 410.048 542.508 409.805 554.415 409.562L525.742 409.319C553.443 406.16 552.228 409.562 573.369 408.347C566.565 409.076 566.565 409.805 542.508 410.291C540.078 411.263 558.546 411.02 567.294 411.02L561.705 411.263C562.677 411.263 563.649 411.506 564.621 411.506C576.528 411.263 588.435 410.777 600.099 410.048C612.005 409.319 623.912 408.347 635.333 405.431C635.819 405.188 636.305 405.188 636.548 404.945C633.875 405.431 631.445 406.16 628.772 406.403C631.445 405.917 634.118 405.431 636.791 404.702C642.866 403.487 658.661 399.356 653.801 390.365C650.156 383.561 641.165 379.187 634.847 375.542L635.333 376.028C634.118 375.299 632.903 374.57 631.931 373.841C623.669 368.981 615.164 365.336 606.174 361.691C608.604 363.149 607.631 363.149 596.697 358.532C599.856 360.962 604.229 362.177 607.874 363.878C613.22 366.065 618.809 368.252 623.669 371.168C631.688 375.299 640.193 379.673 647.483 385.262C641.408 380.645 634.847 377.486 628.043 374.327C627.557 374.084 627.314 374.084 626.828 373.841C625.613 373.598 625.856 373.841 628.286 375.299C630.473 377 634.847 379.187 640.922 383.075C636.062 380.888 631.445 377.972 626.828 375.299C619.052 370.925 610.791 367.037 602.286 364.121C604.716 364.85 601.314 362.906 601.557 362.663C600.342 362.906 598.641 361.934 597.426 361.448C594.753 360.476 591.837 359.504 589.164 358.532C583.089 356.345 577.257 353.915 571.425 351.485C565.836 349.299 560.247 346.868 554.658 344.439C552.957 343.71 551.256 342.981 549.312 342.009C548.826 341.766 547.125 341.28 546.882 340.551L574.098 351.485C575.799 350.999 563.406 345.897 556.359 342.495C510.919 325.971 465.478 310.176 419.795 294.624C402.056 288.549 384.074 282.717 366.335 276.885C358.073 274.212 349.811 270.81 341.307 269.109C341.55 269.352 343.979 270.81 343.25 271.053C341.793 271.296 339.849 270.81 338.391 270.567C330.372 268.623 323.082 264.249 318.951 257.202C316.764 252.829 316.764 250.399 317.25 249.427C317.493 248.455 317.979 248.212 318.465 247.726C318.465 241.165 325.512 238.492 330.858 236.548C337.175 234.361 343.736 233.146 350.297 232.417C356.615 231.445 363.176 230.716 369.494 229.744C386.747 226.828 404 223.912 421.496 220.996C458.917 214.435 496.339 207.874 533.517 201.07C533.517 200.827 532.059 200.827 528.657 201.07C550.041 196.939 540.321 199.369 537.891 200.341C548.34 198.397 558.789 196.453 569.238 194.509C570.453 193.78 571.425 193.294 560.733 194.995C578.472 191.107 581.145 191.35 583.332 191.836C603.258 188.191 622.94 184.303 641.894 180.415C645.782 179.443 648.941 178.471 651.128 177.499C668.624 174.097 678.101 172.396 683.69 171.91C694.382 169.723 704.588 167.537 714.064 165.35C709.204 166.079 706.045 166.322 706.774 165.593C730.345 161.948 753.43 156.116 776.515 149.798C769.711 148.34 762.664 148.097 755.86 147.368C741.28 145.667 726.457 143.966 711.877 142.508C681.017 139.106 650.399 136.19 619.538 133.031C554.658 126.47 490.021 118.694 425.626 108.488C361.718 98.5253 297.81 86.6184 234.388 73.2536C232.687 72.7676 230.743 72.5246 229.042 72.0386C220.78 70.3376 212.761 68.6366 204.499 66.6926C210.817 68.6366 215.434 70.5805 221.752 72.2815C211.546 69.8516 205.228 68.1506 200.368 66.6926C197.209 65.7206 194.779 64.7486 192.106 63.7766C186.517 62.3187 179.47 60.3747 171.208 58.1877C170.236 58.1877 171.208 58.6738 170.236 58.6738C163.918 56.7298 159.301 55.0287 155.171 53.5707C138.89 48.9538 120.422 43.3648 101.954 37.7759C89.5614 34.6169 77.4115 30.243 65.0186 26.5981C52.8688 22.9531 40.7189 19.0652 28.569 15.4203C21.2791 13.2333 13.9892 10.8032 6.69927 8.61621C4.5123 7.88724 2.56829 7.40125 1.3533 5.45728C0.624311 4.48529 -0.590735 2.29834 0.381254 1.08337C1.59624 -0.374634 5.24129 0.840393 6.69927 1.08337C10.8302 1.5694 13.7461 1.81232 14.9611 1.81232C15.6901 2.29828 17.3911 3.02728 19.5781 3.75629C32.6999 6.67224 51.8968 11.5322 73.5235 17.1211L112.889 26.5981C123.824 27.3271 85.9164 19.0652 68.6636 13.7193C117.02 25.6261 101.468 22.4671 137.675 32.916C146.666 35.1029 158.816 38.748 170.722 42.15C191.134 47.2529 208.387 51.3837 218.836 53.5707C217.378 53.0847 215.92 52.8417 214.462 52.3557C223.453 54.2997 232.444 55.5148 241.678 56.2438C249.697 56.9728 257.472 58.6738 265.248 60.3748C261.846 60.1317 258.201 59.6457 254.799 59.4027C250.911 58.9167 246.781 57.9448 242.893 57.9448C257.958 60.6178 272.781 63.2906 287.847 65.7206L276.912 63.5337C295.137 66.6927 317.493 70.5806 308.502 67.6647C319.923 69.6086 331.83 71.3095 343.007 74.7115C353.699 76.4125 364.148 78.1135 374.84 79.5714C364.634 76.6555 330.858 71.5526 362.447 75.1975L389.42 80.7864C394.28 80.7864 437.533 87.1044 435.832 85.1604C451.141 87.5904 453.571 88.8054 465.964 90.7493C477.628 91.4783 486.619 91.7214 501.442 94.8803C467.179 91.4784 433.159 87.5904 399.14 82.7305C400.355 83.2165 407.402 84.1884 414.449 85.1604L399.869 83.4594C447.496 90.5063 494.881 96.8243 542.751 101.684C550.527 101.927 533.274 99.2543 530.844 98.2823C552.957 99.9833 574.584 104.357 596.697 105.572C550.527 100.226 613.463 106.058 628.772 106.301C620.51 107.03 612.006 106.544 603.501 106.301C592.809 105.815 582.36 105.329 571.911 104.357C604.473 107.516 637.034 109.946 669.839 112.619C701.914 115.049 733.99 116.993 765.823 121.853C775.299 123.311 784.776 124.769 794.01 127.199C800.814 128.9 807.618 132.059 812.478 137.162C817.338 142.265 820.254 149.798 818.067 156.602C815.637 163.892 809.076 168.751 803.001 171.91C813.45 166.564 790.608 178.471 803.001 171.91ZM641.165 445.039C640.922 446.011 641.165 446.497 641.894 447.226C642.623 447.712 643.109 448.441 643.838 448.927L649.427 453.544C654.773 458.161 660.605 462.292 666.437 466.423L677.858 474.685C678.587 475.171 679.559 475.9 680.288 476.386C668.138 467.638 655.745 459.133 644.324 449.17C643.595 448.684 642.866 447.955 641.894 447.469C641.651 447.226 641.165 446.983 640.922 446.497C640.922 446.011 640.922 445.525 641.165 445.039C640.922 445.525 640.922 445.525 641.165 445.039ZM689.521 482.704C689.278 482.704 689.278 482.704 689.521 482.704V482.704ZM686.606 480.76C686.363 480.517 685.877 480.274 685.634 480.031C685.877 480.274 686.12 480.517 686.606 480.76ZM642.623 433.376C631.931 434.105 620.996 435.077 610.304 435.562C607.388 435.805 604.473 435.806 601.557 435.806C599.127 435.806 594.51 436.292 592.566 434.105C591.837 433.133 591.594 432.404 583.575 432.161C570.696 432.647 558.06 432.647 545.181 432.647C533.274 432.89 521.61 431.675 509.704 432.404C515.779 435.32 522.096 437.992 528.414 440.422C550.77 446.983 573.369 451.6 595.725 457.432C597.182 456.703 570.696 450.142 568.023 447.955C597.668 456.217 644.081 468.367 650.156 471.769C657.689 473.713 664.979 475.414 672.026 477.115C670.082 475.657 668.381 474.199 666.68 472.498C666.194 472.012 664.736 471.04 664.736 470.311C664.736 469.825 665.951 470.554 666.194 470.797C668.138 471.769 670.082 473.227 671.783 474.442C668.624 472.255 665.465 469.825 662.549 467.638C661.82 467.152 657.446 464.479 657.446 463.75C657.446 463.993 659.39 464.965 659.633 465.208C662.063 466.909 664.493 468.853 667.166 470.554C670.811 473.227 674.699 476.143 678.344 479.059C679.802 479.302 681.26 479.788 682.718 480.031C668.867 470.311 655.259 460.591 642.38 449.899C641.165 448.684 639.221 447.469 639.707 445.525C640.193 443.338 641.894 441.637 643.352 440.18C646.511 437.264 650.156 434.591 654.044 433.133C650.399 434.591 646.997 436.777 644.081 439.207C641.894 441.151 638.735 443.824 638.735 446.983C638.735 447.712 638.735 447.712 638.492 448.198C638.492 448.441 638.735 449.17 639.95 451.357C642.623 454.516 645.782 457.432 648.941 460.105C645.782 457.432 642.623 454.516 639.464 451.6C638.735 450.385 637.763 449.17 637.034 447.955C635.819 443.824 640.679 439.45 643.595 437.264L644.81 436.292L645.782 435.562C647.969 434.105 650.399 432.647 653.072 431.675L649.913 430.946C611.276 432.89 655.259 431.432 642.623 433.376C655.259 431.432 620.267 434.834 642.623 433.376ZM673.241 493.396C675.185 493.639 676.886 493.882 678.344 494.125C678.344 494.125 678.344 494.125 678.587 494.125C673.727 493.153 669.11 492.424 664.493 491.452C667.895 492.424 670.811 492.91 673.241 493.396C675.185 493.882 670.811 492.91 673.241 493.396ZM637.034 485.863C645.296 488.05 652.829 489.994 659.876 491.938C669.11 493.396 667.895 492.424 662.792 490.966C649.427 488.293 636.305 485.377 623.183 482.218C627.8 483.676 632.417 484.648 637.034 485.863C645.296 488.05 632.66 484.891 637.034 485.863ZM564.135 103.142C546.153 101.441 554.901 102.899 543.237 102.17C551.256 102.899 559.518 103.871 567.537 104.6L564.135 103.142Z" fill="#FAFAFA"/>
<path d="M608.053 408.838C610.483 408.595 613.399 408.595 616.558 408.352C620.689 407.866 624.82 407.623 628.951 406.894C620.446 408.352 611.941 408.838 604.165 409.081C604.165 409.081 605.866 408.838 608.053 408.838C610.483 408.595 605.866 408.838 608.053 408.838Z" fill="#FAFAFA"/>
<path d="M602.466 364.362C601.494 364.119 599.793 363.633 596.634 362.418C598.578 362.904 600.522 363.633 602.466 364.362Z" fill="#FAFAFA"/>
<path d="M573.79 408.835C576.706 408.349 580.594 408.349 588.37 407.62C582.295 408.592 577.678 408.592 573.79 408.835Z" fill="#FAFAFA"/>
<path d="M625.306 517.207C622.876 517.45 621.174 517.45 621.174 517.45C622.632 517.45 624.091 517.45 625.306 517.207Z" fill="#FAFAFA"/>
<path d="M723.717 195.001C724.932 194.758 725.904 194.758 726.633 194.758C724.932 195.001 723.96 195.244 723.717 195.001Z" fill="#FAFAFA"/>
<path d="M823.105 155.393C823.105 155.879 823.105 156.122 823.105 156.122C822.133 160.982 819.217 165.113 815.572 168.515C813.628 170.459 811.441 171.917 809.011 173.375C808.525 173.618 803.908 175.562 803.908 175.805C804.151 175.562 804.394 175.319 804.637 175.319C814.6 169.973 824.806 160.982 822.133 148.347C821.89 146.889 821.647 145.188 820.918 143.73C820.432 142.758 820.189 142.029 820.189 142.029C820.189 142.029 820.675 142.758 821.161 143.973C822.376 147.131 823.348 150.29 823.105 153.692C823.348 154.421 823.348 154.907 823.105 155.393C823.348 154.907 823.105 155.879 823.105 155.393Z" fill="#FAFAFA"/>
<path d="M730.278 115.533C722.745 114.075 715.212 112.617 707.679 111.159C726.876 112.617 745.587 116.505 764.783 119.178C753.119 117.72 741.699 116.505 730.278 115.533Z" fill="#FAFAFA"/>
<path d="M668.315 110.919L676.091 112.134C668.801 111.405 667.343 111.162 668.315 110.919Z" fill="#FAFAFA"/>
<path d="M668.316 110.916L651.549 108.486C655.68 108.972 663.942 109.944 666.858 109.944L653.494 107.271L697.962 111.888L680.952 110.916C680.952 111.402 669.774 110.916 668.316 110.916Z" fill="#FAFAFA"/>
<path d="M628.71 106.787C629.682 106.787 631.14 106.544 631.869 106.544C632.112 106.787 630.897 106.787 628.71 106.787Z" fill="#FAFAFA"/>
<path d="M169.93 40.6925L176.247 43.1224L149.275 35.5896L169.93 40.6925Z" fill="#FAFAFA"/>
<path d="M221.688 72.7676C225.333 73.7396 228.249 74.4686 233.109 75.4406C228.492 74.7116 224.847 73.7396 221.688 72.7676Z" fill="#FAFAFA"/>
<path d="M245.259 78.3575L255.708 81.5165L247.446 79.5725C240.642 78.3575 238.212 77.1425 245.259 78.3575Z" fill="#FAFAFA"/>
<path d="M296.532 87.1135C299.934 88.0855 303.579 89.3005 306.981 90.2725C306.981 90.0295 293.13 87.5995 292.158 87.3565C287.784 86.3845 283.41 85.6555 279.036 84.6835L296.532 87.1135Z" fill="#FAFAFA"/>
<path d="M500.405 325.982C475.619 318.206 453.992 309.215 429.693 301.196C451.805 308 480.965 318.449 500.405 325.982Z" fill="#FAFAFA"/>
<path d="M650.58 394.494C650.337 395.466 649.609 396.195 648.88 396.438C648.394 396.681 648.151 396.924 647.665 397.167C644.992 398.868 641.347 399.597 638.188 400.083C637.459 400.083 635.272 400.569 634.786 399.84C634.3 399.111 635.758 398.139 636.244 397.653C641.833 396.438 649.609 393.765 637.702 398.139C640.132 397.653 642.319 396.924 644.749 396.438C645.235 396.195 645.964 396.195 646.45 395.952L647.179 395.709C647.422 395.709 647.665 395.466 647.665 395.466C648.637 395.223 649.852 394.251 649.852 393.279C649.852 392.307 649.609 391.578 649.609 391.578C650.338 392.307 650.823 393.522 650.58 394.494C650.823 393.522 650.337 395.466 650.58 394.494Z" fill="#FAFAFA"/>
<path d="M481.938 445.04C488.013 448.928 495.303 451.601 501.864 454.76C505.023 456.218 508.182 457.676 511.341 459.134C512.313 459.62 513.528 460.106 514.5 460.592C514.986 460.835 517.173 462.292 515.229 462.292C503.808 457.919 492.873 452.816 481.938 447.47C487.527 450.143 493.359 452.816 499.191 455.003C493.116 451.844 486.555 448.442 480.723 444.797C477.321 442.367 474.891 439.208 473.433 435.563C475.134 439.451 478.05 442.61 481.938 445.04C482.91 445.526 478.293 442.853 481.938 445.04Z" fill="#FAFAFA"/>
<path d="M488.987 411.747C491.174 411.018 493.604 410.532 497.249 410.532C493.118 411.018 488.258 411.99 483.398 414.42C484.37 413.691 485.342 413.205 486.314 412.962C487.043 412.476 488.015 411.99 488.987 411.747C491.174 411.018 488.015 411.99 488.987 411.747Z" fill="#FAFAFA"/>
<path d="M472.945 433.869C473.188 434.355 473.188 434.841 473.431 435.327L472.945 433.869C472.702 433.14 472.702 432.654 472.459 432.168C472.216 430.953 472.459 429.738 472.459 428.523C473.431 422.205 477.562 417.345 483.151 414.429C482.422 414.915 481.693 415.401 480.721 416.13C480.235 416.373 479.749 416.859 479.263 417.102C478.777 417.588 478.291 418.074 477.805 418.56C475.861 420.504 473.188 423.663 472.459 428.766C472.216 430.224 472.216 431.439 472.459 432.411C472.702 432.654 472.702 433.383 472.945 433.869C473.188 434.355 472.702 433.383 472.945 433.869Z" fill="#FAFAFA"/>
<path d="M591.774 482.457C597.363 483.672 601.008 484.644 601.008 484.644L578.166 479.784C573.549 477.111 549.978 473.709 541.23 469.335C557.997 474.195 574.764 478.326 591.774 482.457C597.363 483.672 586.185 480.999 591.774 482.457Z" fill="#FAFAFA"/>
<path d="M700.877 514.051C701.363 513.808 702.335 513.565 704.279 513.322C703.307 513.565 702.092 513.808 700.877 514.051Z" fill="#FAFAFA"/>
<path d="M708.413 513.81C708.656 513.81 710.6 513.324 711.086 513.567C710.843 513.324 703.553 515.511 702.824 515.511C698.693 516.24 694.805 516.969 690.675 517.698C688.245 517.941 685.329 518.184 681.684 518.67C649.851 520.857 617.775 524.016 585.7 522.801C585.7 522.801 587.401 522.558 588.859 522.315C590.56 522.072 592.018 521.586 592.018 521.586C610.242 521.829 628.71 521.586 646.935 520.614C664.917 519.885 683.142 518.67 700.881 514.296C699.18 514.782 705.011 514.296 708.413 513.81C710.6 513.567 705.011 514.296 708.413 513.81Z" fill="#FAFAFA"/>
<path d="M550.947 433.863C557.994 434.349 565.041 434.835 572.088 435.321L562.368 435.807L550.947 433.863Z" fill="#FAFAFA"/>
<path d="M641.342 353.912C635.024 350.024 628.706 346.136 622.388 342.491C634.052 348.566 645.23 355.127 656.408 361.931C652.52 359.987 648.632 358.286 644.987 356.342C644.744 356.099 643.286 355.37 641.342 353.912C643.286 355.37 639.155 352.697 641.342 353.912Z" fill="#FAFAFA"/>
<path d="M578.165 323.786L589.342 328.16C596.389 331.076 602.707 334.721 609.511 338.123C599.305 333.02 588.857 328.403 578.165 323.786Z" fill="#FAFAFA"/>
<path d="M552.161 313.581L514.496 298.515C518.627 300.216 521.057 300.945 523.487 301.674L552.161 313.581Z" fill="#FAFAFA"/>
</svg>
