<svg width="100" height="127" viewBox="0 0 100 127" fill="none" xmlns="http://www.w3.org/2000/svg">
<path d="M57.2976 42.5742C57.2399 42.7473 57.1822 42.9782 57.1822 43.209L57.2976 42.5742Z" fill="#FFCE5B"/>
<path d="M59.1443 41.1309C59.202 41.1309 59.2597 41.1309 59.3174 41.0732C59.2597 41.0732 59.202 41.1309 59.1443 41.1309Z" fill="#FFCE5B"/>
<path d="M59.7211 66.2329L59.7788 66.0598C59.7788 66.1752 59.7211 66.2329 59.7211 66.2329Z" fill="#FFCE5B"/>
<path d="M56.4894 43.7859C56.5471 43.6705 56.5471 43.6705 56.4894 43.7859V43.7859Z" fill="#FFCE5B"/>
<path d="M57.0668 43.959C57.1823 43.959 57.24 43.9013 57.4131 43.7281C57.24 43.8436 57.1246 43.9013 57.0668 43.959Z" fill="#FFCE5B"/>
<path d="M53.7775 51.2296C53.8352 51.2873 53.8929 51.2873 53.8929 51.345C53.8929 51.2873 53.8352 51.2296 53.7775 51.2296Z" fill="#FFCE5B"/>
<path d="M54.1815 51.8066C54.0084 51.8644 54.0661 51.5758 53.893 51.345C53.9507 51.6335 53.7199 52.326 54.1815 51.8066Z" fill="#FFCE5B"/>
<path d="M75.4749 56.9428L75.8212 56.1926L75.5326 56.308C75.5326 56.4811 75.3018 57.0005 75.4749 56.9428Z" fill="#FFCE5B"/>
<path d="M77.3792 54.6344L77.206 53.8842C76.7444 54.5767 77.2637 54.4612 76.8021 55.2114L77.3792 54.6344Z" fill="#FFCE5B"/>
<path d="M78.2447 53.4799V53.7107C78.3024 53.5376 78.3024 53.4799 78.2447 53.4799Z" fill="#FFCE5B"/>
<path d="M78.2448 53.4803L78.187 53.0186C78.187 53.134 78.1293 53.3071 78.0716 53.3648L77.8985 52.9032L77.6677 53.9419L77.9562 53.6534C78.0139 53.6534 78.187 53.4803 78.2448 53.4803Z" fill="#FFCE5B"/>
<path d="M82.4575 41.8813L82.2844 42.4006L82.4575 42.5737V41.8813Z" fill="#FFCE5B"/>
<path d="M82.8613 32.8218C82.8036 32.7641 82.8036 32.6487 82.7459 32.5332C82.7459 32.6487 82.7459 32.7641 82.8613 32.8218Z" fill="#FFCE5B"/>
<path d="M82.746 38.8811L82.6306 38.5348L82.5151 38.7657L82.746 38.8811Z" fill="#FFCE5B"/>
<path d="M82.6305 32.2441C82.5728 32.1864 82.4574 32.071 82.3997 32.0133L82.4574 32.1864C82.4574 32.3595 82.6305 32.4172 82.6305 32.2441Z" fill="#FFCE5B"/>
<path d="M82.9192 31.0326L82.6884 30.9172V31.4365C82.6884 31.4365 82.7461 31.3211 82.8038 31.2634C82.8615 31.148 82.9192 31.0326 82.9192 31.0326Z" fill="#FFCE5B"/>
<path d="M60.5292 38.9958C61.0485 38.6496 61.1639 38.0148 61.5679 37.5532C61.1062 37.8994 60.7023 38.4765 60.5292 38.9958Z" fill="#FFCE5B"/>
<path d="M58.7401 43.1506L58.567 42.3428C57.9322 42.9775 58.6824 43.2083 58.9132 43.3237C58.8555 43.1506 58.9132 42.9198 58.7401 43.1506Z" fill="#FFCE5B"/>
<path d="M56.2589 46.3825C56.0858 46.9595 56.0281 47.5943 56.4897 47.7097L56.6628 46.9018L56.432 47.2481C56.3166 46.9595 56.2589 46.7864 56.2589 46.3825C56.0858 47.0173 56.2589 46.7864 56.2589 46.3825Z" fill="#FFCE5B"/>
<path d="M56.4897 45.6902C56.432 45.7479 56.432 45.8633 56.3743 45.9788C56.4897 45.9211 56.6051 45.9211 56.4897 45.6902Z" fill="#FFCE5B"/>
<path d="M56.2587 46.2671C56.2587 46.3249 56.2587 46.3249 56.2587 46.3826C56.3164 46.2095 56.3164 46.094 56.3741 45.9786C56.3164 45.9786 56.201 46.0363 56.2587 46.2671C56.201 46.0363 56.2587 46.3249 56.2587 46.2671Z" fill="#FFCE5B"/>
<path d="M55.682 48.7478C55.5666 49.0941 55.4512 49.3826 55.4512 49.3826L55.7974 48.9209C55.5089 48.6901 56.259 48.4016 55.9705 48.0553C55.9705 48.113 55.8551 48.4593 55.682 48.7478C55.5666 49.0941 55.8551 48.4593 55.682 48.7478Z" fill="#FFCE5B"/>
<path d="M53.4313 54.8654L53.0274 54.9808C52.8543 55.6733 53.6044 56.8851 53.0274 57.4622C53.2582 57.116 53.489 58.1547 53.5468 57.1737C53.2005 56.7697 53.2582 55.5002 53.4313 54.8654Z" fill="#FFCE5B"/>
<path d="M52.7966 58.0392C52.6812 57.9238 52.6235 58.0969 52.5081 58.2701C52.5081 58.6163 52.7389 58.9048 52.8543 58.7317C52.335 58.5586 53.1429 58.3278 52.7966 58.0392C52.6812 57.9238 53.1429 58.3278 52.7966 58.0392Z" fill="#FFCE5B"/>
<path d="M53.8929 61.9051C53.7775 61.6742 53.6044 61.3857 53.6621 61.732C54.0083 62.4244 54.2969 62.0205 54.7008 62.1936C54.5854 61.6165 53.8352 61.3857 53.8929 61.9051C53.7775 61.6742 53.8352 61.3857 53.8929 61.9051Z" fill="#FFCE5B"/>
<path d="M57.5863 66.1755C57.4709 66.2332 57.3554 66.3486 57.3554 66.3486C57.5863 66.2909 57.7594 66.2332 57.9325 66.1755L57.7594 66.0024C57.8171 66.0024 57.7017 66.0601 57.5863 66.1755C57.5286 66.2332 57.7017 66.0601 57.5863 66.1755Z" fill="#FFCE5B"/>
<path d="M62.0295 66.0604L62.318 66.2913C62.4911 66.1758 62.6643 66.0027 62.7797 65.8873C62.7797 65.8873 62.6065 65.945 62.3757 66.0027C62.2026 66.0604 62.0295 66.0604 62.0295 66.0604Z" fill="#FFCE5B"/>
<path d="M63.1835 66.1755L63.9337 65.9447L63.6452 65.887C63.2412 65.9447 63.4144 66.1178 63.1835 66.1755Z" fill="#FFCE5B"/>
<path d="M65.0878 65.3677C64.9147 65.5408 64.7415 65.6562 64.5107 65.8293C64.7993 65.7139 65.0301 65.5408 65.3186 65.3677C65.2609 65.4254 65.1455 65.4254 65.0878 65.3677Z" fill="#FFCE5B"/>
<path d="M47.2568 109.628C46.3335 110.667 45.468 111.706 44.7178 112.687L47.2568 109.628Z" fill="#FFCE5B"/>
<path d="M57.1824 96.8177C57.2402 96.9908 57.2979 97.2216 57.3556 97.3948C57.3556 97.6256 57.2979 97.8564 57.1824 98.0295C57.2979 97.9141 57.3556 97.7987 57.3556 97.6256C57.4133 97.4525 57.3556 97.1639 57.1824 96.8177C57.2979 96.9908 57.3556 97.1639 57.1824 96.8177Z" fill="#FFCE5B"/>
<path d="M45.6986 61.0974C45.814 61.3859 45.9294 61.4436 45.9294 61.3859C45.9294 61.3859 45.8717 61.3282 45.814 61.2128C45.7563 61.2128 45.6986 61.0974 45.6986 61.0974Z" fill="#FFCE5B"/>
<path d="M40.4475 116.61L40.5629 116.495C41.1977 115.86 40.9669 116.091 40.4475 116.61Z" fill="#FFCE5B"/>
<path d="M47.4298 109.397C47.3721 109.455 47.3144 109.513 47.2567 109.628C47.2567 109.628 47.3144 109.57 47.4298 109.397Z" fill="#FFCE5B"/>
<path d="M42.2364 115.803C42.5249 115.572 42.8711 115.283 43.3328 114.822C42.7557 115.283 42.1786 115.745 41.6593 116.264C41.8324 116.149 42.0055 115.976 42.2364 115.803C42.0632 115.918 42.5249 115.572 42.2364 115.803Z" fill="#FFCE5B"/>
<path d="M30.9836 13.6631C30.8682 13.7785 30.7528 13.8939 30.6374 14.0093C30.9259 13.7785 30.9836 13.6631 30.9836 13.6631Z" fill="#FFCE5B"/>
<path d="M75.879 96.1248C75.9367 95.9517 75.9945 95.8363 76.1099 95.6055C75.8213 96.0671 75.7059 96.2402 75.879 96.1248Z" fill="#FFCE5B"/>
<path d="M78.1873 92.8934C78.7067 92.201 78.7067 92.0279 77.264 93.6436C77.8411 93.2397 76.7447 94.6246 76.1099 95.6633C76.8024 94.74 77.4948 93.8167 78.1873 92.8934C77.8988 93.2397 78.7067 92.201 78.1873 92.8934Z" fill="#FFCE5B"/>
<path d="M22.7318 23.4155C22.7895 23.2424 22.6741 23.4155 22.6164 23.4732C21.9817 24.4542 20.7121 24.9158 19.6734 25.1467C18.577 25.3775 17.1344 25.4352 16.1534 24.7427C16.0956 24.685 15.9802 24.6273 15.9225 24.5696C15.9225 24.5696 15.9225 24.5696 15.9802 24.6273C16.4419 25.2044 17.3075 25.4352 18.0577 25.4929C18.8078 25.4929 19.558 25.3198 20.2505 25.1467C21.1161 24.8581 22.1548 24.3965 22.6741 23.5886C22.6741 23.4732 22.7318 23.4155 22.7318 23.4155Z" fill="#FFCE5B"/>
<path d="M24.5784 12.9128C23.886 13.5476 23.2512 14.2401 22.6164 14.8171C22.2125 15.1634 21.8085 15.5673 21.2892 16.0867C22.0394 15.3942 22.7895 14.7594 23.5397 14.1247C24.0014 13.7207 24.463 13.3745 24.9247 13.0282C24.9824 12.9705 25.5594 12.682 25.5594 12.5666C25.5594 12.5666 26.1942 11.8741 26.8867 11.2394C27.5791 10.6046 28.2716 9.96981 28.2716 9.96981C27.6368 10.3738 27.1752 10.72 26.7712 11.0085C25.9057 11.6433 25.2132 12.2781 24.5784 12.9128C24.2322 13.2014 24.867 12.6243 24.5784 12.9128Z" fill="#FFCE5B"/>
<path d="M33.9267 7.37263L32.888 8.1228C33.869 7.48804 34.0421 7.31493 33.9267 7.37263Z" fill="#FFCE5B"/>
<path d="M36.1194 5.81493C35.5423 6.16117 34.3882 6.85366 33.9843 7.02678C34.5613 6.56513 35.1384 6.10347 35.7154 5.64182C33.638 6.85365 31.6183 8.1232 29.6563 9.45044L32.0223 8.06548C32.1377 8.18089 33.6957 7.373 33.9266 7.25758C33.9266 7.08447 34.9076 6.56512 35.023 6.50741C35.3692 6.33429 35.7731 6.04576 36.1194 5.81493Z" fill="#FFCE5B"/>
<path d="M39.4087 4.25724C39.2356 4.31494 39.0624 4.37262 38.8893 4.37262C38.8893 4.43033 39.1202 4.37265 39.4087 4.25724Z" fill="#FFCE5B"/>
<path d="M82.7206 44.9397C81.7396 41.7659 80.5855 38.4189 78.7389 35.5913C77.4117 33.2831 75.7959 31.2056 73.8339 29.4745L74.2378 29.763C73.6031 29.1282 72.7952 28.6089 72.1027 28.0318C71.9873 27.1662 71.9873 26.3006 71.8142 25.435C71.6988 24.858 71.4102 24.0501 71.0063 22.7806C71.1794 23.6462 71.2948 24.4541 71.4679 25.3197C71.4679 25.3774 71.4679 25.4928 71.5256 25.6082C70.8332 22.5498 69.6213 19.6068 68.121 16.8369C67.8325 16.2021 67.7748 15.9713 68.1787 16.4329C67.8902 15.9136 67.6016 15.4519 67.3131 14.9903C66.7938 14.2978 66.2744 13.5476 65.6973 12.9129C65.4088 12.6243 65.178 12.3935 64.8895 12.105C63.8507 10.8354 62.6389 9.6236 61.4271 8.52719C63.0429 9.5659 66.2744 13.0283 63.1006 9.33509C63.1583 9.27738 59.5805 6.62291 59.5228 6.73832C58.8303 5.93044 57.7916 5.35336 56.8683 4.77631C55.7719 4.08383 54.5024 3.50678 53.4637 2.69891C53.3483 2.58349 53.2905 2.52579 53.3483 2.52579C52.1941 2.12185 51.5017 1.89101 50.8092 1.7179C50.1744 1.60248 49.5397 1.48708 48.5587 1.25626C46.7121 0.563782 44.8655 0.275246 42.9035 0.275246C45.5579 0.563774 47.2891 1.02544 48.5587 1.37167C49.3088 1.60249 50.059 1.83331 50.8092 2.12184C51.6171 2.46808 52.425 2.81431 53.1751 3.16055C53.983 3.62219 54.8486 4.02612 55.6565 4.48778C56.349 4.94942 57.1569 5.41108 58.0802 6.04585C58.0224 6.04585 57.907 5.93044 57.7339 5.87273C51.3285 1.66019 43.5959 0.0444336 35.9787 1.08315C35.8056 1.02544 36.1519 0.909996 36.1519 0.909996C36.4404 0.794586 36.7289 0.736877 37.0175 0.621468C37.3637 0.563759 37.8254 0.50605 38.1716 0.332939C36.4404 0.332939 34.7092 0.679169 33.0358 1.19852C31.3046 1.71788 29.6311 2.23726 27.8999 2.81432C28.4193 2.5835 28.9386 2.41038 29.458 2.23726C29.6311 2.17956 30.3236 1.83331 30.439 1.83331C30.1505 1.7179 29.2272 2.12183 28.9386 2.17953C26.9189 2.8143 25.0146 3.5645 23.0526 4.25697C23.8028 4.14156 24.7838 3.85303 26.2841 3.39138C27.0343 3.16056 27.8999 2.9297 28.8809 2.64117C29.5734 2.46806 30.2659 2.29496 30.9006 2.12184C24.2067 3.96844 17.8591 7.31539 12.1462 11.1817C9.49171 12.9706 6.95264 15.048 4.6444 17.3562C3.49029 18.5103 2.45158 19.7222 1.47057 21.0494C1.00893 21.6265 0.547272 22.2612 0.201035 22.896C0.027916 23.1845 -0.0874863 23.4731 0.0856323 23.7616C0.489578 24.5118 1.93222 24.3963 2.62469 24.2809C3.54799 24.1655 4.87523 23.877 5.45229 23.0114C7.81823 19.3759 10.9921 16.3175 14.4544 13.7207C14.5121 13.7207 14.5698 13.663 14.5698 13.7207C14.6275 13.663 14.6852 13.6053 14.8007 13.4899C16.8204 12.0473 18.8978 10.72 21.0906 9.5659C20.9175 9.73901 20.629 9.91215 20.3404 10.0853C19.8788 10.4315 19.3017 10.7777 18.5516 11.2394C22.1293 9.39279 25.7648 7.66162 29.5734 6.27668C32.9781 5.00715 36.6135 4.37236 40.249 4.19924C40.4221 4.19924 40.6529 4.25697 40.8261 4.25697C41.8071 4.43009 42.1533 4.5455 42.0379 4.5455C41.6339 4.66091 41.1146 4.5455 40.7106 4.5455C39.9605 4.5455 39.2103 4.54549 38.5178 4.6032C37.1329 4.6609 35.6325 4.834 34.3053 5.23795C47.116 3.16053 60.2153 11.2971 64.197 23.6462L64.3124 24.0501L64.3701 24.2232L64.4278 24.3386C64.4278 24.3386 64.4855 24.454 64.4278 24.3963C64.0239 24.3386 63.6199 24.2232 63.1583 24.2232L62.5235 24.1655C62.235 24.1655 61.9464 24.1078 61.6579 24.1078C60.1576 24.1078 58.6572 24.2809 57.1569 24.5118C57.0414 24.8003 56.5798 25.0311 55.8296 25.2619C55.4834 25.3773 55.0217 25.5505 54.5024 25.7236C54.0407 25.9544 53.4637 26.1852 52.8866 26.5315C52.425 26.6469 52.021 26.7623 51.5594 26.8777C51.3862 26.9354 51.3285 26.9354 51.3285 26.9354C51.3862 26.8777 51.444 26.8777 51.5017 26.9354C51.5594 27.0508 51.0977 27.3971 51.444 27.3394C43.9999 30.8017 37.4214 37.7264 33.6705 45.2859C34.0745 43.901 34.6515 42.516 35.344 41.2465C31.5931 47.8827 27.6114 56.7117 31.2469 64.1558C29.9773 62.4246 29.5734 59.8278 29.5157 57.7504C29.458 55.4999 29.7465 53.1916 30.3813 51.0565C29.8042 52.9031 29.5157 54.8651 29.4003 56.7694C29.3426 57.7504 29.4003 58.7891 29.458 59.7701C29.5157 60.1163 29.8042 61.0397 29.5734 61.3859L30.1505 62.0207C30.3813 62.7708 30.5544 63.3479 30.7275 63.7518C30.7852 63.9827 31.0738 64.3866 31.016 64.6174C31.016 64.6174 30.6698 64.2135 30.6121 64.1558C30.439 63.925 30.3236 63.6941 30.1505 63.4056C29.9196 63.0017 29.7465 62.8862 29.8619 63.4633C30.5544 65.3099 31.42 66.6371 32.1702 67.5027C32.5741 67.9644 32.9203 68.3106 33.2666 68.5414C33.6128 68.83 33.8436 69.0608 34.1322 69.1762C34.6515 69.4647 34.94 69.6379 35.1709 69.6379C35.4594 69.6956 35.5748 69.5224 35.8633 69.4647C36.2673 69.4647 36.7289 69.6379 37.1329 69.7533C38.9795 70.5612 40.9992 70.8497 43.0189 70.792C45.0386 70.8497 47.116 70.3303 48.9626 69.6955C48.7895 69.811 48.6741 69.8687 48.6164 69.9264C48.501 70.0995 48.9049 70.0995 49.1357 70.0995C50.8092 69.1762 52.5404 68.3106 54.2138 67.445C56.0604 66.5217 57.7916 65.3676 59.4074 64.0981C60.0999 63.4633 60.85 62.8862 61.6579 62.0207C61.831 62.0207 61.1386 62.8285 60.3307 63.6364C59.5228 64.502 58.5995 65.2522 58.4841 65.5407C61.1386 63.3479 63.4468 60.8088 65.4665 57.9812C66.0436 57.0579 66.9092 55.9615 67.14 54.8651C67.7171 53.9995 68.1787 53.0762 68.6403 52.2106C69.2174 50.9411 69.7945 49.6716 70.3715 48.4021C71.6411 44.882 72.5643 41.3042 72.8529 37.611C72.8529 37.611 72.8529 37.6687 72.9106 37.6687C72.9106 38.2458 72.5644 39.6307 73.0837 39.977C73.1991 40.0924 73.1991 40.3232 73.1991 40.4386C73.2568 41.0157 73.1991 41.5927 73.1414 42.1698C73.2568 40.9002 73.3722 39.6307 73.3722 38.3612C75.2765 41.4773 76.4884 44.882 77.2385 48.4597C77.7579 51.749 77.8733 55.1536 77.5848 58.4429C77.4694 58.4429 77.3539 58.212 77.1808 57.7504C77.1231 59.8278 76.3729 61.9053 76.4306 63.9827C76.4884 66.0024 75.7959 68.0221 75.1611 69.9264C75.6228 68.5414 76.0267 67.0988 76.3729 65.7139C76.3152 66.0601 76.2575 66.3486 76.1998 66.6371C75.1611 70.8497 73.6031 75.0045 71.6988 78.9862C71.6988 78.6977 71.8719 78.0629 71.2371 79.3901C71.1217 79.7941 70.9486 80.3134 70.7178 80.8328C68.698 85.2184 65.5819 89.0848 62.6389 92.8357C62.6389 92.8357 62.8698 92.5471 63.0429 92.2586C63.216 91.9701 63.4468 91.6815 63.4468 91.6815C62.1773 93.2396 60.85 94.6822 59.4651 96.1249C59.4074 96.1826 59.4651 96.1249 59.4074 96.1249C59.3497 96.2403 59.3497 96.298 59.292 96.4134C57.5031 98.0292 54.3293 101.145 50.5784 104.377C50.1744 104.896 49.5974 105.358 49.078 105.762C48.1547 106.57 47.1737 107.32 46.135 108.07C43.7691 109.801 41.2877 111.302 38.8064 112.802C37.3637 113.552 36.2673 114.245 35.7479 114.533C37.5945 113.552 39.1526 112.687 41.4031 111.417L41.2877 111.994C39.268 113.148 39.1526 113.148 39.0372 113.09C38.9795 113.09 38.9218 113.033 37.0175 114.187C37.6522 114.245 38.4601 113.725 38.9218 113.494C39.9605 112.975 40.8838 112.34 41.8648 111.706C43.0766 110.898 44.2307 110.09 45.4425 109.224C44.2307 110.321 42.8458 111.302 41.4608 112.167C42.6726 111.417 43.8845 110.667 45.0963 109.859C43.7114 110.84 42.2687 111.706 40.7684 112.571C40.9992 112.456 41.23 112.283 41.4608 112.167C39.2103 113.494 36.9598 114.764 34.5938 115.86C34.8246 115.63 34.7669 115.572 33.9013 115.86C32.6318 116.437 31.3046 116.899 30.035 117.418C28.7078 117.938 27.4383 118.573 26.1687 119.092C24.7838 119.554 23.3411 119.957 21.9562 120.304C21.8408 120.304 21.7831 120.246 21.7254 120.246C21.7254 120.188 21.7254 120.131 21.6677 120.073C21.61 120.015 21.4369 120.015 21.1483 120.015C21.7254 119.496 22.3601 118.803 23.3411 117.88L22.6487 118.746C22.4756 119.034 22.3024 119.265 21.8985 119.611C22.187 119.496 22.4756 119.38 22.7641 119.265C22.7064 119.207 22.591 119.207 22.591 119.207C22.9949 118.861 23.572 118.457 23.8605 117.995C24.2067 117.361 24.553 116.899 25.0723 116.38C24.4376 116.841 24.2067 116.841 22.0716 119.034C22.0716 119.034 21.8985 119.15 21.8408 119.092C21.7254 118.919 22.5333 118.169 22.6487 118.053C23.0526 117.592 23.4566 117.13 23.9182 116.726L23.2834 117.361C23.3411 117.303 23.3411 117.245 23.3988 117.188C26.111 114.475 28.8809 111.706 31.4777 108.82L31.5354 108.763C31.3623 109.051 31.1315 109.282 30.9583 109.513C31.997 108.243 33.0358 106.974 34.0745 105.762C34.94 104.665 35.7479 103.627 36.6135 102.53V102.588C36.7289 102.415 36.8443 102.242 36.9598 102.069C37.8831 100.857 38.7486 99.6449 39.6142 98.4331C39.6142 98.4908 39.5565 98.5485 39.6142 98.5485C39.7296 98.6062 40.0759 97.9715 40.1336 97.9138C40.3644 97.683 40.1913 97.279 39.9028 96.9328C40.5952 97.3367 40.3067 97.9138 39.9605 98.4331C38.5178 100.568 37.0175 102.588 35.4017 104.55C36.2096 103.569 36.9598 102.53 37.9408 101.78C38.2293 101.549 37.9408 102.184 36.4981 104.031C37.2483 103.396 37.8253 102.473 38.4024 101.665C39.0949 100.626 39.7874 99.5872 40.5375 98.5485C40.6529 98.3754 40.7107 98.2023 40.8261 98.0292C40.4798 98.5486 40.826 97.6253 40.5952 97.7984C40.8838 97.7407 40.7106 97.1636 40.6529 96.9905C40.4798 96.5865 40.1913 96.298 39.9028 96.0095C39.0949 95.317 38.1716 94.7976 37.1906 94.3937C36.2096 93.9898 35.1709 93.7012 34.1322 93.5281C33.9013 93.5281 32.2856 93.2973 32.1702 93.7013C33.7282 93.4127 35.4594 93.8744 36.902 94.4514C36.9598 94.5668 35.9211 94.336 35.8633 94.336C35.1709 94.1629 34.4784 94.0475 33.7859 94.0475C33.2089 93.9321 32.5741 93.9321 31.997 94.0475C31.3623 94.2206 31.0738 94.6246 30.7275 95.1439C29.8619 96.4134 28.9963 97.6252 28.073 98.8371C26.2264 101.318 24.2067 103.684 22.187 105.993C20.1096 108.301 17.9168 110.551 15.6663 112.744C14.5121 113.898 13.358 115.052 12.2039 116.207C11.1652 117.245 9.95335 118.111 8.85693 119.034C8.79923 118.919 8.97235 118.746 8.97235 118.573C8.97235 118.342 8.27989 118.861 8.22218 118.861C7.29889 119.669 6.14477 120.708 5.91394 122.035C5.79853 122.497 5.91393 123.016 6.31788 123.304C6.49099 123.42 6.60641 123.362 6.72182 123.362C7.58741 124.285 8.97236 124.862 10.1842 125.324C10.5304 125.728 11.2806 125.959 12.0885 125.959C14.3967 126.536 16.7627 126.651 19.0709 126.651C21.4946 126.651 23.9759 126.594 26.3996 126.421C31.3623 126.132 36.325 125.497 41.23 124.805C41.23 124.862 41.0569 124.978 40.5375 125.151C43.9422 124.747 42.3841 124.805 41.9802 124.747C43.6537 124.516 45.3271 124.285 47.0006 123.997C47.2314 124.055 47.3468 124.112 45.7311 124.459C48.5587 124.17 48.9626 123.939 49.2511 123.651C52.3672 123.131 55.5411 122.612 58.6572 121.977C59.2343 121.919 59.7536 121.919 60.0999 121.919C61.7733 121.573 63.4468 121.169 65.0626 120.592C66.6783 120.188 68.2364 119.784 69.7945 119.323C69.1597 119.554 68.7558 119.784 68.9289 119.9C70.8332 119.207 72.6798 118.457 74.5841 117.765C75.7382 117.303 73.7762 115.976 73.3722 115.687C72.4489 115.052 71.4679 114.591 70.3715 114.245C69.6213 114.014 68.8135 113.783 68.0056 113.725C67.0823 113.668 66.3321 113.898 65.4665 114.187C63.7353 114.764 62.0042 115.283 60.273 115.745C53.1751 117.592 45.9042 118.63 38.6909 119.842C35.5748 120.361 32.4587 120.823 29.3426 121.227C42.4418 116.726 54.387 108.936 63.7353 98.664C64.1393 98.26 64.4855 97.9138 64.774 97.6253C65.2357 97.1059 65.6973 96.5865 66.1013 95.9518C66.8515 95.0285 67.6016 94.1052 68.2941 93.1819C67.7748 94.1052 67.4285 94.8554 66.9092 95.7787C67.8902 94.4514 68.4095 93.5281 68.8712 92.8934C69.1597 92.4317 69.3328 92.0278 69.5636 91.6238C70.1984 90.7005 70.8332 89.8349 71.4679 88.9116C71.5834 88.7962 71.5833 88.9693 71.6988 88.9116C72.2181 88.046 72.5643 87.3536 72.8529 86.7188C74.4109 84.2375 75.7959 81.6407 77.0077 78.9862C77.6425 77.8321 78.1041 76.5626 78.6235 75.3507C79.2582 73.8504 79.7776 72.35 80.297 70.792C81.278 67.7336 82.0858 64.5597 82.6629 61.3859C82.7783 60.982 82.8937 60.4626 83.0668 60.1164C83.0091 59.8855 82.9514 59.597 82.9514 59.3662C83.2977 56.5386 83.4131 53.4802 83.1823 50.4218C83.1246 49.3253 83.0091 48.1712 82.8937 47.0748C82.7206 46.0938 82.6052 45.1128 82.3744 44.1895C82.3744 44.1895 82.3744 43.8433 82.4321 43.8433C82.6052 43.8433 82.7783 44.7666 82.836 44.882C83.24 47.0171 83.4708 49.2099 83.817 51.345C83.7016 49.3253 83.5285 47.9981 83.4131 47.0748C83.0091 46.0938 82.8937 45.5168 82.7206 44.9397C82.4321 43.901 82.8937 45.5168 82.7206 44.9397ZM63.2737 51.5759L63.1006 51.4027C63.2737 51.0565 63.3314 51.2296 63.5045 51.1142C63.4468 51.2296 63.3891 51.4028 63.2737 51.5759ZM37.2483 50.1909C37.0752 50.364 36.902 50.2486 36.902 50.0755C37.0175 49.787 37.1329 49.4985 37.2483 49.2099C37.1329 49.5562 37.1329 49.8447 37.2483 50.1909C37.0752 50.364 37.1329 49.8447 37.2483 50.1909ZM36.325 61.5013C36.325 61.4436 36.325 61.3859 36.3827 61.3282C36.3827 61.3282 36.4981 61.7321 36.6712 62.1361C36.7289 62.2515 36.7866 62.3669 36.7866 62.4823C36.6135 62.1361 36.4981 61.7898 36.325 61.5013C36.3827 61.4436 36.4981 61.7898 36.325 61.5013ZM36.902 50.1332C36.902 50.3641 36.8444 50.4217 36.7866 50.5371C36.7866 50.364 36.8443 50.2486 36.902 50.1332ZM58.4841 59.0199C58.4264 59.0199 58.4264 58.9622 58.4264 58.9045C58.4264 58.9622 58.4264 59.02 58.4264 59.0777C58.1956 59.3662 57.9647 59.597 57.6762 59.8855C57.6762 59.7124 57.6762 59.597 57.8493 59.4239C56.8683 59.8278 55.7142 61.0974 55.5411 62.0207L55.4834 62.0783C54.7909 62.3092 55.5988 61.3282 55.7142 60.8665C53.8099 62.3669 51.8479 63.8672 49.7128 64.9636C49.9436 65.483 49.6551 65.4253 49.4243 65.887L49.1357 65.8292C49.2511 65.8869 49.1934 66.1178 49.3088 66.2332C48.097 66.8102 46.8275 67.1565 45.6157 67.3296C45.7311 67.0988 45.9042 66.8679 46.135 66.6948C45.0963 67.2719 43.8845 66.868 42.7881 66.868C42.9035 66.7526 43.3074 66.6949 43.6537 66.5794C44.0576 66.5217 44.4038 66.4063 44.577 66.4063C44.3461 66.4063 43.2497 66.5794 43.2497 66.2332L43.0766 66.6371C42.2687 66.5217 43.2497 66.2909 43.0189 66.0024C42.7304 65.9447 42.2687 65.8869 42.0379 66.1178C41.8071 66.3486 41.8071 66.7526 41.4608 66.868C41.1723 66.7526 40.8838 66.6371 40.6529 66.464C40.5952 66.4063 40.5375 66.3486 40.4798 66.3486C40.3067 66.2332 40.0759 66.1178 39.9028 66.0024C40.0759 65.9447 40.1336 65.7138 40.1913 65.5984C39.6719 65.7138 39.4988 65.5407 39.3834 65.2522C39.2103 64.9636 39.1526 64.5597 38.6332 64.1558C38.8063 63.9827 39.268 64.3866 39.4988 64.2135C38.8641 63.9249 38.1716 63.1171 37.7099 63.2325C37.0175 62.1938 36.8443 61.3282 36.5558 60.6934C36.902 61.2705 37.1906 60.8088 37.5945 61.0974C37.3637 60.9243 37.1329 60.6934 36.902 60.5203C36.6712 60.2318 36.4404 59.9432 36.2096 59.597C36.0365 59.3085 35.8633 59.0199 35.6902 58.7314C35.6325 58.2121 35.5748 57.6927 35.5748 57.2311C35.6902 57.2311 35.8056 57.231 35.9787 57.2888C36.0942 56.5386 36.0365 56.4809 35.9211 56.3655C35.8056 56.2501 35.6325 56.1923 35.7479 55.4422L35.6325 56.0769V56.0192C35.6902 55.3267 35.7479 54.6343 35.8633 53.9995C35.9788 54.0572 36.0942 54.1726 36.0942 53.9418C35.9788 53.7687 35.921 53.5956 35.9787 53.4224C35.9787 53.3647 36.0365 53.307 36.0365 53.2493C36.2096 52.6723 36.7289 52.2683 36.8443 51.6913V51.9221C36.902 51.8067 37.2483 51.1719 37.3637 51.1719C37.3637 51.1719 37.3637 51.1719 37.4214 51.1719C37.4214 51.1719 37.3637 51.1142 37.306 51.1142C37.7099 50.8834 38.1139 50.364 38.3447 49.6139C38.1139 49.2099 39.1526 47.421 39.0372 47.0171C38.9795 47.3056 38.8641 47.5942 38.6332 47.8827L38.287 47.6518C38.5755 47.0171 38.6332 47.7673 38.6909 47.0748C38.1139 46.9017 38.287 47.9404 37.9985 48.4021C37.9408 48.1712 37.9408 47.8827 37.9985 47.5942C37.9408 47.7673 37.8253 47.8827 37.7676 48.0558C37.883 47.825 37.9408 47.6519 38.0562 47.421C38.0562 47.4788 37.9985 47.5365 37.9985 47.5942C38.1139 47.3633 38.1716 47.1902 38.287 46.9594C38.3447 46.844 38.4024 46.6709 38.5178 46.5555C38.5755 46.6132 38.6909 46.6709 38.8064 46.5555C39.3257 45.9784 39.2103 45.6898 39.1526 45.3436C39.268 45.1705 39.3834 44.9397 39.4988 44.7665C39.7296 44.7665 39.9605 44.9397 40.3644 44.2472L40.249 44.9397C41.0569 44.6512 40.3644 44.3049 40.7106 43.901C40.4798 43.9587 40.3644 43.901 40.0759 44.3626C39.8451 44.3049 40.0182 43.901 40.0759 43.7279L40.0182 43.8433V43.7856C40.3067 43.2662 40.5952 42.8046 40.9415 42.2852L40.8838 42.4583C40.9992 42.1698 41.1723 41.8813 41.2877 41.6504C41.4031 41.535 41.4608 41.3619 41.5762 41.2465V41.3042C41.5762 41.2465 41.5762 41.2465 41.5762 41.1888C41.6916 41.0157 41.8071 40.7849 41.9802 40.6117C42.0379 40.7272 42.0956 40.7271 42.211 40.4963C42.4418 40.8426 41.7494 41.535 41.5762 41.7081C41.8648 41.3619 42.4995 41.2465 42.0956 41.8812C42.4418 41.8812 42.3264 41.2465 42.6726 41.0157C42.5572 41.0157 42.5572 40.8426 42.4418 40.8426C42.7881 41.0734 43.2497 39.7461 43.0189 39.573L42.7881 40.2655C42.6149 40.1501 42.6726 39.8038 42.6149 39.573C43.6536 38.1304 44.8078 36.7454 46.0773 35.4182C46.1927 35.5336 46.2504 35.8221 46.4812 35.7644C47.1737 35.3028 46.8275 35.1297 46.6544 34.8411C47.9239 33.6293 49.3088 32.4752 50.7515 31.4942C50.8092 31.5519 50.8092 31.6096 50.8092 31.725C51.2708 31.4942 50.9823 31.4942 50.8669 31.4365C51.0977 31.3211 51.2708 31.1479 51.5017 31.0325C51.5594 31.0902 51.6748 31.1479 51.444 31.3211C51.9056 31.2057 51.8479 31.0326 51.7902 30.8017C52.1941 30.5709 52.5981 30.3401 53.002 30.1092C53.1174 30.1092 53.2328 30.167 53.3483 30.2247C53.6945 30.0516 53.8676 29.8207 53.983 29.7053C54.2138 29.5899 54.4447 29.5322 54.6755 29.4168C54.5601 29.5322 54.5601 29.6476 54.6178 29.8207C54.964 29.3591 55.2525 29.2437 55.5988 29.0705C56.349 28.8397 57.1568 28.6089 57.907 28.4935C60.9654 28.1473 63.8507 28.6089 66.5629 30.1092C66.6206 30.744 66.736 31.3211 66.736 31.9558C66.5629 32.3598 66.6783 32.4752 66.7938 32.5329C66.7938 32.706 66.7938 32.8791 66.8515 33.0522C66.6783 32.8791 66.4475 32.7637 66.3321 32.6483C66.5052 33.0522 66.6783 33.2254 66.8515 33.3408C66.8515 33.5139 66.8515 33.687 66.8515 33.8024C66.7938 33.8601 66.6783 33.8024 66.6206 33.8601C66.6783 34.0333 66.736 34.1487 66.8515 34.2064C66.8515 34.668 66.8515 35.0719 66.8515 35.5336C66.8515 35.5336 66.8515 35.5913 66.8515 35.7644C66.8515 36.63 66.7938 37.4379 66.736 38.3035C66.6783 38.4189 66.5629 38.4766 66.5052 38.4766C66.5629 38.4766 66.6783 38.5343 66.736 38.592C66.6783 38.996 66.6206 39.4576 66.6206 39.8615L66.3321 40.8426C65.8127 41.0157 66.2744 40.1501 66.1013 39.6884C65.8705 40.8426 66.1013 40.4963 66.2167 41.4196C66.159 41.6504 66.2167 41.939 66.2744 42.2275C66.2167 42.6314 66.1013 42.9777 66.0436 43.3816C66.0436 43.3239 66.0436 43.3239 65.9859 43.2662C65.8705 44.0741 65.4088 43.5547 65.4665 44.4203C65.5819 44.3049 65.755 44.1895 65.8705 44.0741C65.755 44.5358 65.6396 44.9397 65.5242 45.4013C65.4665 45.5167 65.3511 45.5745 65.2357 45.4013C65.1203 45.8053 65.178 46.0938 65.2934 46.2669C65.2357 46.4977 65.1203 46.7286 65.0626 46.9594C64.8895 46.6132 65.0626 45.9784 64.6009 46.5555L64.774 47.3056C64.6009 47.3633 64.197 48.3443 63.8507 48.1712C63.793 48.5175 63.9085 48.6329 63.9085 48.9791C63.6199 49.1522 63.4468 49.3253 63.5045 49.7293C64.3124 48.402 64.2547 48.8637 64.8317 47.6518C64.8317 47.6518 64.8317 47.7096 64.8317 47.7673C64.4855 48.806 64.0239 49.9024 63.5622 50.8834C63.3891 50.9411 63.3314 50.5372 63.216 50.4218C62.7543 51.1142 63.2737 51.4028 62.7543 51.9221C62.9852 50.8257 62.3504 52.1529 62.0042 52.3838C62.4081 52.3838 62.7543 52.1529 63.216 51.5759C61.9464 54.3458 60.3884 56.8271 58.4841 59.0199C58.4264 59.0199 58.9457 58.5006 58.4841 59.0199ZM32.8626 1.37167C33.3243 1.25626 33.7859 1.14085 34.2476 1.08315C34.7092 1.02544 35.1132 1.08315 35.5748 1.08315C34.5361 1.25626 33.4974 1.42937 32.4587 1.6602L32.8626 1.37167ZM72.2758 40.0347C72.1604 40.7272 72.045 41.4196 71.8719 42.1698C71.4102 43.9587 70.9486 45.7476 70.3138 47.4787C71.1217 45.2859 71.6988 42.9777 72.045 40.6694C72.1027 40.3809 72.2181 40.0347 72.2758 39.573C72.3335 39.573 72.2758 39.7462 72.2758 40.0347C72.2181 40.3809 72.2758 39.7462 72.2758 40.0347ZM57.7916 99.0679C57.0991 99.8181 56.4067 100.511 55.7142 101.203C56.349 100.453 57.0414 99.7604 57.7916 99.0679C57.5031 99.3564 57.5608 99.2987 57.7916 99.0679ZM55.1949 101.145C56.349 100.107 56.2336 100.511 55.6565 101.203C54.1561 102.703 52.5404 104.146 50.9246 105.473C52.4827 104.204 53.9253 102.761 55.1949 101.145C54.0984 102.588 56.4067 100.164 55.1949 101.145Z" fill="#FFCE5B"/>
<path d="M96.7106 37.8415C96.9414 38.1878 96.9991 38.4763 96.9991 38.4763C96.9991 38.4763 96.9991 38.4186 96.9414 38.3609C96.7683 37.7838 96.4221 37.2645 96.1913 36.7451C96.0759 36.4566 95.9027 36.1681 95.7296 35.8795C95.6719 35.7641 95.4411 35.5333 95.4411 35.4179L94.7486 34.61C95.4988 35.591 96.1336 36.6874 96.7106 37.8415C96.5375 37.4376 96.9414 38.1878 96.7106 37.8415Z" fill="#FFCE5B"/>
<path d="M99.4807 60.2319C99.4807 60.0011 99.423 60.0011 99.3653 60.1165C99.423 60.1742 99.423 60.2319 99.4807 60.2319Z" fill="#FFCE5B"/>
<path d="M83.2074 95.8363C82.8612 96.2979 82.5726 96.7019 82.111 97.3367C82.5726 96.7596 82.9189 96.2979 83.2074 95.8363Z" fill="#FFCE5B"/>
<path d="M99.6538 60.8665L100 59.4815L99.8269 58.8467L99.6538 60.8665Z" fill="#FFCE5B"/>
<path d="M80.8416 98.895L79.8606 100.338L80.7262 99.2989C81.4764 98.491 81.6495 98.0871 80.8416 98.895Z" fill="#FFCE5B"/>
<path d="M73.5709 105.761C74.7251 104.78 75.8215 103.799 76.9756 102.761L74.7251 104.434C74.7251 104.607 74.2634 105.011 74.148 105.069C73.9172 105.3 73.7441 105.531 73.5709 105.761Z" fill="#FFCE5B"/>
<path d="M39.524 103.973C40.9089 102.415 42.0631 100.742 43.0441 99.4143C40.4473 102.357 38.1391 105.531 35.4269 108.417C36.8695 107.032 38.1968 105.531 39.524 103.973C38.8315 104.781 40.9089 102.415 39.524 103.973Z" fill="#FFCE5B"/>
<path d="M51.3539 106.455C51.527 106.108 51.6425 105.935 51.6425 105.935C47.6607 110.378 49.2188 109.628 49.565 109.686C50.1421 108.82 51.0077 107.724 49.565 109.397C50.1421 108.359 50.7769 107.436 51.3539 106.455C51.1808 106.743 51.527 106.108 51.3539 106.455Z" fill="#FFCE5B"/>
<path d="M45.9872 116.726C47.199 116.206 48.3531 115.687 49.5072 115.11C50.4305 114.648 51.4115 114.187 52.1617 113.494C52.3925 113.263 52.4502 113.148 52.2194 113.148C50.6036 114.014 48.9879 114.822 47.3144 115.572C48.18 115.225 49.0456 114.879 49.9112 114.475C48.6993 115.399 47.3144 116.091 45.9872 116.726C46.9104 116.264 47.8914 115.918 45.9872 116.726Z" fill="#FFCE5B"/>
<path d="M42.9289 117.822C42.6403 117.822 42.4095 117.996 42.1787 118.169C42.5249 118.053 42.8712 117.938 43.2174 117.822C43.1597 117.822 43.0443 117.88 43.0443 117.88L42.9289 117.822Z" fill="#FFCE5B"/>
<path d="M45.2946 117.072C45.5831 116.957 45.7562 116.841 45.9871 116.784C45.0638 117.13 44.1405 117.476 43.2172 117.822C43.6788 117.707 44.2559 117.534 45.2946 117.072C44.2559 117.534 45.5831 116.957 45.2946 117.072Z" fill="#FFCE5B"/>
<path d="M57.2398 110.724C59.1441 109.628 60.8752 108.358 62.6641 107.089C63.3566 106.57 63.8182 106.166 63.8182 106.166C62.8372 106.858 61.8562 107.551 60.8175 108.185C60.4136 108.993 57.0089 110.436 55.9125 111.475C55.9702 111.475 56.4896 111.186 57.2398 110.724C56.4896 111.186 58.0476 110.263 57.2398 110.724Z" fill="#FFCE5B"/>
<path d="M92.9022 57.6353C92.9022 57.5775 92.9599 57.4044 93.0176 57.1159C92.9599 57.289 92.9599 57.4621 92.9022 57.6353Z" fill="#FFCE5B"/>
<path d="M92.7291 56.481C92.7291 56.4233 92.7291 56.1347 92.6714 56.077C92.7291 56.077 92.556 57.2312 92.4983 57.3466C92.4406 57.9813 92.3829 58.6161 92.3252 59.1931C92.3252 59.9433 92.2675 60.6358 92.2675 61.386C92.0366 63.0018 91.8058 64.5598 91.4596 66.1756C91.0556 67.8491 90.594 69.4648 90.0746 71.0806C89.5553 72.4655 89.0936 73.7351 88.632 74.7161C88.8628 74.4852 89.0936 74.1967 89.3245 73.9659C90.4209 71.3114 91.1133 68.5415 91.6904 65.7716C92.2098 63.0595 92.4406 60.3473 92.9022 57.6351C92.7868 57.9236 92.7868 57.058 92.7291 56.481C92.6714 56.1347 92.7868 57.058 92.7291 56.481Z" fill="#FFCE5B"/>
<path d="M93.1906 51.5756C93.1906 51.9219 93.1906 52.2681 93.2483 52.6143C93.2483 52.672 93.4215 53.3645 93.4215 53.3645C93.5369 53.2491 93.4792 52.9029 93.4792 52.7298C93.4792 52.3835 93.5369 52.0373 93.5369 51.7487C93.4215 49.5559 92.7867 47.2477 92.8444 48.4595C93.306 49.4405 93.1329 50.4792 93.1906 51.5756C93.1906 51.1717 93.1906 51.9796 93.1906 51.5756Z" fill="#FFCE5B"/>
<path d="M88.3435 44.6511C87.9973 45.8052 87.651 46.9593 87.3625 48.1134C87.1317 49.2099 87.0163 50.3063 86.6123 51.345C87.4202 49.8446 88.055 48.1711 88.4012 46.4977C88.4589 46.1514 88.6897 45.5167 88.5743 45.1704C88.5166 45.055 87.9973 46.2668 87.9973 46.3245C88.5743 44.5934 89.0937 42.112 88.3435 44.6511C88.1704 45.3436 89.0937 42.112 88.3435 44.6511Z" fill="#FFCE5B"/>
<path d="M56.8362 71.1382C56.2591 71.0805 55.6821 71.0805 55.105 71.0228C55.105 71.0228 55.509 71.1382 55.8552 71.2536C56.2592 71.3114 56.6631 71.4268 56.6631 71.4268C57.2979 71.3691 57.9326 71.3113 58.5674 71.1382C57.9903 71.1382 57.4133 71.1959 56.8362 71.1382C56.4323 71.1382 57.2401 71.1959 56.8362 71.1382Z" fill="#FFCE5B"/>
<path d="M50.6039 42.2849C51.2386 41.0154 51.9311 39.8036 52.6813 38.5918C52.5659 38.5918 52.2196 39.2265 52.1619 39.3419C51.758 39.9767 51.2963 40.6115 50.9501 41.2462C50.8347 41.4194 49.2766 43.843 49.392 44.0161C49.7383 43.5545 50.0845 43.0928 50.4307 42.5735C50.5461 42.3426 50.6039 42.2849 50.6039 42.2849Z" fill="#FFCE5B"/>
<path d="M54.528 36.803C54.3548 36.9761 54.2971 37.0916 54.2971 37.0916C54.4125 37.0338 54.4702 36.9184 54.528 36.803Z" fill="#FFCE5B"/>
<path d="M57.4128 33.6291C57.7591 33.2829 58.0476 33.0521 58.0476 33.0521C58.0476 33.0521 57.7014 33.3406 57.2974 33.6869C56.9512 34.0331 56.5472 34.3216 56.5472 34.3216C56.0856 34.7833 55.5663 35.3026 55.1623 35.822C54.9315 36.1682 54.7584 36.5144 54.4698 36.803C55.4508 35.7066 56.4318 34.6679 57.4128 33.6291C57.0666 34.0331 57.8168 33.2829 57.4128 33.6291Z" fill="#FFCE5B"/>
<path d="M66.8767 26.7625C66.9344 26.7047 67.0498 26.7047 67.1075 26.647C67.1075 26.647 66.9921 26.7047 66.8767 26.7625Z" fill="#FFCE5B"/>
<path d="M66.1844 27.1086C66.4152 26.9932 66.646 26.8778 66.8768 26.7624C66.4729 26.9355 66.1267 27.1086 65.7227 27.2817C64.9725 27.7433 64.2801 28.205 63.5876 28.6667C62.8951 29.186 62.2604 29.6476 61.5679 30.167C61.5679 30.167 61.9141 29.9362 62.3758 29.5322C62.8951 29.186 63.5299 28.6666 64.2224 28.2627C64.9148 27.8588 65.665 27.4548 66.1844 27.1086C65.665 27.4548 66.4729 26.9932 66.1844 27.1086Z" fill="#FFCE5B"/>
</svg>
