<svg width="100" height="146" viewBox="0 0 100 146" fill="none" xmlns="http://www.w3.org/2000/svg">
<path d="M9.89129 122.787C9.83093 122.847 9.64987 122.666 9.40845 122.304C10.5552 124.96 10.1931 123.753 10.1327 123.33C10.7363 124.658 11.4002 125.986 12.0037 127.253C12.0037 127.434 11.883 127.434 11.2794 126.288C12.1848 128.521 12.5469 128.762 12.8487 128.943C14.1161 131.357 15.3836 133.772 16.8321 136.065C17.0132 136.548 17.1942 136.91 17.2546 137.272C18.4013 139.083 19.2463 140.109 19.7895 140.652C19.8499 140.712 19.8498 140.712 19.9102 140.773C20.7552 141.859 21.7209 142.885 22.8676 143.67C22.7469 143.609 22.6865 143.549 22.6262 143.549C22.264 143.368 22.0226 143.247 22.0226 143.428C22.5658 143.851 23.2297 144.153 23.8333 144.454C24.4972 144.756 25.2818 145.239 26.0061 145.299C26.5493 145.36 26.851 145.179 27.0924 144.816C27.9374 143.73 27.9978 142.04 28.1185 140.712C28.2996 138.962 28.6617 137.272 29.0238 135.582C29.8688 131.538 30.7741 127.495 31.9812 123.572C32.5847 121.58 33.309 119.648 34.0333 117.717C34.4557 116.631 35.18 115.605 34.5161 114.518C33.5504 112.889 31.4984 111.561 29.7481 111.018C28.9635 110.776 28.6617 110.776 28.3599 111.561C27.6356 113.311 26.9717 115.122 26.3682 116.933C25.1007 120.675 24.135 124.417 23.3504 128.279C21.9623 122.063 21.238 115.605 20.9966 109.267C20.9966 109.267 20.9966 109.267 20.9966 109.328C21.1777 106.974 21.0569 106.37 20.9362 105.827C20.9362 104.862 20.9362 103.896 20.9362 102.93C21.0569 103.835 21.3587 104.56 21.4794 105.465C21.238 102.93 21.1173 102.085 20.9362 100.999C20.9966 100.154 20.9966 99.3089 21.0569 98.5242C21.1173 98.2225 21.238 98.4639 21.2984 98.3432C21.238 97.6189 21.238 96.8343 21.1777 96.1101C21.3587 93.6355 21.6001 91.2213 21.9623 88.8071C22.0226 88.8675 22.083 88.5053 22.3244 86.574C22.9883 82.4698 23.954 78.3657 25.1007 74.3219C25.3422 74.5633 25.5836 74.8048 25.825 75.0462C26.1268 75.4083 26.3682 75.7101 26.4889 75.8911C26.5492 76.0119 26.6096 76.0722 26.67 76.1326C26.851 76.0722 27.0321 76.1929 27.1528 76.2533C29.1445 77.9432 31.3173 79.3917 33.5504 80.4781C33.7315 80.5988 33.9126 80.6592 34.154 80.7799C35.5421 81.5042 37.051 82.0474 38.4995 82.5906C38.922 82.8923 38.4995 82.832 38.1978 82.7716C37.5339 82.5905 36.8699 82.4095 36.2664 82.1681C34.9989 81.6852 33.7918 81.142 32.5244 80.5988C33.9126 81.3231 35.3007 82.0473 36.8096 82.4698C38.1977 82.8923 39.5859 83.0734 41.0344 83.3148C41.2758 83.3148 41.5776 83.3752 41.9397 83.4355C43.1468 83.7373 44.7765 83.7977 46.3457 83.7977C48.5185 83.9184 50.7516 83.858 52.9847 83.6166C52.864 83.6769 52.7433 83.6769 52.6226 83.7373C53.709 83.5562 54.7954 83.4355 55.8818 83.4355C57.1492 83.3752 58.3563 83.0734 59.5634 82.6509C58.8995 82.7716 58.1149 82.832 57.1492 82.9527C59.6841 82.4095 62.1587 81.5645 64.5125 80.5988C65.2368 80.3574 65.5989 80.2367 65.1764 80.6592C66.5646 79.9953 68.1338 79.3314 69.2806 78.245C70.4273 77.5811 71.574 76.8568 72.7208 76.1326C72.3586 76.4947 71.9965 76.7965 71.6344 77.0982C71.5137 77.1586 70.1859 77.9432 70.2462 78.1846C70.2462 78.245 71.8154 77.4604 71.9361 77.4604C72.9018 76.6758 73.8675 75.8308 74.8332 74.9858C75.0142 74.9255 75.4367 74.684 75.9799 74.3219C76.8249 73.7184 77.7302 73.0545 78.5752 72.3906C78.6959 72.3302 80.1444 71.2438 80.2048 71.4249C81.7137 69.916 81.8344 69.5539 82.9811 68.2261C84.3089 67.2604 85.3953 66.0533 86.3006 64.6651C85.9385 65.0876 85.5764 65.4497 85.2746 65.8119C82.9208 68.2261 80.4462 70.3988 77.8509 72.5113C77.3077 72.9338 76.7042 73.4166 75.9196 74.0201C75.9196 73.9598 76.0403 73.8391 76.2214 73.7184C81.2912 69.7349 85.7574 64.9066 89.4391 59.716C89.9219 59.2935 88.8959 61.1042 88.8355 61.4663C90.2841 59.6557 90.8876 58.5089 91.4308 57.4829C91.9136 56.4569 92.4568 55.4912 93.5432 53.7409C93.3018 54.2237 93.0604 54.7066 92.819 55.2498C92.7586 55.3705 92.5172 55.6722 92.5776 55.8533C92.5776 55.7326 93.2414 54.8876 93.3622 54.7669C93.6639 54.2841 93.9657 53.7409 94.2675 53.1977C94.871 52.1717 95.4142 51.0853 95.9574 50.0592C95.1728 50.9042 94.6296 51.8699 94.0261 52.8356C93.2415 54.0427 92.5172 55.1894 91.7326 56.3362C95.0521 51.0249 97.587 45.1705 98.613 39.0143C99.6391 32.9788 99.1562 26.4001 95.4746 21.2096C93 17.709 89.3787 15.5362 85.2142 14.7516C85.1539 14.7516 85.1539 14.6913 85.1539 14.6913C85.0935 14.6913 84.9728 14.6913 84.9125 14.6913C82.8604 14.3291 80.748 14.2688 78.6356 14.3895C79.1788 14.2084 79.9634 14.0877 81.2308 14.0877C77.9113 13.7256 74.5314 14.2084 71.3326 15.0534C68.1941 15.838 64.935 17.0451 62.2794 18.8557C61.9776 18.9765 61.6758 19.0972 61.374 19.2782C61.3137 19.2782 60.5894 19.5196 60.5894 19.4593C60.5894 19.2782 61.193 18.9765 61.3137 18.9161C61.9172 18.554 62.5208 18.2522 63.064 17.8901C64.2711 17.3469 65.4782 16.8037 66.6853 16.2001C62.8225 17.5279 59.0806 19.2179 55.58 21.3303C52.1397 23.3824 49.0013 25.8569 45.9835 28.4522C44.0522 30.3232 42.0605 32.1338 40.3102 34.1859C38.4995 36.238 36.8096 38.3504 35.18 40.5232C34.6368 41.3078 34.0333 42.1527 33.4297 42.9977C33.6108 43.2995 33.4297 43.6616 33.1279 44.2652C32.8262 44.8687 32.4037 45.6533 31.9812 46.7397L31.0759 47.7657C31.3776 47.4036 31.1362 48.2486 31.438 48.0675C28.6617 52.6545 26.2475 57.4829 24.1954 62.432C23.2901 60.6817 22.5055 58.8711 21.8416 57.0001C22.3848 57.845 22.9883 58.6296 23.5315 59.535C23.3504 59.2332 23.2297 58.9314 23.0487 58.6296C22.5658 57.5432 22.083 56.4569 21.7208 55.3101C21.1776 53.8012 20.8759 52.4131 20.5741 50.9646C20.0309 48.0675 19.5481 45.0498 19.186 40.7042C19.4877 41.3681 19.4877 42.2131 19.6084 42.9374C19.7895 44.0237 19.9706 45.1101 20.1516 46.1965C20.5138 47.9468 20.8759 49.6971 21.3587 51.4474C21.0569 50.0592 20.5741 48.0675 20.3327 46.3776C20.212 45.774 20.1516 45.1705 20.0913 44.5669C20.0913 44.3255 19.9102 43.4202 20.0913 43.1788C19.9102 42.9977 19.7291 42.8166 19.6084 42.6356C19.3066 37.5054 20.0309 43.2995 20.2723 41.6096C20.1516 39.98 20.1516 38.29 20.0309 36.6604C20.0309 36.1776 20.0309 35.3326 19.6084 35.0309C19.4877 34.9101 19.3067 34.9101 19.2463 34.7894C19.0049 34.4877 19.0049 34.0652 18.9445 33.7031C19.0652 32.0131 19.3067 30.3835 19.5481 28.6936C19.6688 28.2711 19.7291 27.7883 19.8499 27.2451C20.0913 25.9776 20.3931 24.7705 20.6948 23.5031C20.6948 23.6841 20.6948 23.8048 20.7552 23.8652C20.8759 24.0463 21.0569 23.8048 21.238 23.6238C21.2984 22.3563 21.5398 21.0889 22.083 19.8818C22.6262 18.554 23.3504 17.3469 23.954 16.0794C24.5575 15.0534 25.2214 13.7256 26.1871 12.096C26.3682 12.096 26.0061 12.8806 25.5836 13.7256C25.2214 14.5705 24.8593 15.5362 24.9197 15.7776C26.1871 12.7599 28.0581 10.1043 29.8084 7.38831C30.2913 6.7244 30.593 6.24157 30.6534 6.00015C32.0416 4.49128 33.4901 3.10311 34.9989 1.71495L35.1196 1.59423C35.18 1.53388 35.18 1.47353 35.2404 1.41317C35.3007 1.29246 35.3611 1.1114 35.3611 0.869983C35.3611 0.749273 35.3007 0.688918 35.2404 0.568208C35.18 0.507853 35.1197 0.447487 35.0593 0.387132C34.5765 0.0250027 33.9125 0.0249991 33.309 0.0249991C33.3694 -0.0353559 33.309 0.0250027 33.2487 0.0853577C33.1883 0.0853577 33.1883 0.0853577 33.1279 0.0853577L33.0676 0.145716C31.7398 0.206071 30.412 0.507838 29.3256 1.2321C28.1788 1.95636 27.1528 3.10311 26.2475 4.12914C26.7907 3.5256 27.3339 2.9824 27.8771 2.3185C27.9978 2.19779 28.1788 2.01671 28.1185 1.83565C28.1185 1.77529 27.9978 1.71495 28.1185 1.47353C28.2996 1.1114 28.541 0.809628 28.8428 0.568208C28.9031 0.507853 29.0238 0.447487 29.0842 0.387132C28.8427 0.568197 28.6013 0.749258 28.4203 0.930323C28.2996 1.05103 28.2392 1.1114 28.1788 1.17176L27.9978 1.41317C24.6179 5.21553 21.4794 9.1386 19.2463 13.6652C17.7374 16.2001 16.5907 18.9764 15.6853 21.7528C15.5646 21.6924 15.5043 21.5114 15.4439 21.0889C13.9351 25.1327 13.9954 25.8569 13.9954 26.4001C14.1161 27.7279 13.6937 29.1161 13.4522 30.4439C13.573 29.9007 13.6936 29.3575 13.8144 28.8143C13.8747 28.5125 14.0558 28.1504 14.0558 27.8486C14.0558 27.909 14.0558 27.9693 14.0558 28.0297C13.2712 31.8924 12.909 35.8155 12.909 39.7385C12.7883 39.4971 12.6676 39.0746 12.6676 40.2214C13.0901 41.851 12.9694 43.6013 13.1505 45.2309C13.1505 45.774 13.2108 46.3776 13.2108 46.9208C13.3315 48.2486 13.4522 49.5764 13.5729 50.7835C13.754 51.9906 13.9954 53.077 14.1765 53.8616L13.8144 52.7149C13.8144 52.7149 13.9954 53.9823 14.2368 55.3101C14.5386 56.5776 14.9007 57.845 14.9007 57.845C14.9007 57.9054 14.9007 57.845 14.9007 57.9054C14.9611 57.9657 15.0214 58.0261 15.0818 58.0864C15.2629 59.6557 15.8664 61.2249 16.4096 62.7338C17.0735 64.4237 17.9185 66.2947 19.0049 67.7432C19.5481 68.2864 19.9706 69.0107 20.4534 69.6746C20.4534 69.8557 20.393 70.0367 20.3327 70.2178C19.6688 72.2699 19.0652 74.3219 18.522 76.374C18.0996 78.0639 17.5564 79.8142 17.4357 81.5042C17.7374 79.6331 18.2203 77.8829 18.8238 76.0722L19.186 76.5551C18.6428 78.4864 18.5221 78.5468 18.4617 78.5468C18.4013 78.5468 18.2806 78.5468 18.0392 80.4781C18.4617 80.1764 18.5824 79.271 18.7031 78.7882C18.8842 78.0639 19.0652 77.3397 19.2463 76.5551C19.5481 75.1669 19.8498 73.7184 20.3327 72.3302C20.0913 73.7184 19.7895 75.1065 19.4877 76.4947C19.7292 75.5894 19.9706 74.6841 20.2723 73.8391C19.9102 74.9858 19.6084 76.0722 19.3066 77.219C19.367 76.9775 19.4274 76.7361 19.4877 76.4947C19.186 77.7621 18.7635 79.0296 18.522 80.2971C18.341 81.142 18.0996 82.0474 17.9185 82.8923C17.8581 82.6509 17.7374 82.7113 17.496 83.4355C17.0735 85.1858 16.651 86.9965 16.5303 88.8071C16.5303 89.4107 16.5303 89.9538 16.47 90.5574C16.2889 91.8248 16.1078 93.0923 15.9871 94.4201C15.625 95.2047 15.4439 94.6012 15.0215 99.2485L15.0818 95.3254C14.1161 99.0071 15.0215 98.9467 14.7197 101.783C15.0215 100.395 15.1422 99.0071 15.2629 97.6189C15.5043 97.3171 15.3836 99.7917 15.3836 100.999L15.4439 100.214C15.4439 100.275 15.4439 100.335 15.5043 100.395C15.3232 103.715 15.2629 107.034 15.3232 110.354V110.414C15.2629 110.052 15.2629 109.69 15.2025 109.328C15.3836 111.923 15.4439 114.579 15.6853 117.234V117.174C15.6853 117.234 15.6854 117.295 15.7457 117.415C15.8664 118.803 15.9872 120.192 16.1682 121.519C16.0475 121.218 15.9268 121.459 16.2286 122.908C15.9268 122.546 15.8664 121.882 15.8061 121.399C15.6854 120.735 15.625 120.071 15.5647 119.407C15.3836 117.959 15.2629 116.51 15.2025 115.061C15.2629 116.088 15.4439 117.295 15.2025 118.26C15.1422 118.562 15.0215 118.14 15.0215 118.079C14.8404 117.415 14.78 116.691 14.7197 116.027C14.4783 117.174 15.2025 119.83 15.3232 122.002C15.3836 121.58 15.625 122.304 15.6853 122.123C15.5043 122.183 15.6853 123.511 15.9871 125.02C13.9954 120.614 12.0037 116.148 10.1931 111.682C9.28774 109.448 8.44276 107.215 7.65815 104.922C7.29602 103.775 6.93388 102.568 6.63211 101.421C6.33033 100.335 6.08892 99.4296 5.24395 98.5242C5.36466 98.4639 5.54573 98.5846 5.66644 98.5846C5.96822 98.5846 5.42501 97.9207 5.42501 97.9207C4.88181 97.3171 4.33862 96.955 3.91613 96.6532C3.43329 96.3515 2.95045 96.0497 2.40726 95.929C1.92442 95.8083 1.80373 95.8686 1.4416 96.1101C1.07947 95.9893 0.656967 95.8083 0.294837 95.929C-0.188002 95.9893 0.0534251 96.5929 0.11378 96.955C0.415555 98.2225 0.777677 99.4899 1.20016 100.757C1.98478 103.292 2.89011 105.827 3.85579 108.302C5.42502 113.13 7.65815 117.959 9.89129 122.787C9.83093 122.787 5.96822 114.337 9.89129 122.787ZM27.7563 67.6225C27.8167 67.6829 27.9374 67.7432 27.9978 67.7432C28.1185 68.045 27.8771 68.1054 27.5753 67.9243C27.5149 67.8639 27.4546 67.7432 27.3942 67.6829C27.5753 67.2 27.7563 66.7776 27.8771 66.3551C27.7563 66.7172 27.6356 67.2 27.7563 67.6225C27.8167 67.6829 27.696 67.5622 27.7563 67.6225ZM43.8711 80.0556C44.6557 80.3574 45.4403 80.5988 46.225 80.8403C45.5007 80.6592 44.8368 80.4781 44.1729 80.2971C44.0522 80.2367 43.9918 80.1763 43.8711 80.0556ZM27.5753 67.9243C27.9374 68.2261 27.9978 68.4071 28.0581 68.5882C27.877 68.3468 27.7563 68.1657 27.5753 67.9243ZM33.2487 0.326774C33.309 0.266419 33.309 0.326774 33.2487 0.326774V0.326774ZM33.3694 0.206075C33.309 0.26643 33.309 0.26643 33.3694 0.206075V0.206075ZM33.5504 0.326774C33.6711 0.326774 33.8522 0.326777 33.9729 0.387132C33.8522 0.387132 33.7315 0.326774 33.5504 0.326774ZM33.3694 0.266434C33.309 0.266434 33.3693 0.266419 33.4901 0.326774L33.3694 0.266434ZM91.129 57.3622C89.8616 59.2332 90.2237 58.5089 89.5598 59.2332C90.103 58.4486 90.6462 57.6036 91.1894 56.819L91.129 57.3622ZM91.5515 44.2048L91.3705 44.0238C91.5515 43.2995 91.6119 43.6616 91.8533 43.2995C91.7326 43.6013 91.6722 43.903 91.5515 44.2048ZM91.8533 43.1788C91.6722 43.3598 91.5515 42.6356 91.4308 42.5149C90.948 43.903 91.4912 44.1444 90.948 45.2912C91.1894 43.2995 90.5255 45.8948 90.0426 46.438C90.5858 46.2569 91.0083 45.6533 91.5515 44.3859C90.103 49.4557 87.6888 54.2237 84.7917 58.6296C84.7314 58.6296 84.7314 58.6296 84.7314 58.6296C84.7314 58.69 84.7314 58.69 84.7314 58.7504C84.3693 59.2935 84.0071 59.8367 83.5846 60.3799C83.5846 60.1989 83.645 59.8971 83.8864 59.5953C82.4983 60.7421 80.6273 63.277 80.2048 64.6651C80.1444 64.7255 80.1444 64.7255 80.0841 64.7858C78.9977 65.4497 80.3859 63.6391 80.6273 62.9148C77.6095 66.2344 74.4711 69.3728 71.0912 72.2699C71.393 72.813 70.9101 72.8734 70.6687 73.658L70.1859 73.7184C70.3669 73.658 70.2462 74.0201 70.4877 74.0805C68.6167 75.529 66.6853 76.7965 64.6332 77.8829C64.8143 77.5207 64.9954 77.1586 65.3575 76.7965C64.6332 77.5207 63.6072 77.9432 62.7019 78.3657C61.6758 78.7882 60.7101 79.1503 59.6841 79.6332C59.8652 79.2107 60.6498 78.8485 61.0119 78.6675C61.5551 78.3657 62.0983 78.1243 62.5811 77.7622C61.7362 78.1243 60.348 78.9693 60.1669 78.6675V79.1503C58.6581 79.6935 60.2273 78.7278 59.6238 78.6071C59.0806 78.7882 58.296 78.9692 57.9942 79.4521C57.6924 79.8746 58.1149 80.2971 57.6924 80.7195C57.2096 80.8403 56.7267 80.961 56.2439 81.0817C56.0628 81.0817 55.8817 81.0817 55.6403 81.2024C55.2782 81.2627 54.9161 81.3231 54.4936 81.3835C54.735 81.2024 54.5539 80.961 54.4332 80.8403C53.8297 81.3835 53.4675 81.3834 52.9243 81.2627C52.1397 81.0817 51.3551 81.0213 50.5102 81.0213C50.5102 80.9006 50.7516 80.7799 51.0534 80.7195C51.3551 80.5988 51.6569 80.5385 51.7172 80.3574C50.4498 80.6592 48.5185 80.5385 48.1563 80.961C47.0699 80.8402 46.1646 80.5385 45.3196 80.2971C44.535 80.0556 43.8108 79.7539 43.2072 79.6332C43.4486 79.6935 44.0522 79.8746 44.1729 79.5728C44.2936 79.271 44.535 79.2107 44.8971 79.2107C44.354 79.2107 43.8711 79.2107 43.3279 79.1503C42.7244 79.09 42.0001 78.9692 41.3362 78.8485C40.793 78.7278 40.1895 78.6071 39.5859 78.4261C38.8013 78.0036 38.0167 77.5207 37.2321 77.0379C37.2924 76.9172 37.4131 76.8568 37.6546 76.7361C35.6628 74.9255 36.6889 76.7361 34.7575 75.1065L35.6629 75.8911C35.6025 75.8911 35.5421 75.8308 35.5421 75.8308C34.5765 75.1065 33.6108 74.3219 32.7054 73.5373C32.8865 73.477 33.0676 73.477 32.7658 73.2355C31.5587 73.1148 30.593 70.761 29.8688 70.0367L30.1705 70.2781L29.3859 68.8296C29.3256 68.8296 29.2652 68.8296 29.2652 68.8296C29.2049 68.5882 29.1445 68.3468 29.0238 68.045V67.9243C29.0238 67.8639 29.0238 67.8036 28.9634 67.7432C28.9634 67.6225 28.8427 67.5018 28.9634 67.3811C29.0238 67.3207 29.0238 67.2604 29.0238 67.2L29.0842 67.0793L29.1445 66.9586C28.9635 66.2947 29.567 65.2083 29.7481 64.6048C29.9895 63.9409 30.593 62.9752 30.4723 62.2509C30.3516 62.7941 30.1705 63.277 29.8084 63.8805L29.3859 63.5787C29.8688 62.432 29.8084 63.6391 30.0499 62.432C29.3859 62.3717 29.3859 64.0616 29.0238 64.8462C29.0238 64.4841 29.0238 64.0012 29.2049 63.458C29.0842 63.7598 28.9635 64.0012 28.8428 64.303C28.9635 63.9409 29.1445 63.5184 29.2652 63.1563C29.2049 63.277 29.2049 63.3373 29.1445 63.458C29.3256 63.0959 29.4463 62.6734 29.567 62.3113C29.6877 62.0699 29.8084 61.7681 29.8688 61.5267C29.9291 61.6474 30.0498 61.6474 30.1705 61.4663C30.8948 60.2592 30.7741 59.8971 30.7741 59.2935C30.9551 58.9314 31.1362 58.5693 31.2569 58.1468C31.5587 58.0261 31.8001 58.2675 32.4037 56.9397L32.1623 58.1468C33.1883 57.3622 32.4037 57.0001 32.8865 56.2758C32.6451 56.4569 32.464 56.3965 32.0416 57.3622C31.8001 57.3622 32.0416 56.6379 32.1623 56.2758L32.0416 56.4569V56.3965C32.464 55.4308 32.9469 54.5255 33.4297 53.6202C33.4297 53.6202 33.4297 53.6202 33.4901 53.5598L33.4297 53.922C33.7315 53.1373 34.0936 52.3527 34.4558 51.6285L34.5161 51.6888C34.5161 51.6285 34.5765 51.5681 34.5765 51.4474C34.7575 51.0853 34.9386 50.7231 35.1196 50.361C35.18 50.5421 35.2404 50.6024 35.4818 50.1196C35.7836 50.6628 34.7575 51.9906 34.4558 52.3527C34.6368 52.1113 34.8782 51.7492 35.18 51.6285C35.5421 51.5077 35.1196 52.2924 35.1196 52.3527C35.6025 52.232 35.5421 51.2663 36.025 50.7231C35.8439 50.7835 35.8439 50.5421 35.7232 50.5421C36.1457 50.7231 36.9303 48.4297 36.6889 48.1882L36.3267 49.3953C36.0853 49.335 36.206 48.7314 36.206 48.3693C37.8356 45.5326 39.6463 42.877 41.5776 40.2817C41.6983 40.4025 41.7587 40.7646 42.1208 40.5232C43.1469 39.4971 42.664 39.3764 42.483 39.0746C44.4143 36.5397 46.5267 34.1859 48.8202 31.8924C48.8806 31.9528 48.8806 32.0131 48.8806 32.1942C49.6048 31.5906 49.1823 31.7717 49.0013 31.7717C49.3031 31.4699 49.6652 31.1078 49.967 30.806C50.0877 30.8664 50.2688 30.8664 49.967 31.2889C50.6309 30.8664 50.5705 30.625 50.4498 30.3835C51.0534 29.78 51.6569 29.2368 52.3208 28.6936C52.5019 28.6332 52.6829 28.6332 52.8036 28.6332C53.4072 28.0901 53.6486 27.7279 53.7693 27.4865C54.1315 27.1847 54.4332 26.9433 54.7954 26.6415C54.6747 26.8226 54.6143 27.0037 54.7954 27.1847C55.1575 26.4605 55.7007 25.9776 56.3646 25.4344C57.2096 24.7705 58.1149 24.167 59.0202 23.5634C60.7102 22.4167 62.4001 21.3907 64.2107 20.4853C67.7717 18.6143 71.6947 17.1054 75.7385 16.7433C75.8592 16.7433 75.9196 16.7433 76.0403 16.7433C76.6438 16.683 77.2474 16.683 77.8509 16.683H77.7906C78.1527 16.8037 78.3941 16.8037 78.5752 16.8037C78.6959 16.8037 78.8166 16.7433 78.877 16.7433C79.1787 16.7433 79.5409 16.8037 79.8427 16.864C79.5409 16.9847 79.2995 17.2262 78.9977 17.3469C79.7823 17.2865 80.0841 17.1054 80.3858 16.9847C80.6273 17.0451 80.929 17.1055 81.1705 17.1658C81.2308 17.2865 81.1705 17.3469 81.1705 17.4072C81.4722 17.4072 81.7137 17.3469 81.8947 17.3469C82.619 17.5883 83.3433 17.8297 84.0675 18.1918C84.0675 18.2522 84.1882 18.3125 84.7917 18.554C86.0592 19.2179 87.206 20.0628 88.1716 21.0889C88.232 21.2699 88.2923 21.451 88.232 21.5114C88.3527 21.451 88.4131 21.451 88.5941 21.5114C89.077 22.0546 89.5598 22.6581 89.9219 23.322C89.9823 23.5031 90.103 23.6841 90.1634 23.8652C90.4048 24.4084 90.6462 25.012 90.6462 25.012C90.5255 25.3137 90.3444 25.0723 90.1634 24.7102C89.9219 24.348 89.6805 23.8048 89.3787 23.5634C89.6202 24.0463 89.8616 24.5291 90.1634 24.9516C90.4651 25.3137 90.8273 25.6155 91.0687 26.038C91.1894 26.3398 91.3704 26.6415 91.5515 27.0037C91.6119 27.1244 91.6722 27.2451 91.7326 27.3054C91.974 27.9693 92.1551 28.6332 92.2758 29.2971C92.2154 29.2368 92.2154 29.1764 92.1551 29.1764C92.3361 29.9007 92.2154 30.0818 92.1551 30.3232C92.0947 30.5042 92.0344 30.7457 92.2758 31.4096C92.3361 31.1681 92.4568 30.9267 92.4568 30.5646C92.5775 31.3492 92.6983 32.1942 92.7586 32.9788C92.7586 33.2806 92.6379 33.4013 92.4568 33.2202C92.5172 33.9445 92.6983 34.4877 92.8793 34.6687C92.8793 35.0912 92.8793 35.5137 92.8793 35.9362C92.5776 35.393 92.5172 34.2463 92.2154 35.5137C92.3361 35.8758 92.5172 36.2983 92.5776 36.6604C92.3965 36.8415 92.2758 38.7125 91.8533 38.5918C91.8533 39.2557 91.974 39.3764 92.0343 39.9196C91.7326 40.4024 91.5515 40.7042 91.7326 41.3681C92.3965 38.6521 92.4568 39.4971 92.7586 37.0829C92.819 37.1433 92.819 37.4451 92.7586 37.7468L92.819 37.5658C92.6379 39.4368 92.2758 41.3078 91.8533 43.1788C92.2758 41.3078 91.6119 43.4202 91.8533 43.1788ZM33.6711 2.01672C33.7315 1.95637 33.7315 2.01672 33.6711 2.01672V2.01672ZM34.335 0.50785C34.335 0.50785 34.2747 0.507846 34.2143 0.447491C34.2747 0.447491 34.2747 0.50785 34.335 0.50785ZM28.4806 2.01672C29.567 0.990689 30.9552 0.507838 32.464 0.326774C32.464 0.326774 32.464 0.326777 32.4037 0.387132C31.1966 0.568197 29.8688 0.930334 28.9634 1.71495C28.722 1.83566 28.4806 2.01672 28.1788 2.3185C28.1788 2.3185 28.2392 2.19779 28.4806 2.01672C28.6617 1.83566 28.2392 2.19779 28.4806 2.01672ZM16.5303 60.6817C16.7717 61.2852 17.0132 61.8888 17.3149 62.432C17.0132 61.8285 16.7114 61.2852 16.5303 60.6817C16.7717 61.2852 16.5907 60.8024 16.5303 60.6817ZM18.8238 65.6308C18.2203 64.6651 17.6167 63.7598 17.0735 62.9148C16.7718 62.1302 16.8321 61.8888 16.9528 62.0095C17.0132 62.0699 17.1942 62.2509 17.3149 62.4923C17.9788 63.9409 18.7635 65.329 19.5481 66.7172C19.3067 66.3551 19.0652 65.9929 18.8238 65.6308C19.0652 65.9929 18.2806 64.6048 18.8238 65.6308ZM16.47 126.77C16.3493 126.529 16.2889 126.288 16.1682 126.106C16.2286 126.227 16.3493 126.469 16.47 126.77Z" fill="#FFCE5B"/>
<path d="M33.3695 53.9224C33.2488 54.2845 33.1281 54.6466 33.1281 55.0087L33.3695 53.9224Z" fill="#FFCE5B"/>
<path d="M35.9641 50.7828C36.0242 50.7828 36.0843 50.7227 36.1444 50.6025C36.0843 50.6626 36.0242 50.7227 35.9641 50.7828Z" fill="#FFCE5B"/>
<path d="M60.1665 78.5455V78.3052C60.1064 78.4254 60.1064 78.4855 60.1665 78.5455Z" fill="#FFCE5B"/>
<path d="M32.1627 56.2753C32.2228 56.095 32.2828 55.9748 32.1627 56.2753V56.2753Z" fill="#FFCE5B"/>
<path d="M33.3091 55.855C33.0677 56.036 32.947 56.1568 32.8866 56.3378C32.947 56.2171 33.1281 56.0964 33.3091 55.855Z" fill="#FFCE5B"/>
<path d="M84.731 58.5682C84.731 58.5084 84.731 58.4487 84.731 58.4487C84.6712 58.5085 84.6712 58.5682 84.731 58.5682Z" fill="#FFCE5B"/>
<path d="M29.266 68.7698C29.3261 68.7698 29.3862 68.7698 29.5064 68.7698C29.3862 68.7097 29.3261 68.6496 29.266 68.7698Z" fill="#FFCE5B"/>
<path d="M30.2304 68.8903C30.1701 69.1317 29.8683 68.8299 29.5062 68.7092C29.9286 69.011 30.7736 69.9767 30.2304 68.8903Z" fill="#FFCE5B"/>
<path d="M85.8172 55.1299L86.3604 53.7417L85.9379 54.0435C85.9379 54.3452 85.5758 55.3109 85.8172 55.1299Z" fill="#FFCE5B"/>
<path d="M87.7499 51.6893C87.9913 51.2668 88.2931 50.9047 88.5345 50.4822L88.3535 49.3354C87.7499 50.7236 88.4138 50.3011 87.7499 51.6893Z" fill="#FFCE5B"/>
<path d="M89.6813 48.1293V48.4915C89.7416 48.1897 89.7416 48.069 89.6813 48.1293Z" fill="#FFCE5B"/>
<path d="M89.4994 47.9476L89.2579 47.2837C89.2579 47.2837 89.1976 47.7665 89.0769 48.189C88.9562 48.6719 88.8354 49.0943 88.8354 49.0943L89.1976 48.4908C89.3787 48.5511 89.5597 48.1287 89.6804 48.0683L89.6201 47.2837C89.6201 47.5251 89.5597 47.8872 89.4994 47.9476Z" fill="#FFCE5B"/>
<path d="M90.0415 46.4385C89.9814 46.4385 89.9214 46.4986 89.8613 46.4986C89.9214 46.5587 89.9814 46.4986 90.0415 46.4385Z" fill="#FFCE5B"/>
<path d="M90.8274 26.4609L91.0689 27.3059L91.3706 27.487C91.2499 27.1852 91.0688 26.8231 90.8274 26.4609Z" fill="#FFCE5B"/>
<path d="M88.0503 21.4509C87.9905 21.4509 87.9308 21.5107 87.9308 21.5107C87.9905 21.5704 88.0503 21.5107 88.0503 21.4509Z" fill="#FFCE5B"/>
<path d="M78.7557 17.3464C78.5746 17.3464 78.4539 17.3464 78.2728 17.4068C78.4539 17.4671 78.5746 17.4068 78.7557 17.3464Z" fill="#FFCE5B"/>
<path d="M88.0503 21.9346L87.6278 21.6328L87.7486 21.9949L88.0503 21.9346Z" fill="#FFCE5B"/>
<path d="M77.7305 17.5283L77.308 17.7698L77.6701 17.7094C77.9115 17.7094 78.0323 17.5283 77.7305 17.5283Z" fill="#FFCE5B"/>
<path d="M75.1349 17.407L76.342 17.3466L75.5574 17.1052L75.1349 17.407Z" fill="#FFCE5B"/>
<path d="M38.0764 46.6801C38.861 45.8955 39.0421 44.8091 39.706 43.9641C38.9817 44.628 38.4385 45.8351 38.0764 46.6801Z" fill="#FFCE5B"/>
<path d="M35.24 54.4048C35.24 54.103 35.3607 53.7409 35.0589 54.2238L34.9382 52.9563C34.0329 54.3445 34.9986 54.3445 35.24 54.4048C35.3003 54.103 34.9986 54.3445 35.24 54.4048Z" fill="#FFCE5B"/>
<path d="M31.5591 62.8552L31.8609 61.3463L31.5591 62.0705C31.4384 61.5877 31.4384 61.2859 31.4384 60.6824C31.1366 61.7688 31.0159 62.8552 31.5591 62.8552Z" fill="#FFCE5B"/>
<path d="M31.8601 59.415C31.7998 59.5961 31.7394 59.7772 31.679 59.9582C31.7997 59.8375 31.9808 59.7772 31.8601 59.415Z" fill="#FFCE5B"/>
<path d="M31.4389 60.5005C31.4389 60.5608 31.4389 60.6212 31.4389 60.7419C31.4992 60.5005 31.5596 60.1987 31.6803 59.9573C31.5596 60.0176 31.4389 60.1383 31.4389 60.5005C31.4389 60.5608 31.4389 60.1383 31.4389 60.5005Z" fill="#FFCE5B"/>
<path d="M30.7744 63.76C30.4726 64.5446 30.1708 65.3896 29.9294 66.2346L30.4122 65.3292C30.1105 64.9671 31.0761 64.3032 30.7744 63.76Z" fill="#FFCE5B"/>
<path d="M37.8964 75.41C37.0514 75.3496 35.1201 73.9614 34.3355 73.1165L34.2751 73.5993C34.8183 74.1425 35.6029 74.5046 36.2668 74.8667C36.8704 75.1685 37.655 75.4703 38.0171 76.1342C37.9567 75.7721 39.2846 76.436 37.8964 75.41C39.2846 76.436 37.0514 75.2892 37.8964 75.41Z" fill="#FFCE5B"/>
<path d="M38.016 76.073C38.016 76.1327 38.016 76.1327 38.0758 76.1925C38.0758 76.1327 38.016 76.073 38.016 76.073Z" fill="#FFCE5B"/>
<path d="M38.8618 77.0385C38.5601 77.0385 38.8619 77.28 38.9826 77.461C39.4654 77.8232 40.1293 77.9439 39.9482 77.6421C39.2843 77.8835 39.5258 77.0385 38.8618 77.0385C39.5258 77.0385 38.5601 76.9782 38.8618 77.0385Z" fill="#FFCE5B"/>
<path d="M45.803 79.8753C45.3201 79.8149 44.7166 79.6339 45.3201 79.9357C46.7083 80.2374 46.4669 79.6942 47.1911 79.5735C46.1047 79.0303 44.958 79.4528 45.803 79.8753C45.3201 79.7546 44.958 79.4528 45.803 79.8753Z" fill="#FFCE5B"/>
<path d="M56.2438 80.5997L57.0284 79.9358H56.6059L56.2438 80.5997Z" fill="#FFCE5B"/>
<path d="M64.5121 76.5557C64.6328 76.5557 64.8139 76.5557 64.8139 76.5557L65.5985 75.7107C65.5985 75.7107 64.2706 76.616 64.2706 76.5557C64.2103 76.5557 64.331 76.5557 64.5121 76.5557C64.6328 76.5557 64.331 76.5557 64.5121 76.5557Z" fill="#FFCE5B"/>
<path d="M66.2638 75.7709C66.2638 75.7709 66.5655 75.5899 66.8673 75.4088C67.1691 75.2278 67.4709 74.9863 67.4709 74.9863L66.988 75.1674C66.3241 75.4088 66.6862 75.5295 66.2638 75.7709Z" fill="#FFCE5B"/>
<path d="M68.9186 73.9007C68.6771 74.1421 68.4357 74.3836 68.4357 74.3836C68.4357 74.3836 68.7375 74.0818 69.0996 73.8404C69.4014 73.5386 69.7032 73.2368 69.7032 73.2368C69.5825 73.3575 69.4618 73.4179 69.3411 73.4179C69.4014 73.4179 69.16 73.7197 68.9186 73.9007C69.16 73.7197 68.6771 74.1421 68.9186 73.9007Z" fill="#FFCE5B"/>
<path d="M14.9012 109.269C14.8408 108.122 14.7805 106.915 14.6598 105.889L14.9012 109.269Z" fill="#FFCE5B"/>
<path d="M15.0211 122.788C15.0211 122.547 15.0211 122.245 14.9607 121.943C14.9607 122.124 14.9607 122.366 15.0211 122.788Z" fill="#FFCE5B"/>
<path d="M19.9101 42.998L20.1505 43.2384C20.0303 42.998 19.9702 42.9379 19.9101 42.998Z" fill="#FFCE5B"/>
<path d="M15.1416 100.878V101.059C15.0812 101.783 15.0812 101.542 15.1416 100.878Z" fill="#FFCE5B"/>
<path d="M14.4176 101.723C14.3572 102.146 14.2365 102.628 14.1761 103.715C14.2969 102.87 14.3572 102.266 14.4176 101.723Z" fill="#FFCE5B"/>
<path d="M85.0338 14.5714C85.2148 14.5714 85.3355 14.5714 85.4562 14.5714C85.2148 14.511 85.0941 14.511 85.0338 14.5714Z" fill="#FFCE5B"/>
<path d="M13.0302 31.3496C13.0906 30.9875 13.1509 30.6254 13.2113 30.2029C13.0906 30.6254 13.0302 30.9875 13.0302 31.3496Z" fill="#FFCE5B"/>
<path d="M14.5991 57.7848C14.4784 57.6641 14.418 57.5434 14.2973 57.3623C14.4784 57.7848 14.5388 57.9055 14.5991 57.7848Z" fill="#FFCE5B"/>
<path d="M13.4519 55.1905C13.4519 55.1905 13.1502 54.0437 13.0294 54.0437C12.9087 54.1041 13.2105 55.4922 13.2105 55.6129C13.2105 54.949 13.6934 56.5183 14.2365 57.4236C13.9951 56.639 13.6934 55.9147 13.4519 55.1905C13.5123 55.4319 13.3916 54.8887 13.4519 55.1905Z" fill="#FFCE5B"/>
<path d="M95.8364 20.0028C96.1381 20.3649 96.5002 20.9081 96.8624 21.3909C97.5866 22.417 98.1298 23.5637 98.1298 23.5637C98.1298 23.0809 97.7074 22.417 97.5263 21.9945C97.4056 21.8134 97.1642 21.5116 96.9227 21.2099C96.802 21.0288 95.2328 19.3389 95.2328 19.3389C95.2328 19.3992 95.2328 19.3992 95.2932 19.4596C95.3535 19.3992 95.5346 19.6406 95.8364 20.0028C96.1381 20.3649 95.5346 19.6406 95.8364 20.0028Z" fill="#FFCE5B"/>
<path d="M99.6395 39.1349C99.6395 39.4367 99.6395 39.6177 99.6395 39.6177C100.122 37.0828 100.002 36.3585 99.9413 35.6343C99.8809 34.91 99.8809 34.1858 99.7602 31.6509C99.7602 33.2201 99.6999 34.8497 99.4584 36.4189C99.5791 37.3242 99.6395 38.2296 99.6395 39.1349C99.6395 39.4367 99.6395 38.8331 99.6395 39.1349Z" fill="#FFCE5B"/>
<path d="M97.5881 44.7485L97.7692 43.6621C97.5277 44.6278 97.4674 44.8692 97.5881 44.7485Z" fill="#FFCE5B"/>
<path d="M97.527 46.8614C97.708 46.8614 98.3116 44.0851 98.3719 43.8437C98.6133 42.878 98.9755 41.7916 98.9755 40.8259C98.9755 41.5502 98.553 42.4555 98.3116 43.1194C98.1909 43.1194 97.6477 44.5679 97.527 44.749C97.4063 45.5336 97.2252 46.2579 97.0441 47.0425C97.2252 46.4993 97.527 45.3525 97.708 44.9904C97.708 45.1715 97.5873 46.8614 97.527 46.8614Z" fill="#FFCE5B"/>
<path d="M95.8971 49.9393C96.0178 49.8186 96.0782 49.6979 96.1989 49.6376C96.1385 49.5169 96.0178 49.6376 95.8971 49.9393Z" fill="#FFCE5B"/>
<path d="M45.5005 83.9188C44.5348 83.8584 43.5691 83.7981 43.5691 83.7981C43.5691 83.7981 46.4662 84.1602 46.4662 84.0999L47.3715 83.9188C46.8283 83.9188 46.1644 83.9791 45.5005 83.9188C45.9833 83.9188 44.5952 83.8584 45.5005 83.9188Z" fill="#FFCE5B"/>
<path d="M26.7911 76.0713C26.9106 76.1311 26.9105 76.0714 26.8508 75.9519C26.8508 76.0116 26.7911 76.0116 26.7911 76.0713Z" fill="#FFCE5B"/>
<path d="M21.661 105.345C21.7214 105.828 21.7214 106.25 21.7818 106.914C21.7818 106.31 21.7214 105.828 21.661 105.345Z" fill="#FFCE5B"/>
<path d="M27.0928 76.9174C27.0928 76.9174 27.4549 76.9174 27.5153 76.9174L26.4893 76.1931L27.0928 76.9174Z" fill="#FFCE5B"/>
<path d="M22.2041 110.052C22.2041 110.052 22.1437 109.751 22.1437 109.509C22.1437 109.207 22.0834 108.966 22.0834 108.966C22.0834 108 21.9023 107.699 21.9023 108.664C21.9023 108.664 21.9626 109.026 22.023 109.389C22.1437 109.69 22.2041 110.052 22.2041 110.052Z" fill="#FFCE5B"/>
<path d="M22.2644 117.054C22.1437 115.786 22.0833 114.519 22.023 113.251L21.8419 115.666L22.2644 117.054Z" fill="#FFCE5B"/>
<path d="M9.89124 110.113C10.8569 113.07 12.6676 116.872 13.935 119.407C12.7883 116.088 11.1587 113.311 9.89124 110.113Z" fill="#FFCE5B"/>
<path d="M13.0302 110.596C13.2113 111.501 13.2716 112.708 13.2716 110.777L14.1166 114.157C14.1166 109.087 13.2717 110.415 13.0302 110.596C13.2717 110.415 13.151 111.501 13.0302 110.596Z" fill="#FFCE5B"/>
<path d="M16.1082 82.229C16.2289 81.0219 16.2289 80.2976 15.8668 80.5994C15.565 82.229 15.3236 83.7982 15.1425 85.4278L15.6253 82.9533C15.6253 84.2207 15.6253 85.126 15.5046 86.997C15.746 85.1864 15.9874 83.4361 16.1082 82.229C16.2289 81.0219 15.9874 83.4361 16.1082 82.229Z" fill="#FFCE5B"/>
<path d="M14.9618 91.3428C15.0222 90.7996 15.0825 90.1961 15.2032 89.5925C15.0222 90.0754 14.8411 90.3771 14.9618 91.3428Z" fill="#FFCE5B"/>
<path d="M15.4443 87.6615C15.4443 87.42 15.4443 87.239 15.4443 86.9976C15.3236 87.8425 15.2028 88.7479 15.1425 89.5325C15.3236 89.1703 15.4443 88.6875 15.4443 87.6615C15.5046 87.3597 15.4443 88.6875 15.4443 87.6615Z" fill="#FFCE5B"/>
<path d="M17.0728 77.1593C17.7367 74.6847 18.4006 72.2102 19.1852 69.796C19.1852 69.7356 19.1852 69.7356 19.1852 69.6753C19.1852 69.6753 19.1852 69.6753 19.1249 69.7356C18.8231 70.5202 18.5817 71.2445 18.2799 72.0291C18.461 72.693 17.9178 73.7191 17.6764 74.3226C17.4349 75.2279 17.0125 76.1936 17.0728 77.1593Z" fill="#FFCE5B"/>
<path d="M12.6069 26.7626C13.0293 24.2277 13.6932 22.0549 14.4175 20.6064C14.2364 20.8478 14.4175 20.0632 14.4778 19.5803C14.5986 18.9768 14.5382 18.7957 13.4518 21.8738C13.0294 24.107 12.4258 26.2797 12.124 28.5129C11.5808 31.2288 11.3394 34.1862 11.1583 36.1176L11.6412 35.2726C11.8826 32.4963 12.124 29.4785 12.6069 26.7626C13.0293 24.2277 12.124 29.4785 12.6069 26.7626Z" fill="#FFCE5B"/>
<path d="M14.4185 20.5467C14.4788 20.4864 14.5392 20.3657 14.6599 20.1243C14.5996 20.3053 14.4788 20.426 14.4185 20.5467Z" fill="#FFCE5B"/>
<path d="M17.0737 15.9593C17.1944 15.7179 18.6429 13.1829 18.4015 13.0019C18.3411 12.9415 18.1601 13.1829 18.1601 13.1829C17.979 14.0279 17.6772 14.39 17.3151 14.8729C17.1944 15.0539 16.0477 17.1664 16.2287 17.1664C16.4701 17.1664 16.953 16.1403 17.0737 15.9593C17.4962 15.1143 16.6512 16.5628 17.0737 15.9593Z" fill="#FFCE5B"/>
<path d="M19.608 32.0734C19.608 32.0734 19.6684 31.7717 19.7287 31.4699C19.7891 31.1681 19.8494 30.8664 19.8494 30.8664L19.5477 29.2971C19.5477 30.2024 19.5477 31.1078 19.608 32.0734Z" fill="#FFCE5B"/>
<path d="M23.23 57.5442C23.23 57.7856 23.2904 58.027 23.2904 58.027C23.2904 58.027 23.5318 58.3288 23.7128 58.5099C23.7732 58.6306 23.8939 58.6909 24.0146 58.7513V58.6909C23.7128 58.1477 23.4714 57.6045 23.23 57.001C23.23 57.0613 23.2903 57.182 23.23 57.182C23.23 57.3631 23.23 57.4235 23.23 57.5442C23.23 57.7856 23.23 57.4235 23.23 57.5442Z" fill="#FFCE5B"/>
<path d="M24.6781 57.8459C24.5574 58.208 24.5574 58.5702 24.4367 58.9323C24.4367 58.9323 24.6782 58.3288 24.9196 57.7856C25.3421 56.8199 25.8249 55.9146 25.8249 55.9146L24.9799 57.3631C24.8592 57.4234 24.7385 57.6045 24.6781 57.8459C24.6781 57.7856 24.6178 57.9666 24.6781 57.8459Z" fill="#FFCE5B"/>
<path d="M28.5416 50.5431C28.0587 51.5088 27.6363 52.4744 27.6363 52.4744C28.4812 50.8449 29.3262 49.2153 30.2315 47.5857C29.9297 48.1289 29.7487 48.4307 29.5072 48.6721C29.5072 48.6721 29.0244 49.6378 28.5416 50.5431C29.0244 49.6378 28.0587 51.5088 28.5416 50.5431Z" fill="#FFCE5B"/>
</svg>
