<svg width="500" height="156" viewBox="0 0 500 156" fill="none" xmlns="http://www.w3.org/2000/svg">
<g clip-path="url(#clip0_689_6)">
<path d="M309.656 142.831C356.825 143.647 392.894 143.103 428.733 136.852C441.681 134.677 454.398 130.6 466.883 126.523C472.433 124.62 477.752 120.815 482.375 116.738C490.237 109.943 490.7 102.604 483.762 94.7213C479.369 89.5571 474.052 84.9364 468.733 80.8592C454.629 70.5305 439.137 63.4637 423.646 56.9402C385.265 40.9036 345.496 30.575 305.265 23.2363C259.483 15.0821 213.702 11.5486 167.459 13.1794C133.47 14.2666 99.4808 17.8001 65.9546 24.0517C46.9948 27.5852 28.035 31.3905 9.07523 34.924C8.84402 34.924 8.61283 34.9238 8.3816 35.1957C3.52606 36.0112 0.520238 34.3803 0.0578042 30.8468C-0.404629 27.3133 1.90754 24.867 6.99429 23.7798C39.3646 16.4411 71.966 9.10229 104.799 5.29701C140.175 1.2199 175.551 -0.954558 211.158 0.404475C271.506 2.57893 330.929 12.364 389.427 30.8468C412.548 38.1857 435.206 46.8834 456.942 59.1146C466.883 64.8226 476.365 71.8896 485.612 78.9566C489.544 81.9464 493.012 86.839 495.785 91.4597C502.029 101.788 501.335 113.476 493.704 122.174C489.312 127.338 483.762 131.687 477.983 134.949C464.571 142.831 450.004 146.093 435.437 148.811C388.271 156.693 341.102 157.237 293.702 154.519C274.512 153.432 255.321 152.344 236.129 150.713C211.39 148.539 186.418 146.093 161.678 142.831C138.325 139.841 115.204 136.036 92.0819 131.143C79.1337 128.425 66.1858 123.805 53.7 119.184C47.6883 117.01 41.9079 112.932 36.8212 108.583C25.7229 98.5267 25.0292 84.6645 34.509 72.4333C40.0583 65.0944 47.226 60.7456 54.8562 56.9402C71.735 48.5143 89.5385 43.6218 107.574 39.8164C132.314 34.6522 157.516 32.7494 182.719 34.3803C188.962 34.6522 191.736 36.8266 191.505 40.9036C191.274 44.4371 188.499 46.068 182.719 46.3399C167.69 46.8834 152.661 46.8834 137.632 48.2425C111.967 50.6888 86.764 56.3967 62.7175 67.2689C57.1683 69.7152 51.8502 72.9768 46.9948 76.7822C35.8963 86.0236 36.3587 94.9932 48.1508 102.332C53.7 105.865 59.7117 108.583 65.9546 110.758C85.1454 117.825 104.799 121.902 124.684 124.62C162.372 129.513 200.291 134.405 237.979 137.939C265.031 140.929 293.008 142.016 309.656 142.831Z" fill="#FFCE5B"/>
</g>
<defs>
<clipPath id="clip0_689_6">
<rect width="500" height="156" fill="white"/>
</clipPath>
</defs>
</svg>
