<svg width="141" height="116" viewBox="0 0 141 116" fill="none" xmlns="http://www.w3.org/2000/svg">
<path d="M35.6501 114.06C29.1201 114.06 23.7801 112.73 19.6301 110.06C15.4701 107.39 12.0701 103.98 9.40007 99.8304C6.43007 94.7904 4.43008 89.5305 3.39008 84.0305C2.35008 78.5405 1.83008 74.0204 1.83008 70.4604C1.83008 55.9304 5.54007 42.7304 12.9501 30.8604C20.3601 19.0004 31.9301 9.36043 47.6601 1.94043L51.6601 9.95044C42.4601 13.8104 34.5301 19.8904 27.8601 28.1904C21.1901 36.5004 17.8501 44.9504 17.8501 53.5504C17.8501 57.1104 18.3001 60.2204 19.1901 62.8904C23.9301 59.0404 29.4201 57.1104 35.6501 57.1104C43.3601 57.1104 50.0301 59.6304 55.6701 64.6704C61.3001 69.7204 64.1201 76.6804 64.1201 85.5804C64.1201 93.8904 61.3001 100.71 55.6701 106.05C50.0301 111.39 43.3601 114.06 35.6501 114.06ZM111.29 114.06C104.76 114.06 99.4201 112.73 95.2701 110.06C91.1101 107.39 87.7101 103.98 85.0401 99.8304C82.0701 94.7904 80.0701 89.5305 79.0301 84.0305C77.9901 78.5405 77.4701 74.0204 77.4701 70.4604C77.4701 55.9304 81.1801 42.7304 88.5901 30.8604C96.0001 19.0004 107.57 9.36043 123.3 1.94043L127.31 9.95044C118.11 13.8104 110.18 19.8904 103.51 28.1904C96.8301 36.5004 93.5001 44.9504 93.5001 53.5504C93.5001 57.1104 93.9501 60.2204 94.8301 62.8904C99.5701 59.0404 105.06 57.1104 111.29 57.1104C119 57.1104 125.67 59.6304 131.31 64.6704C136.94 69.7204 139.77 76.6804 139.77 85.5804C139.77 93.8904 136.95 100.71 131.31 106.05C125.67 111.39 119 114.06 111.29 114.06Z" stroke="#CAA472" stroke-width="2" stroke-miterlimit="10"/>
</svg>
