<svg width="160" height="160" viewBox="0 0 160 160" fill="none" xmlns="http://www.w3.org/2000/svg">
<g clip-path="url(#clip0_318_1899)">
<path d="M56.8498 74.8375C56.8498 70.0782 60.3199 66.7548 66.6261 66.7548C70.4739 66.7548 73.6225 67.9834 75.3283 69.1869C75.5724 69.3587 76.008 69.7756 75.7468 70.551C75.4122 71.386 74.7984 72.6419 74.358 73.4577C74.1017 73.9331 73.4471 73.8704 73.1118 73.7005C71.8968 73.0848 69.9038 72.0432 68.073 71.8511C67.6094 71.8006 67.1431 71.7805 66.6768 71.7907C65.0645 71.8267 63.7174 72.3865 63.243 73.6167C63.1501 73.8494 63.0982 74.0966 63.0898 74.3471C63.0455 75.9681 65.3015 76.5543 68.0345 77.0238C73.1153 77.8943 76.9593 79.3839 76.9593 84.6135C76.9593 89.0545 73.4298 93.0681 66.5143 92.9451C61.9554 92.8529 58.721 91.3125 56.9879 89.8177C56.9288 89.7669 56.2691 89.095 56.6227 88.2869C57.0274 87.2466 57.7106 86.0543 58.2466 85.4213C58.5447 85.0147 59.3313 84.9501 59.7402 85.2035C61.1688 86.0913 63.5199 87.5148 66.2301 87.6092C66.444 87.6166 66.656 87.6179 66.8641 87.6124C69.3019 87.5533 70.7768 86.6289 70.7459 85.0718C70.7196 83.7 68.7867 82.8987 65.7088 82.3186C60.7997 81.3939 56.8504 79.7758 56.8504 74.8375M101.448 81.6142C97.9858 81.6595 94.8119 82.6057 94.7203 85.3111C94.7194 87.4579 96.4608 88.5124 98.9051 88.3743C101.25 88.1485 103.038 87.1316 103.826 85.7823C104.117 85.2822 104.161 83.411 104.144 82.6112C104.139 82.441 103.803 82.1188 103.655 82.0568C102.92 81.7469 102.375 81.6512 101.447 81.6136M89.9289 70.7132C91.5476 69.2646 94.7573 67.0099 99.8725 67.1287C106.623 67.2691 110.189 70.4337 110.521 78.0041C110.658 81.126 110.431 89.8341 110.377 92.0037C110.369 92.3149 110.264 92.5301 109.844 92.5381C108.733 92.5828 106.165 92.5651 104.984 92.5497C104.389 92.5208 104.32 92.2253 104.312 91.916C104.307 91.7136 104.29 91.1137 104.277 90.6245C104.27 90.365 104.027 90.3724 103.964 90.4389C102.381 92.1296 99.7877 92.946 97.03 92.946C92.8385 92.946 88.6598 90.4803 88.6727 85.5973C88.6855 80.5964 92.2314 78.1297 96.1268 77.548C98.6211 77.1767 101.433 77.5069 103.562 78.3529C103.698 78.4075 103.976 78.3285 103.979 78.1355C103.987 77.4982 103.956 76.2838 103.834 75.7083C103.521 74.2417 102.298 73.0617 99.7279 72.7437C99.1986 72.6785 98.6658 72.657 98.1323 72.6994C96.0892 72.86 93.6305 74.4531 92.6124 75.0495C92.3728 75.1895 91.9976 75.0871 91.8762 74.9307C91.282 74.163 89.7885 71.9179 89.6709 71.5592C89.5534 71.2014 89.7191 70.9001 89.9282 70.7119L89.9289 70.7132ZM112.747 80.0224C112.707 73.0479 117.566 67.164 125.457 67.1123C130.381 67.0802 133.958 69.3125 134.589 70.3653C134.717 70.6126 134.651 70.8191 134.563 71.0681C134.146 71.9481 133.093 73.6485 132.343 74.612C132.023 75.0225 131.676 74.6708 131.273 74.4026C130.154 73.6575 128.029 72.7463 125.937 72.7463C122.142 72.7469 119.316 75.3492 119.347 80.1368C119.377 84.731 122.084 87.2559 125.95 87.3474C127.971 87.3982 129.929 86.2364 130.983 85.2848C131.314 84.996 131.656 85.1406 132.034 85.436C132.776 86.1944 133.84 87.3651 134.43 88.171C134.817 88.6187 134.528 89.0568 134.389 89.2328C132.788 91.2585 129.696 92.9634 125.604 92.9865C117.037 93.0466 112.787 87.0227 112.748 80.0234M153.643 92.6721C154.045 92.6419 158.336 92.0496 159.653 91.748C159.98 91.6735 160.097 91.3986 159.914 91.1262C159.178 90.0232 157.245 86.891 155.219 84.0871C153.356 81.5089 151.393 79.2413 150.758 78.369C150.603 78.157 150.611 77.9482 150.78 77.7838C151.988 76.6018 157.041 71.6475 158.941 69.6015C159.676 68.8056 159.235 68.4632 158.61 68.2773C157.403 67.9175 155.451 67.4692 154.341 67.235C153.873 67.1361 153.31 67.1708 152.9 67.5915C151.001 69.3629 145.204 75.1812 143.473 76.9204C143.162 77.2342 142.98 77.1645 142.979 76.7161C142.965 73.3629 142.898 59.0065 142.779 56.6452C142.77 56.333 142.395 56.0959 142.183 56.0847C141.095 56.0278 138.346 56.0115 137.263 56.075C136.959 56.1094 136.669 56.4187 136.643 56.6802C136.393 60.456 136.749 88.1738 136.897 92.0512C136.908 92.3316 137.116 92.5491 137.383 92.5648C138.463 92.6274 141.137 92.6233 142.385 92.5998C142.999 92.5998 143.074 92.1681 143.074 92.1681L143.167 84.7304C143.167 84.7304 143.23 84.3996 143.332 84.2904C143.772 83.8166 144.99 82.512 145.509 82.0077C145.633 81.8866 145.83 81.8953 145.957 82.0665C146.574 82.8983 148.332 85.6027 149.962 88.0181C151.46 90.2368 152.858 92.206 152.956 92.3451C153.181 92.6663 153.445 92.6791 153.643 92.673V92.6721H153.643ZM80.6584 92.6464C81.0358 92.6589 83.8992 92.6557 85.1679 92.6541C85.5951 92.6624 85.817 92.339 85.8311 92.0535C86.1006 86.6171 85.9853 60.7339 85.8151 56.6468C85.801 56.2935 85.6497 56.1608 85.4085 56.1287C84.3196 55.9829 81.2253 56.0169 80.2335 56.2764C80.0395 56.3269 79.9252 56.4743 79.9191 56.6638C79.6762 67.1987 79.84 91.4869 79.8914 91.9468C79.9425 92.4074 80.1834 92.6303 80.6591 92.6464H80.6584Z" fill="#171717"/>
<path d="M4.02543 81.8372C2.26083 81.8507 0.766021 80.7991 0.214864 79.1578C0.194418 79.0959 0.175356 79.0334 0.157693 78.9706C-0.442927 76.8687 0.721697 74.6699 2.80909 73.9658L36.2896 62.749C36.6872 62.634 37.0986 62.5739 37.5124 62.5705C39.3239 62.5563 40.8598 63.631 41.4245 65.307L41.4746 65.4688C42.1009 67.6581 40.5447 69.6122 38.6802 70.2385C38.6789 70.2394 38.3398 70.3541 5.38533 81.6056C4.94731 81.7549 4.48819 81.8331 4.02543 81.8372Z" fill="#171717"/>
<path d="M9.60605 98.3028C7.82763 98.3157 6.32769 97.2789 5.78296 95.6611C5.76228 95.5995 5.743 95.5375 5.72514 95.4751C5.11617 93.3482 6.27951 91.1262 8.37397 90.4212L41.8558 79.1016C42.2884 78.9571 42.7352 78.8832 43.1846 78.879C44.9678 78.8655 46.5345 79.955 47.0873 81.5911L47.1387 81.7614C47.4621 82.8923 47.271 84.1632 46.628 85.1663C46.1488 85.9121 44.6373 86.5686 44.6373 86.5686L11.0283 98.0603C10.5699 98.2155 10.0899 98.2976 9.60605 98.3035V98.3028Z" fill="#171717"/>
<path d="M37.4774 98.3745C36.6095 98.3828 35.7613 98.1162 35.0542 97.613C34.3472 97.1097 33.8175 96.3955 33.5412 95.5728L22.3671 62.3813L22.3112 62.195C21.7058 60.0784 22.8701 57.8705 24.9569 57.1671C25.3744 57.0268 25.8061 56.9536 26.2406 56.9497C26.8862 56.9449 27.5109 57.0904 28.0993 57.3811C28.584 57.6208 29.0166 57.9539 29.372 58.3614C29.7275 58.7688 29.9989 59.2425 30.1707 59.7553L41.3438 92.9439L41.3763 93.0505C42.0039 95.2481 40.8421 97.4572 38.7554 98.1606C38.3432 98.2983 37.9119 98.3705 37.4774 98.3745Z" fill="#171717"/>
<path d="M20.8678 103.965C19.9995 103.973 19.1508 103.707 18.4434 103.203C17.7361 102.699 17.2063 101.984 16.9301 101.161L5.75888 67.971C5.58579 67.4589 5.51539 66.9178 5.55171 66.3785C5.58803 65.8392 5.73037 65.3124 5.97056 64.8282C6.21075 64.3439 6.54409 63.9119 6.95149 63.5567C7.35889 63.2014 7.83235 62.9301 8.34476 62.7581C8.75756 62.6201 9.18946 62.5477 9.62469 62.5435C10.4927 62.535 11.3411 62.8014 12.0483 63.3047C12.7555 63.8081 13.2852 64.5224 13.5615 65.3453L24.733 98.5367C24.9062 99.049 24.9766 99.5904 24.9401 100.13C24.9037 100.669 24.7611 101.197 24.5207 101.681C24.2802 102.165 23.9465 102.597 23.5387 102.953C23.1309 103.308 22.657 103.579 22.1442 103.751C21.7322 103.889 21.3011 103.961 20.8666 103.965L20.8678 103.965Z" fill="#171717"/>
<path d="M31.9687 90.8998L39.7601 88.2358L37.2131 80.6719L29.4127 83.3079L31.9687 90.8998Z" fill="#171717"/>
<path d="M15.3848 96.57L23.1756 93.9064L20.6093 86.2847L12.8109 88.9216L15.3848 96.57Z" fill="#171717"/>
<path d="M26.4218 74.4242L34.2138 71.7638L31.6967 64.2882L23.8902 66.9036L26.4218 74.4242Z" fill="#171717"/>
<path d="M9.83605 80.0868L17.6281 77.4264L15.0801 69.8553L7.27362 72.4705L9.83605 80.0868Z" fill="#171717"/>
</g>
<defs>
<clipPath id="clip0_318_1899">
<rect width="160" height="160" fill="white"/>
</clipPath>
</defs>
</svg>
