<?xml version="1.0" encoding="UTF-8"?><svg id="Layer_1" xmlns="http://www.w3.org/2000/svg" viewBox="0 0 116.15 72.88"><defs><style>.cls-1{fill:#171717;}</style></defs><path class="cls-1" d="M85.9,72.88c-.13-.31-.23-.63-.39-.91-11.23-19.45-22.47-38.9-33.7-58.35-.09-.16-.18-.32-.34-.59,7.52-4.34,15.01-8.66,22.57-13.02,1.62,2.81,3.21,5.55,4.79,8.29,12.26,21.22,24.52,42.45,36.79,63.67.15.26.35.49.53.73-.25.06-.5.18-.75.18-9.83,0-19.67,0-29.5,0Z"/><path class="cls-1" d="M45.94,72.88c-3.33-5.79-6.65-11.57-9.99-17.36-3.29-5.7-6.59-11.4-9.88-17.1-.11-.18-.2-.37-.35-.64,7.52-4.34,14.99-8.65,22.55-13.01.55.95,1.08,1.85,1.61,2.75,8.59,14.87,17.18,29.74,25.77,44.61.14.24.24.5.35.75h-30.07Z"/><path class="cls-1" d="M5.98,72.88c-1.97-3.38-3.93-6.76-5.98-10.27,7.51-4.34,15-8.66,22.59-13.04,4.5,7.79,8.97,15.55,13.45,23.31H5.98Z"/></svg>