<?xml version="1.0" encoding="UTF-8"?><svg id="Layer_1" xmlns="http://www.w3.org/2000/svg" viewBox="0 0 174.49 49.14"><defs><style>.cls-1{fill:#171717;}</style></defs><path class="cls-1" d="M73.62,3.14c.34,0,.62,0,.91,0,2.76,0,5.52,0,8.29,0,.29,0,.41.08.5.36,2.27,6.94,4.55,13.88,6.82,20.81.04.13.09.25.16.45.25-.85.48-1.62.7-2.4,1.14-3.95,2.29-7.91,3.42-11.86.08-.29.21-.38.51-.38,1.9.02,3.8.02,5.7,0,.29,0,.39.09.46.35,1.34,4.64,2.68,9.28,4.03,13.92.03.1.06.19.12.37,1.37-4.92,2.72-9.77,4.07-14.62h10.11c-.03.11-.06.22-.09.32-3.19,9-6.38,17.99-9.56,26.99-.08.24-.2.3-.44.3-2.28,0-4.57-.01-6.85,0-.31,0-.45-.08-.54-.39-1.36-4.55-2.73-9.1-4.1-13.65-.03-.11-.07-.21-.13-.42-.07.19-.11.3-.14.41-1.35,4.55-2.7,9.11-4.05,13.66-.08.28-.19.39-.51.38-2.27-.02-4.55-.01-6.82,0-.26,0-.36-.08-.45-.33-3.98-11.28-7.98-22.55-11.97-33.83-.05-.14-.09-.28-.15-.46Z"/><path class="cls-1" d="M0,0h9.91v10.2c.7-.15,1.36-.33,2.03-.43,2.77-.44,5.53-.45,8.19.6,3.28,1.29,5.52,3.64,6.71,6.92,1.58,4.34,1.53,8.72-.2,13.01-1.42,3.53-4.12,5.77-7.67,7.02-2.8.99-5.71,1.16-8.64,1.01-3.44-.17-6.76-.94-10-2.1C.08,36.14,0,36.02,0,35.75,0,23.95,0,12.15,0,.35c0-.11,0-.22,0-.35ZM9.91,24.04c0,2.1,0,4.2,0,6.3,0,.32.1.46.4.49.76.08,1.51.21,2.27.23,2.34.05,4.33-1.28,5.09-3.49.82-2.37.84-4.8.07-7.19-.58-1.81-1.87-2.96-3.73-3.39-1.27-.3-2.53-.1-3.76.27-.25.08-.33.18-.33.45.01,2.11,0,4.22,0,6.34Z"/><path class="cls-1" d="M142.41,10.13c.18,0,.29,0,.41,0,3.33,0,6.66,0,9.99,0,.27,0,.39.07.48.34,1.77,5.13,3.55,10.27,5.33,15.4.04.1.08.21.15.37.37-1.07.72-2.09,1.07-3.1,1.46-4.23,2.92-8.47,4.37-12.71.07-.21.15-.31.4-.3,3.21,0,6.41,0,9.62,0,.08,0,.16.01.27.02-.25.61-.5,1.19-.74,1.77-4.34,10.28-8.68,20.56-13.03,30.84-.71,1.68-1.65,3.22-3.12,4.35-1.37,1.05-2.95,1.61-4.63,1.86-3.31.49-6.47-.1-9.5-1.43-.03-.01-.05-.04-.1-.09.82-2.2,1.65-4.4,2.47-6.57.78.28,1.51.63,2.28.81.7.16,1.44.23,2.15.2,1.04-.05,1.77-.66,2.19-1.6.53-1.17,1.05-2.34,1.55-3.52.06-.15.04-.38-.03-.53-3.65-8.24-7.31-16.48-10.97-24.73-.2-.44-.39-.89-.61-1.39Z"/><path class="cls-1" d="M56.69,25.81h-17.91c-.15,1.93,1.11,3.93,2.95,4.77,1.92.88,5.27.71,7.36-1.43.26-.27.51-.54.79-.83,2.01,1.58,4.02,3.15,6.04,4.74-1.04,1.3-2.26,2.34-3.66,3.18-1.94,1.16-4.05,1.75-6.28,1.98-1.77.18-3.54.22-5.3-.06-4.52-.72-8.03-2.91-10.09-7.11-.94-1.91-1.38-3.95-1.47-6.08-.11-2.6.21-5.12,1.25-7.52,1.68-3.89,4.59-6.38,8.7-7.43,2.84-.73,5.7-.74,8.52.1,3.5,1.04,5.99,3.27,7.49,6.6,1.23,2.72,1.68,6.5,1.61,9.1ZM47.4,20.53c0-.15.01-.27,0-.39-.11-1.01-.46-1.93-1.06-2.76-1-1.39-2.65-1.94-4.28-1.4-1.41.46-2.27,1.5-2.82,2.81-.23.54-.33,1.14-.5,1.74h8.66Z"/><path class="cls-1" d="M143.32,37.73c-.11,0-.18.01-.24.01-2.6,0-5.21,0-7.81,0-.23,0-.31-.09-.38-.28-.21-.61-.44-1.21-.68-1.86-.15.12-.28.23-.41.33-1.64,1.31-3.54,1.97-5.6,2.19-1.96.21-3.9.07-5.71-.74-3.04-1.37-4.62-3.77-4.81-7.08-.13-2.3.51-4.33,2.14-6,1.1-1.12,2.44-1.88,3.9-2.44,1.71-.66,3.5-.96,5.31-1.15,1.39-.15,2.78-.24,4.18-.36.11,0,.22-.02.33-.03.28-2.22-.64-3.5-2.7-3.89-1.68-.32-3.27.1-4.75.93-.68.38-1.33.83-2.03,1.27-1.44-1.59-2.91-3.21-4.42-4.88.61-.46,1.19-.93,1.8-1.34,2.92-1.99,6.16-2.88,9.67-2.88,1.87,0,3.72.16,5.51.76,2.27.77,4.19,2.02,5.4,4.17.76,1.35,1.12,2.82,1.24,4.35.06.7.07,1.41.07,2.11,0,5.46,0,10.93,0,16.39v.44ZM133.57,25.18c-1.1.14-2.15.26-3.19.4-.71.09-1.41.26-2.03.63-1.03.61-1.65,1.96-1.44,3.16.2,1.14,1.03,1.99,2.26,2.2,1.57.26,2.99-.15,4.27-1.09.09-.07.13-.25.13-.38,0-1.41,0-2.81,0-4.22,0-.2,0-.41,0-.7Z"/><path class="cls-1" d="M60.39,17.04h-3.87v-6.9h3.86V3.18c.16,0,.28-.02.4-.02,3.05,0,6.09,0,9.14,0,.31,0,.4.08.4.4-.01,2.04,0,4.09,0,6.13v.45c.18,0,.32,0,.47,0,1.15,0,2.3,0,3.44,0,.16,0,.29,0,.36.21.76,2.18,1.54,4.36,2.31,6.54.01.04.02.09.03.15h-6.6c0,.15-.02.28-.02.41,0,3.65-.01,7.29,0,10.94,0,.56.1,1.13.23,1.68.16.73.59,1.04,1.33,1.07.95.04,1.81-.26,2.62-.74.37-.22.73-.45,1.13-.71.85,1.99,1.69,3.98,2.54,5.97-1.49,1.02-3.07,1.78-4.8,2.18-2.38.55-4.79.71-7.2.18-3.12-.69-4.99-2.64-5.51-5.82-.17-1.03-.26-2.08-.27-3.12-.03-3.87-.01-7.75-.01-11.62v-.43Z"/></svg>