<?xml version="1.0" encoding="UTF-8"?><svg id="Layer_1" xmlns="http://www.w3.org/2000/svg" viewBox="0 0 164.59 49.45"><defs><style>.cls-1{fill:#171717;}</style></defs><path class="cls-1" d="M125.95,49.45c.21-1.62.44-3.23.6-4.85.06-.59.27-.74.84-.74,2.71-.03,5.41-.16,8.11-.16,1.79,0,3.15-.67,4.21-2.07.56-.74,1.14-1.48,1.86-2.41-.87,0-1.53-.05-2.17.01-.74.07-1.05-.17-1.27-.92-2.49-8.38-5.02-16.74-7.54-25.11-.31-1.04-.62-2.08-.96-3.23,2.24,0,4.35,0,6.46,0,1.71,0,1.71,0,2.17,1.6,1.75,6.2,3.5,12.4,5.24,18.6.28,1,.52,2,.84,3.21.24-.42.39-.66.52-.91,3.78-7.29,7.57-14.57,11.33-21.87.24-.47.5-.65,1.04-.64,2.41.03,4.82.01,7.36.01-.14.31-.24.54-.36.77-5.18,9.48-10.31,18.99-15.59,28.42-1.39,2.48-3.17,4.76-4.87,7.05-1.33,1.8-3.23,2.65-5.48,2.75-2.17.1-4.33.24-6.5.37-.23.01-.46.07-.7.1h-5.15Z"/><path class="cls-1" d="M38,48.32c.33-2.74.65-5.41.98-8.09.83-6.79,1.67-13.58,2.51-20.37.38-3.1.75-6.21,1.16-9.31.03-.21.36-.54.55-.55,2.22-.04,4.45-.02,6.67-.01.07,0,.15.05.34.11-.15,1.21-.31,2.44-.48,3.76.19-.1.31-.15.41-.22,2.98-2.29,6.41-3.39,10.1-3.75,3.16-.31,6.32-.34,9.43.39,4.42,1.05,7.22,4.09,7.83,8.6.53,3.95-.01,7.8-1.54,11.47-1.61,3.86-4.48,6.45-8.48,7.63-5.08,1.5-10.2,1.43-15.29-.07-1.88-.56-3.48-1.62-5.04-3.11-.57,4.6-1.12,9.03-1.68,13.53h-7.49ZM60.79,14.3c-2.33.11-4.61.34-6.76,1.28-2.82,1.23-4.81,3.18-5.27,6.36-.23,1.59-.42,3.18-.59,4.77-.25,2.37.55,4.34,2.55,5.69.83.56,1.78,1.02,2.74,1.29,3.27.89,6.57.87,9.85.03,2.68-.68,4.54-2.34,5.52-4.92,1.03-2.69,1.41-5.49,1.12-8.35-.33-3.25-2.03-5.08-5.25-5.7-1.28-.25-2.6-.31-3.9-.46Z"/><path class="cls-1" d="M7.86,35.28c-.16,1.26-.32,2.48-.48,3.75H0C1.56,26.04,3.12,13.07,4.69.05h7.37c-.56,4.71-1.11,9.37-1.67,14.14.2-.09.32-.12.41-.19,3.26-2.59,7.07-3.62,11.13-3.85,2.76-.16,5.52-.11,8.25.43,4.58.91,6.99,3.32,7.57,7.93.58,4.66-.14,9.18-2.01,13.49-1.45,3.34-4.05,5.41-7.53,6.36-4.72,1.29-9.48,1.32-14.23.17-1.11-.27-2.2-.71-3.21-1.24-1-.53-1.89-1.28-2.92-2.01ZM18.5,34.75c1.81-.17,3.05-.23,4.26-.41,2.61-.39,4.86-1.41,5.96-4.02,1.41-3.34,1.96-6.84,1.47-10.43-.3-2.23-1.35-4.03-3.77-4.57-3.75-.83-7.52-.92-11.17.36-3.5,1.23-5.67,3.63-5.95,7.48-.09,1.17-.32,2.33-.4,3.5-.06.82-.09,1.67.07,2.47.51,2.52,2.27,3.99,4.59,4.68,1.77.53,3.66.7,4.95.93Z"/><path class="cls-1" d="M118.4,38.76c.16-1.55.32-3.11.49-4.78-.2.13-.34.19-.42.29-2.37,2.87-5.53,4.23-9.14,4.66-4.31.52-8.61.56-12.85-.57-.52-.14-1.02-.31-1.52-.51-3.78-1.52-5.2-4.21-4.31-8.19.73-3.29,3.03-5.13,6.02-6.23,3.23-1.19,6.63-1.46,10.05-1.48,4.21-.02,8.42-.02,12.62.01.65,0,.91-.19.94-.84.03-.69.18-1.38.18-2.08.02-1.98-.94-3.58-2.85-4.1-1.71-.47-3.52-.66-5.3-.74-2.91-.14-5.84-.17-8.72.53-2.26.55-4.08,1.62-4.72,4.07-.04.16-.27.37-.42.38-2.08.02-4.16.02-6.3.02.47-2.88,1.9-4.99,4.27-6.49,2.35-1.48,5-2.07,7.69-2.39,5.18-.61,10.38-.6,15.55.14,1.2.17,2.41.56,3.5,1.09,3.41,1.64,5.03,4.48,4.68,8.28-.34,3.7-.87,7.38-1.32,11.07-.3,2.44-.61,4.88-.9,7.32-.04.37-.06.67-.57.67-2.12-.02-4.23-.01-6.35-.02-.07,0-.15-.05-.31-.1ZM119.64,25.66c-.15-.02-.31-.06-.46-.06-4.26,0-8.52-.03-12.79,0-1.96.02-3.92.15-5.72,1.06-1.84.93-2.7,2.48-2.67,4.49.02,1.69,1.11,2.85,3.08,3.44,2.22.66,4.5.62,6.78.54,2.7-.09,5.35-.47,7.76-1.79,3.45-1.89,3.95-3.42,4.02-7.7Z"/><path class="cls-1" d="M78.68,39c.45-3.68.88-7.21,1.32-10.74.84-6.69,1.68-13.37,2.52-20.06.32-2.52.62-5.04.97-7.56.03-.23.32-.6.5-.6,2.28-.03,4.56-.01,6.83,0,.05,0,.09.05.19.1-.28,2.23-.55,4.48-.83,6.73-.78,6.24-1.57,12.47-2.36,18.7-.54,4.27-1.07,8.54-1.63,12.81-.03.22-.29.58-.45.59-2.33.04-4.65.03-7.07.03Z"/><path class="cls-1" d="M33.55,3.64C33.56,1.51,35.07-.01,37.18,0c2.07,0,3.8,1.71,3.76,3.7-.04,2.01-1.79,3.7-3.82,3.69-2.03,0-3.58-1.63-3.57-3.74Z"/></svg>