<?xml version="1.0" encoding="UTF-8"?><svg id="Layer_1" xmlns="http://www.w3.org/2000/svg" viewBox="0 0 206.66 43.68"><defs><style>.cls-1{fill:#171717;}</style></defs><path class="cls-1" d="M17,27.67c.19.07.58-.07.59.31.28.15.51.27.74.4.03.02.05.06.08.06.57-.04,1.01.37,1.56.41.38.03.76.03,1.14.03,5.56,0,11.11,0,16.67,0,.33,0,.66,0,.98.02.29.02.59-.02.8.26.04.05.15.06.24.07.26.04.57-.05.68.31,0,.02.06.05.09.04.36-.01.62.17.87.4.15.13.45,0,.5.34.03.2.38.11.44.42.04.19.39.3.55.49.2.23.36.49.53.74.03.04.05.1.04.15-.05.31.42.21.39.54-.01.19-.04.45.23.58.09.05.14.23.15.36.05.49.11.97.26,1.45.16.51.1,1.09.08,1.64-.02.41.03.84-.26,1.23-.13.18-.05.5-.07.76-.01.17.01.33-.21.42-.08.03-.14.22-.15.34-.04.28-.18.49-.31.73-.15.28-.49.41-.55.76-.03.15-.25.32-.38.41-.38.27-.57.75-1.06.89-.08.02-.11.19-.17.31-.28.05-.62-.01-.77.36-.02.05-.19.04-.29.07-.19.05-.4,0-.52.25-.04.09-.27.13-.42.15-.26.03-.52.02-.77.04-.1,0-.24,0-.3.05-.25.27-.57.2-.87.2-5.71,0-11.42,0-17.14,0-.29,0-.58.04-.83-.2-.07-.07-.23-.05-.35-.06-.28-.02-.55-.02-.83-.04-.1,0-.27,0-.29-.07-.17-.36-.49-.3-.79-.35-.13-.02-.24-.12-.36-.19-.11-.06-.23-.12-.33-.2-.07-.05-.14-.12-.2-.18-.07-.06-.14-.14-.22-.18-.62-.32-1.14-.72-1.42-1.4-.09-.21-.26-.45-.44-.58-.19-.13-.23-.27-.26-.45-.03-.15-.03-.27-.19-.38-.12-.09-.16-.32-.2-.5-.05-.28,0-.58-.24-.81-.08-.08-.08-.26-.08-.39-.02-.5-.02-1-.03-1.5-.01-.6-.03-1.21-.06-1.81,0-.18-.04-.35-.19-.51-.12-.13-.12-.38-.17-.57-.05-.2.02-.47-.3-.53-.03,0-.07-.04-.07-.06-.02-.34-.28-.55-.42-.82-.14-.27-.4-.39-.54-.64-.15-.26-.53-.37-.69-.68-.05-.09-.3-.06-.36-.15-.21-.34-.72-.27-.9-.67-.04-.08-.28-.07-.44-.09-.26-.04-.53.04-.73-.26-.07-.1-.32-.1-.49-.11-.67-.02-1.35-.03-2.02-.05-.23,0-.47.02-.66-.21-.08-.09-.29-.09-.44-.12-.27-.05-.59.04-.76-.3-.03-.06-.19-.08-.28-.09-.2-.02-.32-.08-.45-.26-.1-.15-.39-.16-.64-.25-.05-.12-.04-.32-.34-.35-.16-.02-.22-.37-.48-.42.02-.32-.49-.27-.43-.62-.24-.08-.31-.3-.44-.47-.17-.21-.31-.39-.33-.66,0-.06-.04-.14-.09-.18-.24-.17-.25-.43-.3-.69-.03-.19,0-.41-.24-.53-.08-.04-.1-.25-.1-.38,0-1.27,0-2.55,0-3.82,0-.1,0-.26.06-.29.3-.19.26-.49.31-.77.03-.2.16-.35.25-.52.16-.3.4-.56.49-.86.1-.31.5-.35.49-.69.35.03.28-.5.63-.47-.03-.37.39-.32.55-.58.16-.26.61-.35.93-.52.07-.04.2-.03.23-.09.18-.34.5-.32.81-.34.15-.01.27-.06.4-.17.15-.13.41-.17.62-.18.67-.03,1.34-.03,2.02-.05.21,0,.42.02.56-.18.03-.04.08-.07.13-.08.49-.06.96-.19,1.39-.46.13-.08.28-.1.41-.24.13-.14.38-.18.48-.23.24-.21.4-.34.56-.49.13-.12.33-.22.36-.37.05-.21.14-.29.32-.34.04-.01.06-.07.08-.12.18-.41.37-.8.71-1.1.04-.03.06-.09.07-.14.06-.28.03-.65.2-.83.25-.28.21-.56.24-.85.03-.29.04-.58.04-.88,0-.65,0-1.31.02-1.96,0-.21.12-.41.18-.62.05-.19.11-.39.14-.58.04-.26-.02-.56.3-.71.05-.02.06-.15.08-.23.04-.23.01-.5.33-.56.01-.28.34-.38.39-.6.08-.38.43-.53.59-.83.08-.14.32-.33.49-.38.35-.1.61-.36.84-.56.3-.26.61-.33.95-.39.05,0,.12-.02.14-.05.28-.39.7-.28,1.07-.31.29-.02.57-.01.83-.2.13-.09.37-.06.55-.06,5.18,0,10.35,0,15.53,0,.66,0,1.31-.01,1.97,0,.2,0,.39.1.59.14.32.05.64.09.96.13.28.03.6-.06.76.28.02.04.13.08.19.07.48-.07.76.34,1.16.47.18.06.21.38.48.37.21.44.82.5.96,1.04.05.21.44.32.52.54.14.37.53.58.54,1,0,.12.03.28.11.33.32.23.26.57.29.89.02.21-.02.45.2.61.05.04.07.16.07.24,0,.79,0,1.58,0,2.37,0,.03,0,.08,0,.1-.32.45-.24.98-.29,1.48,0,.08-.02.21-.08.24-.33.19-.28.51-.34.84-.14.1-.3.17-.4.4-.14.32-.38.63-.64.91-.18.2-.42.36-.56.64-.12.23-.5.34-.76.5-.04.02-.1.02-.15.03-.21.05-.19.4-.5.37-.18-.02-.41.01-.5.28-.02.06-.21.06-.33.08-.3.04-.62.02-.85.3-.06.07-.22.07-.34.07-.43.02-.86.03-1.29.03-5.68,0-11.35,0-17.03,0-.29,0-.59,0-.88.03-.11,0-.29.04-.32.11-.12.27-.34.25-.56.27-.28.02-.61-.04-.74.33-.37,0-.58.32-.88.47-.24.12-.51.26-.63.47-.11.18-.23.24-.38.34-.13.09-.08.37-.34.37-.07.38-.61.46-.56.92,0,.07-.09.15-.15.23-.05.08-.13.15-.16.23-.09.23-.02.52-.33.65-.06.03-.07.22-.08.34-.05.89-.13,1.79-.13,2.68,0,.67.07,1.34.15,2.01.03.21.2.39.31.59.1.2-.03.5.29.61.05.02.07.14.1.21.08.2.08.45.36.51,0,.34.39.38.51.67.08.21.37.33.55.5.11.09.2.2.36.38Z"/><path class="cls-1" d="M156.67,7.76c.2.16.33.24.44.35.39.41.92.63,1.32,1.06.4.43.6,1.01,1.11,1.35.12.08.12.38.4.36.03.18.05.33.08.48.02.08.02.22.07.23.38.14.3.47.3.74,0,2.5,0,5,0,7.5,0,.2.02.42-.21.54-.05.03-.09.12-.09.18,0,.45-.32.76-.53,1.11-.13.22-.37.37-.56.55-.03.03-.12.05-.12.07-.01.23-.13.34-.36.36.02.37-.48.34-.5.67-.3.04-.31.46-.64.49-.09,0-.15.19-.25.33-.16.02-.36.05-.49.07-.21.18-.36.31-.55.48,0,0-.03.05-.01.09.17.36.35.71.53,1.07.09.18.18.36.28.53.1.18.24.34.33.52.09.17.01.43.32.46.04,0,.07.11.09.17.08.24,0,.56.36.67.05.02.04.19.06.29.04.17.04.35.26.4.03,0,.08.04.08.06.02.36.18.64.44.9.16.16.25.39.33.6.09.22.09.47.33.61.05.03.06.12.09.18.02.05.04.11.03.15-.09.33.41.21.39.52-.01.21-.03.51.31.57.03,0,.06.05.06.07.02.34.13.64.42.85-.02.46.5.71.48,1.17.28.14.29.45.45.68.11.16.17.36.26.54.04.07.06.17.13.2.25.16.23.39.22.67h-6.48c-.12-.16-.23-.3-.33-.45-.06-.08-.12-.17-.15-.27-.05-.2-.03-.41-.28-.5-.05-.02-.07-.15-.1-.23-.08-.2,0-.5-.35-.56-.03,0-.06-.12-.07-.18-.04-.25-.04-.52-.33-.63,0-.44-.41-.7-.49-1.11-.03-.15-.03-.31-.23-.36-.05-.01-.09-.13-.11-.21-.07-.23.03-.54-.34-.6-.03,0-.05-.15-.06-.24-.04-.21-.02-.45-.3-.53-.05-.01-.06-.15-.09-.22-.07-.19,0-.46-.3-.54-.05-.01-.06-.15-.08-.23-.06-.21-.06-.45-.32-.54-.04-.01-.06-.08-.08-.12-.08-.22-.02-.48-.31-.66-.15-.09-.16-.41-.34-.58-.09-.08-.1-.25-.15-.37-.05-.12-.12-.23-.19-.34-.05-.09-.12-.17-.16-.26-.16-.37-.23-.8-.48-1.09-.2-.25-.32-.5-.42-.81h-3.44c-.02.31-.06.59-.06.88,0,3.29,0,6.58,0,9.88,0,.27-.04.54-.05.79-.49.14-5.02.16-5.69.03-.02-.21-.06-.44-.06-.68,0-1.48,0-2.96,0-4.45,0-7.86,0-15.72,0-23.58,0-.27.02-.54.04-.87.27-.04.5-.09.74-.09,4.3,0,8.59,0,12.89,0,.32,0,.63,0,.9.28.11.12.39.06.6.1.21.04.42,0,.57.26.08.14.39.14.53.18ZM146.27,12.5c-.03.28-.09.55-.09.82,0,1.84,0,3.68,0,5.53,0,.12,0,.24,0,.36,0,.18.1.29.29.3.12,0,.24,0,.36,0,2.03,0,4.07,0,6.1,0,.17,0,.34,0,.52-.02.08,0,.19-.02.24-.07.19-.18.35-.37.53-.56.22-.23.43-.46.65-.7v-4.46c-.38-.06-.38-.55-.74-.6-.38-.5-.62-.62-1.19-.62-2.05,0-4.1,0-6.15,0-.15,0-.31.01-.52.02Z"/><path class="cls-1" d="M88.26,6.98c.19-.01.34-.04.49-.04,1.52,0,3.04,0,4.56,0,.09,0,.17,0,.26,0,.37.04.47.15.51.52.02.15,0,.31,0,.47,0,3.5,0,7,0,10.5v.63h8.61c0-.2.02-.39.02-.59,0-3.53,0-7.07,0-10.6v-.8c.41-.15,4.5-.19,5.4-.08.38.43.38.96.38,1.49,0,8.93,0,17.86,0,26.79,0,.5.01.99-.39,1.4h-5.34c-.02-.29-.04-.56-.04-.83,0-3.45,0-6.9,0-10.34,0-.27,0-.55,0-.8-.44-.11-7.81-.14-8.58-.04-.02.26-.05.52-.05.79,0,3.47,0,6.93,0,10.4,0,.25-.05.51-.07.74-.47.14-4.57.19-5.74.08-.01-.24-.04-.49-.04-.74,0-2.09,0-4.17,0-6.26,0-7.26,0-14.52,0-21.77,0-.29.02-.58.03-.9Z"/><path class="cls-1" d="M111.92,36.63c.09-.48.17-.86.24-1.24.01-.07,0-.17.03-.2.43-.25.3-.69.36-1.06.03-.21,0-.44.27-.57.09-.04.08-.28.1-.43.04-.26.01-.53.29-.73.1-.07.08-.32.09-.49.02-.25.06-.46.27-.64.09-.08.11-.27.13-.41.05-.31-.01-.64.31-.88.11-.08.07-.35.1-.54.03-.22.02-.43.25-.59.11-.07.11-.3.15-.47.05-.27-.03-.57.28-.77.1-.07.08-.32.11-.49.04-.24,0-.5.27-.68.1-.07.08-.32.1-.48.03-.25,0-.49.27-.68.11-.08.09-.35.13-.53.05-.24-.04-.52.3-.65.07-.03.09-.24.11-.38.04-.29-.04-.63.3-.82.02-.01.03-.06.04-.09.04-.32-.02-.75.16-.94.26-.28.25-.58.31-.88.03-.15.03-.27.18-.4.12-.09.15-.33.17-.5.04-.28,0-.56.27-.79.12-.11.11-.38.14-.58.04-.29.01-.58.29-.79.09-.07.09-.28.11-.43.04-.29-.02-.6.3-.82.1-.07.07-.32.1-.49.04-.23,0-.48.28-.62.08-.04.09-.24.11-.38.05-.3.03-.6.29-.85.11-.1.07-.36.1-.54.04-.23.01-.46.27-.63.1-.07.1-.31.12-.47.04-.26,0-.53.28-.73.11-.08.09-.35.12-.53.05-.22-.02-.47.25-.63.1-.06.08-.31.12-.48.06-.25,0-.53.28-.73.11-.08.08-.35.11-.53.04-.23,0-.47.27-.62.1-.06.15-.31.13-.46-.07-.44.31-.64.48-.95.03-.06.19-.07.28-.07,1.74,0,3.49,0,5.23,0,.47,0,.6.14.68.6.04.24.03.49.29.67.11.07.06.36.1.54.04.21,0,.42.25.58.12.08.12.37.14.57.03.27-.03.56.29.71.03.01.04.06.05.09.05.3,0,.7.18.89.25.26.28.53.31.83.02.18.02.35.18.51.13.12.14.37.18.57.05.23.03.46.24.65.12.12.12.38.14.58.04.3.03.6.31.84.1.09.09.32.11.48.03.25.02.5.28.68.09.06.09.28.11.42.03.28-.01.58.28.79.09.07.08.29.1.44.04.28,0,.59.31.76.06.03.06.19.08.29.08.32,0,.69.34.92.07.05.05.23.06.35.02.29.02.57.29.79.1.08.09.32.11.48.04.26-.02.54.27.73.1.07.09.32.12.48.04.24-.03.51.26.68.07.04.08.22.1.33.06.31,0,.64.32.88.09.06.06.29.08.44.04.26-.01.53.29.71.11.06.09.35.11.53.03.25,0,.52.26.68.03.02.04.06.05.09.05.3,0,.69.17.89.22.26.3.51.33.82.01.18-.02.36.2.49.1.05.11.27.14.42.08.39-.04.83.36,1.12.05.03.03.16.04.25.04.32,0,.64.32.89.1.08.08.32.1.49.03.25.02.5.27.69.1.08.1.31.12.47.04.27-.04.58.3.75.09.05.09.28.11.43.03.28,0,.56.27.78.11.09.05.38.07.61-.18.02-.31.04-.45.04-1.66,0-3.31,0-4.97,0-.5,0-.79-.28-.83-.79-.02-.3,0-.6-.3-.82-.1-.07-.07-.35-.09-.54-.03-.25-.02-.48-.24-.7-.13-.13-.13-.41-.16-.63-.04-.3.04-.63-.29-.83-.05-.03-.05-.16-.06-.24-.07-.36-.04-.72-.33-1.04-.14-.15-.07-.5-.1-.75,0-.07-.03-.13-.05-.24-.22-.01-.44-.04-.66-.04-2.76,0-5.52,0-8.28,0-.1,0-.21,0-.31,0-.32.04-.41.12-.46.45-.03.19-.02.38-.04.57-.02.13-.02.32-.11.39-.29.22-.26.53-.29.83-.02.2-.01.39-.23.54-.1.07-.09.31-.12.48-.05.27.01.57-.3.77-.11.07-.08.35-.12.54-.06.33,0,.7-.32.95-.06.05-.05.19-.06.29-.07.62-.3.83-.9.83-1.54,0-3.07,0-4.61,0-.22,0-.43-.04-.62-.06ZM124.5,15.52c-.14.28-.18.48-.2.7-.02.15,0,.38-.1.44-.31.18-.22.47-.27.72-.03.18-.03.43-.15.52-.23.18-.23.4-.26.63-.02.18,0,.45-.11.53-.3.23-.25.54-.3.84-.04.22-.02.53-.15.63-.26.2-.21.44-.25.68-.03.18,0,.45-.11.53-.27.19-.21.45-.27.68-.05.19-.1.39-.17.58-.05.14-.16.26-.17.4-.04.36-.01.73-.46,1,.21.08.34.16.46.16,1.8.03,3.61.03,5.48,0-.06-.26-.05-.5-.16-.6-.27-.22-.24-.5-.27-.79-.02-.17,0-.42-.1-.48-.31-.18-.25-.46-.29-.72-.03-.16-.03-.39-.13-.47-.25-.19-.24-.44-.27-.69-.02-.17,0-.42-.1-.49-.29-.2-.22-.48-.27-.73-.03-.17,0-.41-.11-.48-.29-.22-.24-.51-.28-.79-.03-.22-.01-.52-.14-.63-.26-.22-.22-.47-.26-.73-.03-.18,0-.45-.12-.53-.24-.17-.23-.4-.31-.62-.02-.07-.07-.13-.15-.29Z"/><path class="cls-1" d="M82.75,13.18c-.3.02-.52.03-.74.05-.12.01-.29.03-.33.1-.15.29-.42.26-.67.28-.27.02-.53,0-.74.27-.07.09-.29.08-.44.1-.28.04-.57,0-.8.27-.1.11-.36.08-.54.1-.32.05-.66,0-.89.32-.03.05-.26.02-.27.01-.03-.28-.36-.27-.43-.43-.16-.34-.43-.53-.7-.75-.04-.03-.06-.08-.08-.13-.09-.35-.28-.57-.66-.61-.34-.45-.83-.28-1.27-.29-1.17-.02-2.35,0-3.52,0-.26,0-.48.03-.7.22-.25.22-.57.36-.86.54-.01,0-.05,0-.05.02-.08.39-.56.58-.54,1.03.01.17-.03.34-.03.52,0,4.78,0,9.55,0,14.33,0,.22.07.43.1.65.02.15.07.26.24.28.04,0,.12.06.11.08-.02.29.32.27.37.39.1.25.33.22.46.35.39.4.88.32,1.35.32,1.24,0,2.49,0,3.73,0,.55,0,.93-.32,1.17-.75.17-.31.47-.49.64-.77.17-.3.53-.41.65-.77.16.03.36.01.45.1.27.25.59.24.91.27.22.02.44,0,.59.25.05.08.24.1.37.12.26.03.52.02.77.05.1,0,.25.03.28.09.14.32.42.26.66.27.35.02.68.02.94.32.08.09.25.1.4.15,0,.09.02.25-.02.28-.31.18-.27.53-.41.78-.17.3-.24.7-.6.89-.07.04-.08.18-.13.27-.17.33-.44.59-.66.88-.17.22-.47.32-.55.63-.05.17-.4.12-.38.41-.35-.01-.34.48-.68.49-.05,0-.12.08-.13.14-.05.19-.18.24-.34.26-.19.02-.39.03-.41.29,0,.02-.02.04-.03.04-.46-.03-.73.44-1.18.47-.28.01-.58,0-.8.26-.07.08-.26.07-.39.07-2.17,0-4.35,0-6.52,0-.2,0-.39,0-.56-.19-.1-.11-.35-.1-.53-.13-.32-.05-.64-.03-.89-.32-.12-.13-.44-.08-.55-.21-.2-.25-.67-.19-.7-.62-.36.05-.36-.36-.62-.48-.19-.08-.4-.31-.49-.49-.1-.21-.35-.19-.38-.34-.05-.23-.17-.31-.38-.32.02-.34-.44-.31-.48-.63-.01-.1-.21-.18-.34-.28-.09-.21.03-.54-.33-.67-.05-.02-.05-.18-.08-.28-.07-.2-.03-.44-.27-.59-.07-.04-.08-.22-.08-.34-.02-.34-.03-.69-.03-1.03,0-5.28,0-10.55,0-15.83,0-.28,0-.55.02-.83.01-.25-.01-.51.24-.7.08-.07.08-.25.11-.38.04-.17,0-.39.27-.43.03,0,.07-.07.08-.12.05-.23.07-.46.33-.6.18-.09.14-.43.43-.43-.03-.37.44-.33.52-.66.05-.21.37-.35.57-.52.18-.15.21-.46.51-.47.25-.45.74-.63,1.1-.96.07-.06.19-.07.29-.1.08-.02.21,0,.24-.05.25-.34.61-.34.97-.37.08,0,.19-.03.23-.09.22-.29.53-.28.84-.28,2.16,0,4.31,0,6.47,0,.3,0,.56.04.81.26.12.11.35.11.53.13.17.02.35,0,.41.22.01.05.09.11.15.12.28.05.57.07.69.39.39-.04.55.35.85.49.19.09.25.38.51.41-.02.35.51.27.47.63.37,0,.31.45.63.56.18.06.28.35.41.54.15.2.08.57.44.61,0,.29.25.43.36.65.12.23.13.49.42.63.09.04.05.35.08.59Z"/><path class="cls-1" d="M189.64,6.98c.16.18.3.31.42.46.06.08.1.18.13.28.06.18,0,.43.3.47.03,0,.05.08.06.13.06.26.06.53.37.67.08.03.08.25.11.38.02.14.03.26.2.32.06.02.11.15.13.23.05.22.07.44.32.55.05.02.08.11.08.17.03.27.03.55.37.65.02.23.2.38.3.56.17.3.23.65.46.94.12.15.03.44.34.5.04,0,.06.15.08.23.05.22.03.45.32.58.12.05.12.37.18.62.15.04.34.1.33.37,0,.2,0,.46.29.53.04,0,.07.12.06.18-.06.39.39.51.44.85.02.13.32.1.36-.05.04-.17.09-.26.27-.33.08-.03.11-.23.14-.35.04-.16,0-.34.24-.39.07-.02.11-.22.16-.34.07-.17-.03-.43.27-.49.05,0,.06-.18.1-.27.07-.16.02-.39.28-.45.05-.01.09-.13.1-.21.05-.23.02-.49.32-.59.05-.01.06-.14.08-.22.03-.22.04-.45.32-.53.03,0,.07-.05.06-.07-.08-.46.33-.72.47-1.09.13-.32.22-.75.61-.93.04-.43.39-.71.51-1.1.05-.18.04-.36.26-.45.08-.03.11-.2.14-.32.05-.15-.02-.36.24-.39.04,0,.1-.11.1-.16-.03-.38.27-.59.46-.84.07-.1.27-.13.4-.14.78-.01,1.55,0,2.33,0,.97,0,1.93,0,2.9,0,.19,0,.37,0,.57,0,.05.34.1.6-.22.76-.06.03-.09.13-.12.2-.04.11-.07.23-.12.33-.11.22-.19.5-.37.63-.25.19-.25.42-.32.66-.02.06-.08.1-.13.14-.05.04-.16.08-.16.1.09.51-.48.75-.5,1.21,0,.08-.1.16-.16.23-.04.05-.15.08-.15.11-.01.32-.14.58-.4.78.08.43-.31.67-.48.96-.16.27-.35.5-.36.82-.36.12-.36.44-.41.74,0,.05-.09.08-.14.12-.05.04-.15.06-.16.11-.06.33-.14.61-.39.88-.15.16-.17.45-.37.67-.14.15-.14.47-.35.65-.06.05-.09.15-.1.23-.01.15-.04.27-.22.29-.04,0-.12.06-.12.08.06.5-.52.72-.51,1.2,0,.07-.06.18-.11.2-.17.05-.17.18-.22.31-.06.18-.01.43-.3.49-.04,0-.07.14-.08.22-.05.23,0,.5-.33.58-.03,0-.06.08-.07.12-.12.46-.35.84-.69,1.18-.08.08-.11.22-.13.33-.03.15,0,.3-.21.36-.06.02-.11.16-.12.25-.04.32-.07.65-.07.97,0,3.96,0,7.93,0,11.89,0,.27-.03.54-.06.88-1.91.06-3.78.04-5.7.02-.02-.32-.05-.57-.05-.83,0-3.96,0-7.93,0-11.89,0-.22,0-.45-.02-.67-.01-.11-.04-.24-.11-.32-.16-.19-.3-.37-.3-.63-.37-.22-.28-.74-.63-.99-.08-.06-.1-.21-.13-.33-.05-.15,0-.36-.26-.38-.04,0-.1-.09-.11-.15-.06-.27-.04-.59-.38-.71.08-.42-.32-.63-.45-.96-.15-.39-.42-.74-.64-1.11-.06-.1-.1-.22-.14-.33-.02-.06-.01-.18-.05-.19-.36-.15-.29-.5-.37-.8-.11-.04-.21-.08-.31-.12-.08-.3,0-.65-.38-.78-.05-.02-.07-.19-.06-.29.01-.28-.26-.36-.37-.55-.11-.19-.01-.45-.28-.62-.16-.1-.22-.36-.32-.55-.12-.23-.19-.53-.38-.68-.26-.2-.15-.47-.28-.72-.4-.08-.31-.46-.38-.78-.09-.03-.19-.07-.29-.11-.09-.26-.03-.62-.38-.77-.04-.02-.04-.13-.05-.19-.08-.41-.39-.7-.59-1.06-.07-.13-.13-.28-.21-.41-.06-.11-.13-.21-.2-.32-.06-.1-.13-.2-.17-.3-.07-.17.02-.44-.29-.46-.04-.21-.07-.42-.11-.63.43-.12,5.34-.16,6.08-.07Z"/><path class="cls-1" d="M183.91,36.66h-17.21c-.02-.27-.07-.53-.07-.78,0-9.36,0-18.72,0-28.08,0-.27.04-.54.07-.83h5.42c.02.35.06.67.06.99,0,7.38,0,14.76,0,22.13v.66c.29.21.58.19.87.19,3.4,0,6.8,0,10.2,0,.34,0,.62.05.78.37.07.15.15.31.15.47.01,1.34.02,2.69,0,4.03,0,.29-.18.57-.27.85Z"/></svg>