<?xml version="1.0" encoding="UTF-8"?><svg id="Layer_1" xmlns="http://www.w3.org/2000/svg" viewBox="0 0 121.51 39.84"><defs><style>.cls-1{fill:#171717;}</style></defs><path class="cls-1" d="M107.09,0c.02.08.03.17.06.25,4.75,13.1,9.51,26.2,14.27,39.3.03.09.06.18.09.28h-12.26c-.29-.96-.58-1.92-.87-2.88-.22-.72-.44-1.43-.65-2.15-.04-.12-.08-.18-.22-.18-4.62,0-9.24,0-13.86,0-.02,0-.03,0-.08.01-.52,1.72-1.05,3.45-1.57,5.19h-12.27C84.55,26.54,89.36,13.27,94.18,0c4.3,0,8.61,0,12.91,0ZM100.65,10.65s-.03,0-.05,0c-1.57,5.35-3.14,10.7-4.71,16.06h9.47c-1.57-5.36-3.14-10.71-4.71-16.05Z"/><path class="cls-1" d="M86.16,0c-1.03,2.85-2.06,5.7-3.08,8.55-.07.2-.19.19-.34.19-4.78,0-9.56,0-14.33,0h-.33v8h12c-.04.12-.06.21-.09.3-.99,2.75-1.99,5.49-2.97,8.24-.06.18-.14.24-.33.24-2.77,0-5.54,0-8.31,0h-.31v14.32h-12.65v-.32c0-13.05,0-26.1,0-39.15,0-.12,0-.24-.01-.35,10.25,0,20.51,0,30.76,0Z"/><path class="cls-1" d="M30.76,0c-.36.98-.72,1.95-1.08,2.93-.67,1.85-1.34,3.71-2,5.57-.07.19-.15.25-.35.25-4.79,0-9.57,0-14.36,0h-.32v8.01h12.01c-.04.12-.06.2-.08.28-.99,2.75-1.99,5.51-2.98,8.26-.07.18-.15.23-.34.23-2.77,0-5.54,0-8.31,0h-.31v14.33H0V0C10.25,0,20.51,0,30.76,0Z"/><path class="cls-1" d="M47.04,0c0,.11,0,.22,0,.33,0,13.01,0,26.02,0,39.03v.34h-12.64v-.37c0-13,0-25.99,0-38.99,0-.12-.01-.23-.02-.35C38.59,0,42.82,0,47.04,0Z"/></svg>