<?xml version="1.0" encoding="UTF-8"?><svg id="Layer_1" xmlns="http://www.w3.org/2000/svg" viewBox="0 0 200.01 28.19"><defs><style>.cls-1{fill:#171717;}</style></defs><path class="cls-1" d="M82.95,16.76c4.16-5.61,7.92-10.72,11.76-15.78.33-.44,1.17-.69,1.78-.69,5.45-.05,10.89-.03,16.89-.03-2.31,3.2-4.39,6.06-6.79,9.37,2.72,0,5,.09,7.27-.06.62-.04,1.33-.69,1.76-1.24,1.75-2.24,3.36-4.58,5.13-6.8.47-.59,1.33-1.21,2.02-1.22,5.53-.1,11.07-.06,17.15-.06-1.54,2.1-2.81,3.86-4.11,5.61-2.36,3.18-4.69,6.38-7.14,9.5-.51.65-1.48,1.32-2.23,1.33-14.27.08-28.53.06-43.49.06Z"/><path class="cls-1" d="M29.11,8.32c1.88-2.44,3.7-4.93,5.67-7.3.4-.48,1.34-.73,2.03-.73,12.02-.03,24.04-.13,36.05.1,2.25.04,4.75,1.08,6.63,2.38,3.09,2.13,3.17,5.68,1.31,8.88-2.29,3.93-5.16,5.93-9.98,5.2-3.16-.48-6.46-.09-10.49-.09,1.94-2.9,3.38-5.04,5.17-7.72H29.41c-.1-.24-.2-.48-.3-.72Z"/><path class="cls-1" d="M26.47,28.08c4.19-5.65,8.07-10.91,12-16.13.32-.42.95-.86,1.44-.87,5.43-.06,10.85-.04,17.07-.04-1.84,2.69-3.29,4.83-5.14,7.54h23.67c-4.24,5.8-9.34,9.11-15.58,9.37-10.96.45-21.95.13-33.46.13Z"/><path class="cls-1" d="M173.43,18.85c-2.34,3.14-4.28,5.85-6.38,8.44-.43.53-1.47.82-2.23.82-9.34.05-18.68.04-28.02.01-.94,0-2.01.04-2.79-.37-1.59-.84-3.97-1.75-4.27-3.04-.35-1.5,1.11-3.46,1.94-5.15.19-.39.99-.68,1.51-.69,13.22-.04,26.44-.03,40.25-.03Z"/><path class="cls-1" d="M133.71,16.76c2.75-3.72,5.56-6.8,7.53-10.34,2.86-5.13,6.77-7.03,12.59-6.25,3.56.48,7.23.09,11.22.09-.47.8-.75,1.37-1.12,1.88-3.16,4.29-6.25,8.64-9.56,12.82-.72.91-2.17,1.69-3.32,1.73-5.58.18-11.17.08-17.35.08Z"/><path class="cls-1" d="M99.66,18.85c-2.34,3.16-4.28,5.86-6.33,8.48-.35.45-1.13.81-1.72.82-5.51.06-11.01.04-17.13.04,2.34-3.17,4.37-5.97,6.49-8.71.3-.38,1.03-.59,1.57-.6,5.51-.04,11.01-.03,17.12-.03Z"/><path class="cls-1" d="M100.96,28.18c2.31-3.13,4.2-5.77,6.21-8.32.4-.51,1.25-.96,1.89-.97,5.51-.08,11.03-.04,17.14-.04-2.35,3.15-4.4,5.95-6.53,8.68-.3.39-1.03.62-1.57.63-5.51.04-11.03.03-17.14.03Z"/><path class="cls-1" d="M.43,18.96h28.91c.11.17.21.35.32.52-.81.46-1.63,1.3-2.45,1.31-8.45.1-16.9.09-25.36,0-.62,0-1.22-.76-1.84-1.16.14-.23.27-.46.41-.68Z"/><path class="cls-1" d="M170.45,27.5c.78-.44,1.55-1.25,2.33-1.26,8.48-.09,16.95-.08,25.43-.01.6,0,1.2.69,1.79,1.05-.12.25-.24.5-.36.74h-28.92c-.1-.17-.19-.35-.29-.52Z"/><path class="cls-1" d="M26.92,23.31c-.73.41-1.46,1.16-2.2,1.17-8.09.08-16.19.05-24.28.05-.14-.24-.29-.49-.43-.73.52-.43,1.04-1.23,1.57-1.23,8.36-.08,16.72-.06,25.09-.06.09.27.18.53.26.8Z"/><path class="cls-1" d="M173.18,23.83c.84-.44,1.67-1.25,2.52-1.26,7.5-.1,15.01-.09,22.51,0,.58,0,1.15.8,1.72,1.22-.14.21-.29.43-.43.64h-26.02l-.3-.6Z"/><path class="cls-1" d="M175.92,20.06c.73-.4,1.45-1.15,2.18-1.16,7.14-.09,14.28-.05,21.43-.05.15.24.29.48.44.71-.52.43-1.03,1.23-1.56,1.24-7.4.08-14.81.06-22.21.06-.09-.26-.18-.53-.28-.79Z"/><path class="cls-1" d="M24.13,26.96c-.72.4-1.44,1.15-2.17,1.16-7.16.09-14.31.05-21.47.05-.14-.25-.28-.5-.42-.75.58-.42,1.16-1.19,1.75-1.2,7.34-.08,14.67-.05,22.01-.05.1.26.21.53.31.79Z"/></svg>