<?xml version="1.0" encoding="UTF-8"?><svg id="Layer_1" xmlns="http://www.w3.org/2000/svg" viewBox="0 0 184.46 42.58"><defs><style>.cls-1{fill:#171717;}</style></defs><path class="cls-1" d="M117.9,13.39c2.3-.17,4.51-.41,6.72-.48,1.04-.03,2.11.16,3.12.42,3.43.85,5.37,3.35,5.7,7.27.39,4.6-.23,9.1-1.56,13.5-1.49,4.91-4.95,7.5-9.94,8.11-4.47.55-8.91.29-13.3-.8-.21-.05-.42-.12-.62-.19-2.49-.8-3.07-1.53-2.82-4.14.38-4.04.91-8.07,1.37-12.11.65-5.7,1.31-11.4,1.96-17.09.2-1.72.38-3.45.59-5.18.11-.89.51-1.48,1.49-1.61,2.43-.33,4.84-.74,7.27-1.05,1.22-.15,1.39.08,1.27,1.25-.42,4.07-.84,8.13-1.25,12.09ZM115.19,35.75c.9.08,1.67.18,2.44.2,2.96.07,4.07-.69,4.75-3.59.5-2.13.83-4.32,1.05-6.49.16-1.56.08-3.14,0-4.71-.06-.99-.73-1.6-1.73-1.61-1.26,0-2.52.13-3.78.16-.68.02-.87.37-.94.98-.32,2.86-.67,5.72-1.01,8.58-.25,2.12-.5,4.23-.77,6.48Z"/><path class="cls-1" d="M21.47,42.47c-1.24,0-2.48,0-3.72,0-1.15,0-1.3-.15-1.17-1.31.32-2.8.66-5.6,1-8.4.39-3.23.79-6.46,1.18-9.69.04-.34.03-.68.02-1.02-.04-1.77-.75-2.5-2.51-2.5-.99,0-1.98.08-2.96.22-.25.03-.62.4-.65.65-.78,6.28-1.53,12.56-2.28,18.84-.08.71-.19,1.41-.26,2.12-.07.78-.44,1.14-1.27,1.13-2.61-.03-5.21,0-7.82-.02-.95,0-1.13-.23-1.01-1.2.3-2.52.61-5.05.91-7.57.66-5.42,1.36-10.83,1.96-16.25.16-1.46.94-2.3,2.22-2.65,1.88-.51,3.78-.97,5.71-1.28,3.71-.6,7.45-.89,11.21-.45.71.08,1.41.2,2.1.38,3.26.86,4.91,2.77,4.87,6.12-.02,2.53-.38,5.06-.67,7.59-.5,4.41-1.05,8.8-1.58,13.21-.04.34-.11.68-.13,1.01-.04.82-.47,1.13-1.27,1.11-1.3-.04-2.61,0-3.91,0Z"/><path class="cls-1" d="M43.39,42.58c-1.55-.18-3.21-.25-4.81-.57-4.82-.98-7.19-3.74-7.46-8.7-.22-4.02.3-7.98,1.52-11.83,1.66-5.23,5.48-7.74,10.72-8.39,2.69-.33,5.38-.33,8.06.14,5.12.91,7.55,3.5,7.87,8.7.26,4.21-.3,8.36-1.66,12.36-1.53,4.53-4.82,7-9.44,7.78-1.55.26-3.14.34-4.8.52ZM49.58,23.93c-.09-.01-.17-.02-.26-.03,0-.71.05-1.43-.01-2.14-.09-.9-.47-1.66-1.36-2.07-2.29-1.05-4.82,0-5.52,2.4-.41,1.42-.68,2.9-.83,4.37-.24,2.34-.43,4.69-.46,7.04-.02,1.49.67,2.09,2.13,2.37,2.56.48,4.36-.5,4.9-3.05.63-2.93.96-5.92,1.42-8.89Z"/><path class="cls-1" d="M145.1,31.46c-.41,2.17.42,3.56,2.48,4.11,2.85.75,5.72.56,8.57-.06.82-.18,1.62-.4,2.43-.63.69-.19,1.11.05,1.2.75.15,1.23.29,2.46.38,3.7.06.75-.39,1.17-1.09,1.42-4.28,1.53-8.69,1.97-13.19,1.59-1.1-.09-2.21-.31-3.28-.6-4.08-1.11-6.31-3.9-6.86-8-.64-4.72.17-9.25,1.98-13.64,1.61-3.89,4.53-6.09,8.61-6.86,3.27-.62,6.55-.59,9.8.05,4.72.93,7.04,3.88,7.05,8.84.01,4.96-2.36,7.78-7.58,8.57-3.09.47-6.23.53-9.35.77-.37.03-.74,0-1.15,0ZM145.33,26.49l.35.3c1.62-.15,3.25-.26,4.86-.49.69-.1,1.38-.36,1.99-.7,1.32-.72,1.58-1.97,1.44-3.36-.12-1.26-.66-2.24-1.88-2.75-2.27-.94-4.69-.08-5.56,2.19-.59,1.53-.82,3.2-1.2,4.8Z"/><path class="cls-1" d="M72.65,36.04c1.42.27,1.44.26,1.79-.97,1.92-6.82,3.85-13.65,5.78-20.47.37-1.31.62-1.5,1.95-1.5,2.33,0,4.65,0,6.98,0,1.54,0,1.89.54,1.31,2.08-2.45,6.52-4.9,13.04-7.36,19.56-.83,2.2-1.68,4.4-2.48,6.61-.29.8-.73,1.16-1.64,1.16-4.34-.04-8.68-.05-13.02,0-1.01.01-1.36-.37-1.48-1.31-.62-4.73-1.27-9.46-1.92-14.18-.53-3.9-1.05-7.8-1.6-11.69-.24-1.7.18-2.22,1.9-2.22,2.23,0,4.47,0,6.7,0,1.51,0,1.64.17,1.74,1.71.42,6.96.87,13.92,1.3,20.89,0,.12.04.24.06.34Z"/><path class="cls-1" d="M177.28,12.9c2.05,0,3.96,0,5.88,0,1.23,0,1.41.23,1.24,1.44-.22,1.57-.45,3.13-.61,4.7-.09.82-.46,1.13-1.27,1.12-1.8-.03-3.6,0-5.4-.02-.48,0-.75.12-.81.64-.45,3.82-.97,7.63-1.36,11.45-.25,2.41.6,3.22,3.04,3.13.93-.04,1.85-.18,2.77-.31.75-.11,1.09.14,1.11.93.04,1.39.15,2.79.22,4.18.04.7-.23,1.19-.95,1.39-3.76,1.08-7.58,1.35-11.4.51-3.36-.73-5.24-3.01-5.15-6.45.08-3,.48-5.99.82-8.97.68-5.94,1.42-11.88,2.14-17.82.12-1.02.24-2.03.38-3.05.12-.89.63-1.35,1.52-1.49,2.51-.39,5.01-.83,7.52-1.24,1.12-.18,1.46.22,1.31,1.46-.33,2.74-.66,5.48-1.01,8.37Z"/><path class="cls-1" d="M95.39,42.5c-1.36,0-2.73-.02-4.09,0-.78.01-1.04-.34-.95-1.09,1.11-9.07,2.21-18.15,3.3-27.22.1-.79.48-1.14,1.28-1.13,2.64.02,5.27.03,7.91,0,.88,0,1.15.36,1.05,1.2-.54,4.49-1.06,8.99-1.59,13.48-.53,4.46-1.07,8.92-1.6,13.38-.14,1.19-.32,1.38-1.49,1.39-1.27,0-2.54,0-3.81,0Z"/><path class="cls-1" d="M99.37,10.27c-1.18,0-2.36.03-3.54,0-1.02-.03-1.47-.45-1.37-1.46.25-2.46.58-4.92.94-7.38.12-.79.7-1.23,1.52-1.23,2.42,0,4.84-.03,7.26.01.97.02,1.39.57,1.28,1.54-.27,2.28-.54,4.55-.84,6.83-.16,1.24-.65,1.66-1.9,1.69-1.12.03-2.23,0-3.35,0,0,0,0,0,0,0Z"/></svg>