<?xml version="1.0" encoding="UTF-8"?><svg id="Layer_1" xmlns="http://www.w3.org/2000/svg" viewBox="0 0 93.8 72.96"><defs><style>.cls-1{fill:#171717;}</style></defs><path class="cls-1" d="M17.06,72.54v-4.83c0-1.82-1.16-3.04-3.03-3.06-.98-.02-2,.29-2.7,1.37-.53-.85-1.37-1.37-2.54-1.37-.82,0-1.63.24-2.25,1.14v-.95h-1.67v7.7h1.69v-4.27c0-1.34.74-2.04,1.88-2.04s1.67.72,1.67,2.03v4.28h1.69v-4.27c0-1.34.77-2.04,1.88-2.04s1.69.72,1.69,2.03v4.28h1.69ZM42.08,64.85h-2.74v-2.33h-1.69v2.33h-1.56v1.53h1.56v3.51c0,1.79.69,2.85,2.67,2.85.72,0,1.56-.23,2.09-.6l-.48-1.43c-.5.29-1.05.43-1.48.43-.84,0-1.11-.52-1.11-1.29v-3.48h2.74v-1.53ZM56.36,64.66c-.97,0-1.59.45-2.03,1.13v-.93h-1.66v7.7h1.67v-4.32c0-1.27.55-1.98,1.64-1.98.34,0,.69.05,1.05.19l.52-1.58c-.37-.14-.85-.21-1.19-.21h0ZM34.77,65.46c-.81-.53-1.92-.8-3.14-.8-1.95,0-3.2.93-3.2,2.46,0,1.26.93,2.03,2.66,2.27l.79.11c.92.13,1.35.37,1.35.8,0,.6-.61.93-1.75.93s-2-.37-2.56-.81l-.79,1.3c.92.68,2.08,1,3.33,1,2.22,0,3.51-1.05,3.51-2.51,0-1.35-1.01-2.06-2.69-2.3l-.79-.11c-.72-.1-1.3-.24-1.3-.76,0-.56.55-.9,1.47-.9.98,0,1.93.37,2.4.66l.72-1.35ZM79.63,64.66c-.97,0-1.59.45-2.03,1.13v-.93h-1.66v7.7h1.67v-4.32c0-1.27.55-1.98,1.64-1.98.34,0,.69.05,1.05.19l.52-1.58c-.37-.14-.85-.21-1.19-.21h0ZM58.05,68.7c0,2.33,1.63,4.04,4.11,4.04,1.16,0,1.93-.26,2.77-.92l-.8-1.35c-.63.45-1.29.69-2.01.69-1.34-.02-2.32-.98-2.32-2.46s.98-2.45,2.32-2.46c.72,0,1.38.24,2.01.69l.8-1.35c-.84-.66-1.61-.92-2.77-.92-2.48,0-4.11,1.71-4.11,4.04h0ZM73.74,68.7v-3.85h-1.67v.93c-.53-.69-1.34-1.13-2.43-1.13-2.16,0-3.85,1.69-3.85,4.04s1.69,4.04,3.85,4.04c1.09,0,1.9-.43,2.43-1.13v.93h1.67v-3.85ZM67.51,68.7c0-1.35.89-2.46,2.33-2.46s2.32,1.06,2.32,2.46-.93,2.46-2.32,2.46-2.33-1.11-2.33-2.46h0ZM47.3,64.66c-2.25,0-3.83,1.64-3.83,4.04s1.64,4.04,3.94,4.04c1.16,0,2.22-.29,3.16-1.08l-.82-1.24c-.64.52-1.47.8-2.24.8-1.08,0-2.06-.5-2.3-1.88h5.72c.02-.21.03-.42.03-.64-.02-2.4-1.5-4.04-3.65-4.04h0ZM47.27,66.15c1.08,0,1.77.68,1.95,1.87h-3.99c.18-1.11.85-1.87,2.04-1.87h0ZM89.27,68.7v-6.94h-1.67v4.03c-.53-.69-1.34-1.13-2.43-1.13-2.16,0-3.85,1.69-3.85,4.04s1.69,4.04,3.85,4.04c1.09,0,1.9-.43,2.43-1.13v.93h1.67v-3.85ZM83.04,68.7c0-1.35.89-2.46,2.33-2.46s2.32,1.06,2.32,2.46-.93,2.46-2.32,2.46-2.33-1.11-2.33-2.46h0ZM26.5,68.7v-3.85h-1.67v.93c-.53-.69-1.34-1.13-2.43-1.13-2.16,0-3.85,1.69-3.85,4.04s1.69,4.04,3.85,4.04c1.09,0,1.9-.43,2.43-1.13v.93h1.67v-3.85ZM20.27,68.7c0-1.35.89-2.46,2.33-2.46s2.32,1.06,2.32,2.46-.93,2.46-2.32,2.46-2.33-1.11-2.33-2.46ZM92.07,71.43c.11,0,.21.02.3.06.09.04.18.09.25.16.07.07.13.15.17.24s.06.19.06.3-.02.2-.06.3c-.04.09-.1.17-.17.24-.07.07-.15.12-.25.16-.09.04-.2.06-.3.06s-.21-.02-.31-.06c-.1-.04-.18-.1-.25-.16-.07-.07-.13-.15-.17-.24-.04-.09-.06-.19-.06-.3s.02-.2.06-.3c.04-.09.1-.17.17-.24.07-.07.15-.12.25-.16.1-.04.2-.06.31-.06ZM92.07,72.79c.08,0,.16-.02.23-.05.07-.03.13-.07.19-.13.05-.05.1-.12.13-.19.03-.07.05-.15.05-.23s-.02-.16-.05-.23c-.03-.07-.07-.14-.13-.19-.05-.05-.12-.1-.19-.13s-.15-.05-.23-.05-.16.02-.24.05c-.07.03-.14.07-.19.13-.05.05-.1.12-.13.19-.03.07-.05.15-.05.23s.02.16.05.23c.03.07.07.14.13.19.05.05.12.1.19.13.07.03.15.05.24.05ZM92.11,71.84c.09,0,.16.02.21.06.05.04.07.1.07.17,0,.06-.02.11-.06.15-.04.04-.1.06-.17.07l.23.27h-.18l-.22-.27h-.07v.27h-.15v-.71h.33ZM91.93,71.97v.19h.17s.07,0,.1-.02c.02-.02.04-.04.04-.07s-.01-.05-.04-.07c-.02-.02-.06-.02-.1-.02h-.17ZM91.03,46.95v-.93h.38v-.19h-.96v.19h.38v.93h.21ZM92.89,46.95v-1.13h-.29l-.34.77-.34-.77h-.29v1.13h.21v-.85l.32.73h.22l.32-.73v.85h.21ZM44.33,52.54c.23.2.47.39.7.58-4.59,3.06-10.11,4.84-16.05,4.84C12.98,57.97,0,44.99,0,28.98S12.98,0,28.98,0c5.93,0,11.45,1.78,16.05,4.84-.23.19-.47.38-.7.58-6.83,5.94-10.74,14.53-10.74,23.56s3.92,17.62,10.74,23.56ZM64.81,0C58.88,0,53.36,1.78,48.77,4.84c.23.19.47.38.7.58,6.83,5.94,10.74,14.53,10.74,23.56s-3.92,17.62-10.74,23.56c-.23.2-.47.39-.7.58,4.59,3.06,10.11,4.84,16.05,4.84,16.01,0,28.98-12.98,28.98-28.98S80.82,0,64.81,0ZM46.9,6.21c-.37.29-.74.6-1.1.91-6.11,5.31-9.97,13.14-9.97,21.87s3.87,16.55,9.97,21.87c.36.31.72.61,1.1.91.37-.29.74-.6,1.1-.91,6.11-5.31,9.97-13.14,9.97-21.87s-3.87-16.55-9.97-21.87c-.36-.31-.72-.61-1.1-.91"/></svg>