<?xml version="1.0" encoding="UTF-8"?>
<svg id="Layer_1" xmlns="http://www.w3.org/2000/svg" version="1.1" viewBox="0 0 81 55.9">
  <!-- Generator: Adobe Illustrator 29.1.0, SVG Export Plug-In . SVG Version: 2.1.0 Build 142)  -->
  <defs>
    <style>
      .st0 {
        fill: #171717;
      }
    </style>
  </defs>
  <path class="st0" d="M44.3,56.2h-7.4C21.5,55.6,1.2,47.2,0,29.5-1.4,7.1,26.1-.8,44,0c18,.8,42.1,11.9,36.5,33.7-3.9,15.2-22.1,21.6-36.2,22.4ZM70.1,10.5c0-.3-.1-.4-.3-.5-.8-.7-2.4-1.6-3.4-2.1C51.9-.4,30.3-.4,15.5,7.4c-.5.2-3.6,2-3.7,2.2,0,.3.5.5.8.6,3,1.3,9.9,3.2,13,2.9s6.3-1.2,7.2-1.6,2.3-1.6,3.6-2.1c9.3-3.8,14.2,2.5,22.3,3.1s7.8-.6,11.5-2.1ZM79.4,23.6c-1.1-4.9-3.9-9-7.7-12.1-5.9,2.7-12.2,3.6-18.4,1.5-2.4-.8-4.5-2.1-7-2.7-7.9-1.8-12.1,1.4-17,7-1.3,1.4-2.4,2.4.4,2.8s5.7-2.7,8.6-4.4c4.6-2.9,6.6-1.3,10.4,1.6s9.1,8.1,13.9,11.7c5.5-2.3,11.2-4.1,17-5.5ZM30.6,13.5c-1.6.2-3.2,1-4.7,1.1-5,.5-11-2.1-15.7-3.7-4,3.1-7.2,7.3-8.3,12.3,5.8,1.6,12.1,2.7,17.2,6,1.5-.7,2.6-1.4,4.4-.8s1.6,1.1,1.7,1.2,1.2-.6,1.7-.7c1.2-.2,2.4,0,3.4.7s1.2,1.4,1.3,1.4c.4,0,1.1-.2,1.7-.2,2.6,0,4.4,2.2,4.1,4.7,3.6.2,5.7,3.4,4.3,6.8.8.6,5.1,1.3,5.1,0s-3.4-3.4-3.4-4,0-.5.3-.7c.9-.2,3.9,3.8,4.8,4.1,1.6.5,4-.8,3-2.6l-3.9-4.3-.3-.9c.4,0,.7,0,1.1.2,1.5.8,3,3.2,4.4,4.2,2.1,1.5,5.4-.7,4.2-2.9l-5.8-6.1c0-1.3,1.1-.2,1.6.1,1.7,1.3,3.2,3.2,4.8,4.4,2.9,2.3,6.1-.6,4-3-4.3-3.5-8.3-7.4-12.6-10.9s-5.2-5-8.8-3.5c-3.6,1.5-5.8,5.6-10.2,5.3s-4.6-1.1-4-3,3.6-3.7,4.5-5.1ZM79.6,28.4c0-1,0-2.1,0-3.1-5.5,1.2-10.9,3-16.1,4.9,1.5,3.4-1,6.3-4.6,5.9.1,2.6-2.9,4.6-5.3,4,0,1.7-2.4,3.2-3.9,3.2s-.9-.3-1.3-.2-.8.8-1.3,1c-1.9,1-4.4.3-6.2-.6-2.5,2.3-6.2,1.6-7.7-1.5-1.4.2-2.6.2-3.7-.7s-1.2-1.5-1.4-1.6c-.7-.4-2.3.1-3.8-1.2s-1.4-2.4-1.5-2.5-1.6-.2-2.2-.4c-2.2-.8-2.6-3.1-2.2-5.2-4.9-3.2-10.9-4.2-16.5-5.7-.8,3.5.6,7.7,2.5,10.8,12.6,20.5,56.3,20.7,70.9,2.4,2-2.5,4.1-6.4,4.4-9.7ZM24.6,32.3c.2-3.7-5.4-3.2-4.9.2.3,2.2,2.9,2.7,4.4,1.3.5.3,0,.8.1,1.2.2,2,1.5,3.5,3.7,3.1s.9-.6,1.3-.6,0,.8.2,1.1c.3,1.2,2.1,2.3,3.3,2s1-.9,1.7-.8c-.2,2.8,2.9,4.6,5.2,2.8,2.5-1.9.7-6-2.3-5.7s-1.3.8-1.8,0c.9-1.8.6-4.3-1.7-4.7s-1.8.3-3,.9c0-2.8-3.1-3.7-5.1-2s-.9,1.3-1.1,1Z"/>
</svg>