<?xml version="1.0" encoding="UTF-8"?>
<svg id="Layer_1" xmlns="http://www.w3.org/2000/svg" version="1.1" viewBox="0 0 156.9 64.2">
  <!-- Generator: Adobe Illustrator 29.1.0, SVG Export Plug-In . SVG Version: 2.1.0 Build 142)  -->
  <path d="M95.7,62.6l.3-.7v-28.9c0,0-.3-1.1-.3-1.1,4.3.2,8.7-.2,12.9,0,6.7.3,11.3,3.1,10.8,10.5-.2,3.4-2,6.4-5.2,7.7s-.9.2-1.3.4-.2,0-.2.2l6.4,10.2,1.6,1.9h-6.9c.2-.6.1-1.2-.2-1.8l-5.9-9.7h-6.5v10.8c0,0,.3.5.4.7h-5.9ZM101.3,46.7c4.4-.2,13.2,1.5,13-5.4,0-2.8-1.8-4.1-4.5-4.6s-5.7-.2-8.5-.3v10.3Z"/>
  <path d="M6.1,31.9l-.4,1.1c.3,5.8-.4,12.1,0,17.9.3,3.5,2.3,6.7,6,7.2,3.9.4,8.8-1.2,10.1-5.2v-19.7c0,0-.6-1.4-.6-1.4h6.1l-.4,1.1v28.9c0,0,.4.7.4.7h-5.5v-2.9c-5.1,5.2-14.5,5-18.9-1-1.3-1.8-2.3-4.4-2.5-6.6-.5-6.1.5-13,0-19s-.2-.9-.5-1.3h6.1Z"/>
  <path d="M145.5,31.9l-.3.9c3.1,8.5,6.2,17,9.6,25.4s1.1,3.1,2,4.4h-7c.1-.3.3-.5.4-.8.4-2.5-1.4-5.4-2.1-7.8h-12.7c-.6,1.9-1.6,3.9-2,5.8s-.3,1.8.2,2.8h-7c1-1.2,1.4-2.7,2-4.1,3.4-8.3,6.3-16.8,9.7-25.2.1-.5.1-1-.2-1.5h7.4ZM146.3,49.8l-4.5-11.6-4.5,11.6h9.1Z"/>
  <path d="M129.4,1.5c.2.2-1.5.8-1.7.9-4.3,2.2-7.1,5.8-10,9.5l.2.2c1.6-1,4.3-3,6.3-2.3,2.3.9-.5,5-1.4,6.2-1.3,1.8-3.1,3.4-5.1,4.3-3.6,1.6-7.5,1.1-5.7-3.8l1.9-3.3-2.2.6c-.3.7-.7,1.3-1.1,1.9-2,3-6.3,7.9-9.8,3.9-1.9,1.5-4.8,2.4-6.2-.1-1.8,1.4-4.5,2.1-6.8,1.2-.5-.2-1.3-.6-1.4-1.2-1.2,1.2-5.5,2.6-5.8,0-.2-2.3,3.6-5.1,4.5-7.2s-.7-1.7-1.9-1.2c-2.1.8-4.5,3.2-5.7,5s-1.9,3.3-2.1,5c-1,.2-1.6-.5-1.7-1.5-.7.3-1.3.8-2,1.1-1.9.7-4.5.8-5.8-1.1-1.1.7-2.1,1.6-3.5,1.4s-1.6-2.5-1.3-3.9c.6-2.6,3-5.5,5.3-6.8s1.4-.9,1.3-.2-.9.8-1.1,1.1c-1.5,1.7-3.7,4.8-3.8,7.1,0,1.5.8,1.7,1.9,1,1-.7,1.9-3.3,2.7-4.5,1.3-2.1,4.2-5.1,6.8-5.2,3.3,0,1.6,5.3-.6,4.6s-.5-.7-.4-1.1c.3-.9,1.9-1.2,1.4-2.3-.9-.7-2.2.3-3,.9-1.8,1.3-4.2,4.3-3.6,6.7.4,1.5,2.3,1.3,3.5.9,2.9-1,6.5-7.4,8.5-10,2.5-3.1,6.4-7.5,10.6-7.5.1,0,.4,0,.4.2-4.8,1.7-7.9,6.2-10.9,10.1l3.2-1.8c1.1-.8,4.2-.8,4.2,1s-2.9,4.3-3.8,5.5c-.5.6-2.2,2.6-.7,3,2.4.8,4.1-3.5,5-5,1.7-2.6,4.7-5.2,8-4.9,1.9.2.8,2.2,0,3.1-1.5,1.9-4.4,3.7-6.8,2.9-.9,1-1.9,2.9-.3,3.8,2.9,1.6,6-2,7.7-3.9,3.8-4.4,9.4-13.6,15.7-14.1s.5,0,.6.2c-.7.5-1.6.8-2.4,1.3-4.3,2.6-8.8,8.2-11.7,12.3s-2.6,3.4-2.4,4.1c1.4,1.1,3.1-.8,4-1.8,2.4-2.8,4.2-6.9,8.1-7.8,1.9-.5,3.9-.3,3.5,2.2,3.9-.2,6.3-4,8.8-6.5s5.2-4.2,8.5-4.1ZM89.9,14.8c1.7,0,4.1-1.2,5.1-2.6s1.3-2-.1-1.8c-1.2.2-3.8,2.6-4.6,3.6s-.6.7-.5.8ZM109.6,10.6c-1.8.3-5.2,4.1-6.1,5.6s-1.8,3.6.3,3.1c1.9-.4,5.4-4.5,6.3-6.2s1.2-2.8-.5-2.6ZM122.9,11c-.3-.5-2.2.4-2.7.6-2.3,1.1-7.1,4.3-6.9,7.2s.4,1,1.2,1c2,0,4.8-2.9,6-4.3s3-3.6,2.4-4.5Z"/>
  <path d="M87,31.9v5c-.2,0-.7-.4-.8-.4h-9v24.9c0,.3.3,1,.5,1.3h-6.1c.1-.2.5-.7.5-.9v-25.2h-9c-.1,0-.5.4-.8.4v-5h24.7Z"/>
  <path d="M45.1,31.9c.1,0-.4.8-.4.9v25.1h15c.2,0,.9-.4,1.2-.5v5.7c-.3-.1-.9-.5-1.2-.5h-20.5l.4-.9v-28.5c0,0-.4-1.4-.4-1.4h5.9Z"/>
  <path d="M49.4,14.1c4.8-4.6,10.3-9.5,16.6-11.9,2-.8,6.5-1.9,8.4-.7s.2,0,.2.3c-2.5.2-5,.7-7.1,2-3.4,2.1-7.1,7.1-9.3,10.5-1.2,1.8-2.1,3.9-3.3,5.7-.4.5-.6,1.1-1.3,1.1s-1-.5-1-1.1c0-1.8,2.9-5.7,4.1-7.2,2.3-3,4.9-5.7,7.7-8.1-1.2.5-2.4,1.3-3.5,2-4,2.6-11,8.1-13.8,11.8-.6.7-1,1.9-1.7,2.4s-1.1.5-1.4,0c-.6-1.2,1.1-2.1,1.7-2.9,1.6-2,2.5-5.7,3.6-8.1,1-2.1,2.1-3.7,3.9-5.1-2.9.8-4.7,3.6-6.5,5.8-3.7,4.7-6.8,9.6-12.6,12.1-3.5,1.5-8.4,1.7-11.2-1.4-5.4-6,4.5-13.1,10.3-8.8.3.2.9.5.5,1-.4.3-1.1-.5-1.5-.7-2.2-1.1-4.2-1.3-6.4-.2-4.5,2.2-4.3,8.3.8,9.4,9.8,2,16.9-13.2,24.4-17.4,1.2-.7,2.5-1.2,3.8-1.6-1.1-.2-2.1-.4-3.2-.5-4.2-.5-14.6-1.2-18.1.8s-1.1.8-1,1.6,1.4,1.1,2,1.5.3.2.1.3c-5.3-1.9-3.7-4.7,1.1-5.4s12.1,0,17.3,1c1,.2,5.7,1.1,6.1,1.8s0,.2,0,.3c-.3.4-1.9-.3-2.4-.3-1.9,0-3.5,2.8-4.3,4.2-1.1,1.9-2,4-3,6Z"/>
  <path d="M70.7,8.3c-.2.2-1.3.2-1.6,0-.7-.2-1.4-1.4-.6-1.8s2.9,1,2.2,1.8Z"/>
</svg>