<?xml version="1.0" encoding="UTF-8"?>
<svg id="Layer_1" xmlns="http://www.w3.org/2000/svg" version="1.1" viewBox="0 0 68.2 80.5">
  <!-- Generator: Adobe Illustrator 29.1.0, SVG Export Plug-In . SVG Version: 2.1.0 Build 142)  -->
  <defs>
    <style>
      .st0 {
        fill: #171717;
      }
    </style>
  </defs>
  <path class="st0" d="M50,4.4l14.9,11c.2,23.7-9.5,49-30.8,61.3C12.9,64.4,3.2,39.1,3.4,15.4l14.9-11c4.4,3.6,10.2,5.5,15.9,5.5,10.1,0,15.9-5.5,15.9-5.5ZM49.7,0s-5.1,6.5-15.6,6.5S18.5,0,18.5,0L0,13.7s-2.8,47.2,34.1,66.9h0s0,0,0,0C71,60.8,68.2,13.7,68.2,13.7L49.7,0h0Z"/>
  <polygon class="st0" points="34.1 62.8 34.6 64.1 36 64.2 34.9 65 35.3 66.4 34.1 65.6 32.9 66.4 33.4 65 32.2 64.2 33.6 64.1 34.1 62.8"/>
  <polygon class="st0" points="34.1 56 34.6 57.4 36 57.4 34.9 58.3 35.3 59.7 34.1 58.9 32.9 59.7 33.4 58.3 32.2 57.4 33.6 57.4 34.1 56"/>
  <g>
    <polygon class="st0" points="41.4 63.2 41.8 64.5 43.3 64.6 42.1 65.4 42.5 66.8 41.3 66 40.2 66.8 40.6 65.4 39.4 64.5 40.9 64.5 41.4 63.2"/>
    <polygon class="st0" points="26.9 63.2 27.4 64.5 28.8 64.6 27.7 65.4 28.1 66.8 26.9 66 25.7 66.8 26.2 65.4 25 64.5 26.4 64.5 26.9 63.2"/>
  </g>
  <g>
    <polygon class="st0" points="30.8 66.2 31.3 67.6 32.7 67.6 31.6 68.5 32 69.9 30.8 69.1 29.6 69.9 30 68.5 28.9 67.6 30.3 67.6 30.8 66.2"/>
    <polygon class="st0" points="37.4 66.2 37.9 67.6 39.3 67.6 38.2 68.5 38.6 69.9 37.4 69.1 36.2 69.9 36.7 68.5 35.5 67.6 37 67.6 37.4 66.2"/>
  </g>
  <polygon class="st0" points="34.1 69.5 34.6 70.9 36 70.9 34.9 71.8 35.3 73.2 34.1 72.3 32.9 73.2 33.4 71.8 32.2 70.9 33.7 70.9 34.1 69.5"/>
  <polygon class="st0" points="34.1 51.2 34.6 52.5 36 52.6 34.9 53.4 35.3 54.8 34.1 54 33 54.8 33.4 53.4 32.2 52.6 33.7 52.5 34.1 51.2"/>
  <g>
    <polygon class="st0" points="27 55.7 27.4 57.1 28.9 57.1 27.7 58 28.1 59.4 27 58.5 25.8 59.3 26.2 58 25.1 57.1 26.5 57.1 27 55.7"/>
    <polygon class="st0" points="41.3 55.7 41.7 57.1 43.2 57.1 42 58 42.4 59.4 41.3 58.5 40.1 59.3 40.5 58 39.4 57.1 40.8 57.1 41.3 55.7"/>
  </g>
  <polygon class="st0" points="20.5 56.1 21 57.5 22.4 57.5 21.3 58.4 21.7 59.8 20.5 58.9 19.3 59.7 19.7 58.4 18.6 57.5 20 57.5 20.5 56.1"/>
  <polygon class="st0" points="47.8 56.1 48.3 57.5 49.7 57.5 48.5 58.4 49 59.8 47.8 58.9 46.6 59.7 47 58.4 45.9 57.5 47.3 57.5 47.8 56.1"/>
  <polygon class="st0" points="23.5 59.8 23.9 61.1 25.4 61.2 24.2 62 24.6 63.4 23.5 62.6 22.3 63.4 22.7 62 21.6 61.2 23 61.1 23.5 59.8"/>
  <polygon class="st0" points="44.8 59.8 45.2 61.2 46.7 61.2 45.5 62.1 46 63.5 44.8 62.6 43.6 63.5 44 62.1 42.9 61.2 44.3 61.2 44.8 59.8"/>
  <g>
    <polygon class="st0" points="38.2 59.4 38.7 60.8 40.1 60.8 39 61.7 39.4 63.1 38.2 62.2 37 63.1 37.4 61.7 36.3 60.8 37.7 60.8 38.2 59.4"/>
    <polygon class="st0" points="30.1 59.4 30.5 60.8 32 60.8 30.8 61.7 31.2 63.1 30.1 62.2 28.9 63.1 29.3 61.7 28.2 60.8 29.6 60.8 30.1 59.4"/>
  </g>
  <g>
    <polygon class="st0" points="23.4 51.8 23.8 53.2 25.3 53.2 24.1 54.1 24.5 55.4 23.4 54.6 22.2 55.4 22.6 54.1 21.4 53.2 22.9 53.2 23.4 51.8"/>
    <polygon class="st0" points="44.9 51.8 45.4 53.2 46.8 53.2 45.6 54.1 46.1 55.4 44.9 54.6 43.7 55.4 44.1 54.1 43 53.2 44.4 53.1 44.9 51.8"/>
  </g>
  <polygon class="st0" points="17.8 51.9 18.3 53.3 19.7 53.3 18.6 54.2 19 55.6 17.8 54.8 16.6 55.6 17.1 54.2 15.9 53.3 17.3 53.3 17.8 51.9"/>
  <polygon class="st0" points="50.5 51.9 50.9 53.3 52.4 53.3 51.2 54.2 51.6 55.6 50.5 54.8 49.3 55.6 49.7 54.2 48.5 53.3 50 53.3 50.5 51.9"/>
  <g>
    <polygon class="st0" points="28.8 51.3 29.2 52.7 30.7 52.8 29.5 53.6 29.9 55 28.8 54.2 27.6 55 28 53.6 26.9 52.7 28.3 52.7 28.8 51.3"/>
    <polygon class="st0" points="39.5 51.4 40 52.7 41.4 52.8 40.2 53.6 40.7 55 39.5 54.2 38.3 55 38.7 53.6 37.6 52.7 39 52.7 39.5 51.4"/>
  </g>
  <polygon class="st0" points="53.3 47.4 53.8 48.8 55.2 48.8 54.1 49.7 54.5 51.1 53.3 50.2 52.1 51.1 52.5 49.7 51.4 48.8 52.8 48.8 53.3 47.4"/>
  <polygon class="st0" points="15 47.4 15.4 48.8 16.9 48.8 15.7 49.7 16.1 51.1 15 50.2 13.8 51.1 14.2 49.7 13.1 48.8 14.5 48.8 15 47.4"/>
  <polygon class="st0" points="47.8 47.2 48.3 48.6 49.7 48.6 48.6 49.5 49 50.9 47.8 50.1 46.6 50.9 47.1 49.5 45.9 48.6 47.4 48.6 47.8 47.2"/>
  <polygon class="st0" points="20.4 47.2 20.9 48.6 22.4 48.6 21.2 49.5 21.6 50.9 20.4 50.1 19.3 50.9 19.7 49.5 18.5 48.6 20 48.6 20.4 47.2"/>
  <polygon class="st0" points="25.9 47 26.4 48.4 27.8 48.4 26.7 49.3 27.1 50.7 25.9 49.9 24.7 50.7 25.2 49.3 24 48.4 25.4 48.4 25.9 47"/>
  <polygon class="st0" points="36.9 47 37.3 48.3 38.8 48.4 37.6 49.2 38 50.6 36.9 49.8 35.7 50.6 36.1 49.2 35 48.4 36.4 48.3 36.9 47"/>
  <polygon class="st0" points="42.4 47 42.8 48.4 44.2 48.4 43.1 49.3 43.5 50.7 42.3 49.9 41.2 50.7 41.6 49.3 40.5 48.4 41.9 48.4 42.4 47"/>
  <polygon class="st0" points="31.4 47 31.9 48.3 33.3 48.4 32.2 49.2 32.6 50.6 31.4 49.8 30.2 50.6 30.6 49.2 29.5 48.4 30.9 48.3 31.4 47"/>
  <polygon class="st0" points="49.8 42.6 50.3 44 51.7 44 50.6 44.9 51 46.2 49.8 45.4 48.6 46.2 49 44.9 47.9 44 49.3 44 49.8 42.6"/>
  <polygon class="st0" points="55 42.6 55.5 44 56.9 44 55.8 44.9 56.2 46.2 55 45.4 53.8 46.2 54.3 44.9 53.1 44 54.6 44 55 42.6"/>
  <polygon class="st0" points="13.2 42.6 13.7 44 15.1 44 14 44.9 14.4 46.2 13.2 45.4 12.1 46.2 12.5 44.9 11.3 44 12.8 44 13.2 42.6"/>
  <polygon class="st0" points="44.6 42.6 45.1 44 46.5 44 45.3 44.9 45.8 46.2 44.6 45.4 43.4 46.2 43.8 44.9 42.7 44 44.1 44 44.6 42.6"/>
  <polygon class="st0" points="18.5 42.6 18.9 44 20.4 44 19.2 44.9 19.6 46.3 18.5 45.4 17.3 46.2 17.7 44.9 16.6 44 18 44 18.5 42.6"/>
  <polygon class="st0" points="23.7 42.6 24.2 44 25.6 44 24.5 44.9 24.9 46.3 23.7 45.4 22.5 46.2 22.9 44.9 21.8 44 23.2 44 23.7 42.6"/>
  <polygon class="st0" points="28.9 42.6 29.4 44 30.8 44 29.7 44.9 30.1 46.2 28.9 45.4 27.7 46.2 28.1 44.9 27 44 28.4 44 28.9 42.6"/>
  <polygon class="st0" points="34.1 42.6 34.6 44 36 44 34.9 44.9 35.3 46.2 34.1 45.4 33 46.2 33.4 44.9 32.2 44 33.7 44 34.1 42.6"/>
  <polygon class="st0" points="39.4 42.6 39.8 44 41.3 44 40.1 44.9 40.5 46.2 39.4 45.4 38.2 46.2 38.6 44.9 37.5 44 38.9 44 39.4 42.6"/>
  <g>
    <polygon class="st0" points="19.8 32.5 16.1 32.5 16.1 30.7 15.7 30.3 13.7 30.3 13.2 30.7 13.2 37.3 13.7 37.8 15.7 37.8 16.1 37.4 16.1 35.7 19.8 35.7 19.8 38.7 17.6 40.9 11.7 40.9 9.5 38.7 9.5 29.4 11.7 27.2 17.7 27.2 19.8 29.4 19.8 32.5"/>
    <path class="st0" d="M31.9,27.2v3.1h-.7s3,7.5,3,7.5h.8v3.2h-5.2v-3.2h.4l-.2-.6h-3.6l-.2.6h.4v3.2h-5.2v-3.2h.8l3-7.5h-.6v-3.1h7.2ZM27.3,34.6h1.7l-.9-2.2-.9,2.2Z"/>
    <path class="st0" d="M47.2,34.7v4l-2.2,2.2h-8.4v-3.1h.8v-7.5h-.8v-3.1s8.4,0,8.4,0l2.2,2.3v3.5l-.9.9.9.9ZM43.5,35.8l-.5-.4h-1.9s0,2.5,0,2.5h1.9s.5-.4.5-.4v-1.6ZM43.5,30.8l-.4-.4h-1.9s0,2,0,2h1.9l.4-.4v-1.1Z"/>
    <polygon class="st0" points="58.1 30.4 58.1 38.8 56 40.9 51 40.9 48.8 38.8 48.8 35.4 52.6 35.4 52.6 37.4 53 37.9 54 37.9 54.4 37.4 54.4 30.3 53.3 30.3 53.3 27.2 59 27.2 59 30.4 58.1 30.4"/>
  </g>
  <g>
    <polygon class="st0" points="31.7 17 32.2 18.4 33.6 18.4 32.4 19.3 32.9 20.7 31.7 19.9 30.5 20.7 30.9 19.3 29.8 18.4 31.2 18.4 31.7 17"/>
    <polygon class="st0" points="26.9 17 27.3 18.3 28.8 18.4 27.6 19.2 28 20.6 26.8 19.8 25.7 20.6 26.1 19.2 25 18.3 26.4 18.3 26.9 17"/>
    <polygon class="st0" points="12.4 16.8 12.8 18.2 14.3 18.2 13.1 19.1 13.5 20.5 12.4 19.6 11.2 20.5 11.6 19.1 10.5 18.2 11.9 18.2 12.4 16.8"/>
    <polygon class="st0" points="17.2 16.8 17.7 18.2 19.1 18.2 18 19.1 18.4 20.5 17.2 19.7 16 20.5 16.4 19.1 15.3 18.2 16.7 18.2 17.2 16.8"/>
    <polygon class="st0" points="7.5 16.8 8 18.1 9.4 18.2 8.3 19 8.7 20.4 7.5 19.6 6.4 20.4 6.8 19 5.6 18.2 7.1 18.1 7.5 16.8"/>
    <polygon class="st0" points="22 16.9 22.5 18.3 23.9 18.3 22.8 19.2 23.2 20.6 22 19.7 20.8 20.6 21.3 19.2 20.1 18.3 21.6 18.3 22 16.9"/>
    <polygon class="st0" points="36.5 17 37 18.4 38.4 18.4 37.3 19.3 37.7 20.7 36.5 19.9 35.3 20.7 35.8 19.3 34.6 18.4 36.1 18.4 36.5 17"/>
    <polygon class="st0" points="41.3 17 41.8 18.3 43.3 18.4 42.1 19.2 42.5 20.6 41.3 19.8 40.2 20.6 40.6 19.2 39.4 18.3 40.9 18.3 41.3 17"/>
    <polygon class="st0" points="46.2 16.9 45.7 18.3 44.3 18.3 45.4 19.2 45 20.6 46.2 19.7 47.4 20.6 46.9 19.2 48.1 18.3 46.6 18.3 46.2 16.9"/>
    <polygon class="st0" points="51 16.8 50.5 18.2 49.1 18.3 50.3 19.1 49.8 20.5 51 19.7 52.2 20.5 51.8 19.1 52.9 18.2 51.5 18.2 51 16.8"/>
    <polygon class="st0" points="60.7 16.8 60.2 18.1 58.8 18.2 59.9 19 59.5 20.4 60.7 19.6 61.8 20.4 61.4 19 62.6 18.2 61.1 18.1 60.7 16.8"/>
    <polygon class="st0" points="55.8 16.8 55.4 18.2 53.9 18.2 55.1 19.1 54.7 20.5 55.8 19.6 57 20.5 56.6 19.1 57.7 18.2 56.3 18.2 55.8 16.8"/>
  </g>
  <g>
    <polygon class="st0" points="18.4 7.7 18.9 9.1 20.3 9.1 19.2 10 19.6 11.4 18.4 10.6 17.2 11.4 17.6 10 16.5 9.1 17.9 9.1 18.4 7.7"/>
    <polygon class="st0" points="49.9 7.7 49.4 9.1 48 9.1 49.1 10 48.7 11.4 49.9 10.6 51.1 11.4 50.7 10 51.8 9.1 50.4 9.1 49.9 7.7"/>
  </g>
  <g>
    <polygon class="st0" points="11.8 12 12.3 13.3 13.7 13.4 12.6 14.2 13 15.6 11.8 14.8 10.6 15.6 11.1 14.2 9.9 13.3 11.4 13.3 11.8 12"/>
    <polygon class="st0" points="27 12.5 27.4 13.9 28.9 13.9 27.7 14.8 28.1 16.2 27 15.3 25.8 16.2 26.2 14.8 25.1 13.9 26.5 13.9 27 12.5"/>
    <polygon class="st0" points="32 12.6 32.5 13.9 33.9 14 32.8 14.9 33.2 16.2 32 15.4 30.8 16.2 31.3 14.8 30.1 14 31.5 13.9 32 12.6"/>
    <polygon class="st0" points="37.1 12.6 37.5 13.9 39 14 37.8 14.9 38.2 16.2 37.1 15.4 35.9 16.2 36.3 14.8 35.2 14 36.6 13.9 37.1 12.6"/>
    <polygon class="st0" points="16.9 12.2 17.4 13.5 18.8 13.6 17.6 14.4 18 15.8 16.9 15 15.7 15.8 16.1 14.4 15 13.6 16.4 13.5 16.9 12.2"/>
    <polygon class="st0" points="21.9 12.4 22.4 13.8 23.8 13.8 22.7 14.7 23.1 16 21.9 15.2 20.7 16 21.2 14.7 20 13.8 21.5 13.8 21.9 12.4"/>
    <polygon class="st0" points="57.3 12 56.8 13.3 55.4 13.4 56.5 14.2 56.1 15.6 57.3 14.8 58.4 15.6 58 14.2 59.2 13.3 57.7 13.3 57.3 12"/>
    <polygon class="st0" points="42.1 12.5 41.6 13.9 40.2 13.9 41.4 14.8 40.9 16.2 42.1 15.3 43.3 16.2 42.9 14.8 44 13.9 42.6 13.9 42.1 12.5"/>
    <polygon class="st0" points="47.2 12.4 46.7 13.8 45.3 13.8 46.4 14.7 46 16 47.2 15.2 48.3 16 47.9 14.7 49.1 13.8 47.6 13.8 47.2 12.4"/>
    <polygon class="st0" points="52.2 12.2 51.7 13.5 50.3 13.6 51.4 14.4 51 15.8 52.2 15 53.4 15.8 53 14.4 54.1 13.6 52.7 13.5 52.2 12.2"/>
  </g>
  <g>
    <polygon class="st0" points="23.7 21.6 24.2 22.9 25.6 23 24.4 23.8 24.9 25.2 23.7 24.4 22.5 25.2 22.9 23.8 21.8 23 23.2 22.9 23.7 21.6"/>
    <polygon class="st0" points="18.5 21.6 18.9 22.9 20.4 23 19.2 23.8 19.6 25.2 18.5 24.4 17.3 25.2 17.7 23.8 16.6 23 18 22.9 18.5 21.6"/>
    <polygon class="st0" points="13.2 21.6 13.7 22.9 15.1 23 14 23.8 14.4 25.2 13.2 24.4 12.1 25.2 12.5 23.8 11.3 23 12.8 22.9 13.2 21.6"/>
    <polygon class="st0" points="8 21.6 8.5 22.9 9.9 23 8.8 23.8 9.2 25.2 8 24.4 6.8 25.2 7.2 23.8 6.1 23 7.5 22.9 8 21.6"/>
    <polygon class="st0" points="28.9 21.6 29.4 22.9 30.8 23 29.7 23.8 30.1 25.2 28.9 24.4 27.7 25.2 28.1 23.8 27 23 28.4 22.9 28.9 21.6"/>
    <polygon class="st0" points="34.1 21.6 34.6 22.9 36 23 34.9 23.8 35.3 25.2 34.1 24.4 33 25.2 33.4 23.8 32.2 23 33.7 22.9 34.1 21.6"/>
    <polygon class="st0" points="44.6 21.6 44.1 22.9 42.7 23 43.8 23.8 43.4 25.2 44.6 24.4 45.8 25.2 45.3 23.8 46.5 22.9 45.1 22.9 44.6 21.6"/>
    <polygon class="st0" points="49.8 21.6 49.3 22.9 47.9 23 49 23.8 48.6 25.2 49.8 24.4 51 25.2 50.6 23.8 51.7 23 50.3 22.9 49.8 21.6"/>
    <polygon class="st0" points="60.3 21.6 59.8 22.9 58.4 23 59.5 23.8 59.1 25.2 60.3 24.4 61.4 25.2 61 23.8 62.2 23 60.7 22.9 60.3 21.6"/>
    <polygon class="st0" points="55 21.6 54.6 22.9 53.1 23 54.3 23.8 53.9 25.2 55 24.4 56.2 25.2 55.8 23.8 56.9 23 55.5 22.9 55 21.6"/>
    <polygon class="st0" points="39.4 21.6 38.9 22.9 37.5 23 38.6 23.8 38.2 25.2 39.4 24.4 40.5 25.2 40.1 23.8 41.3 23 39.8 22.9 39.4 21.6"/>
  </g>
</svg>