<?xml version="1.0" encoding="UTF-8"?><svg id="Layer_1" xmlns="http://www.w3.org/2000/svg" viewBox="0 0 126.23 62.88"><defs><style>.cls-1{fill:#171717;}</style></defs><path class="cls-1" d="M75.61,62.73h-8.39v-.38c0-8.28,0-16.56,0-24.84,0-.2,0-.41-.06-.6-.18-.67-.86-1.1-1.53-1.01-.72.1-1.24.66-1.24,1.37,0,1.55,0,3.11,0,4.66,0,6.82,0,13.63,0,20.45v.34h-8.35v-.36c0-8.28,0-16.56,0-24.84,0-.17,0-.34-.02-.5-.13-.69-.79-1.18-1.5-1.13-.73.06-1.29.64-1.31,1.37,0,.11,0,.21,0,.32,0,8.26,0,16.52,0,24.79,0,.11,0,.23,0,.36h-8.37c0-.1-.01-.2-.01-.29,0-9.1,0-18.19,0-27.29,0-1.53.91-2.62,2.36-2.85.17-.03.34-.02.5-.02,8.35,0,16.69,0,25.04,0,1.73,0,2.88,1.15,2.88,2.89,0,2.46,0,4.92,0,7.37,0,6.6,0,13.21,0,19.81v.39Z"/><path class="cls-1" d="M112.37,43.85c0-.43,0-.85,0-1.28,0-.35-.09-.64-.39-.87-.74-.55-1.51-1.08-2.17-1.71-.98-.94-1.91-1.93-2.8-2.95-1.88-2.15-3.28-4.59-4.26-7.28-.35-.96-.79-1.89-1.41-2.7-1.46-1.93-3.38-3.05-5.84-3.11-2.17-.05-4.32-.23-6.43-.77-2.68-.69-5.02-1.98-7.01-3.9-.72-.7-1.43-1.4-2.16-2.1-.19-.18-.39-.36-.6-.53-.49-.4-.64-.4-1.07.06-1.26,1.34-2.83,1.71-4.59,1.53-1.69-.18-3.23-.84-4.76-1.55-.62-.29-1.24-.57-1.86-.84-.2-.09-.42-.15-.63-.2-.41-.09-.6,0-.73.41-.09.28-.13.59-.2.88-.11.5-.36.71-.86.75-1.19.1-2.44-.83-2.61-2-.11-.77.19-1.45.72-2.01.59-.61,1.35-.9,2.14-1.12,1.44-.38,2.89-.4,4.34-.04.1.03.21.05.31.07.4.07.7-.09.86-.46.41-.91.04-1.78-.88-2.13-.68-.27-1.36-.34-2.05-.07-.91.36-1.6.08-2.21-.65-.32-.38-.75-.67-1.14-.99-.23-.18-.49-.33-.7-.52-.56-.52-.53-1.27.05-1.76.05-.04.09-.08.15-.12.65-.39,1-.95,1.04-1.72.03-.44.3-.77.68-.92,1.04-.4,1.63-1.21,2.08-2.17.08-.18.18-.35.28-.51.28-.48.45-.5.81-.08.16.19.31.39.47.58.47.59.58.59,1.07.03.22-.25.42-.5.66-.73.36-.33.55-.31.8.1.31.51.59,1.05.9,1.57.04.08.15.16.23.16,1.95.15,3.79.73,5.56,1.52,3.02,1.35,5.78,3.15,8.35,5.21,2.1,1.68,4.13,3.44,6.17,5.19,2.52,2.17,5.28,3.92,8.4,5.08,1.18.44,2.41.65,3.67.72,1.63.09,3.08-.39,4.4-1.32,1.88-1.33,3.25-3.08,4.19-5.17.68-1.53,1.3-3.09,1.97-4.62.89-2.03,2-3.93,3.56-5.54,1.22-1.26,2.61-2.3,4.22-3,.37-.16.78-.26,1.18-.29,1.06-.07,1.92.72,1.94,1.78.03,1.46-.61,2.62-1.83,3.4-.82.52-1.69.97-2.57,1.39-2.37,1.14-4.21,2.81-5.45,5.15-.99,1.87-1.86,3.79-2.66,5.74-.53,1.29-1.34,2.35-2.37,3.26-.61.54-1.28,1.01-1.93,1.5-.31.24-.38.4-.12.68,1.39,1.49,1.82,3.38,2.23,5.27.5,2.32.65,4.67.58,7.04-.02.77.18,1.43.54,2.1.48.9,1.11,1.63,2.01,2.13.73.41,1.06,1.06,1.03,1.9-.04,1.02.26,1.94.8,2.79.19.3.38.6.55.91.19.35.2.71.01,1.07-.26.49-.35,1.02-.35,1.57,0,.54.03,1.08.05,1.62.02.57-.19.77-.76.73-1.36-.1-2.32-.79-2.92-2-.43-.88-.61-1.83-.69-2.8-.04-.46-.05-.92-.07-1.38.02,0,.04,0,.06,0Z"/><path class="cls-1" d="M98.02,62.72h-8.36v-7.61h-2.84v7.6h-8.36c0-.09-.01-.18-.01-.27,0-9.12,0-18.24,0-27.36,0-1.48.93-2.57,2.36-2.8.17-.03.35-.02.53-.02,4.6,0,9.2,0,13.79,0,1.74,0,2.89,1.14,2.89,2.88,0,4.93,0,9.87,0,14.8,0,4.14,0,8.29,0,12.43v.35ZM89.65,51.3v-.33c0-4.5,0-9,0-13.49,0-.09,0-.18,0-.27-.03-.5-.27-.88-.7-1.12-.96-.54-2.13.13-2.13,1.23,0,4.59,0,9.17,0,13.76,0,.07,0,.14.01.22h2.82Z"/><path class="cls-1" d="M22.39,32.27h8.37c0,.12,0,.24,0,.36,0,8.27,0,16.54,0,24.81,0,.36.04.71.26,1.01.36.5.98.73,1.55.56.62-.19,1.03-.72,1.03-1.36,0-2.03,0-4.06,0-6.1,0-6.31,0-12.62,0-18.93,0-.11,0-.21,0-.34h8.36c0,.09,0,.19,0,.28,0,9.18,0,18.37,0,27.55,0,1.33-.76,2.32-1.98,2.57-.21.04-.42.05-.64.05-4.78,0-9.57,0-14.35,0-1.31,0-2.3-.78-2.56-2-.04-.22-.05-.44-.05-.66,0-9.17,0-18.33,0-27.5v-.3Z"/><path class="cls-1" d="M0,32.26c.1,0,.18,0,.26,0,5.5,0,11.01,0,16.51,0,1.44,0,2.51.91,2.74,2.32.03.18.03.37.03.56,0,5.69,0,11.38,0,17.07,0,1.45-.84,2.53-2.19,2.81-.25.05-.51.06-.77.06-2.62,0-5.24,0-7.86,0h-.37v7.63H0v-30.46ZM8.37,51.31c.47,0,.92,0,1.37,0,.86-.02,1.44-.61,1.45-1.47,0-.62,0-1.24,0-1.86,0-3.52,0-7.04,0-10.57,0-.81-.47-1.41-1.22-1.5-.52-.06-1.06-.01-1.6-.01v15.41Z"/><path class="cls-1" d="M108.09,59.12c0,2.07-1.64,3.76-3.68,3.76-2.09,0-3.76-1.65-3.77-3.74-.01-2.04,1.66-3.76,3.67-3.77,2.11-.01,3.78,1.64,3.79,3.74ZM101.24,59.17c.02,1.77,1.44,3.19,3.18,3.18,1.71-.02,3.09-1.48,3.07-3.26-.02-1.76-1.45-3.19-3.17-3.17-1.71.02-3.11,1.48-3.09,3.25Z"/><path class="cls-1" d="M103.05,56.94c.56.05,1.11.05,1.65.15.6.11.93.51.98,1.04.05.59-.24,1.07-.79,1.32-.03.01-.06.03-.13.06.45.59.89,1.16,1.37,1.79-.35,0-.64,0-.93,0-.06,0-.13-.08-.17-.14-.37-.49-.74-.97-1.15-1.53v1.67h-.82v-4.35ZM103.87,58.89c.38,0,.76.02.94-.35.07-.15.05-.43-.04-.56-.21-.29-.56-.26-.89-.25v1.17Z"/></svg>