<?xml version="1.0" encoding="UTF-8"?><svg id="Layer_1" xmlns="http://www.w3.org/2000/svg" viewBox="0 0 189.8 45.46"><defs><style>.cls-1{fill:#171717;fill-rule:evenodd;}</style></defs><path class="cls-1" d="M0,44.59C3.79,42.42,10.16,15.05,15.03.28l8.18-.28c5.02,15.1,12.17,43.23,16.15,44.82h-17.26c.09-.85,5.28-.48,1.64-10.63h-11.99c-3.8,10.2-.08,9.63-.12,10.4H0ZM17.48,13.95l-4.09,13.94,8.18-.02-4.09-13.92h0Z"/><path class="cls-1" d="M38.41,44.7c2.74-2.14,2.79-12.23,5.09-35.36l-1.8-3.9h11.51l7.02,19.93,6.71-20.07h11.67c-.76.57-1.19,1.47-1.17,2.41.21,8.06,1.73,33.67,5.05,36.98h-13.3c2.4-4.45.02-18.03-.59-26.97l-8.68,26.97h-2.83l-8.66-26.97c-1.12,8.94-3.4,24.63-1.05,26.97h-8.97s0,0,0,0ZM106.27,6.34v7.35c-3.62-1.86-7.27-6.42-11.79-2.41-1.19,1.93-2.07,4.17.15,6.28,3.68,2.59,8.25,3.11,11.77,6.46,2.83,4.24,4.04,10.87,0,16.32-2.23,2.35-6.09,8.28-21.51,3-.79-3.26-1.14-6.51-1.48-9.75,3.74,2.19,5.54,6.2,12.54,5.7,2-.4,6.99-3.5.61-8.39-2.83-2.62-9.55-2.21-12.55-11.39-2.98-14.12,13.07-18.12,22.25-13.17ZM110,4.85c-.64,2.83-1.28,5.68-1.93,8.53,1.99-1,5.18-4.26,8.66-2.11v28.61c-.31,1.35-1.05,2.69-2.24,4.04h13.15c-.79-1.4-1.29-2.8-1.48-4.19V10.67c5.99-.45,5.97,1.48,7.61,2.24l2.09-8.08-25.85.02h0ZM137.35,4.85l22.86-.02c.4,2.11.78,4.49.74,6.73-2.56-1.8-8.08-.9-12.11-1.33v10.32c2.71-.19,6.59,1.26,8.97-1.5v9.15c-.74-1.35-1.95-2.4-8.96-1.8v12.15c5.82-.81,8.8,1.68,14.19-3.61l-2.07,8.97-23.33-.14c.71-1.36,1.1-2.71,1.5-4.05.24-11.68,1.38-32.95-1.79-34.88h0ZM164.84,4.54c3.68,1.45,2.14,23.26,2.1,34.91l-1.95,4.47h23.02c.59-2.95,1.17-6.2,1.78-9.13-1.8,1.31-3.3,2.45-5.37,3.29h-7.78c.28-11.05-1.64-30.46,1.8-33.55h-13.6,0Z"/><path class="cls-1" d="M186.18,7.31c0,.76-.28,1.41-.82,1.95-.52.53-1.24.82-1.98.81-.74.01-1.45-.28-1.97-.81-.53-.51-.83-1.22-.82-1.95,0-.77.27-1.42.81-1.96.52-.53,1.24-.82,1.98-.81.77,0,1.44.27,1.97.81.54.51.83,1.22.82,1.96ZM185.8,7.31c0-.66-.24-1.23-.71-1.69-.45-.46-1.07-.71-1.71-.7-.67,0-1.23.24-1.71.7-.46.44-.71,1.06-.7,1.69,0,.66.23,1.22.7,1.69.48.46,1.04.7,1.71.7s1.24-.24,1.71-.7c.47-.47.71-1.03.71-1.69h0ZM182.35,5.67h1.15c.42,0,.72.08.9.25.18.16.28.37.28.61,0,.25-.09.48-.27.65-.13.13-.33.21-.6.25.12.03.2.08.25.11.05.04.12.14.22.28.1.14.18.25.23.35l.29.52h-.45l-.29-.47c-.22-.37-.39-.6-.51-.67-.12-.07-.31-.11-.58-.11h-.25v1.25h-.38v-3.02l.38.32v1.13h.38c.42,0,.71-.02.85-.07.1-.03.18-.1.24-.19.06-.09.1-.2.1-.31,0-.15-.06-.29-.16-.4-.11-.11-.39-.17-.83-.17h-.57l-.38-.32h0Z"/></svg>