<?xml version="1.0" encoding="UTF-8"?>
<svg id="Layer_1" xmlns="http://www.w3.org/2000/svg" version="1.1" viewBox="0 0 84 84">
  <!-- Generator: Adobe Illustrator 29.1.0, SVG Export Plug-In . SVG Version: 2.1.0 Build 142)  -->
  <defs>
    <style>
      .st0 {
        fill: #171717;
      }
    </style>
  </defs>
  <path class="st0" d="M40.7,0c21.4-.7,40.2,15.4,42.9,36.6,3.4,27.4-19.8,50.6-47.2,47-17.3-2.2-31.6-15.4-35.4-32.3C-4.8,25.5,14.4.9,40.7,0ZM55.2,18.3s.4.3.5.4c.2.2.3.4.5.5.4.2,1.4.4,1.9.6.9.3,1.7.7,2.5,1l7.5-7.8C58.9,4.7,46.2,1.3,33.9,3.8c-6.8,1.4-13.3,4.8-18.4,9.5l7.4,7.7,2.7-.8c0-.2,0-.5,0-.7,0-.4.7-.8.7-1.1s-1.2-.3-.9-1,.9-.6,1-.7c.5-.2,1.7-.3,1.8-1s-.9-.9-1.1-1.2.2-.5.4-.6.4,0,.7,0c1.9,0,.7-1.2.7-2.1s.1-.6.1-.6c0,0,1.6-.8,1.8-.9.7-.2,1.7-.3,2.3.2s.5.8.8,1.1.8.8,1.2,1.1,1.4,1,1.6,1c1.3.3,2.2-.8,3.4-.1.6.3.4.7.8,1.1s.8.7,1,1c.3.5.2,1.6,1.2,1.4.5-.1,1.2-.5,1.8-.5s.8.5,1.1.5,1.8,0,2.1,0c.5-.1.3-.5.4-.8s.4-.3.6-.4c.2.3.2.7.4,1s.4.3.6.5c.2.3,0,.7.7.6l.2-.7c.2.3,1,.3,1.2.4s.2.5.3.6l1.8.3c-.2-.4-.5-.6-.8-.9s-.4-.5-.7-.7-.6-.3-.7-.4,0-.6,0-.6c0-.1.1-.2.1-.4,0-.3,0-.5.3-.6s1.5.2,1.7.4,1.1.9,1.2,1.2c.3.6,0,1.6,0,1.7ZM65,51.9c-.5,2.9-1.3,5.7-2.5,8.3l8.1,8.4c7.9-8.4,11.6-20.1,10.2-31.6-1-8.2-4.8-15.9-10.5-21.9l-7.8,8.2,1.1,4.1.9-.7c2.5,1.2,4.6,3.4,6.2,5.7,4,5.8,5.4,13.7,5.7,20.7,0,.8,0,1.6,0,2.4h-6.6v-3.6h-4.6ZM19.4,27.7l1.5-4.5-7.4-7.8C4.7,24.8,1.1,38,3.9,50.6c1.5,6.5,4.7,12.7,9.2,17.6l7.2-7.4,1-1.1-1.3-4.8c-7.9-.6-13.8-7.5-12.8-15.4.8-6.2,6.1-11.1,12.3-11.7ZM61.9,51.9h-1.5v3.6h-7c-.3-9.1,2.1-18.4,7.7-25.6-.3-1.2-.6-2.5-.9-3.7s-.7-2.5-.8-2.6c-.3-.4-.8,0-1.2-.2-.6-.2-.8-.6-1.3-.8s-.9-.3-1-.3c-.1,0-.6.2-.7.3-.3.3-.2.9-.9.7s-.2-1.4-.6-1.6l-5.4-.9c-.2.4-.7.8-.8,1.1s0,.4-.2.6c-.1.3-.3.5-.5.8.3.5.9.8.8,1.5.7-.2,1,.5,1.6.8.1,0,.8-.5.9-.6.3-.3.3-.5.5-.8.4-.5,2-1,2.2-.2s0,.5,0,.7,1.2.4.7,1-.8.3-1.1.4c-.1.4.2.8.5,1,.5.4,1.2.4,1.5.9l-.2.4.5.7c-.9.7-1.3,1.9-2.1,2.7-.3.1-.7,0-1,0-.8,0-.8.4-1.2.9s-1.3.7-1.4.9c-.3.4.2.7.2,1.1s-.5.7-.5,1,.3.3.2.7-.4.4-.6.5c-.4.3-.6.7-.6,1.2-.2,0-.2-.3-.5-.4-.8-.4-.9,1-1.6.8,0-1.7-2.2-1.2-3-.4-1.4,1.3-1.7,2.3-1.2,4.2s.8,2.2,2.2,1.5c.3-.2.8-.9,1-.9.5,0,1.2,0,1.4.5,0,.2,0,.1-.2.1-1.3.1-2.6.8-1.8,2.3s1.9,1.1,2.4,2.1.4,1.4,1.4,2.4,1.7,1.1,1.7,1.7-.6.7-.6,1.3v.2c1.2.9,4.1,2.5,4.2,4.2s-.3,1.6-.5,2.2-.4.7-.6,1c2.5-.5,4.9-1.1,7.3-1.9,1.1-2.2,1.7-4.7,2.2-7.1ZM34.8,35.2c-.1-.5-.2-1.1-.4-1.6s-.6-.9-.7-1.4c-.8-2.5,1.5-5.5,0-8-.2-.3-1.2-1.4-1.5-1.6s-1.9-.5-2.2-.5c-.8,0-2.5.6-3.3.8s-1.9.5-2.8.9c-.3.4-1.5,3.7-1.4,3.8,3.8.4,7.4,2.2,9.7,5.3l-4.4,4.3c-1-1.4-2.4-2.6-4-3.1-.4-.1-2.4-.6-2.6-.3-.4,3.9-.4,7.8,0,11.6s.3,2,.4,2.9h.1c1.7,0,3.3-.6,4.6-1.7l1.4-1.5,4.4,4.7c-2.3,2.7-5.6,4.6-9.2,4.9l1.3,4.5c5,2.2,10.5,3,15.9,2.9.6-1.5.4-2.9-.2-4.4-.5-1.1-1.8-2.8-1.7-4s.4-.7,1-.9c1.1-.4,0-.9,0-1.2,0-.5.7-1,1.1-1.2s1.2-.5,1.4-.7c.5-.6,0-1,.2-1.7,0,0,.4,0,.6,0,.4,0,.6-.9.8-1.2s.4-.4.5-.7c0-.5-.1-.8-.6-.9-2.1-.7-4.4-.5-5.2-3.1-.3-.8-.1-1.6-.3-2.4-.3-1.6-.6-3.5-1-5.1-.1-.5-.5-1.2-1-.6s0,.6.2,1.1c.5,1.1.3,2,.4,3.1s.5.8.4,1.4c-.4.2-.7.3-1.2.2-.4-.6.1-1,0-1.6,0-1-1.2-2-1.9-2.6.3-.4.8-.2,1.1-.4ZM18.3,34.4c-3.1,1.2-5,4.5-4.5,7.8.4,2.6,2.3,4.9,4.8,5.8,0,0,0-.2,0-.3-.4-3.8-.7-7.2-.5-11.1,0-.8.1-1.5.2-2.3ZM62.9,44h4.3c-.4-1.8-1.2-3.4-2.2-4.9-.2,0-.5.6-.6.8-.7,1.2-1.3,2.7-1.6,4.1ZM38.2,65.3c-5.2-.2-10.3-1.1-15.1-3.2l-7.9,8.2c8.1,7.7,19.4,11.6,30.6,10.6,8.4-.8,16.5-4.5,22.7-10.2l-8.4-8.7c-4.2,1.3-8.6,2.2-13,2.8-1,1.3-1.8,2.8-3,3.9s-1.6.6-2.7,1.1-1.3.7-1.5,1.3,0,.5-.1.6-.6.5-.8.7c-.5.6-.4,1.3-.7,2s-.9,1.8-1.5.7-.2-4.5.2-5.9.4-.9.7-1.6c.3-.7.2-1.7.6-2.4Z"/>
</svg>