<?xml version="1.0" encoding="UTF-8"?>
<svg id="Layer_1" xmlns="http://www.w3.org/2000/svg" version="1.1" viewBox="0 0 173.6 54">
  <!-- Generator: Adobe Illustrator 29.1.0, SVG Export Plug-In . SVG Version: 2.1.0 Build 142)  -->
  <defs>
    <style>
      .st0 {
        fill: #171717;
      }
    </style>
  </defs>
  <path class="st0" d="M65.1,22.1c-2,3.2-4.7,6.2-6.4,9.6s-1.8,3.7,0,3.2,3.5-2.4,4.3-3c5.5-4.6,8.8-11.6,13.2-17.3l8.4-1.5c.1.2-.6,1.2-.8,1.4-3.7,5.5-8.8,11.4-11.9,17-.3.5-1.5,2.7-.6,3s2.8-1.3,3.5-1.8c3.9-2.7,7.2-6.1,9.6-10.1l8.2-1.4-8,12.4c0,.5-.2,1.2.5,1.2,1.2,0,6.5-5.5,7.8-6.6,4.2-3.7,9.1-6.4,14.7-7.3s6.7-1,5.7,3c-1.2,4.8-11.2,11.5-15.7,13.5s-3.9,1.3-4.1,1.5c-.4.3-.4,2.1-.2,2.6.3,1,2.2.3,2.9,0,5.8-1.9,13.6-7.7,17.5-12.4s4.3-6.4,5-6.7l7.9-1.6-6.6,10c-.8,2.6.7,1.3,1.8.5,4-2.9,7.9-6.7,12.1-9.2.6-.4,3.6-2.2,4.1-1.5.3.8-.4,1.8-.8,2.5-1.9,3.3-5.4,6.4-7,9.7-1.8,3.5,1.2,1.3,2.7.4,4.1-2.6,7.9-6.1,10.4-10.2l-2.1.2c.5-.7,1-1.9,1.9-2.1s1.5.1,2-.1c.9-.5,1.9-3.6,3.6-4.1s5.3-.8,7.6-1.4l-3.1,5c1.2-.1,2.5-.2,3.7-.2s.4-.4.3.1l-1.5,1.8-4.4.4-6.7,9.8c-.3.8-.7,1.9.1,2.4,6.8-4.9,12.4-11.7,21-13.5,1.6-.3,5.2-.9,6.6-.4s1.6,2.1,1.2,3.4c-1.7,4.9-11.7,11.4-16.3,13.4s-2.4.7-3.3,1.1-.8,3.2.8,3.1,3.3-1.1,4.1-1.5c3.4-1.5,6.7-3.7,9.6-6l-.3,2.4c-4.8,3.3-13.4,10.2-19.5,10.1s-3.9-4-3.1-6.5l1.5-4.6c-4,2.8-7.7,6-11.7,8.7s-3.9,2.8-4.6,2.4c-1.3-2.6.8-5.4,1.9-7.7l4-6.4c-6,3.8-11.1,8.9-16.9,12.8-1.5,1-3.7,2.7-3.3-.6s6.1-8.5,7.7-11.9c-.1-.2-.2-.3-.5-.3-.7,0-2.9,1.7-3.6,2.2-5.4,3.8-10.2,8.5-15.8,12.1l-.4-.3c-.2-1.2.2-2.1.6-3.1,1-2.4,2.7-4.5,4-6.7s.5-.4.2-.6c-4,2.8-7.9,6-12.2,8.3s-12.9,5.1-11.4-3.7l1.4-4c-3.4,2.5-6.6,5.2-10.1,7.5s-2,1.4-3,2-1.7,1.1-2.2.2c-1-2.1,1.1-5.2,1.9-7.2l2.9-4.9c-5.2,3.5-10.2,7.9-15.6,11.2-.7.4-2.8,2-3.2.7-.9-3.1,3.2-8,4.4-10.8-4.7,2.9-8.9,6.7-13.6,9.5s-3.2,2-3.9,1.8c-1.1-.8-.3-2.7,0-3.7,1.4-3.3,4.4-6.4,6.5-9.2,0-.2-.2-.1-.3,0-3.1.2-13.2,9.4-16.4,11.6s-2.1,1.6-3.3,1.4c-.7-.2-.2-2.7,0-3.2.3-1.2.8-2.2,1.2-3.3s.2-.5,0-.6c-3.4,3-6.9,6-10.6,8.6-6.1,4.3-16.2,10.2-20.2.1-2.9-7.2,2.3-15.5,6.7-20.9.6-.7,1.6-1.6,2.1-2.3s.3-.2.2-.5c-3.8-1.4-7.6-3.6-9.8-7.1,4.2,2,8.6,3.4,13.3,3.6,8.8-8,19-14.1,30.4-17.5.3-.2.2-.3.1-.5-.1-.5-1.7-3.1-.8-3.3,1.6.6,3.2,1.2,4.8,1.7s5.9,1,7.5,1.7.8,1,1.3,1.4c1.5,1.1,4.7,2.3,6.5,3.3s2.2,1.6,3.2,2,2.9.5,3.2,1.4,0,.7,0,1.1c.1.5.4.5.3,1.3s-1.6,2.9-2,3c-1.6.1-3.3-.7-4.8-.9s-2,.2-3,.2c-1.5,0-3.6-.8-4.8-.8s-2.7,1.1-3.7,1.3c-2.2.5-5,1-6.7-.9-7,4.5-15.3,10.4-23.8,11.1s-3.6,0-5.4,0c-4.2,4.5-8.1,13.9-5.2,19.8s1.2,1.9,2.4,2c4.9.5,14.9-7.9,18.5-11.2,6.2-5.7,12.2-14.6,21.4-15.4s8.1.9,12.2.2ZM55.5,6.4c-.6-.5-3-.3-3.8-.5-1.3-.3-3-2.2-4.8-2-.2,1.1,1.2,1.4,1.3,2.3-7.8,2-15.3,5.9-21.7,10.6-2.1,1.5-4.2,3.1-5.9,5,9.8-1.2,19.3-5.6,27.8-10.5,1.7,1.4,3.9,1,5.9.9s2.8.3,4.4.3,3.1-.2,3.5-1.6c-1.8-1-4.7-1.5-6-3.2s-.5-1.1-.6-1.2ZM105.3,24c-.2-.2-.6-.2-.9-.2-2.4.4-7.4,6.8-8.7,9-.3.4-1.9,3.2-1.6,3.4.4,0,.7,0,1.1-.2,3.1-1,7.9-6,9.5-8.9s1.4-2.4.7-3.2ZM154.3,36.3c3.7-.8,7.2-4.2,9.4-7.2s2.9-4,1.9-4.9c-1.1-.5-2.6.8-3.4,1.5-3.2,2.7-6.2,6.8-7.9,10.6ZM56.5,24.2c-2.6,0-5.4,1.7-7.4,3.3s-4.5,4.2-4.9,6.9c.7.6,5.7-3.2,6.4-3.8s6.4-5.9,5.9-6.3Z"/>
  <path class="st0" d="M87.7,16.9c.1-3.2,4.6-7.8,7.8-6.8s1.1,2.6.2,3.6c-1.4,1.6-5.9,3.3-8.1,3.2Z"/>
  <path class="st0" d="M170,42.8c3.8-.4,4.3,5.1.9,5.5-4.2.5-4.5-5.1-.9-5.5ZM169.8,43.4c-2.4.5-2.2,4.2.3,4.4s3-5.1-.3-4.4Z"/>
  <path class="st0" d="M169.3,44.3c.7-.2,2.4-.4,2.3.7s-.3.5-.3.7.4.8.3,1.2h-.6c-.1-.5-.1-1-.9-1l-.3,1.1h-.6v-2.7Z"/>
</svg>