<?xml version="1.0" encoding="UTF-8"?><svg id="Layer_1" xmlns="http://www.w3.org/2000/svg" viewBox="0 0 97.9 84.44"><defs><style>.cls-1{fill:#171717;}</style></defs><path class="cls-1" d="M13.4,78.44c.79.43,1.55.84,2.33,1.26-.06.14-.09.25-.15.34-1.38,2.46-3.43,4-6.25,4.34-4.89.58-8.67-2.83-9.24-7.08-.39-2.88.39-5.42,2.52-7.44,3.83-3.64,10.18-2.78,12.92,1.96-.73.48-1.47.94-2.24,1.42-.1-.15-.18-.28-.26-.41-.85-1.38-2.04-2.29-3.65-2.61-3.01-.59-5.97,1.35-6.61,4.36-.5,2.34.09,4.37,1.94,5.94,2.38,2.03,6.54,1.77,8.4-1.55.09-.16.18-.32.29-.54Z"/><path class="cls-1" d="M62.26,74.06v-1.18h2.53v11.25h-2.52v-1.24c-.15.11-.22.16-.29.22-.79.74-1.74,1.08-2.8,1.23-1.57.22-2.89-.29-4.05-1.28-1.22-1.04-1.84-2.41-1.95-4-.08-1.11.06-2.19.53-3.21,1.21-2.62,4.32-3.91,6.93-2.83.45.19.86.5,1.28.76.09.06.17.14.34.27ZM59.16,82.05c1.09-.02,2.02-.52,2.67-1.51.53-.81.68-1.71.52-2.66-.31-1.86-2.08-3.1-3.93-2.73-1.56.31-2.65,1.64-2.69,3.31-.05,1.99,1.43,3.59,3.43,3.59Z"/><path class="cls-1" d="M89.82,84.13h-2.54v-1.23c-.13.11-.19.16-.25.21-.8.75-1.77,1.08-2.85,1.24-1.5.21-2.75-.28-3.88-1.18-1.18-.94-1.83-2.2-2.04-3.69-.17-1.21-.04-2.39.45-3.52,1.17-2.7,4.32-4.03,6.99-2.94.28.11.54.25.79.41.25.16.48.35.78.58v-1.16h2.51c.09.33.12,10.57.04,11.28ZM87.48,78.53c-.04-.3-.06-.6-.13-.88-.34-1.43-1.59-2.49-3.01-2.56-1.5-.08-2.81.78-3.33,2.18-.25.67-.29,1.36-.15,2.06.4,1.95,2.33,3.14,4.21,2.59,1.44-.42,2.39-1.78,2.42-3.39Z"/><path class="cls-1" d="M22.36,84.44c-3.25,0-5.8-2.57-5.81-5.87,0-3.31,2.51-5.9,5.76-5.92,3.27-.02,5.86,2.56,5.87,5.86.01,3.28-2.58,5.92-5.82,5.93ZM25.62,78.35c-.04-.2-.09-.62-.22-1-.47-1.39-1.77-2.28-3.16-2.22-1.44.06-2.59,1.01-2.98,2.45-.15.56-.18,1.13-.06,1.69.29,1.32,1.04,2.25,2.37,2.59,1.3.33,2.39-.08,3.25-1.09.54-.63.77-1.38.8-2.42Z"/><path class="cls-1" d="M39.9,84.25h-2.63c0-.19,0-.34,0-.5,0-1.91,0-3.82,0-5.74,0-.37-.02-.74-.09-1.1-.22-1.17-1-1.84-2.19-1.91-1.55-.1-2.72.94-2.86,2.54-.02.26-.02.51-.02.77,0,1.8,0,3.6,0,5.39v.5h-2.55v-11.27c.83,0,1.66,0,2.53,0v1.17c.14-.12.23-.18.31-.26.73-.67,1.59-1.04,2.58-1.1.59-.04,1.17,0,1.74.15,1.63.44,2.6,1.54,3,3.14.12.48.18.99.19,1.48.02,2.14,0,4.28,0,6.42,0,.1-.01.2-.02.32Z"/><path class="cls-1" d="M52.34,76.23c-.77.33-1.51.65-2.29.98-.06-.1-.12-.19-.16-.29-.64-1.35-1.92-1.98-3.28-1.82-1.43.16-2.56,1.23-2.83,2.65-.27,1.41.1,2.61,1.25,3.51,1.61,1.26,3.87.74,4.82-1.06.08-.15.15-.3.23-.46.11.04.2.07.29.11.67.28,1.34.56,2.03.85-.04.12-.07.23-.11.33-.99,2.03-2.59,3.11-4.85,3.35-1.61.17-2.99-.28-4.2-1.28-1.35-1.12-2-2.6-2.08-4.34-.12-2.65,1.58-5.09,4.12-5.84,2.61-.77,5.51.23,6.83,2.84.08.15.14.31.22.5Z"/><path class="cls-1" d="M75.07,77.22c-.06-.13-.1-.21-.14-.28-.63-1.27-1.76-1.94-3.15-1.85-1.29.08-2.42.96-2.86,2.23-.62,1.8.23,3.73,1.94,4.39,1.56.6,3.19,0,3.99-1.47.09-.16.17-.33.26-.53.77.33,1.52.65,2.3.98-.07.17-.13.32-.2.45-1.02,1.98-2.63,3-4.85,3.22-1.39.13-2.59-.23-3.7-.99-1.15-.79-1.88-1.89-2.25-3.23-.9-3.25.99-6.56,4.22-7.34,2.69-.65,5.37.55,6.55,2.97.06.13.11.26.19.44-.77.33-1.53.65-2.31.99Z"/><path class="cls-1" d="M92.97,75.28h-1.83c0-.41,0-.79-.01-1.17,0-.37,0-.74,0-1.16h1.84c0-.21,0-.36,0-.52.04-.55.05-1.11.13-1.66.23-1.58,1.01-2.41,2.56-2.75.72-.16,1.44-.17,2.23-.15,0,.41,0,.8,0,1.19,0,.38,0,.77,0,1.19-.14.01-.26.02-.38.03-.34.03-.68.05-1.02.11-.45.08-.74.36-.83.81-.12.56-.1,1.13-.07,1.75h2.28v2.36h-2.29v8.94c-.88.04-1.73.02-2.62.02v-9Z"/><path class="cls-1" d="M53,51.83c0-.87,0-1.74,0-2.61,0-.09-.02-.18,0-.26.02-.07.07-.18.12-.19.06-.02.17.03.22.08.07.07.1.17.15.26.75,1.58,1.51,3.16,2.25,4.75.08.17.13.38.13.57.02,1.78.04,3.56.04,5.35,0,.14.07.35-.14.4-.22.05-.23-.17-.3-.3-.76-1.59-1.52-3.19-2.27-4.79-.09-.19-.13-.41-.14-.61-.01-.88,0-1.77,0-2.65-.02,0-.04,0-.07,0Z"/><path class="cls-1" d="M24.56,30.99c-.08-.02-.18-.05-.27-.07-1.7-.46-3.41-.92-5.11-1.38-.14-.04-.36-.03-.35-.24,0-.21.22-.18.37-.21,1.75-.33,3.5-.66,5.25-.98.15-.03.31-.02.46.02,1.72.45,3.44.9,5.16,1.36.14.04.36.02.34.25-.02.19-.21.2-.36.23-1.76.33-3.53.66-5.29.99-.06.01-.11.02-.19.02Z"/><path class="cls-1" d="M46.26,11.98c-.35-.02-.38-.24-.45-.42-.59-1.53-1.17-3.06-1.78-4.58-.15-.38-.21-.75-.18-1.16.13-1.72.24-3.44.36-5.16,0-.06,0-.12.02-.17.05-.15.2-.19.29-.06.06.08.09.18.13.27.64,1.66,1.29,3.32,1.92,4.98.06.17.1.36.09.54-.1,1.72-.21,3.44-.32,5.16-.01.19-.05.39-.07.6Z"/><path class="cls-1" d="M64.41,56.57s-.05.13-.1.15c-.05.02-.14,0-.19-.03-.08-.06-.14-.14-.21-.21-1.2-1.28-2.39-2.56-3.58-3.85-.13-.14-.23-.33-.29-.51-.55-1.66-1.09-3.33-1.64-4.99-.05-.16-.22-.37,0-.49.18-.1.3.11.41.23,1.21,1.29,2.41,2.58,3.61,3.88.11.12.21.28.26.43.55,1.71,1.1,3.42,1.64,5.13.03.08.05.16.08.27Z"/><path class="cls-1" d="M22.7,38.54c-.74.04-1.56.09-2.39.13-.15,0-.35.08-.42-.1-.08-.23.16-.27.3-.35,1.54-.83,3.08-1.67,4.63-2.48.2-.11.46-.16.69-.17,1.38-.08,2.76-.14,4.14-.21.38-.02.77-.05,1.15-.06.09,0,.17.07.26.1-.05.09-.09.19-.16.27-.04.05-.12.07-.18.11-1.5.81-3.01,1.61-4.51,2.43-.25.13-.49.2-.77.21-.88.03-1.76.08-2.73.12Z"/><path class="cls-1" d="M66.85,35.35c.11,0,.23,0,.36,0,1.79.09,3.59.17,5.38.27.14,0,.28.06.4.13,1.57.84,3.14,1.68,4.71,2.53.05.03.11.05.15.09.05.06.14.17.12.19-.05.07-.14.13-.22.15-.09.02-.2,0-.3,0-1.75-.09-3.5-.17-5.26-.26-.15,0-.31-.06-.44-.14-1.56-.83-3.11-1.67-4.67-2.51-.15-.08-.38-.12-.24-.44Z"/><path class="cls-1" d="M67.32,32.6c.12-.05.24-.12.37-.13,1.39-.15,2.78-.3,4.16-.44.33-.03.66-.04.98-.1.31-.06.59,0,.87.1,1.57.56,3.14,1.11,4.71,1.66.16.06.31.13.45.19,0,.24-.13.27-.28.29-.79.08-1.59.17-2.38.26-.96.1-1.93.21-2.89.3-.22.02-.46,0-.66-.07-1.64-.57-3.28-1.15-4.91-1.73-.14-.05-.27-.12-.41-.18,0-.05,0-.1,0-.15Z"/><path class="cls-1" d="M24.64,31.87c.88.09,1.67.17,2.46.25.98.1,1.96.21,2.93.32.04,0,.09,0,.13.01.14.02.32,0,.33.19.01.19-.17.2-.3.24-1.68.59-3.36,1.19-5.04,1.77-.17.06-.36.08-.54.06-1.73-.18-3.46-.37-5.19-.56-.03,0-.06,0-.09,0-.14-.02-.32.01-.33-.18-.01-.19.17-.2.3-.25,1.68-.59,3.36-1.19,5.04-1.78.12-.04.24-.07.29-.08Z"/><path class="cls-1" d="M20.51,20.25c.07-.22.2-.19.33-.17,1.1.14,2.21.28,3.31.42.71.09,1.41.18,2.12.28.16.02.33.09.47.17,1.51.95,3.01,1.91,4.51,2.86.1.06.19.15.29.23-.12.24-.3.21-.46.19-.52-.06-1.05-.12-1.57-.19-1.24-.16-2.49-.32-3.73-.49-.15-.02-.31-.07-.43-.15-1.55-.99-3.09-1.99-4.64-2.98-.07-.04-.13-.11-.2-.17Z"/><path class="cls-1" d="M78.48,24.6c.09.14.04.24-.07.3-.11.06-.23.11-.35.16-1.54.68-3.07,1.36-4.62,2.02-.19.08-.41.14-.61.14-1.74-.04-3.48-.09-5.21-.14-.15,0-.3-.03-.44-.04-.09-.26.08-.31.22-.37.64-.28,1.28-.56,1.92-.84.99-.44,1.98-.88,2.97-1.31.18-.08.38-.12.57-.12,1.8.04,3.59.1,5.38.16.08,0,.16.03.23.04Z"/><path class="cls-1" d="M65.37,21.63s-.13-.04-.14-.09c-.02-.07,0-.16.04-.22.05-.08.14-.14.22-.2,1.29-1.14,2.58-2.28,3.89-3.42.16-.14.35-.25.54-.31,1.66-.49,3.33-.97,5-1.45.15-.04.34-.2.46,0,.12.2-.11.29-.23.39-1.31,1.16-2.63,2.32-3.95,3.47-.14.13-.33.23-.51.29-1.68.49-3.36.97-5.05,1.46-.08.02-.17.04-.28.07Z"/><path class="cls-1" d="M19.32,24.6c.13-.03.25-.09.38-.09,1.79-.05,3.59-.1,5.38-.14.15,0,.31.04.45.1,1.62.71,3.23,1.42,4.85,2.13.07.03.14.05.19.09.06.05.15.16.13.18-.05.07-.13.12-.22.16-.05.02-.11,0-.17,0-1.74.05-3.48.11-5.21.14-.22,0-.45-.05-.65-.13-1.59-.69-3.18-1.39-4.77-2.09-.13-.06-.26-.15-.38-.22,0-.05.01-.1.02-.14Z"/><path class="cls-1" d="M32.72,21.46c-.11.07-.17.15-.23.15-.11,0-.22-.04-.33-.07-1.66-.48-3.31-.95-4.97-1.44-.2-.06-.39-.17-.55-.3-1.31-1.14-2.62-2.29-3.92-3.45-.12-.1-.35-.19-.25-.39.11-.23.31-.06.45-.02,1.67.47,3.34.95,5.01,1.44.18.05.37.16.51.28,1.32,1.15,2.64,2.31,3.95,3.47.1.09.19.2.32.32Z"/><path class="cls-1" d="M47.58,49.16c.04.11.11.21.13.33.26,1.8.51,3.61.76,5.42.02.16,0,.34-.05.5-.51,1.72-1.04,3.44-1.56,5.15,0,.03,0,.06-.02.08-.06.09-.12.23-.2.24-.16.02-.18-.14-.2-.27-.12-.83-.23-1.66-.35-2.5-.13-.95-.27-1.89-.39-2.84-.03-.2-.01-.43.04-.63.51-1.71,1.02-3.41,1.54-5.11.04-.13.1-.25.15-.38h.14Z"/><path class="cls-1" d="M33.44,40.73c-.09.11-.15.21-.23.29-.5.52-1.01,1.05-1.52,1.57-.72.75-1.44,1.5-2.18,2.24-.15.15-.33.28-.52.35-1.62.62-3.25,1.23-4.88,1.84-.09.04-.19.08-.28.09-.06,0-.15-.02-.18-.07-.03-.05-.02-.14,0-.19.04-.07.11-.13.17-.19,1.23-1.27,2.46-2.54,3.7-3.81.13-.14.31-.25.49-.32,1.64-.63,3.28-1.25,4.91-1.87.09-.03.19-.08.28-.08.06,0,.13.08.21.14Z"/><path class="cls-1" d="M64.66,40.63c.06.02.15.04.23.07,1.67.63,3.33,1.25,5,1.89.15.06.3.16.42.28,1.26,1.29,2.5,2.58,3.75,3.87.05.05.11.1.14.16.02.06.04.15,0,.19-.03.04-.12.07-.18.07-.08,0-.16-.05-.24-.08-1.64-.62-3.28-1.24-4.92-1.87-.18-.07-.36-.18-.49-.32-1.24-1.26-2.47-2.54-3.7-3.81-.06-.06-.13-.12-.17-.19-.09-.14-.01-.27.16-.27Z"/><path class="cls-1" d="M76.41,43.07c-.14-.01-.28,0-.43-.04-1.72-.36-3.43-.72-5.14-1.09-.17-.04-.35-.12-.5-.22-1.42-1.05-2.84-2.11-4.25-3.18-.12-.09-.32-.16-.23-.35.08-.19.28-.11.42-.08,1.74.36,3.49.73,5.23,1.1.13.03.27.1.38.18,1.45,1.09,2.89,2.18,4.33,3.28.11.08.26.15.19.39Z"/><path class="cls-1" d="M52.2,54.99c-.11.78-.2,1.5-.3,2.22-.15,1.06-.29,2.12-.45,3.18-.03.17.05.47-.23.48-.23,0-.21-.27-.26-.43-.5-1.63-.99-3.27-1.49-4.91-.07-.24-.1-.46-.06-.71.25-1.72.48-3.45.72-5.17.02-.16-.02-.4.2-.42.24-.03.22.23.26.38.51,1.68,1.02,3.35,1.53,5.03.04.13.07.27.09.36Z"/><path class="cls-1" d="M48.88,0c.24.05.25.21.28.34.39,1.78.78,3.56,1.17,5.34.03.15.03.31,0,.46-.38,1.75-.77,3.51-1.16,5.26-.02.07-.02.15-.06.2-.03.05-.1.12-.15.12-.05,0-.13-.06-.16-.11-.04-.07-.05-.16-.07-.25-.39-1.74-.77-3.48-1.15-5.22-.03-.16-.04-.34,0-.5.38-1.77.77-3.54,1.16-5.3.03-.13.1-.24.14-.35Z"/><path class="cls-1" d="M38.35,14.98c0,.14-.12.22-.24.15-.09-.05-.16-.12-.23-.19-1.29-1.18-2.59-2.37-3.88-3.56-.14-.13-.26-.3-.33-.48-.68-1.63-1.35-3.26-2.03-4.9-.01-.03-.02-.05-.03-.08-.03-.13-.18-.27,0-.38.16-.1.26.06.36.15,1.32,1.2,2.63,2.4,3.94,3.61.11.1.21.24.27.37.71,1.7,1.41,3.39,2.11,5.09.03.07.05.13.07.19Z"/><path class="cls-1" d="M59.66,15.27c-.04-.12-.1-.2-.09-.28,0-.09.07-.19.1-.28.67-1.62,1.33-3.24,2.01-4.86.08-.19.2-.38.35-.52,1.29-1.19,2.58-2.38,3.88-3.56.11-.1.21-.3.38-.2.21.13.03.31-.03.45-.67,1.64-1.34,3.27-2.02,4.9-.07.17-.17.33-.3.45-1.33,1.23-2.67,2.45-4,3.67-.07.06-.15.12-.28.21Z"/><path class="cls-1" d="M40.79,13.69c-.31.07-.37-.13-.47-.25-.72-.89-1.43-1.78-2.14-2.67-.38-.48-.77-.95-1.15-1.44-.12-.15-.22-.34-.27-.52-.43-1.73-.84-3.46-1.26-5.19-.03-.13-.04-.27-.06-.49.16.07.25.1.31.15.07.05.11.13.16.2,1.09,1.36,2.18,2.71,3.26,4.08.14.17.24.39.29.6.42,1.7.83,3.41,1.24,5.11.03.13.05.27.08.43Z"/><path class="cls-1" d="M62.4,3.34c-.17.68-.32,1.32-.47,1.95-.28,1.16-.56,2.32-.85,3.48-.04.17-.13.35-.24.49-1.1,1.38-2.2,2.76-3.31,4.14-.1.12-.18.35-.39.23-.18-.1-.03-.29,0-.43.4-1.7.81-3.41,1.24-5.1.05-.21.16-.43.29-.6,1.08-1.36,2.17-2.72,3.26-4.07.05-.07.1-.15.17-.19.06-.04.16-.08.22-.06.05.02.07.13.09.16Z"/><path class="cls-1" d="M71.48,50.72c-.1.05-.18.12-.25.11-.09-.01-.18-.08-.27-.13-1.52-.86-3.05-1.72-4.57-2.6-.18-.1-.35-.25-.46-.42-1.02-1.42-2.03-2.86-3.04-4.29-.08-.12-.27-.24-.14-.4.16-.2.31,0,.44.08,1.51.85,3.03,1.7,4.53,2.57.19.11.37.27.5.45,1.01,1.41,2.01,2.83,3.01,4.25.07.1.14.21.24.37Z"/><path class="cls-1" d="M39.57,46.69c-.04.12-.07.19-.09.25-.54,1.7-1.09,3.39-1.63,5.09-.08.25-.19.46-.38.66-1.18,1.26-2.35,2.53-3.54,3.78-.11.11-.2.35-.4.24-.21-.11-.05-.31,0-.46.55-1.68,1.09-3.36,1.65-5.04.06-.18.17-.36.3-.51,1.19-1.29,2.39-2.57,3.59-3.86.08-.08.15-.18.25-.22.06-.03.15.03.24.06Z"/><path class="cls-1" d="M28.11,8.45c.11.05.22.1.32.17,1.49,1,2.98,2,4.47,3,.14.09.26.22.35.36.93,1.54,1.85,3.08,2.77,4.61.04.06.08.12.1.19.01.06.01.15-.02.19-.04.04-.13.04-.19.02-.08-.03-.15-.09-.22-.13-1.47-.98-2.93-1.97-4.4-2.96-.16-.11-.3-.26-.4-.42-.92-1.51-1.82-3.03-2.73-4.54-.08-.13-.24-.27-.05-.49Z"/><path class="cls-1" d="M43.3,12.64c-.08-.09-.19-.18-.25-.29-.91-1.58-1.82-3.16-2.72-4.75-.07-.12-.11-.26-.12-.4-.13-1.45-.24-2.9-.36-4.35-.03-.33-.06-.65-.08-.98,0-.14,0-.28,0-.47.12.04.21.05.26.1.07.07.11.16.16.25.87,1.52,1.75,3.04,2.61,4.56.1.18.18.39.2.6.17,1.76.32,3.52.47,5.28.01.14.1.32-.15.44Z"/><path class="cls-1" d="M37.75,58.81c-.27-.17-.15-.37-.12-.53.11-.75.23-1.49.35-2.24.16-.97.31-1.94.48-2.91.04-.22.12-.44.25-.62.97-1.45,1.95-2.88,2.93-4.32.08-.12.19-.23.28-.34.25.15.16.34.13.49-.11.76-.24,1.52-.36,2.28-.16.97-.31,1.94-.48,2.91-.04.2-.11.42-.22.59-.98,1.46-1.96,2.91-2.95,4.36-.08.12-.19.23-.28.34Z"/><path class="cls-1" d="M60.79,44.91c.1.06.18.1.24.15,1.45,1.14,2.89,2.27,4.33,3.42.11.08.19.21.25.34.82,1.6,1.63,3.2,2.43,4.81.06.11.21.25.04.38-.15.11-.26-.03-.37-.12-1.41-1.11-2.83-2.22-4.23-3.34-.13-.1-.24-.25-.31-.39-.81-1.59-1.61-3.18-2.42-4.77-.04-.09-.1-.18-.11-.27,0-.06.08-.12.13-.19Z"/><path class="cls-1" d="M34.28,19.08c-.23.2-.38.06-.53,0-1.24-.57-2.48-1.15-3.72-1.73-.04-.02-.08-.04-.12-.05-.88-.3-1.53-.87-2.09-1.6-.86-1.11-1.8-2.17-2.7-3.26-.09-.11-.29-.22-.16-.39.13-.16.29,0,.43.05,1.6.74,3.2,1.49,4.8,2.24.17.08.34.21.46.36,1.14,1.35,2.27,2.71,3.4,4.07.08.09.14.2.22.32Z"/><path class="cls-1" d="M60.29,58.6s-.06.15-.11.16c-.06.02-.15-.04-.21-.09-.06-.05-.1-.14-.15-.21-.97-1.43-1.93-2.86-2.91-4.28-.15-.22-.24-.45-.28-.7-.28-1.73-.55-3.46-.83-5.19-.01-.07-.04-.14-.03-.21,0-.06.05-.17.08-.17.07,0,.16.02.21.07.07.06.12.16.17.24.97,1.43,1.94,2.85,2.9,4.28.11.16.2.35.23.54.31,1.81.6,3.63.89,5.44,0,.03,0,.06.02.13Z"/><path class="cls-1" d="M67.43,29.67c.09-.04.18-.09.27-.11,1.7-.46,3.41-.92,5.11-1.39.29-.08.55-.07.84-.01,1.66.32,3.33.63,5,.94.01,0,.03,0,.04,0,.15.03.36,0,.35.22,0,.08-.2.18-.32.21-1.28.35-2.56.68-3.84,1.02-.52.14-1.05.35-1.57.37-.51.02-1.04-.16-1.55-.26-1.3-.24-2.6-.48-3.91-.72-.15-.03-.35-.01-.41-.27Z"/><path class="cls-1" d="M37.09,44.91c.19.22.04.37-.03.51-.52,1.03-1.04,2.06-1.56,3.09-.17.34-.37.68-.52,1.03-.25.61-.66,1.07-1.19,1.46-1.23.93-2.42,1.9-3.64,2.85-.11.09-.32.21-.39.16-.2-.13-.02-.3.05-.44.79-1.58,1.59-3.16,2.39-4.73.09-.17.22-.33.37-.45,1.37-1.09,2.75-2.18,4.13-3.26.11-.09.25-.15.37-.23Z"/><path class="cls-1" d="M51.65,11.93c-.06-.74-.11-1.45-.16-2.16-.08-1.19-.17-2.39-.24-3.58-.01-.18.02-.37.08-.54.64-1.66,1.28-3.32,1.93-4.98.05-.13.06-.35.27-.32.21.03.16.24.17.39.11,1.74.22,3.47.33,5.21.02.28-.02.53-.12.79-.63,1.62-1.26,3.24-1.88,4.86-.06.15-.07.35-.37.34Z"/><path class="cls-1" d="M61.88,17.06c-.04-.1-.11-.18-.1-.25,0-.08.07-.15.11-.23.92-1.53,1.83-3.06,2.75-4.58.09-.15.23-.29.38-.39,1.46-.99,2.93-1.98,4.4-2.96.01,0,.02-.02.04-.02.12-.06.23-.22.37-.08.14.14-.02.26-.08.38-.91,1.53-1.83,3.06-2.75,4.58-.09.15-.23.29-.38.39-1.46.99-2.93,1.98-4.4,2.96-.09.06-.19.11-.34.2Z"/><path class="cls-1" d="M63.77,19.23c-.04-.09-.11-.18-.09-.24.03-.1.12-.19.19-.28,1.1-1.33,2.21-2.65,3.31-3.98.16-.19.34-.33.57-.44,1.55-.72,3.1-1.44,4.65-2.16.15-.07.34-.28.5-.1.17.2-.09.33-.19.45-1.09,1.32-2.19,2.63-3.28,3.95-.16.19-.34.33-.56.44-1.56.72-3.12,1.46-4.68,2.18-.11.05-.23.1-.4.17Z"/><path class="cls-1" d="M44.79,51.8c0,.9,0,1.8,0,2.7,0,.19-.05.4-.13.57-.75,1.6-1.51,3.2-2.27,4.79-.07.14-.09.39-.33.32-.19-.06-.12-.27-.12-.41.02-1.74.03-3.48.07-5.22,0-.23.06-.48.15-.7.74-1.59,1.5-3.17,2.25-4.75.05-.1.1-.2.17-.29.02-.03.11-.05.15-.03.04.02.08.07.09.12.01.04,0,.08,0,.13,0,.93,0,1.85,0,2.78,0,0-.02,0-.03,0Z"/><path class="cls-1" d="M26.37,50.75c.07-.12.13-.24.21-.35,1.04-1.45,2.07-2.9,3.12-4.35.1-.14.25-.28.4-.36,1.55-.89,3.1-1.76,4.65-2.64.13-.07.28-.24.46,0-.1.14-.21.29-.31.44-.99,1.4-1.97,2.8-2.97,4.19-.12.17-.28.33-.46.43-1.53.88-3.07,1.75-4.61,2.62-.14.08-.28.23-.49.03Z"/><path class="cls-1" d="M66.37,24.04c.16-.1.29-.19.42-.27,1.42-.92,2.85-1.83,4.27-2.76.21-.13.42-.22.67-.25,1.74-.22,3.48-.44,5.21-.66.07,0,.14-.03.21-.02.06.01.15.05.16.1.02.05-.02.14-.06.18-.07.07-.16.12-.24.17-1.45.92-2.91,1.85-4.37,2.77-.2.12-.44.2-.67.23-1.69.23-3.39.44-5.08.66-.17.02-.37.12-.52-.15Z"/><path class="cls-1" d="M21.44,43.08c-.1-.28.09-.34.21-.42,1.02-.77,2.05-1.54,3.08-2.3.29-.21.58-.41.85-.64.36-.3.76-.47,1.22-.56,1.62-.32,3.23-.67,4.85-1.01.15-.03.3-.1.41.13-.1.08-.19.16-.29.23-1.39,1.05-2.77,2.1-4.16,3.15-.21.16-.42.27-.68.32-1.69.34-3.37.71-5.06,1.06-.13.03-.27.03-.43.05Z"/><path class="cls-1" d="M54.4,12.59c.02-.16.04-.31.05-.46.12-1.49.25-2.98.37-4.47.02-.3.04-.6.08-.89.02-.14.07-.27.14-.39.89-1.56,1.78-3.12,2.68-4.67.03-.05.05-.11.09-.14.06-.05.13-.09.2-.13.04.08.11.17.1.25-.04.61-.1,1.22-.16,1.83-.11,1.18-.21,2.36-.33,3.53-.02.22-.08.45-.18.64-.88,1.55-1.76,3.09-2.65,4.64-.08.13-.12.34-.39.27Z"/></svg>