<?xml version="1.0" encoding="UTF-8"?><svg id="Layer_1" xmlns="http://www.w3.org/2000/svg" viewBox="0 0 125.59 67.96"><defs><style>.cls-1{fill:#171717;}</style></defs><path class="cls-1" d="M30.36,58.55c1.18-.26,2.16-.81,3.16-1.29.12.09.04.15,0,.19-.51.49-1.02.98-1.55,1.45-.39.35-.81.66-1.22.99-.12.09-.24.18-.38.29,0,.19-.02.39-.02.6,0,1.51,0,3.02,0,4.53,0,.21,0,.41-.02.62-.04.73-.41,1.28-1.02,1.64-.87.51-1.78.52-2.67.03-1.29-.72-1.45-2.38-.35-3.35.55-.48,1.19-.68,1.92-.6.18.02.37.07.55.04.08-.41.09-1.91.03-2.52-.16-.08-.29.04-.42.1-1.56.73-3.18,1.29-4.85,1.7-1.07.26-2.16.41-3.26.52-1.4.14-2.8.12-4.19-.01-3.38-.32-6.55-1.27-9.35-3.25-3.23-2.28-5.27-5.38-6.22-9.21C.16,49.67-.03,48.3,0,46.91c.02-.88,0-1.75.12-2.62.3-2.17,1.01-4.2,2.11-6.09,1.52-2.61,3.59-4.71,6.09-6.39,2.73-1.84,5.72-3.03,8.96-3.62,1.14-.21,2.29-.33,3.45-.36.05,0,.11,0,.17.01.01.19-.14.14-.22.17-5.05,1.86-8.62,5.3-10.81,10.19-.79,1.77-1.23,3.64-1.31,5.58-.09,2.32.43,4.52,1.44,6.6,1.21,2.47,2.99,4.45,5.25,5.99.03.02.07.03.1.05.35-.18,1.37-1.03,2.03-1.71,0-.19.01-.41.01-.63,0-5.47,0-10.93,0-16.4,0-.3,0-.6,0-.9,0-.95-.28-1.76-1.09-2.33-.01,0-.01-.03-.03-.07.03-.03.06-.08.1-.09,1.84-.21,3.56-.81,5.23-1.57,2.76-1.25,5.25-2.91,7.54-4.88.28-.24.56-.49.85-.74.15.16.27.3.4.44,1.01,1.13,2.13,2.15,3.41,2.97.85.55,1.75.99,2.75,1.21.18.04.37.06.55.09.14.02.29.05.49.09-.13.13-.2.23-.3.3-1.02.76-2.16,1.24-3.41,1.49-.85.17-1.7.22-2.56.14-.3-.03-.59-.05-.92-.07-.02.11-.05.22-.06.32-.01.15,0,.3,0,.45,0,7.74,0,15.49,0,23.23,0,.24,0,.48.01.79ZM28.8,33.42c-.61-.24-1.18-.45-1.74-.7-.58-.26-1.14-.55-1.72-.84-.22.14-.44.28-.68.44,0,.24-.02.48-.02.72,0,5.88,0,11.75,0,17.63,0,.15-.01.3,0,.45.03.3-.07.53-.31.73-.42.34-.8.72-1.21,1.08-1.68,1.48-3.36,2.96-5.04,4.44-.12.1-.28.18-.32.37.07.05.13.09.2.12,1.63.73,3.34,1.17,5.11,1.37,1.4.16,2.8.03,4.19-.04.39-.02.78-.1,1.16-.16.12-.02.26,0,.37-.15v-25.47Z"/><path class="cls-1" d="M48.41,7.92c.3-.28.61-.54,1-.7.42-.18.86-.23,1.31-.26.11,0,.22,0,.34,0,.14,0,.25-.04.35-.14.08-.08.17-.15.25-.22.6-.47,1.29-.65,2.04-.63.11,0,.23,0,.33.03.28.07.5-.02.73-.17.56-.35,1.16-.59,1.84-.59.3,0,.6.04.88.15.2.09.39.08.59,0,.23-.08.47-.12.71-.17.92-.19,1.78-.02,2.61.38.12.06.23.12.37.19.16-.25.29-.49.46-.7.19-.23.41-.44.64-.62.22-.17.48-.29.74-.44.11-.31.02-.63.04-.99-.47-.1-.92,0-1.39-.08-.12-.46-.06-.91-.04-1.39.46-.11.91,0,1.37-.08.16-.47-.01-.96.1-1.42.41-.11,1.99-.11,2.45,0,.13.46-.05.96.12,1.46h1.3c.13.49.07.94.05,1.41-.45.13-.91,0-1.35.09-.14.32-.04.65-.06.96,1.19.71,1.07.6,1.86,1.77.12.03.21-.05.3-.1,1.01-.53,2.06-.63,3.15-.34.13.03.25.06.38.11.17.06.32.06.49-.01.62-.26,1.24-.21,1.86.02.35.13.68.3,1.01.48.17.09.34.13.53.11.24-.03.48-.05.73-.04.71.03,1.35.28,1.89.75.2.17.4.24.65.24.53,0,1.05.06,1.52.32.32.18.61.41.97.66.16,0,.38-.03.61-.03.41-.01.82,0,1.22.14.49.16.9.44,1.23.84.09.12.17.24.27.36.15.18.34.28.59.27.07,0,.15,0,.22,0,1.03-.03,1.78.47,2.35,1.28.46.65-.01,1.27-.54,1.41-.56.15-1.11.32-1.65.52-.49.18-.97.39-1.43.64-.57.3-1.11.25-1.65-.06-.16-.09-.3-.22-.45-.33-2.46-1.92-5.16-3.41-8.14-4.38-.16-.05-.32-.12-.48-.14-.12-.02-.26,0-.38.03-.28.08-.33.3-.12.5.09.09.2.16.3.25,1.16.97,1.95,2.19,2.48,3.6.19.51-.1,1.03-.75.95-.07,0-.15-.03-.22-.04-.07-.02-.14-.04-.21-.07-.41-.14-.8-.09-1.2.07-.53.22-.89.09-1.14-.43-.07-.13-.1-.28-.14-.42-.09-.34-.15-.69-.25-1.03-.3-.94-.82-1.75-1.54-2.43-.49-.46-1.03-.86-1.63-1.18-.44-.23-.87-.17-1.19.13-.35.33-.37.72-.06,1.09.19.23.39.45.58.68.3.38.57.79.7,1.27.06.21.08.44.08.66,0,.31-.18.54-.46.64-.36.14-.73.14-1.07-.08-.26-.17-.45-.39-.59-.66-.07-.13-.12-.27-.19-.41-.32-.68-.87-1.01-1.59-1.04-.75-.03-1.34.26-1.72.94-.11.2-.21.4-.32.59-.16.26-.38.46-.64.61-.26.14-.53.18-.81.12-.3-.06-.49-.25-.57-.55-.07-.26-.02-.52.06-.77.18-.58.49-1.09.86-1.56.15-.19.32-.37.46-.56.2-.26.2-.51,0-.77-.22-.29-.53-.42-.89-.36-.18.03-.36.1-.52.18-.55.29-1.06.63-1.52,1.04-.96.84-1.55,1.89-1.8,3.15-.03.16-.05.33-.1.49-.05.16-.11.32-.2.46-.15.24-.57.44-.89.26-.05-.03-.1-.04-.15-.07-.37-.17-.75-.21-1.15-.08-.12.04-.25.07-.38.09-.21.03-.41-.01-.59-.12-.19-.11-.3-.29-.26-.51.02-.15.07-.29.12-.43.48-1.37,1.29-2.51,2.41-3.44.11-.1.24-.18.34-.29.15-.15.1-.36-.08-.47-.16-.09-.32-.09-.49-.05-.16.04-.32.1-.48.15-2.91.97-5.58,2.41-7.99,4.31-.16.13-.32.26-.5.36-.6.36-1.21.44-1.85.06-.7-.41-1.47-.64-2.23-.89-.25-.08-.5-.14-.75-.24-.75-.29-.92-1-.37-1.61.26-.3.57-.54.91-.73.4-.22.82-.38,1.28-.32.46.06.77-.12,1.02-.52.43-.67,1.07-1.02,1.87-1.07.41-.03.82,0,1.29,0ZM66.37,6.68c0-.54-.13-.99-.46-1.38-.45-.52-1.17-.59-1.7-.16-.16.13-.29.29-.4.46-.42.68-.36,1.68.13,2.31.11.14.25.28.4.38.46.31.98.27,1.38-.1.16-.15.29-.34.4-.53.17-.31.25-.66.23-.99Z"/><path class="cls-1" d="M121.64,54.62c-.25.37-3.25,3.45-3.92,4.03-.19,0-.28-.16-.4-.27-.89-.85-1.78-1.7-2.67-2.56-.13-.13-.27-.25-.43-.39-.52.57-1.03,1.12-1.53,1.66-.49.53-.99,1.06-1.45,1.57-.25.02-.35-.13-.48-.23-1.07-.84-2.19-1.62-3.38-2.29-1.01-.56-2.06-1.05-3.19-1.33-.31-.08-.62-.14-.96-.22.06-.11.1-.2.15-.28.22-.32.45-.64.68-.96.01-.37.03-.74.03-1.11,0-3.54,0-7.09,0-10.63,0-.37-.06-.68-.29-.99-.23-.31-.43-.65-.46-1.09.63-.21,1.28-.3,1.89-.5.64-.21,1.28-.4,1.91-.64.61-.23,1.21-.48,1.8-.76.59-.28,1.16-.59,1.78-.91,2.48.85,5,1.71,7.55,2.58,0,.23.01.45.01.67,0,3.95,0,7.91,0,11.86,0,.15.01.3,0,.45-.08,1.07.8,1.88,1.65,2.02.44.07.88.14,1.32.22.12.02.24.07.37.1ZM112.95,53.89v-12.21c-1.25-.48-2.5-.95-3.78-1.44-.02.13-.03.22-.03.31,0,3.75,0,7.49,0,11.25,1.31.6,2.57,1.23,3.81,2.09Z"/><path class="cls-1" d="M87.63,36.82c1.12.71,2.25,1.33,3.18,2.24.14.13.27.19.45.15.16-.04.33-.06.49-.12.42-.16.84-.32,1.23-.52.98-.5,1.94-1.05,2.81-1.73.06-.04.13-.08.21-.13,1.69,1,3.36,2.01,5.12,2.79.11.18.09.33.03.47-.12.31-.25.62-.39.93-.08.17-.13.34-.12.54,0,.11,0,.22,0,.34,0,4.03,0,8.06,0,12.09,0,.22,0,.44,0,.68.46.16.91,0,1.35.11-.02.17-.16.2-.26.26-.81.51-1.57,1.08-2.26,1.74-.54.52-1.03,1.08-1.42,1.72-.05.08-.1.15-.18.25-.21-.21-.28-.46-.43-.67-.17-.22-.32-.46-.5-.67-.16-.2-.34-.4-.52-.58-.2-.2-.4-.39-.61-.58-.2-.17-.4-.34-.61-.49-.22-.17-.46-.32-.68-.49-.2-.15-.44-.26-.68-.49.49-.09.92,0,1.36-.08.02-.1.05-.2.06-.31.01-.09,0-.19,0-.28,0-3.94,0-7.87,0-11.81,0-.15,0-.3,0-.49-.57-.46-1.17-.88-1.79-1.34-.79.42-1.54.87-2.28,1.29-.07.54-.07,12.44,0,12.92.44.1.91,0,1.4.07-.08.17-.23.22-.34.29-.75.46-1.45.98-2.11,1.57-.68.62-1.28,1.31-1.76,2.13-.26-.22-.37-.53-.56-.76-.22-.26-.42-.52-.65-.77-.21-.23-.44-.46-.68-.67-.23-.21-.48-.42-.73-.61-.26-.21-.54-.4-.81-.6-.25-.18-.53-.32-.85-.57.5-.09.93,0,1.38-.07.02-.1.05-.2.07-.31.01-.11,0-.22,0-.34,0-3.92,0-7.84,0-11.75,0-.31,0-.64-.1-.94-.26-.83-.81-1.41-1.66-1.67-.11-.03-.21-.06-.33-.1.03-.05.05-.11.08-.13,1.35-.83,2.7-1.66,4.09-2.52Z"/><path class="cls-1" d="M82.52,54.74c-2.97.62-5.65,1.7-7.74,3.92-.07-.04-.13-.06-.16-.1-.6-.71-1.35-1.23-2.13-1.71-1.49-.91-3.11-1.51-4.82-1.89-.62-.14-1.25-.22-1.87-.33-.07-.01-.13-.03-.23-.06.32-.75.89-1.27,1.44-1.84,0-.1.03-.23.03-.35,0-3.65,0-7.31,0-10.96,0-.28-.07-.5-.23-.72-.24-.33-.47-.68-.49-1.12.14-.16.34-.13.52-.15,1.1-.12,2.17-.35,3.22-.69,1.34-.42,2.6-1.02,3.71-1.9.06-.05.12-.08.2-.13.54.23,1.09.47,1.64.7.55.23,1.11.45,1.67.65.54.2,1.09.39,1.64.56.57.18,1.14.35,1.72.5.57.14,1.15.25,1.78.39-.15.17-.25.3-.36.42-.33.36-.48.77-.48,1.27.01,3.8.01,7.61,0,11.41,0,.8.25,1.46.83,1.99.03.02.04.06.11.14ZM72.09,40.19c-.11.19-.07.4-.07.6,0,3.69,0,7.39,0,11.08,0,.09,0,.19,0,.28-.01.21.07.37.25.46.38.19.76.41,1.16.55.65.22,1.32.39,1.99.57.25.07.5.12.78.18.02-.12.05-.21.06-.3.07-1.35.02-11.48-.06-11.94-.1-.05-.22-.1-.34-.15-.53-.22-1.07-.45-1.6-.66-.56-.21-1.12-.41-1.68-.61-.16-.06-.31-.12-.49-.06Z"/><path class="cls-1" d="M48.98,54.74c-.52.12-.99.22-1.45.36-.47.13-.93.28-1.38.45-.47.18-.93.38-1.39.6-.43.21-.86.45-1.27.71-.41.26-.8.54-1.18.85-.37.3-.72.64-1.07.96-.05-.03-.09-.05-.12-.07-1.07-1.2-2.42-1.98-3.86-2.61-1.42-.63-2.91-1.03-4.46-1.25-.2-.03-.41-.06-.61-.1-.03,0-.06-.03-.13-.07.3-.75.9-1.26,1.46-1.87v-.4c0-3.6,0-7.2,0-10.8,0-.32-.07-.57-.26-.83-.23-.32-.43-.66-.48-1.07.14-.16.33-.13.51-.16.7-.12,1.4-.21,2.09-.37,1.26-.29,2.47-.71,3.6-1.37.5-.29.97-.63,1.49-.98.15.07.34.14.52.23,1.96.87,3.97,1.63,6.05,2.16.51.13,1.02.21,1.53.32.09.02.17.05.31.09-.14.16-.24.28-.35.4-.33.36-.48.76-.48,1.27.01,3.81.01,7.61,0,11.42,0,.79.23,1.46.82,2,.03.02.04.06.09.14ZM42.69,53.88c.07-.47.08-11.71,0-12.22-.76-.31-1.54-.63-2.31-.94-.43-.17-.87-.32-1.31-.47-.16-.06-.31-.11-.51-.06-.09.21-.05.44-.05.65,0,3.47,0,6.93,0,10.4,0,.28.02.56,0,.84-.02.28.1.47.34.58.46.21.9.46,1.38.61.73.23,1.47.4,2.21.59.08.02.18.02.26.03Z"/><path class="cls-1" d="M51.39,16.84c.6-.79,1.28-1.47,2.17-1.97.89.44,1.58,1.09,2.11,1.96-.08.13-.15.25-.23.38-.19.32-.42.62-.57.96-.4.87-.28,1.72.19,2.51.28.47.77.65,1.29.66.61,0,1.04-.64.84-1.23-.05-.16-.15-.3-.22-.45-.17-.39-.22-.79-.02-1.19.45-.88,1.57-.74,2.03-.18.19.23.24.51.15.79-.07.21-.16.42-.27.61-.16.27-.17.53-.03.8.09.16.18.33.31.46.44.47,1.13.54,1.68.12.73-.55,1.05-1.3.88-2.21-.12-.64-.45-1.18-.9-1.65-.12-.12-.24-.23-.36-.36-.19-.21-.2-.44-.03-.66.12-.15.27-.25.46-.3.14-.04.29-.07.43-.11.46-.11.89-.28,1.3-.51.55-.31,1-.71,1.28-1.29.11-.23.26-.45.44-.64.43-.46.88-.45,1.3,0,.13.13.24.29.32.45.57,1.08,1.51,1.67,2.65,1.98.16.04.33.06.49.12.12.04.25.09.35.17.29.23.32.55.08.83-.1.11-.22.2-.33.31-.33.31-.61.65-.81,1.06-.33.67-.33,1.34.06,1.98.16.27.37.52.58.75.25.27.6.37.96.4.39.03.7-.13.9-.45.12-.2.2-.44.27-.67.05-.16.02-.33-.07-.48-.08-.14-.17-.29-.22-.45-.2-.53-.03-1.04.43-1.32.47-.29,1.06-.22,1.44.17.39.4.48.87.28,1.39-.05.12-.12.23-.17.35-.06.16-.12.31-.15.48-.07.41.09.69.47.84.6.25,1.24.07,1.65-.46.64-.83.7-1.99.14-2.89-.21-.33-.47-.63-.72-.97.05-.1.1-.22.17-.32.45-.65,1.02-1.19,1.73-1.56.16-.08.31-.11.48-.01.8.45,1.41,1.08,1.89,1.87-.12.15-.23.27-.33.4-.28.35-.55.71-.83,1.06-.21.27-.27.57-.22.9.09.63.36,1.17.81,1.62.04.04.08.07.13.11.54.41,1.27.2,1.5-.44.12-.32.17-.64-.06-.96-.16-.21-.21-.48-.21-.74,0-.58.45-1.07,1.08-1.17.28-.04.56-.02.82.1.78.33,1,1.26.46,1.91-.08.1-.19.18-.29.27-.19.17-.29.39-.31.64-.03.25.08.44.31.54.44.19.88.15,1.29-.1,1.02-.63,1.56-2.19,1.13-3.31-.1-.28-.28-.53-.43-.78-.06-.1-.14-.18-.2-.27-.25-.35-.13-.7.28-.8.16-.04.33-.06.5-.08.37-.04.68-.2.94-.45.23-.22.47-.43.69-.65.32-.31.69-.52,1.13-.55.72-.04,1.33-.34,1.92-.71.25-.16.5-.33.75-.49.12-.08.25-.17.38-.22.3-.13.56-.06.75.19.19.25.2.6.02.83-.09.12-.21.21-.32.31-1.5,1.41-2.7,3.03-3.56,4.91-.41.9-.73,1.83-.93,2.81-.03.14-.08.29-.11.42-.44.06-40.42.08-41.15.02-.04-.12-.1-.25-.13-.39-.69-2.96-2.2-5.44-4.34-7.56-.15-.14-.29-.29-.45-.42-.23-.18-.24-.41-.15-.65.18-.46.56-.61.99-.38.13.07.24.18.37.25.38.24.75.48,1.14.7.38.21.78.35,1.22.38.58.04,1.07.29,1.48.7.92.92.58.69,1.74,1,.22.06.43.14.57.32.09.12.11.24.02.36-.1.14-.21.27-.32.39-.74.82-.76,1.75-.4,2.72.22.59.63,1.06,1.16,1.39.33.21.69.28,1.07.15.45-.15.61-.58.34-.97-.11-.15-.25-.27-.4-.38-.55-.43-.5-1.23-.16-1.66.44-.56,1.29-.65,1.91-.19.43.32.76.94.34,1.64-.23.38-.16.71.01,1.06.23.46.72.63,1.19.4.16-.08.32-.2.45-.33.4-.39.61-.89.68-1.44.04-.32-.03-.63-.19-.91-.25-.44-.56-.83-.91-1.2-.1-.11-.19-.22-.3-.36Z"/><path class="cls-1" d="M85.56,25.08c.09.5.1,3.29.02,3.8-.05.02-.1.06-.15.06-13.59,0-27.17,0-40.76,0-.07,0-.14-.03-.2-.05-.08-.46-.08-3.25,0-3.78.1-.01.2-.03.31-.03.15,0,.3,0,.45,0,13.19,0,26.39,0,39.58,0h.75ZM80.95,28.2c.61.01,1.15-.52,1.15-1.12,0-.58-.51-1.1-1.1-1.12-.63-.01-1.14.48-1.14,1.12,0,.61.48,1.11,1.08,1.12ZM50.11,27.06c0-.6-.56-1.12-1.18-1.1-.6.02-1.07.52-1.06,1.14,0,.61.5,1.1,1.1,1.1.6,0,1.15-.54,1.14-1.14ZM58,27.1c0-.64-.48-1.14-1.12-1.14-.59,0-1.11.51-1.12,1.1-.01.6.52,1.14,1.13,1.14.6,0,1.09-.49,1.1-1.1ZM66.11,27.11c.02-.57-.5-1.12-1.08-1.15-.59-.02-1.13.47-1.15,1.06-.03.62.49,1.17,1.1,1.18.57,0,1.12-.52,1.14-1.09ZM74.2,27.07c0-.58-.52-1.11-1.11-1.11-.58,0-1.12.51-1.13,1.09-.01.6.54,1.16,1.14,1.15.58-.01,1.1-.54,1.1-1.12Z"/><path class="cls-1" d="M57.75,54.57c.49.09.92,0,1.33.07.04.14-.06.17-.13.21-.65.41-1.27.85-1.86,1.35-.77.66-1.45,1.39-1.98,2.26-.04.06-.08.11-.15.21-1.04-1.72-2.52-2.92-4.16-3.94.08-.16.21-.1.31-.11.11-.01.22,0,.34,0,.11,0,.22,0,.34,0,.11,0,.22-.02.33-.03.09-.22.06-.43.06-.63,0-1.64,0-3.28,0-4.93,0-2.35,0-4.7,0-7.05,0-.72-.26-1.3-.75-1.81-.25-.26-.55-.45-.89-.56-.15-.05-.3-.1-.47-.16.06-.06.09-.11.13-.14,1.39-.87,2.78-1.74,4.19-2.63,1.17.73,2.33,1.43,3.36,2.38.44-.19.84-.47,1.24-.73.41-.26.82-.52,1.22-.79.4-.27.8-.54,1.21-.83,1.15,1.15,2.28,2.33,3.87,2.91,0,.28-.12.51-.24.74-.49.94-1.27,1.44-2.32,1.51-.68.05-1.35-.05-1.98-.29-.58-.21-1.14-.47-1.69-.73-.27-.13-.53-.17-.81-.13-.29.04-.44.18-.47.47-.01.13,0,.26,0,.39,0,4.14,0,8.28,0,12.42v.56Z"/><path class="cls-1" d="M44.43,24.21c-.01-.18-.02-.29-.02-.41,0-.19,0-.37,0-.58.13-.02.23-.05.34-.06.15,0,.3,0,.45,0,13.21,0,26.43,0,39.64,0,.24,0,.48,0,.74.01.09.34.03.65.05.98-.13.03-.23.06-.34.07-.17.01-.34,0-.5,0-13.18,0-26.35,0-39.53,0-.26,0-.52,0-.82-.02Z"/><path class="cls-1" d="M121.26,59.24c0-1.19.99-2.15,2.19-2.15.94,0,2.11.72,2.13,2.15.02,1.21-.92,2.18-2.16,2.18-1.39,0-2.17-1.12-2.17-2.17ZM121.68,59.25c0,.96.77,1.74,1.73,1.75.95,0,1.74-.77,1.76-1.72.02-.91-.76-1.78-1.77-1.77-.93,0-1.76.81-1.73,1.75Z"/><path class="cls-1" d="M122.93,59.49c-.02.3-.03.57-.05.88-.12.01-.22.02-.32.03-.12-.17-.13-1.62-.03-2.25.39-.07.8-.06,1.2,0,.25.04.47.14.54.41.08.27.02.51-.21.7-.06.04-.11.09-.18.15.15.34.48.58.55.98h-.42c-.17-.24-.34-.48-.5-.73-.13-.2-.31-.25-.58-.18ZM122.96,59.08c.24,0,.44.02.64,0,.16-.02.25-.16.25-.31,0-.15-.1-.23-.24-.27-.21-.05-.43-.05-.63,0-.1.2-.08.37-.02.59Z"/></svg>