<?xml version="1.0" encoding="UTF-8"?>
<svg id="Layer_1" xmlns="http://www.w3.org/2000/svg" version="1.1" viewBox="0 0 84.9 73.5">
  <!-- Generator: Adobe Illustrator 29.1.0, SVG Export Plug-In . SVG Version: 2.1.0 Build 142)  -->
  <defs>
    <style>
      .st0 {
        fill: #171717;
      }
    </style>
  </defs>
  <path class="st0" d="M84.9,0c-2.4,4.2-4.9,8.4-7.3,12.6-.2.3-.4.3-.7.3-22.1,0-44.3,0-66.4,0-.9,0-1.9,0-2.8,0-.2,0-.4-.1-.4-.2C4.9,8.5,2.5,4.3,0,.1,0,0,0,0,0,0,28.3,0,56.6,0,84.9,0ZM15.2,10.5c.1,0,.2,0,.2,0,2.6,0,5.3,0,7.9,0,.1,0,.4-.1.4-.3,1-1.5,1.9-3,2.9-4.5,0,0,.1-.2.2-.3.4.6.8,1.2,1.2,1.9-.3,0-.5,0-.8,0-.1,0-.3,0-.3.1-.3.5-.6.9-.9,1.5.9,0,1.8,0,2.6,0,.3,0,.5,0,.7.3.2.4.4.7.7,1,0,.1.2.2.3.2.6,0,1.1,0,1.8,0-1.7-2.7-3.4-5.4-5.1-8.1-.1.2-.2.3-.2.4-1.2,1.9-2.4,3.8-3.6,5.7-.2.3-.3.4-.7.4-1.2,0-2.5,0-3.7,0-.1,0-.3,0-.5,0,.3-.5.6-.9.8-1.3.1-.2.3-.3.6-.3.7,0,1.4,0,2.2,0,.1,0,.3,0,.4-.1.3-.5.6-.9.9-1.4,0,0,0,0,0,0-2,0-4,0-5.9,0,0,0-.2,0-.2,0-.3.5-.6,1-1,1.5h1.5c-.7,1.1-1.3,2.1-2,3.2ZM52.1,2.5v8h1.4v-3.1c.4,0,.7,0,1.1,0,.2,0,.3,0,.4.3.3.9.7,1.7,1.1,2.6,0,.1.1.3.2.3.4,0,.9,0,1.4,0-.5-1.2-.9-2.2-1.4-3.3.9-.4,1.2-1.2,1.1-2.1,0-.3,0-.5,0-.8,0-1.1-.7-1.8-1.8-1.8-.6,0-1.2,0-1.8,0-.5,0-1.1,0-1.6,0ZM50.8,6.5c0-.8,0-1.5,0-2.3,0-.9-.7-1.7-1.6-1.7-.7,0-1.4,0-2.1,0-.9,0-1.6.8-1.6,1.7,0,1.5,0,3.1,0,4.6,0,1,.7,1.7,1.7,1.7.7,0,1.3,0,2,0,1,0,1.7-.8,1.7-1.8,0-.7,0-1.5,0-2.2ZM32.5,8.1c0,.4,0,.7,0,1,.1.9.7,1.5,1.7,1.5.7,0,1.4,0,2.1,0,1,0,1.6-.7,1.7-1.7,0-.4,0-.8,0-1.2,0-1.2-.7-1.9-1.9-1.9-.5,0-1,0-1.5,0-.5,0-.6-.2-.6-.8,0-.9.1-1.2.6-1.2.3,0,.7,0,1,0,.8,0,.8,0,1,.8,0,.1.1.3.2.3.3,0,.7,0,1.1,0,0-.2,0-.3,0-.5,0-1.3-.6-1.9-1.9-1.9-.6,0-1.2,0-1.8,0-.9,0-1.6.7-1.7,1.7,0,.4,0,.8,0,1.2,0,1,.8,1.7,1.7,1.7.6,0,1.1,0,1.7,0,.4,0,.6.2.6.6,0,.4,0,.7,0,1.1,0,.4-.2.6-.6.6-.4,0-.9,0-1.3,0-.4,0-.6-.2-.7-.5-.2-.7-.2-.7-.9-.7-.1,0-.3,0-.5,0ZM64.3,8.1c0,.3,0,.5,0,.7,0,1,.7,1.7,1.7,1.7.7,0,1.4,0,2.1,0,1,0,1.6-.8,1.7-1.7,0-.4,0-.8,0-1.2,0-1-.7-1.9-1.9-1.9-.5,0-1.1,0-1.6,0-.3,0-.5-.1-.6-.5,0-.3,0-.7,0-1,0-.3.2-.5.6-.5.3,0,.7,0,1,0,.8,0,.8,0,1.1.8,0,.1.1.3.2.3.3,0,.7,0,1.1,0,0-.3,0-.5,0-.7,0-.9-.6-1.6-1.5-1.6-.8,0-1.6,0-2.4,0-.9,0-1.5.8-1.5,1.6,0,.4,0,.7,0,1.1,0,1.1.7,1.8,1.8,1.8.5,0,1.1,0,1.6,0,.4,0,.6.2.6.6,0,.4,0,.7,0,1.1,0,.4-.2.6-.6.6-.4,0-.9,0-1.3,0-.4,0-.6-.2-.7-.6,0-.1,0-.3-.1-.4,0,0-.2-.2-.2-.2-.3,0-.6,0-1,0ZM40.5,7.6c.8,0,1.5,0,2.2,0,1.1,0,1.8-.7,1.8-1.8,0-.5,0-1,0-1.6,0-1.1-.7-1.7-1.8-1.7-.9,0-1.8,0-2.7,0-.3,0-.6,0-.9,0v8h1.4v-2.9ZM60.1,3.8v6.8h1.4V3.8h2v-1.2h-5.5v1.2h2.1ZM25.3,2.6c0,0-.1,0-.1,0-2.1,0-4.1,0-6.2,0,0,0-.2,0-.3.1-.3.5-.6.9-.9,1.5,2.2,0,4.3,0,6.4,0,0,0,.2,0,.3-.1.3-.4.6-.9.9-1.4Z"/>
  <path class="st0" d="M52.9,38.7c2.6-4.4,5.1-8.7,7.7-13.2-.9,0-1.8,0-2.6,0-.1,0-.2.2-.3.3-2,3.5-4.1,6.9-6.1,10.4-3.4,5.9-6.9,11.8-10.3,17.7-.2.3-.2.5,0,.8.4.6.7,1.2,1.1,1.9.1-.2.2-.3.3-.4,2.9-4.9,5.7-9.8,8.6-14.8.2-.3.3-.4.7-.4,2.9,0,5.9,0,8.8,0s.3,0,.5,0c-6.3,10.8-12.5,21.6-18.8,32.4,0-.1-.2-.2-.2-.3-3-5.1-6-10.2-8.9-15.4-1.3-2.3-1.3-4.9,0-7.2,5.8-10.1,11.7-20.1,17.5-30.1,1.3-2.2,3.3-3.5,6-3.5,5.9,0,11.8,0,17.7,0h.6c0,.1-.1.2-.2.3-4.1,7-8.1,14.1-12.2,21.1,0,.1-.3.3-.4.3-3.1,0-6.1,0-9.2,0,0,0-.1,0-.3,0Z"/>
  <path class="st0" d="M50.2,17c-.4.7-.7,1.3-1.1,1.9-1.2,2-2.4,4.1-3.6,6.1-.2.4-.4.5-.8.5-3.9,0-7.7,0-11.6,0-.3,0-.5.1-.7.4-.3.6-.7,1.2-1.1,1.9h12.5c0,.2-.2.3-.2.4-1.5,2.6-3,5.2-4.5,7.8-.2.3-.3.3-.6.3-3.9,0-7.8,0-11.7,0-.3,0-.5,0-.6.3-.7,1.3-1.5,2.6-2.3,3.9,0,.1-.2.3-.3.4-.3-.5-.6-1-.9-1.5-1.3-2.2-2.5-4.3-3.8-6.5-.1-.2-.1-.4,0-.7,2.3-4,4.6-8,7-11.9,1.3-2.1,3.3-3.4,5.9-3.4,6,0,11.9,0,17.9,0,.1,0,.3,0,.5,0Z"/>
  <path class="st0" d="M25.1,17.1c-2.6,4.4-5.1,8.8-7.7,13.3-2.6-4.4-5.1-8.8-7.7-13.3h15.4Z"/>
  <path class="st0" d="M53.5,6.1v-2.3c.7,0,1.3,0,1.9,0,.2,0,.4.3.5.4,0,.5,0,1,0,1.5,0,.2-.3.4-.5.4-.6,0-1.3,0-1.9,0Z"/>
  <path class="st0" d="M49.4,6.5c0,.7,0,1.3,0,2,0,.6-.2.8-.8.8-.4,0-.7,0-1.1,0-.4,0-.7-.2-.7-.6,0-1.4,0-2.8,0-4.2,0-.4.3-.6.7-.6.4,0,.7,0,1.1,0,.5,0,.7.2.8.7,0,.7,0,1.4,0,2Z"/>
  <path class="st0" d="M40.5,6.3v-2.5c.7,0,1.3,0,2,0,.3,0,.5.2.5.6,0,.5,0,.9,0,1.4,0,.3-.2.6-.6.6-.6,0-1.3,0-1.9,0Z"/>
</svg>