<?xml version="1.0" encoding="UTF-8"?><svg id="Layer_1" xmlns="http://www.w3.org/2000/svg" viewBox="0 0 84.04 84.03"><defs><style>.cls-1{fill:#171717;}</style></defs><path class="cls-1" d="M40.17,0c1.23,0,2.47,0,3.7,0,.15.02.3.05.45.07,1.54.17,3.1.27,4.63.52,7.37,1.21,13.94,4.23,19.71,8.96,12.21,10.02,17.76,25.84,14.44,41.29-2.06,9.58-6.93,17.52-14.52,23.7-8.75,7.13-18.83,10.2-30.1,9.34-4.47-.34-8.78-1.41-12.89-3.2-8.89-3.85-15.69-10.03-20.41-18.49C2.46,57.31.83,52.06.24,46.5c-.09-.87-.16-1.75-.24-2.62,0-1.23,0-2.47,0-3.7.02-.18.06-.35.07-.53.12-2.37.44-4.71.99-7.01,2.43-10.2,7.88-18.42,16.32-24.61C23.4,3.6,30.16,1.04,37.59.24c.86-.09,1.72-.16,2.59-.24ZM78.22,42.03c0-19.97-16.17-36.16-36.17-36.2-19.96-.04-36.21,16.2-36.22,36.19,0,19.96,16.16,36.15,36.17,36.21,19.94.05,36.22-16.21,36.22-36.19Z"/><path class="cls-1" d="M52.34,19.26c5.58,8.83,11.12,17.6,16.69,26.43-.15.01-.26.03-.36.03-1.86,0-3.73,0-5.59,0-.26,0-.4-.09-.53-.3-.97-1.54-1.95-3.07-2.91-4.62-.16-.26-.34-.35-.64-.35-2.96.01-5.91,0-8.87,0-.17,0-.33,0-.56,0,.08-.16.13-.27.2-.37.96-1.53,1.93-3.05,2.88-4.59.14-.23.3-.32.57-.31.92.02,1.85,0,2.87,0-1.26-2.01-2.49-3.97-3.75-5.96-.11.17-.2.29-.28.41-3.29,5.22-6.58,10.44-9.86,15.67-.19.3-.37.41-.73.41-8.78-.01-17.56,0-26.34,0h-.53c2.23-3.52,4.41-6.98,6.64-10.5h-4.85c.09-.16.14-.27.2-.38.96-1.51,1.92-3.02,2.87-4.55.16-.26.34-.35.64-.35,6.48,0,12.97,0,19.45,0,.13,0,.27.01.46.02-.21.33-.38.61-.56.89-.85,1.33-1.7,2.66-2.54,4.01-.15.25-.32.33-.6.33-2.77-.01-5.55,0-8.32-.01-.3,0-.48.08-.64.34-.94,1.49-1.89,2.98-2.84,4.46-.08.13-.15.26-.26.43.19.01.32.03.45.03,4.59,0,9.19,0,13.78,0,.33,0,.5-.12.66-.38,4.28-6.78,8.57-13.56,12.86-20.33.09-.14.18-.28.32-.5Z"/><path class="cls-1" d="M47.88,19.46c-.08.14-.12.23-.17.31-.97,1.54-1.95,3.07-2.91,4.62-.13.21-.27.31-.53.31-6.97,0-13.95,0-20.92,0-.08,0-.16,0-.29-.01.07-.14.12-.25.18-.35.96-1.53,1.93-3.05,2.88-4.58.13-.21.26-.32.53-.32,6.97,0,13.95,0,20.92,0,.08,0,.16.01.31.02Z"/><path class="cls-1" d="M49.81,55.08c.66,1.56,1.31,3.1,1.98,4.68-.69,0-1.31.02-1.94-.01-.11,0-.26-.18-.32-.3-.53-1.25-1.05-2.5-1.56-3.76-.11-.28-.25-.39-.55-.37-.49.03-.97,0-1.51,0v4.41h-1.99v-11.3c.13,0,.25-.02.37-.02,1.5,0,3,0,4.49,0,1.53,0,2.54,1.02,2.55,2.56,0,.41-.02.81,0,1.22.08,1.27-.3,2.29-1.54,2.89ZM45.92,53.49c.23,0,.43,0,.62,0,.66,0,1.31.03,1.97-.02.52-.04.78-.33.81-.8.02-.53.02-1.06,0-1.59-.01-.33-.15-.62-.5-.7-.33-.08-.68-.11-1.02-.12-.62-.02-1.24,0-1.87,0v3.24Z"/><path class="cls-1" d="M41.45,54.11c0,1.04,0,2.07,0,3.11-.01,1.56-.99,2.54-2.55,2.54-.84,0-1.68,0-2.52,0-1.42,0-2.46-.98-2.48-2.4-.03-2.2-.03-4.39,0-6.59.02-1.35,1.06-2.33,2.41-2.35.91-.01,1.82-.01,2.73,0,1.4.02,2.39,1.02,2.41,2.42.01,1.09,0,2.18,0,3.27ZM35.91,54.05c0,.91.02,1.82,0,2.73-.02.76.3,1.12,1.15,1.15.43.01.87.01,1.3,0,.75-.02,1.11-.37,1.11-1.06-.01-1.86,0-3.73,0-5.59,0-.63-.21-.98-1.08-1.03-.46-.03-.93-.03-1.39,0-.86.05-1.09.38-1.09,1.07,0,.91,0,1.82,0,2.73Z"/><path class="cls-1" d="M69.46,51.79c-.24,0-.42,0-.6,0-.35,0-.78.11-1.03-.05-.23-.15-.28-.6-.39-.92-.14-.39-.41-.59-.82-.6-.64,0-1.29-.02-1.93,0-.49.01-.79.33-.81.83-.02.36-.01.73,0,1.09.02.59.26.84.85.86.74.02,1.48,0,2.23,0,1.53,0,2.55,1.02,2.55,2.55,0,.6,0,1.2,0,1.81-.03,1.36-1.05,2.37-2.42,2.38-.95,0-1.9,0-2.86,0-1.34-.01-2.33-.98-2.36-2.33-.01-.37,0-.75,0-1.17.55,0,1.07,0,1.58,0,.07,0,.15.09.21.16.03.04.04.1.05.16q.37,1.38,1.81,1.38c.38,0,.76,0,1.13,0,.54-.02.82-.3.84-.84.02-.49.02-.98,0-1.47-.02-.52-.28-.76-.8-.77-.76,0-1.51,0-2.27,0-1.54-.01-2.55-1.02-2.56-2.56,0-.5,0-1.01,0-1.51.03-1.35,1.07-2.38,2.42-2.39.92,0,1.85,0,2.77,0,1.36,0,2.3.89,2.4,2.24.03.36,0,.72,0,1.14Z"/><path class="cls-1" d="M21.88,51.79c-.53,0-1.03.01-1.53-.01-.09,0-.22-.15-.26-.25q-.45-1.3-1.81-1.31c-.38,0-.76,0-1.13,0-.5.02-.8.32-.84.81-.02.36-.01.73,0,1.09.01.61.26.87.88.88.74.01,1.48,0,2.23,0,1.51,0,2.51,1.02,2.52,2.54,0,.6,0,1.2,0,1.81-.02,1.37-1.04,2.38-2.4,2.4-.95,0-1.9,0-2.86,0-1.26,0-2.19-.82-2.34-2.07-.05-.45,0-.92,0-1.43.53,0,1.05,0,1.56,0,.07,0,.15.09.21.16.03.04.03.11.05.16q.38,1.37,1.82,1.37c.39,0,.78.01,1.18,0,.47-.02.76-.29.79-.76.03-.53.03-1.06,0-1.59-.02-.48-.28-.71-.76-.71-.77-.01-1.54,0-2.31,0-1.54-.01-2.54-1.01-2.55-2.56,0-.64-.03-1.29.06-1.93.15-1.1,1.13-1.94,2.24-1.96,1.01-.02,2.02-.02,3.02,0,1.2.02,2.12.88,2.24,2.08.04.41,0,.83,0,1.29Z"/><path class="cls-1" d="M26.3,55.61v4.13h-1.98v-11.33c.3,0,.59,0,.88,0,1.37,0,2.74,0,4.12,0,1.51,0,2.54,1.02,2.54,2.52,0,.7,0,1.4,0,2.1,0,1.52-.99,2.53-2.51,2.57-.84.02-1.68,0-2.52,0-.15,0-.31,0-.53,0ZM26.32,53.77c.9,0,1.77.08,2.63-.02.65-.08.88-.27.89-.99,0-.5,0-1.01,0-1.51,0-.59-.22-.92-.79-.96-.9-.06-1.81-.02-2.73-.02v3.51Z"/><path class="cls-1" d="M60.4,48.43v1.8h-2.89v9.5h-2v-9.46h-2.87v-1.84h7.76Z"/><path class="cls-1" d="M72.17,48.83v1.03s-.07,0-.1.01c-.03-.2-.05-.39-.09-.64-.14.18-.26.33-.4.51-.13-.18-.23-.33-.38-.55-.02.27-.03.47-.04.66-.04,0-.07,0-.11,0v-1.16c.22.27.38.48.56.7.17-.22.32-.42.47-.62.03.02.06.04.09.06Z"/><path class="cls-1" d="M70.11,49.87c-.01-.28-.03-.57-.04-.85-.14-.03-.27-.06-.4-.09,0-.03,0-.06,0-.09h1.03s0,.05.01.08c-.12.03-.24.06-.39.1-.02.28-.05.57-.08.87-.05,0-.1-.01-.15-.02Z"/></svg>