<?xml version="1.0" encoding="UTF-8"?><svg id="Layer_1" xmlns="http://www.w3.org/2000/svg" viewBox="0 0 178.84 54.63"><defs><style>.cls-1{fill:#171717;}</style></defs><path class="cls-1" d="M31.16,11.72H14.07v7.49h15.68v6.6c.08.05.16.11.23.16.03-.11.05-.24.11-.33,3-4.8,7.45-7.37,12.95-8.2,4.35-.65,8.62-.27,12.65,1.67,4.37,2.11,7.13,5.63,8.75,10.11.08.23.16.45.29.84.14-.4.23-.66.33-.92,2.18-5.79,6.04-9.81,12.17-11.35,2.87-.72,5.77-.67,8.63.18,2.15.64,3.92,1.87,5.53,3.67V0h41.76v11.68h-16.82v7.54h16.82v11.28h-16.82v10.42h16.83v11.57c.06.03.12.06.18.09,4.92-5.51,9.84-11.03,14.81-16.6-4.94-5.54-9.86-11.05-14.85-16.65.27-.04.44-.08.62-.08,4.83,0,9.66-.01,14.49.02.35,0,.78.24,1.02.5,2.31,2.49,4.58,5.01,6.92,7.58.2-.22.38-.4.55-.59,2.06-2.35,4.11-4.71,6.19-7.05.2-.22.55-.45.83-.45,4.78-.03,9.56-.02,14.34-.02.07,0,.14.03.35.07-4.96,5.56-9.86,11.07-14.78,16.59,5,5.58,9.97,11.12,15,16.74-.27.03-.44.06-.62.06-4.85,0-9.71.01-14.56-.02-.33,0-.74-.21-.97-.46-2.16-2.36-4.28-4.76-6.42-7.14-.16-.18-.33-.35-.53-.56-.62.7-1.22,1.36-1.81,2.03-1.67,1.89-3.35,3.77-5,5.67-.32.37-.65.49-1.12.49-14.59-.01-29.17-.01-43.76,0-3.91,0-7.82,0-11.72,0-.26,0-.53,0-.87,0v-3.48c-.26.3-.4.45-.53.6-2.97,3.75-6.86,5.2-11.57,4.68-7.91-.88-13.86-7.41-15.18-15.27-.05-.28-.1-.57-.15-.86h-24.59c.2.86.3,1.68.57,2.43,1.09,3.01,3.93,4.81,7.13,4.72,2.21-.07,4.03-.76,5.29-2.65.11-.17.38-.34.57-.34,3.86-.02,7.72-.01,11.66-.01-.07.23-.11.41-.18.57-3.16,7.22-8.72,10.96-16.57,11.35-4.88.24-9.41-.85-13.34-3.84-4.29-3.26-6.58-7.65-7.09-12.99-.21-2.19-.06-4.35.42-6.5.04-.16.03-.33.05-.54h-13.9v22.08H0V0h31.16v11.71ZM76.55,35.89c-.03,1.65.3,3.23,1.07,4.69,1.42,2.69,3.6,4.24,6.72,4.1,3.02-.13,5.04-1.75,6.04-4.55,1.14-3.21,1.03-6.45-.41-9.54-2.23-4.81-8.64-5.27-11.64-.88-1.27,1.86-1.74,3.96-1.77,6.18ZM53.22,30.68c-.58-3.7-3.64-5.88-7.55-5.45-2.8.31-5.73,3.16-5.58,5.45h13.14Z"/></svg>