<?xml version="1.0" encoding="UTF-8"?><svg id="Layer_1" xmlns="http://www.w3.org/2000/svg" viewBox="0 0 121.8 35.62"><defs><style>.cls-1{fill:#171717;}</style></defs><path class="cls-1" d="M40.89.9c.7,0,1.33,0,1.96,0,4.4.05,8.81-.02,13.21.19,4.44.21,7.4,2.75,7.96,6.44.67,4.38-1.42,8.07-5.53,9.76-.66.27-1.34.47-2.25.78,3.61,5.59,7.18,11.11,10.86,16.81-.45,0-.73,0-1,0-2.4,0-4.81-.03-7.21.03-.7.02-1.07-.18-1.42-.78-2.69-4.68-5.42-9.35-8.14-14.01-.2-.34-.41-.66-.87-.92v15.6h-7.57V.9ZM48.46,16.74c3.69.63,6.54-.9,7.41-3.97.56-1.99.52-4.01-.01-6-.3-1.13-.98-2.04-2.08-2.52-1.7-.73-3.48-.69-5.32-.63v13.12Z"/><path class="cls-1" d="M32.82,3.02c-.4,1.55-.79,3.06-1.2,4.57-.05.18-.29.49-.35.47-.29-.09-.63-.22-.81-.45-1.54-1.94-3.48-3.3-5.85-4.02-5.81-1.77-11.48.59-14.13,6.04-2.49,5.12-2.83,10.46-.9,15.83,2.62,7.3,10.89,8.24,15.66,6.09.64-.29.75-.71.75-1.32-.02-3.11,0-6.23,0-9.34,0-.4,0-.81,0-1.18h7.49c.02.19.07.44.07.7,0,4.01,0,8.03.01,12.04,0,.57-.04.94-.75,1.13-5.48,1.45-11,2.52-16.71,1.75-3.99-.54-7.7-1.79-10.8-4.44C.59,26.83-.53,21.52.21,15.68,1.31,6.97,7.5,1.81,15.93.43,21.56-.49,27.03,0,32.19,2.64c.17.09.33.17.5.27.06.04.11.09.14.12Z"/><path class="cls-1" d="M86.71,33.43c.44-1.89.83-3.69,1.28-5.46.08-.32.4-.58.6-.86.25.26.61.49.73.8,1.49,3.94,5.78,5.76,9.6,4.05,3.2-1.43,4.05-5.51,1.53-7.94-1-.97-2.3-1.66-3.54-2.35-1.54-.85-3.21-1.49-4.74-2.35-4.33-2.45-6.05-6.35-5.05-11.22.87-4.27,4.38-7.31,9.04-7.9,3.34-.42,6.52,0,9.51,1.6.2.11.38.24.56.38.09.07.15.16.25.26-.46,1.46-.91,2.92-1.4,4.37-.07.21-.32.52-.47.51-.24-.02-.5-.22-.68-.42-.17-.19-.23-.47-.36-.7-1.67-3.03-5.59-4.12-8.61-2.4-2.31,1.32-2.94,4.85-1.01,6.7,1.14,1.09,2.59,1.89,3.97,2.71,2.09,1.25,4.38,2.21,6.33,3.64,4.13,3.03,5.09,8.59,2.47,12.99-1.05,1.76-2.51,3.1-4.35,3.98-4.9,2.36-9.85,2.38-14.81.14-.2-.09-.4-.2-.6-.32-.09-.06-.17-.14-.25-.22Z"/><path class="cls-1" d="M72.45,1.03h7.43v33.75h-7.43V1.03Z"/><path class="cls-1" d="M121.8,34.89c-1.33-.08-2.56-.2-3.8-.2-1.2,0-2.39.13-3.67.21V1.04h7.47v33.86Z"/></svg>