<?xml version="1.0" encoding="UTF-8"?><svg id="Layer_1" xmlns="http://www.w3.org/2000/svg" viewBox="0 0 123.55 50.91"><defs><style>.cls-1{fill:#171717;}</style></defs><path class="cls-1" d="M0,50.62c0-16.6,0-33.2,0-49.8.08,0,.16-.03.24-.03,4.44,0,8.89,0,13.33,0,.12,0,.24.03.4.05v18.48h8.77V.83h13.51v49.81h-13.52v-19.29h-8.79v19.31h-.57c-4.3,0-8.6,0-12.89,0-.16,0-.32-.02-.48-.03Z"/><path class="cls-1" d="M39.25,50.63V.88c.23,0,.43,0,.64,0,7.21,0,14.43.05,21.64-.02,4.13-.04,7.41,1.61,10.14,4.55,1.96,2.12,3.28,4.59,3.74,7.48.07.42.1.85.15,1.33,3.25-6.22,8.01-10.66,14.64-12.89,5.28-1.78,10.63-1.78,15.94-.05,10.71,3.47,17.57,13.22,17.42,24.63-.15,10.86-7.69,20.84-18.07,23.93-3.83,1.14-7.71,1.35-11.65.69-3.96-.67-7.54-2.23-10.72-4.68-3.16-2.43-5.63-5.43-7.49-8.97-.16.9-.26,1.79-.47,2.64-1.42,5.67-6.74,10.33-12.56,11.01-.69.08-1.38.13-2.07.13-6.94,0-13.88,0-20.82,0-.14,0-.28-.01-.46-.02ZM110.96,25.39c.03-6.95-5.64-12.66-12.62-12.69-6.98-.03-12.67,5.64-12.68,12.66-.02,6.98,5.61,12.65,12.6,12.7,6.96.04,12.66-5.64,12.7-12.66ZM52.12,20.33c.11.02.15.04.2.04,2.21,0,4.41.01,6.62,0,.97,0,1.77-.42,2.41-1.14.67-.74,1-1.63,1.12-2.61.32-2.59-1.49-4.67-4.08-4.67-1.9,0-3.8,0-5.7,0-.19,0-.37,0-.57,0v8.38ZM52.1,30.66v8.36c.08.02.12.03.17.03,2.27,0,4.54.04,6.81-.03.56-.02,1.17-.27,1.64-.59,1.5-1.01,2.1-3.14,1.51-5.01-.5-1.58-1.72-2.72-3.13-2.75-2.32-.05-4.63-.01-7-.01ZM72.98,22.45c-1.38,1.29-2.89,2.36-4.75,2.93,2.04.69,3.53,2.03,4.75,3.53v-6.46Z"/><path class="cls-1" d="M98.3,35.34c-5.48,0-9.93-4.46-9.94-9.96,0-5.52,4.46-9.99,9.96-9.98,5.47.01,9.94,4.51,9.92,9.98-.02,5.5-4.47,9.96-9.95,9.96Z"/></svg>