<?xml version="1.0" encoding="UTF-8"?>
<svg id="Layer_1" xmlns="http://www.w3.org/2000/svg" xmlns:xlink="http://www.w3.org/1999/xlink" version="1.1" viewBox="0 0 300 47.4">
  <!-- Generator: Adobe Illustrator 29.1.0, SVG Export Plug-In . SVG Version: 2.1.0 Build 142)  -->
  <defs>
    <style>
      .st0 {
        fill: none;
      }

      .st1 {
        fill: #171717;
      }

      .st2 {
        clip-path: url(#clippath-1);
      }

      .st3 {
        clip-path: url(#clippath);
      }
    </style>
    <clipPath id="clippath">
      <rect class="st0" width="299.1" height="47.2"/>
    </clipPath>
    <clipPath id="clippath-1">
      <rect class="st0" width="57.6" height="47.2"/>
    </clipPath>
  </defs>
  <g class="st3">
    <g>
      <path class="st1" d="M201.9,0h0s-135.2,0-135.2,0c-1.7,0-3.3,1.1-3.8,2.7l-10.4,30.2c-2.4,7,2.8,14.3,10.2,14.3h125.7c1.7,0,3.3-1.1,3.8-2.7l13.5-39.1C206.6,2.7,204.7,0,201.9,0ZM68.7,41.2c-7,0-9.5-1.2-9.1-5.5h0c.1-1.2.4-2.4.8-3.5l.7-2.2h8.5l-1.1,3.2h2.9c2.8,0,3.5-.7,4.2-2.9l8.3-23.9h9.2l-8.3,23.9c-3.2,9.3-6.5,11-16.2,11ZM106.4,41.1c-3.1,0-6.2,0-9.3,0-5.4,0-9.2-5.4-7.5-10.6l8.4-24.2h0s0,0,0,0c0,0,0,0,0,0h9.2s0,0,0,0l-8.5,24.6c-.3.9.3,1.9,1.3,2,2.1.2,4.4.3,6.9,0,1.6-.1,3-1.2,3.5-2.7l8.3-23.9s0,0,0,0h9.2s0,0,0,0l-8.9,25.7c-1.9,5.4-6.9,9-12.6,9.1ZM135.4,41c-8.8,0-13.7-1.2-13.1-7.7.1-1.4.5-3.2,1.3-5.3l3.1-9c4-11.4,10.8-13.1,20.9-13.1s13.8.6,12.6,6.5h0c-.4,2.2-1.2,4.2-1.2,4.2h-9.1l1.1-3.2h-5.9c-6.4,0-7.7,2-9.6,7.6l-1.9,5.6c-.5,1.4-.8,2.5-.8,3.4-.3,3,1.7,3.4,5.4,3.4s6.3-1,7.9-5.9h-5.6v-6.4h14.5c1.1,0,1.9.9,1.9,1.9s0,.4-.1.6l-1.2,3.5c-4,11.7-7.7,13.8-20.1,13.8ZM187.2,9.1l-1.3,31.8h-9.4l.3-5.9h-8.1v-6.7h8.6l.9-15h0l-17.5,27.6h-9.6l20.6-32c1-1.6,2.8-2.6,4.7-2.6h8.1c1.5,0,2.7,1.2,2.7,2.7,0,0,0,0,0,.1Z"/>
      <path class="st1" d="M212.4,8.4c.4-1.2,1.6-2.1,2.9-2.1h16c5.7,0,9.1.8,8.7,5.4,0,.9-.4,2.1-.9,3.5-1.5,4.4-3.3,7.2-8.2,8v.3c3.3.2,4.3,1.7,4.1,4.1,0,1.1-.5,2.3-.9,3.7-2.9,8.5-7.3,9.6-14.6,9.6h-14.1c-2.1,0-3.5-2-2.8-4l9.8-28.5h0,0ZM224.2,20.2c3.2,0,4.1-.5,5.1-3.3.2-.6.3-1.1.4-1.5,0-.9-.4-1.4-2.3-1.4h-7.8l-6.7,19.4h7c3,0,4.4-.7,5.4-3.5.2-.6.3-1.1.4-1.5.1-1.4-.9-1.7-3.3-1.7h-4.9v-6.4h6.7,0s0,0,0,0ZM234.2,37l9.8-28.4c.5-1.3,1.7-2.2,3.1-2.2h22.6l-2.6,7.6h-15.7l-6.7,19.4h16l-2.6,7.6h-21.1c-2,0-3.5-2-2.8-3.9h0,0ZM249.2,26.7h12.4l2.2-6.4h-14.6v6.4h0ZM271.8,6.4h27.3l-2.6,7.6h-27.3l2.6-7.6ZM277.9,40.9h-9.2l9.3-27,8.3,2.5-8.5,24.5h0Z"/>
      <g class="st2">
        <path class="st1" d="M53.6,0H15.2c-2.3,0-4.4,1.5-5.1,3.6L.7,31.1c-2.7,7.9,3.2,16.1,11.5,16.1h27.1,0c2.3,0,4.4-1.5,5.1-3.7L57.4,5.4C58.3,2.7,56.4,0,53.6,0ZM43.4,20.7l-24.5,20c-.4.4-1.1,0-.9-.6l4.3-12.6c.1-.4-.1-.7-.5-.7h-11.7c-.2,0-.3,0-.4-.2-.2-.2-.2-.6,0-.8L34.8,5.2h0c.4-.4,1.1,0,.9.6l-4.7,13.1c0,0,0,.1,0,.2,0,.3.2.6.6.6h11.5c.2,0,.3,0,.4.2.2.2.2.6,0,.8Z"/>
      </g>
    </g>
  </g>
</svg>