<?xml version="1.0" encoding="UTF-8"?><svg id="Layer_1" xmlns="http://www.w3.org/2000/svg" viewBox="0 0 152.66 41"><defs><style>.cls-1{fill:#171717;}</style></defs><path class="cls-1" d="M6.41,18.26v21.87c-2.15.29-4.26.58-6.41.87V0h4.66c1.46,0,1.45,0,1.95,1.39,2.53,7.01,5.06,14.01,7.59,21.02.04.11.09.23.22.34V.04h6.44v38.4c-1.09.12-2.16.24-3.23.36-1.12.12-2.23.22-3.34.38-.37.05-.49-.07-.6-.38-2.31-6.67-4.64-13.33-6.96-20-.06-.18-.13-.36-.19-.55-.04,0-.08,0-.13.01Z"/><path class="cls-1" d="M152.66,41c-1.33-.18-2.58-.35-3.83-.51-1.01-.13-2.01-.28-3.02-.39-.36-.04-.55-.16-.69-.52-1.43-3.73-2.89-7.46-4.34-11.19-.04-.12-.1-.23-.18-.41-.56,1.29-1.1,2.53-1.64,3.76-.97,2.24-1.94,4.47-2.88,6.71-.16.38-.34.43-.71.39-1.88-.21-3.76-.39-5.63-.58-.19-.02-.38-.06-.63-.1.6-1.4,1.19-2.77,1.78-4.13,2.06-4.77,4.11-9.54,6.18-14.3.14-.32.15-.58.02-.9-2.37-6.08-4.73-12.16-7.09-18.25-.06-.16-.11-.33-.18-.54.17-.01.3-.03.44-.03,2.01,0,4.03,0,6.04-.01.36,0,.52.1.65.44,1.23,3.2,2.47,6.4,3.72,9.6.08.2.16.39.27.68.53-1.23,1.04-2.37,1.53-3.52.97-2.25,1.95-4.5,2.91-6.76.14-.33.3-.45.66-.44,2.05.02,4.1,0,6.15.01.14,0,.27.01.47.02-.71,1.64-1.39,3.24-2.08,4.83-2.04,4.72-4.08,9.43-6.1,14.16-.1.24-.08.59.01.84,2.64,6.85,5.3,13.7,7.95,20.54.06.16.12.33.22.6Z"/><path class="cls-1" d="M27.08,37.8V.05h17.83v6.36h-11.35v8.57h8.6v6.37h-8.61v9.57c3.77-.26,7.52-.51,11.33-.77v6.33c-5.91.44-11.85.88-17.81,1.32Z"/><path class="cls-1" d="M79.49,21.02v14.57h-6.41V.05h17.91v6.37h-11.47v8.2h8.66v6.4h-8.69Z"/><path class="cls-1" d="M62.24,35.8c-2.2.07-4.3.14-6.45.21V6.44h-6.73V.05h19.86v6.36h-6.68v29.39Z"/><path class="cls-1" d="M112.59,30.46v6.32c-5.81-.29-11.62-.59-17.45-.88V.05h6.39v29.78c3.71.21,7.36.42,11.06.63Z"/><path class="cls-1" d="M117.9.03h6.37v37.7c-2.13-.18-4.24-.35-6.37-.53V.03Z"/></svg>