<?xml version="1.0" encoding="UTF-8"?><svg id="Layer_1" xmlns="http://www.w3.org/2000/svg" viewBox="0 0 121.85 57.96"><defs><style>.cls-1{fill:#171717;}</style></defs><path class="cls-1" d="M121.85,52.69c-20.05-4.53-40.45-5.48-60.9-5.49-20.44,0-40.84.94-60.96,5.49V5.54c40.64,7.02,81.2,7.03,121.85,0v47.15ZM86.06,22.14c-.96-.18-1.75-.37-2.56-.46-2.58-.29-4.6,1.01-4.72,3.48-.19,4.01-.13,8.03.04,12.04.08,1.89,1.4,3.29,2.89,3.37,1.42.07,2.86-.16,4.29-.25.1-.26.2-.19.29-.1.9.97,2.04.61,3.02.35.31-.08.47-1.15.51-1.78.08-1.16.02-2.33.02-3.5.01-6.49.03-12.98.02-19.46,0-.48-.05-1.16-.35-1.41-.77-.65-3.43.84-3.44,1.86-.01,1.93,0,3.87,0,5.87ZM35.87,22.08c0-1.77,0-3.67,0-5.57,0-2.28-.03-2.3-2.26-1.64-.12.04-.24.11-.37.13-.84.12-1.11.57-1.12,1.42,0,7.58-.06,15.15-.08,22.73,0,1.57.07,1.62,1.89,1.61,1.87,0,1.93-.05,1.93-1.58,0-4.55,0-9.09,0-13.64,0-1.17.78-2.04,1.75-2.02.91.02,1.57.83,1.62,2,.01.35,0,.69,0,1.04,0,4.24.03,8.49-.02,12.73-.01,1.13.39,1.62,1.52,1.47.21-.03.44-.03.65,0,1.22.16,1.67-.31,1.65-1.59-.07-4.59-.03-9.18-.03-13.77,0-2.29-1.03-3.46-3.33-3.55-1.24-.05-2.48.15-3.82.24ZM8.82,33.02c-.8.52-1.26.82-1.72,1.13-1.48,1.02-1.66,1.63-1.05,3.38.97,2.76,3.63,4.02,7.02,3.34,2.9-.59,4.59-3.11,3.94-5.97-.2-.88-.52-1.74-.9-2.56-1.88-4.08-3.81-8.14-5.7-12.22-.24-.51-.46-1.03-.57-1.58-.25-1.26.42-2.33,1.55-2.6,1.17-.28,2.54.36,2.82,1.49.23.95.2,1.96.27,2.95.04.53.07,1.06.1,1.64,3.24-1.39,3.72-2.32,2.1-5.35-1.64-3.07-7.15-3.15-9.3-1.01-1.69,1.69-2.03,3.66-.8,6.46,1.11,2.53,2.34,5.01,3.5,7.52,1,2.16,2.02,4.31,2.95,6.49.46,1.08.38,2.18-.75,2.85-.96.58-2.04.46-2.71-.38-.47-.58-.63-1.49-.73-2.27-.12-.96-.03-1.95-.03-3.32ZM46.23,31.03c0,2.42,0,4.85,0,7.27,0,2.58,0,2.55,2.55,2.47.87-.03,1.27-.33,1.26-1.22-.04-3.29-.06-6.57-.06-9.86,0-1.51-.03-3.03.08-4.53.07-.97.74-1.55,1.76-1.54,1.01.02,1.41.75,1.6,1.59.09.37.04.77.04,1.16,0,4.02,0,8.05,0,12.07,0,2.66-.2,2.25,2.41,2.32,1.01.03,1.35-.31,1.33-1.35-.05-4.84-.04-9.69,0-14.53,0-1.37-.67-2.22-1.85-2.67-1.55-.59-3.12-.58-4.69.02-.26.1-.6.13-.87.06-.7-.2-1.37-.51-2.06-.71-1.32-.39-1.5-.25-1.5,1.15-.01,2.77,0,5.54,0,8.31ZM63.66,33.41c1.9-.53,3.71-.98,5.46-1.57.51-.17,1.19-.77,1.23-1.22.12-1.67.16-3.39-.07-5.04-.13-.9-.66-1.94-1.35-2.54-1.76-1.56-3.89-1.73-6.08-.99-2.09.71-3.18,2.31-3.27,4.4-.13,3.19-.12,6.4.03,9.6.1,2.01.85,3.89,3,4.6,2.38.78,4.78.87,6.88-.84.39-.32.61-.86.91-1.3-.1-.1-.19-.2-.29-.3-1.68.81-3.42,1.63-5.12.38-1.73-1.28-1.25-3.25-1.32-5.16ZM102.71,38.5c-.11-.09-.22-.19-.32-.28-.34.16-.68.32-1.01.48-2.93,1.36-5.22,0-5.38-3.23-.02-.39.04-.78-.01-1.17-.1-.72.27-.98.89-1.15,1.59-.42,3.16-.89,4.74-1.32.79-.21,1.13-.66,1.1-1.49-.04-1.47.16-2.97-.07-4.4-.17-1.04-.63-2.26-1.38-2.92-1.78-1.58-3.99-1.74-6.22-.91-2.06.77-3.08,2.41-3.14,4.51-.09,3.2-.04,6.4.09,9.59.08,2.08.98,3.85,3.11,4.5,2.44.74,4.89.83,6.93-1.12.3-.28.45-.72.67-1.08ZM30.07,38.26c-.13-.09-.26-.18-.39-.28-.23.12-.45.23-.68.35-3.35,1.78-5.65.42-5.65-3.36,0-3.12.02-6.23,0-9.35,0-1.07.21-2,1.46-2.02,1.29-.02,1.45.96,1.45,2,.02,2.4.04,2.42,2.36,1.73.5-.15,1.18-.39,1.35-.77.65-1.51-.41-3.71-1.98-4.29-1.89-.7-3.83-.71-5.72-.03-1.94.71-3.01,2.19-3.05,4.25-.06,3.03-.08,6.06.01,9.09.06,2.11.58,4.18,2.82,4.98,2.41.86,4.87.83,7.01-.88.44-.35.69-.95,1.02-1.43ZM109.23,22.42c-1.08-.44-1.82-.79-2.59-1.03-1.59-.5-1.77-.35-1.78,1.36,0,5.28,0,10.56,0,15.84,0,2.19,0,2.13,2.24,2.19,1.25.03,1.64-.39,1.62-1.65-.08-4.5-.06-9-.06-13.5,0-1.23.7-2.07,1.66-2.1,1-.03,1.69.76,1.75,2,.11,2.49.12,2.51,2.54,1.76.44-.14,1.03-.45,1.16-.82.69-2.02-.54-4.12-2.64-4.6-1.5-.35-2.92-.06-3.89.55ZM72.54,31.37c0,2.55,0,5.1,0,7.65,0,1.64.09,1.73,1.64,1.73,2.18,0,2.22-.02,2.22-1.69-.01-4.58-.04-9.16-.06-13.75,0-2.33,0-2.33-2.26-2.92-1.28-.34-1.53-.16-1.53,1.19-.01,2.59,0,5.19,0,7.78ZM74.59,20.58c1.11,0,2.07-.93,2.1-2.05.04-1.23-.88-2.16-2.1-2.14-1.11.02-2.05.97-2.05,2.09,0,1.13.94,2.09,2.04,2.1Z"/><path class="cls-1" d="M116.38.16c0,.99.06,2.1-.04,3.19-.03.28-.57.64-.93.72-4.73.99-9.45,2.12-14.23,2.84-5.38.81-10.81,1.29-16.22,1.82-2.97.29-5.95.47-8.93.54-5.93.15-11.87.36-17.8.24-7.52-.16-15.04-.55-22.55-.98-8.38-.48-16.68-1.6-24.89-3.38-1.52-.33-3.04-.69-4.52-1.14-.42-.13-.74-.62-1.1-.95.1-.15.19-.3.29-.45.98.24,1.95.54,2.95.71,5.48.97,10.94,2.15,16.47,2.78,6.26.72,12.57,1.06,18.87,1.32,5.88.25,11.78.37,17.66.2,6.43-.19,12.86-.71,19.28-1.21,10.23-.79,20.34-2.33,30.27-4.95,1.71-.45,3.4-.98,5.11-1.46.03,0,.08.03.33.15Z"/><path class="cls-1" d="M116.21,55.19c-2.68-.61-5.34-1.36-8.05-1.8-4.69-.77-9.38-1.54-14.11-1.95-6.2-.54-12.42-.8-18.64-1.07-4.11-.18-8.23-.32-12.33-.19-6.48.2-12.97.48-19.43,1.01-11.34.93-22.6,2.43-33.6,5.45-1.46.4-2.89.88-4.34,1.32-.07.02-.16-.03-.4-.07,0-.91-.08-1.86.04-2.78.05-.33.55-.78.91-.86,4.09-.91,8.17-1.94,12.3-2.57,5.72-.87,11.48-1.48,17.23-2.07,3.22-.33,6.47-.48,9.71-.55,7.66-.15,15.33-.35,23-.23,6.26.1,12.52.56,18.78.98,8.55.57,17.02,1.73,25.37,3.65.97.22,1.93.47,2.88.77.33.11.6.41.9.62-.08.11-.15.22-.23.33Z"/><path class="cls-1" d="M86.06,31.24c0,1.9.01,3.8,0,5.71-.01,1.26-.67,2-1.7,2-1.01,0-1.66-.77-1.67-2.03,0-3.8-.01-7.61,0-11.41,0-1.24.68-1.96,1.77-1.9,1.2.07,1.61.82,1.6,1.93-.01,1.9,0,3.8,0,5.71Z"/><path class="cls-1" d="M63.69,31.37c0-2.28-.08-4.39.06-6.49.03-.48.84-1.22,1.32-1.25.46-.03,1.34.68,1.39,1.13.18,1.76.14,3.54.1,5.31,0,.25-.44.59-.75.71-.63.25-1.3.37-2.13.6Z"/><path class="cls-1" d="M96.01,31.43c0-2.35-.1-4.42.07-6.47.04-.51.9-1.33,1.4-1.34.48-.01,1.36.79,1.42,1.31.19,1.67.29,3.4.02,5.04-.23,1.38-1.76.91-2.9,1.46Z"/></svg>