<?xml version="1.0" encoding="UTF-8"?><svg id="Layer_1" xmlns="http://www.w3.org/2000/svg" viewBox="0 0 97.01 74.86"><defs><style>.cls-1{fill:#171717;}</style></defs><path class="cls-1" d="M36.3,0c1.04.22,2.04.41,3.03.64,6.5,1.5,12.89,3.37,19.2,5.51,2.57.87,5.08,1.92,7.44,3.28,1.86,1.06,3.58,2.31,5.05,3.88,2.01,2.14,3.3,4.67,4.03,7.5.41,1.6.67,3.22.77,4.86.07,1.29.14,2.57.13,3.86,0,2.31-.3,4.58-1.06,6.77-.57,1.66-1.39,3.17-2.63,4.44-1.64,1.68-3.64,2.57-5.97,2.76-2.17.17-4.23-.28-6.25-1.04-.57-.22-1.12-.47-1.69-.71,0-.21,0-.37,0-.53,0-7.55,0-15.1,0-22.65,0-1.06-.03-2.12-.31-3.15-.12-.44-.28-.88-.5-1.28-.58-1.09-1.53-1.68-2.73-1.88-.73-.12-1.33.14-1.8.7-.35.41-.58.88-.69,1.39-.11.52-.18,1.05-.24,1.58-.03.29-.01.59-.01.88,0,19.16,0,38.31,0,57.47v.59c-5.28-1.68-10.52-3.34-15.78-5.01V0Z"/><path class="cls-1" d="M55.09,64.65c1.05-.37,2.08-.74,3.11-1.11,7.37-2.63,14.74-5.25,22.11-7.88.6-.21,1.2-.44,1.73-.81.28-.2.54-.43.75-.7.31-.39.26-.83-.12-1.16-.21-.19-.47-.35-.73-.47-.69-.32-1.43-.46-2.18-.54-2.82-.28-5.57.06-8.24,1.01-5.33,1.9-10.67,3.76-16,5.64-.13.05-.26.08-.42.13v-9.47c.43-.15.86-.31,1.3-.44,2.7-.86,5.46-1.47,8.25-1.94,3.36-.57,6.74-.8,10.14-.67,5.08.2,10.03,1.03,14.82,2.78,1.2.44,2.41.84,3.54,1.43.83.43,1.62.92,2.31,1.56.45.41.84.86,1.12,1.39.58,1.08.58,2.17,0,3.25-.27.5-.63.93-1.04,1.31-.88.83-1.89,1.47-2.94,2.05-1.48.82-3.05,1.41-4.64,1.98-10.79,3.87-21.58,7.75-32.37,11.62-.15.06-.31.1-.49.16v-9.13Z"/><path class="cls-1" d="M33.18,42.24v9.17c-.3.11-.59.22-.89.33-5.1,1.82-10.2,3.64-15.29,5.47-.55.2-1.08.46-1.59.74-.29.16-.56.41-.77.67-.35.43-.31.9.12,1.25.27.22.59.39.92.53.78.33,1.62.45,2.46.5,2.44.15,4.84-.06,7.16-.87,2.39-.84,4.77-1.72,7.15-2.59.23-.08.45-.16.71-.25v8.19c-.37.07-.73.13-1.09.2-3.56.61-7.14.84-10.75.68-4.67-.2-9.24-1.02-13.69-2.46-.93-.3-1.87-.61-2.78-.97-1.14-.45-2.2-1.07-3.13-1.89-.56-.5-1.04-1.05-1.36-1.73-.58-1.23-.49-2.42.27-3.55.33-.49.76-.89,1.24-1.24,1.32-.96,2.75-1.7,4.22-2.38,1.95-.91,3.99-1.61,6.02-2.33,6.88-2.44,13.75-4.89,20.63-7.33.13-.05.26-.09.42-.14Z"/><path class="cls-1" d="M91.11,67.34c2.05,0,3.69,1.64,3.7,3.69,0,2.05-1.64,3.69-3.69,3.69-2.05,0-3.69-1.64-3.7-3.69,0-2.05,1.64-3.7,3.69-3.7ZM88.05,71.03c0,1.7,1.35,3.07,3.05,3.07,1.71,0,3.09-1.36,3.09-3.07,0-1.7-1.36-3.06-3.05-3.07-1.73,0-3.09,1.34-3.09,3.07Z"/><path class="cls-1" d="M92.42,71c.26.18.33.44.33.74,0,.17.02.33.03.5.01.19,0,.38.15.54.04.04.02.14.03.23h-.79c-.03-.11-.07-.23-.08-.35-.03-.29-.03-.59-.06-.88-.03-.28-.16-.42-.44-.43-.43-.02-.86,0-1.34,0v1.66h-.71v-4.1c.19,0,.36,0,.53,0,.43,0,.87,0,1.3,0,.13,0,.26,0,.38.02.43.07.83.22.98.68.15.47.14.93-.27,1.3-.03.02-.04.06-.06.11ZM90.28,70.67c.47,0,.93.03,1.38,0,.33-.02.45-.21.45-.54,0-.33-.13-.53-.45-.55-.45-.03-.9,0-1.38,0v1.11Z"/></svg>