<?xml version="1.0" encoding="UTF-8"?><svg id="Layer_1" xmlns="http://www.w3.org/2000/svg" viewBox="0 0 146.03 46.12"><defs><style>.cls-1{fill:#171717;}</style></defs><path class="cls-1" d="M86.07,29.61c2.47-4.08,6.07-6.05,10.71-5.76,4.61.29,7.95,2.64,9.86,6.98,0-.21,0-.41,0-.62.01-1.1-.03-2.2.06-3.3.11-1.31,1.14-2.27,2.45-2.42.28-.03.57-.04.86-.04,11.41,0,22.82,0,34.23,0h.76c-.79,1.47-1.51,2.82-2.27,4.17-.06.11-.3.17-.46.18-.8.02-1.59-.02-2.39.02-.46.03-.94.1-1.36.28-.92.38-1.08,1.43-.32,2.08.35.29.79.51,1.22.67.8.3,1.63.51,2.44.78,2.8.95,4.12,2.54,4.17,4.94.06,3.31-1.23,5.5-4.01,6.53-3.67,1.35-7.05.53-10.32-1.52.72-1.36,1.42-2.68,2.15-4.06.3.23.57.45.85.64,1.28.9,2.65,1.55,4.28,1.25.42-.08.87-.28,1.2-.54.84-.67.82-1.91-.06-2.52-.53-.36-1.15-.6-1.76-.82-.82-.3-1.68-.49-2.5-.79-2.56-.95-3.59-2.62-3.35-5.35.05-.51.13-1.01.21-1.55h-3.05v15.34h-5.16v-15.32h-3.43c.59,3.29-.52,6.37-4.14,7.32,2.04,2.66,4.06,5.29,6.17,8.04-1.26,0-2.38-.12-3.48.03-1.57.21-2.53-.39-3.38-1.69-1.23-1.87-2.66-3.61-4.01-5.4-.11-.14-.22-.28-.42-.54v7.55h-5.17v-6.64c-2.4,5.83-6.84,8.1-12.85,7.11-5.15-.85-7.9-4.28-8.69-9.43-1.5,2.01-3.63,2.42-5.89,2.46-.97.02-1.95,0-2.98,0v6.51h-5.12v-15.55c-.23-.02-.41-.05-.58-.05-2.31,0-4.61-.03-6.92.02-.57.01-1.18.17-1.68.44-.97.53-1.01,1.69-.09,2.3.52.34,1.13.55,1.72.77.93.35,1.92.58,2.82.99,2.41,1.09,3.39,2.96,3.05,5.66-.43,3.48-2.45,5.47-6.1,5.91-2.86.34-5.5-.36-7.91-1.95-.07-.04-.12-.11-.21-.19.7-1.31,1.39-2.61,2.12-3.98.34.25.64.49.95.7,1.26.86,2.6,1.48,4.18,1.18.39-.07.79-.24,1.11-.47.91-.66.93-1.97,0-2.59-.55-.37-1.2-.6-1.82-.83-.97-.36-1.99-.62-2.95-1-1.85-.73-2.74-2.15-2.81-4.12-.15-4.07,2.22-6.77,6.3-6.9,3.61-.12,7.23-.05,10.84-.05,2.33,0,4.65,0,6.98.07,1.22.03,2.37.38,3.42,1.03,1.48.91,2.24,2.3,2.55,4.06ZM96.07,28.79c-3.02,0-5.61,2.41-5.62,5.24,0,3.27,2.49,5.89,5.62,5.88,3.1,0,5.56-2.58,5.59-5.85.02-2.82-2.57-5.26-5.59-5.27ZM76.26,33.61c1.08-.1,2.11-.15,3.13-.32.69-.11,1.2-.61,1.29-1.31.09-.63.06-1.29-.04-1.93-.09-.63-.55-1.11-1.16-1.21-1.05-.18-2.12-.24-3.22-.35v5.11ZM111.83,33.41c.88-.13,1.7-.17,2.47-.37,1.03-.27,1.55-1.06,1.57-2.14.02-1.1-.49-1.93-1.54-2.22-.79-.21-1.63-.25-2.5-.38v5.11Z"/><path class="cls-1" d="M31.85,36.17v-15.7c.23-.02.4-.04.58-.04,4.33,0,8.65,0,12.98-.01.47,0,.63.13.67.61.87,11-5.86,20.92-16.36,24.11C16.59,49.11,2.83,40.69.37,27.18c-.4-2.22-.47-4.44-.22-6.76h.69c5.14,0,10.29,0,15.43,0,.45,0,.74.12,1.01.51,3.23,4.6,6.49,9.18,9.72,13.79.71,1.01,1.58,1.54,2.82,1.47.65-.04,1.3,0,2.04,0Z"/><path class="cls-1" d="M61.42,4.58h-6.2V.71c.25,0,.47,0,.69,0,7.23,0,14.45.02,21.68-.02,1.43,0,2.41.51,3.17,1.74,1.57,2.57,3.25,5.08,4.88,7.62.11.18.23.35.49.47V.75h23.16c-.21.42-.4.8-.59,1.19-.38.74-.78,1.47-1.15,2.23-.15.32-.35.43-.7.43-1.39-.02-2.77,0-4.23,0v15.7h-5.3V4.63h-6.1v15.58c-1.57,0-3.07.06-4.57-.03-.75-.05-1.2-.7-1.61-1.31-2.16-3.24-4.33-6.47-6.49-9.7-.12-.18-.24-.36-.48-.69v11.8h-5.17V4.62h-6.05v15.66h-5.42V4.58Z"/><path class="cls-1" d="M45.15,16.47h-17.55v11.44c-.24-.31-.38-.47-.5-.64-2.2-3.11-4.42-6.2-6.59-9.34-.71-1.02-1.58-1.48-2.82-1.47-5.31.03-10.61.01-15.92.01-.24,0-.48,0-.74,0C2.81,9.28,10.13.91,21.24.07c12.38-.94,21.49,7.55,23.91,16.4Z"/></svg>