<?xml version="1.0" encoding="UTF-8"?><svg id="Layer_1" xmlns="http://www.w3.org/2000/svg" viewBox="0 0 127.13 74.19"><defs><style>.cls-1{fill:#171717;}</style></defs><path class="cls-1" d="M93.4,27.72c1.73.92,3.34,1.7,4.88,2.6,4.04,2.35,7.62,5.23,10.13,9.26,1.11,1.78,1.81,3.72,2.18,5.8.17.98-.11,1.54-.99,2.01-4.63,2.52-9.5,4.47-14.55,5.95-3.07.9-6.21,1.54-9.47,2.34,0-.64,0-1.02,0-1.4,0-5.08-.01-10.16.02-15.24.02-2.65-.86-4.96-2.38-7.08-.36-.49-.7-.65-1.32-.51-12.17,2.75-24.35,2.73-36.52.01-.69-.15-1.03.06-1.4.56-1.56,2.15-2.37,4.52-2.35,7.2.05,5.01.03,10.02.05,15.02,0,.38,0,.75,0,1.38-2.74-.63-5.33-1.14-7.86-1.83-5.56-1.52-10.89-3.61-15.99-6.32-1-.53-1.38-1.08-1.16-2.3.79-4.27,3.13-7.57,6.21-10.44,2.87-2.66,6.18-4.67,9.7-6.34.37-.18.74-.36,1.28-.63-1.11-.55-2.07-1.01-3.02-1.51-4.28-2.27-8.18-5.01-11.11-8.95-1.6-2.16-2.66-4.54-3.11-7.21-.17-.97.11-1.46.94-1.92,4.44-2.44,9.1-4.34,13.94-5.78,3.07-.91,6.23-1.51,9.35-2.24.23-.05.48-.04.81-.07,0,.44,0,.83,0,1.21-.01,5.01,0,10.02-.05,15.02-.02,2.68.81,5.05,2.37,7.2.37.51.72.69,1.4.54,12.17-2.71,24.35-2.72,36.52,0,.56.13.9.05,1.25-.43,1.54-2.11,2.46-4.41,2.44-7.06-.02-5.08-.01-10.16-.02-15.24,0-.38,0-.77,0-1.34,1.63.31,3.18.55,4.7.9,6.63,1.53,12.96,3.86,18.96,7.06,1.62.86,1.6.9,1.24,2.73-.81,4.13-3.15,7.33-6.16,10.12-2.85,2.63-6.13,4.62-9.61,6.29-.38.18-.76.36-1.29.62ZM48.84,27.75c8.03,5.52,23.76,4.6,29.48-.09-7.31-4.94-22.58-4.92-29.48.09Z"/><path class="cls-1" d="M91.54,69.1c-.77,1.41-1.61,2.79-2.3,4.24-.38.8-.94.77-1.62.79-.65.02-1.1-.1-1.42-.77-.71-1.45-1.52-2.85-2.51-4.25,0,1.3-.05,2.61.02,3.91.05.91-.3,1.13-1.15,1.12-.86,0-1.28-.15-1.24-1.15.08-1.9.05-3.81.01-5.71-.01-.73.24-.92.96-1.01,2.06-.27,3.46.34,4.1,2.45.25.82.77,1.57,1.31,2.62.66-1.27,1.22-2.34,1.76-3.41.72-1.43,2.81-2.23,4.25-1.56.18.09.34.44.34.67.03,2.11,0,4.23.03,6.34.01.87-.55.76-1.07.73-.53-.04-1.3.31-1.28-.73.02-1.41,0-2.82,0-4.23-.06-.02-.13-.04-.19-.06Z"/><path class="cls-1" d="M126.19,71.04c1.12.77.91,1.85.87,3.08-.72,0-1.42.07-2.09-.04-.21-.03-.49-.53-.5-.82-.03-.82-.37-1.16-1.18-1.07-.35.04-.7,0-1.06,0-.93.03-1.88.14-2.1-1.25-.09.05-.17.11-.26.16,0,.67-.04,1.35.01,2.02.07.8-.24,1.09-1.03,1.01-.48-.05-.98,0-1.65,0,0-1.05,0-2.02,0-2.99,0-1.23.02-2.47,0-3.7-.02-.81.31-1.14,1.13-1.13,2.01.03,4.02,0,6.03.01.99,0,2.02-.07,2.51,1.09.52,1.22.25,2.7-.69,3.64ZM119.91,70.08c1.3,0,2.53.02,3.75,0,.56-.01,1.03-.32.84-.92-.1-.31-.56-.67-.9-.71-.76-.11-1.54-.04-2.32-.04q-1.57,0-1.38,1.69Z"/><path class="cls-1" d="M100.2,74.13c-.99,0-1.98.02-2.96,0-1.18-.02-1.93-.55-2.05-1.71-.14-1.39-.15-2.81-.04-4.21.09-1.15.93-1.85,2.19-1.89,1.97-.06,3.95-.06,5.93,0,1.21.04,2.05.68,2.14,1.81.12,1.43.1,2.89-.07,4.31-.15,1.22-.84,1.66-2.06,1.69-1.02.02-2.05,0-3.07,0ZM100.27,72.16s0-.01,0-.02c.53,0,1.09.11,1.57-.04.4-.13.89-.5,1.01-.87.68-2.09-.01-2.99-2.16-2.99-.32,0-.63,0-.95,0-1.82,0-2.09.28-2.06,2.07.03,1.58.29,1.84,1.85,1.85.25,0,.49,0,.74,0Z"/><path class="cls-1" d="M21.47,74.12c-1.17,0-2.23.09-3.26-.04-.48-.06-.99-.49-1.33-.89-1.2-1.41-2.34-2.88-3.73-4.27,0,1.39-.06,2.77.02,4.16.06.97-.39,1.08-1.19,1.08-.79,0-1.23-.09-1.19-1.07.08-1.93.05-3.87,0-5.81-.02-.74.26-.9.97-.99,2.1-.28,3.57.47,4.66,2.28.64,1.07,1.53,2,2.58,2.94,0-1.35-.03-2.7.02-4.04.01-.37.18-1.01.37-1.05.6-.12,1.25-.04,1.86.04.1.01.21.42.22.64.02,2.29,0,4.58,0,7.03Z"/><path class="cls-1" d="M52.13,71.04c1.14.81.89,1.9.8,3.03h-2.32c-.07-.09-.14-.14-.15-.2-.23-1.68-.23-1.67-1.99-1.68-1.02,0-2.22.35-2.46-1.36-.08.06-.16.13-.23.19,0,.68-.04,1.35.01,2.02.06.8-.15,1.21-1.04,1.09-.45-.06-.91-.01-1.51-.01-.03-.55-.07-1.05-.07-1.56,0-1.66.04-3.31-.02-4.97-.03-.96.29-1.33,1.27-1.3,1.97.05,3.95.01,5.92.02,1,0,2.01-.04,2.47,1.15.45,1.17.19,2.66-.69,3.57ZM45.8,70.1c1.26,0,2.45.01,3.65,0,.58,0,1.02-.18,1-.92-.02-.72-.46-.77-1-.77-.74,0-1.48,0-2.22,0q-1.54,0-1.43,1.7Z"/><path class="cls-1" d="M79.65,71.04c1.13.79.9,1.89.81,3.03h-2.32c-.06-.07-.14-.12-.14-.17-.22-2.08-.22-1.65-2.09-1.69-1-.02-2.15.29-2.36-1.35-.08.05-.16.11-.24.16,0,.71-.05,1.42.01,2.12.07.79-.22,1.1-1.02,1.01-.48-.05-.97,0-1.59,0,0-2.45-.03-4.79.04-7.14,0-.23.56-.63.86-.64,2.33-.05,4.65-.04,6.98-.02.83,0,1.49.34,1.79,1.21.41,1.2.16,2.58-.73,3.49ZM73.32,70.08c1.35,0,2.59.05,3.81-.04.3-.02.67-.5.79-.84.06-.17-.36-.74-.58-.75-1.32-.07-2.65-.04-4.02-.04v1.66Z"/><path class="cls-1" d="M24.87,72.99c-.02.32-.04.66-.06,1.06h-2.32v-7.57c2.68,0,5.34-.08,8,.04,1.15.05,1.92.94,1.99,2.13.08,1.22.05,2.46-.08,3.68-.12,1.17-1.03,1.66-2.08,1.73-1.4.09-2.82.14-4.22.01-.43-.04-.8-.69-1.23-1.08ZM24.87,72.04c1.46,0,2.83.06,4.19-.04.35-.03.85-.52.96-.89.16-.55.14-1.22-.04-1.77-.12-.37-.61-.85-.97-.88-1.36-.1-2.73-.04-4.14-.04v3.62Z"/><path class="cls-1" d="M41.55,71.18c-1.53,0-2.97.05-4.41-.04-.38-.02-.73-.49-1.11-.76v1.85c1.67,0,3.32,0,4.96,0,1.16,0,1.35.17,1.16,1.26-.04.25-.45.62-.7.63-2.15.05-4.3.03-6.45.02-.96,0-1.43-.64-1.46-1.49-.07-1.58-.07-3.17-.02-4.75.03-.83.54-1.42,1.4-1.45,2.18-.06,4.37-.06,6.56-.05.77,0,.58.64.61,1.11.04.55-.17.86-.78.85-1.45-.02-2.89-.04-4.34.02-.32.01-.64.32-.95.49.3.19.59.51.91.53.88.07,1.76.03,2.64.03,1.49,0,1.54.04,1.98,1.76Z"/><path class="cls-1" d="M111.23,74.12c-.67,0-1.34.02-2.01,0-1.72-.06-2.67-.87-2.79-2.55-.11-1.51-.07-3.03-.04-4.55.02-1.06.89-.65,1.44-.7.53-.06,1.09-.08,1.07.75-.03,1.23,0,2.47-.01,3.7-.02.89.38,1.31,1.27,1.29.78-.02,1.55-.02,2.33,0,.85.02,1.23-.41,1.23-1.22,0-1.2.05-2.4-.01-3.6-.05-.89.44-.99,1.12-.93.61.06,1.44-.27,1.41.86-.03,1.34.04,2.68-.02,4.02-.09,2.04-1.01,2.9-3.08,2.93-.64.01-1.27,0-1.91,0h0Z"/><path class="cls-1" d="M70.07,74.14c-.9,0-1.57.04-2.23-.02-.26-.02-.65-.21-.73-.42-.32-.82-.91-.98-1.68-.88-.14.02-.28-.01-.42,0-1.09.12-2.06.03-2.2-1.72-.5.86-.87,1.36-1.09,1.92-.36.92-.97,1.28-1.94,1.14-.4-.06-.82,0-1.42,0,1.43-2.59,2.77-5.01,4.11-7.42.06-.11.18-.23.29-.28,1.15-.54,3.15.09,3.77,1.21,1.15,2.09,2.28,4.18,3.54,6.49ZM64.24,68.43c-.52.95-.91,1.69-1.36,2.51h2.66c-.43-.83-.81-1.57-1.3-2.51Z"/><path class="cls-1" d="M4.91,74.11c-.74,0-1.48.03-2.22,0-1.62-.09-2.58-.97-2.65-2.58-.07-1.48,0-2.96-.03-4.44-.02-1,.71-.77,1.26-.78.57,0,1.28-.2,1.26.78-.02,1.2.03,2.4-.01,3.59-.04,1.01.42,1.41,1.39,1.37.7-.03,1.41-.03,2.12,0,.89.03,1.3-.38,1.3-1.26,0-1.2.04-2.4,0-3.59-.04-1.02.62-.9,1.27-.9.65,0,1.29-.1,1.25.92-.06,1.34.01,2.68-.03,4.02-.06,1.97-.99,2.84-2.99,2.89-.63.01-1.27,0-1.9,0,0,0,0,0,0,0Z"/></svg>